<?xml version="1.0" encoding="UTF-8" standalone="no"?><svg xmlns="http://www.w3.org/2000/svg" xmlns:xlink="http://www.w3.org/1999/xlink" clip-rule="evenodd" stroke-miterlimit="4.00" viewBox="0 0 1024 768"><desc>SVG generated by Keynote</desc><defs></defs><g transform="matrix(1.00, 0.00, -0.00, -1.00, 0.0, 768.0)"><path d="M 0.0 768.0 L 1024.0 768.0 L 1024.0 0.0 L 0.0 0.0 Z M 0.0 768.0 " fill="#FEFFFF"></path><text xml:space="preserve" font-family="Helvetica-Light" font-size="80.0" fill="#000000" transform="matrix(1.00, 0.00, -0.00, -1.00, 196.0, 618.0)">T</text><text xml:space="preserve" font-family="Helvetica-Light" font-size="80.0" fill="#000000" transform="matrix(1.00, 0.00, -0.00, -1.00, 231.6, 618.0)">o</text><text xml:space="preserve" font-family="Helvetica-Light" font-size="80.0" fill="#000000" transform="matrix(1.00, 0.00, -0.00, -1.00, 276.1, 618.0)">p</text><text xml:space="preserve" font-family="Helvetica-Light" font-size="80.0" fill="#000000" transform="matrix(1.00, 0.00, -0.00, -1.00, 325.0, 618.0)"> </text><text xml:space="preserve" font-family="Helvetica-Light" font-size="80.0" fill="#000000" transform="matrix(1.00, 0.00, -0.00, -1.00, 347.2, 618.0)">L</text><text xml:space="preserve" font-family="Helvetica-Light" font-size="80.0" fill="#000000" transform="matrix(1.00, 0.00, -0.00, -1.00, 391.7, 618.0)">e</text><text xml:space="preserve" font-family="Helvetica-Light" font-size="80.0" fill="#000000" transform="matrix(1.00, 0.00, -0.00, -1.00, 436.2, 618.0)">v</text><text xml:space="preserve" font-family="Helvetica-Light" font-size="80.0" fill="#000000" transform="matrix(1.00, 0.00, -0.00, -1.00, 476.2, 618.0)">e</text><text xml:space="preserve" font-family="Helvetica-Light" font-size="80.0" fill="#000000" transform="matrix(1.00, 0.00, -0.00, -1.00, 520.6, 618.0)">l</text><text xml:space="preserve" font-family="Helvetica-Light" font-size="80.0" fill="#000000" transform="matrix(1.00, 0.00, -0.00, -1.00, 538.4, 618.0)"> </text><text xml:space="preserve" font-family="Helvetica-Light" font-size="80.0" fill="#000000" transform="matrix(1.00, 0.00, -0.00, -1.00, 560.6, 618.0)">A</text><text xml:space="preserve" font-family="Helvetica-Light" font-size="80.0" fill="#000000" transform="matrix(1.00, 0.00, -0.00, -1.00, 614.0, 618.0)">c</text><text xml:space="preserve" font-family="Helvetica-Light" font-size="80.0" fill="#000000" transform="matrix(1.00, 0.00, -0.00, -1.00, 658.5, 618.0)">t</text><text xml:space="preserve" font-family="Helvetica-Light" font-size="80.0" fill="#000000" transform="matrix(1.00, 0.00, -0.00, -1.00, 680.7, 618.0)">i</text><text xml:space="preserve" font-family="Helvetica-Light" font-size="80.0" fill="#000000" transform="matrix(1.00, 0.00, -0.00, -1.00, 698.5, 618.0)">o</text><text xml:space="preserve" font-family="Helvetica-Light" font-size="80.0" fill="#000000" transform="matrix(1.00, 0.00, -0.00, -1.00, 743.0, 618.0)">n</text><text xml:space="preserve" font-family="Helvetica-Light" font-size="80.0" fill="#000000" transform="matrix(1.00, 0.00, -0.00, -1.00, 787.4, 618.0)">s</text><text xml:space="preserve" font-family="Helvetica-Light" font-size="21.9" fill="#000000" transform="matrix(1.00, 0.00, -0.00, -1.00, 79.0, 532.5)">•</text><text xml:space="preserve" font-family="Helvetica-Light" font-size="29.2" fill="#000000" transform="matrix(1.00, 0.00, -0.00, -1.00, 107.0, 530.0)">O</text><text xml:space="preserve" font-family="Helvetica-Light" font-size="29.2" fill="#000000" transform="matrix(1.00, 0.00, -0.00, -1.00, 129.7, 530.0)">p</text><text xml:space="preserve" font-family="Helvetica-Light" font-size="29.2" fill="#000000" transform="matrix(1.00, 0.00, -0.00, -1.00, 147.5, 530.0)">t</text><text xml:space="preserve" font-family="Helvetica-Light" font-size="29.2" fill="#000000" transform="matrix(1.00, 0.00, -0.00, -1.00, 155.6, 530.0)">i</text><text xml:space="preserve" font-family="Helvetica-Light" font-size="29.2" fill="#000000" transform="matrix(1.00, 0.00, -0.00, -1.00, 162.1, 530.0)">o</text><text xml:space="preserve" font-family="Helvetica-Light" font-size="29.2" fill="#000000" transform="matrix(1.00, 0.00, -0.00, -1.00, 178.3, 530.0)">n</text><text xml:space="preserve" font-family="Helvetica-Light" font-size="29.2" fill="#000000" transform="matrix(1.00, 0.00, -0.00, -1.00, 194.5, 530.0)">s</text><text xml:space="preserve" font-family="Helvetica-Light" font-size="29.2" fill="#000000" transform="matrix(1.00, 0.00, -0.00, -1.00, 209.1, 530.0)"> </text><text xml:space="preserve" font-family="Helvetica-Light" font-size="21.9" fill="#000000" transform="matrix(1.00, 0.00, -0.00, -1.00, 114.0, 463.5)">•</text><text xml:space="preserve" font-family="Helvetica-Light" font-size="29.2" fill="#000000" transform="matrix(1.00, 0.00, -0.00, -1.00, 142.0, 461.0)">P</text><text xml:space="preserve" font-family="Helvetica-Light" font-size="29.2" fill="#000000" transform="matrix(1.00, 0.00, -0.00, -1.00, 159.8, 461.0)">a</text><text xml:space="preserve" font-family="Helvetica-Light" font-size="29.2" fill="#000000" transform="matrix(1.00, 0.00, -0.00, -1.00, 176.0, 461.0)">s</text><text xml:space="preserve" font-family="Helvetica-Light" font-size="29.2" fill="#000000" transform="matrix(1.00, 0.00, -0.00, -1.00, 190.6, 461.0)">s</text><text xml:space="preserve" font-family="Helvetica-Light" font-size="29.2" fill="#000000" transform="matrix(1.00, 0.00, -0.00, -1.00, 205.2, 461.0)"> </text><text xml:space="preserve" font-family="Helvetica-Light" font-size="21.9" fill="#000000" transform="matrix(1.00, 0.00, -0.00, -1.00, 114.0, 394.5)">•</text><text xml:space="preserve" font-family="Helvetica-Light" font-size="29.2" fill="#000000" transform="matrix(1.00, 0.00, -0.00, -1.00, 142.0, 392.0)">P</text><text xml:space="preserve" font-family="Helvetica-Light" font-size="29.2" fill="#000000" transform="matrix(1.00, 0.00, -0.00, -1.00, 159.8, 392.0)">l</text><text xml:space="preserve" font-family="Helvetica-Light" font-size="29.2" fill="#000000" transform="matrix(1.00, 0.00, -0.00, -1.00, 166.3, 392.0)">a</text><text xml:space="preserve" font-family="Helvetica-Light" font-size="29.2" fill="#000000" transform="matrix(1.00, 0.00, -0.00, -1.00, 182.5, 392.0)">y</text><text xml:space="preserve" font-family="Helvetica-Light" font-size="29.2" fill="#000000" transform="matrix(1.00, 0.00, -0.00, -1.00, 197.1, 392.0)"> </text><text xml:space="preserve" font-family="Helvetica-Light" font-size="29.2" fill="#000000" transform="matrix(1.00, 0.00, -0.00, -1.00, 205.2, 392.0)">C</text><text xml:space="preserve" font-family="Helvetica-Light" font-size="29.2" fill="#000000" transform="matrix(1.00, 0.00, -0.00, -1.00, 226.2, 392.0)">a</text><text xml:space="preserve" font-family="Helvetica-Light" font-size="29.2" fill="#000000" transform="matrix(1.00, 0.00, -0.00, -1.00, 242.5, 392.0)">r</text><text xml:space="preserve" font-family="Helvetica-Light" font-size="29.2" fill="#000000" transform="matrix(1.00, 0.00, -0.00, -1.00, 251.6, 392.0)">d</text><text xml:space="preserve" font-family="Helvetica-Light" font-size="29.2" fill="#000000" transform="matrix(1.00, 0.00, -0.00, -1.00, 269.5, 392.0)"> </text><text xml:space="preserve" font-family="Helvetica-Light" font-size="21.9" fill="#000000" transform="matrix(1.00, 0.00, -0.00, -1.00, 114.0, 325.5)">•</text><text xml:space="preserve" font-family="Helvetica-Light" font-size="29.2" fill="#000000" transform="matrix(1.00, 0.00, -0.00, -1.00, 142.0, 323.0)">F</text><text xml:space="preserve" font-family="Helvetica-Light" font-size="29.2" fill="#000000" transform="matrix(1.00, 0.00, -0.00, -1.00, 158.2, 323.0)">a</text><text xml:space="preserve" font-family="Helvetica-Light" font-size="29.2" fill="#000000" transform="matrix(1.00, 0.00, -0.00, -1.00, 174.4, 323.0)">l</text><text xml:space="preserve" font-family="Helvetica-Light" font-size="29.2" fill="#000000" transform="matrix(1.00, 0.00, -0.00, -1.00, 180.9, 323.0)">l</text><text xml:space="preserve" font-family="Helvetica-Light" font-size="29.2" fill="#000000" transform="matrix(1.00, 0.00, -0.00, -1.00, 187.4, 323.0)"> </text><text xml:space="preserve" font-family="Helvetica-Light" font-size="29.2" fill="#000000" transform="matrix(1.00, 0.00, -0.00, -1.00, 195.5, 323.0)">B</text><text xml:space="preserve" font-family="Helvetica-Light" font-size="29.2" fill="#000000" transform="matrix(1.00, 0.00, -0.00, -1.00, 214.9, 323.0)">a</text><text xml:space="preserve" font-family="Helvetica-Light" font-size="29.2" fill="#000000" transform="matrix(1.00, 0.00, -0.00, -1.00, 231.1, 323.0)">c</text><text xml:space="preserve" font-family="Helvetica-Light" font-size="29.2" fill="#000000" transform="matrix(1.00, 0.00, -0.00, -1.00, 247.4, 323.0)">k</text><text xml:space="preserve" font-family="Helvetica-Light" font-size="29.2" fill="#000000" transform="matrix(1.00, 0.00, -0.00, -1.00, 261.9, 323.0)"> </text><text xml:space="preserve" font-family="Helvetica-Light" font-size="21.9" fill="#000000" transform="matrix(1.00, 0.00, -0.00, -1.00, 79.0, 256.4)">•</text><text xml:space="preserve" font-family="Helvetica-Light" font-size="29.2" fill="#000000" transform="matrix(1.00, 0.00, -0.00, -1.00, 107.0, 254.0)">T</text><text xml:space="preserve" font-family="Helvetica-Light" font-size="29.2" fill="#000000" transform="matrix(1.00, 0.00, -0.00, -1.00, 123.2, 254.0)">h</text><text xml:space="preserve" font-family="Helvetica-Light" font-size="29.2" fill="#000000" transform="matrix(1.00, 0.00, -0.00, -1.00, 139.4, 254.0)">r</text><text xml:space="preserve" font-family="Helvetica-Light" font-size="29.2" fill="#000000" transform="matrix(1.00, 0.00, -0.00, -1.00, 148.6, 254.0)">e</text><text xml:space="preserve" font-family="Helvetica-Light" font-size="29.2" fill="#000000" transform="matrix(1.00, 0.00, -0.00, -1.00, 164.8, 254.0)">a</text><text xml:space="preserve" font-family="Helvetica-Light" font-size="29.2" fill="#000000" transform="matrix(1.00, 0.00, -0.00, -1.00, 181.0, 254.0)">d</text><text xml:space="preserve" font-family="Helvetica-Light" font-size="29.2" fill="#000000" transform="matrix(1.00, 0.00, -0.00, -1.00, 198.9, 254.0)"> </text><text xml:space="preserve" font-family="Helvetica-Light" font-size="29.2" fill="#000000" transform="matrix(1.00, 0.00, -0.00, -1.00, 207.0, 254.0)">f</text><text xml:space="preserve" font-family="Helvetica-Light" font-size="29.2" fill="#000000" transform="matrix(1.00, 0.00, -0.00, -1.00, 215.1, 254.0)">u</text><text xml:space="preserve" font-family="Helvetica-Light" font-size="29.2" fill="#000000" transform="matrix(1.00, 0.00, -0.00, -1.00, 231.3, 254.0)">l</text><text xml:space="preserve" font-family="Helvetica-Light" font-size="29.2" fill="#000000" transform="matrix(1.00, 0.00, -0.00, -1.00, 237.8, 254.0)">l</text><text xml:space="preserve" font-family="Helvetica-Light" font-size="29.2" fill="#000000" transform="matrix(1.00, 0.00, -0.00, -1.00, 244.2, 254.0)"> </text><text xml:space="preserve" font-family="Helvetica-Light" font-size="29.2" fill="#000000" transform="matrix(1.00, 0.00, -0.00, -1.00, 252.3, 254.0)">a</text><text xml:space="preserve" font-family="Helvetica-Light" font-size="29.2" fill="#000000" transform="matrix(1.00, 0.00, -0.00, -1.00, 268.5, 254.0)">p</text><text xml:space="preserve" font-family="Helvetica-Light" font-size="29.2" fill="#000000" transform="matrix(1.00, 0.00, -0.00, -1.00, 286.4, 254.0)">p</text><text xml:space="preserve" font-family="Helvetica-Light" font-size="29.2" fill="#000000" transform="matrix(1.00, 0.00, -0.00, -1.00, 304.2, 254.0)"> </text><text xml:space="preserve" font-family="Helvetica-Light" font-size="29.2" fill="#000000" transform="matrix(1.00, 0.00, -0.00, -1.00, 312.3, 254.0)">s</text><text xml:space="preserve" font-family="Helvetica-Light" font-size="29.2" fill="#000000" transform="matrix(1.00, 0.00, -0.00, -1.00, 326.9, 254.0)">t</text><text xml:space="preserve" font-family="Helvetica-Light" font-size="29.2" fill="#000000" transform="matrix(1.00, 0.00, -0.00, -1.00, 335.0, 254.0)">a</text><text xml:space="preserve" font-family="Helvetica-Light" font-size="29.2" fill="#000000" transform="matrix(1.00, 0.00, -0.00, -1.00, 351.2, 254.0)">t</text><text xml:space="preserve" font-family="Helvetica-Light" font-size="29.2" fill="#000000" transform="matrix(1.00, 0.00, -0.00, -1.00, 359.3, 254.0)">e</text><text xml:space="preserve" font-family="Helvetica-Light" font-size="29.2" fill="#000000" transform="matrix(1.00, 0.00, -0.00, -1.00, 375.5, 254.0)"> </text><text xml:space="preserve" font-family="Helvetica-Light" font-size="21.9" fill="#000000" transform="matrix(1.00, 0.00, -0.00, -1.00, 114.0, 187.4)">•</text><text xml:space="preserve" font-family="Helvetica-Light" font-size="29.2" fill="#000000" transform="matrix(1.00, 0.00, -0.00, -1.00, 142.0, 185.0)">M</text><text xml:space="preserve" font-family="Helvetica-Light" font-size="29.2" fill="#000000" transform="matrix(1.00, 0.00, -0.00, -1.00, 166.3, 185.0)">a</text><text xml:space="preserve" font-family="Helvetica-Light" font-size="29.2" fill="#000000" transform="matrix(1.00, 0.00, -0.00, -1.00, 182.5, 185.0)">k</text><text xml:space="preserve" font-family="Helvetica-Light" font-size="29.2" fill="#000000" transform="matrix(1.00, 0.00, -0.00, -1.00, 197.1, 185.0)">e</text><text xml:space="preserve" font-family="Helvetica-Light" font-size="29.2" fill="#000000" transform="matrix(1.00, 0.00, -0.00, -1.00, 213.3, 185.0)">s</text><text xml:space="preserve" font-family="Helvetica-Light" font-size="29.2" fill="#000000" transform="matrix(1.00, 0.00, -0.00, -1.00, 227.9, 185.0)"> </text><text xml:space="preserve" font-family="Helvetica-Light" font-size="29.2" fill="#000000" transform="matrix(1.00, 0.00, -0.00, -1.00, 236.0, 185.0)">w</text><text xml:space="preserve" font-family="Helvetica-Light" font-size="29.2" fill="#000000" transform="matrix(1.00, 0.00, -0.00, -1.00, 257.0, 185.0)">o</text><text xml:space="preserve" font-family="Helvetica-Light" font-size="29.2" fill="#000000" transform="matrix(1.00, 0.00, -0.00, -1.00, 273.2, 185.0)">r</text><text xml:space="preserve" font-family="Helvetica-Light" font-size="29.2" fill="#000000" transform="matrix(1.00, 0.00, -0.00, -1.00, 283.0, 185.0)">k</text><text xml:space="preserve" font-family="Helvetica-Light" font-size="29.2" fill="#000000" transform="matrix(1.00, 0.00, -0.00, -1.00, 297.5, 185.0)">i</text><text xml:space="preserve" font-family="Helvetica-Light" font-size="29.2" fill="#000000" transform="matrix(1.00, 0.00, -0.00, -1.00, 304.0, 185.0)">n</text><text xml:space="preserve" font-family="Helvetica-Light" font-size="29.2" fill="#000000" transform="matrix(1.00, 0.00, -0.00, -1.00, 320.2, 185.0)">g</text><text xml:space="preserve" font-family="Helvetica-Light" font-size="29.2" fill="#000000" transform="matrix(1.00, 0.00, -0.00, -1.00, 338.0, 185.0)"> </text><text xml:space="preserve" font-family="Helvetica-Light" font-size="29.2" fill="#000000" transform="matrix(1.00, 0.00, -0.00, -1.00, 346.1, 185.0)">w</text><text xml:space="preserve" font-family="Helvetica-Light" font-size="29.2" fill="#000000" transform="matrix(1.00, 0.00, -0.00, -1.00, 367.2, 185.0)">i</text><text xml:space="preserve" font-family="Helvetica-Light" font-size="29.2" fill="#000000" transform="matrix(1.00, 0.00, -0.00, -1.00, 373.7, 185.0)">t</text><text xml:space="preserve" font-family="Helvetica-Light" font-size="29.2" fill="#000000" transform="matrix(1.00, 0.00, -0.00, -1.00, 381.8, 185.0)">h</text><text xml:space="preserve" font-family="Helvetica-Light" font-size="29.2" fill="#000000" transform="matrix(1.00, 0.00, -0.00, -1.00, 398.0, 185.0)"> </text><text xml:space="preserve" font-family="Helvetica-Light" font-size="29.2" fill="#000000" transform="matrix(1.00, 0.00, -0.00, -1.00, 406.1, 185.0)">a</text><text xml:space="preserve" font-family="Helvetica-Light" font-size="29.2" fill="#000000" transform="matrix(1.00, 0.00, -0.00, -1.00, 422.3, 185.0)">t</text><text xml:space="preserve" font-family="Helvetica-Light" font-size="29.2" fill="#000000" transform="matrix(1.00, 0.00, -0.00, -1.00, 430.4, 185.0)">o</text><text xml:space="preserve" font-family="Helvetica-Light" font-size="29.2" fill="#000000" transform="matrix(1.00, 0.00, -0.00, -1.00, 446.6, 185.0)">m</text><text xml:space="preserve" font-family="Helvetica-Light" font-size="29.2" fill="#000000" transform="matrix(1.00, 0.00, -0.00, -1.00, 470.9, 185.0)">s</text><text xml:space="preserve" font-family="Helvetica-Light" font-size="29.2" fill="#000000" transform="matrix(1.00, 0.00, -0.00, -1.00, 485.5, 185.0)">/</text><text xml:space="preserve" font-family="Helvetica-Light" font-size="29.2" fill="#000000" transform="matrix(1.00, 0.00, -0.00, -1.00, 493.6, 185.0)">a</text><text xml:space="preserve" font-family="Helvetica-Light" font-size="29.2" fill="#000000" transform="matrix(1.00, 0.00, -0.00, -1.00, 509.8, 185.0)">g</text><text xml:space="preserve" font-family="Helvetica-Light" font-size="29.2" fill="#000000" transform="matrix(1.00, 0.00, -0.00, -1.00, 527.6, 185.0)">e</text><text xml:space="preserve" font-family="Helvetica-Light" font-size="29.2" fill="#000000" transform="matrix(1.00, 0.00, -0.00, -1.00, 543.9, 185.0)">n</text><text xml:space="preserve" font-family="Helvetica-Light" font-size="29.2" fill="#000000" transform="matrix(1.00, 0.00, -0.00, -1.00, 560.1, 185.0)">t</text><text xml:space="preserve" font-family="Helvetica-Light" font-size="29.2" fill="#000000" transform="matrix(1.00, 0.00, -0.00, -1.00, 568.2, 185.0)">s</text><text xml:space="preserve" font-family="Helvetica-Light" font-size="29.2" fill="#000000" transform="matrix(1.00, 0.00, -0.00, -1.00, 582.8, 185.0)">/</text><text xml:space="preserve" font-family="Helvetica-Light" font-size="29.2" fill="#000000" transform="matrix(1.00, 0.00, -0.00, -1.00, 590.9, 185.0)">r</text><text xml:space="preserve" font-family="Helvetica-Light" font-size="29.2" fill="#000000" transform="matrix(1.00, 0.00, -0.00, -1.00, 600.0, 185.0)">e</text><text xml:space="preserve" font-family="Helvetica-Light" font-size="29.2" fill="#000000" transform="matrix(1.00, 0.00, -0.00, -1.00, 616.3, 185.0)">f</text><text xml:space="preserve" font-family="Helvetica-Light" font-size="29.2" fill="#000000" transform="matrix(1.00, 0.00, -0.00, -1.00, 624.4, 185.0)">s</text><text xml:space="preserve" font-family="Helvetica-Light" font-size="29.2" fill="#000000" transform="matrix(1.00, 0.00, -0.00, -1.00, 638.9, 185.0)"> </text><text xml:space="preserve" font-family="Helvetica-Light" font-size="29.2" fill="#000000" transform="matrix(1.00, 0.00, -0.00, -1.00, 647.1, 185.0)">t</text><text xml:space="preserve" font-family="Helvetica-Light" font-size="29.2" fill="#000000" transform="matrix(1.00, 0.00, -0.00, -1.00, 655.2, 185.0)">r</text><text xml:space="preserve" font-family="Helvetica-Light" font-size="29.2" fill="#000000" transform="matrix(1.00, 0.00, -0.00, -1.00, 664.9, 185.0)">i</text><text xml:space="preserve" font-family="Helvetica-Light" font-size="29.2" fill="#000000" transform="matrix(1.00, 0.00, -0.00, -1.00, 671.3, 185.0)">v</text><text xml:space="preserve" font-family="Helvetica-Light" font-size="29.2" fill="#000000" transform="matrix(1.00, 0.00, -0.00, -1.00, 685.9, 185.0)">i</text><text xml:space="preserve" font-family="Helvetica-Light" font-size="29.2" fill="#000000" transform="matrix(1.00, 0.00, -0.00, -1.00, 692.4, 185.0)">a</text><text xml:space="preserve" font-family="Helvetica-Light" font-size="29.2" fill="#000000" transform="matrix(1.00, 0.00, -0.00, -1.00, 708.6, 185.0)">l</text><text xml:space="preserve" font-family="Helvetica-Light" font-size="29.2" fill="#000000" transform="matrix(1.00, 0.00, -0.00, -1.00, 715.1, 185.0)"> </text><text xml:space="preserve" font-family="Helvetica-Light" font-size="21.9" fill="#000000" transform="matrix(1.00, 0.00, -0.00, -1.00, 114.0, 118.4)">•</text><text xml:space="preserve" font-family="Helvetica-Light" font-size="29.2" fill="#000000" transform="matrix(1.00, 0.00, -0.00, -1.00, 142.0, 116.0)">M</text><text xml:space="preserve" font-family="Helvetica-Light" font-size="29.2" fill="#000000" transform="matrix(1.00, 0.00, -0.00, -1.00, 166.3, 116.0)">a</text><text xml:space="preserve" font-family="Helvetica-Light" font-size="29.2" fill="#000000" transform="matrix(1.00, 0.00, -0.00, -1.00, 182.5, 116.0)">k</text><text xml:space="preserve" font-family="Helvetica-Light" font-size="29.2" fill="#000000" transform="matrix(1.00, 0.00, -0.00, -1.00, 197.1, 116.0)">e</text><text xml:space="preserve" font-family="Helvetica-Light" font-size="29.2" fill="#000000" transform="matrix(1.00, 0.00, -0.00, -1.00, 213.3, 116.0)">s</text><text xml:space="preserve" font-family="Helvetica-Light" font-size="29.2" fill="#000000" transform="matrix(1.00, 0.00, -0.00, -1.00, 227.9, 116.0)"> </text><text xml:space="preserve" font-family="Helvetica-Light" font-size="29.2" fill="#000000" transform="matrix(1.00, 0.00, -0.00, -1.00, 236.0, 116.0)">d</text><text xml:space="preserve" font-family="Helvetica-Light" font-size="29.2" fill="#000000" transform="matrix(1.00, 0.00, -0.00, -1.00, 253.8, 116.0)">e</text><text xml:space="preserve" font-family="Helvetica-Light" font-size="29.2" fill="#000000" transform="matrix(1.00, 0.00, -0.00, -1.00, 270.0, 116.0)">b</text><text xml:space="preserve" font-family="Helvetica-Light" font-size="29.2" fill="#000000" transform="matrix(1.00, 0.00, -0.00, -1.00, 287.8, 116.0)">u</text><text xml:space="preserve" font-family="Helvetica-Light" font-size="29.2" fill="#000000" transform="matrix(1.00, 0.00, -0.00, -1.00, 304.0, 116.0)">g</text><text xml:space="preserve" font-family="Helvetica-Light" font-size="29.2" fill="#000000" transform="matrix(1.00, 0.00, -0.00, -1.00, 321.9, 116.0)">g</text><text xml:space="preserve" font-family="Helvetica-Light" font-size="29.2" fill="#000000" transform="matrix(1.00, 0.00, -0.00, -1.00, 339.7, 116.0)">i</text><text xml:space="preserve" font-family="Helvetica-Light" font-size="29.2" fill="#000000" transform="matrix(1.00, 0.00, -0.00, -1.00, 346.1, 116.0)">n</text><text xml:space="preserve" font-family="Helvetica-Light" font-size="29.2" fill="#000000" transform="matrix(1.00, 0.00, -0.00, -1.00, 362.4, 116.0)">g</text><text xml:space="preserve" font-family="Helvetica-Light" font-size="29.2" fill="#000000" transform="matrix(1.00, 0.00, -0.00, -1.00, 380.2, 116.0)"> </text><text xml:space="preserve" font-family="Helvetica-Light" font-size="29.2" fill="#000000" transform="matrix(1.00, 0.00, -0.00, -1.00, 388.3, 116.0)">e</text><text xml:space="preserve" font-family="Helvetica-Light" font-size="29.2" fill="#000000" transform="matrix(1.00, 0.00, -0.00, -1.00, 404.5, 116.0)">a</text><text xml:space="preserve" font-family="Helvetica-Light" font-size="29.2" fill="#000000" transform="matrix(1.00, 0.00, -0.00, -1.00, 420.7, 116.0)">s</text><text xml:space="preserve" font-family="Helvetica-Light" font-size="29.2" fill="#000000" transform="matrix(1.00, 0.00, -0.00, -1.00, 435.3, 116.0)">y</text><text xml:space="preserve" font-family="Helvetica-Light" font-size="29.2" fill="#000000" transform="matrix(1.00, 0.00, -0.00, -1.00, 449.9, 116.0)"> </text><text xml:space="preserve" font-family="Helvetica-Light" font-size="29.2" fill="#000000" transform="matrix(1.00, 0.00, -0.00, -1.00, 458.0, 116.0)">s</text><text xml:space="preserve" font-family="Helvetica-Light" font-size="29.2" fill="#000000" transform="matrix(1.00, 0.00, -0.00, -1.00, 472.6, 116.0)">i</text><text xml:space="preserve" font-family="Helvetica-Light" font-size="29.2" fill="#000000" transform="matrix(1.00, 0.00, -0.00, -1.00, 479.0, 116.0)">n</text><text xml:space="preserve" font-family="Helvetica-Light" font-size="29.2" fill="#000000" transform="matrix(1.00, 0.00, -0.00, -1.00, 495.2, 116.0)">c</text><text xml:space="preserve" font-family="Helvetica-Light" font-size="29.2" fill="#000000" transform="matrix(1.00, 0.00, -0.00, -1.00, 511.5, 116.0)">e</text><text xml:space="preserve" font-family="Helvetica-Light" font-size="29.2" fill="#000000" transform="matrix(1.00, 0.00, -0.00, -1.00, 527.7, 116.0)"> </text><text xml:space="preserve" font-family="Helvetica-Light" font-size="29.2" fill="#000000" transform="matrix(1.00, 0.00, -0.00, -1.00, 535.8, 116.0)">f</text><text xml:space="preserve" font-family="Helvetica-Light" font-size="29.2" fill="#000000" transform="matrix(1.00, 0.00, -0.00, -1.00, 543.9, 116.0)">u</text><text xml:space="preserve" font-family="Helvetica-Light" font-size="29.2" fill="#000000" transform="matrix(1.00, 0.00, -0.00, -1.00, 560.1, 116.0)">l</text><text xml:space="preserve" font-family="Helvetica-Light" font-size="29.2" fill="#000000" transform="matrix(1.00, 0.00, -0.00, -1.00, 566.6, 116.0)">l</text><text xml:space="preserve" font-family="Helvetica-Light" font-size="29.2" fill="#000000" transform="matrix(1.00, 0.00, -0.00, -1.00, 573.0, 116.0)"> </text><text xml:space="preserve" font-family="Helvetica-Light" font-size="29.2" fill="#000000" transform="matrix(1.00, 0.00, -0.00, -1.00, 581.1, 116.0)">a</text><text xml:space="preserve" font-family="Helvetica-Light" font-size="29.2" fill="#000000" transform="matrix(1.00, 0.00, -0.00, -1.00, 597.4, 116.0)">p</text><text xml:space="preserve" font-family="Helvetica-Light" font-size="29.2" fill="#000000" transform="matrix(1.00, 0.00, -0.00, -1.00, 615.2, 116.0)">p</text><text xml:space="preserve" font-family="Helvetica-Light" font-size="29.2" fill="#000000" transform="matrix(1.00, 0.00, -0.00, -1.00, 633.0, 116.0)"> </text><text xml:space="preserve" font-family="Helvetica-Light" font-size="29.2" fill="#000000" transform="matrix(1.00, 0.00, -0.00, -1.00, 641.1, 116.0)">s</text><text xml:space="preserve" font-family="Helvetica-Light" font-size="29.2" fill="#000000" transform="matrix(1.00, 0.00, -0.00, -1.00, 655.7, 116.0)">t</text><text xml:space="preserve" font-family="Helvetica-Light" font-size="29.2" fill="#000000" transform="matrix(1.00, 0.00, -0.00, -1.00, 663.8, 116.0)">a</text><text xml:space="preserve" font-family="Helvetica-Light" font-size="29.2" fill="#000000" transform="matrix(1.00, 0.00, -0.00, -1.00, 680.0, 116.0)">t</text><text xml:space="preserve" font-family="Helvetica-Light" font-size="29.2" fill="#000000" transform="matrix(1.00, 0.00, -0.00, -1.00, 688.1, 116.0)">e</text><text xml:space="preserve" font-family="Helvetica-Light" font-size="29.2" fill="#000000" transform="matrix(1.00, 0.00, -0.00, -1.00, 704.3, 116.0)"> </text><text xml:space="preserve" font-family="Helvetica-Light" font-size="29.2" fill="#000000" transform="matrix(1.00, 0.00, -0.00, -1.00, 712.4, 116.0)">i</text><text xml:space="preserve" font-family="Helvetica-Light" font-size="29.2" fill="#000000" transform="matrix(1.00, 0.00, -0.00, -1.00, 718.9, 116.0)">s</text><text xml:space="preserve" font-family="Helvetica-Light" font-size="29.2" fill="#000000" transform="matrix(1.00, 0.00, -0.00, -1.00, 733.5, 116.0)"> </text><text xml:space="preserve" font-family="Helvetica-Light" font-size="29.2" fill="#000000" transform="matrix(1.00, 0.00, -0.00, -1.00, 741.6, 116.0)">a</text><text xml:space="preserve" font-family="Helvetica-Light" font-size="29.2" fill="#000000" transform="matrix(1.00, 0.00, -0.00, -1.00, 757.8, 116.0)">l</text><text xml:space="preserve" font-family="Helvetica-Light" font-size="29.2" fill="#000000" transform="matrix(1.00, 0.00, -0.00, -1.00, 764.3, 116.0)">w</text><text xml:space="preserve" font-family="Helvetica-Light" font-size="29.2" fill="#000000" transform="matrix(1.00, 0.00, -0.00, -1.00, 785.3, 116.0)">a</text><text xml:space="preserve" font-family="Helvetica-Light" font-size="29.2" fill="#000000" transform="matrix(1.00, 0.00, -0.00, -1.00, 801.5, 116.0)">y</text><text xml:space="preserve" font-family="Helvetica-Light" font-size="29.2" fill="#000000" transform="matrix(1.00, 0.00, -0.00, -1.00, 816.1, 116.0)">s</text><text xml:space="preserve" font-family="Helvetica-Light" font-size="29.2" fill="#000000" transform="matrix(1.00, 0.00, -0.00, -1.00, 830.7, 116.0)"> </text><text xml:space="preserve" font-family="Helvetica-Light" font-size="29.2" fill="#000000" transform="matrix(1.00, 0.00, -0.00, -1.00, 838.8, 116.0)">r</text><text xml:space="preserve" font-family="Helvetica-Light" font-size="29.2" fill="#000000" transform="matrix(1.00, 0.00, -0.00, -1.00, 848.0, 116.0)">e</text><text xml:space="preserve" font-family="Helvetica-Light" font-size="29.2" fill="#000000" transform="matrix(1.00, 0.00, -0.00, -1.00, 864.2, 116.0)">a</text><text xml:space="preserve" font-family="Helvetica-Light" font-size="29.2" fill="#000000" transform="matrix(1.00, 0.00, -0.00, -1.00, 880.4, 116.0)">d</text><text xml:space="preserve" font-family="Helvetica-Light" font-size="29.2" fill="#000000" transform="matrix(1.00, 0.00, -0.00, -1.00, 898.2, 116.0)">i</text><text xml:space="preserve" font-family="Helvetica-Light" font-size="29.2" fill="#000000" transform="matrix(1.00, 0.00, -0.00, -1.00, 904.7, 116.0)">l</text><text xml:space="preserve" font-family="Helvetica-Light" font-size="29.2" fill="#000000" transform="matrix(1.00, 0.00, -0.00, -1.00, 911.2, 116.0)">y</text><text xml:space="preserve" font-family="Helvetica-Light" font-size="29.2" fill="#000000" transform="matrix(1.00, 0.00, -0.00, -1.00, 925.8, 116.0)"> </text><text xml:space="preserve" font-family="Helvetica-Light" font-size="29.2" fill="#000000" transform="matrix(1.00, 0.00, -0.00, -1.00, 142.0, 81.0)">a</text><text xml:space="preserve" font-family="Helvetica-Light" font-size="29.2" fill="#000000" transform="matrix(1.00, 0.00, -0.00, -1.00, 158.2, 81.0)">v</text><text xml:space="preserve" font-family="Helvetica-Light" font-size="29.2" fill="#000000" transform="matrix(1.00, 0.00, -0.00, -1.00, 172.8, 81.0)">a</text><text xml:space="preserve" font-family="Helvetica-Light" font-size="29.2" fill="#000000" transform="matrix(1.00, 0.00, -0.00, -1.00, 189.0, 81.0)">i</text><text xml:space="preserve" font-family="Helvetica-Light" font-size="29.2" fill="#000000" transform="matrix(1.00, 0.00, -0.00, -1.00, 195.5, 81.0)">l</text><text xml:space="preserve" font-family="Helvetica-Light" font-size="29.2" fill="#000000" transform="matrix(1.00, 0.00, -0.00, -1.00, 202.0, 81.0)">a</text><text xml:space="preserve" font-family="Helvetica-Light" font-size="29.2" fill="#000000" transform="matrix(1.00, 0.00, -0.00, -1.00, 218.2, 81.0)">b</text><text xml:space="preserve" font-family="Helvetica-Light" font-size="29.2" fill="#000000" transform="matrix(1.00, 0.00, -0.00, -1.00, 236.0, 81.0)">l</text><text xml:space="preserve" font-family="Helvetica-Light" font-size="29.2" fill="#000000" transform="matrix(1.00, 0.00, -0.00, -1.00, 242.5, 81.0)">e</text></g></svg>