<?xml version="1.0" encoding="UTF-8" standalone="no"?><svg xmlns="http://www.w3.org/2000/svg" xmlns:xlink="http://www.w3.org/1999/xlink" clip-rule="evenodd" stroke-miterlimit="4.00" viewBox="0 0 1024 768"><desc>SVG generated by Keynote</desc><defs></defs><g transform="matrix(1.00, 0.00, -0.00, -1.00, 0.0, 768.0)"><path d="M 0.0 768.0 L 1024.0 768.0 L 1024.0 0.0 L 0.0 0.0 Z M 0.0 768.0 " fill="#FEFFFF"></path><text xml:space="preserve" font-family="Helvetica-Light" font-size="48.0" fill="#000000" transform="matrix(1.00, 0.00, -0.00, -1.00, 143.0, 682.0)">N</text><text xml:space="preserve" font-family="Helvetica-Light" font-size="48.0" fill="#000000" transform="matrix(1.00, 0.00, -0.00, -1.00, 177.7, 682.0)">e</text><text xml:space="preserve" font-family="Helvetica-Light" font-size="48.0" fill="#000000" transform="matrix(1.00, 0.00, -0.00, -1.00, 204.3, 682.0)">s</text><text xml:space="preserve" font-family="Helvetica-Light" font-size="48.0" fill="#000000" transform="matrix(1.00, 0.00, -0.00, -1.00, 228.3, 682.0)">t</text><text xml:space="preserve" font-family="Helvetica-Light" font-size="48.0" fill="#000000" transform="matrix(1.00, 0.00, -0.00, -1.00, 241.7, 682.0)">e</text><text xml:space="preserve" font-family="Helvetica-Light" font-size="48.0" fill="#000000" transform="matrix(1.00, 0.00, -0.00, -1.00, 268.4, 682.0)">d</text><text xml:space="preserve" font-family="Helvetica-Light" font-size="48.0" fill="#000000" transform="matrix(1.00, 0.00, -0.00, -1.00, 297.7, 682.0)"> </text><text xml:space="preserve" font-family="Helvetica-Light" font-size="48.0" fill="#000000" transform="matrix(1.00, 0.00, -0.00, -1.00, 311.0, 682.0)">H</text><text xml:space="preserve" font-family="Helvetica-Light" font-size="48.0" fill="#000000" transform="matrix(1.00, 0.00, -0.00, -1.00, 345.7, 682.0)">e</text><text xml:space="preserve" font-family="Helvetica-Light" font-size="48.0" fill="#000000" transform="matrix(1.00, 0.00, -0.00, -1.00, 372.4, 682.0)">t</text><text xml:space="preserve" font-family="Helvetica-Light" font-size="48.0" fill="#000000" transform="matrix(1.00, 0.00, -0.00, -1.00, 385.7, 682.0)">e</text><text xml:space="preserve" font-family="Helvetica-Light" font-size="48.0" fill="#000000" transform="matrix(1.00, 0.00, -0.00, -1.00, 412.4, 682.0)">r</text><text xml:space="preserve" font-family="Helvetica-Light" font-size="48.0" fill="#000000" transform="matrix(1.00, 0.00, -0.00, -1.00, 427.5, 682.0)">o</text><text xml:space="preserve" font-family="Helvetica-Light" font-size="48.0" fill="#000000" transform="matrix(1.00, 0.00, -0.00, -1.00, 454.2, 682.0)">g</text><text xml:space="preserve" font-family="Helvetica-Light" font-size="48.0" fill="#000000" transform="matrix(1.00, 0.00, -0.00, -1.00, 483.6, 682.0)">e</text><text xml:space="preserve" font-family="Helvetica-Light" font-size="48.0" fill="#000000" transform="matrix(1.00, 0.00, -0.00, -1.00, 510.2, 682.0)">n</text><text xml:space="preserve" font-family="Helvetica-Light" font-size="48.0" fill="#000000" transform="matrix(1.00, 0.00, -0.00, -1.00, 536.9, 682.0)">e</text><text xml:space="preserve" font-family="Helvetica-Light" font-size="48.0" fill="#000000" transform="matrix(1.00, 0.00, -0.00, -1.00, 563.6, 682.0)">o</text><text xml:space="preserve" font-family="Helvetica-Light" font-size="48.0" fill="#000000" transform="matrix(1.00, 0.00, -0.00, -1.00, 590.3, 682.0)">u</text><text xml:space="preserve" font-family="Helvetica-Light" font-size="48.0" fill="#000000" transform="matrix(1.00, 0.00, -0.00, -1.00, 617.0, 682.0)">s</text><text xml:space="preserve" font-family="Helvetica-Light" font-size="48.0" fill="#000000" transform="matrix(1.00, 0.00, -0.00, -1.00, 641.0, 682.0)"> </text><text xml:space="preserve" font-family="Helvetica-Light" font-size="48.0" fill="#000000" transform="matrix(1.00, 0.00, -0.00, -1.00, 654.3, 682.0)">I</text><text xml:space="preserve" font-family="Helvetica-Light" font-size="48.0" fill="#000000" transform="matrix(1.00, 0.00, -0.00, -1.00, 667.7, 682.0)">m</text><text xml:space="preserve" font-family="Helvetica-Light" font-size="48.0" fill="#000000" transform="matrix(1.00, 0.00, -0.00, -1.00, 707.7, 682.0)">m</text><text xml:space="preserve" font-family="Helvetica-Light" font-size="48.0" fill="#000000" transform="matrix(1.00, 0.00, -0.00, -1.00, 747.7, 682.0)">u</text><text xml:space="preserve" font-family="Helvetica-Light" font-size="48.0" fill="#000000" transform="matrix(1.00, 0.00, -0.00, -1.00, 774.3, 682.0)">t</text><text xml:space="preserve" font-family="Helvetica-Light" font-size="48.0" fill="#000000" transform="matrix(1.00, 0.00, -0.00, -1.00, 787.7, 682.0)">a</text><text xml:space="preserve" font-family="Helvetica-Light" font-size="48.0" fill="#000000" transform="matrix(1.00, 0.00, -0.00, -1.00, 814.4, 682.0)">b</text><text xml:space="preserve" font-family="Helvetica-Light" font-size="48.0" fill="#000000" transform="matrix(1.00, 0.00, -0.00, -1.00, 843.7, 682.0)">l</text><text xml:space="preserve" font-family="Helvetica-Light" font-size="48.0" fill="#000000" transform="matrix(1.00, 0.00, -0.00, -1.00, 854.4, 682.0)">e</text><text xml:space="preserve" font-family="Helvetica-Light" font-size="48.0" fill="#000000" transform="matrix(1.00, 0.00, -0.00, -1.00, 881.0, 682.0)"> </text><text xml:space="preserve" font-family="Helvetica-Light" font-size="48.0" fill="#000000" transform="matrix(1.00, 0.00, -0.00, -1.00, 393.0, 624.0)">C</text><text xml:space="preserve" font-family="Helvetica-Light" font-size="48.0" fill="#000000" transform="matrix(1.00, 0.00, -0.00, -1.00, 427.7, 624.0)">o</text><text xml:space="preserve" font-family="Helvetica-Light" font-size="48.0" fill="#000000" transform="matrix(1.00, 0.00, -0.00, -1.00, 454.3, 624.0)">l</text><text xml:space="preserve" font-family="Helvetica-Light" font-size="48.0" fill="#000000" transform="matrix(1.00, 0.00, -0.00, -1.00, 465.0, 624.0)">l</text><text xml:space="preserve" font-family="Helvetica-Light" font-size="48.0" fill="#000000" transform="matrix(1.00, 0.00, -0.00, -1.00, 475.7, 624.0)">e</text><text xml:space="preserve" font-family="Helvetica-Light" font-size="48.0" fill="#000000" transform="matrix(1.00, 0.00, -0.00, -1.00, 502.3, 624.0)">c</text><text xml:space="preserve" font-family="Helvetica-Light" font-size="48.0" fill="#000000" transform="matrix(1.00, 0.00, -0.00, -1.00, 529.0, 624.0)">t</text><text xml:space="preserve" font-family="Helvetica-Light" font-size="48.0" fill="#000000" transform="matrix(1.00, 0.00, -0.00, -1.00, 542.4, 624.0)">i</text><text xml:space="preserve" font-family="Helvetica-Light" font-size="48.0" fill="#000000" transform="matrix(1.00, 0.00, -0.00, -1.00, 553.0, 624.0)">o</text><text xml:space="preserve" font-family="Helvetica-Light" font-size="48.0" fill="#000000" transform="matrix(1.00, 0.00, -0.00, -1.00, 579.7, 624.0)">n</text><text xml:space="preserve" font-family="Helvetica-Light" font-size="48.0" fill="#000000" transform="matrix(1.00, 0.00, -0.00, -1.00, 606.4, 624.0)">s</text><g><clipPath id="clip-1113"><path d="M 58.0 609.0 L 966.0 609.0 L 966.0 66.4 L 58.0 66.4 Z M 58.0 609.0 "></path></clipPath><g clip-path="url(#clip-1113)"><path d="M 58.0 609.0 L 239.6 609.0 L 239.6 518.6 L 58.0 518.6 Z M 58.0 609.0 " fill="#0264C0"></path><path d="M 239.6 609.0 L 421.2 609.0 L 421.2 518.6 L 239.6 518.6 Z M 239.6 609.0 " fill="#0264C0"></path><path d="M 421.2 609.0 L 602.8 609.0 L 602.8 518.6 L 421.2 518.6 Z M 421.2 609.0 " fill="#0264C0"></path><path d="M 602.8 609.0 L 784.4 609.0 L 784.4 518.6 L 602.8 518.6 Z M 602.8 609.0 " fill="#0264C0"></path><path d="M 784.4 609.0 L 966.0 609.0 L 966.0 518.6 L 784.4 518.6 Z M 784.4 609.0 " fill="#0264C0"></path><path d="M 58.0 518.6 L 239.6 518.6 L 239.6 428.1 L 58.0 428.1 Z M 58.0 518.6 " fill="#388CCE"></path><path d="M 239.6 518.6 L 421.2 518.6 L 421.2 428.1 L 239.6 428.1 Z M 239.6 518.6 " fill="#FEFFFF"></path><path d="M 421.2 518.6 L 602.8 518.6 L 602.8 428.1 L 421.2 428.1 Z M 421.2 518.6 " fill="#FEFFFF"></path><path d="M 602.8 518.6 L 784.4 518.6 L 784.4 428.1 L 602.8 428.1 Z M 602.8 518.6 " fill="#FEFFFF"></path><path d="M 784.4 518.6 L 966.0 518.6 L 966.0 428.1 L 784.4 428.1 Z M 784.4 518.6 " fill="#FEFFFF"></path><path d="M 58.0 428.1 L 239.6 428.1 L 239.6 337.7 L 58.0 337.7 Z M 58.0 428.1 " fill="#388CCE"></path><path d="M 239.6 428.1 L 421.2 428.1 L 421.2 337.7 L 239.6 337.7 Z M 239.6 428.1 " fill="#E2E5E8"></path><path d="M 421.2 428.1 L 602.8 428.1 L 602.8 337.7 L 421.2 337.7 Z M 421.2 428.1 " fill="#E2E5E8"></path><path d="M 602.8 428.1 L 784.4 428.1 L 784.4 337.7 L 602.8 337.7 Z M 602.8 428.1 " fill="#E2E5E8"></path><path d="M 784.4 428.1 L 966.0 428.1 L 966.0 337.7 L 784.4 337.7 Z M 784.4 428.1 " fill="#E2E5E8"></path><path d="M 58.0 337.7 L 239.6 337.7 L 239.6 247.3 L 58.0 247.3 Z M 58.0 337.7 " fill="#388CCE"></path><path d="M 239.6 337.7 L 421.2 337.7 L 421.2 247.3 L 239.6 247.3 Z M 239.6 337.7 " fill="#FEFFFF"></path><path d="M 421.2 337.7 L 602.8 337.7 L 602.8 247.3 L 421.2 247.3 Z M 421.2 337.7 " fill="#FEFFFF"></path><path d="M 602.8 337.7 L 784.4 337.7 L 784.4 247.3 L 602.8 247.3 Z M 602.8 337.7 " fill="#FEFFFF"></path><path d="M 784.4 337.7 L 966.0 337.7 L 966.0 247.3 L 784.4 247.3 Z M 784.4 337.7 " fill="#FEFFFF"></path><path d="M 58.0 247.3 L 239.6 247.3 L 239.6 156.8 L 58.0 156.8 Z M 58.0 247.3 " fill="#388CCE"></path><path d="M 239.6 247.3 L 421.2 247.3 L 421.2 156.8 L 239.6 156.8 Z M 239.6 247.3 " fill="#E2E5E8"></path><path d="M 421.2 247.3 L 602.8 247.3 L 602.8 156.8 L 421.2 156.8 Z M 421.2 247.3 " fill="#E2E5E8"></path><path d="M 602.8 247.3 L 784.4 247.3 L 784.4 156.8 L 602.8 156.8 Z M 602.8 247.3 " fill="#E2E5E8"></path><path d="M 784.4 247.3 L 966.0 247.3 L 966.0 156.8 L 784.4 156.8 Z M 784.4 247.3 " fill="#E2E5E8"></path><path d="M 58.0 156.8 L 239.6 156.8 L 239.6 66.4 L 58.0 66.4 Z M 58.0 156.8 " fill="#388CCE"></path><path d="M 239.6 156.8 L 421.2 156.8 L 421.2 66.4 L 239.6 66.4 Z M 239.6 156.8 " fill="#FEFFFF"></path><path d="M 421.2 156.8 L 602.8 156.8 L 602.8 66.4 L 421.2 66.4 Z M 421.2 156.8 " fill="#FEFFFF"></path><path d="M 602.8 156.8 L 784.4 156.8 L 784.4 66.4 L 602.8 66.4 Z M 602.8 156.8 " fill="#FEFFFF"></path><path d="M 784.4 156.8 L 966.0 156.8 L 966.0 66.4 L 784.4 66.4 Z M 784.4 156.8 " fill="#FEFFFF"></path></g></g><g><clipPath id="clip-1114"><path d="M 58.0 609.0 L 966.0 609.0 L 966.0 66.4 L 58.0 66.4 Z M 58.0 609.0 "></path></clipPath><g clip-path="url(#clip-1114)"><g><clipPath id="clip-1115"><path d="M 239.6 519.1 L 421.2 519.1 L 421.2 609.0 L 239.6 609.0 Z M 239.6 519.1 "></path></clipPath><g clip-path="url(#clip-1115)"><text xml:space="preserve" font-family="Helvetica-Bold" font-weight="bold" font-size="19.0" fill="#FEFFFE" transform="matrix(1.00, 0.00, -0.00, -1.00, 303.0, 556.0)">J</text><text xml:space="preserve" font-family="Helvetica-Bold" font-weight="bold" font-size="19.0" fill="#FEFFFE" transform="matrix(1.00, 0.00, -0.00, -1.00, 313.6, 556.0)">.</text><text xml:space="preserve" font-family="Helvetica-Bold" font-weight="bold" font-size="19.0" fill="#FEFFFE" transform="matrix(1.00, 0.00, -0.00, -1.00, 318.9, 556.0)">U</text><text xml:space="preserve" font-family="Helvetica-Bold" font-weight="bold" font-size="19.0" fill="#FEFFFE" transform="matrix(1.00, 0.00, -0.00, -1.00, 332.6, 556.0)">.</text><text xml:space="preserve" font-family="Helvetica-Bold" font-weight="bold" font-size="19.0" fill="#FEFFFE" transform="matrix(1.00, 0.00, -0.00, -1.00, 337.9, 556.0)">C</text><text xml:space="preserve" font-family="Helvetica-Bold" font-weight="bold" font-size="19.0" fill="#FEFFFE" transform="matrix(1.00, 0.00, -0.00, -1.00, 351.6, 556.0)">.</text></g></g></g></g><g><clipPath id="clip-1116"><path d="M 58.0 609.0 L 966.0 609.0 L 966.0 66.4 L 58.0 66.4 Z M 58.0 609.0 "></path></clipPath><g clip-path="url(#clip-1116)"><g><clipPath id="clip-1117"><path d="M 421.2 519.1 L 602.8 519.1 L 602.8 609.0 L 421.2 609.0 Z M 421.2 519.1 "></path></clipPath><g clip-path="url(#clip-1117)"><text xml:space="preserve" font-family="Helvetica-Bold" font-weight="bold" font-size="19.0" fill="#FEFFFE" transform="matrix(1.00, 0.00, -0.00, -1.00, 483.0, 556.0)">G</text><text xml:space="preserve" font-family="Helvetica-Bold" font-weight="bold" font-size="19.0" fill="#FEFFFE" transform="matrix(1.00, 0.00, -0.00, -1.00, 497.8, 556.0)">u</text><text xml:space="preserve" font-family="Helvetica-Bold" font-weight="bold" font-size="19.0" fill="#FEFFFE" transform="matrix(1.00, 0.00, -0.00, -1.00, 509.4, 556.0)">a</text><text xml:space="preserve" font-family="Helvetica-Bold" font-weight="bold" font-size="19.0" fill="#FEFFFE" transform="matrix(1.00, 0.00, -0.00, -1.00, 519.9, 556.0)">v</text><text xml:space="preserve" font-family="Helvetica-Bold" font-weight="bold" font-size="19.0" fill="#FEFFFE" transform="matrix(1.00, 0.00, -0.00, -1.00, 530.5, 556.0)">a</text></g></g></g></g><g><clipPath id="clip-1118"><path d="M 58.0 609.0 L 966.0 609.0 L 966.0 66.4 L 58.0 66.4 Z M 58.0 609.0 "></path></clipPath><g clip-path="url(#clip-1118)"><g><clipPath id="clip-1119"><path d="M 602.8 519.1 L 784.4 519.1 L 784.4 609.0 L 602.8 609.0 Z M 602.8 519.1 "></path></clipPath><g clip-path="url(#clip-1119)"><text xml:space="preserve" font-family="Helvetica-Bold" font-weight="bold" font-size="19.0" fill="#FEFFFE" transform="matrix(1.00, 0.00, -0.00, -1.00, 669.0, 556.0)">S</text><text xml:space="preserve" font-family="Helvetica-Bold" font-weight="bold" font-size="19.0" fill="#FEFFFE" transform="matrix(1.00, 0.00, -0.00, -1.00, 681.7, 556.0)">c</text><text xml:space="preserve" font-family="Helvetica-Bold" font-weight="bold" font-size="19.0" fill="#FEFFFE" transform="matrix(1.00, 0.00, -0.00, -1.00, 692.2, 556.0)">a</text><text xml:space="preserve" font-family="Helvetica-Bold" font-weight="bold" font-size="19.0" fill="#FEFFFE" transform="matrix(1.00, 0.00, -0.00, -1.00, 702.8, 556.0)">l</text><text xml:space="preserve" font-family="Helvetica-Bold" font-weight="bold" font-size="19.0" fill="#FEFFFE" transform="matrix(1.00, 0.00, -0.00, -1.00, 708.1, 556.0)">a</text></g></g></g></g><g><clipPath id="clip-1120"><path d="M 58.0 609.0 L 966.0 609.0 L 966.0 66.4 L 58.0 66.4 Z M 58.0 609.0 "></path></clipPath><g clip-path="url(#clip-1120)"><g><clipPath id="clip-1121"><path d="M 784.4 519.1 L 966.0 519.1 L 966.0 609.0 L 784.4 609.0 Z M 784.4 519.1 "></path></clipPath><g clip-path="url(#clip-1121)"><text xml:space="preserve" font-family="Helvetica-Bold" font-weight="bold" font-size="19.0" fill="#FEFFFE" transform="matrix(1.00, 0.00, -0.00, -1.00, 842.0, 556.0)">C</text><text xml:space="preserve" font-family="Helvetica-Bold" font-weight="bold" font-size="19.0" fill="#FEFFFE" transform="matrix(1.00, 0.00, -0.00, -1.00, 855.7, 556.0)">l</text><text xml:space="preserve" font-family="Helvetica-Bold" font-weight="bold" font-size="19.0" fill="#FEFFFE" transform="matrix(1.00, 0.00, -0.00, -1.00, 861.0, 556.0)">o</text><text xml:space="preserve" font-family="Helvetica-Bold" font-weight="bold" font-size="19.0" fill="#FEFFFE" transform="matrix(1.00, 0.00, -0.00, -1.00, 872.6, 556.0)">j</text><text xml:space="preserve" font-family="Helvetica-Bold" font-weight="bold" font-size="19.0" fill="#FEFFFE" transform="matrix(1.00, 0.00, -0.00, -1.00, 877.9, 556.0)">u</text><text xml:space="preserve" font-family="Helvetica-Bold" font-weight="bold" font-size="19.0" fill="#FEFFFE" transform="matrix(1.00, 0.00, -0.00, -1.00, 889.5, 556.0)">r</text><text xml:space="preserve" font-family="Helvetica-Bold" font-weight="bold" font-size="19.0" fill="#FEFFFE" transform="matrix(1.00, 0.00, -0.00, -1.00, 896.9, 556.0)">e</text></g></g></g></g><g><clipPath id="clip-1122"><path d="M 58.0 609.0 L 966.0 609.0 L 966.0 66.4 L 58.0 66.4 Z M 58.0 609.0 "></path></clipPath><g clip-path="url(#clip-1122)"><g><clipPath id="clip-1123"><path d="M 58.0 428.1 L 239.1 428.1 L 239.1 518.1 L 58.0 518.1 Z M 58.0 428.1 "></path></clipPath><g clip-path="url(#clip-1123)"><text xml:space="preserve" font-family="Helvetica-Bold" font-weight="bold" font-size="18.0" fill="#FEFFFE" transform="matrix(1.00, 0.00, -0.00, -1.00, 104.0, 466.0)">I</text><text xml:space="preserve" font-family="Helvetica-Bold" font-weight="bold" font-size="18.0" fill="#FEFFFE" transform="matrix(1.00, 0.00, -0.00, -1.00, 109.0, 466.0)">m</text><text xml:space="preserve" font-family="Helvetica-Bold" font-weight="bold" font-size="18.0" fill="#FEFFFE" transform="matrix(1.00, 0.00, -0.00, -1.00, 125.0, 466.0)">m</text><text xml:space="preserve" font-family="Helvetica-Bold" font-weight="bold" font-size="18.0" fill="#FEFFFE" transform="matrix(1.00, 0.00, -0.00, -1.00, 141.0, 466.0)">u</text><text xml:space="preserve" font-family="Helvetica-Bold" font-weight="bold" font-size="18.0" fill="#FEFFFE" transform="matrix(1.00, 0.00, -0.00, -1.00, 152.0, 466.0)">t</text><text xml:space="preserve" font-family="Helvetica-Bold" font-weight="bold" font-size="18.0" fill="#FEFFFE" transform="matrix(1.00, 0.00, -0.00, -1.00, 158.0, 466.0)">a</text><text xml:space="preserve" font-family="Helvetica-Bold" font-weight="bold" font-size="18.0" fill="#FEFFFE" transform="matrix(1.00, 0.00, -0.00, -1.00, 168.0, 466.0)">b</text><text xml:space="preserve" font-family="Helvetica-Bold" font-weight="bold" font-size="18.0" fill="#FEFFFE" transform="matrix(1.00, 0.00, -0.00, -1.00, 179.0, 466.0)">l</text><text xml:space="preserve" font-family="Helvetica-Bold" font-weight="bold" font-size="18.0" fill="#FEFFFE" transform="matrix(1.00, 0.00, -0.00, -1.00, 184.0, 466.0)">e</text></g></g></g></g><g><clipPath id="clip-1124"><path d="M 58.0 609.0 L 966.0 609.0 L 966.0 66.4 L 58.0 66.4 Z M 58.0 609.0 "></path></clipPath><g clip-path="url(#clip-1124)"><g><clipPath id="clip-1125"><path d="M 240.1 428.1 L 421.2 428.1 L 421.2 518.1 L 240.1 518.1 Z M 240.1 428.1 "></path></clipPath><g clip-path="url(#clip-1125)"><text xml:space="preserve" font-family="Helvetica-Light" font-size="26.0" fill="#000000" transform="matrix(1.00, 0.00, -0.00, -1.00, 321.0, 463.0)">N</text></g></g></g></g><g><clipPath id="clip-1126"><path d="M 58.0 609.0 L 966.0 609.0 L 966.0 66.4 L 58.0 66.4 Z M 58.0 609.0 "></path></clipPath><g clip-path="url(#clip-1126)"><g><clipPath id="clip-1127"><path d="M 421.2 428.1 L 602.8 428.1 L 602.8 518.1 L 421.2 518.1 Z M 421.2 428.1 "></path></clipPath><g clip-path="url(#clip-1127)"><text xml:space="preserve" font-family="Helvetica-Light" font-size="26.0" fill="#000000" transform="matrix(1.00, 0.00, -0.00, -1.00, 504.0, 463.0)">Y</text></g></g></g></g><g><clipPath id="clip-1128"><path d="M 58.0 609.0 L 966.0 609.0 L 966.0 66.4 L 58.0 66.4 Z M 58.0 609.0 "></path></clipPath><g clip-path="url(#clip-1128)"><g><clipPath id="clip-1129"><path d="M 602.8 428.1 L 784.4 428.1 L 784.4 518.1 L 602.8 518.1 Z M 602.8 428.1 "></path></clipPath><g clip-path="url(#clip-1129)"><text xml:space="preserve" font-family="Helvetica-Light" font-size="26.0" fill="#000000" transform="matrix(1.00, 0.00, -0.00, -1.00, 686.0, 463.0)">Y</text></g></g></g></g><g><clipPath id="clip-1130"><path d="M 58.0 609.0 L 966.0 609.0 L 966.0 66.4 L 58.0 66.4 Z M 58.0 609.0 "></path></clipPath><g clip-path="url(#clip-1130)"><g><clipPath id="clip-1131"><path d="M 784.4 428.1 L 966.0 428.1 L 966.0 518.1 L 784.4 518.1 Z M 784.4 428.1 "></path></clipPath><g clip-path="url(#clip-1131)"><text xml:space="preserve" font-family="Helvetica-Light" font-size="26.0" fill="#000000" transform="matrix(1.00, 0.00, -0.00, -1.00, 867.0, 463.0)">Y</text></g></g></g></g><g><clipPath id="clip-1132"><path d="M 58.0 609.0 L 966.0 609.0 L 966.0 66.4 L 58.0 66.4 Z M 58.0 609.0 "></path></clipPath><g clip-path="url(#clip-1132)"><g><clipPath id="clip-1133"><path d="M 58.0 337.7 L 239.1 337.7 L 239.1 428.1 L 58.0 428.1 Z M 58.0 337.7 "></path></clipPath><g clip-path="url(#clip-1133)"><text xml:space="preserve" font-family="Helvetica-Bold" font-weight="bold" font-size="18.0" fill="#FEFFFE" transform="matrix(1.00, 0.00, -0.00, -1.00, 83.0, 376.0)">H</text><text xml:space="preserve" font-family="Helvetica-Bold" font-weight="bold" font-size="18.0" fill="#FEFFFE" transform="matrix(1.00, 0.00, -0.00, -1.00, 96.0, 376.0)">e</text><text xml:space="preserve" font-family="Helvetica-Bold" font-weight="bold" font-size="18.0" fill="#FEFFFE" transform="matrix(1.00, 0.00, -0.00, -1.00, 106.0, 376.0)">t</text><text xml:space="preserve" font-family="Helvetica-Bold" font-weight="bold" font-size="18.0" fill="#FEFFFE" transform="matrix(1.00, 0.00, -0.00, -1.00, 112.0, 376.0)">e</text><text xml:space="preserve" font-family="Helvetica-Bold" font-weight="bold" font-size="18.0" fill="#FEFFFE" transform="matrix(1.00, 0.00, -0.00, -1.00, 122.0, 376.0)">r</text><text xml:space="preserve" font-family="Helvetica-Bold" font-weight="bold" font-size="18.0" fill="#FEFFFE" transform="matrix(1.00, 0.00, -0.00, -1.00, 129.0, 376.0)">o</text><text xml:space="preserve" font-family="Helvetica-Bold" font-weight="bold" font-size="18.0" fill="#FEFFFE" transform="matrix(1.00, 0.00, -0.00, -1.00, 140.0, 376.0)">g</text><text xml:space="preserve" font-family="Helvetica-Bold" font-weight="bold" font-size="18.0" fill="#FEFFFE" transform="matrix(1.00, 0.00, -0.00, -1.00, 151.0, 376.0)">e</text><text xml:space="preserve" font-family="Helvetica-Bold" font-weight="bold" font-size="18.0" fill="#FEFFFE" transform="matrix(1.00, 0.00, -0.00, -1.00, 161.0, 376.0)">n</text><text xml:space="preserve" font-family="Helvetica-Bold" font-weight="bold" font-size="18.0" fill="#FEFFFE" transform="matrix(1.00, 0.00, -0.00, -1.00, 172.0, 376.0)">e</text><text xml:space="preserve" font-family="Helvetica-Bold" font-weight="bold" font-size="18.0" fill="#FEFFFE" transform="matrix(1.00, 0.00, -0.00, -1.00, 182.0, 376.0)">o</text><text xml:space="preserve" font-family="Helvetica-Bold" font-weight="bold" font-size="18.0" fill="#FEFFFE" transform="matrix(1.00, 0.00, -0.00, -1.00, 193.0, 376.0)">u</text><text xml:space="preserve" font-family="Helvetica-Bold" font-weight="bold" font-size="18.0" fill="#FEFFFE" transform="matrix(1.00, 0.00, -0.00, -1.00, 204.0, 376.0)">s</text></g></g></g></g><g><clipPath id="clip-1134"><path d="M 58.0 609.0 L 966.0 609.0 L 966.0 66.4 L 58.0 66.4 Z M 58.0 609.0 "></path></clipPath><g clip-path="url(#clip-1134)"><g><clipPath id="clip-1135"><path d="M 240.1 337.7 L 421.2 337.7 L 421.2 428.1 L 240.1 428.1 Z M 240.1 337.7 "></path></clipPath><g clip-path="url(#clip-1135)"><text xml:space="preserve" font-family="Helvetica-Light" font-size="26.0" fill="#000000" transform="matrix(1.00, 0.00, -0.00, -1.00, 321.0, 373.0)">N</text></g></g></g></g><g><clipPath id="clip-1136"><path d="M 58.0 609.0 L 966.0 609.0 L 966.0 66.4 L 58.0 66.4 Z M 58.0 609.0 "></path></clipPath><g clip-path="url(#clip-1136)"><g><clipPath id="clip-1137"><path d="M 421.2 337.7 L 602.8 337.7 L 602.8 428.1 L 421.2 428.1 Z M 421.2 337.7 "></path></clipPath><g clip-path="url(#clip-1137)"><text xml:space="preserve" font-family="Helvetica-Light" font-size="26.0" fill="#000000" transform="matrix(1.00, 0.00, -0.00, -1.00, 503.0, 373.0)">N</text></g></g></g></g><g><clipPath id="clip-1138"><path d="M 58.0 609.0 L 966.0 609.0 L 966.0 66.4 L 58.0 66.4 Z M 58.0 609.0 "></path></clipPath><g clip-path="url(#clip-1138)"><g><clipPath id="clip-1139"><path d="M 602.8 337.7 L 784.4 337.7 L 784.4 428.1 L 602.8 428.1 Z M 602.8 337.7 "></path></clipPath><g clip-path="url(#clip-1139)"><text xml:space="preserve" font-family="Helvetica-Light" font-size="26.0" fill="#000000" transform="matrix(1.00, 0.00, -0.00, -1.00, 684.0, 373.0)">N</text></g></g></g></g><g><clipPath id="clip-1140"><path d="M 58.0 609.0 L 966.0 609.0 L 966.0 66.4 L 58.0 66.4 Z M 58.0 609.0 "></path></clipPath><g clip-path="url(#clip-1140)"><g><clipPath id="clip-1141"><path d="M 784.4 337.7 L 966.0 337.7 L 966.0 428.1 L 784.4 428.1 Z M 784.4 337.7 "></path></clipPath><g clip-path="url(#clip-1141)"><text xml:space="preserve" font-family="Helvetica-Light" font-size="26.0" fill="#000000" transform="matrix(1.00, 0.00, -0.00, -1.00, 867.0, 373.0)">Y</text></g></g></g></g><g><clipPath id="clip-1142"><path d="M 58.0 609.0 L 966.0 609.0 L 966.0 66.4 L 58.0 66.4 Z M 58.0 609.0 "></path></clipPath><g clip-path="url(#clip-1142)"><g><clipPath id="clip-1143"><path d="M 58.0 247.3 L 239.1 247.3 L 239.1 337.7 L 58.0 337.7 Z M 58.0 247.3 "></path></clipPath><g clip-path="url(#clip-1143)"><text xml:space="preserve" font-family="Helvetica-Bold" font-weight="bold" font-size="18.0" fill="#FEFFFE" transform="matrix(1.00, 0.00, -0.00, -1.00, 90.0, 286.0)">L</text><text xml:space="preserve" font-family="Helvetica-Bold" font-weight="bold" font-size="18.0" fill="#FEFFFE" transform="matrix(1.00, 0.00, -0.00, -1.00, 101.0, 286.0)">i</text><text xml:space="preserve" font-family="Helvetica-Bold" font-weight="bold" font-size="18.0" fill="#FEFFFE" transform="matrix(1.00, 0.00, -0.00, -1.00, 106.0, 286.0)">t</text><text xml:space="preserve" font-family="Helvetica-Bold" font-weight="bold" font-size="18.0" fill="#FEFFFE" transform="matrix(1.00, 0.00, -0.00, -1.00, 112.0, 286.0)">e</text><text xml:space="preserve" font-family="Helvetica-Bold" font-weight="bold" font-size="18.0" fill="#FEFFFE" transform="matrix(1.00, 0.00, -0.00, -1.00, 122.0, 286.0)">r</text><text xml:space="preserve" font-family="Helvetica-Bold" font-weight="bold" font-size="18.0" fill="#FEFFFE" transform="matrix(1.00, 0.00, -0.00, -1.00, 129.0, 286.0)">a</text><text xml:space="preserve" font-family="Helvetica-Bold" font-weight="bold" font-size="18.0" fill="#FEFFFE" transform="matrix(1.00, 0.00, -0.00, -1.00, 139.0, 286.0)">l</text><text xml:space="preserve" font-family="Helvetica-Bold" font-weight="bold" font-size="18.0" fill="#FEFFFE" transform="matrix(1.00, 0.00, -0.00, -1.00, 144.0, 286.0)"> </text><text xml:space="preserve" font-family="Helvetica-Bold" font-weight="bold" font-size="18.0" fill="#FEFFFE" transform="matrix(1.00, 0.00, -0.00, -1.00, 149.0, 286.0)">S</text><text xml:space="preserve" font-family="Helvetica-Bold" font-weight="bold" font-size="18.0" fill="#FEFFFE" transform="matrix(1.00, 0.00, -0.00, -1.00, 161.0, 286.0)">y</text><text xml:space="preserve" font-family="Helvetica-Bold" font-weight="bold" font-size="18.0" fill="#FEFFFE" transform="matrix(1.00, 0.00, -0.00, -1.00, 171.0, 286.0)">n</text><text xml:space="preserve" font-family="Helvetica-Bold" font-weight="bold" font-size="18.0" fill="#FEFFFE" transform="matrix(1.00, 0.00, -0.00, -1.00, 182.0, 286.0)">t</text><text xml:space="preserve" font-family="Helvetica-Bold" font-weight="bold" font-size="18.0" fill="#FEFFFE" transform="matrix(1.00, 0.00, -0.00, -1.00, 188.0, 286.0)">a</text><text xml:space="preserve" font-family="Helvetica-Bold" font-weight="bold" font-size="18.0" fill="#FEFFFE" transform="matrix(1.00, 0.00, -0.00, -1.00, 198.0, 286.0)">x</text></g></g></g></g><g><clipPath id="clip-1144"><path d="M 58.0 609.0 L 966.0 609.0 L 966.0 66.4 L 58.0 66.4 Z M 58.0 609.0 "></path></clipPath><g clip-path="url(#clip-1144)"><g><clipPath id="clip-1145"><path d="M 240.1 247.3 L 421.2 247.3 L 421.2 337.7 L 240.1 337.7 Z M 240.1 247.3 "></path></clipPath><g clip-path="url(#clip-1145)"><text xml:space="preserve" font-family="Helvetica-Light" font-size="26.0" fill="#000000" transform="matrix(1.00, 0.00, -0.00, -1.00, 321.0, 283.0)">N</text></g></g></g></g><g><clipPath id="clip-1146"><path d="M 58.0 609.0 L 966.0 609.0 L 966.0 66.4 L 58.0 66.4 Z M 58.0 609.0 "></path></clipPath><g clip-path="url(#clip-1146)"><g><clipPath id="clip-1147"><path d="M 421.2 247.3 L 602.8 247.3 L 602.8 337.7 L 421.2 337.7 Z M 421.2 247.3 "></path></clipPath><g clip-path="url(#clip-1147)"><text xml:space="preserve" font-family="Helvetica-Light" font-size="26.0" fill="#000000" transform="matrix(1.00, 0.00, -0.00, -1.00, 503.0, 283.0)">N</text></g></g></g></g><g><clipPath id="clip-1148"><path d="M 58.0 609.0 L 966.0 609.0 L 966.0 66.4 L 58.0 66.4 Z M 58.0 609.0 "></path></clipPath><g clip-path="url(#clip-1148)"><g><clipPath id="clip-1149"><path d="M 602.8 247.3 L 784.4 247.3 L 784.4 337.7 L 602.8 337.7 Z M 602.8 247.3 "></path></clipPath><g clip-path="url(#clip-1149)"><text xml:space="preserve" font-family="Helvetica-Light" font-size="26.0" fill="#000000" transform="matrix(1.00, 0.00, -0.00, -1.00, 684.0, 283.0)">N</text></g></g></g></g><g><clipPath id="clip-1150"><path d="M 58.0 609.0 L 966.0 609.0 L 966.0 66.4 L 58.0 66.4 Z M 58.0 609.0 "></path></clipPath><g clip-path="url(#clip-1150)"><g><clipPath id="clip-1151"><path d="M 784.4 247.3 L 966.0 247.3 L 966.0 337.7 L 784.4 337.7 Z M 784.4 247.3 "></path></clipPath><g clip-path="url(#clip-1151)"><text xml:space="preserve" font-family="Helvetica-Light" font-size="26.0" fill="#000000" transform="matrix(1.00, 0.00, -0.00, -1.00, 862.0, 283.0)">Y</text><text xml:space="preserve" font-family="Helvetica-Light" font-size="26.0" fill="#000000" transform="matrix(1.00, 0.00, -0.00, -1.00, 877.9, 283.0)">*</text></g></g></g></g><g><clipPath id="clip-1152"><path d="M 58.0 609.0 L 966.0 609.0 L 966.0 66.4 L 58.0 66.4 Z M 58.0 609.0 "></path></clipPath><g clip-path="url(#clip-1152)"><g><clipPath id="clip-1153"><path d="M 58.0 156.8 L 239.1 156.8 L 239.1 247.3 L 58.0 247.3 Z M 58.0 156.8 "></path></clipPath><g clip-path="url(#clip-1153)"><text xml:space="preserve" font-family="Helvetica-Bold" font-weight="bold" font-size="18.0" fill="#FEFFFE" transform="matrix(1.00, 0.00, -0.00, -1.00, 95.0, 206.0)">E</text><text xml:space="preserve" font-family="Helvetica-Bold" font-weight="bold" font-size="18.0" fill="#FEFFFE" transform="matrix(1.00, 0.00, -0.00, -1.00, 107.0, 206.0)">a</text><text xml:space="preserve" font-family="Helvetica-Bold" font-weight="bold" font-size="18.0" fill="#FEFFFE" transform="matrix(1.00, 0.00, -0.00, -1.00, 117.0, 206.0)">s</text><text xml:space="preserve" font-family="Helvetica-Bold" font-weight="bold" font-size="18.0" fill="#FEFFFE" transform="matrix(1.00, 0.00, -0.00, -1.00, 127.0, 206.0)">y</text><text xml:space="preserve" font-family="Helvetica-Bold" font-weight="bold" font-size="18.0" fill="#FEFFFE" transform="matrix(1.00, 0.00, -0.00, -1.00, 137.0, 206.0)"> </text><text xml:space="preserve" font-family="Helvetica-Bold" font-weight="bold" font-size="18.0" fill="#FEFFFE" transform="matrix(1.00, 0.00, -0.00, -1.00, 142.0, 206.0)">N</text><text xml:space="preserve" font-family="Helvetica-Bold" font-weight="bold" font-size="18.0" fill="#FEFFFE" transform="matrix(1.00, 0.00, -0.00, -1.00, 155.0, 206.0)">e</text><text xml:space="preserve" font-family="Helvetica-Bold" font-weight="bold" font-size="18.0" fill="#FEFFFE" transform="matrix(1.00, 0.00, -0.00, -1.00, 165.1, 206.0)">s</text><text xml:space="preserve" font-family="Helvetica-Bold" font-weight="bold" font-size="18.0" fill="#FEFFFE" transform="matrix(1.00, 0.00, -0.00, -1.00, 175.1, 206.0)">t</text><text xml:space="preserve" font-family="Helvetica-Bold" font-weight="bold" font-size="18.0" fill="#FEFFFE" transform="matrix(1.00, 0.00, -0.00, -1.00, 181.1, 206.0)">e</text><text xml:space="preserve" font-family="Helvetica-Bold" font-weight="bold" font-size="18.0" fill="#FEFFFE" transform="matrix(1.00, 0.00, -0.00, -1.00, 191.1, 206.0)">d</text><text xml:space="preserve" font-family="Helvetica-Bold" font-weight="bold" font-size="18.0" fill="#FEFFFE" transform="matrix(1.00, 0.00, -0.00, -1.00, 202.1, 206.0)"> </text><text xml:space="preserve" font-family="Helvetica-Bold" font-weight="bold" font-size="18.0" fill="#FEFFFE" transform="matrix(1.00, 0.00, -0.00, -1.00, 117.0, 184.0)">A</text><text xml:space="preserve" font-family="Helvetica-Bold" font-weight="bold" font-size="18.0" fill="#FEFFFE" transform="matrix(1.00, 0.00, -0.00, -1.00, 130.0, 184.0)">c</text><text xml:space="preserve" font-family="Helvetica-Bold" font-weight="bold" font-size="18.0" fill="#FEFFFE" transform="matrix(1.00, 0.00, -0.00, -1.00, 140.0, 184.0)">c</text><text xml:space="preserve" font-family="Helvetica-Bold" font-weight="bold" font-size="18.0" fill="#FEFFFE" transform="matrix(1.00, 0.00, -0.00, -1.00, 150.0, 184.0)">e</text><text xml:space="preserve" font-family="Helvetica-Bold" font-weight="bold" font-size="18.0" fill="#FEFFFE" transform="matrix(1.00, 0.00, -0.00, -1.00, 160.0, 184.0)">s</text><text xml:space="preserve" font-family="Helvetica-Bold" font-weight="bold" font-size="18.0" fill="#FEFFFE" transform="matrix(1.00, 0.00, -0.00, -1.00, 170.1, 184.0)">s</text></g></g></g></g><g><clipPath id="clip-1154"><path d="M 58.0 609.0 L 966.0 609.0 L 966.0 66.4 L 58.0 66.4 Z M 58.0 609.0 "></path></clipPath><g clip-path="url(#clip-1154)"><g><clipPath id="clip-1155"><path d="M 240.1 156.8 L 421.2 156.8 L 421.2 247.3 L 240.1 247.3 Z M 240.1 156.8 "></path></clipPath><g clip-path="url(#clip-1155)"><text xml:space="preserve" font-family="Helvetica-Light" font-size="26.0" fill="#000000" transform="matrix(1.00, 0.00, -0.00, -1.00, 321.0, 192.0)">N</text></g></g></g></g><g><clipPath id="clip-1156"><path d="M 58.0 609.0 L 966.0 609.0 L 966.0 66.4 L 58.0 66.4 Z M 58.0 609.0 "></path></clipPath><g clip-path="url(#clip-1156)"><g><clipPath id="clip-1157"><path d="M 421.2 156.8 L 602.8 156.8 L 602.8 247.3 L 421.2 247.3 Z M 421.2 156.8 "></path></clipPath><g clip-path="url(#clip-1157)"><text xml:space="preserve" font-family="Helvetica-Light" font-size="26.0" fill="#000000" transform="matrix(1.00, 0.00, -0.00, -1.00, 503.0, 192.0)">N</text></g></g></g></g><g><clipPath id="clip-1158"><path d="M 58.0 609.0 L 966.0 609.0 L 966.0 66.4 L 58.0 66.4 Z M 58.0 609.0 "></path></clipPath><g clip-path="url(#clip-1158)"><g><clipPath id="clip-1159"><path d="M 602.8 156.8 L 784.4 156.8 L 784.4 247.3 L 602.8 247.3 Z M 602.8 156.8 "></path></clipPath><g clip-path="url(#clip-1159)"><text xml:space="preserve" font-family="Helvetica-Light" font-size="26.0" fill="#000000" transform="matrix(1.00, 0.00, -0.00, -1.00, 684.0, 192.0)">N</text></g></g></g></g><g><clipPath id="clip-1160"><path d="M 58.0 609.0 L 966.0 609.0 L 966.0 66.4 L 58.0 66.4 Z M 58.0 609.0 "></path></clipPath><g clip-path="url(#clip-1160)"><g><clipPath id="clip-1161"><path d="M 784.4 156.8 L 966.0 156.8 L 966.0 247.3 L 784.4 247.3 Z M 784.4 156.8 "></path></clipPath><g clip-path="url(#clip-1161)"><text xml:space="preserve" font-family="Helvetica-Light" font-size="26.0" fill="#000000" transform="matrix(1.00, 0.00, -0.00, -1.00, 867.0, 192.0)">Y</text></g></g></g></g><g><clipPath id="clip-1162"><path d="M 58.0 609.0 L 966.0 609.0 L 966.0 66.4 L 58.0 66.4 Z M 58.0 609.0 "></path></clipPath><g clip-path="url(#clip-1162)"><g><clipPath id="clip-1163"><path d="M 58.0 66.4 L 239.1 66.4 L 239.1 156.8 L 58.0 156.8 Z M 58.0 66.4 "></path></clipPath><g clip-path="url(#clip-1163)"><text xml:space="preserve" font-family="Helvetica-Bold" font-weight="bold" font-size="18.0" fill="#FEFFFE" transform="matrix(1.00, 0.00, -0.00, -1.00, 95.0, 116.0)">E</text><text xml:space="preserve" font-family="Helvetica-Bold" font-weight="bold" font-size="18.0" fill="#FEFFFE" transform="matrix(1.00, 0.00, -0.00, -1.00, 107.0, 116.0)">a</text><text xml:space="preserve" font-family="Helvetica-Bold" font-weight="bold" font-size="18.0" fill="#FEFFFE" transform="matrix(1.00, 0.00, -0.00, -1.00, 117.0, 116.0)">s</text><text xml:space="preserve" font-family="Helvetica-Bold" font-weight="bold" font-size="18.0" fill="#FEFFFE" transform="matrix(1.00, 0.00, -0.00, -1.00, 127.0, 116.0)">y</text><text xml:space="preserve" font-family="Helvetica-Bold" font-weight="bold" font-size="18.0" fill="#FEFFFE" transform="matrix(1.00, 0.00, -0.00, -1.00, 137.0, 116.0)"> </text><text xml:space="preserve" font-family="Helvetica-Bold" font-weight="bold" font-size="18.0" fill="#FEFFFE" transform="matrix(1.00, 0.00, -0.00, -1.00, 142.0, 116.0)">N</text><text xml:space="preserve" font-family="Helvetica-Bold" font-weight="bold" font-size="18.0" fill="#FEFFFE" transform="matrix(1.00, 0.00, -0.00, -1.00, 155.0, 116.0)">e</text><text xml:space="preserve" font-family="Helvetica-Bold" font-weight="bold" font-size="18.0" fill="#FEFFFE" transform="matrix(1.00, 0.00, -0.00, -1.00, 165.1, 116.0)">s</text><text xml:space="preserve" font-family="Helvetica-Bold" font-weight="bold" font-size="18.0" fill="#FEFFFE" transform="matrix(1.00, 0.00, -0.00, -1.00, 175.1, 116.0)">t</text><text xml:space="preserve" font-family="Helvetica-Bold" font-weight="bold" font-size="18.0" fill="#FEFFFE" transform="matrix(1.00, 0.00, -0.00, -1.00, 181.1, 116.0)">e</text><text xml:space="preserve" font-family="Helvetica-Bold" font-weight="bold" font-size="18.0" fill="#FEFFFE" transform="matrix(1.00, 0.00, -0.00, -1.00, 191.1, 116.0)">d</text><text xml:space="preserve" font-family="Helvetica-Bold" font-weight="bold" font-size="18.0" fill="#FEFFFE" transform="matrix(1.00, 0.00, -0.00, -1.00, 202.1, 116.0)"> </text><text xml:space="preserve" font-family="Helvetica-Bold" font-weight="bold" font-size="18.0" fill="#FEFFFE" transform="matrix(1.00, 0.00, -0.00, -1.00, 96.0, 94.0)">M</text><text xml:space="preserve" font-family="Helvetica-Bold" font-weight="bold" font-size="18.0" fill="#FEFFFE" transform="matrix(1.00, 0.00, -0.00, -1.00, 111.0, 94.0)">o</text><text xml:space="preserve" font-family="Helvetica-Bold" font-weight="bold" font-size="18.0" fill="#FEFFFE" transform="matrix(1.00, 0.00, -0.00, -1.00, 122.0, 94.0)">d</text><text xml:space="preserve" font-family="Helvetica-Bold" font-weight="bold" font-size="18.0" fill="#FEFFFE" transform="matrix(1.00, 0.00, -0.00, -1.00, 133.0, 94.0)">i</text><text xml:space="preserve" font-family="Helvetica-Bold" font-weight="bold" font-size="18.0" fill="#FEFFFE" transform="matrix(1.00, 0.00, -0.00, -1.00, 138.0, 94.0)">ï¬</text><text xml:space="preserve" font-family="Helvetica-Bold" font-weight="bold" font-size="18.0" fill="#FEFFFE" transform="matrix(1.00, 0.00, -0.00, -1.00, 149.0, 94.0)">c</text><text xml:space="preserve" font-family="Helvetica-Bold" font-weight="bold" font-size="18.0" fill="#FEFFFE" transform="matrix(1.00, 0.00, -0.00, -1.00, 159.0, 94.0)">a</text><text xml:space="preserve" font-family="Helvetica-Bold" font-weight="bold" font-size="18.0" fill="#FEFFFE" transform="matrix(1.00, 0.00, -0.00, -1.00, 169.0, 94.0)">t</text><text xml:space="preserve" font-family="Helvetica-Bold" font-weight="bold" font-size="18.0" fill="#FEFFFE" transform="matrix(1.00, 0.00, -0.00, -1.00, 175.0, 94.0)">i</text><text xml:space="preserve" font-family="Helvetica-Bold" font-weight="bold" font-size="18.0" fill="#FEFFFE" transform="matrix(1.00, 0.00, -0.00, -1.00, 180.0, 94.0)">o</text><text xml:space="preserve" font-family="Helvetica-Bold" font-weight="bold" font-size="18.0" fill="#FEFFFE" transform="matrix(1.00, 0.00, -0.00, -1.00, 191.0, 94.0)">n</text></g></g></g></g><g><clipPath id="clip-1164"><path d="M 58.0 609.0 L 966.0 609.0 L 966.0 66.4 L 58.0 66.4 Z M 58.0 609.0 "></path></clipPath><g clip-path="url(#clip-1164)"><g><clipPath id="clip-1165"><path d="M 240.1 66.4 L 421.2 66.4 L 421.2 156.8 L 240.1 156.8 Z M 240.1 66.4 "></path></clipPath><g clip-path="url(#clip-1165)"><text xml:space="preserve" font-family="Helvetica-Light" font-size="26.0" fill="#000000" transform="matrix(1.00, 0.00, -0.00, -1.00, 321.0, 102.0)">N</text></g></g></g></g><g><clipPath id="clip-1166"><path d="M 58.0 609.0 L 966.0 609.0 L 966.0 66.4 L 58.0 66.4 Z M 58.0 609.0 "></path></clipPath><g clip-path="url(#clip-1166)"><g><clipPath id="clip-1167"><path d="M 421.2 66.4 L 602.8 66.4 L 602.8 156.8 L 421.2 156.8 Z M 421.2 66.4 "></path></clipPath><g clip-path="url(#clip-1167)"><text xml:space="preserve" font-family="Helvetica-Light" font-size="26.0" fill="#000000" transform="matrix(1.00, 0.00, -0.00, -1.00, 503.0, 102.0)">N</text></g></g></g></g><g><clipPath id="clip-1168"><path d="M 58.0 609.0 L 966.0 609.0 L 966.0 66.4 L 58.0 66.4 Z M 58.0 609.0 "></path></clipPath><g clip-path="url(#clip-1168)"><g><clipPath id="clip-1169"><path d="M 602.8 66.4 L 784.4 66.4 L 784.4 156.8 L 602.8 156.8 Z M 602.8 66.4 "></path></clipPath><g clip-path="url(#clip-1169)"><text xml:space="preserve" font-family="Helvetica-Light" font-size="26.0" fill="#000000" transform="matrix(1.00, 0.00, -0.00, -1.00, 684.0, 102.0)">N</text></g></g></g></g><g><clipPath id="clip-1170"><path d="M 58.0 609.0 L 966.0 609.0 L 966.0 66.4 L 58.0 66.4 Z M 58.0 609.0 "></path></clipPath><g clip-path="url(#clip-1170)"><g><clipPath id="clip-1171"><path d="M 784.4 66.4 L 966.0 66.4 L 966.0 156.8 L 784.4 156.8 Z M 784.4 66.4 "></path></clipPath><g clip-path="url(#clip-1171)"><text xml:space="preserve" font-family="Helvetica-Light" font-size="26.0" fill="#000000" transform="matrix(1.00, 0.00, -0.00, -1.00, 867.0, 102.0)">Y</text></g></g></g></g></g></svg>