<?xml version="1.0" encoding="UTF-8" standalone="no"?><svg xmlns="http://www.w3.org/2000/svg" xmlns:xlink="http://www.w3.org/1999/xlink" clip-rule="evenodd" stroke-miterlimit="4.00" viewBox="0 0 214 33"><desc>SVG generated by Keynote</desc><defs></defs><g transform="matrix(1.00, 0.00, -0.00, -1.00, 0.0, 33.0)"><g><clipPath id="clip-180"><path d="M 0.0 9.2 L 17.2 9.2 L 17.2 25.2 L 0.0 25.2 Z M 0.0 9.2 "></path></clipPath><g clip-path="url(#clip-180)"><path d="M 16.9 14.9 C 17.1 14.7 17.2 14.4 17.2 14.2 C 17.2 13.7 16.9 13.2 16.3 12.8 C 15.8 12.3 15.1 12.1 14.4 12.1 C 13.5 12.1 12.4 12.8 11.1 14.2 C 11.1 14.2 11.1 12.1 11.1 12.1 C 11.1 11.9 11.2 11.7 11.3 11.4 C 11.4 11.1 11.5 10.9 11.5 10.7 C 11.5 10.3 11.3 9.9 10.8 9.6 C 10.4 9.3 9.9 9.2 9.5 9.2 C 8.7 9.2 8.1 9.5 7.5 10.2 C 7.3 10.4 7.3 10.9 7.3 11.8 C 7.4 12.8 7.4 13.7 7.5 14.7 C 7.0 14.3 6.1 13.8 4.8 13.1 C 4.6 12.8 4.0 12.5 3.1 12.2 C 2.5 12.2 1.8 12.3 1.1 12.6 C 0.4 12.9 0.0 13.4 0.0 13.9 C 0.0 14.0 0.0 14.2 0.1 14.3 C 0.2 14.6 0.5 14.8 1.0 15.0 C 1.7 15.2 2.1 15.3 2.1 15.4 C 2.1 15.4 5.9 17.4 5.9 17.4 C 5.9 17.4 3.2 18.8 3.2 18.8 C 2.8 18.8 2.3 18.9 1.7 19.3 C 1.5 19.5 1.5 19.7 1.5 20.0 C 1.5 20.6 1.8 21.2 2.6 21.8 C 3.4 22.4 4.1 22.7 4.9 22.7 C 5.1 22.7 5.4 22.7 5.6 22.6 C 5.9 22.5 6.1 22.3 6.3 21.9 C 6.6 21.5 6.9 21.1 7.5 20.7 C 7.5 20.7 7.6 23.1 7.6 23.1 C 7.5 23.5 7.5 24.0 7.6 24.6 C 7.9 25.0 8.6 25.2 9.7 25.2 C 10.6 25.2 11.3 24.9 11.6 24.4 C 11.8 24.1 11.8 23.6 11.7 22.7 C 11.6 21.9 11.5 21.1 11.4 20.4 C 11.4 20.4 12.8 21.1 12.8 21.1 C 13.1 21.4 13.6 21.7 14.4 22.0 C 14.9 22.1 15.5 21.9 16.0 21.4 C 16.5 20.9 16.8 20.5 16.8 19.9 C 16.8 19.7 16.7 19.5 16.6 19.3 C 16.4 19.1 16.2 18.9 15.9 18.9 C 15.4 18.8 15.1 18.7 15.0 18.6 C 15.0 18.6 12.9 17.1 12.9 17.1 C 12.9 17.1 15.6 15.6 15.6 15.6 C 16.0 15.5 16.4 15.3 16.9 14.9 Z M 16.9 14.9 " fill="#3995D6"></path></g></g><text xml:space="preserve" font-family="MarkerFelt-Thin" font-size="29.5" fill="#858585" transform="matrix(1.00, 0.00, -0.00, -1.00, 29.0, 8.0)">g</text><text xml:space="preserve" font-family="MarkerFelt-Thin" font-size="29.5" fill="#858585" transform="matrix(1.00, 0.00, -0.00, -1.00, 42.3, 8.0)">e</text><text xml:space="preserve" font-family="MarkerFelt-Thin" font-size="29.5" fill="#858585" transform="matrix(1.00, 0.00, -0.00, -1.00, 56.0, 8.0)">t</text><text xml:space="preserve" font-family="MarkerFelt-Thin" font-size="29.5" fill="#858585" transform="matrix(1.00, 0.00, -0.00, -1.00, 69.1, 8.0)">t</text><text xml:space="preserve" font-family="MarkerFelt-Thin" font-size="29.5" fill="#858585" transform="matrix(1.00, 0.00, -0.00, -1.00, 80.4, 8.0)">e</text><text xml:space="preserve" font-family="MarkerFelt-Thin" font-size="29.5" fill="#858585" transform="matrix(1.00, 0.00, -0.00, -1.00, 93.4, 8.0)">r</text><text xml:space="preserve" font-family="MarkerFelt-Thin" font-size="29.5" fill="#858585" transform="matrix(1.00, 0.00, -0.00, -1.00, 104.6, 8.0)">s</text><text xml:space="preserve" font-family="MarkerFelt-Thin" font-size="29.5" fill="#858585" transform="matrix(1.00, 0.00, -0.00, -1.00, 116.8, 8.0)">/</text><text xml:space="preserve" font-family="MarkerFelt-Thin" font-size="29.5" fill="#858585" transform="matrix(1.00, 0.00, -0.00, -1.00, 127.9, 8.0)">s</text><text xml:space="preserve" font-family="MarkerFelt-Thin" font-size="29.5" fill="#858585" transform="matrix(1.00, 0.00, -0.00, -1.00, 139.8, 8.0)">e</text><text xml:space="preserve" font-family="MarkerFelt-Thin" font-size="29.5" fill="#858585" transform="matrix(1.00, 0.00, -0.00, -1.00, 153.5, 8.0)">t</text><text xml:space="preserve" font-family="MarkerFelt-Thin" font-size="29.5" fill="#858585" transform="matrix(1.00, 0.00, -0.00, -1.00, 166.7, 8.0)">t</text><text xml:space="preserve" font-family="MarkerFelt-Thin" font-size="29.5" fill="#858585" transform="matrix(1.00, 0.00, -0.00, -1.00, 177.9, 8.0)">e</text><text xml:space="preserve" font-family="MarkerFelt-Thin" font-size="29.5" fill="#858585" transform="matrix(1.00, 0.00, -0.00, -1.00, 190.9, 8.0)">r</text><text xml:space="preserve" font-family="MarkerFelt-Thin" font-size="29.5" fill="#858585" transform="matrix(1.00, 0.00, -0.00, -1.00, 202.1, 8.0)">s</text></g></svg>