<?xml version="1.0" encoding="UTF-8" standalone="no"?><svg xmlns="http://www.w3.org/2000/svg" xmlns:xlink="http://www.w3.org/1999/xlink" clip-rule="evenodd" stroke-miterlimit="4.00" viewBox="0 0 312 40"><desc>SVG generated by Keynote</desc><defs></defs><g transform="matrix(1.00, 0.00, -0.00, -1.00, 0.0, 40.0)"><g><clipPath id="clip-185"><path d="M 0.0 10.6 L 21.0 10.6 L 21.0 30.1 L 0.0 30.1 Z M 0.0 10.6 "></path></clipPath><g clip-path="url(#clip-185)"><path d="M 20.7 17.6 C 20.9 17.3 21.0 17.0 21.0 16.7 C 21.0 16.0 20.6 15.5 19.9 14.9 C 19.2 14.4 18.4 14.1 17.6 14.1 C 16.4 14.1 15.1 15.0 13.6 16.7 C 13.6 16.7 13.6 14.1 13.6 14.1 C 13.6 13.9 13.6 13.6 13.8 13.3 C 13.9 12.9 14.0 12.6 14.0 12.5 C 14.0 12.0 13.7 11.5 13.2 11.1 C 12.7 10.8 12.1 10.6 11.6 10.6 C 10.6 10.6 9.8 11.0 9.1 11.8 C 8.9 12.1 8.9 12.7 8.9 13.8 C 9.0 15.0 9.0 16.1 9.1 17.3 C 8.5 16.9 7.4 16.2 5.8 15.4 C 5.6 15.0 4.9 14.7 3.8 14.3 C 3.0 14.2 2.2 14.4 1.3 14.8 C 0.4 15.2 0.0 15.7 0.0 16.4 C 0.0 16.5 0.0 16.7 0.1 16.8 C 0.3 17.2 0.6 17.5 1.2 17.6 C 2.0 17.9 2.5 18.1 2.6 18.1 C 2.6 18.1 7.2 20.7 7.2 20.7 C 7.2 20.7 3.9 22.3 3.9 22.3 C 3.5 22.3 2.8 22.5 2.0 22.9 C 1.9 23.2 1.8 23.4 1.8 23.7 C 1.8 24.5 2.2 25.3 3.2 26.0 C 4.1 26.8 5.0 27.1 6.0 27.1 C 6.3 27.1 6.6 27.1 6.9 27.0 C 7.2 26.9 7.5 26.6 7.7 26.1 C 8.0 25.6 8.5 25.1 9.1 24.7 C 9.1 24.7 9.2 27.6 9.2 27.6 C 9.1 28.0 9.1 28.6 9.2 29.4 C 9.6 29.9 10.5 30.1 11.8 30.1 C 13.0 30.1 13.8 29.8 14.2 29.1 C 14.3 28.8 14.4 28.1 14.2 27.1 C 14.2 26.1 14.1 25.2 13.9 24.2 C 13.9 24.2 15.7 25.1 15.7 25.1 C 16.0 25.5 16.6 25.8 17.6 26.3 C 18.2 26.3 18.9 26.0 19.5 25.5 C 20.1 24.9 20.5 24.3 20.5 23.7 C 20.5 23.4 20.4 23.1 20.2 22.9 C 20.1 22.6 19.8 22.5 19.4 22.4 C 18.8 22.3 18.5 22.1 18.3 22.0 C 18.3 22.0 15.8 20.2 15.8 20.2 C 15.8 20.2 19.0 18.4 19.0 18.4 C 19.5 18.3 20.0 18.0 20.7 17.6 Z M 20.7 17.6 " fill="#3995D6"></path></g></g><text xml:space="preserve" font-family="MarkerFelt-Thin" font-size="36.0" fill="#858585" transform="matrix(1.00, 0.00, -0.00, -1.00, 35.0, 9.0)">S</text><text xml:space="preserve" font-family="MarkerFelt-Thin" font-size="36.0" fill="#858585" transform="matrix(1.00, 0.00, -0.00, -1.00, 51.6, 9.0)">t</text><text xml:space="preserve" font-family="MarkerFelt-Thin" font-size="36.0" fill="#858585" transform="matrix(1.00, 0.00, -0.00, -1.00, 66.4, 9.0)">a</text><text xml:space="preserve" font-family="MarkerFelt-Thin" font-size="36.0" fill="#858585" transform="matrix(1.00, 0.00, -0.00, -1.00, 84.0, 9.0)">t</text><text xml:space="preserve" font-family="MarkerFelt-Thin" font-size="36.0" fill="#858585" transform="matrix(1.00, 0.00, -0.00, -1.00, 97.7, 9.0)">e</text><text xml:space="preserve" font-family="MarkerFelt-Thin" font-size="36.0" fill="#858585" transform="matrix(1.00, 0.00, -0.00, -1.00, 113.3, 9.0)">:</text><text xml:space="preserve" font-family="MarkerFelt-Thin" font-size="36.0" fill="#858585" transform="matrix(1.00, 0.00, -0.00, -1.00, 121.5, 9.0)"> </text><text xml:space="preserve" font-family="MarkerFelt-Thin" font-size="36.0" fill="#858585" transform="matrix(1.00, 0.00, -0.00, -1.00, 130.5, 9.0)">C</text><text xml:space="preserve" font-family="MarkerFelt-Thin" font-size="36.0" fill="#858585" transform="matrix(1.00, 0.00, -0.00, -1.00, 148.3, 9.0)">l</text><text xml:space="preserve" font-family="MarkerFelt-Thin" font-size="36.0" fill="#858585" transform="matrix(1.00, 0.00, -0.00, -1.00, 156.9, 9.0)">o</text><text xml:space="preserve" font-family="MarkerFelt-Thin" font-size="36.0" fill="#858585" transform="matrix(1.00, 0.00, -0.00, -1.00, 172.9, 9.0)">j</text><text xml:space="preserve" font-family="MarkerFelt-Thin" font-size="36.0" fill="#858585" transform="matrix(1.00, 0.00, -0.00, -1.00, 181.5, 9.0)">u</text><text xml:space="preserve" font-family="MarkerFelt-Thin" font-size="36.0" fill="#858585" transform="matrix(1.00, 0.00, -0.00, -1.00, 197.9, 9.0)">r</text><text xml:space="preserve" font-family="MarkerFelt-Thin" font-size="36.0" fill="#858585" transform="matrix(1.00, 0.00, -0.00, -1.00, 211.6, 9.0)">e</text><text xml:space="preserve" font-family="MarkerFelt-Thin" font-size="36.0" fill="#858585" transform="matrix(1.00, 0.00, -0.00, -1.00, 225.3, 9.0)"> </text><text xml:space="preserve" font-family="MarkerFelt-Thin" font-size="36.0" fill="#858585" transform="matrix(1.00, 0.00, -0.00, -1.00, 234.3, 9.0)">A</text><text xml:space="preserve" font-family="MarkerFelt-Thin" font-size="36.0" fill="#858585" transform="matrix(1.00, 0.00, -0.00, -1.00, 254.5, 9.0)">t</text><text xml:space="preserve" font-family="MarkerFelt-Thin" font-size="36.0" fill="#858585" transform="matrix(1.00, 0.00, -0.00, -1.00, 269.0, 9.0)">o</text><text xml:space="preserve" font-family="MarkerFelt-Thin" font-size="36.0" fill="#858585" transform="matrix(1.00, 0.00, -0.00, -1.00, 284.6, 9.0)">m</text></g></svg>