<?xml version="1.0" encoding="UTF-8" standalone="no"?><svg xmlns="http://www.w3.org/2000/svg" xmlns:xlink="http://www.w3.org/1999/xlink" clip-rule="evenodd" stroke-miterlimit="4.00" viewBox="0 0 1024 768"><desc>SVG generated by Keynote</desc><defs></defs><g transform="matrix(1.00, 0.00, -0.00, -1.00, 0.0, 768.0)"><g><clipPath id="clip-187"><path d="M 0.0 768.0 L 1024.0 768.0 L 1024.0 0.0 L 0.0 0.0 Z M 0.0 768.0 "></path></clipPath><g clip-path="url(#clip-187)"><image xlink:href="../../39451CEE-E280-41CA-872D-216C9FC86FAF/assets/43DA95A1552523200D88D33196FD3A18.jpeg" width="1024.00" height="768.00" transform="matrix(1.00, 0.00, -0.00, -1.00, 0.0, 768.0)"></image></g></g><text xml:space="preserve" font-family="MarkerFelt-Thin" font-size="80.0" fill="#45A6DE" transform="matrix(1.00, 0.00, -0.00, -1.00, 322.0, 626.0)">W</text><text xml:space="preserve" font-family="MarkerFelt-Thin" font-size="80.0" fill="#45A6DE" transform="matrix(1.00, 0.00, -0.00, -1.00, 392.2, 626.0)">o</text><text xml:space="preserve" font-family="MarkerFelt-Thin" font-size="80.0" fill="#45A6DE" transform="matrix(1.00, 0.00, -0.00, -1.00, 428.1, 626.0)">r</text><text xml:space="preserve" font-family="MarkerFelt-Thin" font-size="80.0" fill="#45A6DE" transform="matrix(1.00, 0.00, -0.00, -1.00, 463.0, 626.0)">k</text><text xml:space="preserve" font-family="MarkerFelt-Thin" font-size="80.0" fill="#45A6DE" transform="matrix(1.00, 0.00, -0.00, -1.00, 501.4, 626.0)"> </text><text xml:space="preserve" font-family="MarkerFelt-Thin" font-size="80.0" fill="#45A6DE" transform="matrix(1.00, 0.00, -0.00, -1.00, 521.4, 626.0)">S</text><text xml:space="preserve" font-family="MarkerFelt-Thin" font-size="80.0" fill="#45A6DE" transform="matrix(1.00, 0.00, -0.00, -1.00, 563.8, 626.0)">c</text><text xml:space="preserve" font-family="MarkerFelt-Thin" font-size="80.0" fill="#45A6DE" transform="matrix(1.00, 0.00, -0.00, -1.00, 598.0, 626.0)">o</text><text xml:space="preserve" font-family="MarkerFelt-Thin" font-size="80.0" fill="#45A6DE" transform="matrix(1.00, 0.00, -0.00, -1.00, 633.4, 626.0)">p</text><text xml:space="preserve" font-family="MarkerFelt-Thin" font-size="80.0" fill="#45A6DE" transform="matrix(1.00, 0.00, -0.00, -1.00, 670.8, 626.0)">e</text><text xml:space="preserve" font-family="MarkerFelt-Thin" font-size="40.0" fill="#858484" transform="matrix(1.00, 0.00, -0.00, -1.00, 227.0, 527.0)">J</text><text xml:space="preserve" font-family="MarkerFelt-Thin" font-size="40.0" fill="#858484" transform="matrix(1.00, 0.00, -0.00, -1.00, 245.1, 527.0)">o</text><text xml:space="preserve" font-family="MarkerFelt-Thin" font-size="40.0" fill="#858484" transform="matrix(1.00, 0.00, -0.00, -1.00, 263.2, 527.0)">e</text><text xml:space="preserve" font-family="MarkerFelt-Thin" font-size="40.0" fill="#858484" transform="matrix(1.00, 0.00, -0.00, -1.00, 639.0, 527.0)">J</text><text xml:space="preserve" font-family="MarkerFelt-Thin" font-size="40.0" fill="#858484" transform="matrix(1.00, 0.00, -0.00, -1.00, 656.2, 527.0)">e</text><text xml:space="preserve" font-family="MarkerFelt-Thin" font-size="40.0" fill="#858484" transform="matrix(1.00, 0.00, -0.00, -1.00, 674.0, 527.0)">n</text><text xml:space="preserve" font-family="MarkerFelt-Thin" font-size="40.0" fill="#858484" transform="matrix(1.00, 0.00, -0.00, -1.00, 695.1, 527.0)">n</text><text xml:space="preserve" font-family="MarkerFelt-Thin" font-size="40.0" fill="#858484" transform="matrix(1.00, 0.00, -0.00, -1.00, 715.9, 527.0)">y</text><g><clipPath id="clip-188"><path d="M 84.0 447.8 L 101.2 447.8 L 101.2 463.8 L 84.0 463.8 Z M 84.0 447.8 "></path></clipPath><g clip-path="url(#clip-188)"><path d="M 100.9 453.6 C 101.1 453.3 101.2 453.1 101.2 452.8 C 101.2 452.3 100.9 451.8 100.3 451.4 C 99.8 451.0 99.1 450.7 98.4 450.7 C 97.5 450.7 96.4 451.4 95.1 452.8 C 95.1 452.8 95.1 450.7 95.1 450.7 C 95.1 450.5 95.2 450.3 95.3 450.0 C 95.4 449.7 95.5 449.5 95.5 449.4 C 95.5 448.9 95.3 448.6 94.8 448.3 C 94.4 448.0 93.9 447.8 93.5 447.8 C 92.7 447.8 92.1 448.2 91.5 448.8 C 91.3 449.0 91.3 449.6 91.3 450.5 C 91.4 451.4 91.4 452.4 91.5 453.3 C 91.0 453.0 90.1 452.5 88.8 451.7 C 88.6 451.5 88.0 451.2 87.1 450.9 C 86.5 450.8 85.8 450.9 85.1 451.3 C 84.4 451.6 84.0 452.0 84.0 452.6 C 84.0 452.7 84.0 452.8 84.1 453.0 C 84.2 453.3 84.5 453.5 85.0 453.6 C 85.7 453.9 86.1 454.0 86.1 454.0 C 86.1 454.0 89.9 456.1 89.9 456.1 C 89.9 456.1 87.2 457.4 87.2 457.4 C 86.8 457.4 86.3 457.6 85.7 457.9 C 85.5 458.1 85.5 458.4 85.5 458.6 C 85.5 459.2 85.8 459.9 86.6 460.5 C 87.4 461.1 88.1 461.4 88.9 461.4 C 89.1 461.4 89.4 461.3 89.6 461.3 C 89.9 461.2 90.1 460.9 90.3 460.6 C 90.6 460.1 90.9 459.7 91.5 459.4 C 91.5 459.4 91.6 461.8 91.6 461.8 C 91.5 462.1 91.5 462.6 91.6 463.2 C 91.9 463.6 92.6 463.8 93.7 463.8 C 94.6 463.8 95.3 463.6 95.6 463.0 C 95.8 462.8 95.8 462.2 95.7 461.3 C 95.6 460.6 95.5 459.8 95.4 459.0 C 95.4 459.0 96.8 459.7 96.8 459.7 C 97.1 460.0 97.6 460.3 98.4 460.7 C 98.9 460.7 99.5 460.5 100.0 460.0 C 100.5 459.6 100.8 459.1 100.8 458.6 C 100.8 458.3 100.7 458.1 100.6 457.9 C 100.4 457.7 100.2 457.6 99.9 457.5 C 99.4 457.4 99.1 457.3 99.0 457.2 C 99.0 457.2 96.9 455.7 96.9 455.7 C 96.9 455.7 99.6 454.3 99.6 454.3 C 100.0 454.2 100.4 453.9 100.9 453.6 Z M 100.9 453.6 " fill="#3995D6"></path></g></g><text xml:space="preserve" font-family="MarkerFelt-Thin" font-size="29.5" fill="#FF2600" transform="matrix(1.00, 0.00, -0.00, -1.00, 113.0, 446.0)">P</text><text xml:space="preserve" font-family="MarkerFelt-Thin" font-size="29.5" fill="#FF2600" transform="matrix(1.00, 0.00, -0.00, -1.00, 125.4, 446.0)">o</text><text xml:space="preserve" font-family="MarkerFelt-Thin" font-size="29.5" fill="#FF2600" transform="matrix(1.00, 0.00, -0.00, -1.00, 138.6, 446.0)">r</text><text xml:space="preserve" font-family="MarkerFelt-Thin" font-size="29.5" fill="#FF2600" transform="matrix(1.00, 0.00, -0.00, -1.00, 150.7, 446.0)">t</text><text xml:space="preserve" font-family="MarkerFelt-Thin" font-size="29.5" fill="#FF2600" transform="matrix(1.00, 0.00, -0.00, -1.00, 161.4, 446.0)"> </text><text xml:space="preserve" font-family="MarkerFelt-Thin" font-size="29.5" fill="#FF2600" transform="matrix(1.00, 0.00, -0.00, -1.00, 168.7, 446.0)">P</text><text xml:space="preserve" font-family="MarkerFelt-Thin" font-size="29.5" fill="#FF2600" transform="matrix(1.00, 0.00, -0.00, -1.00, 182.6, 446.0)">O</text><text xml:space="preserve" font-family="MarkerFelt-Thin" font-size="29.5" fill="#FF2600" transform="matrix(1.00, 0.00, -0.00, -1.00, 199.7, 446.0)">C</text><text xml:space="preserve" font-family="MarkerFelt-Thin" font-size="29.5" fill="#FF2600" transform="matrix(1.00, 0.00, -0.00, -1.00, 213.0, 446.0)"> </text><text xml:space="preserve" font-family="MarkerFelt-Thin" font-size="29.5" fill="#FF2600" transform="matrix(1.00, 0.00, -0.00, -1.00, 220.3, 446.0)">f</text><text xml:space="preserve" font-family="MarkerFelt-Thin" font-size="29.5" fill="#FF2600" transform="matrix(1.00, 0.00, -0.00, -1.00, 233.2, 446.0)">r</text><text xml:space="preserve" font-family="MarkerFelt-Thin" font-size="29.5" fill="#FF2600" transform="matrix(1.00, 0.00, -0.00, -1.00, 245.2, 446.0)">o</text><text xml:space="preserve" font-family="MarkerFelt-Thin" font-size="29.5" fill="#FF2600" transform="matrix(1.00, 0.00, -0.00, -1.00, 258.0, 446.0)">m</text><text xml:space="preserve" font-family="MarkerFelt-Thin" font-size="29.5" fill="#FF2600" transform="matrix(1.00, 0.00, -0.00, -1.00, 279.3, 446.0)"> </text><text xml:space="preserve" font-family="MarkerFelt-Thin" font-size="29.5" fill="#FF2600" transform="matrix(1.00, 0.00, -0.00, -1.00, 286.7, 446.0)">P</text><text xml:space="preserve" font-family="MarkerFelt-Thin" font-size="29.5" fill="#FF2600" transform="matrix(1.00, 0.00, -0.00, -1.00, 301.1, 446.0)">y</text><text xml:space="preserve" font-family="MarkerFelt-Thin" font-size="29.5" fill="#FF2600" transform="matrix(1.00, 0.00, -0.00, -1.00, 317.1, 446.0)">t</text><text xml:space="preserve" font-family="MarkerFelt-Thin" font-size="29.5" fill="#FF2600" transform="matrix(1.00, 0.00, -0.00, -1.00, 329.3, 446.0)">h</text><text xml:space="preserve" font-family="MarkerFelt-Thin" font-size="29.5" fill="#FF2600" transform="matrix(1.00, 0.00, -0.00, -1.00, 344.9, 446.0)">o</text><text xml:space="preserve" font-family="MarkerFelt-Thin" font-size="29.5" fill="#FF2600" transform="matrix(1.00, 0.00, -0.00, -1.00, 358.2, 446.0)">n</text><text xml:space="preserve" font-family="MarkerFelt-Thin" font-size="29.5" fill="#FF2600" transform="matrix(1.00, 0.00, -0.00, -1.00, 372.7, 446.0)"> </text><text xml:space="preserve" font-family="MarkerFelt-Thin" font-size="29.5" fill="#FF2600" transform="matrix(1.00, 0.00, -0.00, -1.00, 380.1, 446.0)">t</text><text xml:space="preserve" font-family="MarkerFelt-Thin" font-size="29.5" fill="#FF2600" transform="matrix(1.00, 0.00, -0.00, -1.00, 391.9, 446.0)">o</text><text xml:space="preserve" font-family="MarkerFelt-Thin" font-size="29.5" fill="#FF2600" transform="matrix(1.00, 0.00, -0.00, -1.00, 404.0, 446.0)"> </text><text xml:space="preserve" font-family="MarkerFelt-Thin" font-size="29.5" fill="#FF2600" transform="matrix(1.00, 0.00, -0.00, -1.00, 411.4, 446.0)">J</text><text xml:space="preserve" font-family="MarkerFelt-Thin" font-size="29.5" fill="#FF2600" transform="matrix(1.00, 0.00, -0.00, -1.00, 424.9, 446.0)">a</text><text xml:space="preserve" font-family="MarkerFelt-Thin" font-size="29.5" fill="#FF2600" transform="matrix(1.00, 0.00, -0.00, -1.00, 439.1, 446.0)">v</text><text xml:space="preserve" font-family="MarkerFelt-Thin" font-size="29.5" fill="#FF2600" transform="matrix(1.00, 0.00, -0.00, -1.00, 453.7, 446.0)">a</text><g><clipPath id="clip-189"><path d="M 84.0 384.7 L 101.2 384.7 L 101.2 400.7 L 84.0 400.7 Z M 84.0 384.7 "></path></clipPath><g clip-path="url(#clip-189)"><path d="M 100.9 390.4 C 101.1 390.2 101.2 389.9 101.2 389.6 C 101.2 389.1 100.9 388.7 100.3 388.2 C 99.8 387.8 99.1 387.6 98.4 387.6 C 97.5 387.6 96.4 388.3 95.1 389.6 C 95.1 389.6 95.1 387.6 95.1 387.6 C 95.1 387.4 95.2 387.1 95.3 386.8 C 95.4 386.6 95.5 386.4 95.5 386.2 C 95.5 385.8 95.3 385.4 94.8 385.1 C 94.4 384.8 93.9 384.7 93.5 384.7 C 92.7 384.7 92.1 385.0 91.5 385.7 C 91.3 385.9 91.3 386.4 91.3 387.3 C 91.4 388.3 91.4 389.2 91.5 390.2 C 91.0 389.8 90.1 389.3 88.8 388.6 C 88.6 388.3 88.0 388.0 87.1 387.7 C 86.5 387.7 85.8 387.8 85.1 388.1 C 84.4 388.4 84.0 388.9 84.0 389.4 C 84.0 389.5 84.0 389.7 84.1 389.8 C 84.2 390.1 84.5 390.3 85.0 390.5 C 85.7 390.7 86.1 390.8 86.1 390.9 C 86.1 390.9 89.9 392.9 89.9 392.9 C 89.9 392.9 87.2 394.2 87.2 394.2 C 86.8 394.2 86.3 394.4 85.7 394.8 C 85.5 395.0 85.5 395.2 85.5 395.4 C 85.5 396.1 85.8 396.7 86.6 397.3 C 87.4 397.9 88.1 398.2 88.9 398.2 C 89.1 398.2 89.4 398.2 89.6 398.1 C 89.9 398.0 90.1 397.8 90.3 397.4 C 90.6 396.9 90.9 396.5 91.5 396.2 C 91.5 396.2 91.6 398.6 91.6 398.6 C 91.5 399.0 91.5 399.4 91.6 400.1 C 91.9 400.5 92.6 400.7 93.7 400.7 C 94.6 400.7 95.3 400.4 95.6 399.8 C 95.8 399.6 95.8 399.0 95.7 398.2 C 95.6 397.4 95.5 396.6 95.4 395.8 C 95.4 395.8 96.8 396.6 96.8 396.6 C 97.1 396.9 97.6 397.2 98.4 397.5 C 98.9 397.5 99.5 397.3 100.0 396.9 C 100.5 396.4 100.8 395.9 100.8 395.4 C 100.8 395.2 100.7 394.9 100.6 394.7 C 100.4 394.5 100.2 394.4 99.9 394.3 C 99.4 394.2 99.1 394.1 99.0 394.0 C 99.0 394.0 96.9 392.6 96.9 392.6 C 96.9 392.6 99.6 391.1 99.6 391.1 C 100.0 391.0 100.4 390.8 100.9 390.4 Z M 100.9 390.4 " fill="#3995D6"></path></g></g><text xml:space="preserve" font-family="MarkerFelt-Thin" font-size="29.5" fill="#858585" transform="matrix(1.00, 0.00, -0.00, -1.00, 113.0, 383.0)">U</text><text xml:space="preserve" font-family="MarkerFelt-Thin" font-size="29.5" fill="#858585" transform="matrix(1.00, 0.00, -0.00, -1.00, 128.9, 383.0)">s</text><text xml:space="preserve" font-family="MarkerFelt-Thin" font-size="29.5" fill="#858585" transform="matrix(1.00, 0.00, -0.00, -1.00, 140.9, 383.0)">e</text><text xml:space="preserve" font-family="MarkerFelt-Thin" font-size="29.5" fill="#858585" transform="matrix(1.00, 0.00, -0.00, -1.00, 153.9, 383.0)">r</text><text xml:space="preserve" font-family="MarkerFelt-Thin" font-size="29.5" fill="#858585" transform="matrix(1.00, 0.00, -0.00, -1.00, 165.1, 383.0)"> </text><text xml:space="preserve" font-family="MarkerFelt-Thin" font-size="29.5" fill="#858585" transform="matrix(1.00, 0.00, -0.00, -1.00, 172.5, 383.0)">I</text><text xml:space="preserve" font-family="MarkerFelt-Thin" font-size="29.5" fill="#858585" transform="matrix(1.00, 0.00, -0.00, -1.00, 180.5, 383.0)">n</text><text xml:space="preserve" font-family="MarkerFelt-Thin" font-size="29.5" fill="#858585" transform="matrix(1.00, 0.00, -0.00, -1.00, 196.7, 383.0)">t</text><text xml:space="preserve" font-family="MarkerFelt-Thin" font-size="29.5" fill="#858585" transform="matrix(1.00, 0.00, -0.00, -1.00, 208.0, 383.0)">e</text><text xml:space="preserve" font-family="MarkerFelt-Thin" font-size="29.5" fill="#858585" transform="matrix(1.00, 0.00, -0.00, -1.00, 221.0, 383.0)">r</text><text xml:space="preserve" font-family="MarkerFelt-Thin" font-size="29.5" fill="#858585" transform="matrix(1.00, 0.00, -0.00, -1.00, 233.5, 383.0)">f</text><text xml:space="preserve" font-family="MarkerFelt-Thin" font-size="29.5" fill="#858585" transform="matrix(1.00, 0.00, -0.00, -1.00, 246.0, 383.0)">a</text><text xml:space="preserve" font-family="MarkerFelt-Thin" font-size="29.5" fill="#858585" transform="matrix(1.00, 0.00, -0.00, -1.00, 260.3, 383.0)">c</text><text xml:space="preserve" font-family="MarkerFelt-Thin" font-size="29.5" fill="#858585" transform="matrix(1.00, 0.00, -0.00, -1.00, 272.6, 383.0)">e</text><g><clipPath id="clip-190"><path d="M 119.0 321.5 L 136.2 321.5 L 136.2 337.5 L 119.0 337.5 Z M 119.0 321.5 "></path></clipPath><g clip-path="url(#clip-190)"><path d="M 135.9 327.2 C 136.1 327.0 136.2 326.8 136.2 326.5 C 136.2 326.0 135.9 325.5 135.3 325.1 C 134.8 324.6 134.1 324.4 133.4 324.4 C 132.5 324.4 131.4 325.1 130.1 326.5 C 130.1 326.5 130.1 324.4 130.1 324.4 C 130.1 324.2 130.2 324.0 130.3 323.7 C 130.4 323.4 130.5 323.2 130.5 323.1 C 130.5 322.6 130.3 322.3 129.8 322.0 C 129.4 321.6 128.9 321.5 128.5 321.5 C 127.7 321.5 127.1 321.8 126.5 322.5 C 126.3 322.7 126.3 323.3 126.3 324.2 C 126.4 325.1 126.4 326.1 126.5 327.0 C 126.0 326.7 125.1 326.1 123.8 325.4 C 123.6 325.2 123.0 324.9 122.1 324.6 C 121.5 324.5 120.8 324.6 120.1 324.9 C 119.4 325.3 119.0 325.7 119.0 326.2 C 119.0 326.4 119.0 326.5 119.1 326.6 C 119.2 326.9 119.5 327.2 120.0 327.3 C 120.7 327.5 121.1 327.7 121.1 327.7 C 121.1 327.7 124.9 329.8 124.9 329.8 C 124.9 329.8 122.2 331.1 122.2 331.1 C 121.8 331.1 121.3 331.3 120.7 331.6 C 120.5 331.8 120.5 332.0 120.5 332.3 C 120.5 332.9 120.8 333.5 121.6 334.2 C 122.4 334.8 123.1 335.1 123.9 335.1 C 124.1 335.1 124.4 335.0 124.6 334.9 C 124.9 334.9 125.1 334.6 125.3 334.3 C 125.6 333.8 125.9 333.4 126.5 333.0 C 126.5 333.0 126.6 335.5 126.6 335.5 C 126.5 335.8 126.5 336.3 126.6 336.9 C 126.9 337.3 127.6 337.5 128.7 337.5 C 129.6 337.5 130.3 337.2 130.6 336.7 C 130.8 336.4 130.8 335.9 130.7 335.0 C 130.6 334.2 130.5 333.5 130.4 332.7 C 130.4 332.7 131.8 333.4 131.8 333.4 C 132.1 333.7 132.6 334.0 133.4 334.4 C 133.9 334.4 134.5 334.2 135.0 333.7 C 135.5 333.3 135.8 332.8 135.8 332.2 C 135.8 332.0 135.7 331.8 135.6 331.6 C 135.4 331.4 135.2 331.2 134.9 331.2 C 134.4 331.1 134.1 331.0 134.0 330.9 C 134.0 330.9 131.9 329.4 131.9 329.4 C 131.9 329.4 134.6 328.0 134.6 328.0 C 135.0 327.8 135.4 327.6 135.9 327.2 Z M 135.9 327.2 " fill="#3995D6"></path></g></g><text xml:space="preserve" font-family="MarkerFelt-Thin" font-size="29.5" fill="#858585" transform="matrix(1.00, 0.00, -0.00, -1.00, 148.0, 320.0)">N</text><text xml:space="preserve" font-family="MarkerFelt-Thin" font-size="29.5" fill="#858585" transform="matrix(1.00, 0.00, -0.00, -1.00, 165.7, 320.0)">e</text><text xml:space="preserve" font-family="MarkerFelt-Thin" font-size="29.5" fill="#858585" transform="matrix(1.00, 0.00, -0.00, -1.00, 179.4, 320.0)">t</text><text xml:space="preserve" font-family="MarkerFelt-Thin" font-size="29.5" fill="#858585" transform="matrix(1.00, 0.00, -0.00, -1.00, 191.7, 320.0)">b</text><text xml:space="preserve" font-family="MarkerFelt-Thin" font-size="29.5" fill="#858585" transform="matrix(1.00, 0.00, -0.00, -1.00, 205.5, 320.0)">e</text><text xml:space="preserve" font-family="MarkerFelt-Thin" font-size="29.5" fill="#858585" transform="matrix(1.00, 0.00, -0.00, -1.00, 219.2, 320.0)">a</text><text xml:space="preserve" font-family="MarkerFelt-Thin" font-size="29.5" fill="#858585" transform="matrix(1.00, 0.00, -0.00, -1.00, 233.9, 320.0)">n</text><text xml:space="preserve" font-family="MarkerFelt-Thin" font-size="29.5" fill="#858585" transform="matrix(1.00, 0.00, -0.00, -1.00, 249.5, 320.0)">s</text><text xml:space="preserve" font-family="MarkerFelt-Thin" font-size="29.5" fill="#858585" transform="matrix(1.00, 0.00, -0.00, -1.00, 260.5, 320.0)"> </text><text xml:space="preserve" font-family="MarkerFelt-Thin" font-size="29.5" fill="#858585" transform="matrix(1.00, 0.00, -0.00, -1.00, 267.9, 320.0)">P</text><text xml:space="preserve" font-family="MarkerFelt-Thin" font-size="29.5" fill="#858585" transform="matrix(1.00, 0.00, -0.00, -1.00, 282.7, 320.0)">l</text><text xml:space="preserve" font-family="MarkerFelt-Thin" font-size="29.5" fill="#858585" transform="matrix(1.00, 0.00, -0.00, -1.00, 290.0, 320.0)">a</text><text xml:space="preserve" font-family="MarkerFelt-Thin" font-size="29.5" fill="#858585" transform="matrix(1.00, 0.00, -0.00, -1.00, 304.4, 320.0)">t</text><text xml:space="preserve" font-family="MarkerFelt-Thin" font-size="29.5" fill="#858585" transform="matrix(1.00, 0.00, -0.00, -1.00, 317.1, 320.0)">f</text><text xml:space="preserve" font-family="MarkerFelt-Thin" font-size="29.5" fill="#858585" transform="matrix(1.00, 0.00, -0.00, -1.00, 329.3, 320.0)">o</text><text xml:space="preserve" font-family="MarkerFelt-Thin" font-size="29.5" fill="#858585" transform="matrix(1.00, 0.00, -0.00, -1.00, 342.5, 320.0)">r</text><text xml:space="preserve" font-family="MarkerFelt-Thin" font-size="29.5" fill="#858585" transform="matrix(1.00, 0.00, -0.00, -1.00, 355.2, 320.0)">m</text><text xml:space="preserve" font-family="MarkerFelt-Thin" font-size="29.5" fill="#858585" transform="matrix(1.00, 0.00, -0.00, -1.00, 376.5, 320.0)"> </text><g><clipPath id="clip-191"><path d="M 84.0 258.3 L 101.2 258.3 L 101.2 274.4 L 84.0 274.4 Z M 84.0 258.3 "></path></clipPath><g clip-path="url(#clip-191)"><path d="M 100.9 264.1 C 101.1 263.8 101.2 263.6 101.2 263.3 C 101.2 262.8 100.9 262.4 100.3 261.9 C 99.8 261.5 99.1 261.3 98.4 261.3 C 97.5 261.3 96.4 261.9 95.1 263.3 C 95.1 263.3 95.1 261.3 95.1 261.3 C 95.1 261.1 95.2 260.8 95.3 260.5 C 95.4 260.2 95.5 260.0 95.5 259.9 C 95.5 259.5 95.3 259.1 94.8 258.8 C 94.4 258.5 93.9 258.3 93.5 258.3 C 92.7 258.3 92.1 258.7 91.5 259.3 C 91.3 259.5 91.3 260.1 91.3 261.0 C 91.4 261.9 91.4 262.9 91.5 263.8 C 91.0 263.5 90.1 263.0 88.8 262.3 C 88.6 262.0 88.0 261.7 87.1 261.4 C 86.5 261.3 85.8 261.5 85.1 261.8 C 84.4 262.1 84.0 262.5 84.0 263.1 C 84.0 263.2 84.0 263.3 84.1 263.5 C 84.2 263.8 84.5 264.0 85.0 264.1 C 85.7 264.4 86.1 264.5 86.1 264.5 C 86.1 264.5 89.9 266.6 89.9 266.6 C 89.9 266.6 87.2 267.9 87.2 267.9 C 86.8 267.9 86.3 268.1 85.7 268.5 C 85.5 268.7 85.5 268.9 85.5 269.1 C 85.5 269.8 85.8 270.4 86.6 271.0 C 87.4 271.6 88.1 271.9 88.9 271.9 C 89.1 271.9 89.4 271.9 89.6 271.8 C 89.9 271.7 90.1 271.5 90.3 271.1 C 90.6 270.6 90.9 270.2 91.5 269.9 C 91.5 269.9 91.6 272.3 91.6 272.3 C 91.5 272.6 91.5 273.1 91.6 273.8 C 91.9 274.2 92.6 274.4 93.7 274.4 C 94.6 274.4 95.3 274.1 95.6 273.5 C 95.8 273.3 95.8 272.7 95.7 271.8 C 95.6 271.1 95.5 270.3 95.4 269.5 C 95.4 269.5 96.8 270.2 96.8 270.2 C 97.1 270.5 97.6 270.9 98.4 271.2 C 98.9 271.2 99.5 271.0 100.0 270.6 C 100.5 270.1 100.8 269.6 100.8 269.1 C 100.8 268.8 100.7 268.6 100.6 268.4 C 100.4 268.2 100.2 268.1 99.9 268.0 C 99.4 267.9 99.1 267.8 99.0 267.7 C 99.0 267.7 96.9 266.3 96.9 266.3 C 96.9 266.3 99.6 264.8 99.6 264.8 C 100.0 264.7 100.4 264.5 100.9 264.1 Z M 100.9 264.1 " fill="#3995D6"></path></g></g><text xml:space="preserve" font-family="MarkerFelt-Thin" font-size="29.5" fill="#858585" transform="matrix(1.00, 0.00, -0.00, -1.00, 113.0, 257.0)">S</text><text xml:space="preserve" font-family="MarkerFelt-Thin" font-size="29.5" fill="#858585" transform="matrix(1.00, 0.00, -0.00, -1.00, 126.6, 257.0)">t</text><text xml:space="preserve" font-family="MarkerFelt-Thin" font-size="29.5" fill="#858585" transform="matrix(1.00, 0.00, -0.00, -1.00, 138.8, 257.0)">a</text><text xml:space="preserve" font-family="MarkerFelt-Thin" font-size="29.5" fill="#858585" transform="matrix(1.00, 0.00, -0.00, -1.00, 153.2, 257.0)">t</text><text xml:space="preserve" font-family="MarkerFelt-Thin" font-size="29.5" fill="#858585" transform="matrix(1.00, 0.00, -0.00, -1.00, 164.5, 257.0)">e</text><text xml:space="preserve" font-family="MarkerFelt-Thin" font-size="29.5" fill="#858585" transform="matrix(1.00, 0.00, -0.00, -1.00, 177.2, 257.0)">:</text><text xml:space="preserve" font-family="MarkerFelt-Thin" font-size="29.5" fill="#858585" transform="matrix(1.00, 0.00, -0.00, -1.00, 184.0, 257.0)"> </text><text xml:space="preserve" font-family="MarkerFelt-Thin" font-size="29.5" fill="#858585" transform="matrix(1.00, 0.00, -0.00, -1.00, 191.3, 257.0)">J</text><text xml:space="preserve" font-family="MarkerFelt-Thin" font-size="29.5" fill="#858585" transform="matrix(1.00, 0.00, -0.00, -1.00, 204.8, 257.0)">a</text><text xml:space="preserve" font-family="MarkerFelt-Thin" font-size="29.5" fill="#858585" transform="matrix(1.00, 0.00, -0.00, -1.00, 219.1, 257.0)">v</text><text xml:space="preserve" font-family="MarkerFelt-Thin" font-size="29.5" fill="#858585" transform="matrix(1.00, 0.00, -0.00, -1.00, 233.6, 257.0)">a</text><text xml:space="preserve" font-family="MarkerFelt-Thin" font-size="29.5" fill="#858585" transform="matrix(1.00, 0.00, -0.00, -1.00, 247.2, 257.0)"> </text><text xml:space="preserve" font-family="MarkerFelt-Thin" font-size="29.5" fill="#858585" transform="matrix(1.00, 0.00, -0.00, -1.00, 254.5, 257.0)">b</text><text xml:space="preserve" font-family="MarkerFelt-Thin" font-size="29.5" fill="#858585" transform="matrix(1.00, 0.00, -0.00, -1.00, 268.3, 257.0)">e</text><text xml:space="preserve" font-family="MarkerFelt-Thin" font-size="29.5" fill="#858585" transform="matrix(1.00, 0.00, -0.00, -1.00, 282.0, 257.0)">a</text><text xml:space="preserve" font-family="MarkerFelt-Thin" font-size="29.5" fill="#858585" transform="matrix(1.00, 0.00, -0.00, -1.00, 296.8, 257.0)">n</text><text xml:space="preserve" font-family="MarkerFelt-Thin" font-size="29.5" fill="#858585" transform="matrix(1.00, 0.00, -0.00, -1.00, 312.4, 257.0)">s</text><g><clipPath id="clip-192"><path d="M 119.0 195.2 L 136.2 195.2 L 136.2 211.2 L 119.0 211.2 Z M 119.0 195.2 "></path></clipPath><g clip-path="url(#clip-192)"><path d="M 135.9 200.9 C 136.1 200.7 136.2 200.4 136.2 200.2 C 136.2 199.7 135.9 199.2 135.3 198.8 C 134.8 198.3 134.1 198.1 133.4 198.1 C 132.5 198.1 131.4 198.8 130.1 200.2 C 130.1 200.2 130.1 198.1 130.1 198.1 C 130.1 197.9 130.2 197.7 130.3 197.4 C 130.4 197.1 130.5 196.9 130.5 196.7 C 130.5 196.3 130.3 195.9 129.8 195.6 C 129.4 195.3 128.9 195.2 128.5 195.2 C 127.7 195.2 127.1 195.5 126.5 196.2 C 126.3 196.4 126.3 196.9 126.3 197.8 C 126.4 198.8 126.4 199.7 126.5 200.7 C 126.0 200.3 125.1 199.8 123.8 199.1 C 123.6 198.8 123.0 198.5 122.1 198.2 C 121.5 198.2 120.8 198.3 120.1 198.6 C 119.4 198.9 119.0 199.4 119.0 199.9 C 119.0 200.0 119.0 200.2 119.1 200.3 C 119.2 200.6 119.5 200.8 120.0 201.0 C 120.7 201.2 121.1 201.3 121.1 201.4 C 121.1 201.4 124.9 203.4 124.9 203.4 C 124.9 203.4 122.2 204.8 122.2 204.8 C 121.8 204.8 121.3 204.9 120.7 205.3 C 120.5 205.5 120.5 205.7 120.5 206.0 C 120.5 206.6 120.8 207.2 121.6 207.8 C 122.4 208.4 123.1 208.7 123.9 208.7 C 124.1 208.7 124.4 208.7 124.6 208.6 C 124.9 208.5 125.1 208.3 125.3 207.9 C 125.6 207.5 125.9 207.1 126.5 206.7 C 126.5 206.7 126.6 209.1 126.6 209.1 C 126.5 209.5 126.5 210.0 126.6 210.6 C 126.9 211.0 127.6 211.2 128.7 211.2 C 129.6 211.2 130.3 210.9 130.6 210.4 C 130.8 210.1 130.8 209.6 130.7 208.7 C 130.6 207.9 130.5 207.1 130.4 206.4 C 130.4 206.4 131.8 207.1 131.8 207.1 C 132.1 207.4 132.6 207.7 133.4 208.0 C 133.9 208.1 134.5 207.9 135.0 207.4 C 135.5 206.9 135.8 206.5 135.8 205.9 C 135.8 205.7 135.7 205.5 135.6 205.3 C 135.4 205.1 135.2 204.9 134.9 204.9 C 134.4 204.8 134.1 204.7 134.0 204.6 C 134.0 204.6 131.9 203.1 131.9 203.1 C 131.9 203.1 134.6 201.6 134.6 201.6 C 135.0 201.5 135.4 201.3 135.9 200.9 Z M 135.9 200.9 " fill="#3995D6"></path></g></g><text xml:space="preserve" font-family="MarkerFelt-Thin" font-size="29.5" fill="#858585" transform="matrix(1.00, 0.00, -0.00, -1.00, 148.0, 194.0)">g</text><text xml:space="preserve" font-family="MarkerFelt-Thin" font-size="29.5" fill="#858585" transform="matrix(1.00, 0.00, -0.00, -1.00, 161.3, 194.0)">e</text><text xml:space="preserve" font-family="MarkerFelt-Thin" font-size="29.5" fill="#858585" transform="matrix(1.00, 0.00, -0.00, -1.00, 175.0, 194.0)">t</text><text xml:space="preserve" font-family="MarkerFelt-Thin" font-size="29.5" fill="#858585" transform="matrix(1.00, 0.00, -0.00, -1.00, 188.1, 194.0)">t</text><text xml:space="preserve" font-family="MarkerFelt-Thin" font-size="29.5" fill="#858585" transform="matrix(1.00, 0.00, -0.00, -1.00, 199.4, 194.0)">e</text><text xml:space="preserve" font-family="MarkerFelt-Thin" font-size="29.5" fill="#858585" transform="matrix(1.00, 0.00, -0.00, -1.00, 212.4, 194.0)">r</text><text xml:space="preserve" font-family="MarkerFelt-Thin" font-size="29.5" fill="#858585" transform="matrix(1.00, 0.00, -0.00, -1.00, 223.6, 194.0)">s</text><text xml:space="preserve" font-family="MarkerFelt-Thin" font-size="29.5" fill="#858585" transform="matrix(1.00, 0.00, -0.00, -1.00, 235.8, 194.0)">/</text><text xml:space="preserve" font-family="MarkerFelt-Thin" font-size="29.5" fill="#858585" transform="matrix(1.00, 0.00, -0.00, -1.00, 246.9, 194.0)">s</text><text xml:space="preserve" font-family="MarkerFelt-Thin" font-size="29.5" fill="#858585" transform="matrix(1.00, 0.00, -0.00, -1.00, 258.8, 194.0)">e</text><text xml:space="preserve" font-family="MarkerFelt-Thin" font-size="29.5" fill="#858585" transform="matrix(1.00, 0.00, -0.00, -1.00, 272.5, 194.0)">t</text><text xml:space="preserve" font-family="MarkerFelt-Thin" font-size="29.5" fill="#858585" transform="matrix(1.00, 0.00, -0.00, -1.00, 285.7, 194.0)">t</text><text xml:space="preserve" font-family="MarkerFelt-Thin" font-size="29.5" fill="#858585" transform="matrix(1.00, 0.00, -0.00, -1.00, 296.9, 194.0)">e</text><text xml:space="preserve" font-family="MarkerFelt-Thin" font-size="29.5" fill="#858585" transform="matrix(1.00, 0.00, -0.00, -1.00, 309.9, 194.0)">r</text><text xml:space="preserve" font-family="MarkerFelt-Thin" font-size="29.5" fill="#858585" transform="matrix(1.00, 0.00, -0.00, -1.00, 321.1, 194.0)">s</text><g><clipPath id="clip-193"><path d="M 119.0 132.0 L 136.2 132.0 L 136.2 148.0 L 119.0 148.0 Z M 119.0 132.0 "></path></clipPath><g clip-path="url(#clip-193)"><path d="M 135.9 137.8 C 136.1 137.5 136.2 137.3 136.2 137.0 C 136.2 136.5 135.9 136.0 135.3 135.6 C 134.8 135.2 134.1 134.9 133.4 134.9 C 132.5 134.9 131.4 135.6 130.1 137.0 C 130.1 137.0 130.1 134.9 130.1 134.9 C 130.1 134.7 130.2 134.5 130.3 134.2 C 130.4 133.9 130.5 133.7 130.5 133.6 C 130.5 133.1 130.3 132.8 129.8 132.5 C 129.4 132.2 128.9 132.0 128.5 132.0 C 127.7 132.0 127.1 132.4 126.5 133.0 C 126.3 133.2 126.3 133.8 126.3 134.7 C 126.4 135.6 126.4 136.6 126.5 137.5 C 126.0 137.2 125.1 136.7 123.8 135.9 C 123.6 135.7 123.0 135.4 122.1 135.1 C 121.5 135.0 120.8 135.1 120.1 135.5 C 119.4 135.8 119.0 136.2 119.0 136.8 C 119.0 136.9 119.0 137.0 119.1 137.2 C 119.2 137.5 119.5 137.7 120.0 137.8 C 120.7 138.1 121.1 138.2 121.1 138.2 C 121.1 138.2 124.9 140.3 124.9 140.3 C 124.9 140.3 122.2 141.6 122.2 141.6 C 121.8 141.6 121.3 141.8 120.7 142.1 C 120.5 142.3 120.5 142.6 120.5 142.8 C 120.5 143.4 120.8 144.1 121.6 144.7 C 122.4 145.3 123.1 145.6 123.9 145.6 C 124.1 145.6 124.4 145.5 124.6 145.5 C 124.9 145.4 125.1 145.1 125.3 144.8 C 125.6 144.3 125.9 143.9 126.5 143.6 C 126.5 143.6 126.6 146.0 126.6 146.0 C 126.5 146.3 126.5 146.8 126.6 147.4 C 126.9 147.8 127.6 148.0 128.7 148.0 C 129.6 148.0 130.3 147.8 130.6 147.2 C 130.8 147.0 130.8 146.4 130.7 145.5 C 130.6 144.8 130.5 144.0 130.4 143.2 C 130.4 143.2 131.8 143.9 131.8 143.9 C 132.1 144.2 132.6 144.5 133.4 144.9 C 133.9 144.9 134.5 144.7 135.0 144.2 C 135.5 143.8 135.8 143.3 135.8 142.8 C 135.8 142.5 135.7 142.3 135.6 142.1 C 135.4 141.9 135.2 141.8 134.9 141.7 C 134.4 141.6 134.1 141.5 134.0 141.4 C 134.0 141.4 131.9 139.9 131.9 139.9 C 131.9 139.9 134.6 138.5 134.6 138.5 C 135.0 138.4 135.4 138.1 135.9 137.8 Z M 135.9 137.8 " fill="#3995D6"></path></g></g><text xml:space="preserve" font-family="MarkerFelt-Thin" font-size="29.5" fill="#858585" transform="matrix(1.00, 0.00, -0.00, -1.00, 148.0, 130.0)">E</text><text xml:space="preserve" font-family="MarkerFelt-Thin" font-size="29.5" fill="#858585" transform="matrix(1.00, 0.00, -0.00, -1.00, 159.9, 130.0)">v</text><text xml:space="preserve" font-family="MarkerFelt-Thin" font-size="29.5" fill="#858585" transform="matrix(1.00, 0.00, -0.00, -1.00, 173.5, 130.0)">e</text><text xml:space="preserve" font-family="MarkerFelt-Thin" font-size="29.5" fill="#858585" transform="matrix(1.00, 0.00, -0.00, -1.00, 186.6, 130.0)">n</text><text xml:space="preserve" font-family="MarkerFelt-Thin" font-size="29.5" fill="#858585" transform="matrix(1.00, 0.00, -0.00, -1.00, 202.8, 130.0)">t</text><text xml:space="preserve" font-family="MarkerFelt-Thin" font-size="29.5" fill="#858585" transform="matrix(1.00, 0.00, -0.00, -1.00, 213.4, 130.0)">L</text><text xml:space="preserve" font-family="MarkerFelt-Thin" font-size="29.5" fill="#858585" transform="matrix(1.00, 0.00, -0.00, -1.00, 226.9, 130.0)">i</text><text xml:space="preserve" font-family="MarkerFelt-Thin" font-size="29.5" fill="#858585" transform="matrix(1.00, 0.00, -0.00, -1.00, 233.8, 130.0)">s</text><text xml:space="preserve" font-family="MarkerFelt-Thin" font-size="29.5" fill="#858585" transform="matrix(1.00, 0.00, -0.00, -1.00, 246.6, 130.0)">t</text><text xml:space="preserve" font-family="MarkerFelt-Thin" font-size="29.5" fill="#858585" transform="matrix(1.00, 0.00, -0.00, -1.00, 257.9, 130.0)">e</text><text xml:space="preserve" font-family="MarkerFelt-Thin" font-size="29.5" fill="#858585" transform="matrix(1.00, 0.00, -0.00, -1.00, 271.0, 130.0)">n</text><text xml:space="preserve" font-family="MarkerFelt-Thin" font-size="29.5" fill="#858585" transform="matrix(1.00, 0.00, -0.00, -1.00, 286.2, 130.0)">e</text><text xml:space="preserve" font-family="MarkerFelt-Thin" font-size="29.5" fill="#858585" transform="matrix(1.00, 0.00, -0.00, -1.00, 299.2, 130.0)">r</text><text xml:space="preserve" font-family="MarkerFelt-Thin" font-size="29.5" fill="#858585" transform="matrix(1.00, 0.00, -0.00, -1.00, 310.4, 130.0)">s</text><g><clipPath id="clip-194"><path d="M 119.0 68.9 L 136.2 68.9 L 136.2 84.9 L 119.0 84.9 Z M 119.0 68.9 "></path></clipPath><g clip-path="url(#clip-194)"><path d="M 135.9 74.6 C 136.1 74.4 136.2 74.1 136.2 73.8 C 136.2 73.3 135.9 72.9 135.3 72.4 C 134.8 72.0 134.1 71.8 133.4 71.8 C 132.5 71.8 131.4 72.5 130.1 73.8 C 130.1 73.8 130.1 71.8 130.1 71.8 C 130.1 71.6 130.2 71.3 130.3 71.0 C 130.4 70.8 130.5 70.6 130.5 70.4 C 130.5 70.0 130.3 69.6 129.8 69.3 C 129.4 69.0 128.9 68.9 128.5 68.9 C 127.7 68.9 127.1 69.2 126.5 69.9 C 126.3 70.1 126.3 70.6 126.3 71.5 C 126.4 72.5 126.4 73.4 126.5 74.4 C 126.0 74.0 125.1 73.5 123.8 72.8 C 123.6 72.5 123.0 72.2 122.1 71.9 C 121.5 71.9 120.8 72.0 120.1 72.3 C 119.4 72.6 119.0 73.1 119.0 73.6 C 119.0 73.7 119.0 73.9 119.1 74.0 C 119.2 74.3 119.5 74.5 120.0 74.7 C 120.7 74.9 121.1 75.0 121.1 75.1 C 121.1 75.1 124.9 77.1 124.9 77.1 C 124.9 77.1 122.2 78.4 122.2 78.4 C 121.8 78.4 121.3 78.6 120.7 79.0 C 120.5 79.2 120.5 79.4 120.5 79.6 C 120.5 80.3 120.8 80.9 121.6 81.5 C 122.4 82.1 123.1 82.4 123.9 82.4 C 124.1 82.4 124.4 82.4 124.6 82.3 C 124.9 82.2 125.1 82.0 125.3 81.6 C 125.6 81.1 125.9 80.7 126.5 80.4 C 126.5 80.4 126.6 82.8 126.6 82.8 C 126.5 83.2 126.5 83.6 126.6 84.3 C 126.9 84.7 127.6 84.9 128.7 84.9 C 129.6 84.9 130.3 84.6 130.6 84.0 C 130.8 83.8 130.8 83.2 130.7 82.4 C 130.6 81.6 130.5 80.8 130.4 80.0 C 130.4 80.0 131.8 80.8 131.8 80.8 C 132.1 81.1 132.6 81.4 133.4 81.7 C 133.9 81.7 134.5 81.5 135.0 81.1 C 135.5 80.6 135.8 80.1 135.8 79.6 C 135.8 79.4 135.7 79.1 135.6 78.9 C 135.4 78.7 135.2 78.6 134.9 78.5 C 134.4 78.4 134.1 78.3 134.0 78.2 C 134.0 78.2 131.9 76.8 131.9 76.8 C 131.9 76.8 134.6 75.3 134.6 75.3 C 135.0 75.2 135.4 75.0 135.9 74.6 Z M 135.9 74.6 " fill="#3995D6"></path></g></g><text xml:space="preserve" font-family="MarkerFelt-Thin" font-size="29.5" fill="#858585" transform="matrix(1.00, 0.00, -0.00, -1.00, 148.0, 67.0)">P</text><text xml:space="preserve" font-family="MarkerFelt-Thin" font-size="29.5" fill="#858585" transform="matrix(1.00, 0.00, -0.00, -1.00, 161.3, 67.0)">r</text><text xml:space="preserve" font-family="MarkerFelt-Thin" font-size="29.5" fill="#858585" transform="matrix(1.00, 0.00, -0.00, -1.00, 173.3, 67.0)">o</text><text xml:space="preserve" font-family="MarkerFelt-Thin" font-size="29.5" fill="#858585" transform="matrix(1.00, 0.00, -0.00, -1.00, 186.3, 67.0)">p</text><text xml:space="preserve" font-family="MarkerFelt-Thin" font-size="29.5" fill="#858585" transform="matrix(1.00, 0.00, -0.00, -1.00, 200.1, 67.0)">e</text><text xml:space="preserve" font-family="MarkerFelt-Thin" font-size="29.5" fill="#858585" transform="matrix(1.00, 0.00, -0.00, -1.00, 213.1, 67.0)">r</text><text xml:space="preserve" font-family="MarkerFelt-Thin" font-size="29.5" fill="#858585" transform="matrix(1.00, 0.00, -0.00, -1.00, 225.2, 67.0)">t</text><text xml:space="preserve" font-family="MarkerFelt-Thin" font-size="29.5" fill="#858585" transform="matrix(1.00, 0.00, -0.00, -1.00, 238.6, 67.0)">y</text><text xml:space="preserve" font-family="MarkerFelt-Thin" font-size="29.5" fill="#858585" transform="matrix(1.00, 0.00, -0.00, -1.00, 252.5, 67.0)">C</text><text xml:space="preserve" font-family="MarkerFelt-Thin" font-size="29.5" fill="#858585" transform="matrix(1.00, 0.00, -0.00, -1.00, 266.8, 67.0)">h</text><text xml:space="preserve" font-family="MarkerFelt-Thin" font-size="29.5" fill="#858585" transform="matrix(1.00, 0.00, -0.00, -1.00, 282.4, 67.0)">a</text><text xml:space="preserve" font-family="MarkerFelt-Thin" font-size="29.5" fill="#858585" transform="matrix(1.00, 0.00, -0.00, -1.00, 297.1, 67.0)">n</text><text xml:space="preserve" font-family="MarkerFelt-Thin" font-size="29.5" fill="#858585" transform="matrix(1.00, 0.00, -0.00, -1.00, 312.5, 67.0)">g</text><text xml:space="preserve" font-family="MarkerFelt-Thin" font-size="29.5" fill="#858585" transform="matrix(1.00, 0.00, -0.00, -1.00, 325.7, 67.0)">e</text><text xml:space="preserve" font-family="MarkerFelt-Thin" font-size="29.5" fill="#858585" transform="matrix(1.00, 0.00, -0.00, -1.00, 337.0, 67.0)">S</text><text xml:space="preserve" font-family="MarkerFelt-Thin" font-size="29.5" fill="#858585" transform="matrix(1.00, 0.00, -0.00, -1.00, 352.6, 67.0)">u</text><text xml:space="preserve" font-family="MarkerFelt-Thin" font-size="29.5" fill="#858585" transform="matrix(1.00, 0.00, -0.00, -1.00, 365.8, 67.0)">p</text><text xml:space="preserve" font-family="MarkerFelt-Thin" font-size="29.5" fill="#858585" transform="matrix(1.00, 0.00, -0.00, -1.00, 378.5, 67.0)">p</text><text xml:space="preserve" font-family="MarkerFelt-Thin" font-size="29.5" fill="#858585" transform="matrix(1.00, 0.00, -0.00, -1.00, 392.6, 67.0)">o</text><text xml:space="preserve" font-family="MarkerFelt-Thin" font-size="29.5" fill="#858585" transform="matrix(1.00, 0.00, -0.00, -1.00, 405.8, 67.0)">r</text><text xml:space="preserve" font-family="MarkerFelt-Thin" font-size="29.5" fill="#858585" transform="matrix(1.00, 0.00, -0.00, -1.00, 417.9, 67.0)">t</text><g><clipPath id="clip-195"><path d="M 518.0 442.6 L 539.0 442.6 L 539.0 462.1 L 518.0 462.1 Z M 518.0 442.6 "></path></clipPath><g clip-path="url(#clip-195)"><path d="M 538.7 449.6 C 538.9 449.3 539.0 449.0 539.0 448.7 C 539.0 448.0 538.6 447.5 537.9 446.9 C 537.2 446.4 536.4 446.1 535.6 446.1 C 534.4 446.1 533.1 447.0 531.6 448.7 C 531.6 448.7 531.6 446.1 531.6 446.1 C 531.6 445.9 531.6 445.6 531.8 445.3 C 531.9 444.9 532.0 444.6 532.0 444.5 C 532.0 444.0 531.7 443.5 531.2 443.1 C 530.7 442.8 530.1 442.6 529.6 442.6 C 528.6 442.6 527.8 443.0 527.1 443.8 C 526.9 444.1 526.9 444.7 526.9 445.8 C 527.0 447.0 527.0 448.1 527.1 449.3 C 526.5 448.9 525.4 448.2 523.8 447.4 C 523.6 447.0 522.9 446.7 521.8 446.3 C 521.0 446.2 520.2 446.4 519.3 446.8 C 518.4 447.2 518.0 447.7 518.0 448.4 C 518.0 448.5 518.0 448.7 518.1 448.8 C 518.3 449.2 518.6 449.5 519.2 449.6 C 520.0 449.9 520.5 450.1 520.6 450.1 C 520.6 450.1 525.2 452.7 525.2 452.7 C 525.2 452.7 521.9 454.3 521.9 454.3 C 521.5 454.3 520.8 454.5 520.0 454.9 C 519.9 455.2 519.8 455.4 519.8 455.7 C 519.8 456.5 520.2 457.3 521.2 458.0 C 522.1 458.8 523.0 459.1 524.0 459.1 C 524.3 459.1 524.6 459.1 524.9 459.0 C 525.2 458.9 525.5 458.6 525.7 458.1 C 526.0 457.6 526.5 457.1 527.1 456.7 C 527.1 456.7 527.2 459.6 527.2 459.6 C 527.1 460.0 527.1 460.6 527.2 461.4 C 527.6 461.9 528.5 462.1 529.8 462.1 C 531.0 462.1 531.8 461.8 532.2 461.1 C 532.3 460.8 532.4 460.1 532.2 459.1 C 532.2 458.1 532.1 457.2 531.9 456.2 C 531.9 456.2 533.7 457.1 533.7 457.1 C 534.0 457.5 534.6 457.8 535.6 458.3 C 536.2 458.3 536.9 458.0 537.5 457.5 C 538.1 456.9 538.5 456.3 538.5 455.7 C 538.5 455.4 538.4 455.1 538.2 454.9 C 538.1 454.6 537.8 454.5 537.4 454.4 C 536.8 454.3 536.5 454.1 536.3 454.0 C 536.3 454.0 533.8 452.2 533.8 452.2 C 533.8 452.2 537.0 450.4 537.0 450.4 C 537.5 450.3 538.0 450.0 538.7 449.6 Z M 538.7 449.6 " fill="#3995D6"></path></g></g><text xml:space="preserve" font-family="MarkerFelt-Thin" font-size="36.0" fill="#858585" transform="matrix(1.00, 0.00, -0.00, -1.00, 553.0, 441.0)">U</text><text xml:space="preserve" font-family="MarkerFelt-Thin" font-size="36.0" fill="#858585" transform="matrix(1.00, 0.00, -0.00, -1.00, 572.4, 441.0)">s</text><text xml:space="preserve" font-family="MarkerFelt-Thin" font-size="36.0" fill="#858585" transform="matrix(1.00, 0.00, -0.00, -1.00, 587.0, 441.0)">e</text><text xml:space="preserve" font-family="MarkerFelt-Thin" font-size="36.0" fill="#858585" transform="matrix(1.00, 0.00, -0.00, -1.00, 602.9, 441.0)">r</text><text xml:space="preserve" font-family="MarkerFelt-Thin" font-size="36.0" fill="#858585" transform="matrix(1.00, 0.00, -0.00, -1.00, 616.5, 441.0)"> </text><text xml:space="preserve" font-family="MarkerFelt-Thin" font-size="36.0" fill="#858585" transform="matrix(1.00, 0.00, -0.00, -1.00, 625.5, 441.0)">I</text><text xml:space="preserve" font-family="MarkerFelt-Thin" font-size="36.0" fill="#858585" transform="matrix(1.00, 0.00, -0.00, -1.00, 635.4, 441.0)">n</text><text xml:space="preserve" font-family="MarkerFelt-Thin" font-size="36.0" fill="#858585" transform="matrix(1.00, 0.00, -0.00, -1.00, 655.1, 441.0)">t</text><text xml:space="preserve" font-family="MarkerFelt-Thin" font-size="36.0" fill="#858585" transform="matrix(1.00, 0.00, -0.00, -1.00, 668.8, 441.0)">e</text><text xml:space="preserve" font-family="MarkerFelt-Thin" font-size="36.0" fill="#858585" transform="matrix(1.00, 0.00, -0.00, -1.00, 684.7, 441.0)">r</text><text xml:space="preserve" font-family="MarkerFelt-Thin" font-size="36.0" fill="#858585" transform="matrix(1.00, 0.00, -0.00, -1.00, 699.9, 441.0)">f</text><text xml:space="preserve" font-family="MarkerFelt-Thin" font-size="36.0" fill="#858585" transform="matrix(1.00, 0.00, -0.00, -1.00, 715.2, 441.0)">a</text><text xml:space="preserve" font-family="MarkerFelt-Thin" font-size="36.0" fill="#858585" transform="matrix(1.00, 0.00, -0.00, -1.00, 732.7, 441.0)">c</text><text xml:space="preserve" font-family="MarkerFelt-Thin" font-size="36.0" fill="#858585" transform="matrix(1.00, 0.00, -0.00, -1.00, 747.7, 441.0)">e</text><g><clipPath id="clip-196"><path d="M 553.0 365.6 L 574.0 365.6 L 574.0 385.1 L 553.0 385.1 Z M 553.0 365.6 "></path></clipPath><g clip-path="url(#clip-196)"><path d="M 573.7 372.6 C 573.9 372.3 574.0 372.0 574.0 371.7 C 574.0 371.0 573.6 370.5 572.9 369.9 C 572.2 369.4 571.4 369.1 570.6 369.1 C 569.4 369.1 568.1 370.0 566.6 371.7 C 566.6 371.7 566.6 369.1 566.6 369.1 C 566.6 368.9 566.6 368.6 566.8 368.3 C 566.9 367.9 567.0 367.6 567.0 367.5 C 567.0 367.0 566.7 366.5 566.2 366.1 C 565.7 365.8 565.1 365.6 564.6 365.6 C 563.6 365.6 562.8 366.0 562.1 366.8 C 561.9 367.1 561.9 367.7 561.9 368.8 C 562.0 370.0 562.0 371.1 562.1 372.3 C 561.5 371.9 560.4 371.2 558.8 370.4 C 558.6 370.0 557.9 369.7 556.8 369.3 C 556.0 369.2 555.2 369.4 554.3 369.8 C 553.4 370.2 553.0 370.7 553.0 371.4 C 553.0 371.5 553.0 371.7 553.1 371.8 C 553.3 372.2 553.6 372.5 554.2 372.6 C 555.0 372.9 555.5 373.1 555.6 373.1 C 555.6 373.1 560.2 375.7 560.2 375.7 C 560.2 375.7 556.9 377.3 556.9 377.3 C 556.5 377.3 555.8 377.5 555.0 377.9 C 554.9 378.2 554.8 378.4 554.8 378.7 C 554.8 379.5 555.2 380.3 556.2 381.0 C 557.1 381.8 558.0 382.1 559.0 382.1 C 559.3 382.1 559.6 382.1 559.9 382.0 C 560.2 381.9 560.5 381.6 560.7 381.1 C 561.0 380.6 561.5 380.1 562.1 379.7 C 562.1 379.7 562.2 382.6 562.2 382.6 C 562.1 383.0 562.1 383.6 562.2 384.4 C 562.6 384.9 563.5 385.1 564.8 385.1 C 566.0 385.1 566.8 384.8 567.2 384.1 C 567.3 383.8 567.4 383.1 567.2 382.1 C 567.2 381.1 567.1 380.2 566.9 379.2 C 566.9 379.2 568.7 380.1 568.7 380.1 C 569.0 380.5 569.6 380.8 570.6 381.3 C 571.2 381.3 571.9 381.0 572.5 380.5 C 573.1 379.9 573.5 379.3 573.5 378.7 C 573.5 378.4 573.4 378.1 573.2 377.9 C 573.1 377.6 572.8 377.5 572.4 377.4 C 571.8 377.3 571.5 377.1 571.3 377.0 C 571.3 377.0 568.8 375.2 568.8 375.2 C 568.8 375.2 572.0 373.4 572.0 373.4 C 572.5 373.3 573.0 373.0 573.7 372.6 Z M 573.7 372.6 " fill="#3995D6"></path></g></g><text xml:space="preserve" font-family="MarkerFelt-Thin" font-size="36.0" fill="#858585" transform="matrix(1.00, 0.00, -0.00, -1.00, 588.0, 364.0)">N</text><text xml:space="preserve" font-family="MarkerFelt-Thin" font-size="36.0" fill="#858585" transform="matrix(1.00, 0.00, -0.00, -1.00, 609.6, 364.0)">e</text><text xml:space="preserve" font-family="MarkerFelt-Thin" font-size="36.0" fill="#858585" transform="matrix(1.00, 0.00, -0.00, -1.00, 626.3, 364.0)">t</text><text xml:space="preserve" font-family="MarkerFelt-Thin" font-size="36.0" fill="#858585" transform="matrix(1.00, 0.00, -0.00, -1.00, 641.3, 364.0)">b</text><text xml:space="preserve" font-family="MarkerFelt-Thin" font-size="36.0" fill="#858585" transform="matrix(1.00, 0.00, -0.00, -1.00, 658.1, 364.0)">e</text><text xml:space="preserve" font-family="MarkerFelt-Thin" font-size="36.0" fill="#858585" transform="matrix(1.00, 0.00, -0.00, -1.00, 674.8, 364.0)">a</text><text xml:space="preserve" font-family="MarkerFelt-Thin" font-size="36.0" fill="#858585" transform="matrix(1.00, 0.00, -0.00, -1.00, 692.8, 364.0)">n</text><text xml:space="preserve" font-family="MarkerFelt-Thin" font-size="36.0" fill="#858585" transform="matrix(1.00, 0.00, -0.00, -1.00, 711.8, 364.0)">s</text><text xml:space="preserve" font-family="MarkerFelt-Thin" font-size="36.0" fill="#858585" transform="matrix(1.00, 0.00, -0.00, -1.00, 725.2, 364.0)"> </text><text xml:space="preserve" font-family="MarkerFelt-Thin" font-size="36.0" fill="#858585" transform="matrix(1.00, 0.00, -0.00, -1.00, 734.2, 364.0)">P</text><text xml:space="preserve" font-family="MarkerFelt-Thin" font-size="36.0" fill="#858585" transform="matrix(1.00, 0.00, -0.00, -1.00, 752.3, 364.0)">l</text><text xml:space="preserve" font-family="MarkerFelt-Thin" font-size="36.0" fill="#858585" transform="matrix(1.00, 0.00, -0.00, -1.00, 761.2, 364.0)">a</text><text xml:space="preserve" font-family="MarkerFelt-Thin" font-size="36.0" fill="#858585" transform="matrix(1.00, 0.00, -0.00, -1.00, 778.8, 364.0)">t</text><text xml:space="preserve" font-family="MarkerFelt-Thin" font-size="36.0" fill="#858585" transform="matrix(1.00, 0.00, -0.00, -1.00, 794.2, 364.0)">f</text><text xml:space="preserve" font-family="MarkerFelt-Thin" font-size="36.0" fill="#858585" transform="matrix(1.00, 0.00, -0.00, -1.00, 809.0, 364.0)">o</text><text xml:space="preserve" font-family="MarkerFelt-Thin" font-size="36.0" fill="#858585" transform="matrix(1.00, 0.00, -0.00, -1.00, 825.2, 364.0)">r</text><text xml:space="preserve" font-family="MarkerFelt-Thin" font-size="36.0" fill="#858585" transform="matrix(1.00, 0.00, -0.00, -1.00, 840.7, 364.0)">m</text><g><clipPath id="clip-197"><path d="M 518.0 288.6 L 539.0 288.6 L 539.0 308.1 L 518.0 308.1 Z M 518.0 288.6 "></path></clipPath><g clip-path="url(#clip-197)"><path d="M 538.7 295.6 C 538.9 295.3 539.0 295.0 539.0 294.7 C 539.0 294.0 538.6 293.5 537.9 292.9 C 537.2 292.4 536.4 292.1 535.6 292.1 C 534.4 292.1 533.1 293.0 531.6 294.7 C 531.6 294.7 531.6 292.1 531.6 292.1 C 531.6 291.9 531.6 291.6 531.8 291.3 C 531.9 290.9 532.0 290.6 532.0 290.5 C 532.0 290.0 531.7 289.5 531.2 289.1 C 530.7 288.8 530.1 288.6 529.6 288.6 C 528.6 288.6 527.8 289.0 527.1 289.8 C 526.9 290.1 526.9 290.7 526.9 291.8 C 527.0 293.0 527.0 294.1 527.1 295.3 C 526.5 294.9 525.4 294.2 523.8 293.4 C 523.6 293.0 522.9 292.7 521.8 292.3 C 521.0 292.2 520.2 292.4 519.3 292.8 C 518.4 293.2 518.0 293.7 518.0 294.4 C 518.0 294.5 518.0 294.7 518.1 294.8 C 518.3 295.2 518.6 295.5 519.2 295.6 C 520.0 295.9 520.5 296.1 520.6 296.1 C 520.6 296.1 525.2 298.7 525.2 298.7 C 525.2 298.7 521.9 300.3 521.9 300.3 C 521.5 300.3 520.8 300.5 520.0 300.9 C 519.9 301.2 519.8 301.4 519.8 301.7 C 519.8 302.5 520.2 303.3 521.2 304.0 C 522.1 304.8 523.0 305.1 524.0 305.1 C 524.3 305.1 524.6 305.1 524.9 305.0 C 525.2 304.9 525.5 304.6 525.7 304.1 C 526.0 303.6 526.5 303.1 527.1 302.7 C 527.1 302.7 527.2 305.6 527.2 305.6 C 527.1 306.0 527.1 306.6 527.2 307.4 C 527.6 307.9 528.5 308.1 529.8 308.1 C 531.0 308.1 531.8 307.8 532.2 307.1 C 532.3 306.8 532.4 306.1 532.2 305.1 C 532.2 304.1 532.1 303.2 531.9 302.2 C 531.9 302.2 533.7 303.1 533.7 303.1 C 534.0 303.5 534.6 303.8 535.6 304.3 C 536.2 304.3 536.9 304.0 537.5 303.5 C 538.1 302.9 538.5 302.3 538.5 301.7 C 538.5 301.4 538.4 301.1 538.2 300.9 C 538.1 300.6 537.8 300.5 537.4 300.4 C 536.8 300.3 536.5 300.1 536.3 300.0 C 536.3 300.0 533.8 298.2 533.8 298.2 C 533.8 298.2 537.0 296.4 537.0 296.4 C 537.5 296.3 538.0 296.0 538.7 295.6 Z M 538.7 295.6 " fill="#3995D6"></path></g></g><text xml:space="preserve" font-family="MarkerFelt-Thin" font-size="36.0" fill="#858585" transform="matrix(1.00, 0.00, -0.00, -1.00, 553.0, 287.0)">S</text><text xml:space="preserve" font-family="MarkerFelt-Thin" font-size="36.0" fill="#858585" transform="matrix(1.00, 0.00, -0.00, -1.00, 569.6, 287.0)">t</text><text xml:space="preserve" font-family="MarkerFelt-Thin" font-size="36.0" fill="#858585" transform="matrix(1.00, 0.00, -0.00, -1.00, 584.4, 287.0)">a</text><text xml:space="preserve" font-family="MarkerFelt-Thin" font-size="36.0" fill="#858585" transform="matrix(1.00, 0.00, -0.00, -1.00, 602.0, 287.0)">t</text><text xml:space="preserve" font-family="MarkerFelt-Thin" font-size="36.0" fill="#858585" transform="matrix(1.00, 0.00, -0.00, -1.00, 615.7, 287.0)">e</text><text xml:space="preserve" font-family="MarkerFelt-Thin" font-size="36.0" fill="#858585" transform="matrix(1.00, 0.00, -0.00, -1.00, 631.3, 287.0)">:</text><text xml:space="preserve" font-family="MarkerFelt-Thin" font-size="36.0" fill="#858585" transform="matrix(1.00, 0.00, -0.00, -1.00, 639.5, 287.0)"> </text><text xml:space="preserve" font-family="MarkerFelt-Thin" font-size="36.0" fill="#858585" transform="matrix(1.00, 0.00, -0.00, -1.00, 648.5, 287.0)">C</text><text xml:space="preserve" font-family="MarkerFelt-Thin" font-size="36.0" fill="#858585" transform="matrix(1.00, 0.00, -0.00, -1.00, 666.3, 287.0)">l</text><text xml:space="preserve" font-family="MarkerFelt-Thin" font-size="36.0" fill="#858585" transform="matrix(1.00, 0.00, -0.00, -1.00, 674.9, 287.0)">o</text><text xml:space="preserve" font-family="MarkerFelt-Thin" font-size="36.0" fill="#858585" transform="matrix(1.00, 0.00, -0.00, -1.00, 690.9, 287.0)">j</text><text xml:space="preserve" font-family="MarkerFelt-Thin" font-size="36.0" fill="#858585" transform="matrix(1.00, 0.00, -0.00, -1.00, 699.5, 287.0)">u</text><text xml:space="preserve" font-family="MarkerFelt-Thin" font-size="36.0" fill="#858585" transform="matrix(1.00, 0.00, -0.00, -1.00, 715.9, 287.0)">r</text><text xml:space="preserve" font-family="MarkerFelt-Thin" font-size="36.0" fill="#858585" transform="matrix(1.00, 0.00, -0.00, -1.00, 729.6, 287.0)">e</text><text xml:space="preserve" font-family="MarkerFelt-Thin" font-size="36.0" fill="#858585" transform="matrix(1.00, 0.00, -0.00, -1.00, 743.3, 287.0)"> </text><text xml:space="preserve" font-family="MarkerFelt-Thin" font-size="36.0" fill="#858585" transform="matrix(1.00, 0.00, -0.00, -1.00, 752.3, 287.0)">A</text><text xml:space="preserve" font-family="MarkerFelt-Thin" font-size="36.0" fill="#858585" transform="matrix(1.00, 0.00, -0.00, -1.00, 772.5, 287.0)">t</text><text xml:space="preserve" font-family="MarkerFelt-Thin" font-size="36.0" fill="#858585" transform="matrix(1.00, 0.00, -0.00, -1.00, 787.0, 287.0)">o</text><text xml:space="preserve" font-family="MarkerFelt-Thin" font-size="36.0" fill="#858585" transform="matrix(1.00, 0.00, -0.00, -1.00, 802.6, 287.0)">m</text><g><clipPath id="clip-198"><path d="M 553.0 211.6 L 574.0 211.6 L 574.0 231.1 L 553.0 231.1 Z M 553.0 211.6 "></path></clipPath><g clip-path="url(#clip-198)"><path d="M 573.7 218.6 C 573.9 218.3 574.0 218.0 574.0 217.7 C 574.0 217.0 573.6 216.5 572.9 215.9 C 572.2 215.4 571.4 215.1 570.6 215.1 C 569.4 215.1 568.1 216.0 566.6 217.7 C 566.6 217.7 566.6 215.1 566.6 215.1 C 566.6 214.9 566.6 214.6 566.8 214.3 C 566.9 213.9 567.0 213.6 567.0 213.5 C 567.0 213.0 566.7 212.5 566.2 212.1 C 565.7 211.8 565.1 211.6 564.6 211.6 C 563.6 211.6 562.8 212.0 562.1 212.8 C 561.9 213.1 561.9 213.7 561.9 214.8 C 562.0 216.0 562.0 217.1 562.1 218.3 C 561.5 217.9 560.4 217.2 558.8 216.4 C 558.6 216.0 557.9 215.7 556.8 215.3 C 556.0 215.2 555.2 215.4 554.3 215.8 C 553.4 216.2 553.0 216.7 553.0 217.4 C 553.0 217.5 553.0 217.7 553.1 217.8 C 553.3 218.2 553.6 218.5 554.2 218.6 C 555.0 218.9 555.5 219.1 555.6 219.1 C 555.6 219.1 560.2 221.7 560.2 221.7 C 560.2 221.7 556.9 223.3 556.9 223.3 C 556.5 223.3 555.8 223.5 555.0 223.9 C 554.9 224.2 554.8 224.4 554.8 224.7 C 554.8 225.5 555.2 226.3 556.2 227.0 C 557.1 227.8 558.0 228.1 559.0 228.1 C 559.3 228.1 559.6 228.1 559.9 228.0 C 560.2 227.9 560.5 227.6 560.7 227.1 C 561.0 226.6 561.5 226.1 562.1 225.7 C 562.1 225.7 562.2 228.6 562.2 228.6 C 562.1 229.0 562.1 229.6 562.2 230.4 C 562.6 230.9 563.5 231.1 564.8 231.1 C 566.0 231.1 566.8 230.8 567.2 230.1 C 567.3 229.8 567.4 229.1 567.2 228.1 C 567.2 227.1 567.1 226.2 566.9 225.2 C 566.9 225.2 568.7 226.1 568.7 226.1 C 569.0 226.5 569.6 226.8 570.6 227.3 C 571.2 227.3 571.9 227.0 572.5 226.5 C 573.1 225.9 573.5 225.3 573.5 224.7 C 573.5 224.4 573.4 224.1 573.2 223.9 C 573.1 223.6 572.8 223.5 572.4 223.4 C 571.8 223.3 571.5 223.1 571.3 223.0 C 571.3 223.0 568.8 221.2 568.8 221.2 C 568.8 221.2 572.0 219.4 572.0 219.4 C 572.5 219.3 573.0 219.0 573.7 218.6 Z M 573.7 218.6 " fill="#3995D6"></path></g></g><text xml:space="preserve" font-family="MarkerFelt-Thin" font-size="36.0" fill="#858585" transform="matrix(1.00, 0.00, -0.00, -1.00, 588.0, 210.0)">S</text><text xml:space="preserve" font-family="MarkerFelt-Thin" font-size="36.0" fill="#858585" transform="matrix(1.00, 0.00, -0.00, -1.00, 606.8, 210.0)">e</text><text xml:space="preserve" font-family="MarkerFelt-Thin" font-size="36.0" fill="#858585" transform="matrix(1.00, 0.00, -0.00, -1.00, 622.5, 210.0)">p</text><text xml:space="preserve" font-family="MarkerFelt-Thin" font-size="36.0" fill="#858585" transform="matrix(1.00, 0.00, -0.00, -1.00, 639.6, 210.0)">a</text><text xml:space="preserve" font-family="MarkerFelt-Thin" font-size="36.0" fill="#858585" transform="matrix(1.00, 0.00, -0.00, -1.00, 657.6, 210.0)">r</text><text xml:space="preserve" font-family="MarkerFelt-Thin" font-size="36.0" fill="#858585" transform="matrix(1.00, 0.00, -0.00, -1.00, 672.3, 210.0)">a</text><text xml:space="preserve" font-family="MarkerFelt-Thin" font-size="36.0" fill="#858585" transform="matrix(1.00, 0.00, -0.00, -1.00, 689.9, 210.0)">t</text><text xml:space="preserve" font-family="MarkerFelt-Thin" font-size="36.0" fill="#858585" transform="matrix(1.00, 0.00, -0.00, -1.00, 703.6, 210.0)">e</text><text xml:space="preserve" font-family="MarkerFelt-Thin" font-size="36.0" fill="#858585" transform="matrix(1.00, 0.00, -0.00, -1.00, 720.0, 210.0)">s</text><text xml:space="preserve" font-family="MarkerFelt-Thin" font-size="36.0" fill="#858585" transform="matrix(1.00, 0.00, -0.00, -1.00, 733.4, 210.0)"> </text><text xml:space="preserve" font-family="MarkerFelt-Thin" font-size="36.0" fill="#858585" transform="matrix(1.00, 0.00, -0.00, -1.00, 742.4, 210.0)">c</text><text xml:space="preserve" font-family="MarkerFelt-Thin" font-size="36.0" fill="#858585" transform="matrix(1.00, 0.00, -0.00, -1.00, 757.7, 210.0)">o</text><text xml:space="preserve" font-family="MarkerFelt-Thin" font-size="36.0" fill="#858585" transform="matrix(1.00, 0.00, -0.00, -1.00, 774.0, 210.0)">n</text><text xml:space="preserve" font-family="MarkerFelt-Thin" font-size="36.0" fill="#858585" transform="matrix(1.00, 0.00, -0.00, -1.00, 792.9, 210.0)">c</text><text xml:space="preserve" font-family="MarkerFelt-Thin" font-size="36.0" fill="#858585" transform="matrix(1.00, 0.00, -0.00, -1.00, 807.9, 210.0)">e</text><text xml:space="preserve" font-family="MarkerFelt-Thin" font-size="36.0" fill="#858585" transform="matrix(1.00, 0.00, -0.00, -1.00, 823.7, 210.0)">r</text><text xml:space="preserve" font-family="MarkerFelt-Thin" font-size="36.0" fill="#858585" transform="matrix(1.00, 0.00, -0.00, -1.00, 839.6, 210.0)">n</text><text xml:space="preserve" font-family="MarkerFelt-Thin" font-size="36.0" fill="#858585" transform="matrix(1.00, 0.00, -0.00, -1.00, 858.6, 210.0)">s</text><text xml:space="preserve" font-family="MarkerFelt-Thin" font-size="36.0" fill="#858585" transform="matrix(1.00, 0.00, -0.00, -1.00, 872.0, 210.0)"> </text><text xml:space="preserve" font-family="MarkerFelt-Thin" font-size="36.0" fill="#858585" transform="matrix(1.00, 0.00, -0.00, -1.00, 881.0, 210.0)">o</text><text xml:space="preserve" font-family="MarkerFelt-Thin" font-size="36.0" fill="#858585" transform="matrix(1.00, 0.00, -0.00, -1.00, 897.3, 210.0)">f</text><text xml:space="preserve" font-family="MarkerFelt-Thin" font-size="36.0" fill="#858585" transform="matrix(1.00, 0.00, -0.00, -1.00, 910.3, 210.0)"> </text><text xml:space="preserve" font-family="MarkerFelt-Thin" font-size="36.0" fill="#858585" transform="matrix(1.00, 0.00, -0.00, -1.00, 588.0, 171.0)">l</text><text xml:space="preserve" font-family="MarkerFelt-Thin" font-size="36.0" fill="#858585" transform="matrix(1.00, 0.00, -0.00, -1.00, 596.6, 171.0)">o</text><text xml:space="preserve" font-family="MarkerFelt-Thin" font-size="36.0" fill="#858585" transform="matrix(1.00, 0.00, -0.00, -1.00, 613.1, 171.0)">g</text><text xml:space="preserve" font-family="MarkerFelt-Thin" font-size="36.0" fill="#858585" transform="matrix(1.00, 0.00, -0.00, -1.00, 629.4, 171.0)">i</text><text xml:space="preserve" font-family="MarkerFelt-Thin" font-size="36.0" fill="#858585" transform="matrix(1.00, 0.00, -0.00, -1.00, 637.6, 171.0)">c</text><text xml:space="preserve" font-family="MarkerFelt-Thin" font-size="36.0" fill="#858585" transform="matrix(1.00, 0.00, -0.00, -1.00, 651.3, 171.0)">,</text><text xml:space="preserve" font-family="MarkerFelt-Thin" font-size="36.0" fill="#858585" transform="matrix(1.00, 0.00, -0.00, -1.00, 658.1, 171.0)"> </text><text xml:space="preserve" font-family="MarkerFelt-Thin" font-size="36.0" fill="#858585" transform="matrix(1.00, 0.00, -0.00, -1.00, 667.1, 171.0)">v</text><text xml:space="preserve" font-family="MarkerFelt-Thin" font-size="36.0" fill="#858585" transform="matrix(1.00, 0.00, -0.00, -1.00, 684.8, 171.0)">a</text><text xml:space="preserve" font-family="MarkerFelt-Thin" font-size="36.0" fill="#858585" transform="matrix(1.00, 0.00, -0.00, -1.00, 703.1, 171.0)">l</text><text xml:space="preserve" font-family="MarkerFelt-Thin" font-size="36.0" fill="#858585" transform="matrix(1.00, 0.00, -0.00, -1.00, 711.5, 171.0)">u</text><text xml:space="preserve" font-family="MarkerFelt-Thin" font-size="36.0" fill="#858585" transform="matrix(1.00, 0.00, -0.00, -1.00, 727.0, 171.0)">e</text><text xml:space="preserve" font-family="MarkerFelt-Thin" font-size="36.0" fill="#858585" transform="matrix(1.00, 0.00, -0.00, -1.00, 742.2, 171.0)">,</text><text xml:space="preserve" font-family="MarkerFelt-Thin" font-size="36.0" fill="#858585" transform="matrix(1.00, 0.00, -0.00, -1.00, 749.1, 171.0)"> </text><text xml:space="preserve" font-family="MarkerFelt-Thin" font-size="36.0" fill="#858585" transform="matrix(1.00, 0.00, -0.00, -1.00, 758.1, 171.0)">s</text><text xml:space="preserve" font-family="MarkerFelt-Thin" font-size="36.0" fill="#858585" transform="matrix(1.00, 0.00, -0.00, -1.00, 773.7, 171.0)">t</text><text xml:space="preserve" font-family="MarkerFelt-Thin" font-size="36.0" fill="#858585" transform="matrix(1.00, 0.00, -0.00, -1.00, 788.5, 171.0)">a</text><text xml:space="preserve" font-family="MarkerFelt-Thin" font-size="36.0" fill="#858585" transform="matrix(1.00, 0.00, -0.00, -1.00, 806.1, 171.0)">t</text><text xml:space="preserve" font-family="MarkerFelt-Thin" font-size="36.0" fill="#858585" transform="matrix(1.00, 0.00, -0.00, -1.00, 819.8, 171.0)">e</text><text xml:space="preserve" font-family="MarkerFelt-Thin" font-size="36.0" fill="#858585" transform="matrix(1.00, 0.00, -0.00, -1.00, 835.0, 171.0)">,</text><text xml:space="preserve" font-family="MarkerFelt-Thin" font-size="36.0" fill="#858585" transform="matrix(1.00, 0.00, -0.00, -1.00, 841.9, 171.0)"> </text><text xml:space="preserve" font-family="MarkerFelt-Thin" font-size="36.0" fill="#858585" transform="matrix(1.00, 0.00, -0.00, -1.00, 850.9, 171.0)">a</text><text xml:space="preserve" font-family="MarkerFelt-Thin" font-size="36.0" fill="#858585" transform="matrix(1.00, 0.00, -0.00, -1.00, 868.8, 171.0)">n</text><text xml:space="preserve" font-family="MarkerFelt-Thin" font-size="36.0" fill="#858585" transform="matrix(1.00, 0.00, -0.00, -1.00, 887.8, 171.0)">d</text><text xml:space="preserve" font-family="MarkerFelt-Thin" font-size="36.0" fill="#858585" transform="matrix(1.00, 0.00, -0.00, -1.00, 903.3, 171.0)"> </text><text xml:space="preserve" font-family="MarkerFelt-Thin" font-size="36.0" fill="#858585" transform="matrix(1.00, 0.00, -0.00, -1.00, 588.0, 132.0)">U</text><text xml:space="preserve" font-family="MarkerFelt-Thin" font-size="36.0" fill="#858585" transform="matrix(1.00, 0.00, -0.00, -1.00, 608.7, 132.0)">I</text></g></svg>