<?xml version="1.0" encoding="UTF-8" standalone="no"?><svg xmlns="http://www.w3.org/2000/svg" xmlns:xlink="http://www.w3.org/1999/xlink" clip-rule="evenodd" stroke-miterlimit="4.00" viewBox="0 0 240 30"><desc>SVG generated by Keynote</desc><defs></defs><g transform="matrix(1.00, 0.00, -0.00, -1.00, 0.0, 30.0)"><g><clipPath id="clip-179"><path d="M 0.0 5.3 L 17.2 5.3 L 17.2 21.4 L 0.0 21.4 Z M 0.0 5.3 "></path></clipPath><g clip-path="url(#clip-179)"><path d="M 16.9 11.1 C 17.1 10.8 17.2 10.6 17.2 10.3 C 17.2 9.8 16.9 9.4 16.3 8.9 C 15.8 8.5 15.1 8.3 14.4 8.3 C 13.5 8.3 12.4 8.9 11.1 10.3 C 11.1 10.3 11.1 8.3 11.1 8.3 C 11.1 8.1 11.2 7.8 11.3 7.5 C 11.4 7.2 11.5 7.0 11.5 6.9 C 11.5 6.5 11.3 6.1 10.8 5.8 C 10.4 5.5 9.9 5.3 9.5 5.3 C 8.7 5.3 8.1 5.7 7.5 6.3 C 7.3 6.5 7.3 7.1 7.3 8.0 C 7.4 8.9 7.4 9.9 7.5 10.8 C 7.0 10.5 6.1 10.0 4.8 9.3 C 4.6 9.0 4.0 8.7 3.1 8.4 C 2.5 8.3 1.8 8.5 1.1 8.8 C 0.4 9.1 0.0 9.5 0.0 10.1 C 0.0 10.2 0.0 10.3 0.1 10.5 C 0.2 10.8 0.5 11.0 1.0 11.1 C 1.7 11.4 2.1 11.5 2.1 11.5 C 2.1 11.5 5.9 13.6 5.9 13.6 C 5.9 13.6 3.2 14.9 3.2 14.9 C 2.8 14.9 2.3 15.1 1.7 15.5 C 1.5 15.7 1.5 15.9 1.5 16.1 C 1.5 16.8 1.8 17.4 2.6 18.0 C 3.4 18.6 4.1 18.9 4.9 18.9 C 5.1 18.9 5.4 18.9 5.6 18.8 C 5.9 18.7 6.1 18.5 6.3 18.1 C 6.6 17.6 6.9 17.2 7.5 16.9 C 7.5 16.9 7.6 19.3 7.6 19.3 C 7.5 19.6 7.5 20.1 7.6 20.8 C 7.9 21.2 8.6 21.4 9.7 21.4 C 10.6 21.4 11.3 21.1 11.6 20.5 C 11.8 20.3 11.8 19.7 11.7 18.8 C 11.6 18.1 11.5 17.3 11.4 16.5 C 11.4 16.5 12.8 17.2 12.8 17.2 C 13.1 17.5 13.6 17.9 14.4 18.2 C 14.9 18.2 15.5 18.0 16.0 17.6 C 16.5 17.1 16.8 16.6 16.8 16.1 C 16.8 15.8 16.7 15.6 16.6 15.4 C 16.4 15.2 16.2 15.1 15.9 15.0 C 15.4 14.9 15.1 14.8 15.0 14.7 C 15.0 14.7 12.9 13.3 12.9 13.3 C 12.9 13.3 15.6 11.8 15.6 11.8 C 16.0 11.7 16.4 11.5 16.9 11.1 Z M 16.9 11.1 " fill="#3995D6"></path></g></g><text xml:space="preserve" font-family="MarkerFelt-Thin" font-size="29.5" fill="#858585" transform="matrix(1.00, 0.00, -0.00, -1.00, 29.0, 4.0)">S</text><text xml:space="preserve" font-family="MarkerFelt-Thin" font-size="29.5" fill="#858585" transform="matrix(1.00, 0.00, -0.00, -1.00, 42.6, 4.0)">t</text><text xml:space="preserve" font-family="MarkerFelt-Thin" font-size="29.5" fill="#858585" transform="matrix(1.00, 0.00, -0.00, -1.00, 54.8, 4.0)">a</text><text xml:space="preserve" font-family="MarkerFelt-Thin" font-size="29.5" fill="#858585" transform="matrix(1.00, 0.00, -0.00, -1.00, 69.2, 4.0)">t</text><text xml:space="preserve" font-family="MarkerFelt-Thin" font-size="29.5" fill="#858585" transform="matrix(1.00, 0.00, -0.00, -1.00, 80.5, 4.0)">e</text><text xml:space="preserve" font-family="MarkerFelt-Thin" font-size="29.5" fill="#858585" transform="matrix(1.00, 0.00, -0.00, -1.00, 93.2, 4.0)">:</text><text xml:space="preserve" font-family="MarkerFelt-Thin" font-size="29.5" fill="#858585" transform="matrix(1.00, 0.00, -0.00, -1.00, 100.0, 4.0)"> </text><text xml:space="preserve" font-family="MarkerFelt-Thin" font-size="29.5" fill="#858585" transform="matrix(1.00, 0.00, -0.00, -1.00, 107.3, 4.0)">J</text><text xml:space="preserve" font-family="MarkerFelt-Thin" font-size="29.5" fill="#858585" transform="matrix(1.00, 0.00, -0.00, -1.00, 120.8, 4.0)">a</text><text xml:space="preserve" font-family="MarkerFelt-Thin" font-size="29.5" fill="#858585" transform="matrix(1.00, 0.00, -0.00, -1.00, 135.1, 4.0)">v</text><text xml:space="preserve" font-family="MarkerFelt-Thin" font-size="29.5" fill="#858585" transform="matrix(1.00, 0.00, -0.00, -1.00, 149.6, 4.0)">a</text><text xml:space="preserve" font-family="MarkerFelt-Thin" font-size="29.5" fill="#858585" transform="matrix(1.00, 0.00, -0.00, -1.00, 163.2, 4.0)"> </text><text xml:space="preserve" font-family="MarkerFelt-Thin" font-size="29.5" fill="#858585" transform="matrix(1.00, 0.00, -0.00, -1.00, 170.5, 4.0)">b</text><text xml:space="preserve" font-family="MarkerFelt-Thin" font-size="29.5" fill="#858585" transform="matrix(1.00, 0.00, -0.00, -1.00, 184.3, 4.0)">e</text><text xml:space="preserve" font-family="MarkerFelt-Thin" font-size="29.5" fill="#858585" transform="matrix(1.00, 0.00, -0.00, -1.00, 198.0, 4.0)">a</text><text xml:space="preserve" font-family="MarkerFelt-Thin" font-size="29.5" fill="#858585" transform="matrix(1.00, 0.00, -0.00, -1.00, 212.8, 4.0)">n</text><text xml:space="preserve" font-family="MarkerFelt-Thin" font-size="29.5" fill="#858585" transform="matrix(1.00, 0.00, -0.00, -1.00, 228.4, 4.0)">s</text></g></svg>