<?xml version="1.0" encoding="UTF-8" standalone="no"?><svg xmlns="http://www.w3.org/2000/svg" xmlns:xlink="http://www.w3.org/1999/xlink" clip-rule="evenodd" stroke-miterlimit="4.00" viewBox="0 0 1024 768"><desc>SVG generated by Keynote</desc><defs></defs><g transform="matrix(1.00, 0.00, -0.00, -1.00, 0.0, 768.0)"><g><clipPath id="clip-83"><path d="M 0.0 768.0 L 1024.0 768.0 L 1024.0 0.0 L 0.0 0.0 Z M 0.0 768.0 "></path></clipPath><g clip-path="url(#clip-83)"><image xlink:href="../../39451CEE-E280-41CA-872D-216C9FC86FAF/assets/43DA95A1552523200D88D33196FD3A18.jpeg" width="1024.00" height="768.00" transform="matrix(1.00, 0.00, -0.00, -1.00, 0.0, 768.0)"></image></g></g><text xml:space="preserve" font-family="MarkerFelt-Thin" font-size="80.0" fill="#45A6DE" transform="matrix(1.00, 0.00, -0.00, -1.00, 123.0, 626.0)">I</text><text xml:space="preserve" font-family="MarkerFelt-Thin" font-size="80.0" fill="#45A6DE" transform="matrix(1.00, 0.00, -0.00, -1.00, 144.8, 626.0)">n</text><text xml:space="preserve" font-family="MarkerFelt-Thin" font-size="80.0" fill="#45A6DE" transform="matrix(1.00, 0.00, -0.00, -1.00, 186.7, 626.0)">f</text><text xml:space="preserve" font-family="MarkerFelt-Thin" font-size="80.0" fill="#45A6DE" transform="matrix(1.00, 0.00, -0.00, -1.00, 221.6, 626.0)">r</text><text xml:space="preserve" font-family="MarkerFelt-Thin" font-size="80.0" fill="#45A6DE" transform="matrix(1.00, 0.00, -0.00, -1.00, 254.4, 626.0)">a</text><text xml:space="preserve" font-family="MarkerFelt-Thin" font-size="80.0" fill="#45A6DE" transform="matrix(1.00, 0.00, -0.00, -1.00, 293.9, 626.0)">s</text><text xml:space="preserve" font-family="MarkerFelt-Thin" font-size="80.0" fill="#45A6DE" transform="matrix(1.00, 0.00, -0.00, -1.00, 328.6, 626.0)">t</text><text xml:space="preserve" font-family="MarkerFelt-Thin" font-size="80.0" fill="#45A6DE" transform="matrix(1.00, 0.00, -0.00, -1.00, 363.4, 626.0)">r</text><text xml:space="preserve" font-family="MarkerFelt-Thin" font-size="80.0" fill="#45A6DE" transform="matrix(1.00, 0.00, -0.00, -1.00, 398.7, 626.0)">u</text><text xml:space="preserve" font-family="MarkerFelt-Thin" font-size="80.0" fill="#45A6DE" transform="matrix(1.00, 0.00, -0.00, -1.00, 433.8, 626.0)">c</text><text xml:space="preserve" font-family="MarkerFelt-Thin" font-size="80.0" fill="#45A6DE" transform="matrix(1.00, 0.00, -0.00, -1.00, 468.7, 626.0)">t</text><text xml:space="preserve" font-family="MarkerFelt-Thin" font-size="80.0" fill="#45A6DE" transform="matrix(1.00, 0.00, -0.00, -1.00, 503.0, 626.0)">u</text><text xml:space="preserve" font-family="MarkerFelt-Thin" font-size="80.0" fill="#45A6DE" transform="matrix(1.00, 0.00, -0.00, -1.00, 539.5, 626.0)">r</text><text xml:space="preserve" font-family="MarkerFelt-Thin" font-size="80.0" fill="#45A6DE" transform="matrix(1.00, 0.00, -0.00, -1.00, 569.9, 626.0)">e</text><text xml:space="preserve" font-family="MarkerFelt-Thin" font-size="80.0" fill="#45A6DE" transform="matrix(1.00, 0.00, -0.00, -1.00, 600.3, 626.0)"> </text><text xml:space="preserve" font-family="MarkerFelt-Thin" font-size="80.0" fill="#45A6DE" transform="matrix(1.00, 0.00, -0.00, -1.00, 620.3, 626.0)">&amp;</text><text xml:space="preserve" font-family="MarkerFelt-Thin" font-size="80.0" fill="#45A6DE" transform="matrix(1.00, 0.00, -0.00, -1.00, 665.1, 626.0)"> </text><text xml:space="preserve" font-family="MarkerFelt-Thin" font-size="80.0" fill="#45A6DE" transform="matrix(1.00, 0.00, -0.00, -1.00, 685.1, 626.0)">T</text><text xml:space="preserve" font-family="MarkerFelt-Thin" font-size="80.0" fill="#45A6DE" transform="matrix(1.00, 0.00, -0.00, -1.00, 713.6, 626.0)">o</text><text xml:space="preserve" font-family="MarkerFelt-Thin" font-size="80.0" fill="#45A6DE" transform="matrix(1.00, 0.00, -0.00, -1.00, 750.8, 626.0)">o</text><text xml:space="preserve" font-family="MarkerFelt-Thin" font-size="80.0" fill="#45A6DE" transform="matrix(1.00, 0.00, -0.00, -1.00, 787.0, 626.0)">l</text><text xml:space="preserve" font-family="MarkerFelt-Thin" font-size="80.0" fill="#45A6DE" transform="matrix(1.00, 0.00, -0.00, -1.00, 805.7, 626.0)">i</text><text xml:space="preserve" font-family="MarkerFelt-Thin" font-size="80.0" fill="#45A6DE" transform="matrix(1.00, 0.00, -0.00, -1.00, 825.6, 626.0)">n</text><text xml:space="preserve" font-family="MarkerFelt-Thin" font-size="80.0" fill="#45A6DE" transform="matrix(1.00, 0.00, -0.00, -1.00, 867.2, 626.0)">g</text><g><clipPath id="clip-84"><path d="M 109.3 407.7 L 127.7 407.7 L 127.7 424.9 L 109.3 424.9 Z M 109.3 407.7 "></path></clipPath><g clip-path="url(#clip-84)"><path d="M 127.4 413.9 C 127.6 413.7 127.7 413.4 127.7 413.1 C 127.7 412.6 127.4 412.1 126.8 411.6 C 126.2 411.1 125.5 410.9 124.7 410.9 C 123.7 410.9 122.5 411.6 121.2 413.1 C 121.2 413.1 121.2 410.9 121.2 410.9 C 121.2 410.7 121.3 410.4 121.4 410.1 C 121.5 409.8 121.6 409.6 121.6 409.4 C 121.6 409.0 121.3 408.6 120.9 408.2 C 120.4 407.9 119.9 407.7 119.5 407.7 C 118.6 407.7 117.9 408.1 117.3 408.8 C 117.1 409.0 117.1 409.6 117.1 410.6 C 117.2 411.6 117.2 412.6 117.3 413.6 C 116.8 413.3 115.8 412.7 114.4 412.0 C 114.2 411.7 113.6 411.4 112.6 411.0 C 111.9 411.0 111.2 411.1 110.4 411.4 C 109.6 411.8 109.3 412.2 109.3 412.8 C 109.3 413.0 109.3 413.1 109.4 413.3 C 109.5 413.6 109.8 413.8 110.3 414.0 C 111.1 414.2 111.5 414.4 111.5 414.4 C 111.5 414.4 115.6 416.6 115.6 416.6 C 115.6 416.6 112.7 418.0 112.7 418.0 C 112.3 418.0 111.7 418.2 111.1 418.6 C 110.9 418.8 110.8 419.1 110.8 419.3 C 110.8 420.0 111.2 420.7 112.1 421.3 C 112.9 422.0 113.7 422.3 114.5 422.3 C 114.8 422.3 115.0 422.3 115.3 422.2 C 115.6 422.1 115.8 421.8 116.0 421.4 C 116.3 420.9 116.7 420.5 117.3 420.1 C 117.3 420.1 117.4 422.7 117.4 422.7 C 117.3 423.1 117.3 423.6 117.4 424.3 C 117.7 424.7 118.5 424.9 119.6 424.9 C 120.7 424.9 121.4 424.6 121.7 424.0 C 121.9 423.8 121.9 423.2 121.8 422.2 C 121.7 421.4 121.6 420.6 121.5 419.8 C 121.5 419.8 123.0 420.5 123.0 420.5 C 123.3 420.8 123.9 421.2 124.7 421.5 C 125.3 421.6 125.9 421.4 126.4 420.9 C 127.0 420.4 127.3 419.8 127.3 419.3 C 127.3 419.0 127.2 418.8 127.1 418.6 C 126.9 418.3 126.7 418.2 126.3 418.1 C 125.8 418.0 125.5 417.9 125.4 417.8 C 125.4 417.8 123.2 416.2 123.2 416.2 C 123.2 416.2 126.0 414.7 126.0 414.7 C 126.4 414.6 126.9 414.3 127.4 413.9 Z M 127.4 413.9 " fill="#3995D6"></path></g></g><text xml:space="preserve" font-family="MarkerFelt-Thin" font-size="31.7" fill="#858585" transform="matrix(1.00, 0.00, -0.00, -1.00, 140.0, 406.0)">P</text><text xml:space="preserve" font-family="MarkerFelt-Thin" font-size="31.7" fill="#858585" transform="matrix(1.00, 0.00, -0.00, -1.00, 154.3, 406.0)">r</text><text xml:space="preserve" font-family="MarkerFelt-Thin" font-size="31.7" fill="#858585" transform="matrix(1.00, 0.00, -0.00, -1.00, 167.1, 406.0)">o</text><text xml:space="preserve" font-family="MarkerFelt-Thin" font-size="31.7" fill="#858585" transform="matrix(1.00, 0.00, -0.00, -1.00, 181.2, 406.0)">j</text><text xml:space="preserve" font-family="MarkerFelt-Thin" font-size="31.7" fill="#858585" transform="matrix(1.00, 0.00, -0.00, -1.00, 188.6, 406.0)">e</text><text xml:space="preserve" font-family="MarkerFelt-Thin" font-size="31.7" fill="#858585" transform="matrix(1.00, 0.00, -0.00, -1.00, 202.6, 406.0)">c</text><text xml:space="preserve" font-family="MarkerFelt-Thin" font-size="31.7" fill="#858585" transform="matrix(1.00, 0.00, -0.00, -1.00, 216.4, 406.0)">t</text><text xml:space="preserve" font-family="MarkerFelt-Thin" font-size="31.7" fill="#858585" transform="matrix(1.00, 0.00, -0.00, -1.00, 227.8, 406.0)"> </text><text xml:space="preserve" font-family="MarkerFelt-Thin" font-size="31.7" fill="#858585" transform="matrix(1.00, 0.00, -0.00, -1.00, 235.7, 406.0)">c</text><text xml:space="preserve" font-family="MarkerFelt-Thin" font-size="31.7" fill="#858585" transform="matrix(1.00, 0.00, -0.00, -1.00, 248.9, 406.0)">r</text><text xml:space="preserve" font-family="MarkerFelt-Thin" font-size="31.7" fill="#858585" transform="matrix(1.00, 0.00, -0.00, -1.00, 260.9, 406.0)">e</text><text xml:space="preserve" font-family="MarkerFelt-Thin" font-size="31.7" fill="#858585" transform="matrix(1.00, 0.00, -0.00, -1.00, 275.6, 406.0)">a</text><text xml:space="preserve" font-family="MarkerFelt-Thin" font-size="31.7" fill="#858585" transform="matrix(1.00, 0.00, -0.00, -1.00, 291.1, 406.0)">t</text><text xml:space="preserve" font-family="MarkerFelt-Thin" font-size="31.7" fill="#858585" transform="matrix(1.00, 0.00, -0.00, -1.00, 304.7, 406.0)">i</text><text xml:space="preserve" font-family="MarkerFelt-Thin" font-size="31.7" fill="#858585" transform="matrix(1.00, 0.00, -0.00, -1.00, 312.1, 406.0)">o</text><text xml:space="preserve" font-family="MarkerFelt-Thin" font-size="31.7" fill="#858585" transform="matrix(1.00, 0.00, -0.00, -1.00, 326.4, 406.0)">n</text><text xml:space="preserve" font-family="MarkerFelt-Thin" font-size="31.7" fill="#858585" transform="matrix(1.00, 0.00, -0.00, -1.00, 341.9, 406.0)"> </text><g><clipPath id="clip-85"><path d="M 144.3 340.3 L 162.7 340.3 L 162.7 357.5 L 144.3 357.5 Z M 144.3 340.3 "></path></clipPath><g clip-path="url(#clip-85)"><path d="M 162.4 346.5 C 162.6 346.2 162.7 345.9 162.7 345.7 C 162.7 345.1 162.4 344.6 161.8 344.1 C 161.2 343.7 160.5 343.4 159.7 343.4 C 158.7 343.4 157.5 344.2 156.2 345.7 C 156.2 345.7 156.2 343.4 156.2 343.4 C 156.2 343.2 156.3 343.0 156.4 342.7 C 156.5 342.3 156.6 342.1 156.6 342.0 C 156.6 341.5 156.3 341.1 155.9 340.8 C 155.4 340.5 154.9 340.3 154.5 340.3 C 153.6 340.3 152.9 340.7 152.3 341.4 C 152.1 341.6 152.1 342.2 152.1 343.2 C 152.2 344.2 152.2 345.2 152.3 346.2 C 151.8 345.8 150.8 345.3 149.4 344.5 C 149.2 344.2 148.6 343.9 147.6 343.6 C 146.9 343.5 146.2 343.7 145.4 344.0 C 144.6 344.3 144.3 344.8 144.3 345.4 C 144.3 345.5 144.3 345.7 144.4 345.8 C 144.5 346.1 144.8 346.4 145.3 346.5 C 146.1 346.8 146.5 346.9 146.5 347.0 C 146.5 347.0 150.6 349.2 150.6 349.2 C 150.6 349.2 147.7 350.6 147.7 350.6 C 147.3 350.6 146.7 350.8 146.1 351.2 C 145.9 351.4 145.8 351.6 145.8 351.9 C 145.8 352.6 146.2 353.2 147.1 353.9 C 147.9 354.5 148.7 354.9 149.5 354.9 C 149.8 354.9 150.0 354.8 150.3 354.7 C 150.6 354.6 150.8 354.4 151.0 354.0 C 151.3 353.5 151.7 353.1 152.3 352.7 C 152.3 352.7 152.4 355.3 152.4 355.3 C 152.3 355.6 152.3 356.2 152.4 356.9 C 152.7 357.3 153.5 357.5 154.6 357.5 C 155.7 357.5 156.4 357.2 156.7 356.6 C 156.9 356.3 156.9 355.7 156.8 354.8 C 156.7 354.0 156.6 353.1 156.5 352.3 C 156.5 352.3 158.0 353.1 158.0 353.1 C 158.3 353.4 158.9 353.7 159.7 354.1 C 160.3 354.1 160.9 353.9 161.4 353.4 C 162.0 352.9 162.3 352.4 162.3 351.8 C 162.3 351.6 162.2 351.3 162.1 351.1 C 161.9 350.9 161.7 350.8 161.3 350.7 C 160.8 350.6 160.5 350.5 160.4 350.4 C 160.4 350.4 158.2 348.8 158.2 348.8 C 158.2 348.8 161.0 347.2 161.0 347.2 C 161.4 347.1 161.9 346.9 162.4 346.5 Z M 162.4 346.5 " fill="#3995D6"></path></g></g><text xml:space="preserve" font-family="MarkerFelt-Thin" font-size="31.7" fill="#858585" transform="matrix(1.00, 0.00, -0.00, -1.00, 175.0, 339.0)">ﬁ</text><text xml:space="preserve" font-family="MarkerFelt-Thin" font-size="31.7" fill="#858585" transform="matrix(1.00, 0.00, -0.00, -1.00, 189.3, 339.0)">l</text><text xml:space="preserve" font-family="MarkerFelt-Thin" font-size="31.7" fill="#858585" transform="matrix(1.00, 0.00, -0.00, -1.00, 196.4, 339.0)">e</text><text xml:space="preserve" font-family="MarkerFelt-Thin" font-size="31.7" fill="#858585" transform="matrix(1.00, 0.00, -0.00, -1.00, 208.5, 339.0)"> </text><text xml:space="preserve" font-family="MarkerFelt-Thin" font-size="31.7" fill="#858585" transform="matrix(1.00, 0.00, -0.00, -1.00, 216.4, 339.0)">s</text><text xml:space="preserve" font-family="MarkerFelt-Thin" font-size="31.7" fill="#858585" transform="matrix(1.00, 0.00, -0.00, -1.00, 230.1, 339.0)">t</text><text xml:space="preserve" font-family="MarkerFelt-Thin" font-size="31.7" fill="#858585" transform="matrix(1.00, 0.00, -0.00, -1.00, 243.9, 339.0)">r</text><text xml:space="preserve" font-family="MarkerFelt-Thin" font-size="31.7" fill="#858585" transform="matrix(1.00, 0.00, -0.00, -1.00, 257.9, 339.0)">u</text><text xml:space="preserve" font-family="MarkerFelt-Thin" font-size="31.7" fill="#858585" transform="matrix(1.00, 0.00, -0.00, -1.00, 271.8, 339.0)">c</text><text xml:space="preserve" font-family="MarkerFelt-Thin" font-size="31.7" fill="#858585" transform="matrix(1.00, 0.00, -0.00, -1.00, 285.6, 339.0)">t</text><text xml:space="preserve" font-family="MarkerFelt-Thin" font-size="31.7" fill="#858585" transform="matrix(1.00, 0.00, -0.00, -1.00, 299.2, 339.0)">u</text><text xml:space="preserve" font-family="MarkerFelt-Thin" font-size="31.7" fill="#858585" transform="matrix(1.00, 0.00, -0.00, -1.00, 313.6, 339.0)">r</text><text xml:space="preserve" font-family="MarkerFelt-Thin" font-size="31.7" fill="#858585" transform="matrix(1.00, 0.00, -0.00, -1.00, 325.7, 339.0)">e</text><text xml:space="preserve" font-family="MarkerFelt-Thin" font-size="31.7" fill="#858585" transform="matrix(1.00, 0.00, -0.00, -1.00, 337.7, 339.0)"> </text><g><clipPath id="clip-86"><path d="M 144.3 272.9 L 162.7 272.9 L 162.7 290.1 L 144.3 290.1 Z M 144.3 272.9 "></path></clipPath><g clip-path="url(#clip-86)"><path d="M 162.4 279.0 C 162.6 278.8 162.7 278.5 162.7 278.2 C 162.7 277.7 162.4 277.2 161.8 276.7 C 161.2 276.2 160.5 276.0 159.7 276.0 C 158.7 276.0 157.5 276.7 156.2 278.2 C 156.2 278.2 156.2 276.0 156.2 276.0 C 156.2 275.8 156.3 275.5 156.4 275.2 C 156.5 274.9 156.6 274.7 156.6 274.5 C 156.6 274.1 156.3 273.7 155.9 273.4 C 155.4 273.0 154.9 272.9 154.5 272.9 C 153.6 272.9 152.9 273.2 152.3 273.9 C 152.1 274.2 152.1 274.8 152.1 275.7 C 152.2 276.7 152.2 277.7 152.3 278.8 C 151.8 278.4 150.8 277.8 149.4 277.1 C 149.2 276.8 148.6 276.5 147.6 276.2 C 146.9 276.1 146.2 276.2 145.4 276.6 C 144.6 276.9 144.3 277.4 144.3 277.9 C 144.3 278.1 144.3 278.2 144.4 278.4 C 144.5 278.7 144.8 278.9 145.3 279.1 C 146.1 279.3 146.5 279.5 146.5 279.5 C 146.5 279.5 150.6 281.7 150.6 281.7 C 150.6 281.7 147.7 283.1 147.7 283.1 C 147.3 283.1 146.7 283.3 146.1 283.7 C 145.9 284.0 145.8 284.2 145.8 284.4 C 145.8 285.1 146.2 285.8 147.1 286.4 C 147.9 287.1 148.7 287.4 149.5 287.4 C 149.8 287.4 150.0 287.4 150.3 287.3 C 150.6 287.2 150.8 287.0 151.0 286.6 C 151.3 286.0 151.7 285.6 152.3 285.3 C 152.3 285.3 152.4 287.8 152.4 287.8 C 152.3 288.2 152.3 288.7 152.4 289.4 C 152.7 289.8 153.5 290.1 154.6 290.1 C 155.7 290.1 156.4 289.8 156.7 289.1 C 156.9 288.9 156.9 288.3 156.8 287.4 C 156.7 286.5 156.6 285.7 156.5 284.9 C 156.5 284.9 158.0 285.6 158.0 285.6 C 158.3 286.0 158.9 286.3 159.7 286.7 C 160.3 286.7 160.9 286.5 161.4 286.0 C 162.0 285.5 162.3 285.0 162.3 284.4 C 162.3 284.1 162.2 283.9 162.1 283.7 C 161.9 283.5 161.7 283.3 161.3 283.2 C 160.8 283.1 160.5 283.0 160.4 282.9 C 160.4 282.9 158.2 281.4 158.2 281.4 C 158.2 281.4 161.0 279.8 161.0 279.8 C 161.4 279.7 161.9 279.4 162.4 279.0 Z M 162.4 279.0 " fill="#3995D6"></path></g></g><text xml:space="preserve" font-family="MarkerFelt-Thin" font-size="31.7" fill="#858585" transform="matrix(1.00, 0.00, -0.00, -1.00, 175.0, 271.0)">v</text><text xml:space="preserve" font-family="MarkerFelt-Thin" font-size="31.7" fill="#858585" transform="matrix(1.00, 0.00, -0.00, -1.00, 191.2, 271.0)">i</text><text xml:space="preserve" font-family="MarkerFelt-Thin" font-size="31.7" fill="#858585" transform="matrix(1.00, 0.00, -0.00, -1.00, 199.2, 271.0)">r</text><text xml:space="preserve" font-family="MarkerFelt-Thin" font-size="31.7" fill="#858585" transform="matrix(1.00, 0.00, -0.00, -1.00, 212.2, 271.0)">t</text><text xml:space="preserve" font-family="MarkerFelt-Thin" font-size="31.7" fill="#858585" transform="matrix(1.00, 0.00, -0.00, -1.00, 225.8, 271.0)">u</text><text xml:space="preserve" font-family="MarkerFelt-Thin" font-size="31.7" fill="#858585" transform="matrix(1.00, 0.00, -0.00, -1.00, 239.9, 271.0)">a</text><text xml:space="preserve" font-family="MarkerFelt-Thin" font-size="31.7" fill="#858585" transform="matrix(1.00, 0.00, -0.00, -1.00, 255.9, 271.0)">l</text><text xml:space="preserve" font-family="MarkerFelt-Thin" font-size="31.7" fill="#858585" transform="matrix(1.00, 0.00, -0.00, -1.00, 263.1, 271.0)">e</text><text xml:space="preserve" font-family="MarkerFelt-Thin" font-size="31.7" fill="#858585" transform="matrix(1.00, 0.00, -0.00, -1.00, 277.2, 271.0)">n</text><text xml:space="preserve" font-family="MarkerFelt-Thin" font-size="31.7" fill="#858585" transform="matrix(1.00, 0.00, -0.00, -1.00, 294.3, 271.0)">v</text><text xml:space="preserve" font-family="MarkerFelt-Thin" font-size="31.7" fill="#858585" transform="matrix(1.00, 0.00, -0.00, -1.00, 308.2, 271.0)"> </text><text xml:space="preserve" font-family="MarkerFelt-Thin" font-size="31.7" fill="#858585" transform="matrix(1.00, 0.00, -0.00, -1.00, 316.1, 271.0)"> </text><g><clipPath id="clip-87"><path d="M 109.3 205.4 L 127.7 205.4 L 127.7 222.6 L 109.3 222.6 Z M 109.3 205.4 "></path></clipPath><g clip-path="url(#clip-87)"><path d="M 127.4 211.6 C 127.6 211.3 127.7 211.1 127.7 210.8 C 127.7 210.2 127.4 209.7 126.8 209.3 C 126.2 208.8 125.5 208.6 124.7 208.6 C 123.7 208.6 122.5 209.3 121.2 210.8 C 121.2 210.8 121.2 208.6 121.2 208.6 C 121.2 208.3 121.3 208.1 121.4 207.8 C 121.5 207.5 121.6 207.2 121.6 207.1 C 121.6 206.6 121.3 206.2 120.9 205.9 C 120.4 205.6 119.9 205.4 119.5 205.4 C 118.6 205.4 117.9 205.8 117.3 206.5 C 117.1 206.7 117.1 207.3 117.1 208.3 C 117.2 209.3 117.2 210.3 117.3 211.3 C 116.8 211.0 115.8 210.4 114.4 209.6 C 114.2 209.3 113.6 209.0 112.6 208.7 C 111.9 208.6 111.2 208.8 110.4 209.1 C 109.6 209.5 109.3 209.9 109.3 210.5 C 109.3 210.6 109.3 210.8 109.4 210.9 C 109.5 211.3 109.8 211.5 110.3 211.6 C 111.1 211.9 111.5 212.0 111.5 212.1 C 111.5 212.1 115.6 214.3 115.6 214.3 C 115.6 214.3 112.7 215.7 112.7 215.7 C 112.3 215.7 111.7 215.9 111.1 216.3 C 110.9 216.5 110.8 216.7 110.8 217.0 C 110.8 217.7 111.2 218.4 112.1 219.0 C 112.9 219.7 113.7 220.0 114.5 220.0 C 114.8 220.0 115.0 219.9 115.3 219.8 C 115.6 219.8 115.8 219.5 116.0 219.1 C 116.3 218.6 116.7 218.2 117.3 217.8 C 117.3 217.8 117.4 220.4 117.4 220.4 C 117.3 220.8 117.3 221.3 117.4 222.0 C 117.7 222.4 118.5 222.6 119.6 222.6 C 120.7 222.6 121.4 222.3 121.7 221.7 C 121.9 221.5 121.9 220.9 121.8 219.9 C 121.7 219.1 121.6 218.3 121.5 217.4 C 121.5 217.4 123.0 218.2 123.0 218.2 C 123.3 218.5 123.9 218.9 124.7 219.2 C 125.3 219.3 125.9 219.0 126.4 218.5 C 127.0 218.1 127.3 217.5 127.3 216.9 C 127.3 216.7 127.2 216.5 127.1 216.2 C 126.9 216.0 126.7 215.9 126.3 215.8 C 125.8 215.7 125.5 215.6 125.4 215.5 C 125.4 215.5 123.2 213.9 123.2 213.9 C 123.2 213.9 126.0 212.3 126.0 212.3 C 126.4 212.2 126.9 212.0 127.4 211.6 Z M 127.4 211.6 " fill="#3995D6"></path></g></g><text xml:space="preserve" font-family="MarkerFelt-Thin" font-size="31.7" fill="#858585" transform="matrix(1.00, 0.00, -0.00, -1.00, 140.0, 204.0)">d</text><text xml:space="preserve" font-family="MarkerFelt-Thin" font-size="31.7" fill="#858585" transform="matrix(1.00, 0.00, -0.00, -1.00, 153.6, 204.0)">e</text><text xml:space="preserve" font-family="MarkerFelt-Thin" font-size="31.7" fill="#858585" transform="matrix(1.00, 0.00, -0.00, -1.00, 167.4, 204.0)">p</text><text xml:space="preserve" font-family="MarkerFelt-Thin" font-size="31.7" fill="#858585" transform="matrix(1.00, 0.00, -0.00, -1.00, 182.2, 204.0)">e</text><text xml:space="preserve" font-family="MarkerFelt-Thin" font-size="31.7" fill="#858585" transform="matrix(1.00, 0.00, -0.00, -1.00, 196.2, 204.0)">n</text><text xml:space="preserve" font-family="MarkerFelt-Thin" font-size="31.7" fill="#858585" transform="matrix(1.00, 0.00, -0.00, -1.00, 212.9, 204.0)">d</text><text xml:space="preserve" font-family="MarkerFelt-Thin" font-size="31.7" fill="#858585" transform="matrix(1.00, 0.00, -0.00, -1.00, 226.5, 204.0)">e</text><text xml:space="preserve" font-family="MarkerFelt-Thin" font-size="31.7" fill="#858585" transform="matrix(1.00, 0.00, -0.00, -1.00, 240.6, 204.0)">n</text><text xml:space="preserve" font-family="MarkerFelt-Thin" font-size="31.7" fill="#858585" transform="matrix(1.00, 0.00, -0.00, -1.00, 257.2, 204.0)">c</text><text xml:space="preserve" font-family="MarkerFelt-Thin" font-size="31.7" fill="#858585" transform="matrix(1.00, 0.00, -0.00, -1.00, 269.9, 204.0)">y</text><text xml:space="preserve" font-family="MarkerFelt-Thin" font-size="31.7" fill="#858585" transform="matrix(1.00, 0.00, -0.00, -1.00, 284.8, 204.0)"> </text><text xml:space="preserve" font-family="MarkerFelt-Thin" font-size="31.7" fill="#858585" transform="matrix(1.00, 0.00, -0.00, -1.00, 292.7, 204.0)">m</text><text xml:space="preserve" font-family="MarkerFelt-Thin" font-size="31.7" fill="#858585" transform="matrix(1.00, 0.00, -0.00, -1.00, 317.1, 204.0)">a</text><text xml:space="preserve" font-family="MarkerFelt-Thin" font-size="31.7" fill="#858585" transform="matrix(1.00, 0.00, -0.00, -1.00, 332.9, 204.0)">n</text><text xml:space="preserve" font-family="MarkerFelt-Thin" font-size="31.7" fill="#858585" transform="matrix(1.00, 0.00, -0.00, -1.00, 350.3, 204.0)">a</text><text xml:space="preserve" font-family="MarkerFelt-Thin" font-size="31.7" fill="#858585" transform="matrix(1.00, 0.00, -0.00, -1.00, 365.5, 204.0)">g</text><text xml:space="preserve" font-family="MarkerFelt-Thin" font-size="31.7" fill="#858585" transform="matrix(1.00, 0.00, -0.00, -1.00, 379.8, 204.0)">e</text><text xml:space="preserve" font-family="MarkerFelt-Thin" font-size="31.7" fill="#858585" transform="matrix(1.00, 0.00, -0.00, -1.00, 393.1, 204.0)">m</text><text xml:space="preserve" font-family="MarkerFelt-Thin" font-size="31.7" fill="#858585" transform="matrix(1.00, 0.00, -0.00, -1.00, 415.9, 204.0)">e</text><text xml:space="preserve" font-family="MarkerFelt-Thin" font-size="31.7" fill="#858585" transform="matrix(1.00, 0.00, -0.00, -1.00, 430.0, 204.0)">n</text><text xml:space="preserve" font-family="MarkerFelt-Thin" font-size="31.7" fill="#858585" transform="matrix(1.00, 0.00, -0.00, -1.00, 447.3, 204.0)">t</text><text xml:space="preserve" font-family="MarkerFelt-Thin" font-size="31.7" fill="#858585" transform="matrix(1.00, 0.00, -0.00, -1.00, 458.7, 204.0)"> </text><g><clipPath id="clip-88"><path d="M 144.3 138.0 L 162.7 138.0 L 162.7 155.2 L 144.3 155.2 Z M 144.3 138.0 "></path></clipPath><g clip-path="url(#clip-88)"><path d="M 162.4 144.2 C 162.6 143.9 162.7 143.6 162.7 143.3 C 162.7 142.8 162.4 142.3 161.8 141.8 C 161.2 141.3 160.5 141.1 159.7 141.1 C 158.7 141.1 157.5 141.9 156.2 143.3 C 156.2 143.3 156.2 141.1 156.2 141.1 C 156.2 140.9 156.3 140.6 156.4 140.3 C 156.5 140.0 156.6 139.8 156.6 139.7 C 156.6 139.2 156.3 138.8 155.9 138.5 C 155.4 138.1 154.9 138.0 154.5 138.0 C 153.6 138.0 152.9 138.3 152.3 139.1 C 152.1 139.3 152.1 139.9 152.1 140.9 C 152.2 141.9 152.2 142.9 152.3 143.9 C 151.8 143.5 150.8 143.0 149.4 142.2 C 149.2 141.9 148.6 141.6 147.6 141.3 C 146.9 141.2 146.2 141.3 145.4 141.7 C 144.6 142.0 144.3 142.5 144.3 143.1 C 144.3 143.2 144.3 143.4 144.4 143.5 C 144.5 143.8 144.8 144.1 145.3 144.2 C 146.1 144.5 146.5 144.6 146.5 144.6 C 146.5 144.6 150.6 146.9 150.6 146.9 C 150.6 146.9 147.7 148.3 147.7 148.3 C 147.3 148.3 146.7 148.5 146.1 148.9 C 145.9 149.1 145.8 149.3 145.8 149.6 C 145.8 150.2 146.2 150.9 147.1 151.6 C 147.9 152.2 148.7 152.5 149.5 152.5 C 149.8 152.5 150.0 152.5 150.3 152.4 C 150.6 152.3 150.8 152.1 151.0 151.7 C 151.3 151.2 151.7 150.7 152.3 150.4 C 152.3 150.4 152.4 153.0 152.4 153.0 C 152.3 153.3 152.3 153.9 152.4 154.5 C 152.7 155.0 153.5 155.2 154.6 155.2 C 155.7 155.2 156.4 154.9 156.7 154.3 C 156.9 154.0 156.9 153.4 156.8 152.5 C 156.7 151.6 156.6 150.8 156.5 150.0 C 156.5 150.0 158.0 150.8 158.0 150.8 C 158.3 151.1 158.9 151.4 159.7 151.8 C 160.3 151.8 160.9 151.6 161.4 151.1 C 162.0 150.6 162.3 150.1 162.3 149.5 C 162.3 149.3 162.2 149.0 162.1 148.8 C 161.9 148.6 161.7 148.4 161.3 148.4 C 160.8 148.3 160.5 148.2 160.4 148.0 C 160.4 148.0 158.2 146.5 158.2 146.5 C 158.2 146.5 161.0 144.9 161.0 144.9 C 161.4 144.8 161.9 144.5 162.4 144.2 Z M 162.4 144.2 " fill="#3995D6"></path></g></g><text xml:space="preserve" font-family="MarkerFelt-Thin" font-size="31.7" fill="#858585" transform="matrix(1.00, 0.00, -0.00, -1.00, 175.0, 136.0)">e</text><text xml:space="preserve" font-family="MarkerFelt-Thin" font-size="31.7" fill="#858585" transform="matrix(1.00, 0.00, -0.00, -1.00, 189.7, 136.0)">a</text><text xml:space="preserve" font-family="MarkerFelt-Thin" font-size="31.7" fill="#858585" transform="matrix(1.00, 0.00, -0.00, -1.00, 205.3, 136.0)">s</text><text xml:space="preserve" font-family="MarkerFelt-Thin" font-size="31.7" fill="#858585" transform="matrix(1.00, 0.00, -0.00, -1.00, 218.2, 136.0)">y</text><text xml:space="preserve" font-family="MarkerFelt-Thin" font-size="31.7" fill="#858585" transform="matrix(1.00, 0.00, -0.00, -1.00, 233.1, 136.0)">_</text><text xml:space="preserve" font-family="MarkerFelt-Thin" font-size="31.7" fill="#858585" transform="matrix(1.00, 0.00, -0.00, -1.00, 248.6, 136.0)">i</text><text xml:space="preserve" font-family="MarkerFelt-Thin" font-size="31.7" fill="#858585" transform="matrix(1.00, 0.00, -0.00, -1.00, 256.4, 136.0)">n</text><text xml:space="preserve" font-family="MarkerFelt-Thin" font-size="31.7" fill="#858585" transform="matrix(1.00, 0.00, -0.00, -1.00, 273.2, 136.0)">s</text><text xml:space="preserve" font-family="MarkerFelt-Thin" font-size="31.7" fill="#858585" transform="matrix(1.00, 0.00, -0.00, -1.00, 287.0, 136.0)">t</text><text xml:space="preserve" font-family="MarkerFelt-Thin" font-size="31.7" fill="#858585" transform="matrix(1.00, 0.00, -0.00, -1.00, 300.0, 136.0)">a</text><text xml:space="preserve" font-family="MarkerFelt-Thin" font-size="31.7" fill="#858585" transform="matrix(1.00, 0.00, -0.00, -1.00, 316.1, 136.0)">l</text><text xml:space="preserve" font-family="MarkerFelt-Thin" font-size="31.7" fill="#858585" transform="matrix(1.00, 0.00, -0.00, -1.00, 324.0, 136.0)">l</text><text xml:space="preserve" font-family="MarkerFelt-Thin" font-size="31.7" fill="#858585" transform="matrix(1.00, 0.00, -0.00, -1.00, 330.4, 136.0)"> </text><g><clipPath id="clip-89"><path d="M 144.3 70.5 L 162.7 70.5 L 162.7 87.7 L 144.3 87.7 Z M 144.3 70.5 "></path></clipPath><g clip-path="url(#clip-89)"><path d="M 162.4 76.7 C 162.6 76.5 162.7 76.2 162.7 75.9 C 162.7 75.4 162.4 74.9 161.8 74.4 C 161.2 73.9 160.5 73.7 159.7 73.7 C 158.7 73.7 157.5 74.4 156.2 75.9 C 156.2 75.9 156.2 73.7 156.2 73.7 C 156.2 73.5 156.3 73.2 156.4 72.9 C 156.5 72.6 156.6 72.4 156.6 72.2 C 156.6 71.8 156.3 71.4 155.9 71.0 C 155.4 70.7 154.9 70.5 154.5 70.5 C 153.6 70.5 152.9 70.9 152.3 71.6 C 152.1 71.8 152.1 72.4 152.1 73.4 C 152.2 74.4 152.2 75.4 152.3 76.4 C 151.8 76.1 150.8 75.5 149.4 74.8 C 149.2 74.5 148.6 74.2 147.6 73.8 C 146.9 73.8 146.2 73.9 145.4 74.2 C 144.6 74.6 144.3 75.0 144.3 75.6 C 144.3 75.8 144.3 75.9 144.4 76.1 C 144.5 76.4 144.8 76.6 145.3 76.8 C 146.1 77.0 146.5 77.2 146.5 77.2 C 146.5 77.2 150.6 79.4 150.6 79.4 C 150.6 79.4 147.7 80.8 147.7 80.8 C 147.3 80.8 146.7 81.0 146.1 81.4 C 145.9 81.6 145.8 81.9 145.8 82.1 C 145.8 82.8 146.2 83.5 147.1 84.1 C 147.9 84.8 148.7 85.1 149.5 85.1 C 149.8 85.1 150.0 85.1 150.3 85.0 C 150.6 84.9 150.8 84.6 151.0 84.2 C 151.3 83.7 151.7 83.3 152.3 82.9 C 152.3 82.9 152.4 85.5 152.4 85.5 C 152.3 85.9 152.3 86.4 152.4 87.1 C 152.7 87.5 153.5 87.7 154.6 87.7 C 155.7 87.7 156.4 87.4 156.7 86.8 C 156.9 86.6 156.9 86.0 156.8 85.0 C 156.7 84.2 156.6 83.4 156.5 82.6 C 156.5 82.6 158.0 83.3 158.0 83.3 C 158.3 83.6 158.9 84.0 159.7 84.3 C 160.3 84.4 160.9 84.2 161.4 83.7 C 162.0 83.2 162.3 82.6 162.3 82.1 C 162.3 81.8 162.2 81.6 162.1 81.4 C 161.9 81.1 161.7 81.0 161.3 80.9 C 160.8 80.8 160.5 80.7 160.4 80.6 C 160.4 80.6 158.2 79.0 158.2 79.0 C 158.2 79.0 161.0 77.5 161.0 77.5 C 161.4 77.4 161.9 77.1 162.4 76.7 Z M 162.4 76.7 " fill="#3995D6"></path></g></g><text xml:space="preserve" font-family="MarkerFelt-Thin" font-size="31.7" fill="#858585" transform="matrix(1.00, 0.00, -0.00, -1.00, 175.0, 69.0)">p</text><text xml:space="preserve" font-family="MarkerFelt-Thin" font-size="31.7" fill="#858585" transform="matrix(1.00, 0.00, -0.00, -1.00, 189.8, 69.0)">i</text><text xml:space="preserve" font-family="MarkerFelt-Thin" font-size="31.7" fill="#858585" transform="matrix(1.00, 0.00, -0.00, -1.00, 197.6, 69.0)">p</text><g><clipPath id="clip-90"><path d="M 543.3 403.9 L 564.2 403.9 L 564.2 423.5 L 543.3 423.5 Z M 543.3 403.9 "></path></clipPath><g clip-path="url(#clip-90)"><path d="M 563.9 410.9 C 564.1 410.6 564.2 410.3 564.2 410.0 C 564.2 409.4 563.9 408.8 563.2 408.3 C 562.5 407.7 561.7 407.5 560.8 407.5 C 559.7 407.5 558.3 408.3 556.8 410.0 C 556.8 410.0 556.8 407.5 556.8 407.5 C 556.8 407.2 556.9 406.9 557.0 406.6 C 557.2 406.2 557.3 406.0 557.3 405.8 C 557.3 405.3 557.0 404.8 556.5 404.5 C 555.9 404.1 555.4 403.9 554.9 403.9 C 553.9 403.9 553.1 404.3 552.4 405.1 C 552.2 405.4 552.1 406.1 552.2 407.2 C 552.2 408.3 552.3 409.5 552.4 410.6 C 551.8 410.2 550.7 409.6 549.1 408.7 C 548.9 408.4 548.2 408.0 547.1 407.7 C 546.3 407.6 545.4 407.7 544.6 408.1 C 543.7 408.5 543.3 409.0 543.3 409.7 C 543.3 409.9 543.3 410.0 543.4 410.2 C 543.6 410.6 543.9 410.8 544.4 411.0 C 545.3 411.3 545.8 411.4 545.9 411.5 C 545.9 411.5 550.5 414.0 550.5 414.0 C 550.5 414.0 547.2 415.6 547.2 415.6 C 546.7 415.6 546.1 415.8 545.3 416.3 C 545.1 416.5 545.1 416.8 545.1 417.1 C 545.1 417.8 545.5 418.6 546.4 419.3 C 547.4 420.1 548.3 420.5 549.2 420.5 C 549.5 420.5 549.8 420.4 550.1 420.3 C 550.4 420.2 550.7 419.9 551.0 419.5 C 551.3 418.9 551.7 418.4 552.4 418.0 C 552.4 418.0 552.5 420.9 552.5 420.9 C 552.4 421.4 552.4 421.9 552.5 422.7 C 552.9 423.2 553.7 423.5 555.0 423.5 C 556.2 423.5 557.0 423.1 557.4 422.4 C 557.6 422.1 557.6 421.5 557.5 420.4 C 557.4 419.4 557.3 418.5 557.2 417.6 C 557.2 417.6 558.9 418.4 558.9 418.4 C 559.3 418.8 559.9 419.2 560.8 419.6 C 561.5 419.6 562.1 419.4 562.8 418.8 C 563.4 418.3 563.7 417.7 563.7 417.0 C 563.7 416.7 563.6 416.5 563.5 416.2 C 563.3 416.0 563.0 415.8 562.6 415.7 C 562.1 415.6 561.7 415.5 561.6 415.4 C 561.6 415.4 559.0 413.6 559.0 413.6 C 559.0 413.6 562.3 411.8 562.3 411.8 C 562.7 411.7 563.3 411.4 563.9 410.9 Z M 563.9 410.9 " fill="#3995D6"></path></g></g><text xml:space="preserve" font-family="MarkerFelt-Thin" font-size="36.0" fill="#858585" transform="matrix(1.00, 0.00, -0.00, -1.00, 578.0, 402.0)">P</text><text xml:space="preserve" font-family="MarkerFelt-Thin" font-size="36.0" fill="#858585" transform="matrix(1.00, 0.00, -0.00, -1.00, 594.2, 402.0)">r</text><text xml:space="preserve" font-family="MarkerFelt-Thin" font-size="36.0" fill="#858585" transform="matrix(1.00, 0.00, -0.00, -1.00, 608.8, 402.0)">o</text><text xml:space="preserve" font-family="MarkerFelt-Thin" font-size="36.0" fill="#858585" transform="matrix(1.00, 0.00, -0.00, -1.00, 624.9, 402.0)">j</text><text xml:space="preserve" font-family="MarkerFelt-Thin" font-size="36.0" fill="#858585" transform="matrix(1.00, 0.00, -0.00, -1.00, 633.2, 402.0)">e</text><text xml:space="preserve" font-family="MarkerFelt-Thin" font-size="36.0" fill="#858585" transform="matrix(1.00, 0.00, -0.00, -1.00, 649.1, 402.0)">c</text><text xml:space="preserve" font-family="MarkerFelt-Thin" font-size="36.0" fill="#858585" transform="matrix(1.00, 0.00, -0.00, -1.00, 664.8, 402.0)">t</text><text xml:space="preserve" font-family="MarkerFelt-Thin" font-size="36.0" fill="#858585" transform="matrix(1.00, 0.00, -0.00, -1.00, 677.8, 402.0)"> </text><text xml:space="preserve" font-family="MarkerFelt-Thin" font-size="36.0" fill="#858585" transform="matrix(1.00, 0.00, -0.00, -1.00, 686.8, 402.0)">c</text><text xml:space="preserve" font-family="MarkerFelt-Thin" font-size="36.0" fill="#858585" transform="matrix(1.00, 0.00, -0.00, -1.00, 701.7, 402.0)">r</text><text xml:space="preserve" font-family="MarkerFelt-Thin" font-size="36.0" fill="#858585" transform="matrix(1.00, 0.00, -0.00, -1.00, 715.4, 402.0)">e</text><text xml:space="preserve" font-family="MarkerFelt-Thin" font-size="36.0" fill="#858585" transform="matrix(1.00, 0.00, -0.00, -1.00, 732.1, 402.0)">a</text><text xml:space="preserve" font-family="MarkerFelt-Thin" font-size="36.0" fill="#858585" transform="matrix(1.00, 0.00, -0.00, -1.00, 749.7, 402.0)">t</text><text xml:space="preserve" font-family="MarkerFelt-Thin" font-size="36.0" fill="#858585" transform="matrix(1.00, 0.00, -0.00, -1.00, 765.2, 402.0)">i</text><text xml:space="preserve" font-family="MarkerFelt-Thin" font-size="36.0" fill="#858585" transform="matrix(1.00, 0.00, -0.00, -1.00, 773.5, 402.0)">o</text><text xml:space="preserve" font-family="MarkerFelt-Thin" font-size="36.0" fill="#858585" transform="matrix(1.00, 0.00, -0.00, -1.00, 789.8, 402.0)">n</text><text xml:space="preserve" font-family="MarkerFelt-Thin" font-size="36.0" fill="#858585" transform="matrix(1.00, 0.00, -0.00, -1.00, 807.5, 402.0)"> </text><g><clipPath id="clip-91"><path d="M 578.3 326.9 L 599.2 326.9 L 599.2 346.5 L 578.3 346.5 Z M 578.3 326.9 "></path></clipPath><g clip-path="url(#clip-91)"><path d="M 598.9 333.9 C 599.1 333.6 599.2 333.3 599.2 333.0 C 599.2 332.4 598.9 331.8 598.2 331.3 C 597.5 330.7 596.7 330.5 595.8 330.5 C 594.7 330.5 593.3 331.3 591.8 333.0 C 591.8 333.0 591.8 330.5 591.8 330.5 C 591.8 330.2 591.9 329.9 592.0 329.6 C 592.2 329.2 592.3 329.0 592.3 328.8 C 592.3 328.3 592.0 327.8 591.5 327.5 C 590.9 327.1 590.4 326.9 589.9 326.9 C 588.9 326.9 588.1 327.3 587.4 328.1 C 587.2 328.4 587.1 329.1 587.2 330.2 C 587.2 331.3 587.3 332.5 587.4 333.6 C 586.8 333.2 585.7 332.6 584.1 331.7 C 583.9 331.4 583.2 331.0 582.1 330.7 C 581.3 330.6 580.4 330.7 579.6 331.1 C 578.7 331.5 578.3 332.0 578.3 332.7 C 578.3 332.9 578.3 333.0 578.4 333.2 C 578.6 333.6 578.9 333.8 579.4 334.0 C 580.3 334.3 580.8 334.4 580.9 334.5 C 580.9 334.5 585.5 337.0 585.5 337.0 C 585.5 337.0 582.2 338.6 582.2 338.6 C 581.7 338.6 581.1 338.8 580.3 339.3 C 580.1 339.5 580.1 339.8 580.1 340.1 C 580.1 340.8 580.5 341.6 581.4 342.3 C 582.4 343.1 583.3 343.5 584.2 343.5 C 584.5 343.5 584.8 343.4 585.1 343.3 C 585.4 343.2 585.7 342.9 586.0 342.5 C 586.3 341.9 586.7 341.4 587.4 341.0 C 587.4 341.0 587.5 343.9 587.5 343.9 C 587.4 344.4 587.4 344.9 587.5 345.7 C 587.9 346.2 588.7 346.5 590.0 346.5 C 591.2 346.5 592.0 346.1 592.4 345.4 C 592.6 345.1 592.6 344.5 592.5 343.4 C 592.4 342.4 592.3 341.5 592.2 340.6 C 592.2 340.6 593.9 341.4 593.9 341.4 C 594.3 341.8 594.9 342.2 595.8 342.6 C 596.5 342.6 597.1 342.4 597.8 341.8 C 598.4 341.3 598.7 340.7 598.7 340.0 C 598.7 339.7 598.6 339.5 598.5 339.2 C 598.3 339.0 598.0 338.8 597.6 338.7 C 597.1 338.6 596.7 338.5 596.6 338.4 C 596.6 338.4 594.0 336.6 594.0 336.6 C 594.0 336.6 597.3 334.8 597.3 334.8 C 597.7 334.7 598.3 334.4 598.9 333.9 Z M 598.9 333.9 " fill="#3995D6"></path></g></g><text xml:space="preserve" font-family="MarkerFelt-Thin" font-size="36.0" fill="#858585" transform="matrix(1.00, 0.00, -0.00, -1.00, 613.0, 325.0)">l</text><text xml:space="preserve" font-family="MarkerFelt-Thin" font-size="36.0" fill="#858585" transform="matrix(1.00, 0.00, -0.00, -1.00, 621.1, 325.0)">e</text><text xml:space="preserve" font-family="MarkerFelt-Thin" font-size="36.0" fill="#858585" transform="matrix(1.00, 0.00, -0.00, -1.00, 637.2, 325.0)">i</text><text xml:space="preserve" font-family="MarkerFelt-Thin" font-size="36.0" fill="#858585" transform="matrix(1.00, 0.00, -0.00, -1.00, 646.1, 325.0)">n</text><text xml:space="preserve" font-family="MarkerFelt-Thin" font-size="36.0" fill="#858585" transform="matrix(1.00, 0.00, -0.00, -1.00, 665.2, 325.0)">i</text><text xml:space="preserve" font-family="MarkerFelt-Thin" font-size="36.0" fill="#858585" transform="matrix(1.00, 0.00, -0.00, -1.00, 674.1, 325.0)">n</text><text xml:space="preserve" font-family="MarkerFelt-Thin" font-size="36.0" fill="#858585" transform="matrix(1.00, 0.00, -0.00, -1.00, 692.8, 325.0)">g</text><text xml:space="preserve" font-family="MarkerFelt-Thin" font-size="36.0" fill="#858585" transform="matrix(1.00, 0.00, -0.00, -1.00, 709.0, 325.0)">e</text><text xml:space="preserve" font-family="MarkerFelt-Thin" font-size="36.0" fill="#858585" transform="matrix(1.00, 0.00, -0.00, -1.00, 725.0, 325.0)">n</text><text xml:space="preserve" font-family="MarkerFelt-Thin" font-size="36.0" fill="#858585" transform="matrix(1.00, 0.00, -0.00, -1.00, 742.6, 325.0)"> </text><g><clipPath id="clip-92"><path d="M 578.3 249.9 L 599.2 249.9 L 599.2 269.5 L 578.3 269.5 Z M 578.3 249.9 "></path></clipPath><g clip-path="url(#clip-92)"><path d="M 598.9 256.9 C 599.1 256.6 599.2 256.3 599.2 256.0 C 599.2 255.4 598.9 254.8 598.2 254.3 C 597.5 253.7 596.7 253.5 595.8 253.5 C 594.7 253.5 593.3 254.3 591.8 256.0 C 591.8 256.0 591.8 253.5 591.8 253.5 C 591.8 253.2 591.9 252.9 592.0 252.6 C 592.2 252.2 592.3 252.0 592.3 251.8 C 592.3 251.3 592.0 250.8 591.5 250.5 C 590.9 250.1 590.4 249.9 589.9 249.9 C 588.9 249.9 588.1 250.3 587.4 251.1 C 587.2 251.4 587.1 252.1 587.2 253.2 C 587.2 254.3 587.3 255.5 587.4 256.6 C 586.8 256.2 585.7 255.6 584.1 254.7 C 583.9 254.4 583.2 254.0 582.1 253.7 C 581.3 253.6 580.4 253.7 579.6 254.1 C 578.7 254.5 578.3 255.0 578.3 255.7 C 578.3 255.9 578.3 256.0 578.4 256.2 C 578.6 256.6 578.9 256.8 579.4 257.0 C 580.3 257.3 580.8 257.4 580.9 257.5 C 580.9 257.5 585.5 260.0 585.5 260.0 C 585.5 260.0 582.2 261.6 582.2 261.6 C 581.7 261.6 581.1 261.8 580.3 262.3 C 580.1 262.5 580.1 262.8 580.1 263.1 C 580.1 263.8 580.5 264.6 581.4 265.3 C 582.4 266.1 583.3 266.5 584.2 266.5 C 584.5 266.5 584.8 266.4 585.1 266.3 C 585.4 266.2 585.7 265.9 586.0 265.5 C 586.3 264.9 586.7 264.4 587.4 264.0 C 587.4 264.0 587.5 266.9 587.5 266.9 C 587.4 267.4 587.4 267.9 587.5 268.7 C 587.9 269.2 588.7 269.5 590.0 269.5 C 591.2 269.5 592.0 269.1 592.4 268.4 C 592.6 268.1 592.6 267.5 592.5 266.4 C 592.4 265.4 592.3 264.5 592.2 263.6 C 592.2 263.6 593.9 264.4 593.9 264.4 C 594.3 264.8 594.9 265.2 595.8 265.6 C 596.5 265.6 597.1 265.4 597.8 264.8 C 598.4 264.3 598.7 263.7 598.7 263.0 C 598.7 262.7 598.6 262.5 598.5 262.2 C 598.3 262.0 598.0 261.8 597.6 261.7 C 597.1 261.6 596.7 261.5 596.6 261.4 C 596.6 261.4 594.0 259.6 594.0 259.6 C 594.0 259.6 597.3 257.8 597.3 257.8 C 597.7 257.7 598.3 257.4 598.9 256.9 Z M 598.9 256.9 " fill="#3995D6"></path></g></g><text xml:space="preserve" font-family="MarkerFelt-Thin" font-size="36.0" fill="#858585" transform="matrix(1.00, 0.00, -0.00, -1.00, 613.0, 248.0)">l</text><text xml:space="preserve" font-family="MarkerFelt-Thin" font-size="36.0" fill="#858585" transform="matrix(1.00, 0.00, -0.00, -1.00, 621.1, 248.0)">e</text><text xml:space="preserve" font-family="MarkerFelt-Thin" font-size="36.0" fill="#858585" transform="matrix(1.00, 0.00, -0.00, -1.00, 637.2, 248.0)">i</text><text xml:space="preserve" font-family="MarkerFelt-Thin" font-size="36.0" fill="#858585" transform="matrix(1.00, 0.00, -0.00, -1.00, 646.1, 248.0)">n</text><text xml:space="preserve" font-family="MarkerFelt-Thin" font-size="36.0" fill="#858585" transform="matrix(1.00, 0.00, -0.00, -1.00, 663.7, 248.0)"> </text><text xml:space="preserve" font-family="MarkerFelt-Thin" font-size="36.0" fill="#858585" transform="matrix(1.00, 0.00, -0.00, -1.00, 672.7, 248.0)">n</text><text xml:space="preserve" font-family="MarkerFelt-Thin" font-size="36.0" fill="#858585" transform="matrix(1.00, 0.00, -0.00, -1.00, 691.3, 248.0)">e</text><text xml:space="preserve" font-family="MarkerFelt-Thin" font-size="36.0" fill="#858585" transform="matrix(1.00, 0.00, -0.00, -1.00, 707.9, 248.0)">w</text><text xml:space="preserve" font-family="MarkerFelt-Thin" font-size="36.0" fill="#858585" transform="matrix(1.00, 0.00, -0.00, -1.00, 733.9, 248.0)"> </text><text xml:space="preserve" font-family="MarkerFelt-Thin" font-size="36.0" fill="#858585" transform="matrix(1.00, 0.00, -0.00, -1.00, 742.9, 248.0)">m</text><text xml:space="preserve" font-family="MarkerFelt-Thin" font-size="36.0" fill="#858585" transform="matrix(1.00, 0.00, -0.00, -1.00, 768.8, 248.0)">e</text><text xml:space="preserve" font-family="MarkerFelt-Thin" font-size="36.0" fill="#858585" transform="matrix(1.00, 0.00, -0.00, -1.00, 784.6, 248.0)">g</text><text xml:space="preserve" font-family="MarkerFelt-Thin" font-size="36.0" fill="#858585" transform="matrix(1.00, 0.00, -0.00, -1.00, 801.6, 248.0)">a</text><text xml:space="preserve" font-family="MarkerFelt-Thin" font-size="36.0" fill="#858585" transform="matrix(1.00, 0.00, -0.00, -1.00, 818.1, 248.0)"> </text><g><clipPath id="clip-93"><path d="M 543.3 172.9 L 564.2 172.9 L 564.2 192.5 L 543.3 192.5 Z M 543.3 172.9 "></path></clipPath><g clip-path="url(#clip-93)"><path d="M 563.9 179.9 C 564.1 179.6 564.2 179.3 564.2 179.0 C 564.2 178.4 563.9 177.8 563.2 177.3 C 562.5 176.7 561.7 176.5 560.8 176.5 C 559.7 176.5 558.3 177.3 556.8 179.0 C 556.8 179.0 556.8 176.5 556.8 176.5 C 556.8 176.2 556.9 175.9 557.0 175.6 C 557.2 175.2 557.3 175.0 557.3 174.8 C 557.3 174.3 557.0 173.8 556.5 173.5 C 555.9 173.1 555.4 172.9 554.9 172.9 C 553.9 172.9 553.1 173.3 552.4 174.1 C 552.2 174.4 552.1 175.1 552.2 176.2 C 552.2 177.3 552.3 178.5 552.4 179.6 C 551.8 179.2 550.7 178.6 549.1 177.7 C 548.9 177.4 548.2 177.0 547.1 176.7 C 546.3 176.6 545.4 176.7 544.6 177.1 C 543.7 177.5 543.3 178.0 543.3 178.7 C 543.3 178.9 543.3 179.0 543.4 179.2 C 543.6 179.6 543.9 179.8 544.4 180.0 C 545.3 180.3 545.8 180.4 545.9 180.5 C 545.9 180.5 550.5 183.0 550.5 183.0 C 550.5 183.0 547.2 184.6 547.2 184.6 C 546.7 184.6 546.1 184.8 545.3 185.3 C 545.1 185.5 545.1 185.8 545.1 186.1 C 545.1 186.8 545.5 187.6 546.4 188.3 C 547.4 189.1 548.3 189.5 549.2 189.5 C 549.5 189.5 549.8 189.4 550.1 189.3 C 550.4 189.2 550.7 188.9 551.0 188.5 C 551.3 187.9 551.7 187.4 552.4 187.0 C 552.4 187.0 552.5 189.9 552.5 189.9 C 552.4 190.4 552.4 190.9 552.5 191.7 C 552.9 192.2 553.7 192.5 555.0 192.5 C 556.2 192.5 557.0 192.1 557.4 191.4 C 557.6 191.1 557.6 190.5 557.5 189.4 C 557.4 188.4 557.3 187.5 557.2 186.6 C 557.2 186.6 558.9 187.4 558.9 187.4 C 559.3 187.8 559.9 188.2 560.8 188.6 C 561.5 188.6 562.1 188.4 562.8 187.8 C 563.4 187.3 563.7 186.7 563.7 186.0 C 563.7 185.7 563.6 185.5 563.5 185.2 C 563.3 185.0 563.0 184.8 562.6 184.7 C 562.1 184.6 561.7 184.5 561.6 184.4 C 561.6 184.4 559.0 182.6 559.0 182.6 C 559.0 182.6 562.3 180.8 562.3 180.8 C 562.7 180.7 563.3 180.4 563.9 179.9 Z M 563.9 179.9 " fill="#3995D6"></path></g></g><text xml:space="preserve" font-family="MarkerFelt-Thin" font-size="36.0" fill="#858585" transform="matrix(1.00, 0.00, -0.00, -1.00, 578.0, 171.0)">D</text><text xml:space="preserve" font-family="MarkerFelt-Thin" font-size="36.0" fill="#858585" transform="matrix(1.00, 0.00, -0.00, -1.00, 594.8, 171.0)">e</text><text xml:space="preserve" font-family="MarkerFelt-Thin" font-size="36.0" fill="#858585" transform="matrix(1.00, 0.00, -0.00, -1.00, 610.4, 171.0)">p</text><text xml:space="preserve" font-family="MarkerFelt-Thin" font-size="36.0" fill="#858585" transform="matrix(1.00, 0.00, -0.00, -1.00, 627.2, 171.0)">e</text><text xml:space="preserve" font-family="MarkerFelt-Thin" font-size="36.0" fill="#858585" transform="matrix(1.00, 0.00, -0.00, -1.00, 643.2, 171.0)">n</text><text xml:space="preserve" font-family="MarkerFelt-Thin" font-size="36.0" fill="#858585" transform="matrix(1.00, 0.00, -0.00, -1.00, 662.2, 171.0)">d</text><text xml:space="preserve" font-family="MarkerFelt-Thin" font-size="36.0" fill="#858585" transform="matrix(1.00, 0.00, -0.00, -1.00, 677.7, 171.0)">e</text><text xml:space="preserve" font-family="MarkerFelt-Thin" font-size="36.0" fill="#858585" transform="matrix(1.00, 0.00, -0.00, -1.00, 693.7, 171.0)">n</text><text xml:space="preserve" font-family="MarkerFelt-Thin" font-size="36.0" fill="#858585" transform="matrix(1.00, 0.00, -0.00, -1.00, 712.5, 171.0)">c</text><text xml:space="preserve" font-family="MarkerFelt-Thin" font-size="36.0" fill="#858585" transform="matrix(1.00, 0.00, -0.00, -1.00, 727.0, 171.0)">y</text><text xml:space="preserve" font-family="MarkerFelt-Thin" font-size="36.0" fill="#858585" transform="matrix(1.00, 0.00, -0.00, -1.00, 743.9, 171.0)"> </text><text xml:space="preserve" font-family="MarkerFelt-Thin" font-size="36.0" fill="#858585" transform="matrix(1.00, 0.00, -0.00, -1.00, 752.9, 171.0)">m</text><text xml:space="preserve" font-family="MarkerFelt-Thin" font-size="36.0" fill="#858585" transform="matrix(1.00, 0.00, -0.00, -1.00, 780.6, 171.0)">a</text><text xml:space="preserve" font-family="MarkerFelt-Thin" font-size="36.0" fill="#858585" transform="matrix(1.00, 0.00, -0.00, -1.00, 798.6, 171.0)">n</text><text xml:space="preserve" font-family="MarkerFelt-Thin" font-size="36.0" fill="#858585" transform="matrix(1.00, 0.00, -0.00, -1.00, 818.3, 171.0)">a</text><text xml:space="preserve" font-family="MarkerFelt-Thin" font-size="36.0" fill="#858585" transform="matrix(1.00, 0.00, -0.00, -1.00, 835.6, 171.0)">g</text><text xml:space="preserve" font-family="MarkerFelt-Thin" font-size="36.0" fill="#858585" transform="matrix(1.00, 0.00, -0.00, -1.00, 851.8, 171.0)">e</text><text xml:space="preserve" font-family="MarkerFelt-Thin" font-size="36.0" fill="#858585" transform="matrix(1.00, 0.00, -0.00, -1.00, 866.9, 171.0)">m</text><text xml:space="preserve" font-family="MarkerFelt-Thin" font-size="36.0" fill="#858585" transform="matrix(1.00, 0.00, -0.00, -1.00, 892.9, 171.0)">e</text><text xml:space="preserve" font-family="MarkerFelt-Thin" font-size="36.0" fill="#858585" transform="matrix(1.00, 0.00, -0.00, -1.00, 908.8, 171.0)">n</text><text xml:space="preserve" font-family="MarkerFelt-Thin" font-size="36.0" fill="#858585" transform="matrix(1.00, 0.00, -0.00, -1.00, 928.6, 171.0)">t</text><text xml:space="preserve" font-family="MarkerFelt-Thin" font-size="36.0" fill="#858585" transform="matrix(1.00, 0.00, -0.00, -1.00, 941.5, 171.0)"> </text><g><clipPath id="clip-94"><path d="M 578.3 95.9 L 599.2 95.9 L 599.2 115.5 L 578.3 115.5 Z M 578.3 95.9 "></path></clipPath><g clip-path="url(#clip-94)"><path d="M 598.9 102.9 C 599.1 102.6 599.2 102.3 599.2 102.0 C 599.2 101.4 598.9 100.8 598.2 100.3 C 597.5 99.7 596.7 99.5 595.8 99.5 C 594.7 99.5 593.3 100.3 591.8 102.0 C 591.8 102.0 591.8 99.5 591.8 99.5 C 591.8 99.2 591.9 98.9 592.0 98.6 C 592.2 98.2 592.3 98.0 592.3 97.8 C 592.3 97.3 592.0 96.8 591.5 96.5 C 590.9 96.1 590.4 95.9 589.9 95.9 C 588.9 95.9 588.1 96.3 587.4 97.1 C 587.2 97.4 587.1 98.1 587.2 99.2 C 587.2 100.3 587.3 101.5 587.4 102.6 C 586.8 102.2 585.7 101.6 584.1 100.7 C 583.9 100.4 583.2 100.0 582.1 99.7 C 581.3 99.6 580.4 99.7 579.6 100.1 C 578.7 100.5 578.3 101.0 578.3 101.7 C 578.3 101.9 578.3 102.0 578.4 102.2 C 578.6 102.6 578.9 102.8 579.4 103.0 C 580.3 103.3 580.8 103.4 580.9 103.5 C 580.9 103.5 585.5 106.0 585.5 106.0 C 585.5 106.0 582.2 107.6 582.2 107.6 C 581.7 107.6 581.1 107.8 580.3 108.3 C 580.1 108.5 580.1 108.8 580.1 109.1 C 580.1 109.8 580.5 110.6 581.4 111.3 C 582.4 112.1 583.3 112.5 584.2 112.5 C 584.5 112.5 584.8 112.4 585.1 112.3 C 585.4 112.2 585.7 111.9 586.0 111.5 C 586.3 110.9 586.7 110.4 587.4 110.0 C 587.4 110.0 587.5 112.9 587.5 112.9 C 587.4 113.4 587.4 113.9 587.5 114.7 C 587.9 115.2 588.7 115.5 590.0 115.5 C 591.2 115.5 592.0 115.1 592.4 114.4 C 592.6 114.1 592.6 113.5 592.5 112.4 C 592.4 111.4 592.3 110.5 592.2 109.6 C 592.2 109.6 593.9 110.4 593.9 110.4 C 594.3 110.8 594.9 111.2 595.8 111.6 C 596.5 111.6 597.1 111.4 597.8 110.8 C 598.4 110.3 598.7 109.7 598.7 109.0 C 598.7 108.7 598.6 108.5 598.5 108.2 C 598.3 108.0 598.0 107.8 597.6 107.7 C 597.1 107.6 596.7 107.5 596.6 107.4 C 596.6 107.4 594.0 105.6 594.0 105.6 C 594.0 105.6 597.3 103.8 597.3 103.8 C 597.7 103.7 598.3 103.4 598.9 102.9 Z M 598.9 102.9 " fill="#3995D6"></path></g></g><text xml:space="preserve" font-family="MarkerFelt-Thin" font-size="36.0" fill="#858585" transform="matrix(1.00, 0.00, -0.00, -1.00, 613.0, 94.0)">l</text><text xml:space="preserve" font-family="MarkerFelt-Thin" font-size="36.0" fill="#858585" transform="matrix(1.00, 0.00, -0.00, -1.00, 621.1, 94.0)">e</text><text xml:space="preserve" font-family="MarkerFelt-Thin" font-size="36.0" fill="#858585" transform="matrix(1.00, 0.00, -0.00, -1.00, 637.2, 94.0)">i</text><text xml:space="preserve" font-family="MarkerFelt-Thin" font-size="36.0" fill="#858585" transform="matrix(1.00, 0.00, -0.00, -1.00, 646.1, 94.0)">n</text><text xml:space="preserve" font-family="MarkerFelt-Thin" font-size="36.0" fill="#858585" transform="matrix(1.00, 0.00, -0.00, -1.00, 665.2, 94.0)">i</text><text xml:space="preserve" font-family="MarkerFelt-Thin" font-size="36.0" fill="#858585" transform="matrix(1.00, 0.00, -0.00, -1.00, 674.1, 94.0)">n</text><text xml:space="preserve" font-family="MarkerFelt-Thin" font-size="36.0" fill="#858585" transform="matrix(1.00, 0.00, -0.00, -1.00, 692.8, 94.0)">g</text><text xml:space="preserve" font-family="MarkerFelt-Thin" font-size="36.0" fill="#858585" transform="matrix(1.00, 0.00, -0.00, -1.00, 709.0, 94.0)">e</text><text xml:space="preserve" font-family="MarkerFelt-Thin" font-size="36.0" fill="#858585" transform="matrix(1.00, 0.00, -0.00, -1.00, 725.0, 94.0)">n</text><image xlink:href="44EE602832D8BA78DE0D379203F80C60.png" width="375.00" height="106.00" transform="matrix(1.00, 0.00, -0.00, -1.00, 70.4, 557.6)" opacity="0.70"></image><image xlink:href="../../910212AF-1AE5-4F51-9139-BD01718D421A/assets/1640EA019826AB6011171EEA0FA1B1FF.png" width="375.00" height="106.00" transform="matrix(1.00, 0.00, -0.00, -1.00, 70.0, 568.0)"></image><image xlink:href="547EA4EA9DA778A1FFF090B6C2516D64.png" width="402.00" height="146.00" transform="matrix(1.00, 0.00, -0.00, -1.00, 490.9, 577.6)" opacity="0.70"></image><image xlink:href="../../910212AF-1AE5-4F51-9139-BD01718D421A/assets/84D4918814398691FE01903DE05B406B.png" width="362.00" height="106.00" transform="matrix(1.00, 0.00, -0.00, -1.00, 511.0, 568.0)"></image></g></svg>