<?xml version="1.0" encoding="UTF-8" standalone="no"?><svg xmlns="http://www.w3.org/2000/svg" xmlns:xlink="http://www.w3.org/1999/xlink" clip-rule="evenodd" stroke-miterlimit="4.00" viewBox="0 0 159 40"><desc>SVG generated by Keynote</desc><defs></defs><g transform="matrix(1.00, 0.00, -0.00, -1.00, 0.0, 40.0)"><g><clipPath id="clip-73"><path d="M 0.0 10.5 L 21.0 10.5 L 21.0 30.1 L 0.0 30.1 Z M 0.0 10.5 "></path></clipPath><g clip-path="url(#clip-73)"><path d="M 20.7 17.5 C 20.9 17.3 21.0 16.9 21.0 16.6 C 21.0 16.0 20.6 15.4 19.9 14.9 C 19.2 14.4 18.4 14.1 17.6 14.1 C 16.4 14.1 15.1 14.9 13.6 16.6 C 13.6 16.6 13.6 14.1 13.6 14.1 C 13.6 13.8 13.6 13.6 13.8 13.2 C 13.9 12.9 14.0 12.6 14.0 12.4 C 14.0 11.9 13.7 11.5 13.2 11.1 C 12.7 10.7 12.1 10.5 11.6 10.5 C 10.6 10.5 9.8 10.9 9.1 11.8 C 8.9 12.0 8.9 12.7 8.9 13.8 C 9.0 14.9 9.0 16.1 9.1 17.2 C 8.5 16.8 7.4 16.2 5.8 15.3 C 5.6 15.0 4.9 14.6 3.8 14.3 C 3.0 14.2 2.2 14.3 1.3 14.7 C 0.4 15.1 0.0 15.6 0.0 16.3 C 0.0 16.5 0.0 16.6 0.1 16.8 C 0.3 17.2 0.6 17.4 1.2 17.6 C 2.0 17.9 2.5 18.0 2.6 18.1 C 2.6 18.1 7.2 20.6 7.2 20.6 C 7.2 20.6 3.9 22.2 3.9 22.2 C 3.5 22.2 2.8 22.4 2.0 22.9 C 1.9 23.1 1.8 23.4 1.8 23.7 C 1.8 24.5 2.2 25.2 3.2 26.0 C 4.1 26.7 5.0 27.1 6.0 27.1 C 6.3 27.1 6.6 27.0 6.9 26.9 C 7.2 26.8 7.5 26.5 7.7 26.1 C 8.0 25.5 8.5 25.0 9.1 24.6 C 9.1 24.6 9.2 27.6 9.2 27.6 C 9.1 28.0 9.1 28.6 9.2 29.3 C 9.6 29.8 10.5 30.1 11.8 30.1 C 13.0 30.1 13.8 29.7 14.2 29.0 C 14.3 28.7 14.4 28.1 14.2 27.0 C 14.2 26.1 14.1 25.1 13.9 24.2 C 13.9 24.2 15.7 25.0 15.7 25.0 C 16.0 25.4 16.6 25.8 17.6 26.2 C 18.2 26.3 18.9 26.0 19.5 25.4 C 20.1 24.9 20.5 24.3 20.5 23.6 C 20.5 23.3 20.4 23.1 20.2 22.8 C 20.1 22.6 19.8 22.4 19.4 22.3 C 18.8 22.2 18.5 22.1 18.3 22.0 C 18.3 22.0 15.8 20.2 15.8 20.2 C 15.8 20.2 19.0 18.4 19.0 18.4 C 19.5 18.3 20.0 18.0 20.7 17.5 Z M 20.7 17.5 " fill="#3995D6"></path></g></g><text xml:space="preserve" font-family="MarkerFelt-Thin" font-size="36.0" fill="#858585" transform="matrix(1.00, 0.00, -0.00, -1.00, 35.0, 9.0)">D</text><text xml:space="preserve" font-family="MarkerFelt-Thin" font-size="36.0" fill="#858585" transform="matrix(1.00, 0.00, -0.00, -1.00, 54.3, 9.0)">y</text><text xml:space="preserve" font-family="MarkerFelt-Thin" font-size="36.0" fill="#858585" transform="matrix(1.00, 0.00, -0.00, -1.00, 72.8, 9.0)">n</text><text xml:space="preserve" font-family="MarkerFelt-Thin" font-size="36.0" fill="#858585" transform="matrix(1.00, 0.00, -0.00, -1.00, 92.6, 9.0)">a</text><text xml:space="preserve" font-family="MarkerFelt-Thin" font-size="36.0" fill="#858585" transform="matrix(1.00, 0.00, -0.00, -1.00, 109.1, 9.0)">m</text><text xml:space="preserve" font-family="MarkerFelt-Thin" font-size="36.0" fill="#858585" transform="matrix(1.00, 0.00, -0.00, -1.00, 136.4, 9.0)">i</text><text xml:space="preserve" font-family="MarkerFelt-Thin" font-size="36.0" fill="#858585" transform="matrix(1.00, 0.00, -0.00, -1.00, 144.6, 9.0)">c</text></g></svg>