<?xml version="1.0" encoding="UTF-8" standalone="no"?><svg xmlns="http://www.w3.org/2000/svg" xmlns:xlink="http://www.w3.org/1999/xlink" clip-rule="evenodd" stroke-miterlimit="4.00" viewBox="0 0 1024 768"><desc>SVG generated by Keynote</desc><defs></defs><g transform="matrix(1.00, 0.00, -0.00, -1.00, 0.0, 768.0)"><path d="M 0.0 768.0 L 1024.0 768.0 L 1024.0 0.0 L 0.0 0.0 Z M 0.0 768.0 " fill="#FEFFFF"></path><text xml:space="preserve" font-family="Helvetica-Light" font-size="56.0" fill="#000000" transform="matrix(1.00, 0.00, -0.00, -1.00, 46.0, 679.0)">F</text><text xml:space="preserve" font-family="Helvetica-Light" font-size="56.0" fill="#000000" transform="matrix(1.00, 0.00, -0.00, -1.00, 77.1, 679.0)">o</text><text xml:space="preserve" font-family="Helvetica-Light" font-size="56.0" fill="#000000" transform="matrix(1.00, 0.00, -0.00, -1.00, 108.3, 679.0)">r</text><text xml:space="preserve" font-family="Helvetica-Light" font-size="56.0" fill="#000000" transform="matrix(1.00, 0.00, -0.00, -1.00, 126.9, 679.0)"> </text><text xml:space="preserve" font-family="Helvetica-Light" font-size="56.0" fill="#000000" transform="matrix(1.00, 0.00, -0.00, -1.00, 142.5, 679.0)">F</text><text xml:space="preserve" font-family="Helvetica-Light" font-size="56.0" fill="#000000" transform="matrix(1.00, 0.00, -0.00, -1.00, 173.6, 679.0)">u</text><text xml:space="preserve" font-family="Helvetica-Light" font-size="56.0" fill="#000000" transform="matrix(1.00, 0.00, -0.00, -1.00, 204.8, 679.0)">t</text><text xml:space="preserve" font-family="Helvetica-Light" font-size="56.0" fill="#000000" transform="matrix(1.00, 0.00, -0.00, -1.00, 220.3, 679.0)">u</text><text xml:space="preserve" font-family="Helvetica-Light" font-size="56.0" fill="#000000" transform="matrix(1.00, 0.00, -0.00, -1.00, 251.5, 679.0)">r</text><text xml:space="preserve" font-family="Helvetica-Light" font-size="56.0" fill="#000000" transform="matrix(1.00, 0.00, -0.00, -1.00, 269.1, 679.0)">e</text><text xml:space="preserve" font-family="Helvetica-Light" font-size="56.0" fill="#000000" transform="matrix(1.00, 0.00, -0.00, -1.00, 300.2, 679.0)"> </text><text xml:space="preserve" font-family="Helvetica-Light" font-size="56.0" fill="#000000" transform="matrix(1.00, 0.00, -0.00, -1.00, 315.8, 679.0)">R</text><text xml:space="preserve" font-family="Helvetica-Light" font-size="56.0" fill="#000000" transform="matrix(1.00, 0.00, -0.00, -1.00, 353.2, 679.0)">e</text><text xml:space="preserve" font-family="Helvetica-Light" font-size="56.0" fill="#000000" transform="matrix(1.00, 0.00, -0.00, -1.00, 384.3, 679.0)">f</text><text xml:space="preserve" font-family="Helvetica-Light" font-size="56.0" fill="#000000" transform="matrix(1.00, 0.00, -0.00, -1.00, 399.9, 679.0)">e</text><text xml:space="preserve" font-family="Helvetica-Light" font-size="56.0" fill="#000000" transform="matrix(1.00, 0.00, -0.00, -1.00, 431.0, 679.0)">r</text><text xml:space="preserve" font-family="Helvetica-Light" font-size="56.0" fill="#000000" transform="matrix(1.00, 0.00, -0.00, -1.00, 448.6, 679.0)">e</text><text xml:space="preserve" font-family="Helvetica-Light" font-size="56.0" fill="#000000" transform="matrix(1.00, 0.00, -0.00, -1.00, 479.8, 679.0)">n</text><text xml:space="preserve" font-family="Helvetica-Light" font-size="56.0" fill="#000000" transform="matrix(1.00, 0.00, -0.00, -1.00, 510.9, 679.0)">c</text><text xml:space="preserve" font-family="Helvetica-Light" font-size="56.0" fill="#000000" transform="matrix(1.00, 0.00, -0.00, -1.00, 542.0, 679.0)">e</text><text xml:space="preserve" font-family="Helvetica-Light" font-size="56.0" fill="#000000" transform="matrix(1.00, 0.00, -0.00, -1.00, 573.2, 679.0)">:</text><text xml:space="preserve" font-family="Helvetica-Light" font-size="56.0" fill="#000000" transform="matrix(1.00, 0.00, -0.00, -1.00, 588.8, 679.0)"> </text><text xml:space="preserve" font-family="Helvetica-Light" font-size="56.0" fill="#000000" transform="matrix(1.00, 0.00, -0.00, -1.00, 604.3, 679.0)">A</text><text xml:space="preserve" font-family="Helvetica-Light" font-size="56.0" fill="#000000" transform="matrix(1.00, 0.00, -0.00, -1.00, 641.7, 679.0)"> </text><text xml:space="preserve" font-family="Helvetica-Light" font-size="56.0" fill="#000000" transform="matrix(1.00, 0.00, -0.00, -1.00, 657.2, 679.0)">P</text><text xml:space="preserve" font-family="Helvetica-Light" font-size="56.0" fill="#000000" transform="matrix(1.00, 0.00, -0.00, -1.00, 691.5, 679.0)">o</text><text xml:space="preserve" font-family="Helvetica-Light" font-size="56.0" fill="#000000" transform="matrix(1.00, 0.00, -0.00, -1.00, 722.6, 679.0)">t</text><text xml:space="preserve" font-family="Helvetica-Light" font-size="56.0" fill="#000000" transform="matrix(1.00, 0.00, -0.00, -1.00, 738.2, 679.0)">e</text><text xml:space="preserve" font-family="Helvetica-Light" font-size="56.0" fill="#000000" transform="matrix(1.00, 0.00, -0.00, -1.00, 769.3, 679.0)">n</text><text xml:space="preserve" font-family="Helvetica-Light" font-size="56.0" fill="#000000" transform="matrix(1.00, 0.00, -0.00, -1.00, 800.4, 679.0)">t</text><text xml:space="preserve" font-family="Helvetica-Light" font-size="56.0" fill="#000000" transform="matrix(1.00, 0.00, -0.00, -1.00, 816.0, 679.0)">i</text><text xml:space="preserve" font-family="Helvetica-Light" font-size="56.0" fill="#000000" transform="matrix(1.00, 0.00, -0.00, -1.00, 828.4, 679.0)">a</text><text xml:space="preserve" font-family="Helvetica-Light" font-size="56.0" fill="#000000" transform="matrix(1.00, 0.00, -0.00, -1.00, 859.6, 679.0)">l</text><text xml:space="preserve" font-family="Helvetica-Light" font-size="56.0" fill="#000000" transform="matrix(1.00, 0.00, -0.00, -1.00, 872.0, 679.0)"> </text><text xml:space="preserve" font-family="Helvetica-Light" font-size="56.0" fill="#000000" transform="matrix(1.00, 0.00, -0.00, -1.00, 887.6, 679.0)">T</text><text xml:space="preserve" font-family="Helvetica-Light" font-size="56.0" fill="#000000" transform="matrix(1.00, 0.00, -0.00, -1.00, 912.5, 679.0)">o</text><text xml:space="preserve" font-family="Helvetica-Light" font-size="56.0" fill="#000000" transform="matrix(1.00, 0.00, -0.00, -1.00, 943.6, 679.0)">p</text><text xml:space="preserve" font-family="Helvetica-Light" font-size="56.0" fill="#000000" transform="matrix(1.00, 0.00, -0.00, -1.00, 977.8, 679.0)"> </text><text xml:space="preserve" font-family="Helvetica-Light" font-size="56.0" fill="#000000" transform="matrix(1.00, 0.00, -0.00, -1.00, 96.0, 612.0)">D</text><text xml:space="preserve" font-family="Helvetica-Light" font-size="56.0" fill="#000000" transform="matrix(1.00, 0.00, -0.00, -1.00, 136.4, 612.0)">o</text><text xml:space="preserve" font-family="Helvetica-Light" font-size="56.0" fill="#000000" transform="matrix(1.00, 0.00, -0.00, -1.00, 167.6, 612.0)">w</text><text xml:space="preserve" font-family="Helvetica-Light" font-size="56.0" fill="#000000" transform="matrix(1.00, 0.00, -0.00, -1.00, 208.0, 612.0)">n</text><text xml:space="preserve" font-family="Helvetica-Light" font-size="56.0" fill="#000000" transform="matrix(1.00, 0.00, -0.00, -1.00, 239.1, 612.0)"> </text><text xml:space="preserve" font-family="Helvetica-Light" font-size="56.0" fill="#000000" transform="matrix(1.00, 0.00, -0.00, -1.00, 254.7, 612.0)">C</text><text xml:space="preserve" font-family="Helvetica-Light" font-size="56.0" fill="#000000" transform="matrix(1.00, 0.00, -0.00, -1.00, 295.1, 612.0)">a</text><text xml:space="preserve" font-family="Helvetica-Light" font-size="56.0" fill="#000000" transform="matrix(1.00, 0.00, -0.00, -1.00, 326.3, 612.0)">r</text><text xml:space="preserve" font-family="Helvetica-Light" font-size="56.0" fill="#000000" transform="matrix(1.00, 0.00, -0.00, -1.00, 345.9, 612.0)">t</text><text xml:space="preserve" font-family="Helvetica-Light" font-size="56.0" fill="#000000" transform="matrix(1.00, 0.00, -0.00, -1.00, 361.5, 612.0)">a</text><text xml:space="preserve" font-family="Helvetica-Light" font-size="56.0" fill="#000000" transform="matrix(1.00, 0.00, -0.00, -1.00, 392.6, 612.0)">g</text><text xml:space="preserve" font-family="Helvetica-Light" font-size="56.0" fill="#000000" transform="matrix(1.00, 0.00, -0.00, -1.00, 426.8, 612.0)">e</text><text xml:space="preserve" font-family="Helvetica-Light" font-size="56.0" fill="#000000" transform="matrix(1.00, 0.00, -0.00, -1.00, 458.0, 612.0)">n</text><text xml:space="preserve" font-family="Helvetica-Light" font-size="56.0" fill="#000000" transform="matrix(1.00, 0.00, -0.00, -1.00, 489.1, 612.0)">a</text><text xml:space="preserve" font-family="Helvetica-Light" font-size="56.0" fill="#000000" transform="matrix(1.00, 0.00, -0.00, -1.00, 520.3, 612.0)"> </text><text xml:space="preserve" font-family="Helvetica-Light" font-size="56.0" fill="#000000" transform="matrix(1.00, 0.00, -0.00, -1.00, 535.8, 612.0)">C</text><text xml:space="preserve" font-family="Helvetica-Light" font-size="56.0" fill="#000000" transform="matrix(1.00, 0.00, -0.00, -1.00, 576.3, 612.0)">l</text><text xml:space="preserve" font-family="Helvetica-Light" font-size="56.0" fill="#000000" transform="matrix(1.00, 0.00, -0.00, -1.00, 588.7, 612.0)">a</text><text xml:space="preserve" font-family="Helvetica-Light" font-size="56.0" fill="#000000" transform="matrix(1.00, 0.00, -0.00, -1.00, 619.8, 612.0)">s</text><text xml:space="preserve" font-family="Helvetica-Light" font-size="56.0" fill="#000000" transform="matrix(1.00, 0.00, -0.00, -1.00, 647.8, 612.0)">s</text><text xml:space="preserve" font-family="Helvetica-Light" font-size="56.0" fill="#000000" transform="matrix(1.00, 0.00, -0.00, -1.00, 675.8, 612.0)"> </text><text xml:space="preserve" font-family="Helvetica-Light" font-size="56.0" fill="#000000" transform="matrix(1.00, 0.00, -0.00, -1.00, 691.4, 612.0)">D</text><text xml:space="preserve" font-family="Helvetica-Light" font-size="56.0" fill="#000000" transform="matrix(1.00, 0.00, -0.00, -1.00, 731.8, 612.0)">i</text><text xml:space="preserve" font-family="Helvetica-Light" font-size="56.0" fill="#000000" transform="matrix(1.00, 0.00, -0.00, -1.00, 744.3, 612.0)">a</text><text xml:space="preserve" font-family="Helvetica-Light" font-size="56.0" fill="#000000" transform="matrix(1.00, 0.00, -0.00, -1.00, 775.4, 612.0)">g</text><text xml:space="preserve" font-family="Helvetica-Light" font-size="56.0" fill="#000000" transform="matrix(1.00, 0.00, -0.00, -1.00, 809.6, 612.0)">r</text><text xml:space="preserve" font-family="Helvetica-Light" font-size="56.0" fill="#000000" transform="matrix(1.00, 0.00, -0.00, -1.00, 828.3, 612.0)">a</text><text xml:space="preserve" font-family="Helvetica-Light" font-size="56.0" fill="#000000" transform="matrix(1.00, 0.00, -0.00, -1.00, 859.4, 612.0)">m</text><text xml:space="preserve" font-family="Helvetica-Light" font-size="56.0" fill="#000000" transform="matrix(1.00, 0.00, -0.00, -1.00, 906.0, 612.0)">*</text><text xml:space="preserve" font-family="Helvetica-Light" font-size="13.0" fill="#000000" transform="matrix(1.00, 0.00, -0.00, -1.00, 109.0, 151.0)">•</text><text xml:space="preserve" font-family="Helvetica-Light" font-size="17.3" fill="#000000" transform="matrix(1.00, 0.00, -0.00, -1.00, 126.0, 150.0)">2</text><text xml:space="preserve" font-family="Helvetica-Light" font-size="17.3" fill="#000000" transform="matrix(1.00, 0.00, -0.00, -1.00, 135.6, 150.0)">2</text><text xml:space="preserve" font-family="Helvetica-Light" font-size="17.3" fill="#000000" transform="matrix(1.00, 0.00, -0.00, -1.00, 145.2, 150.0)"> </text><text xml:space="preserve" font-family="Helvetica-Light" font-size="17.3" fill="#000000" transform="matrix(1.00, 0.00, -0.00, -1.00, 150.0, 150.0)">C</text><text xml:space="preserve" font-family="Helvetica-Light" font-size="17.3" fill="#000000" transform="matrix(1.00, 0.00, -0.00, -1.00, 162.5, 150.0)">l</text><text xml:space="preserve" font-family="Helvetica-Light" font-size="17.3" fill="#000000" transform="matrix(1.00, 0.00, -0.00, -1.00, 166.3, 150.0)">a</text><text xml:space="preserve" font-family="Helvetica-Light" font-size="17.3" fill="#000000" transform="matrix(1.00, 0.00, -0.00, -1.00, 175.9, 150.0)">s</text><text xml:space="preserve" font-family="Helvetica-Light" font-size="17.3" fill="#000000" transform="matrix(1.00, 0.00, -0.00, -1.00, 184.6, 150.0)">s</text><text xml:space="preserve" font-family="Helvetica-Light" font-size="17.3" fill="#000000" transform="matrix(1.00, 0.00, -0.00, -1.00, 193.2, 150.0)">e</text><text xml:space="preserve" font-family="Helvetica-Light" font-size="17.3" fill="#000000" transform="matrix(1.00, 0.00, -0.00, -1.00, 202.8, 150.0)">s</text><text xml:space="preserve" font-family="Helvetica-Light" font-size="17.3" fill="#000000" transform="matrix(1.00, 0.00, -0.00, -1.00, 211.5, 150.0)"> </text><text xml:space="preserve" font-family="Helvetica-Light" font-size="13.0" fill="#000000" transform="matrix(1.00, 0.00, -0.00, -1.00, 109.0, 110.8)">•</text><text xml:space="preserve" font-family="Helvetica-Light" font-size="17.3" fill="#000000" transform="matrix(1.00, 0.00, -0.00, -1.00, 126.0, 110.0)">1</text><text xml:space="preserve" font-family="Helvetica-Light" font-size="17.3" fill="#000000" transform="matrix(1.00, 0.00, -0.00, -1.00, 135.6, 110.0)">1</text><text xml:space="preserve" font-family="Helvetica-Light" font-size="17.3" fill="#000000" transform="matrix(1.00, 0.00, -0.00, -1.00, 145.2, 110.0)"> </text><text xml:space="preserve" font-family="Helvetica-Light" font-size="17.3" fill="#000000" transform="matrix(1.00, 0.00, -0.00, -1.00, 150.0, 110.0)">I</text><text xml:space="preserve" font-family="Helvetica-Light" font-size="17.3" fill="#000000" transform="matrix(1.00, 0.00, -0.00, -1.00, 154.8, 110.0)">n</text><text xml:space="preserve" font-family="Helvetica-Light" font-size="17.3" fill="#000000" transform="matrix(1.00, 0.00, -0.00, -1.00, 164.4, 110.0)">t</text><text xml:space="preserve" font-family="Helvetica-Light" font-size="17.3" fill="#000000" transform="matrix(1.00, 0.00, -0.00, -1.00, 169.2, 110.0)">e</text><text xml:space="preserve" font-family="Helvetica-Light" font-size="17.3" fill="#000000" transform="matrix(1.00, 0.00, -0.00, -1.00, 178.8, 110.0)">r</text><text xml:space="preserve" font-family="Helvetica-Light" font-size="17.3" fill="#000000" transform="matrix(1.00, 0.00, -0.00, -1.00, 184.9, 110.0)">f</text><text xml:space="preserve" font-family="Helvetica-Light" font-size="17.3" fill="#000000" transform="matrix(1.00, 0.00, -0.00, -1.00, 189.7, 110.0)">a</text><text xml:space="preserve" font-family="Helvetica-Light" font-size="17.3" fill="#000000" transform="matrix(1.00, 0.00, -0.00, -1.00, 199.3, 110.0)">c</text><text xml:space="preserve" font-family="Helvetica-Light" font-size="17.3" fill="#000000" transform="matrix(1.00, 0.00, -0.00, -1.00, 208.9, 110.0)">e</text><text xml:space="preserve" font-family="Helvetica-Light" font-size="17.3" fill="#000000" transform="matrix(1.00, 0.00, -0.00, -1.00, 218.5, 110.0)">s</text><text xml:space="preserve" font-family="Helvetica-Light" font-size="17.3" fill="#000000" transform="matrix(1.00, 0.00, -0.00, -1.00, 227.2, 110.0)"> </text><text xml:space="preserve" font-family="Helvetica-Light" font-size="13.0" fill="#000000" transform="matrix(1.00, 0.00, -0.00, -1.00, 109.0, 70.7)">•</text><text xml:space="preserve" font-family="Helvetica-Light" font-size="17.3" fill="#000000" transform="matrix(1.00, 0.00, -0.00, -1.00, 126.0, 70.0)">1</text><text xml:space="preserve" font-family="Helvetica-Light" font-size="17.3" fill="#000000" transform="matrix(1.00, 0.00, -0.00, -1.00, 135.6, 70.0)"> </text><text xml:space="preserve" font-family="Helvetica-Light" font-size="17.3" fill="#000000" transform="matrix(1.00, 0.00, -0.00, -1.00, 140.4, 70.0)">E</text><text xml:space="preserve" font-family="Helvetica-Light" font-size="17.3" fill="#000000" transform="matrix(1.00, 0.00, -0.00, -1.00, 151.0, 70.0)">n</text><text xml:space="preserve" font-family="Helvetica-Light" font-size="17.3" fill="#000000" transform="matrix(1.00, 0.00, -0.00, -1.00, 160.6, 70.0)">u</text><text xml:space="preserve" font-family="Helvetica-Light" font-size="17.3" fill="#000000" transform="matrix(1.00, 0.00, -0.00, -1.00, 170.2, 70.0)">m</text><text xml:space="preserve" font-family="Helvetica-Light" font-size="13.0" fill="#000000" transform="matrix(1.00, 0.00, -0.00, -1.00, 579.0, 151.0)">•</text><text xml:space="preserve" font-family="Helvetica-Light" font-size="17.3" fill="#000000" transform="matrix(1.00, 0.00, -0.00, -1.00, 596.0, 150.0)">N</text><text xml:space="preserve" font-family="Helvetica-Light" font-size="17.3" fill="#000000" transform="matrix(1.00, 0.00, -0.00, -1.00, 608.5, 150.0)">o</text><text xml:space="preserve" font-family="Helvetica-Light" font-size="17.3" fill="#000000" transform="matrix(1.00, 0.00, -0.00, -1.00, 618.1, 150.0)"> </text><text xml:space="preserve" font-family="Helvetica-Light" font-size="17.3" fill="#000000" transform="matrix(1.00, 0.00, -0.00, -1.00, 622.9, 150.0)">i</text><text xml:space="preserve" font-family="Helvetica-Light" font-size="17.3" fill="#000000" transform="matrix(1.00, 0.00, -0.00, -1.00, 626.7, 150.0)">m</text><text xml:space="preserve" font-family="Helvetica-Light" font-size="17.3" fill="#000000" transform="matrix(1.00, 0.00, -0.00, -1.00, 641.1, 150.0)">p</text><text xml:space="preserve" font-family="Helvetica-Light" font-size="17.3" fill="#000000" transform="matrix(1.00, 0.00, -0.00, -1.00, 651.7, 150.0)">l</text><text xml:space="preserve" font-family="Helvetica-Light" font-size="17.3" fill="#000000" transform="matrix(1.00, 0.00, -0.00, -1.00, 655.5, 150.0)">e</text><text xml:space="preserve" font-family="Helvetica-Light" font-size="17.3" fill="#000000" transform="matrix(1.00, 0.00, -0.00, -1.00, 665.1, 150.0)">m</text><text xml:space="preserve" font-family="Helvetica-Light" font-size="17.3" fill="#000000" transform="matrix(1.00, 0.00, -0.00, -1.00, 679.5, 150.0)">e</text><text xml:space="preserve" font-family="Helvetica-Light" font-size="17.3" fill="#000000" transform="matrix(1.00, 0.00, -0.00, -1.00, 689.1, 150.0)">n</text><text xml:space="preserve" font-family="Helvetica-Light" font-size="17.3" fill="#000000" transform="matrix(1.00, 0.00, -0.00, -1.00, 698.7, 150.0)">t</text><text xml:space="preserve" font-family="Helvetica-Light" font-size="17.3" fill="#000000" transform="matrix(1.00, 0.00, -0.00, -1.00, 703.5, 150.0)">a</text><text xml:space="preserve" font-family="Helvetica-Light" font-size="17.3" fill="#000000" transform="matrix(1.00, 0.00, -0.00, -1.00, 713.1, 150.0)">t</text><text xml:space="preserve" font-family="Helvetica-Light" font-size="17.3" fill="#000000" transform="matrix(1.00, 0.00, -0.00, -1.00, 717.9, 150.0)">i</text><text xml:space="preserve" font-family="Helvetica-Light" font-size="17.3" fill="#000000" transform="matrix(1.00, 0.00, -0.00, -1.00, 721.8, 150.0)">o</text><text xml:space="preserve" font-family="Helvetica-Light" font-size="17.3" fill="#000000" transform="matrix(1.00, 0.00, -0.00, -1.00, 731.4, 150.0)">n</text><text xml:space="preserve" font-family="Helvetica-Light" font-size="17.3" fill="#000000" transform="matrix(1.00, 0.00, -0.00, -1.00, 741.0, 150.0)">s</text><text xml:space="preserve" font-family="Helvetica-Light" font-size="17.3" fill="#000000" transform="matrix(1.00, 0.00, -0.00, -1.00, 749.6, 150.0)"> </text><text xml:space="preserve" font-family="Helvetica-Light" font-size="13.0" fill="#000000" transform="matrix(1.00, 0.00, -0.00, -1.00, 579.0, 110.8)">•</text><text xml:space="preserve" font-family="Helvetica-Light" font-size="17.3" fill="#000000" transform="matrix(1.00, 0.00, -0.00, -1.00, 596.0, 110.0)">O</text><text xml:space="preserve" font-family="Helvetica-Light" font-size="17.3" fill="#000000" transform="matrix(1.00, 0.00, -0.00, -1.00, 609.4, 110.0)">n</text><text xml:space="preserve" font-family="Helvetica-Light" font-size="17.3" fill="#000000" transform="matrix(1.00, 0.00, -0.00, -1.00, 619.1, 110.0)">l</text><text xml:space="preserve" font-family="Helvetica-Light" font-size="17.3" fill="#000000" transform="matrix(1.00, 0.00, -0.00, -1.00, 622.9, 110.0)">y</text><text xml:space="preserve" font-family="Helvetica-Light" font-size="17.3" fill="#000000" transform="matrix(1.00, 0.00, -0.00, -1.00, 631.5, 110.0)"> </text><text xml:space="preserve" font-family="Helvetica-Light" font-size="17.3" fill="#000000" transform="matrix(1.00, 0.00, -0.00, -1.00, 636.3, 110.0)">r</text><text xml:space="preserve" font-family="Helvetica-Light" font-size="17.3" fill="#000000" transform="matrix(1.00, 0.00, -0.00, -1.00, 641.8, 110.0)">e</text><text xml:space="preserve" font-family="Helvetica-Light" font-size="17.3" fill="#000000" transform="matrix(1.00, 0.00, -0.00, -1.00, 651.4, 110.0)">l</text><text xml:space="preserve" font-family="Helvetica-Light" font-size="17.3" fill="#000000" transform="matrix(1.00, 0.00, -0.00, -1.00, 655.2, 110.0)">a</text><text xml:space="preserve" font-family="Helvetica-Light" font-size="17.3" fill="#000000" transform="matrix(1.00, 0.00, -0.00, -1.00, 664.8, 110.0)">t</text><text xml:space="preserve" font-family="Helvetica-Light" font-size="17.3" fill="#000000" transform="matrix(1.00, 0.00, -0.00, -1.00, 669.6, 110.0)">i</text><text xml:space="preserve" font-family="Helvetica-Light" font-size="17.3" fill="#000000" transform="matrix(1.00, 0.00, -0.00, -1.00, 673.5, 110.0)">o</text><text xml:space="preserve" font-family="Helvetica-Light" font-size="17.3" fill="#000000" transform="matrix(1.00, 0.00, -0.00, -1.00, 683.1, 110.0)">n</text><text xml:space="preserve" font-family="Helvetica-Light" font-size="17.3" fill="#000000" transform="matrix(1.00, 0.00, -0.00, -1.00, 692.7, 110.0)">s</text><text xml:space="preserve" font-family="Helvetica-Light" font-size="17.3" fill="#000000" transform="matrix(1.00, 0.00, -0.00, -1.00, 701.3, 110.0)">h</text><text xml:space="preserve" font-family="Helvetica-Light" font-size="17.3" fill="#000000" transform="matrix(1.00, 0.00, -0.00, -1.00, 710.9, 110.0)">i</text><text xml:space="preserve" font-family="Helvetica-Light" font-size="17.3" fill="#000000" transform="matrix(1.00, 0.00, -0.00, -1.00, 714.8, 110.0)">p</text><text xml:space="preserve" font-family="Helvetica-Light" font-size="17.3" fill="#000000" transform="matrix(1.00, 0.00, -0.00, -1.00, 725.3, 110.0)">s</text><text xml:space="preserve" font-family="Helvetica-Light" font-size="17.3" fill="#000000" transform="matrix(1.00, 0.00, -0.00, -1.00, 734.0, 110.0)"> </text><text xml:space="preserve" font-family="Helvetica-Light" font-size="13.0" fill="#000000" transform="matrix(1.00, 0.00, -0.00, -1.00, 579.0, 70.7)">•</text><text xml:space="preserve" font-family="Helvetica-Light" font-size="17.3" fill="#000000" transform="matrix(1.00, 0.00, -0.00, -1.00, 596.0, 70.0)">2</text><text xml:space="preserve" font-family="Helvetica-Light" font-size="17.3" fill="#000000" transform="matrix(1.00, 0.00, -0.00, -1.00, 605.6, 70.0)">7</text><text xml:space="preserve" font-family="Helvetica-Light" font-size="17.3" fill="#000000" transform="matrix(1.00, 0.00, -0.00, -1.00, 615.2, 70.0)">1</text><text xml:space="preserve" font-family="Helvetica-Light" font-size="17.3" fill="#000000" transform="matrix(1.00, 0.00, -0.00, -1.00, 624.8, 70.0)"> </text><text xml:space="preserve" font-family="Helvetica-Light" font-size="17.3" fill="#000000" transform="matrix(1.00, 0.00, -0.00, -1.00, 629.6, 70.0)">L</text><text xml:space="preserve" font-family="Helvetica-Light" font-size="17.3" fill="#000000" transform="matrix(1.00, 0.00, -0.00, -1.00, 639.2, 70.0)">O</text><text xml:space="preserve" font-family="Helvetica-Light" font-size="17.3" fill="#000000" transform="matrix(1.00, 0.00, -0.00, -1.00, 652.7, 70.0)">C</text><image xlink:href="F5146A6E81B9F434819B0E1567C57CED.png" width="1024.00" height="347.00" transform="matrix(1.00, 0.00, -0.00, -1.00, 0.0, 558.0)"></image><image xlink:href="E547A0D3EC631ADA20AC5F3EB0E346B3.png" width="4267.00" height="505.00" transform="matrix(0.24, 0.00, -0.00, -0.24, 0.0, 210.1)"></image><text xml:space="preserve" font-family="Helvetica-Light" font-size="23.0" fill="#000000" transform="matrix(1.00, 0.00, -0.00, -1.00, 723.0, 9.0)">*</text><text xml:space="preserve" font-family="Helvetica-Light" font-size="23.0" fill="#000000" transform="matrix(1.00, 0.00, -0.00, -1.00, 731.9, 9.0)">N</text><text xml:space="preserve" font-family="Helvetica-Light" font-size="23.0" fill="#000000" transform="matrix(1.00, 0.00, -0.00, -1.00, 748.6, 9.0)">o</text><text xml:space="preserve" font-family="Helvetica-Light" font-size="23.0" fill="#000000" transform="matrix(1.00, 0.00, -0.00, -1.00, 761.3, 9.0)">t</text><text xml:space="preserve" font-family="Helvetica-Light" font-size="23.0" fill="#000000" transform="matrix(1.00, 0.00, -0.00, -1.00, 767.7, 9.0)"> </text><text xml:space="preserve" font-family="Helvetica-Light" font-size="23.0" fill="#000000" transform="matrix(1.00, 0.00, -0.00, -1.00, 774.1, 9.0)">t</text><text xml:space="preserve" font-family="Helvetica-Light" font-size="23.0" fill="#000000" transform="matrix(1.00, 0.00, -0.00, -1.00, 780.5, 9.0)">i</text><text xml:space="preserve" font-family="Helvetica-Light" font-size="23.0" fill="#000000" transform="matrix(1.00, 0.00, -0.00, -1.00, 785.6, 9.0)">e</text><text xml:space="preserve" font-family="Helvetica-Light" font-size="23.0" fill="#000000" transform="matrix(1.00, 0.00, -0.00, -1.00, 798.4, 9.0)">d</text><text xml:space="preserve" font-family="Helvetica-Light" font-size="23.0" fill="#000000" transform="matrix(1.00, 0.00, -0.00, -1.00, 812.5, 9.0)"> </text><text xml:space="preserve" font-family="Helvetica-Light" font-size="23.0" fill="#000000" transform="matrix(1.00, 0.00, -0.00, -1.00, 818.9, 9.0)">t</text><text xml:space="preserve" font-family="Helvetica-Light" font-size="23.0" fill="#000000" transform="matrix(1.00, 0.00, -0.00, -1.00, 825.3, 9.0)">o</text><text xml:space="preserve" font-family="Helvetica-Light" font-size="23.0" fill="#000000" transform="matrix(1.00, 0.00, -0.00, -1.00, 838.0, 9.0)"> </text><text xml:space="preserve" font-family="Helvetica-Light" font-size="23.0" fill="#000000" transform="matrix(1.00, 0.00, -0.00, -1.00, 844.4, 9.0)">p</text><text xml:space="preserve" font-family="Helvetica-Light" font-size="23.0" fill="#000000" transform="matrix(1.00, 0.00, -0.00, -1.00, 858.5, 9.0)">r</text><text xml:space="preserve" font-family="Helvetica-Light" font-size="23.0" fill="#000000" transform="matrix(1.00, 0.00, -0.00, -1.00, 865.7, 9.0)">e</text><text xml:space="preserve" font-family="Helvetica-Light" font-size="23.0" fill="#000000" transform="matrix(1.00, 0.00, -0.00, -1.00, 878.5, 9.0)">v</text><text xml:space="preserve" font-family="Helvetica-Light" font-size="23.0" fill="#000000" transform="matrix(1.00, 0.00, -0.00, -1.00, 890.0, 9.0)">i</text><text xml:space="preserve" font-family="Helvetica-Light" font-size="23.0" fill="#000000" transform="matrix(1.00, 0.00, -0.00, -1.00, 895.1, 9.0)">o</text><text xml:space="preserve" font-family="Helvetica-Light" font-size="23.0" fill="#000000" transform="matrix(1.00, 0.00, -0.00, -1.00, 907.9, 9.0)">u</text><text xml:space="preserve" font-family="Helvetica-Light" font-size="23.0" fill="#000000" transform="matrix(1.00, 0.00, -0.00, -1.00, 920.7, 9.0)">s</text><text xml:space="preserve" font-family="Helvetica-Light" font-size="23.0" fill="#000000" transform="matrix(1.00, 0.00, -0.00, -1.00, 932.2, 9.0)"> </text><text xml:space="preserve" font-family="Helvetica-Light" font-size="23.0" fill="#000000" transform="matrix(1.00, 0.00, -0.00, -1.00, 938.6, 9.0)">d</text><text xml:space="preserve" font-family="Helvetica-Light" font-size="23.0" fill="#000000" transform="matrix(1.00, 0.00, -0.00, -1.00, 952.7, 9.0)">i</text><text xml:space="preserve" font-family="Helvetica-Light" font-size="23.0" fill="#000000" transform="matrix(1.00, 0.00, -0.00, -1.00, 957.8, 9.0)">s</text><text xml:space="preserve" font-family="Helvetica-Light" font-size="23.0" fill="#000000" transform="matrix(1.00, 0.00, -0.00, -1.00, 969.3, 9.0)">a</text><text xml:space="preserve" font-family="Helvetica-Light" font-size="23.0" fill="#000000" transform="matrix(1.00, 0.00, -0.00, -1.00, 982.0, 9.0)">s</text><text xml:space="preserve" font-family="Helvetica-Light" font-size="23.0" fill="#000000" transform="matrix(1.00, 0.00, -0.00, -1.00, 993.5, 9.0)">t</text><text xml:space="preserve" font-family="Helvetica-Light" font-size="23.0" fill="#000000" transform="matrix(1.00, 0.00, -0.00, -1.00, 999.9, 9.0)">e</text><text xml:space="preserve" font-family="Helvetica-Light" font-size="23.0" fill="#000000" transform="matrix(1.00, 0.00, -0.00, -1.00, 1012.7, 9.0)">r</text></g></svg>