<?xml version="1.0" encoding="UTF-8" standalone="no"?><svg xmlns="http://www.w3.org/2000/svg" xmlns:xlink="http://www.w3.org/1999/xlink" clip-rule="evenodd" stroke-miterlimit="4.00" viewBox="0 0 1024 768"><desc>SVG generated by Keynote</desc><defs></defs><g transform="matrix(1.00, 0.00, -0.00, -1.00, 0.0, 768.0)"><path d="M 0.0 768.0 L 1024.0 768.0 L 1024.0 0.0 L 0.0 0.0 Z M 0.0 768.0 " fill="#FEFFFF"></path><text xml:space="preserve" font-family="Helvetica-Light" font-size="80.0" fill="#000000" transform="matrix(1.00, 0.00, -0.00, -1.00, 274.0, 618.0)">O</text><text xml:space="preserve" font-family="Helvetica-Light" font-size="80.0" fill="#000000" transform="matrix(1.00, 0.00, -0.00, -1.00, 336.2, 618.0)">b</text><text xml:space="preserve" font-family="Helvetica-Light" font-size="80.0" fill="#000000" transform="matrix(1.00, 0.00, -0.00, -1.00, 385.1, 618.0)">s</text><text xml:space="preserve" font-family="Helvetica-Light" font-size="80.0" fill="#000000" transform="matrix(1.00, 0.00, -0.00, -1.00, 425.1, 618.0)">e</text><text xml:space="preserve" font-family="Helvetica-Light" font-size="80.0" fill="#000000" transform="matrix(1.00, 0.00, -0.00, -1.00, 469.6, 618.0)">r</text><text xml:space="preserve" font-family="Helvetica-Light" font-size="80.0" fill="#000000" transform="matrix(1.00, 0.00, -0.00, -1.00, 496.2, 618.0)">v</text><text xml:space="preserve" font-family="Helvetica-Light" font-size="80.0" fill="#000000" transform="matrix(1.00, 0.00, -0.00, -1.00, 536.2, 618.0)">a</text><text xml:space="preserve" font-family="Helvetica-Light" font-size="80.0" fill="#000000" transform="matrix(1.00, 0.00, -0.00, -1.00, 580.7, 618.0)">t</text><text xml:space="preserve" font-family="Helvetica-Light" font-size="80.0" fill="#000000" transform="matrix(1.00, 0.00, -0.00, -1.00, 603.0, 618.0)">i</text><text xml:space="preserve" font-family="Helvetica-Light" font-size="80.0" fill="#000000" transform="matrix(1.00, 0.00, -0.00, -1.00, 620.7, 618.0)">o</text><text xml:space="preserve" font-family="Helvetica-Light" font-size="80.0" fill="#000000" transform="matrix(1.00, 0.00, -0.00, -1.00, 665.2, 618.0)">n</text><text xml:space="preserve" font-family="Helvetica-Light" font-size="80.0" fill="#000000" transform="matrix(1.00, 0.00, -0.00, -1.00, 709.7, 618.0)">s</text><text xml:space="preserve" font-family="Helvetica-Light" font-size="26.7" fill="#000000" transform="matrix(1.00, 0.00, -0.00, -1.00, 79.0, 514.6)">•</text><text xml:space="preserve" font-family="Helvetica-Light" font-size="35.6" fill="#000000" transform="matrix(1.00, 0.00, -0.00, -1.00, 114.0, 512.0)">E</text><text xml:space="preserve" font-family="Helvetica-Light" font-size="35.6" fill="#000000" transform="matrix(1.00, 0.00, -0.00, -1.00, 135.8, 512.0)">v</text><text xml:space="preserve" font-family="Helvetica-Light" font-size="35.6" fill="#000000" transform="matrix(1.00, 0.00, -0.00, -1.00, 153.6, 512.0)">e</text><text xml:space="preserve" font-family="Helvetica-Light" font-size="35.6" fill="#000000" transform="matrix(1.00, 0.00, -0.00, -1.00, 173.4, 512.0)">n</text><text xml:space="preserve" font-family="Helvetica-Light" font-size="35.6" fill="#000000" transform="matrix(1.00, 0.00, -0.00, -1.00, 193.2, 512.0)"> </text><text xml:space="preserve" font-family="Helvetica-Light" font-size="35.6" fill="#000000" transform="matrix(1.00, 0.00, -0.00, -1.00, 203.1, 512.0)">t</text><text xml:space="preserve" font-family="Helvetica-Light" font-size="35.6" fill="#000000" transform="matrix(1.00, 0.00, -0.00, -1.00, 213.0, 512.0)">h</text><text xml:space="preserve" font-family="Helvetica-Light" font-size="35.6" fill="#000000" transform="matrix(1.00, 0.00, -0.00, -1.00, 232.9, 512.0)">e</text><text xml:space="preserve" font-family="Helvetica-Light" font-size="35.6" fill="#000000" transform="matrix(1.00, 0.00, -0.00, -1.00, 252.7, 512.0)"> </text><text xml:space="preserve" font-family="Helvetica-Light" font-size="35.6" fill="#000000" transform="matrix(1.00, 0.00, -0.00, -1.00, 262.6, 512.0)">m</text><text xml:space="preserve" font-family="Helvetica-Light" font-size="35.6" fill="#000000" transform="matrix(1.00, 0.00, -0.00, -1.00, 292.3, 512.0)">o</text><text xml:space="preserve" font-family="Helvetica-Light" font-size="35.6" fill="#000000" transform="matrix(1.00, 0.00, -0.00, -1.00, 312.1, 512.0)">s</text><text xml:space="preserve" font-family="Helvetica-Light" font-size="35.6" fill="#000000" transform="matrix(1.00, 0.00, -0.00, -1.00, 329.9, 512.0)">t</text><text xml:space="preserve" font-family="Helvetica-Light" font-size="35.6" fill="#000000" transform="matrix(1.00, 0.00, -0.00, -1.00, 339.8, 512.0)"> </text><text xml:space="preserve" font-family="Helvetica-Light" font-size="35.6" fill="#000000" transform="matrix(1.00, 0.00, -0.00, -1.00, 349.7, 512.0)">t</text><text xml:space="preserve" font-family="Helvetica-Light" font-size="35.6" fill="#000000" transform="matrix(1.00, 0.00, -0.00, -1.00, 359.6, 512.0)">r</text><text xml:space="preserve" font-family="Helvetica-Light" font-size="35.6" fill="#000000" transform="matrix(1.00, 0.00, -0.00, -1.00, 371.5, 512.0)">i</text><text xml:space="preserve" font-family="Helvetica-Light" font-size="35.6" fill="#000000" transform="matrix(1.00, 0.00, -0.00, -1.00, 379.4, 512.0)">v</text><text xml:space="preserve" font-family="Helvetica-Light" font-size="35.6" fill="#000000" transform="matrix(1.00, 0.00, -0.00, -1.00, 397.2, 512.0)">i</text><text xml:space="preserve" font-family="Helvetica-Light" font-size="35.6" fill="#000000" transform="matrix(1.00, 0.00, -0.00, -1.00, 405.1, 512.0)">a</text><text xml:space="preserve" font-family="Helvetica-Light" font-size="35.6" fill="#000000" transform="matrix(1.00, 0.00, -0.00, -1.00, 425.0, 512.0)">l</text><text xml:space="preserve" font-family="Helvetica-Light" font-size="35.6" fill="#000000" transform="matrix(1.00, 0.00, -0.00, -1.00, 432.9, 512.0)"> </text><text xml:space="preserve" font-family="Helvetica-Light" font-size="35.6" fill="#000000" transform="matrix(1.00, 0.00, -0.00, -1.00, 442.8, 512.0)">p</text><text xml:space="preserve" font-family="Helvetica-Light" font-size="35.6" fill="#000000" transform="matrix(1.00, 0.00, -0.00, -1.00, 464.6, 512.0)">r</text><text xml:space="preserve" font-family="Helvetica-Light" font-size="35.6" fill="#000000" transform="matrix(1.00, 0.00, -0.00, -1.00, 475.8, 512.0)">o</text><text xml:space="preserve" font-family="Helvetica-Light" font-size="35.6" fill="#000000" transform="matrix(1.00, 0.00, -0.00, -1.00, 495.6, 512.0)">b</text><text xml:space="preserve" font-family="Helvetica-Light" font-size="35.6" fill="#000000" transform="matrix(1.00, 0.00, -0.00, -1.00, 517.4, 512.0)">l</text><text xml:space="preserve" font-family="Helvetica-Light" font-size="35.6" fill="#000000" transform="matrix(1.00, 0.00, -0.00, -1.00, 525.3, 512.0)">e</text><text xml:space="preserve" font-family="Helvetica-Light" font-size="35.6" fill="#000000" transform="matrix(1.00, 0.00, -0.00, -1.00, 545.1, 512.0)">m</text><text xml:space="preserve" font-family="Helvetica-Light" font-size="35.6" fill="#000000" transform="matrix(1.00, 0.00, -0.00, -1.00, 574.8, 512.0)">s</text><text xml:space="preserve" font-family="Helvetica-Light" font-size="35.6" fill="#000000" transform="matrix(1.00, 0.00, -0.00, -1.00, 592.6, 512.0)"> </text><text xml:space="preserve" font-family="Helvetica-Light" font-size="35.6" fill="#000000" transform="matrix(1.00, 0.00, -0.00, -1.00, 602.5, 512.0)">a</text><text xml:space="preserve" font-family="Helvetica-Light" font-size="35.6" fill="#000000" transform="matrix(1.00, 0.00, -0.00, -1.00, 622.3, 512.0)">r</text><text xml:space="preserve" font-family="Helvetica-Light" font-size="35.6" fill="#000000" transform="matrix(1.00, 0.00, -0.00, -1.00, 633.6, 512.0)">e</text><text xml:space="preserve" font-family="Helvetica-Light" font-size="35.6" fill="#000000" transform="matrix(1.00, 0.00, -0.00, -1.00, 653.4, 512.0)"> </text><text xml:space="preserve" font-family="Helvetica-Light" font-size="35.6" fill="#000000" transform="matrix(1.00, 0.00, -0.00, -1.00, 663.3, 512.0)">v</text><text xml:space="preserve" font-family="Helvetica-Light" font-size="35.6" fill="#000000" transform="matrix(1.00, 0.00, -0.00, -1.00, 681.1, 512.0)">e</text><text xml:space="preserve" font-family="Helvetica-Light" font-size="35.6" fill="#000000" transform="matrix(1.00, 0.00, -0.00, -1.00, 700.9, 512.0)">r</text><text xml:space="preserve" font-family="Helvetica-Light" font-size="35.6" fill="#000000" transform="matrix(1.00, 0.00, -0.00, -1.00, 713.4, 512.0)">y</text><text xml:space="preserve" font-family="Helvetica-Light" font-size="35.6" fill="#000000" transform="matrix(1.00, 0.00, -0.00, -1.00, 731.2, 512.0)"> </text><text xml:space="preserve" font-family="Helvetica-Light" font-size="35.6" fill="#000000" transform="matrix(1.00, 0.00, -0.00, -1.00, 741.2, 512.0)">c</text><text xml:space="preserve" font-family="Helvetica-Light" font-size="35.6" fill="#000000" transform="matrix(1.00, 0.00, -0.00, -1.00, 761.0, 512.0)">o</text><text xml:space="preserve" font-family="Helvetica-Light" font-size="35.6" fill="#000000" transform="matrix(1.00, 0.00, -0.00, -1.00, 780.8, 512.0)">m</text><text xml:space="preserve" font-family="Helvetica-Light" font-size="35.6" fill="#000000" transform="matrix(1.00, 0.00, -0.00, -1.00, 810.5, 512.0)">p</text><text xml:space="preserve" font-family="Helvetica-Light" font-size="35.6" fill="#000000" transform="matrix(1.00, 0.00, -0.00, -1.00, 832.3, 512.0)">l</text><text xml:space="preserve" font-family="Helvetica-Light" font-size="35.6" fill="#000000" transform="matrix(1.00, 0.00, -0.00, -1.00, 840.2, 512.0)">i</text><text xml:space="preserve" font-family="Helvetica-Light" font-size="35.6" fill="#000000" transform="matrix(1.00, 0.00, -0.00, -1.00, 848.1, 512.0)">c</text><text xml:space="preserve" font-family="Helvetica-Light" font-size="35.6" fill="#000000" transform="matrix(1.00, 0.00, -0.00, -1.00, 867.9, 512.0)">a</text><text xml:space="preserve" font-family="Helvetica-Light" font-size="35.6" fill="#000000" transform="matrix(1.00, 0.00, -0.00, -1.00, 887.7, 512.0)">t</text><text xml:space="preserve" font-family="Helvetica-Light" font-size="35.6" fill="#000000" transform="matrix(1.00, 0.00, -0.00, -1.00, 897.6, 512.0)">e</text><text xml:space="preserve" font-family="Helvetica-Light" font-size="35.6" fill="#000000" transform="matrix(1.00, 0.00, -0.00, -1.00, 917.4, 512.0)">d</text><text xml:space="preserve" font-family="Helvetica-Light" font-size="35.6" fill="#000000" transform="matrix(1.00, 0.00, -0.00, -1.00, 939.2, 512.0)"> </text><text xml:space="preserve" font-family="Helvetica-Light" font-size="26.7" fill="#000000" transform="matrix(1.00, 0.00, -0.00, -1.00, 79.0, 431.1)">•</text><text xml:space="preserve" font-family="Helvetica-Light" font-size="35.6" fill="#000000" transform="matrix(1.00, 0.00, -0.00, -1.00, 114.0, 428.0)">N</text><text xml:space="preserve" font-family="Helvetica-Light" font-size="35.6" fill="#000000" transform="matrix(1.00, 0.00, -0.00, -1.00, 139.7, 428.0)">e</text><text xml:space="preserve" font-family="Helvetica-Light" font-size="35.6" fill="#000000" transform="matrix(1.00, 0.00, -0.00, -1.00, 159.5, 428.0)">a</text><text xml:space="preserve" font-family="Helvetica-Light" font-size="35.6" fill="#000000" transform="matrix(1.00, 0.00, -0.00, -1.00, 179.4, 428.0)">r</text><text xml:space="preserve" font-family="Helvetica-Light" font-size="35.6" fill="#000000" transform="matrix(1.00, 0.00, -0.00, -1.00, 191.2, 428.0)">l</text><text xml:space="preserve" font-family="Helvetica-Light" font-size="35.6" fill="#000000" transform="matrix(1.00, 0.00, -0.00, -1.00, 199.1, 428.0)">y</text><text xml:space="preserve" font-family="Helvetica-Light" font-size="35.6" fill="#000000" transform="matrix(1.00, 0.00, -0.00, -1.00, 217.0, 428.0)"> </text><text xml:space="preserve" font-family="Helvetica-Light" font-size="35.6" fill="#000000" transform="matrix(1.00, 0.00, -0.00, -1.00, 226.9, 428.0)">e</text><text xml:space="preserve" font-family="Helvetica-Light" font-size="35.6" fill="#000000" transform="matrix(1.00, 0.00, -0.00, -1.00, 246.7, 428.0)">v</text><text xml:space="preserve" font-family="Helvetica-Light" font-size="35.6" fill="#000000" transform="matrix(1.00, 0.00, -0.00, -1.00, 264.5, 428.0)">e</text><text xml:space="preserve" font-family="Helvetica-Light" font-size="35.6" fill="#000000" transform="matrix(1.00, 0.00, -0.00, -1.00, 284.3, 428.0)">r</text><text xml:space="preserve" font-family="Helvetica-Light" font-size="35.6" fill="#000000" transform="matrix(1.00, 0.00, -0.00, -1.00, 296.8, 428.0)">y</text><text xml:space="preserve" font-family="Helvetica-Light" font-size="35.6" fill="#000000" transform="matrix(1.00, 0.00, -0.00, -1.00, 314.7, 428.0)">t</text><text xml:space="preserve" font-family="Helvetica-Light" font-size="35.6" fill="#000000" transform="matrix(1.00, 0.00, -0.00, -1.00, 324.6, 428.0)">h</text><text xml:space="preserve" font-family="Helvetica-Light" font-size="35.6" fill="#000000" transform="matrix(1.00, 0.00, -0.00, -1.00, 344.4, 428.0)">i</text><text xml:space="preserve" font-family="Helvetica-Light" font-size="35.6" fill="#000000" transform="matrix(1.00, 0.00, -0.00, -1.00, 352.3, 428.0)">n</text><text xml:space="preserve" font-family="Helvetica-Light" font-size="35.6" fill="#000000" transform="matrix(1.00, 0.00, -0.00, -1.00, 372.1, 428.0)">g</text><text xml:space="preserve" font-family="Helvetica-Light" font-size="35.6" fill="#000000" transform="matrix(1.00, 0.00, -0.00, -1.00, 393.9, 428.0)"> </text><text xml:space="preserve" font-family="Helvetica-Light" font-size="35.6" fill="#000000" transform="matrix(1.00, 0.00, -0.00, -1.00, 403.8, 428.0)">i</text><text xml:space="preserve" font-family="Helvetica-Light" font-size="35.6" fill="#000000" transform="matrix(1.00, 0.00, -0.00, -1.00, 411.7, 428.0)">s</text><text xml:space="preserve" font-family="Helvetica-Light" font-size="35.6" fill="#000000" transform="matrix(1.00, 0.00, -0.00, -1.00, 429.5, 428.0)"> </text><text xml:space="preserve" font-family="Helvetica-Light" font-size="35.6" fill="#000000" transform="matrix(1.00, 0.00, -0.00, -1.00, 439.4, 428.0)">c</text><text xml:space="preserve" font-family="Helvetica-Light" font-size="35.6" fill="#000000" transform="matrix(1.00, 0.00, -0.00, -1.00, 459.2, 428.0)">o</text><text xml:space="preserve" font-family="Helvetica-Light" font-size="35.6" fill="#000000" transform="matrix(1.00, 0.00, -0.00, -1.00, 479.1, 428.0)">n</text><text xml:space="preserve" font-family="Helvetica-Light" font-size="35.6" fill="#000000" transform="matrix(1.00, 0.00, -0.00, -1.00, 498.9, 428.0)">n</text><text xml:space="preserve" font-family="Helvetica-Light" font-size="35.6" fill="#000000" transform="matrix(1.00, 0.00, -0.00, -1.00, 518.7, 428.0)">e</text><text xml:space="preserve" font-family="Helvetica-Light" font-size="35.6" fill="#000000" transform="matrix(1.00, 0.00, -0.00, -1.00, 538.5, 428.0)">c</text><text xml:space="preserve" font-family="Helvetica-Light" font-size="35.6" fill="#000000" transform="matrix(1.00, 0.00, -0.00, -1.00, 558.3, 428.0)">t</text><text xml:space="preserve" font-family="Helvetica-Light" font-size="35.6" fill="#000000" transform="matrix(1.00, 0.00, -0.00, -1.00, 568.2, 428.0)">e</text><text xml:space="preserve" font-family="Helvetica-Light" font-size="35.6" fill="#000000" transform="matrix(1.00, 0.00, -0.00, -1.00, 588.0, 428.0)">d</text><text xml:space="preserve" font-family="Helvetica-Light" font-size="35.6" fill="#000000" transform="matrix(1.00, 0.00, -0.00, -1.00, 609.8, 428.0)"> </text><text xml:space="preserve" font-family="Helvetica-Light" font-size="35.6" fill="#000000" transform="matrix(1.00, 0.00, -0.00, -1.00, 619.7, 428.0)">b</text><text xml:space="preserve" font-family="Helvetica-Light" font-size="35.6" fill="#000000" transform="matrix(1.00, 0.00, -0.00, -1.00, 641.5, 428.0)">e</text><text xml:space="preserve" font-family="Helvetica-Light" font-size="35.6" fill="#000000" transform="matrix(1.00, 0.00, -0.00, -1.00, 661.3, 428.0)">c</text><text xml:space="preserve" font-family="Helvetica-Light" font-size="35.6" fill="#000000" transform="matrix(1.00, 0.00, -0.00, -1.00, 681.1, 428.0)">a</text><text xml:space="preserve" font-family="Helvetica-Light" font-size="35.6" fill="#000000" transform="matrix(1.00, 0.00, -0.00, -1.00, 701.0, 428.0)">u</text><text xml:space="preserve" font-family="Helvetica-Light" font-size="35.6" fill="#000000" transform="matrix(1.00, 0.00, -0.00, -1.00, 720.8, 428.0)">s</text><text xml:space="preserve" font-family="Helvetica-Light" font-size="35.6" fill="#000000" transform="matrix(1.00, 0.00, -0.00, -1.00, 738.6, 428.0)">e</text><text xml:space="preserve" font-family="Helvetica-Light" font-size="35.6" fill="#000000" transform="matrix(1.00, 0.00, -0.00, -1.00, 758.4, 428.0)"> </text><text xml:space="preserve" font-family="Helvetica-Light" font-size="35.6" fill="#000000" transform="matrix(1.00, 0.00, -0.00, -1.00, 768.3, 428.0)">o</text><text xml:space="preserve" font-family="Helvetica-Light" font-size="35.6" fill="#000000" transform="matrix(1.00, 0.00, -0.00, -1.00, 788.1, 428.0)">b</text><text xml:space="preserve" font-family="Helvetica-Light" font-size="35.6" fill="#000000" transform="matrix(1.00, 0.00, -0.00, -1.00, 809.9, 428.0)">j</text><text xml:space="preserve" font-family="Helvetica-Light" font-size="35.6" fill="#000000" transform="matrix(1.00, 0.00, -0.00, -1.00, 817.8, 428.0)">e</text><text xml:space="preserve" font-family="Helvetica-Light" font-size="35.6" fill="#000000" transform="matrix(1.00, 0.00, -0.00, -1.00, 837.6, 428.0)">c</text><text xml:space="preserve" font-family="Helvetica-Light" font-size="35.6" fill="#000000" transform="matrix(1.00, 0.00, -0.00, -1.00, 857.5, 428.0)">t</text><text xml:space="preserve" font-family="Helvetica-Light" font-size="35.6" fill="#000000" transform="matrix(1.00, 0.00, -0.00, -1.00, 867.4, 428.0)">s</text><text xml:space="preserve" font-family="Helvetica-Light" font-size="35.6" fill="#000000" transform="matrix(1.00, 0.00, -0.00, -1.00, 885.2, 428.0)"> </text><text xml:space="preserve" font-family="Helvetica-Light" font-size="35.6" fill="#000000" transform="matrix(1.00, 0.00, -0.00, -1.00, 114.0, 386.0)">n</text><text xml:space="preserve" font-family="Helvetica-Light" font-size="35.6" fill="#000000" transform="matrix(1.00, 0.00, -0.00, -1.00, 133.8, 386.0)">a</text><text xml:space="preserve" font-family="Helvetica-Light" font-size="35.6" fill="#000000" transform="matrix(1.00, 0.00, -0.00, -1.00, 153.6, 386.0)">t</text><text xml:space="preserve" font-family="Helvetica-Light" font-size="35.6" fill="#000000" transform="matrix(1.00, 0.00, -0.00, -1.00, 163.5, 386.0)">u</text><text xml:space="preserve" font-family="Helvetica-Light" font-size="35.6" fill="#000000" transform="matrix(1.00, 0.00, -0.00, -1.00, 183.4, 386.0)">r</text><text xml:space="preserve" font-family="Helvetica-Light" font-size="35.6" fill="#000000" transform="matrix(1.00, 0.00, -0.00, -1.00, 195.2, 386.0)">a</text><text xml:space="preserve" font-family="Helvetica-Light" font-size="35.6" fill="#000000" transform="matrix(1.00, 0.00, -0.00, -1.00, 215.0, 386.0)">l</text><text xml:space="preserve" font-family="Helvetica-Light" font-size="35.6" fill="#000000" transform="matrix(1.00, 0.00, -0.00, -1.00, 223.0, 386.0)">l</text><text xml:space="preserve" font-family="Helvetica-Light" font-size="35.6" fill="#000000" transform="matrix(1.00, 0.00, -0.00, -1.00, 230.9, 386.0)">y</text><text xml:space="preserve" font-family="Helvetica-Light" font-size="35.6" fill="#000000" transform="matrix(1.00, 0.00, -0.00, -1.00, 248.7, 386.0)"> </text><text xml:space="preserve" font-family="Helvetica-Light" font-size="35.6" fill="#000000" transform="matrix(1.00, 0.00, -0.00, -1.00, 258.6, 386.0)">c</text><text xml:space="preserve" font-family="Helvetica-Light" font-size="35.6" fill="#000000" transform="matrix(1.00, 0.00, -0.00, -1.00, 278.4, 386.0)">o</text><text xml:space="preserve" font-family="Helvetica-Light" font-size="35.6" fill="#000000" transform="matrix(1.00, 0.00, -0.00, -1.00, 298.2, 386.0)">m</text><text xml:space="preserve" font-family="Helvetica-Light" font-size="35.6" fill="#000000" transform="matrix(1.00, 0.00, -0.00, -1.00, 327.9, 386.0)">p</text><text xml:space="preserve" font-family="Helvetica-Light" font-size="35.6" fill="#000000" transform="matrix(1.00, 0.00, -0.00, -1.00, 349.7, 386.0)">l</text><text xml:space="preserve" font-family="Helvetica-Light" font-size="35.6" fill="#000000" transform="matrix(1.00, 0.00, -0.00, -1.00, 357.6, 386.0)">e</text><text xml:space="preserve" font-family="Helvetica-Light" font-size="35.6" fill="#000000" transform="matrix(1.00, 0.00, -0.00, -1.00, 377.4, 386.0)">c</text><text xml:space="preserve" font-family="Helvetica-Light" font-size="35.6" fill="#000000" transform="matrix(1.00, 0.00, -0.00, -1.00, 397.2, 386.0)">t</text><text xml:space="preserve" font-family="Helvetica-Light" font-size="35.6" fill="#000000" transform="matrix(1.00, 0.00, -0.00, -1.00, 407.1, 386.0)"> </text><text xml:space="preserve" font-family="Helvetica-Light" font-size="26.7" fill="#000000" transform="matrix(1.00, 0.00, -0.00, -1.00, 79.0, 305.5)">•</text><text xml:space="preserve" font-family="Helvetica-Light" font-size="35.6" fill="#000000" transform="matrix(1.00, 0.00, -0.00, -1.00, 114.0, 303.0)">N</text><text xml:space="preserve" font-family="Helvetica-Light" font-size="35.6" fill="#000000" transform="matrix(1.00, 0.00, -0.00, -1.00, 139.7, 303.0)">o</text><text xml:space="preserve" font-family="Helvetica-Light" font-size="35.6" fill="#000000" transform="matrix(1.00, 0.00, -0.00, -1.00, 159.5, 303.0)"> </text><text xml:space="preserve" font-family="Helvetica-Light" font-size="35.6" fill="#000000" transform="matrix(1.00, 0.00, -0.00, -1.00, 169.5, 303.0)">m</text><text xml:space="preserve" font-family="Helvetica-Light" font-size="35.6" fill="#000000" transform="matrix(1.00, 0.00, -0.00, -1.00, 199.1, 303.0)">e</text><text xml:space="preserve" font-family="Helvetica-Light" font-size="35.6" fill="#000000" transform="matrix(1.00, 0.00, -0.00, -1.00, 219.0, 303.0)">t</text><text xml:space="preserve" font-family="Helvetica-Light" font-size="35.6" fill="#000000" transform="matrix(1.00, 0.00, -0.00, -1.00, 228.9, 303.0)">h</text><text xml:space="preserve" font-family="Helvetica-Light" font-size="35.6" fill="#000000" transform="matrix(1.00, 0.00, -0.00, -1.00, 248.7, 303.0)">o</text><text xml:space="preserve" font-family="Helvetica-Light" font-size="35.6" fill="#000000" transform="matrix(1.00, 0.00, -0.00, -1.00, 268.5, 303.0)">d</text><text xml:space="preserve" font-family="Helvetica-Light" font-size="35.6" fill="#000000" transform="matrix(1.00, 0.00, -0.00, -1.00, 290.3, 303.0)">s</text><text xml:space="preserve" font-family="Helvetica-Light" font-size="35.6" fill="#000000" transform="matrix(1.00, 0.00, -0.00, -1.00, 308.1, 303.0)"> </text><text xml:space="preserve" font-family="Helvetica-Light" font-size="35.6" fill="#000000" transform="matrix(1.00, 0.00, -0.00, -1.00, 318.0, 303.0)">-</text><text xml:space="preserve" font-family="Helvetica-Light" font-size="35.6" fill="#000000" transform="matrix(1.00, 0.00, -0.00, -1.00, 329.9, 303.0)"> </text><text xml:space="preserve" font-family="Helvetica-Light" font-size="35.6" fill="#000000" transform="matrix(1.00, 0.00, -0.00, -1.00, 339.8, 303.0)">s</text><text xml:space="preserve" font-family="Helvetica-Light" font-size="35.6" fill="#000000" transform="matrix(1.00, 0.00, -0.00, -1.00, 357.6, 303.0)">o</text><text xml:space="preserve" font-family="Helvetica-Light" font-size="35.6" fill="#000000" transform="matrix(1.00, 0.00, -0.00, -1.00, 377.4, 303.0)"> </text><text xml:space="preserve" font-family="Helvetica-Light" font-size="35.6" fill="#000000" transform="matrix(1.00, 0.00, -0.00, -1.00, 387.3, 303.0)">f</text><text xml:space="preserve" font-family="Helvetica-Light" font-size="35.6" fill="#000000" transform="matrix(1.00, 0.00, -0.00, -1.00, 397.2, 303.0)">a</text><text xml:space="preserve" font-family="Helvetica-Light" font-size="35.6" fill="#000000" transform="matrix(1.00, 0.00, -0.00, -1.00, 417.0, 303.0)">r</text><text xml:space="preserve" font-family="Helvetica-Light" font-size="35.6" fill="#000000" transform="matrix(1.00, 0.00, -0.00, -1.00, 428.9, 303.0)"> </text><text xml:space="preserve" font-family="Helvetica-Light" font-size="35.6" fill="#000000" transform="matrix(1.00, 0.00, -0.00, -1.00, 438.8, 303.0)">t</text><text xml:space="preserve" font-family="Helvetica-Light" font-size="35.6" fill="#000000" transform="matrix(1.00, 0.00, -0.00, -1.00, 448.7, 303.0)">h</text><text xml:space="preserve" font-family="Helvetica-Light" font-size="35.6" fill="#000000" transform="matrix(1.00, 0.00, -0.00, -1.00, 468.5, 303.0)">e</text><text xml:space="preserve" font-family="Helvetica-Light" font-size="35.6" fill="#000000" transform="matrix(1.00, 0.00, -0.00, -1.00, 488.4, 303.0)"> </text><text xml:space="preserve" font-family="Helvetica-Light" font-size="35.6" fill="#000000" transform="matrix(1.00, 0.00, -0.00, -1.00, 498.3, 303.0)">A</text><text xml:space="preserve" font-family="Helvetica-Light" font-size="35.6" fill="#000000" transform="matrix(1.00, 0.00, -0.00, -1.00, 522.0, 303.0)">P</text><text xml:space="preserve" font-family="Helvetica-Light" font-size="35.6" fill="#000000" transform="matrix(1.00, 0.00, -0.00, -1.00, 543.8, 303.0)">I</text><text xml:space="preserve" font-family="Helvetica-Light" font-size="35.6" fill="#000000" transform="matrix(1.00, 0.00, -0.00, -1.00, 553.7, 303.0)"> </text><text xml:space="preserve" font-family="Helvetica-Light" font-size="35.6" fill="#000000" transform="matrix(1.00, 0.00, -0.00, -1.00, 563.6, 303.0)">i</text><text xml:space="preserve" font-family="Helvetica-Light" font-size="35.6" fill="#000000" transform="matrix(1.00, 0.00, -0.00, -1.00, 571.5, 303.0)">s</text><text xml:space="preserve" font-family="Helvetica-Light" font-size="35.6" fill="#000000" transform="matrix(1.00, 0.00, -0.00, -1.00, 589.4, 303.0)"> </text><text xml:space="preserve" font-family="Helvetica-Light" font-size="35.6" fill="#000000" transform="matrix(1.00, 0.00, -0.00, -1.00, 599.3, 303.0)">o</text><text xml:space="preserve" font-family="Helvetica-Light" font-size="35.6" fill="#000000" transform="matrix(1.00, 0.00, -0.00, -1.00, 619.1, 303.0)">n</text><text xml:space="preserve" font-family="Helvetica-Light" font-size="35.6" fill="#000000" transform="matrix(1.00, 0.00, -0.00, -1.00, 638.9, 303.0)">l</text><text xml:space="preserve" font-family="Helvetica-Light" font-size="35.6" fill="#000000" transform="matrix(1.00, 0.00, -0.00, -1.00, 646.8, 303.0)">y</text><text xml:space="preserve" font-family="Helvetica-Light" font-size="35.6" fill="#000000" transform="matrix(1.00, 0.00, -0.00, -1.00, 664.6, 303.0)"> </text><text xml:space="preserve" font-family="Helvetica-Light" font-size="35.6" fill="#000000" transform="matrix(1.00, 0.00, -0.00, -1.00, 674.5, 303.0)">s</text><text xml:space="preserve" font-family="Helvetica-Light" font-size="35.6" fill="#000000" transform="matrix(1.00, 0.00, -0.00, -1.00, 692.4, 303.0)">t</text><text xml:space="preserve" font-family="Helvetica-Light" font-size="35.6" fill="#000000" transform="matrix(1.00, 0.00, -0.00, -1.00, 702.3, 303.0)">r</text><text xml:space="preserve" font-family="Helvetica-Light" font-size="35.6" fill="#000000" transform="matrix(1.00, 0.00, -0.00, -1.00, 714.1, 303.0)">u</text><text xml:space="preserve" font-family="Helvetica-Light" font-size="35.6" fill="#000000" transform="matrix(1.00, 0.00, -0.00, -1.00, 734.0, 303.0)">c</text><text xml:space="preserve" font-family="Helvetica-Light" font-size="35.6" fill="#000000" transform="matrix(1.00, 0.00, -0.00, -1.00, 753.8, 303.0)">t</text><text xml:space="preserve" font-family="Helvetica-Light" font-size="35.6" fill="#000000" transform="matrix(1.00, 0.00, -0.00, -1.00, 763.7, 303.0)">u</text><text xml:space="preserve" font-family="Helvetica-Light" font-size="35.6" fill="#000000" transform="matrix(1.00, 0.00, -0.00, -1.00, 783.5, 303.0)">r</text><text xml:space="preserve" font-family="Helvetica-Light" font-size="35.6" fill="#000000" transform="matrix(1.00, 0.00, -0.00, -1.00, 795.4, 303.0)">a</text><text xml:space="preserve" font-family="Helvetica-Light" font-size="35.6" fill="#000000" transform="matrix(1.00, 0.00, -0.00, -1.00, 815.2, 303.0)">l</text><text xml:space="preserve" font-family="Helvetica-Light" font-size="35.6" fill="#000000" transform="matrix(1.00, 0.00, -0.00, -1.00, 823.1, 303.0)"> </text><text xml:space="preserve" font-family="Helvetica-Light" font-size="26.7" fill="#000000" transform="matrix(1.00, 0.00, -0.00, -1.00, 79.0, 221.9)">•</text><text xml:space="preserve" font-family="Helvetica-Light" font-size="35.6" fill="#000000" transform="matrix(1.00, 0.00, -0.00, -1.00, 114.0, 219.0)">T</text><text xml:space="preserve" font-family="Helvetica-Light" font-size="35.6" fill="#000000" transform="matrix(1.00, 0.00, -0.00, -1.00, 129.9, 219.0)">o</text><text xml:space="preserve" font-family="Helvetica-Light" font-size="35.6" fill="#000000" transform="matrix(1.00, 0.00, -0.00, -1.00, 149.7, 219.0)">p</text><text xml:space="preserve" font-family="Helvetica-Light" font-size="35.6" fill="#000000" transform="matrix(1.00, 0.00, -0.00, -1.00, 171.5, 219.0)">-</text><text xml:space="preserve" font-family="Helvetica-Light" font-size="35.6" fill="#000000" transform="matrix(1.00, 0.00, -0.00, -1.00, 183.3, 219.0)">d</text><text xml:space="preserve" font-family="Helvetica-Light" font-size="35.6" fill="#000000" transform="matrix(1.00, 0.00, -0.00, -1.00, 205.1, 219.0)">o</text><text xml:space="preserve" font-family="Helvetica-Light" font-size="35.6" fill="#000000" transform="matrix(1.00, 0.00, -0.00, -1.00, 224.9, 219.0)">w</text><text xml:space="preserve" font-family="Helvetica-Light" font-size="35.6" fill="#000000" transform="matrix(1.00, 0.00, -0.00, -1.00, 250.6, 219.0)">n</text><text xml:space="preserve" font-family="Helvetica-Light" font-size="35.6" fill="#000000" transform="matrix(1.00, 0.00, -0.00, -1.00, 270.5, 219.0)"> </text><text xml:space="preserve" font-family="Helvetica-Light" font-size="35.6" fill="#000000" transform="matrix(1.00, 0.00, -0.00, -1.00, 280.4, 219.0)">A</text><text xml:space="preserve" font-family="Helvetica-Light" font-size="35.6" fill="#000000" transform="matrix(1.00, 0.00, -0.00, -1.00, 304.1, 219.0)">P</text><text xml:space="preserve" font-family="Helvetica-Light" font-size="35.6" fill="#000000" transform="matrix(1.00, 0.00, -0.00, -1.00, 325.9, 219.0)">I</text><text xml:space="preserve" font-family="Helvetica-Light" font-size="35.6" fill="#000000" transform="matrix(1.00, 0.00, -0.00, -1.00, 335.8, 219.0)"> </text><text xml:space="preserve" font-family="Helvetica-Light" font-size="35.6" fill="#000000" transform="matrix(1.00, 0.00, -0.00, -1.00, 345.7, 219.0)">i</text><text xml:space="preserve" font-family="Helvetica-Light" font-size="35.6" fill="#000000" transform="matrix(1.00, 0.00, -0.00, -1.00, 353.6, 219.0)">t</text><text xml:space="preserve" font-family="Helvetica-Light" font-size="35.6" fill="#000000" transform="matrix(1.00, 0.00, -0.00, -1.00, 363.6, 219.0)">e</text><text xml:space="preserve" font-family="Helvetica-Light" font-size="35.6" fill="#000000" transform="matrix(1.00, 0.00, -0.00, -1.00, 383.4, 219.0)">r</text><text xml:space="preserve" font-family="Helvetica-Light" font-size="35.6" fill="#000000" transform="matrix(1.00, 0.00, -0.00, -1.00, 395.2, 219.0)">a</text><text xml:space="preserve" font-family="Helvetica-Light" font-size="35.6" fill="#000000" transform="matrix(1.00, 0.00, -0.00, -1.00, 415.1, 219.0)">t</text><text xml:space="preserve" font-family="Helvetica-Light" font-size="35.6" fill="#000000" transform="matrix(1.00, 0.00, -0.00, -1.00, 425.0, 219.0)">i</text><text xml:space="preserve" font-family="Helvetica-Light" font-size="35.6" fill="#000000" transform="matrix(1.00, 0.00, -0.00, -1.00, 432.9, 219.0)">o</text><text xml:space="preserve" font-family="Helvetica-Light" font-size="35.6" fill="#000000" transform="matrix(1.00, 0.00, -0.00, -1.00, 452.7, 219.0)">n</text><text xml:space="preserve" font-family="Helvetica-Light" font-size="35.6" fill="#000000" transform="matrix(1.00, 0.00, -0.00, -1.00, 472.5, 219.0)"> </text><text xml:space="preserve" font-family="Helvetica-Light" font-size="35.6" fill="#000000" transform="matrix(1.00, 0.00, -0.00, -1.00, 482.4, 219.0)">c</text><text xml:space="preserve" font-family="Helvetica-Light" font-size="35.6" fill="#000000" transform="matrix(1.00, 0.00, -0.00, -1.00, 502.2, 219.0)">a</text><text xml:space="preserve" font-family="Helvetica-Light" font-size="35.6" fill="#000000" transform="matrix(1.00, 0.00, -0.00, -1.00, 522.0, 219.0)">n</text><text xml:space="preserve" font-family="Helvetica-Light" font-size="35.6" fill="#000000" transform="matrix(1.00, 0.00, -0.00, -1.00, 541.9, 219.0)"> </text><text xml:space="preserve" font-family="Helvetica-Light" font-size="35.6" fill="#000000" transform="matrix(1.00, 0.00, -0.00, -1.00, 551.8, 219.0)">b</text><text xml:space="preserve" font-family="Helvetica-Light" font-size="35.6" fill="#000000" transform="matrix(1.00, 0.00, -0.00, -1.00, 573.5, 219.0)">e</text><text xml:space="preserve" font-family="Helvetica-Light" font-size="35.6" fill="#000000" transform="matrix(1.00, 0.00, -0.00, -1.00, 593.4, 219.0)"> </text><text xml:space="preserve" font-family="Helvetica-Light" font-size="35.6" fill="#000000" transform="matrix(1.00, 0.00, -0.00, -1.00, 603.3, 219.0)">v</text><text xml:space="preserve" font-family="Helvetica-Light" font-size="35.6" fill="#000000" transform="matrix(1.00, 0.00, -0.00, -1.00, 621.1, 219.0)">e</text><text xml:space="preserve" font-family="Helvetica-Light" font-size="35.6" fill="#000000" transform="matrix(1.00, 0.00, -0.00, -1.00, 640.9, 219.0)">r</text><text xml:space="preserve" font-family="Helvetica-Light" font-size="35.6" fill="#000000" transform="matrix(1.00, 0.00, -0.00, -1.00, 653.4, 219.0)">y</text><text xml:space="preserve" font-family="Helvetica-Light" font-size="35.6" fill="#000000" transform="matrix(1.00, 0.00, -0.00, -1.00, 671.2, 219.0)"> </text><text xml:space="preserve" font-family="Helvetica-Light" font-size="35.6" fill="#000000" transform="matrix(1.00, 0.00, -0.00, -1.00, 681.1, 219.0)">t</text><text xml:space="preserve" font-family="Helvetica-Light" font-size="35.6" fill="#000000" transform="matrix(1.00, 0.00, -0.00, -1.00, 691.0, 219.0)">i</text><text xml:space="preserve" font-family="Helvetica-Light" font-size="35.6" fill="#000000" transform="matrix(1.00, 0.00, -0.00, -1.00, 699.0, 219.0)">m</text><text xml:space="preserve" font-family="Helvetica-Light" font-size="35.6" fill="#000000" transform="matrix(1.00, 0.00, -0.00, -1.00, 728.6, 219.0)">e</text><text xml:space="preserve" font-family="Helvetica-Light" font-size="35.6" fill="#000000" transform="matrix(1.00, 0.00, -0.00, -1.00, 748.5, 219.0)"> </text><text xml:space="preserve" font-family="Helvetica-Light" font-size="35.6" fill="#000000" transform="matrix(1.00, 0.00, -0.00, -1.00, 758.4, 219.0)">c</text><text xml:space="preserve" font-family="Helvetica-Light" font-size="35.6" fill="#000000" transform="matrix(1.00, 0.00, -0.00, -1.00, 778.2, 219.0)">o</text><text xml:space="preserve" font-family="Helvetica-Light" font-size="35.6" fill="#000000" transform="matrix(1.00, 0.00, -0.00, -1.00, 798.0, 219.0)">n</text><text xml:space="preserve" font-family="Helvetica-Light" font-size="35.6" fill="#000000" transform="matrix(1.00, 0.00, -0.00, -1.00, 817.8, 219.0)">s</text><text xml:space="preserve" font-family="Helvetica-Light" font-size="35.6" fill="#000000" transform="matrix(1.00, 0.00, -0.00, -1.00, 835.6, 219.0)">u</text><text xml:space="preserve" font-family="Helvetica-Light" font-size="35.6" fill="#000000" transform="matrix(1.00, 0.00, -0.00, -1.00, 855.5, 219.0)">m</text><text xml:space="preserve" font-family="Helvetica-Light" font-size="35.6" fill="#000000" transform="matrix(1.00, 0.00, -0.00, -1.00, 885.1, 219.0)">i</text><text xml:space="preserve" font-family="Helvetica-Light" font-size="35.6" fill="#000000" transform="matrix(1.00, 0.00, -0.00, -1.00, 893.1, 219.0)">n</text><text xml:space="preserve" font-family="Helvetica-Light" font-size="35.6" fill="#000000" transform="matrix(1.00, 0.00, -0.00, -1.00, 912.9, 219.0)">g</text><text xml:space="preserve" font-family="Helvetica-Light" font-size="35.6" fill="#000000" transform="matrix(1.00, 0.00, -0.00, -1.00, 934.6, 219.0)"> </text><text xml:space="preserve" font-family="Helvetica-Light" font-size="35.6" fill="#000000" transform="matrix(1.00, 0.00, -0.00, -1.00, 114.0, 177.0)">a</text><text xml:space="preserve" font-family="Helvetica-Light" font-size="35.6" fill="#000000" transform="matrix(1.00, 0.00, -0.00, -1.00, 133.8, 177.0)">n</text><text xml:space="preserve" font-family="Helvetica-Light" font-size="35.6" fill="#000000" transform="matrix(1.00, 0.00, -0.00, -1.00, 153.6, 177.0)">d</text><text xml:space="preserve" font-family="Helvetica-Light" font-size="35.6" fill="#000000" transform="matrix(1.00, 0.00, -0.00, -1.00, 175.4, 177.0)"> </text><text xml:space="preserve" font-family="Helvetica-Light" font-size="35.6" fill="#000000" transform="matrix(1.00, 0.00, -0.00, -1.00, 185.3, 177.0)">r</text><text xml:space="preserve" font-family="Helvetica-Light" font-size="35.6" fill="#000000" transform="matrix(1.00, 0.00, -0.00, -1.00, 196.5, 177.0)">e</text><text xml:space="preserve" font-family="Helvetica-Light" font-size="35.6" fill="#000000" transform="matrix(1.00, 0.00, -0.00, -1.00, 216.4, 177.0)">s</text><text xml:space="preserve" font-family="Helvetica-Light" font-size="35.6" fill="#000000" transform="matrix(1.00, 0.00, -0.00, -1.00, 234.2, 177.0)">u</text><text xml:space="preserve" font-family="Helvetica-Light" font-size="35.6" fill="#000000" transform="matrix(1.00, 0.00, -0.00, -1.00, 254.0, 177.0)">l</text><text xml:space="preserve" font-family="Helvetica-Light" font-size="35.6" fill="#000000" transform="matrix(1.00, 0.00, -0.00, -1.00, 261.9, 177.0)">t</text><text xml:space="preserve" font-family="Helvetica-Light" font-size="35.6" fill="#000000" transform="matrix(1.00, 0.00, -0.00, -1.00, 271.8, 177.0)"> </text><text xml:space="preserve" font-family="Helvetica-Light" font-size="35.6" fill="#000000" transform="matrix(1.00, 0.00, -0.00, -1.00, 281.7, 177.0)">i</text><text xml:space="preserve" font-family="Helvetica-Light" font-size="35.6" fill="#000000" transform="matrix(1.00, 0.00, -0.00, -1.00, 289.6, 177.0)">n</text><text xml:space="preserve" font-family="Helvetica-Light" font-size="35.6" fill="#000000" transform="matrix(1.00, 0.00, -0.00, -1.00, 309.4, 177.0)"> </text><text xml:space="preserve" font-family="Helvetica-Light" font-size="35.6" fill="#000000" transform="matrix(1.00, 0.00, -0.00, -1.00, 319.4, 177.0)">m</text><text xml:space="preserve" font-family="Helvetica-Light" font-size="35.6" fill="#000000" transform="matrix(1.00, 0.00, -0.00, -1.00, 349.0, 177.0)">a</text><text xml:space="preserve" font-family="Helvetica-Light" font-size="35.6" fill="#000000" transform="matrix(1.00, 0.00, -0.00, -1.00, 368.9, 177.0)">s</text><text xml:space="preserve" font-family="Helvetica-Light" font-size="35.6" fill="#000000" transform="matrix(1.00, 0.00, -0.00, -1.00, 386.7, 177.0)">s</text><text xml:space="preserve" font-family="Helvetica-Light" font-size="35.6" fill="#000000" transform="matrix(1.00, 0.00, -0.00, -1.00, 404.5, 177.0)">i</text><text xml:space="preserve" font-family="Helvetica-Light" font-size="35.6" fill="#000000" transform="matrix(1.00, 0.00, -0.00, -1.00, 412.4, 177.0)">v</text><text xml:space="preserve" font-family="Helvetica-Light" font-size="35.6" fill="#000000" transform="matrix(1.00, 0.00, -0.00, -1.00, 430.2, 177.0)">e</text><text xml:space="preserve" font-family="Helvetica-Light" font-size="35.6" fill="#000000" transform="matrix(1.00, 0.00, -0.00, -1.00, 450.0, 177.0)"> </text><text xml:space="preserve" font-family="Helvetica-Light" font-size="35.6" fill="#000000" transform="matrix(1.00, 0.00, -0.00, -1.00, 460.0, 177.0)">c</text><text xml:space="preserve" font-family="Helvetica-Light" font-size="35.6" fill="#000000" transform="matrix(1.00, 0.00, -0.00, -1.00, 479.8, 177.0)">o</text><text xml:space="preserve" font-family="Helvetica-Light" font-size="35.6" fill="#000000" transform="matrix(1.00, 0.00, -0.00, -1.00, 499.6, 177.0)">d</text><text xml:space="preserve" font-family="Helvetica-Light" font-size="35.6" fill="#000000" transform="matrix(1.00, 0.00, -0.00, -1.00, 521.4, 177.0)">e</text><text xml:space="preserve" font-family="Helvetica-Light" font-size="35.6" fill="#000000" transform="matrix(1.00, 0.00, -0.00, -1.00, 541.2, 177.0)"> </text><text xml:space="preserve" font-family="Helvetica-Light" font-size="35.6" fill="#000000" transform="matrix(1.00, 0.00, -0.00, -1.00, 551.1, 177.0)">b</text><text xml:space="preserve" font-family="Helvetica-Light" font-size="35.6" fill="#000000" transform="matrix(1.00, 0.00, -0.00, -1.00, 572.9, 177.0)">l</text><text xml:space="preserve" font-family="Helvetica-Light" font-size="35.6" fill="#000000" transform="matrix(1.00, 0.00, -0.00, -1.00, 580.8, 177.0)">o</text><text xml:space="preserve" font-family="Helvetica-Light" font-size="35.6" fill="#000000" transform="matrix(1.00, 0.00, -0.00, -1.00, 600.6, 177.0)">a</text><text xml:space="preserve" font-family="Helvetica-Light" font-size="35.6" fill="#000000" transform="matrix(1.00, 0.00, -0.00, -1.00, 620.4, 177.0)">t</text><text xml:space="preserve" font-family="Helvetica-Light" font-size="35.6" fill="#000000" transform="matrix(1.00, 0.00, -0.00, -1.00, 630.3, 177.0)"> </text><text xml:space="preserve" font-family="Helvetica-Light" font-size="26.7" fill="#000000" transform="matrix(1.00, 0.00, -0.00, -1.00, 79.0, 96.3)">•</text><text xml:space="preserve" font-family="Helvetica-Light" font-size="35.6" fill="#000000" transform="matrix(1.00, 0.00, -0.00, -1.00, 114.0, 93.0)">T</text><text xml:space="preserve" font-family="Helvetica-Light" font-size="35.6" fill="#000000" transform="matrix(1.00, 0.00, -0.00, -1.00, 133.8, 93.0)">h</text><text xml:space="preserve" font-family="Helvetica-Light" font-size="35.6" fill="#000000" transform="matrix(1.00, 0.00, -0.00, -1.00, 153.6, 93.0)">i</text><text xml:space="preserve" font-family="Helvetica-Light" font-size="35.6" fill="#000000" transform="matrix(1.00, 0.00, -0.00, -1.00, 161.5, 93.0)">s</text><text xml:space="preserve" font-family="Helvetica-Light" font-size="35.6" fill="#000000" transform="matrix(1.00, 0.00, -0.00, -1.00, 179.4, 93.0)"> </text><text xml:space="preserve" font-family="Helvetica-Light" font-size="35.6" fill="#000000" transform="matrix(1.00, 0.00, -0.00, -1.00, 189.3, 93.0)">h</text><text xml:space="preserve" font-family="Helvetica-Light" font-size="35.6" fill="#000000" transform="matrix(1.00, 0.00, -0.00, -1.00, 209.1, 93.0)">a</text><text xml:space="preserve" font-family="Helvetica-Light" font-size="35.6" fill="#000000" transform="matrix(1.00, 0.00, -0.00, -1.00, 228.9, 93.0)">p</text><text xml:space="preserve" font-family="Helvetica-Light" font-size="35.6" fill="#000000" transform="matrix(1.00, 0.00, -0.00, -1.00, 250.7, 93.0)">p</text><text xml:space="preserve" font-family="Helvetica-Light" font-size="35.6" fill="#000000" transform="matrix(1.00, 0.00, -0.00, -1.00, 272.5, 93.0)">e</text><text xml:space="preserve" font-family="Helvetica-Light" font-size="35.6" fill="#000000" transform="matrix(1.00, 0.00, -0.00, -1.00, 292.3, 93.0)">n</text><text xml:space="preserve" font-family="Helvetica-Light" font-size="35.6" fill="#000000" transform="matrix(1.00, 0.00, -0.00, -1.00, 312.1, 93.0)">s</text><text xml:space="preserve" font-family="Helvetica-Light" font-size="35.6" fill="#000000" transform="matrix(1.00, 0.00, -0.00, -1.00, 329.9, 93.0)"> </text><text xml:space="preserve" font-family="Helvetica-Light" font-size="35.6" fill="#000000" transform="matrix(1.00, 0.00, -0.00, -1.00, 339.8, 93.0)">a</text><text xml:space="preserve" font-family="Helvetica-Light" font-size="35.6" fill="#000000" transform="matrix(1.00, 0.00, -0.00, -1.00, 359.6, 93.0)">l</text><text xml:space="preserve" font-family="Helvetica-Light" font-size="35.6" fill="#000000" transform="matrix(1.00, 0.00, -0.00, -1.00, 367.5, 93.0)">l</text><text xml:space="preserve" font-family="Helvetica-Light" font-size="35.6" fill="#000000" transform="matrix(1.00, 0.00, -0.00, -1.00, 375.5, 93.0)"> </text><text xml:space="preserve" font-family="Helvetica-Light" font-size="35.6" fill="#000000" transform="matrix(1.00, 0.00, -0.00, -1.00, 385.4, 93.0)">t</text><text xml:space="preserve" font-family="Helvetica-Light" font-size="35.6" fill="#000000" transform="matrix(1.00, 0.00, -0.00, -1.00, 395.3, 93.0)">h</text><text xml:space="preserve" font-family="Helvetica-Light" font-size="35.6" fill="#000000" transform="matrix(1.00, 0.00, -0.00, -1.00, 415.1, 93.0)">e</text><text xml:space="preserve" font-family="Helvetica-Light" font-size="35.6" fill="#000000" transform="matrix(1.00, 0.00, -0.00, -1.00, 434.9, 93.0)"> </text><text xml:space="preserve" font-family="Helvetica-Light" font-size="35.6" fill="#000000" transform="matrix(1.00, 0.00, -0.00, -1.00, 444.8, 93.0)">t</text><text xml:space="preserve" font-family="Helvetica-Light" font-size="35.6" fill="#000000" transform="matrix(1.00, 0.00, -0.00, -1.00, 454.7, 93.0)">i</text><text xml:space="preserve" font-family="Helvetica-Light" font-size="35.6" fill="#000000" transform="matrix(1.00, 0.00, -0.00, -1.00, 462.6, 93.0)">m</text><text xml:space="preserve" font-family="Helvetica-Light" font-size="35.6" fill="#000000" transform="matrix(1.00, 0.00, -0.00, -1.00, 492.3, 93.0)">e</text><text xml:space="preserve" font-family="Helvetica-Light" font-size="35.6" fill="#000000" transform="matrix(1.00, 0.00, -0.00, -1.00, 512.1, 93.0)">!</text></g></svg>