<?xml version="1.0" encoding="UTF-8" standalone="no"?><svg xmlns="http://www.w3.org/2000/svg" xmlns:xlink="http://www.w3.org/1999/xlink" clip-rule="evenodd" stroke-miterlimit="4.00" viewBox="0 0 1024 768"><desc>SVG generated by Keynote</desc><defs></defs><g transform="matrix(1.00, 0.00, -0.00, -1.00, 0.0, 768.0)"><g><clipPath id="clip-174"><path d="M 0.0 768.0 L 1024.0 768.0 L 1024.0 0.0 L 0.0 0.0 Z M 0.0 768.0 "></path></clipPath><g clip-path="url(#clip-174)"><image xlink:href="../../39451CEE-E280-41CA-872D-216C9FC86FAF/assets/43DA95A1552523200D88D33196FD3A18.jpeg" width="1024.00" height="768.00" transform="matrix(1.00, 0.00, -0.00, -1.00, 0.0, 768.0)"></image></g></g><text xml:space="preserve" font-family="MarkerFelt-Thin" font-size="80.0" fill="#45A6DE" transform="matrix(1.00, 0.00, -0.00, -1.00, 322.0, 626.0)">W</text><text xml:space="preserve" font-family="MarkerFelt-Thin" font-size="80.0" fill="#45A6DE" transform="matrix(1.00, 0.00, -0.00, -1.00, 392.2, 626.0)">o</text><text xml:space="preserve" font-family="MarkerFelt-Thin" font-size="80.0" fill="#45A6DE" transform="matrix(1.00, 0.00, -0.00, -1.00, 428.1, 626.0)">r</text><text xml:space="preserve" font-family="MarkerFelt-Thin" font-size="80.0" fill="#45A6DE" transform="matrix(1.00, 0.00, -0.00, -1.00, 463.0, 626.0)">k</text><text xml:space="preserve" font-family="MarkerFelt-Thin" font-size="80.0" fill="#45A6DE" transform="matrix(1.00, 0.00, -0.00, -1.00, 501.4, 626.0)"> </text><text xml:space="preserve" font-family="MarkerFelt-Thin" font-size="80.0" fill="#45A6DE" transform="matrix(1.00, 0.00, -0.00, -1.00, 521.4, 626.0)">S</text><text xml:space="preserve" font-family="MarkerFelt-Thin" font-size="80.0" fill="#45A6DE" transform="matrix(1.00, 0.00, -0.00, -1.00, 563.8, 626.0)">c</text><text xml:space="preserve" font-family="MarkerFelt-Thin" font-size="80.0" fill="#45A6DE" transform="matrix(1.00, 0.00, -0.00, -1.00, 598.0, 626.0)">o</text><text xml:space="preserve" font-family="MarkerFelt-Thin" font-size="80.0" fill="#45A6DE" transform="matrix(1.00, 0.00, -0.00, -1.00, 633.4, 626.0)">p</text><text xml:space="preserve" font-family="MarkerFelt-Thin" font-size="80.0" fill="#45A6DE" transform="matrix(1.00, 0.00, -0.00, -1.00, 670.8, 626.0)">e</text><text xml:space="preserve" font-family="MarkerFelt-Thin" font-size="40.0" fill="#858484" transform="matrix(1.00, 0.00, -0.00, -1.00, 227.0, 527.0)">J</text><text xml:space="preserve" font-family="MarkerFelt-Thin" font-size="40.0" fill="#858484" transform="matrix(1.00, 0.00, -0.00, -1.00, 245.1, 527.0)">o</text><text xml:space="preserve" font-family="MarkerFelt-Thin" font-size="40.0" fill="#858484" transform="matrix(1.00, 0.00, -0.00, -1.00, 263.2, 527.0)">e</text><text xml:space="preserve" font-family="MarkerFelt-Thin" font-size="40.0" fill="#858484" transform="matrix(1.00, 0.00, -0.00, -1.00, 639.0, 527.0)">J</text><text xml:space="preserve" font-family="MarkerFelt-Thin" font-size="40.0" fill="#858484" transform="matrix(1.00, 0.00, -0.00, -1.00, 656.2, 527.0)">e</text><text xml:space="preserve" font-family="MarkerFelt-Thin" font-size="40.0" fill="#858484" transform="matrix(1.00, 0.00, -0.00, -1.00, 674.0, 527.0)">n</text><text xml:space="preserve" font-family="MarkerFelt-Thin" font-size="40.0" fill="#858484" transform="matrix(1.00, 0.00, -0.00, -1.00, 695.1, 527.0)">n</text><text xml:space="preserve" font-family="MarkerFelt-Thin" font-size="40.0" fill="#858484" transform="matrix(1.00, 0.00, -0.00, -1.00, 715.9, 527.0)">y</text></g></svg>