<?xml version="1.0" encoding="UTF-8" standalone="no"?><svg xmlns="http://www.w3.org/2000/svg" xmlns:xlink="http://www.w3.org/1999/xlink" clip-rule="evenodd" stroke-miterlimit="4.00" viewBox="0 0 1024 768"><desc>SVG generated by Keynote</desc><defs></defs><g transform="matrix(1.00, 0.00, -0.00, -1.00, 0.0, 768.0)"><g><clipPath id="clip-166"><path d="M 0.0 768.0 L 1024.0 768.0 L 1024.0 0.0 L 0.0 0.0 Z M 0.0 768.0 "></path></clipPath><g clip-path="url(#clip-166)"><image xlink:href="../../39451CEE-E280-41CA-872D-216C9FC86FAF/assets/43DA95A1552523200D88D33196FD3A18.jpeg" width="1024.00" height="768.00" transform="matrix(1.00, 0.00, -0.00, -1.00, 0.0, 768.0)"></image></g></g><text xml:space="preserve" font-family="MarkerFelt-Thin" font-size="80.0" fill="#45A6DE" transform="matrix(1.00, 0.00, -0.00, -1.00, 123.0, 626.0)">I</text><text xml:space="preserve" font-family="MarkerFelt-Thin" font-size="80.0" fill="#45A6DE" transform="matrix(1.00, 0.00, -0.00, -1.00, 144.8, 626.0)">n</text><text xml:space="preserve" font-family="MarkerFelt-Thin" font-size="80.0" fill="#45A6DE" transform="matrix(1.00, 0.00, -0.00, -1.00, 186.7, 626.0)">f</text><text xml:space="preserve" font-family="MarkerFelt-Thin" font-size="80.0" fill="#45A6DE" transform="matrix(1.00, 0.00, -0.00, -1.00, 221.6, 626.0)">r</text><text xml:space="preserve" font-family="MarkerFelt-Thin" font-size="80.0" fill="#45A6DE" transform="matrix(1.00, 0.00, -0.00, -1.00, 254.4, 626.0)">a</text><text xml:space="preserve" font-family="MarkerFelt-Thin" font-size="80.0" fill="#45A6DE" transform="matrix(1.00, 0.00, -0.00, -1.00, 293.9, 626.0)">s</text><text xml:space="preserve" font-family="MarkerFelt-Thin" font-size="80.0" fill="#45A6DE" transform="matrix(1.00, 0.00, -0.00, -1.00, 328.6, 626.0)">t</text><text xml:space="preserve" font-family="MarkerFelt-Thin" font-size="80.0" fill="#45A6DE" transform="matrix(1.00, 0.00, -0.00, -1.00, 363.4, 626.0)">r</text><text xml:space="preserve" font-family="MarkerFelt-Thin" font-size="80.0" fill="#45A6DE" transform="matrix(1.00, 0.00, -0.00, -1.00, 398.7, 626.0)">u</text><text xml:space="preserve" font-family="MarkerFelt-Thin" font-size="80.0" fill="#45A6DE" transform="matrix(1.00, 0.00, -0.00, -1.00, 433.8, 626.0)">c</text><text xml:space="preserve" font-family="MarkerFelt-Thin" font-size="80.0" fill="#45A6DE" transform="matrix(1.00, 0.00, -0.00, -1.00, 468.7, 626.0)">t</text><text xml:space="preserve" font-family="MarkerFelt-Thin" font-size="80.0" fill="#45A6DE" transform="matrix(1.00, 0.00, -0.00, -1.00, 503.0, 626.0)">u</text><text xml:space="preserve" font-family="MarkerFelt-Thin" font-size="80.0" fill="#45A6DE" transform="matrix(1.00, 0.00, -0.00, -1.00, 539.5, 626.0)">r</text><text xml:space="preserve" font-family="MarkerFelt-Thin" font-size="80.0" fill="#45A6DE" transform="matrix(1.00, 0.00, -0.00, -1.00, 569.9, 626.0)">e</text><text xml:space="preserve" font-family="MarkerFelt-Thin" font-size="80.0" fill="#45A6DE" transform="matrix(1.00, 0.00, -0.00, -1.00, 600.3, 626.0)"> </text><text xml:space="preserve" font-family="MarkerFelt-Thin" font-size="80.0" fill="#45A6DE" transform="matrix(1.00, 0.00, -0.00, -1.00, 620.3, 626.0)">&amp;</text><text xml:space="preserve" font-family="MarkerFelt-Thin" font-size="80.0" fill="#45A6DE" transform="matrix(1.00, 0.00, -0.00, -1.00, 665.1, 626.0)"> </text><text xml:space="preserve" font-family="MarkerFelt-Thin" font-size="80.0" fill="#45A6DE" transform="matrix(1.00, 0.00, -0.00, -1.00, 685.1, 626.0)">T</text><text xml:space="preserve" font-family="MarkerFelt-Thin" font-size="80.0" fill="#45A6DE" transform="matrix(1.00, 0.00, -0.00, -1.00, 713.6, 626.0)">o</text><text xml:space="preserve" font-family="MarkerFelt-Thin" font-size="80.0" fill="#45A6DE" transform="matrix(1.00, 0.00, -0.00, -1.00, 750.8, 626.0)">o</text><text xml:space="preserve" font-family="MarkerFelt-Thin" font-size="80.0" fill="#45A6DE" transform="matrix(1.00, 0.00, -0.00, -1.00, 787.0, 626.0)">l</text><text xml:space="preserve" font-family="MarkerFelt-Thin" font-size="80.0" fill="#45A6DE" transform="matrix(1.00, 0.00, -0.00, -1.00, 805.7, 626.0)">i</text><text xml:space="preserve" font-family="MarkerFelt-Thin" font-size="80.0" fill="#45A6DE" transform="matrix(1.00, 0.00, -0.00, -1.00, 825.6, 626.0)">n</text><text xml:space="preserve" font-family="MarkerFelt-Thin" font-size="80.0" fill="#45A6DE" transform="matrix(1.00, 0.00, -0.00, -1.00, 867.2, 626.0)">g</text><g><clipPath id="clip-167"><path d="M 109.3 403.9 L 130.2 403.9 L 130.2 423.5 L 109.3 423.5 Z M 109.3 403.9 "></path></clipPath><g clip-path="url(#clip-167)"><path d="M 129.9 410.9 C 130.1 410.6 130.2 410.3 130.2 410.0 C 130.2 409.4 129.9 408.8 129.2 408.3 C 128.5 407.7 127.7 407.5 126.8 407.5 C 125.7 407.5 124.3 408.3 122.8 410.0 C 122.8 410.0 122.8 407.5 122.8 407.5 C 122.8 407.2 122.9 406.9 123.0 406.6 C 123.2 406.2 123.3 406.0 123.3 405.8 C 123.3 405.3 123.0 404.8 122.5 404.5 C 121.9 404.1 121.4 403.9 120.9 403.9 C 119.9 403.9 119.1 404.3 118.4 405.1 C 118.2 405.4 118.1 406.1 118.2 407.2 C 118.2 408.3 118.3 409.5 118.4 410.6 C 117.8 410.2 116.7 409.6 115.1 408.7 C 114.9 408.4 114.2 408.0 113.1 407.7 C 112.3 407.6 111.4 407.7 110.6 408.1 C 109.7 408.5 109.3 409.0 109.3 409.7 C 109.3 409.9 109.3 410.0 109.4 410.2 C 109.6 410.6 109.9 410.8 110.4 411.0 C 111.3 411.3 111.8 411.4 111.9 411.5 C 111.9 411.5 116.5 414.0 116.5 414.0 C 116.5 414.0 113.2 415.6 113.2 415.6 C 112.7 415.6 112.1 415.8 111.3 416.3 C 111.1 416.5 111.1 416.8 111.1 417.1 C 111.1 417.8 111.5 418.6 112.4 419.3 C 113.4 420.1 114.3 420.5 115.2 420.5 C 115.5 420.5 115.8 420.4 116.1 420.3 C 116.4 420.2 116.7 419.9 117.0 419.5 C 117.3 418.9 117.7 418.4 118.4 418.0 C 118.4 418.0 118.5 420.9 118.5 420.9 C 118.4 421.4 118.4 421.9 118.5 422.7 C 118.9 423.2 119.7 423.5 121.0 423.5 C 122.2 423.5 123.0 423.1 123.4 422.4 C 123.6 422.1 123.6 421.5 123.5 420.4 C 123.4 419.4 123.3 418.5 123.2 417.6 C 123.2 417.6 124.9 418.4 124.9 418.4 C 125.3 418.8 125.9 419.2 126.8 419.6 C 127.5 419.6 128.1 419.4 128.8 418.8 C 129.4 418.3 129.7 417.7 129.7 417.0 C 129.7 416.7 129.6 416.5 129.5 416.2 C 129.3 416.0 129.0 415.8 128.6 415.7 C 128.1 415.6 127.7 415.5 127.6 415.4 C 127.6 415.4 125.0 413.6 125.0 413.6 C 125.0 413.6 128.3 411.8 128.3 411.8 C 128.7 411.7 129.3 411.4 129.9 410.9 Z M 129.9 410.9 " fill="#3995D6"></path></g></g><text xml:space="preserve" font-family="MarkerFelt-Thin" font-size="36.0" fill="#858585" transform="matrix(1.00, 0.00, -0.00, -1.00, 144.0, 402.0)">B</text><text xml:space="preserve" font-family="MarkerFelt-Thin" font-size="36.0" fill="#858585" transform="matrix(1.00, 0.00, -0.00, -1.00, 162.8, 402.0)">u</text><text xml:space="preserve" font-family="MarkerFelt-Thin" font-size="36.0" fill="#858585" transform="matrix(1.00, 0.00, -0.00, -1.00, 179.0, 402.0)">i</text><text xml:space="preserve" font-family="MarkerFelt-Thin" font-size="36.0" fill="#858585" transform="matrix(1.00, 0.00, -0.00, -1.00, 188.0, 402.0)">l</text><text xml:space="preserve" font-family="MarkerFelt-Thin" font-size="36.0" fill="#858585" transform="matrix(1.00, 0.00, -0.00, -1.00, 196.1, 402.0)">d</text><text xml:space="preserve" font-family="MarkerFelt-Thin" font-size="36.0" fill="#858585" transform="matrix(1.00, 0.00, -0.00, -1.00, 211.6, 402.0)"> </text><text xml:space="preserve" font-family="MarkerFelt-Thin" font-size="36.0" fill="#858585" transform="matrix(1.00, 0.00, -0.00, -1.00, 220.6, 402.0)">S</text><text xml:space="preserve" font-family="MarkerFelt-Thin" font-size="36.0" fill="#858585" transform="matrix(1.00, 0.00, -0.00, -1.00, 239.6, 402.0)">y</text><text xml:space="preserve" font-family="MarkerFelt-Thin" font-size="36.0" fill="#858585" transform="matrix(1.00, 0.00, -0.00, -1.00, 256.5, 402.0)">s</text><text xml:space="preserve" font-family="MarkerFelt-Thin" font-size="36.0" fill="#858585" transform="matrix(1.00, 0.00, -0.00, -1.00, 272.2, 402.0)">t</text><text xml:space="preserve" font-family="MarkerFelt-Thin" font-size="36.0" fill="#858585" transform="matrix(1.00, 0.00, -0.00, -1.00, 285.9, 402.0)">e</text><text xml:space="preserve" font-family="MarkerFelt-Thin" font-size="36.0" fill="#858585" transform="matrix(1.00, 0.00, -0.00, -1.00, 301.0, 402.0)">m</text><text xml:space="preserve" font-family="MarkerFelt-Thin" font-size="36.0" fill="#858585" transform="matrix(1.00, 0.00, -0.00, -1.00, 328.4, 402.0)">:</text><text xml:space="preserve" font-family="MarkerFelt-Thin" font-size="36.0" fill="#858585" transform="matrix(1.00, 0.00, -0.00, -1.00, 336.7, 402.0)"> </text><text xml:space="preserve" font-family="MarkerFelt-Thin" font-size="36.0" fill="#858585" transform="matrix(1.00, 0.00, -0.00, -1.00, 345.7, 402.0)">M</text><text xml:space="preserve" font-family="MarkerFelt-Thin" font-size="36.0" fill="#858585" transform="matrix(1.00, 0.00, -0.00, -1.00, 380.8, 402.0)">a</text><text xml:space="preserve" font-family="MarkerFelt-Thin" font-size="36.0" fill="#858585" transform="matrix(1.00, 0.00, -0.00, -1.00, 398.2, 402.0)">v</text><text xml:space="preserve" font-family="MarkerFelt-Thin" font-size="36.0" fill="#858585" transform="matrix(1.00, 0.00, -0.00, -1.00, 414.8, 402.0)">e</text><text xml:space="preserve" font-family="MarkerFelt-Thin" font-size="36.0" fill="#858585" transform="matrix(1.00, 0.00, -0.00, -1.00, 430.8, 402.0)">n</text><text xml:space="preserve" font-family="MarkerFelt-Thin" font-size="36.0" fill="#858585" transform="matrix(1.00, 0.00, -0.00, -1.00, 448.4, 402.0)"> </text><g><clipPath id="clip-168"><path d="M 109.3 249.9 L 130.2 249.9 L 130.2 269.5 L 109.3 269.5 Z M 109.3 249.9 "></path></clipPath><g clip-path="url(#clip-168)"><path d="M 129.9 256.9 C 130.1 256.6 130.2 256.3 130.2 256.0 C 130.2 255.4 129.9 254.8 129.2 254.3 C 128.5 253.7 127.7 253.5 126.8 253.5 C 125.7 253.5 124.3 254.3 122.8 256.0 C 122.8 256.0 122.8 253.5 122.8 253.5 C 122.8 253.2 122.9 252.9 123.0 252.6 C 123.2 252.2 123.3 252.0 123.3 251.8 C 123.3 251.3 123.0 250.8 122.5 250.5 C 121.9 250.1 121.4 249.9 120.9 249.9 C 119.9 249.9 119.1 250.3 118.4 251.1 C 118.2 251.4 118.1 252.1 118.2 253.2 C 118.2 254.3 118.3 255.5 118.4 256.6 C 117.8 256.2 116.7 255.6 115.1 254.7 C 114.9 254.4 114.2 254.0 113.1 253.7 C 112.3 253.6 111.4 253.7 110.6 254.1 C 109.7 254.5 109.3 255.0 109.3 255.7 C 109.3 255.9 109.3 256.0 109.4 256.2 C 109.6 256.6 109.9 256.8 110.4 257.0 C 111.3 257.3 111.8 257.4 111.9 257.5 C 111.9 257.5 116.5 260.0 116.5 260.0 C 116.5 260.0 113.2 261.6 113.2 261.6 C 112.7 261.6 112.1 261.8 111.3 262.3 C 111.1 262.5 111.1 262.8 111.1 263.1 C 111.1 263.8 111.5 264.6 112.4 265.3 C 113.4 266.1 114.3 266.5 115.2 266.5 C 115.5 266.5 115.8 266.4 116.1 266.3 C 116.4 266.2 116.7 265.9 117.0 265.5 C 117.3 264.9 117.7 264.4 118.4 264.0 C 118.4 264.0 118.5 266.9 118.5 266.9 C 118.4 267.4 118.4 267.9 118.5 268.7 C 118.9 269.2 119.7 269.5 121.0 269.5 C 122.2 269.5 123.0 269.1 123.4 268.4 C 123.6 268.1 123.6 267.5 123.5 266.4 C 123.4 265.4 123.3 264.5 123.2 263.6 C 123.2 263.6 124.9 264.4 124.9 264.4 C 125.3 264.8 125.9 265.2 126.8 265.6 C 127.5 265.6 128.1 265.4 128.8 264.8 C 129.4 264.3 129.7 263.7 129.7 263.0 C 129.7 262.7 129.6 262.5 129.5 262.2 C 129.3 262.0 129.0 261.8 128.6 261.7 C 128.1 261.6 127.7 261.5 127.6 261.4 C 127.6 261.4 125.0 259.6 125.0 259.6 C 125.0 259.6 128.3 257.8 128.3 257.8 C 128.7 257.7 129.3 257.4 129.9 256.9 Z M 129.9 256.9 " fill="#3995D6"></path></g></g><text xml:space="preserve" font-family="MarkerFelt-Thin" font-size="36.0" fill="#858585" transform="matrix(1.00, 0.00, -0.00, -1.00, 144.0, 248.0)">A</text><text xml:space="preserve" font-family="MarkerFelt-Thin" font-size="36.0" fill="#858585" transform="matrix(1.00, 0.00, -0.00, -1.00, 167.0, 248.0)">r</text><text xml:space="preserve" font-family="MarkerFelt-Thin" font-size="36.0" fill="#858585" transform="matrix(1.00, 0.00, -0.00, -1.00, 181.8, 248.0)">t</text><text xml:space="preserve" font-family="MarkerFelt-Thin" font-size="36.0" fill="#858585" transform="matrix(1.00, 0.00, -0.00, -1.00, 197.2, 248.0)">i</text><text xml:space="preserve" font-family="MarkerFelt-Thin" font-size="36.0" fill="#858585" transform="matrix(1.00, 0.00, -0.00, -1.00, 206.2, 248.0)">f</text><text xml:space="preserve" font-family="MarkerFelt-Thin" font-size="36.0" fill="#858585" transform="matrix(1.00, 0.00, -0.00, -1.00, 221.4, 248.0)">a</text><text xml:space="preserve" font-family="MarkerFelt-Thin" font-size="36.0" fill="#858585" transform="matrix(1.00, 0.00, -0.00, -1.00, 238.9, 248.0)">c</text><text xml:space="preserve" font-family="MarkerFelt-Thin" font-size="36.0" fill="#858585" transform="matrix(1.00, 0.00, -0.00, -1.00, 254.6, 248.0)">t</text><text xml:space="preserve" font-family="MarkerFelt-Thin" font-size="36.0" fill="#858585" transform="matrix(1.00, 0.00, -0.00, -1.00, 267.6, 248.0)"> </text><text xml:space="preserve" font-family="MarkerFelt-Thin" font-size="36.0" fill="#858585" transform="matrix(1.00, 0.00, -0.00, -1.00, 276.6, 248.0)">M</text><text xml:space="preserve" font-family="MarkerFelt-Thin" font-size="36.0" fill="#858585" transform="matrix(1.00, 0.00, -0.00, -1.00, 311.7, 248.0)">a</text><text xml:space="preserve" font-family="MarkerFelt-Thin" font-size="36.0" fill="#858585" transform="matrix(1.00, 0.00, -0.00, -1.00, 329.7, 248.0)">n</text><text xml:space="preserve" font-family="MarkerFelt-Thin" font-size="36.0" fill="#858585" transform="matrix(1.00, 0.00, -0.00, -1.00, 349.5, 248.0)">a</text><text xml:space="preserve" font-family="MarkerFelt-Thin" font-size="36.0" fill="#858585" transform="matrix(1.00, 0.00, -0.00, -1.00, 366.7, 248.0)">g</text><text xml:space="preserve" font-family="MarkerFelt-Thin" font-size="36.0" fill="#858585" transform="matrix(1.00, 0.00, -0.00, -1.00, 382.9, 248.0)">e</text><text xml:space="preserve" font-family="MarkerFelt-Thin" font-size="36.0" fill="#858585" transform="matrix(1.00, 0.00, -0.00, -1.00, 398.1, 248.0)">m</text><text xml:space="preserve" font-family="MarkerFelt-Thin" font-size="36.0" fill="#858585" transform="matrix(1.00, 0.00, -0.00, -1.00, 424.0, 248.0)">e</text><text xml:space="preserve" font-family="MarkerFelt-Thin" font-size="36.0" fill="#858585" transform="matrix(1.00, 0.00, -0.00, -1.00, 440.0, 248.0)">n</text><text xml:space="preserve" font-family="MarkerFelt-Thin" font-size="36.0" fill="#858585" transform="matrix(1.00, 0.00, -0.00, -1.00, 459.7, 248.0)">t</text><text xml:space="preserve" font-family="MarkerFelt-Thin" font-size="36.0" fill="#858585" transform="matrix(1.00, 0.00, -0.00, -1.00, 473.7, 248.0)">:</text><text xml:space="preserve" font-family="MarkerFelt-Thin" font-size="36.0" fill="#858585" transform="matrix(1.00, 0.00, -0.00, -1.00, 481.9, 248.0)"> </text><text xml:space="preserve" font-family="MarkerFelt-Thin" font-size="36.0" fill="#858585" transform="matrix(1.00, 0.00, -0.00, -1.00, 144.0, 209.0)">N</text><text xml:space="preserve" font-family="MarkerFelt-Thin" font-size="36.0" fill="#858585" transform="matrix(1.00, 0.00, -0.00, -1.00, 165.6, 209.0)">e</text><text xml:space="preserve" font-family="MarkerFelt-Thin" font-size="36.0" fill="#858585" transform="matrix(1.00, 0.00, -0.00, -1.00, 182.2, 209.0)">x</text><text xml:space="preserve" font-family="MarkerFelt-Thin" font-size="36.0" fill="#858585" transform="matrix(1.00, 0.00, -0.00, -1.00, 198.8, 209.0)">u</text><text xml:space="preserve" font-family="MarkerFelt-Thin" font-size="36.0" fill="#858585" transform="matrix(1.00, 0.00, -0.00, -1.00, 214.5, 209.0)">s</text><text xml:space="preserve" font-family="MarkerFelt-Thin" font-size="36.0" fill="#858585" transform="matrix(1.00, 0.00, -0.00, -1.00, 227.8, 209.0)"> </text><g><clipPath id="clip-169"><path d="M 109.3 133.9 L 130.2 133.9 L 130.2 153.5 L 109.3 153.5 Z M 109.3 133.9 "></path></clipPath><g clip-path="url(#clip-169)"><path d="M 129.9 140.9 C 130.1 140.6 130.2 140.3 130.2 140.0 C 130.2 139.4 129.9 138.8 129.2 138.3 C 128.5 137.7 127.7 137.5 126.8 137.5 C 125.7 137.5 124.3 138.3 122.8 140.0 C 122.8 140.0 122.8 137.5 122.8 137.5 C 122.8 137.2 122.9 136.9 123.0 136.6 C 123.2 136.2 123.3 136.0 123.3 135.8 C 123.3 135.3 123.0 134.8 122.5 134.5 C 121.9 134.1 121.4 133.9 120.9 133.9 C 119.9 133.9 119.1 134.3 118.4 135.1 C 118.2 135.4 118.1 136.1 118.2 137.2 C 118.2 138.3 118.3 139.5 118.4 140.6 C 117.8 140.2 116.7 139.6 115.1 138.7 C 114.9 138.4 114.2 138.0 113.1 137.7 C 112.3 137.6 111.4 137.7 110.6 138.1 C 109.7 138.5 109.3 139.0 109.3 139.7 C 109.3 139.9 109.3 140.0 109.4 140.2 C 109.6 140.6 109.9 140.8 110.4 141.0 C 111.3 141.3 111.8 141.4 111.9 141.5 C 111.9 141.5 116.5 144.0 116.5 144.0 C 116.5 144.0 113.2 145.6 113.2 145.6 C 112.7 145.6 112.1 145.8 111.3 146.3 C 111.1 146.5 111.1 146.8 111.1 147.1 C 111.1 147.8 111.5 148.6 112.4 149.3 C 113.4 150.1 114.3 150.5 115.2 150.5 C 115.5 150.5 115.8 150.4 116.1 150.3 C 116.4 150.2 116.7 149.9 117.0 149.5 C 117.3 148.9 117.7 148.4 118.4 148.0 C 118.4 148.0 118.5 150.9 118.5 150.9 C 118.4 151.4 118.4 151.9 118.5 152.7 C 118.9 153.2 119.7 153.5 121.0 153.5 C 122.2 153.5 123.0 153.1 123.4 152.4 C 123.6 152.1 123.6 151.5 123.5 150.4 C 123.4 149.4 123.3 148.5 123.2 147.6 C 123.2 147.6 124.9 148.4 124.9 148.4 C 125.3 148.8 125.9 149.2 126.8 149.6 C 127.5 149.6 128.1 149.4 128.8 148.8 C 129.4 148.3 129.7 147.7 129.7 147.0 C 129.7 146.7 129.6 146.5 129.5 146.2 C 129.3 146.0 129.0 145.8 128.6 145.7 C 128.1 145.6 127.7 145.5 127.6 145.4 C 127.6 145.4 125.0 143.6 125.0 143.6 C 125.0 143.6 128.3 141.8 128.3 141.8 C 128.7 141.7 129.3 141.4 129.9 140.9 Z M 129.9 140.9 " fill="#3995D6"></path></g></g><text xml:space="preserve" font-family="MarkerFelt-Thin" font-size="36.0" fill="#858585" transform="matrix(1.00, 0.00, -0.00, -1.00, 144.0, 132.0)">B</text><text xml:space="preserve" font-family="MarkerFelt-Thin" font-size="36.0" fill="#858585" transform="matrix(1.00, 0.00, -0.00, -1.00, 162.8, 132.0)">u</text><text xml:space="preserve" font-family="MarkerFelt-Thin" font-size="36.0" fill="#858585" transform="matrix(1.00, 0.00, -0.00, -1.00, 179.0, 132.0)">i</text><text xml:space="preserve" font-family="MarkerFelt-Thin" font-size="36.0" fill="#858585" transform="matrix(1.00, 0.00, -0.00, -1.00, 188.0, 132.0)">l</text><text xml:space="preserve" font-family="MarkerFelt-Thin" font-size="36.0" fill="#858585" transform="matrix(1.00, 0.00, -0.00, -1.00, 196.1, 132.0)">d</text><text xml:space="preserve" font-family="MarkerFelt-Thin" font-size="36.0" fill="#858585" transform="matrix(1.00, 0.00, -0.00, -1.00, 211.6, 132.0)"> </text><text xml:space="preserve" font-family="MarkerFelt-Thin" font-size="36.0" fill="#858585" transform="matrix(1.00, 0.00, -0.00, -1.00, 220.6, 132.0)">A</text><text xml:space="preserve" font-family="MarkerFelt-Thin" font-size="36.0" fill="#858585" transform="matrix(1.00, 0.00, -0.00, -1.00, 244.1, 132.0)">u</text><text xml:space="preserve" font-family="MarkerFelt-Thin" font-size="36.0" fill="#858585" transform="matrix(1.00, 0.00, -0.00, -1.00, 261.4, 132.0)">t</text><text xml:space="preserve" font-family="MarkerFelt-Thin" font-size="36.0" fill="#858585" transform="matrix(1.00, 0.00, -0.00, -1.00, 275.9, 132.0)">o</text><text xml:space="preserve" font-family="MarkerFelt-Thin" font-size="36.0" fill="#858585" transform="matrix(1.00, 0.00, -0.00, -1.00, 291.5, 132.0)">m</text><text xml:space="preserve" font-family="MarkerFelt-Thin" font-size="36.0" fill="#858585" transform="matrix(1.00, 0.00, -0.00, -1.00, 319.2, 132.0)">a</text><text xml:space="preserve" font-family="MarkerFelt-Thin" font-size="36.0" fill="#858585" transform="matrix(1.00, 0.00, -0.00, -1.00, 336.8, 132.0)">t</text><text xml:space="preserve" font-family="MarkerFelt-Thin" font-size="36.0" fill="#858585" transform="matrix(1.00, 0.00, -0.00, -1.00, 352.3, 132.0)">i</text><text xml:space="preserve" font-family="MarkerFelt-Thin" font-size="36.0" fill="#858585" transform="matrix(1.00, 0.00, -0.00, -1.00, 360.6, 132.0)">o</text><text xml:space="preserve" font-family="MarkerFelt-Thin" font-size="36.0" fill="#858585" transform="matrix(1.00, 0.00, -0.00, -1.00, 376.9, 132.0)">n</text><text xml:space="preserve" font-family="MarkerFelt-Thin" font-size="36.0" fill="#858585" transform="matrix(1.00, 0.00, -0.00, -1.00, 396.0, 132.0)">:</text><text xml:space="preserve" font-family="MarkerFelt-Thin" font-size="36.0" fill="#858585" transform="matrix(1.00, 0.00, -0.00, -1.00, 404.3, 132.0)"> </text><text xml:space="preserve" font-family="MarkerFelt-Thin" font-size="36.0" fill="#858585" transform="matrix(1.00, 0.00, -0.00, -1.00, 413.3, 132.0)">J</text><text xml:space="preserve" font-family="MarkerFelt-Thin" font-size="36.0" fill="#858585" transform="matrix(1.00, 0.00, -0.00, -1.00, 428.8, 132.0)">e</text><text xml:space="preserve" font-family="MarkerFelt-Thin" font-size="36.0" fill="#858585" transform="matrix(1.00, 0.00, -0.00, -1.00, 444.8, 132.0)">n</text><text xml:space="preserve" font-family="MarkerFelt-Thin" font-size="36.0" fill="#858585" transform="matrix(1.00, 0.00, -0.00, -1.00, 463.9, 132.0)">k</text><text xml:space="preserve" font-family="MarkerFelt-Thin" font-size="36.0" fill="#858585" transform="matrix(1.00, 0.00, -0.00, -1.00, 483.1, 132.0)">i</text><text xml:space="preserve" font-family="MarkerFelt-Thin" font-size="36.0" fill="#858585" transform="matrix(1.00, 0.00, -0.00, -1.00, 492.0, 132.0)">n</text><text xml:space="preserve" font-family="MarkerFelt-Thin" font-size="36.0" fill="#858585" transform="matrix(1.00, 0.00, -0.00, -1.00, 511.1, 132.0)">s</text><g><clipPath id="clip-170"><path d="M 543.3 403.9 L 564.2 403.9 L 564.2 423.5 L 543.3 423.5 Z M 543.3 403.9 "></path></clipPath><g clip-path="url(#clip-170)"><path d="M 563.9 410.9 C 564.1 410.6 564.2 410.3 564.2 410.0 C 564.2 409.4 563.9 408.8 563.2 408.3 C 562.5 407.7 561.7 407.5 560.8 407.5 C 559.7 407.5 558.3 408.3 556.8 410.0 C 556.8 410.0 556.8 407.5 556.8 407.5 C 556.8 407.2 556.9 406.9 557.0 406.6 C 557.2 406.2 557.3 406.0 557.3 405.8 C 557.3 405.3 557.0 404.8 556.5 404.5 C 555.9 404.1 555.4 403.9 554.9 403.9 C 553.9 403.9 553.1 404.3 552.4 405.1 C 552.2 405.4 552.1 406.1 552.2 407.2 C 552.2 408.3 552.3 409.5 552.4 410.6 C 551.8 410.2 550.7 409.6 549.1 408.7 C 548.9 408.4 548.2 408.0 547.1 407.7 C 546.3 407.6 545.4 407.7 544.6 408.1 C 543.7 408.5 543.3 409.0 543.3 409.7 C 543.3 409.9 543.3 410.0 543.4 410.2 C 543.6 410.6 543.9 410.8 544.4 411.0 C 545.3 411.3 545.8 411.4 545.9 411.5 C 545.9 411.5 550.5 414.0 550.5 414.0 C 550.5 414.0 547.2 415.6 547.2 415.6 C 546.7 415.6 546.1 415.8 545.3 416.3 C 545.1 416.5 545.1 416.8 545.1 417.1 C 545.1 417.8 545.5 418.6 546.4 419.3 C 547.4 420.1 548.3 420.5 549.2 420.5 C 549.5 420.5 549.8 420.4 550.1 420.3 C 550.4 420.2 550.7 419.9 551.0 419.5 C 551.3 418.9 551.7 418.4 552.4 418.0 C 552.4 418.0 552.5 420.9 552.5 420.9 C 552.4 421.4 552.4 421.9 552.5 422.7 C 552.9 423.2 553.7 423.5 555.0 423.5 C 556.2 423.5 557.0 423.1 557.4 422.4 C 557.6 422.1 557.6 421.5 557.5 420.4 C 557.4 419.4 557.3 418.5 557.2 417.6 C 557.2 417.6 558.9 418.4 558.9 418.4 C 559.3 418.8 559.9 419.2 560.8 419.6 C 561.5 419.6 562.1 419.4 562.8 418.8 C 563.4 418.3 563.7 417.7 563.7 417.0 C 563.7 416.7 563.6 416.5 563.5 416.2 C 563.3 416.0 563.0 415.8 562.6 415.7 C 562.1 415.6 561.7 415.5 561.6 415.4 C 561.6 415.4 559.0 413.6 559.0 413.6 C 559.0 413.6 562.3 411.8 562.3 411.8 C 562.7 411.7 563.3 411.4 563.9 410.9 Z M 563.9 410.9 " fill="#3995D6"></path></g></g><text xml:space="preserve" font-family="MarkerFelt-Thin" font-size="36.0" fill="#858585" transform="matrix(1.00, 0.00, -0.00, -1.00, 578.0, 402.0)">B</text><text xml:space="preserve" font-family="MarkerFelt-Thin" font-size="36.0" fill="#858585" transform="matrix(1.00, 0.00, -0.00, -1.00, 596.8, 402.0)">u</text><text xml:space="preserve" font-family="MarkerFelt-Thin" font-size="36.0" fill="#858585" transform="matrix(1.00, 0.00, -0.00, -1.00, 613.0, 402.0)">i</text><text xml:space="preserve" font-family="MarkerFelt-Thin" font-size="36.0" fill="#858585" transform="matrix(1.00, 0.00, -0.00, -1.00, 622.0, 402.0)">l</text><text xml:space="preserve" font-family="MarkerFelt-Thin" font-size="36.0" fill="#858585" transform="matrix(1.00, 0.00, -0.00, -1.00, 630.1, 402.0)">d</text><text xml:space="preserve" font-family="MarkerFelt-Thin" font-size="36.0" fill="#858585" transform="matrix(1.00, 0.00, -0.00, -1.00, 645.6, 402.0)"> </text><text xml:space="preserve" font-family="MarkerFelt-Thin" font-size="36.0" fill="#858585" transform="matrix(1.00, 0.00, -0.00, -1.00, 654.6, 402.0)">S</text><text xml:space="preserve" font-family="MarkerFelt-Thin" font-size="36.0" fill="#858585" transform="matrix(1.00, 0.00, -0.00, -1.00, 673.6, 402.0)">y</text><text xml:space="preserve" font-family="MarkerFelt-Thin" font-size="36.0" fill="#858585" transform="matrix(1.00, 0.00, -0.00, -1.00, 690.5, 402.0)">s</text><text xml:space="preserve" font-family="MarkerFelt-Thin" font-size="36.0" fill="#858585" transform="matrix(1.00, 0.00, -0.00, -1.00, 706.2, 402.0)">t</text><text xml:space="preserve" font-family="MarkerFelt-Thin" font-size="36.0" fill="#858585" transform="matrix(1.00, 0.00, -0.00, -1.00, 719.9, 402.0)">e</text><text xml:space="preserve" font-family="MarkerFelt-Thin" font-size="36.0" fill="#858585" transform="matrix(1.00, 0.00, -0.00, -1.00, 735.0, 402.0)">m</text><text xml:space="preserve" font-family="MarkerFelt-Thin" font-size="36.0" fill="#858585" transform="matrix(1.00, 0.00, -0.00, -1.00, 762.4, 402.0)">:</text><text xml:space="preserve" font-family="MarkerFelt-Thin" font-size="36.0" fill="#858585" transform="matrix(1.00, 0.00, -0.00, -1.00, 770.7, 402.0)"> </text><text xml:space="preserve" font-family="MarkerFelt-Thin" font-size="36.0" fill="#858585" transform="matrix(1.00, 0.00, -0.00, -1.00, 779.7, 402.0)">L</text><text xml:space="preserve" font-family="MarkerFelt-Thin" font-size="36.0" fill="#858585" transform="matrix(1.00, 0.00, -0.00, -1.00, 796.0, 402.0)">e</text><text xml:space="preserve" font-family="MarkerFelt-Thin" font-size="36.0" fill="#858585" transform="matrix(1.00, 0.00, -0.00, -1.00, 812.0, 402.0)">i</text><text xml:space="preserve" font-family="MarkerFelt-Thin" font-size="36.0" fill="#858585" transform="matrix(1.00, 0.00, -0.00, -1.00, 821.0, 402.0)">n</text><text xml:space="preserve" font-family="MarkerFelt-Thin" font-size="36.0" fill="#858585" transform="matrix(1.00, 0.00, -0.00, -1.00, 840.0, 402.0)">i</text><text xml:space="preserve" font-family="MarkerFelt-Thin" font-size="36.0" fill="#858585" transform="matrix(1.00, 0.00, -0.00, -1.00, 849.0, 402.0)">n</text><text xml:space="preserve" font-family="MarkerFelt-Thin" font-size="36.0" fill="#858585" transform="matrix(1.00, 0.00, -0.00, -1.00, 867.7, 402.0)">g</text><text xml:space="preserve" font-family="MarkerFelt-Thin" font-size="36.0" fill="#858585" transform="matrix(1.00, 0.00, -0.00, -1.00, 883.9, 402.0)">e</text><text xml:space="preserve" font-family="MarkerFelt-Thin" font-size="36.0" fill="#858585" transform="matrix(1.00, 0.00, -0.00, -1.00, 899.9, 402.0)">n</text><text xml:space="preserve" font-family="MarkerFelt-Thin" font-size="36.0" fill="#858585" transform="matrix(1.00, 0.00, -0.00, -1.00, 917.5, 402.0)"> </text><g><clipPath id="clip-171"><path d="M 578.3 326.9 L 599.2 326.9 L 599.2 346.5 L 578.3 346.5 Z M 578.3 326.9 "></path></clipPath><g clip-path="url(#clip-171)"><path d="M 598.9 333.9 C 599.1 333.6 599.2 333.3 599.2 333.0 C 599.2 332.4 598.9 331.8 598.2 331.3 C 597.5 330.7 596.7 330.5 595.8 330.5 C 594.7 330.5 593.3 331.3 591.8 333.0 C 591.8 333.0 591.8 330.5 591.8 330.5 C 591.8 330.2 591.9 329.9 592.0 329.6 C 592.2 329.2 592.3 329.0 592.3 328.8 C 592.3 328.3 592.0 327.8 591.5 327.5 C 590.9 327.1 590.4 326.9 589.9 326.9 C 588.9 326.9 588.1 327.3 587.4 328.1 C 587.2 328.4 587.1 329.1 587.2 330.2 C 587.2 331.3 587.3 332.5 587.4 333.6 C 586.8 333.2 585.7 332.6 584.1 331.7 C 583.9 331.4 583.2 331.0 582.1 330.7 C 581.3 330.6 580.4 330.7 579.6 331.1 C 578.7 331.5 578.3 332.0 578.3 332.7 C 578.3 332.9 578.3 333.0 578.4 333.2 C 578.6 333.6 578.9 333.8 579.4 334.0 C 580.3 334.3 580.8 334.4 580.9 334.5 C 580.9 334.5 585.5 337.0 585.5 337.0 C 585.5 337.0 582.2 338.6 582.2 338.6 C 581.7 338.6 581.1 338.8 580.3 339.3 C 580.1 339.5 580.1 339.8 580.1 340.1 C 580.1 340.8 580.5 341.6 581.4 342.3 C 582.4 343.1 583.3 343.5 584.2 343.5 C 584.5 343.5 584.8 343.4 585.1 343.3 C 585.4 343.2 585.7 342.9 586.0 342.5 C 586.3 341.9 586.7 341.4 587.4 341.0 C 587.4 341.0 587.5 343.9 587.5 343.9 C 587.4 344.4 587.4 344.9 587.5 345.7 C 587.9 346.2 588.7 346.5 590.0 346.5 C 591.2 346.5 592.0 346.1 592.4 345.4 C 592.6 345.1 592.6 344.5 592.5 343.4 C 592.4 342.4 592.3 341.5 592.2 340.6 C 592.2 340.6 593.9 341.4 593.9 341.4 C 594.3 341.8 594.9 342.2 595.8 342.6 C 596.5 342.6 597.1 342.4 597.8 341.8 C 598.4 341.3 598.7 340.7 598.7 340.0 C 598.7 339.7 598.6 339.5 598.5 339.2 C 598.3 339.0 598.0 338.8 597.6 338.7 C 597.1 338.6 596.7 338.5 596.6 338.4 C 596.6 338.4 594.0 336.6 594.0 336.6 C 594.0 336.6 597.3 334.8 597.3 334.8 C 597.7 334.7 598.3 334.4 598.9 333.9 Z M 598.9 333.9 " fill="#3995D6"></path></g></g><text xml:space="preserve" font-family="MarkerFelt-Thin" font-size="36.0" fill="#858585" transform="matrix(1.00, 0.00, -0.00, -1.00, 613.0, 325.0)">N</text><text xml:space="preserve" font-family="MarkerFelt-Thin" font-size="36.0" fill="#858585" transform="matrix(1.00, 0.00, -0.00, -1.00, 635.5, 325.0)">o</text><text xml:space="preserve" font-family="MarkerFelt-Thin" font-size="36.0" fill="#858585" transform="matrix(1.00, 0.00, -0.00, -1.00, 652.8, 325.0)">t</text><text xml:space="preserve" font-family="MarkerFelt-Thin" font-size="36.0" fill="#858585" transform="matrix(1.00, 0.00, -0.00, -1.00, 666.5, 325.0)">e</text><text xml:space="preserve" font-family="MarkerFelt-Thin" font-size="36.0" fill="#858585" transform="matrix(1.00, 0.00, -0.00, -1.00, 682.0, 325.0)">:</text><text xml:space="preserve" font-family="MarkerFelt-Thin" font-size="36.0" fill="#858585" transform="matrix(1.00, 0.00, -0.00, -1.00, 690.3, 325.0)"> </text><text xml:space="preserve" font-family="MarkerFelt-Thin" font-size="36.0" fill="#858585" transform="matrix(1.00, 0.00, -0.00, -1.00, 699.3, 325.0)">d</text><text xml:space="preserve" font-family="MarkerFelt-Thin" font-size="36.0" fill="#858585" transform="matrix(1.00, 0.00, -0.00, -1.00, 715.8, 325.0)">o</text><text xml:space="preserve" font-family="MarkerFelt-Thin" font-size="36.0" fill="#858585" transform="matrix(1.00, 0.00, -0.00, -1.00, 732.1, 325.0)">n</text><text xml:space="preserve" font-family="MarkerFelt-Thin" font-size="36.0" fill="#858585" transform="matrix(1.00, 0.00, -0.00, -1.00, 750.7, 325.0)">e</text><text xml:space="preserve" font-family="MarkerFelt-Thin" font-size="36.0" fill="#858585" transform="matrix(1.00, 0.00, -0.00, -1.00, 764.4, 325.0)"> </text><g><clipPath id="clip-172"><path d="M 543.3 249.9 L 564.2 249.9 L 564.2 269.5 L 543.3 269.5 Z M 543.3 249.9 "></path></clipPath><g clip-path="url(#clip-172)"><path d="M 563.9 256.9 C 564.1 256.6 564.2 256.3 564.2 256.0 C 564.2 255.4 563.9 254.8 563.2 254.3 C 562.5 253.7 561.7 253.5 560.8 253.5 C 559.7 253.5 558.3 254.3 556.8 256.0 C 556.8 256.0 556.8 253.5 556.8 253.5 C 556.8 253.2 556.9 252.9 557.0 252.6 C 557.2 252.2 557.3 252.0 557.3 251.8 C 557.3 251.3 557.0 250.8 556.5 250.5 C 555.9 250.1 555.4 249.9 554.9 249.9 C 553.9 249.9 553.1 250.3 552.4 251.1 C 552.2 251.4 552.1 252.1 552.2 253.2 C 552.2 254.3 552.3 255.5 552.4 256.6 C 551.8 256.2 550.7 255.6 549.1 254.7 C 548.9 254.4 548.2 254.0 547.1 253.7 C 546.3 253.6 545.4 253.7 544.6 254.1 C 543.7 254.5 543.3 255.0 543.3 255.7 C 543.3 255.9 543.3 256.0 543.4 256.2 C 543.6 256.6 543.9 256.8 544.4 257.0 C 545.3 257.3 545.8 257.4 545.9 257.5 C 545.9 257.5 550.5 260.0 550.5 260.0 C 550.5 260.0 547.2 261.6 547.2 261.6 C 546.7 261.6 546.1 261.8 545.3 262.3 C 545.1 262.5 545.1 262.8 545.1 263.1 C 545.1 263.8 545.5 264.6 546.4 265.3 C 547.4 266.1 548.3 266.5 549.2 266.5 C 549.5 266.5 549.8 266.4 550.1 266.3 C 550.4 266.2 550.7 265.9 551.0 265.5 C 551.3 264.9 551.7 264.4 552.4 264.0 C 552.4 264.0 552.5 266.9 552.5 266.9 C 552.4 267.4 552.4 267.9 552.5 268.7 C 552.9 269.2 553.7 269.5 555.0 269.5 C 556.2 269.5 557.0 269.1 557.4 268.4 C 557.6 268.1 557.6 267.5 557.5 266.4 C 557.4 265.4 557.3 264.5 557.2 263.6 C 557.2 263.6 558.9 264.4 558.9 264.4 C 559.3 264.8 559.9 265.2 560.8 265.6 C 561.5 265.6 562.1 265.4 562.8 264.8 C 563.4 264.3 563.7 263.7 563.7 263.0 C 563.7 262.7 563.6 262.5 563.5 262.2 C 563.3 262.0 563.0 261.8 562.6 261.7 C 562.1 261.6 561.7 261.5 561.6 261.4 C 561.6 261.4 559.0 259.6 559.0 259.6 C 559.0 259.6 562.3 257.8 562.3 257.8 C 562.7 257.7 563.3 257.4 563.9 256.9 Z M 563.9 256.9 " fill="#3995D6"></path></g></g><text xml:space="preserve" font-family="MarkerFelt-Thin" font-size="36.0" fill="#858585" transform="matrix(1.00, 0.00, -0.00, -1.00, 578.0, 248.0)">A</text><text xml:space="preserve" font-family="MarkerFelt-Thin" font-size="36.0" fill="#858585" transform="matrix(1.00, 0.00, -0.00, -1.00, 601.0, 248.0)">r</text><text xml:space="preserve" font-family="MarkerFelt-Thin" font-size="36.0" fill="#858585" transform="matrix(1.00, 0.00, -0.00, -1.00, 615.8, 248.0)">t</text><text xml:space="preserve" font-family="MarkerFelt-Thin" font-size="36.0" fill="#858585" transform="matrix(1.00, 0.00, -0.00, -1.00, 631.2, 248.0)">i</text><text xml:space="preserve" font-family="MarkerFelt-Thin" font-size="36.0" fill="#858585" transform="matrix(1.00, 0.00, -0.00, -1.00, 640.2, 248.0)">f</text><text xml:space="preserve" font-family="MarkerFelt-Thin" font-size="36.0" fill="#858585" transform="matrix(1.00, 0.00, -0.00, -1.00, 655.4, 248.0)">a</text><text xml:space="preserve" font-family="MarkerFelt-Thin" font-size="36.0" fill="#858585" transform="matrix(1.00, 0.00, -0.00, -1.00, 672.9, 248.0)">c</text><text xml:space="preserve" font-family="MarkerFelt-Thin" font-size="36.0" fill="#858585" transform="matrix(1.00, 0.00, -0.00, -1.00, 688.6, 248.0)">t</text><text xml:space="preserve" font-family="MarkerFelt-Thin" font-size="36.0" fill="#858585" transform="matrix(1.00, 0.00, -0.00, -1.00, 701.6, 248.0)"> </text><text xml:space="preserve" font-family="MarkerFelt-Thin" font-size="36.0" fill="#858585" transform="matrix(1.00, 0.00, -0.00, -1.00, 710.6, 248.0)">M</text><text xml:space="preserve" font-family="MarkerFelt-Thin" font-size="36.0" fill="#858585" transform="matrix(1.00, 0.00, -0.00, -1.00, 745.7, 248.0)">a</text><text xml:space="preserve" font-family="MarkerFelt-Thin" font-size="36.0" fill="#858585" transform="matrix(1.00, 0.00, -0.00, -1.00, 763.7, 248.0)">n</text><text xml:space="preserve" font-family="MarkerFelt-Thin" font-size="36.0" fill="#858585" transform="matrix(1.00, 0.00, -0.00, -1.00, 783.5, 248.0)">a</text><text xml:space="preserve" font-family="MarkerFelt-Thin" font-size="36.0" fill="#858585" transform="matrix(1.00, 0.00, -0.00, -1.00, 800.7, 248.0)">g</text><text xml:space="preserve" font-family="MarkerFelt-Thin" font-size="36.0" fill="#858585" transform="matrix(1.00, 0.00, -0.00, -1.00, 816.9, 248.0)">e</text><text xml:space="preserve" font-family="MarkerFelt-Thin" font-size="36.0" fill="#858585" transform="matrix(1.00, 0.00, -0.00, -1.00, 832.1, 248.0)">m</text><text xml:space="preserve" font-family="MarkerFelt-Thin" font-size="36.0" fill="#858585" transform="matrix(1.00, 0.00, -0.00, -1.00, 858.0, 248.0)">e</text><text xml:space="preserve" font-family="MarkerFelt-Thin" font-size="36.0" fill="#858585" transform="matrix(1.00, 0.00, -0.00, -1.00, 874.0, 248.0)">n</text><text xml:space="preserve" font-family="MarkerFelt-Thin" font-size="36.0" fill="#858585" transform="matrix(1.00, 0.00, -0.00, -1.00, 893.7, 248.0)">t</text><text xml:space="preserve" font-family="MarkerFelt-Thin" font-size="36.0" fill="#858585" transform="matrix(1.00, 0.00, -0.00, -1.00, 907.7, 248.0)">:</text><text xml:space="preserve" font-family="MarkerFelt-Thin" font-size="36.0" fill="#858585" transform="matrix(1.00, 0.00, -0.00, -1.00, 915.9, 248.0)"> </text><text xml:space="preserve" font-family="MarkerFelt-Thin" font-size="36.0" fill="#858585" transform="matrix(1.00, 0.00, -0.00, -1.00, 578.0, 209.0)">N</text><text xml:space="preserve" font-family="MarkerFelt-Thin" font-size="36.0" fill="#858585" transform="matrix(1.00, 0.00, -0.00, -1.00, 599.6, 209.0)">e</text><text xml:space="preserve" font-family="MarkerFelt-Thin" font-size="36.0" fill="#858585" transform="matrix(1.00, 0.00, -0.00, -1.00, 616.2, 209.0)">x</text><text xml:space="preserve" font-family="MarkerFelt-Thin" font-size="36.0" fill="#858585" transform="matrix(1.00, 0.00, -0.00, -1.00, 632.8, 209.0)">u</text><text xml:space="preserve" font-family="MarkerFelt-Thin" font-size="36.0" fill="#858585" transform="matrix(1.00, 0.00, -0.00, -1.00, 648.5, 209.0)">s</text><text xml:space="preserve" font-family="MarkerFelt-Thin" font-size="36.0" fill="#858585" transform="matrix(1.00, 0.00, -0.00, -1.00, 661.8, 209.0)"> </text><g><clipPath id="clip-173"><path d="M 543.3 133.9 L 564.2 133.9 L 564.2 153.5 L 543.3 153.5 Z M 543.3 133.9 "></path></clipPath><g clip-path="url(#clip-173)"><path d="M 563.9 140.9 C 564.1 140.6 564.2 140.3 564.2 140.0 C 564.2 139.4 563.9 138.8 563.2 138.3 C 562.5 137.7 561.7 137.5 560.8 137.5 C 559.7 137.5 558.3 138.3 556.8 140.0 C 556.8 140.0 556.8 137.5 556.8 137.5 C 556.8 137.2 556.9 136.9 557.0 136.6 C 557.2 136.2 557.3 136.0 557.3 135.8 C 557.3 135.3 557.0 134.8 556.5 134.5 C 555.9 134.1 555.4 133.9 554.9 133.9 C 553.9 133.9 553.1 134.3 552.4 135.1 C 552.2 135.4 552.1 136.1 552.2 137.2 C 552.2 138.3 552.3 139.5 552.4 140.6 C 551.8 140.2 550.7 139.6 549.1 138.7 C 548.9 138.4 548.2 138.0 547.1 137.7 C 546.3 137.6 545.4 137.7 544.6 138.1 C 543.7 138.5 543.3 139.0 543.3 139.7 C 543.3 139.9 543.3 140.0 543.4 140.2 C 543.6 140.6 543.9 140.8 544.4 141.0 C 545.3 141.3 545.8 141.4 545.9 141.5 C 545.9 141.5 550.5 144.0 550.5 144.0 C 550.5 144.0 547.2 145.6 547.2 145.6 C 546.7 145.6 546.1 145.8 545.3 146.3 C 545.1 146.5 545.1 146.8 545.1 147.1 C 545.1 147.8 545.5 148.6 546.4 149.3 C 547.4 150.1 548.3 150.5 549.2 150.5 C 549.5 150.5 549.8 150.4 550.1 150.3 C 550.4 150.2 550.7 149.9 551.0 149.5 C 551.3 148.9 551.7 148.4 552.4 148.0 C 552.4 148.0 552.5 150.9 552.5 150.9 C 552.4 151.4 552.4 151.9 552.5 152.7 C 552.9 153.2 553.7 153.5 555.0 153.5 C 556.2 153.5 557.0 153.1 557.4 152.4 C 557.6 152.1 557.6 151.5 557.5 150.4 C 557.4 149.4 557.3 148.5 557.2 147.6 C 557.2 147.6 558.9 148.4 558.9 148.4 C 559.3 148.8 559.9 149.2 560.8 149.6 C 561.5 149.6 562.1 149.4 562.8 148.8 C 563.4 148.3 563.7 147.7 563.7 147.0 C 563.7 146.7 563.6 146.5 563.5 146.2 C 563.3 146.0 563.0 145.8 562.6 145.7 C 562.1 145.6 561.7 145.5 561.6 145.4 C 561.6 145.4 559.0 143.6 559.0 143.6 C 559.0 143.6 562.3 141.8 562.3 141.8 C 562.7 141.7 563.3 141.4 563.9 140.9 Z M 563.9 140.9 " fill="#3995D6"></path></g></g><text xml:space="preserve" font-family="MarkerFelt-Thin" font-size="36.0" fill="#858585" transform="matrix(1.00, 0.00, -0.00, -1.00, 578.0, 132.0)">B</text><text xml:space="preserve" font-family="MarkerFelt-Thin" font-size="36.0" fill="#858585" transform="matrix(1.00, 0.00, -0.00, -1.00, 596.8, 132.0)">u</text><text xml:space="preserve" font-family="MarkerFelt-Thin" font-size="36.0" fill="#858585" transform="matrix(1.00, 0.00, -0.00, -1.00, 613.0, 132.0)">i</text><text xml:space="preserve" font-family="MarkerFelt-Thin" font-size="36.0" fill="#858585" transform="matrix(1.00, 0.00, -0.00, -1.00, 622.0, 132.0)">l</text><text xml:space="preserve" font-family="MarkerFelt-Thin" font-size="36.0" fill="#858585" transform="matrix(1.00, 0.00, -0.00, -1.00, 630.1, 132.0)">d</text><text xml:space="preserve" font-family="MarkerFelt-Thin" font-size="36.0" fill="#858585" transform="matrix(1.00, 0.00, -0.00, -1.00, 645.6, 132.0)"> </text><text xml:space="preserve" font-family="MarkerFelt-Thin" font-size="36.0" fill="#858585" transform="matrix(1.00, 0.00, -0.00, -1.00, 654.6, 132.0)">A</text><text xml:space="preserve" font-family="MarkerFelt-Thin" font-size="36.0" fill="#858585" transform="matrix(1.00, 0.00, -0.00, -1.00, 678.1, 132.0)">u</text><text xml:space="preserve" font-family="MarkerFelt-Thin" font-size="36.0" fill="#858585" transform="matrix(1.00, 0.00, -0.00, -1.00, 695.4, 132.0)">t</text><text xml:space="preserve" font-family="MarkerFelt-Thin" font-size="36.0" fill="#858585" transform="matrix(1.00, 0.00, -0.00, -1.00, 709.9, 132.0)">o</text><text xml:space="preserve" font-family="MarkerFelt-Thin" font-size="36.0" fill="#858585" transform="matrix(1.00, 0.00, -0.00, -1.00, 725.5, 132.0)">m</text><text xml:space="preserve" font-family="MarkerFelt-Thin" font-size="36.0" fill="#858585" transform="matrix(1.00, 0.00, -0.00, -1.00, 753.2, 132.0)">a</text><text xml:space="preserve" font-family="MarkerFelt-Thin" font-size="36.0" fill="#858585" transform="matrix(1.00, 0.00, -0.00, -1.00, 770.8, 132.0)">t</text><text xml:space="preserve" font-family="MarkerFelt-Thin" font-size="36.0" fill="#858585" transform="matrix(1.00, 0.00, -0.00, -1.00, 786.3, 132.0)">i</text><text xml:space="preserve" font-family="MarkerFelt-Thin" font-size="36.0" fill="#858585" transform="matrix(1.00, 0.00, -0.00, -1.00, 794.6, 132.0)">o</text><text xml:space="preserve" font-family="MarkerFelt-Thin" font-size="36.0" fill="#858585" transform="matrix(1.00, 0.00, -0.00, -1.00, 810.9, 132.0)">n</text><text xml:space="preserve" font-family="MarkerFelt-Thin" font-size="36.0" fill="#858585" transform="matrix(1.00, 0.00, -0.00, -1.00, 830.0, 132.0)">:</text><text xml:space="preserve" font-family="MarkerFelt-Thin" font-size="36.0" fill="#858585" transform="matrix(1.00, 0.00, -0.00, -1.00, 838.3, 132.0)"> </text><text xml:space="preserve" font-family="MarkerFelt-Thin" font-size="36.0" fill="#858585" transform="matrix(1.00, 0.00, -0.00, -1.00, 847.3, 132.0)">J</text><text xml:space="preserve" font-family="MarkerFelt-Thin" font-size="36.0" fill="#858585" transform="matrix(1.00, 0.00, -0.00, -1.00, 862.8, 132.0)">e</text><text xml:space="preserve" font-family="MarkerFelt-Thin" font-size="36.0" fill="#858585" transform="matrix(1.00, 0.00, -0.00, -1.00, 878.8, 132.0)">n</text><text xml:space="preserve" font-family="MarkerFelt-Thin" font-size="36.0" fill="#858585" transform="matrix(1.00, 0.00, -0.00, -1.00, 897.9, 132.0)">k</text><text xml:space="preserve" font-family="MarkerFelt-Thin" font-size="36.0" fill="#858585" transform="matrix(1.00, 0.00, -0.00, -1.00, 917.1, 132.0)">i</text><text xml:space="preserve" font-family="MarkerFelt-Thin" font-size="36.0" fill="#858585" transform="matrix(1.00, 0.00, -0.00, -1.00, 926.0, 132.0)">n</text><text xml:space="preserve" font-family="MarkerFelt-Thin" font-size="36.0" fill="#858585" transform="matrix(1.00, 0.00, -0.00, -1.00, 945.1, 132.0)">s</text><image xlink:href="../../910212AF-1AE5-4F51-9139-BD01718D421A/assets/547EA4EA9DA778A1FFF090B6C2516D64.png" width="402.00" height="146.00" transform="matrix(1.00, 0.00, -0.00, -1.00, 490.9, 577.6)" opacity="0.70"></image><image xlink:href="../../910212AF-1AE5-4F51-9139-BD01718D421A/assets/84D4918814398691FE01903DE05B406B.png" width="362.00" height="106.00" transform="matrix(1.00, 0.00, -0.00, -1.00, 511.0, 568.0)"></image><image xlink:href="../../CEF7D76C-3845-403D-ABBB-795D2CDB866F/assets/A4ACE50C7FFA3EC3416EC2F1998CFD89.png" width="98.00" height="181.00" transform="matrix(0.88, 0.00, -0.00, -0.86, 249.0, 593.0)"></image></g></svg>