<?xml version="1.0" encoding="UTF-8" standalone="no"?><svg xmlns="http://www.w3.org/2000/svg" xmlns:xlink="http://www.w3.org/1999/xlink" clip-rule="evenodd" stroke-miterlimit="4.00" viewBox="0 0 204 37"><desc>SVG generated by Keynote</desc><defs></defs><g transform="matrix(1.00, 0.00, -0.00, -1.00, 0.0, 37.0)"><g><clipPath id="clip-426"><path d="M 0.0 10.1 L 19.1 10.1 L 19.1 27.9 L 0.0 27.9 Z M 0.0 10.1 "></path></clipPath><g clip-path="url(#clip-426)"><path d="M 18.8 16.5 C 19.0 16.2 19.1 16.0 19.1 15.7 C 19.1 15.1 18.8 14.6 18.1 14.1 C 17.5 13.6 16.8 13.4 16.0 13.4 C 14.9 13.4 13.7 14.1 12.3 15.7 C 12.3 15.7 12.3 13.4 12.3 13.4 C 12.3 13.1 12.4 12.9 12.5 12.6 C 12.7 12.2 12.7 12.0 12.7 11.9 C 12.7 11.4 12.5 11.0 12.0 10.6 C 11.5 10.3 11.0 10.1 10.5 10.1 C 9.7 10.1 8.9 10.5 8.3 11.2 C 8.1 11.5 8.1 12.1 8.1 13.1 C 8.2 14.1 8.2 15.2 8.3 16.2 C 7.8 15.8 6.8 15.3 5.3 14.5 C 5.1 14.2 4.5 13.9 3.5 13.5 C 2.7 13.4 2.0 13.6 1.2 13.9 C 0.4 14.3 0.0 14.8 0.0 15.4 C 0.0 15.5 0.0 15.7 0.1 15.8 C 0.3 16.2 0.6 16.4 1.1 16.6 C 1.8 16.8 2.3 17.0 2.4 17.0 C 2.4 17.0 6.6 19.3 6.6 19.3 C 6.6 19.3 3.6 20.7 3.6 20.7 C 3.1 20.7 2.6 21.0 1.9 21.4 C 1.7 21.6 1.6 21.8 1.6 22.1 C 1.6 22.8 2.0 23.5 2.9 24.2 C 3.7 24.8 4.6 25.2 5.4 25.2 C 5.7 25.2 6.0 25.1 6.3 25.0 C 6.5 24.9 6.8 24.7 7.0 24.3 C 7.3 23.8 7.7 23.3 8.3 22.9 C 8.3 22.9 8.4 25.6 8.4 25.6 C 8.3 26.0 8.3 26.5 8.4 27.2 C 8.7 27.7 9.5 27.9 10.7 27.9 C 11.8 27.9 12.5 27.6 12.9 27.0 C 13.0 26.7 13.1 26.1 13.0 25.1 C 12.9 24.3 12.8 23.4 12.7 22.5 C 12.7 22.5 14.2 23.3 14.2 23.3 C 14.5 23.7 15.1 24.0 16.0 24.4 C 16.6 24.4 17.2 24.2 17.8 23.7 C 18.3 23.2 18.6 22.6 18.6 22.0 C 18.6 21.8 18.5 21.5 18.4 21.3 C 18.2 21.1 18.0 20.9 17.6 20.9 C 17.1 20.7 16.8 20.6 16.7 20.5 C 16.7 20.5 14.4 18.9 14.4 18.9 C 14.4 18.9 17.3 17.3 17.3 17.3 C 17.7 17.2 18.2 16.9 18.8 16.5 Z M 18.8 16.5 " fill="#3995D6"></path></g></g><text xml:space="preserve" font-family="MarkerFelt-Thin" font-size="32.8" fill="#858585" transform="matrix(1.00, 0.00, -0.00, -1.00, 32.0, 8.0)">O</text><text xml:space="preserve" font-family="MarkerFelt-Thin" font-size="32.8" fill="#858585" transform="matrix(1.00, 0.00, -0.00, -1.00, 50.7, 8.0)">n</text><text xml:space="preserve" font-family="MarkerFelt-Thin" font-size="32.8" fill="#858585" transform="matrix(1.00, 0.00, -0.00, -1.00, 67.6, 8.0)">e</text><text xml:space="preserve" font-family="MarkerFelt-Thin" font-size="32.8" fill="#858585" transform="matrix(1.00, 0.00, -0.00, -1.00, 80.1, 8.0)"> </text><text xml:space="preserve" font-family="MarkerFelt-Thin" font-size="32.8" fill="#858585" transform="matrix(1.00, 0.00, -0.00, -1.00, 88.3, 8.0)">l</text><text xml:space="preserve" font-family="MarkerFelt-Thin" font-size="32.8" fill="#858585" transform="matrix(1.00, 0.00, -0.00, -1.00, 96.3, 8.0)">a</text><text xml:space="preserve" font-family="MarkerFelt-Thin" font-size="32.8" fill="#858585" transform="matrix(1.00, 0.00, -0.00, -1.00, 112.7, 8.0)">n</text><text xml:space="preserve" font-family="MarkerFelt-Thin" font-size="32.8" fill="#858585" transform="matrix(1.00, 0.00, -0.00, -1.00, 129.7, 8.0)">g</text><text xml:space="preserve" font-family="MarkerFelt-Thin" font-size="32.8" fill="#858585" transform="matrix(1.00, 0.00, -0.00, -1.00, 144.7, 8.0)">u</text><text xml:space="preserve" font-family="MarkerFelt-Thin" font-size="32.8" fill="#858585" transform="matrix(1.00, 0.00, -0.00, -1.00, 159.3, 8.0)">a</text><text xml:space="preserve" font-family="MarkerFelt-Thin" font-size="32.8" fill="#858585" transform="matrix(1.00, 0.00, -0.00, -1.00, 175.0, 8.0)">g</text><text xml:space="preserve" font-family="MarkerFelt-Thin" font-size="32.8" fill="#858585" transform="matrix(1.00, 0.00, -0.00, -1.00, 189.8, 8.0)">e</text></g></svg>