<?xml version="1.0" encoding="UTF-8" standalone="no"?><svg xmlns="http://www.w3.org/2000/svg" xmlns:xlink="http://www.w3.org/1999/xlink" clip-rule="evenodd" stroke-miterlimit="4.00" viewBox="0 0 290 37"><desc>SVG generated by Keynote</desc><defs></defs><g transform="matrix(1.00, 0.00, -0.00, -1.00, 0.0, 37.0)"><g><clipPath id="clip-428"><path d="M 0.0 10.0 L 19.1 10.0 L 19.1 27.7 L 0.0 27.7 Z M 0.0 10.0 "></path></clipPath><g clip-path="url(#clip-428)"><path d="M 18.8 16.3 C 19.0 16.1 19.1 15.8 19.1 15.5 C 19.1 14.9 18.8 14.4 18.1 13.9 C 17.5 13.4 16.8 13.2 16.0 13.2 C 14.9 13.2 13.7 14.0 12.3 15.5 C 12.3 15.5 12.3 13.2 12.3 13.2 C 12.3 13.0 12.4 12.7 12.5 12.4 C 12.7 12.1 12.7 11.8 12.7 11.7 C 12.7 11.2 12.5 10.8 12.0 10.5 C 11.5 10.1 11.0 10.0 10.5 10.0 C 9.7 10.0 8.9 10.3 8.3 11.1 C 8.1 11.3 8.1 11.9 8.1 12.9 C 8.2 14.0 8.2 15.0 8.3 16.1 C 7.8 15.7 6.8 15.1 5.3 14.3 C 5.1 14.0 4.5 13.7 3.5 13.4 C 2.7 13.3 2.0 13.4 1.2 13.8 C 0.4 14.1 0.0 14.6 0.0 15.2 C 0.0 15.4 0.0 15.5 0.1 15.7 C 0.3 16.0 0.6 16.2 1.1 16.4 C 1.8 16.7 2.3 16.8 2.4 16.8 C 2.4 16.8 6.6 19.1 6.6 19.1 C 6.6 19.1 3.6 20.6 3.6 20.6 C 3.1 20.6 2.6 20.8 1.9 21.2 C 1.7 21.4 1.6 21.7 1.6 21.9 C 1.6 22.6 2.0 23.3 2.9 24.0 C 3.7 24.7 4.6 25.0 5.4 25.0 C 5.7 25.0 6.0 25.0 6.3 24.9 C 6.5 24.8 6.8 24.5 7.0 24.1 C 7.3 23.6 7.7 23.1 8.3 22.8 C 8.3 22.8 8.4 25.5 8.4 25.5 C 8.3 25.8 8.3 26.4 8.4 27.1 C 8.7 27.5 9.5 27.7 10.7 27.7 C 11.8 27.7 12.5 27.4 12.9 26.8 C 13.0 26.5 13.1 25.9 13.0 24.9 C 12.9 24.1 12.8 23.2 12.7 22.4 C 12.7 22.4 14.2 23.2 14.2 23.2 C 14.5 23.5 15.1 23.9 16.0 24.2 C 16.6 24.3 17.2 24.0 17.8 23.5 C 18.3 23.0 18.6 22.5 18.6 21.9 C 18.6 21.6 18.5 21.4 18.4 21.1 C 18.2 20.9 18.0 20.8 17.6 20.7 C 17.1 20.6 16.8 20.5 16.7 20.4 C 16.7 20.4 14.4 18.7 14.4 18.7 C 14.4 18.7 17.3 17.1 17.3 17.1 C 17.7 17.0 18.2 16.7 18.8 16.3 Z M 18.8 16.3 " fill="#3995D6"></path></g></g><text xml:space="preserve" font-family="MarkerFelt-Thin" font-size="32.8" fill="#858585" transform="matrix(1.00, 0.00, -0.00, -1.00, 32.0, 8.0)">S</text><text xml:space="preserve" font-family="MarkerFelt-Thin" font-size="32.8" fill="#858585" transform="matrix(1.00, 0.00, -0.00, -1.00, 49.2, 8.0)">i</text><text xml:space="preserve" font-family="MarkerFelt-Thin" font-size="32.8" fill="#858585" transform="matrix(1.00, 0.00, -0.00, -1.00, 57.4, 8.0)">n</text><text xml:space="preserve" font-family="MarkerFelt-Thin" font-size="32.8" fill="#858585" transform="matrix(1.00, 0.00, -0.00, -1.00, 74.4, 8.0)">g</text><text xml:space="preserve" font-family="MarkerFelt-Thin" font-size="32.8" fill="#858585" transform="matrix(1.00, 0.00, -0.00, -1.00, 89.6, 8.0)">l</text><text xml:space="preserve" font-family="MarkerFelt-Thin" font-size="32.8" fill="#858585" transform="matrix(1.00, 0.00, -0.00, -1.00, 97.0, 8.0)">e</text><text xml:space="preserve" font-family="MarkerFelt-Thin" font-size="32.8" fill="#858585" transform="matrix(1.00, 0.00, -0.00, -1.00, 109.4, 8.0)"> </text><text xml:space="preserve" font-family="MarkerFelt-Thin" font-size="32.8" fill="#858585" transform="matrix(1.00, 0.00, -0.00, -1.00, 117.6, 8.0)">c</text><text xml:space="preserve" font-family="MarkerFelt-Thin" font-size="32.8" fill="#858585" transform="matrix(1.00, 0.00, -0.00, -1.00, 131.6, 8.0)">o</text><text xml:space="preserve" font-family="MarkerFelt-Thin" font-size="32.8" fill="#858585" transform="matrix(1.00, 0.00, -0.00, -1.00, 146.4, 8.0)">n</text><text xml:space="preserve" font-family="MarkerFelt-Thin" font-size="32.8" fill="#858585" transform="matrix(1.00, 0.00, -0.00, -1.00, 162.5, 8.0)">ï¬</text><text xml:space="preserve" font-family="MarkerFelt-Thin" font-size="32.8" fill="#858585" transform="matrix(1.00, 0.00, -0.00, -1.00, 177.2, 8.0)">g</text><text xml:space="preserve" font-family="MarkerFelt-Thin" font-size="32.8" fill="#858585" transform="matrix(1.00, 0.00, -0.00, -1.00, 192.2, 8.0)">u</text><text xml:space="preserve" font-family="MarkerFelt-Thin" font-size="32.8" fill="#858585" transform="matrix(1.00, 0.00, -0.00, -1.00, 207.1, 8.0)">r</text><text xml:space="preserve" font-family="MarkerFelt-Thin" font-size="32.8" fill="#858585" transform="matrix(1.00, 0.00, -0.00, -1.00, 220.5, 8.0)">a</text><text xml:space="preserve" font-family="MarkerFelt-Thin" font-size="32.8" fill="#858585" transform="matrix(1.00, 0.00, -0.00, -1.00, 236.6, 8.0)">t</text><text xml:space="preserve" font-family="MarkerFelt-Thin" font-size="32.8" fill="#858585" transform="matrix(1.00, 0.00, -0.00, -1.00, 250.6, 8.0)">i</text><text xml:space="preserve" font-family="MarkerFelt-Thin" font-size="32.8" fill="#858585" transform="matrix(1.00, 0.00, -0.00, -1.00, 258.2, 8.0)">o</text><text xml:space="preserve" font-family="MarkerFelt-Thin" font-size="32.8" fill="#858585" transform="matrix(1.00, 0.00, -0.00, -1.00, 273.0, 8.0)">n</text></g></svg>