<?xml version="1.0" encoding="UTF-8" standalone="no"?><svg xmlns="http://www.w3.org/2000/svg" xmlns:xlink="http://www.w3.org/1999/xlink" clip-rule="evenodd" stroke-miterlimit="4.00" viewBox="0 0 333 38"><desc>SVG generated by Keynote</desc><defs></defs><g transform="matrix(1.00, 0.00, -0.00, -1.00, 0.0, 38.0)"><g><clipPath id="clip-422"><path d="M 0.0 11.0 L 18.9 11.0 L 18.9 28.6 L 0.0 28.6 Z M 0.0 11.0 "></path></clipPath><g clip-path="url(#clip-422)"><path d="M 18.6 17.3 C 18.8 17.0 18.9 16.8 18.9 16.5 C 18.9 15.9 18.5 15.4 17.9 14.9 C 17.3 14.4 16.6 14.2 15.8 14.2 C 14.8 14.2 13.6 15.0 12.2 16.5 C 12.2 16.5 12.2 14.2 12.2 14.2 C 12.2 14.0 12.3 13.7 12.4 13.4 C 12.5 13.1 12.6 12.9 12.6 12.7 C 12.6 12.2 12.4 11.8 11.9 11.5 C 11.4 11.2 10.9 11.0 10.4 11.0 C 9.6 11.0 8.8 11.4 8.2 12.1 C 8.0 12.3 8.0 12.9 8.0 13.9 C 8.1 15.0 8.1 16.0 8.2 17.0 C 7.7 16.7 6.7 16.1 5.2 15.3 C 5.0 15.0 4.4 14.7 3.4 14.4 C 2.7 14.3 1.9 14.4 1.2 14.8 C 0.4 15.1 0.0 15.6 0.0 16.2 C 0.0 16.3 0.0 16.5 0.1 16.6 C 0.3 17.0 0.6 17.2 1.1 17.4 C 1.8 17.6 2.3 17.8 2.3 17.8 C 2.3 17.8 6.5 20.1 6.5 20.1 C 6.5 20.1 3.6 21.5 3.6 21.5 C 3.1 21.5 2.5 21.7 1.8 22.1 C 1.7 22.3 1.6 22.6 1.6 22.8 C 1.6 23.5 2.0 24.2 2.9 24.9 C 3.7 25.6 4.5 25.9 5.4 25.9 C 5.6 25.9 5.9 25.8 6.2 25.7 C 6.5 25.7 6.7 25.4 6.9 25.0 C 7.2 24.5 7.6 24.0 8.2 23.7 C 8.2 23.7 8.3 26.3 8.3 26.3 C 8.2 26.7 8.2 27.2 8.3 27.9 C 8.7 28.4 9.4 28.6 10.6 28.6 C 11.7 28.6 12.4 28.3 12.8 27.7 C 12.9 27.4 12.9 26.8 12.8 25.8 C 12.7 25.0 12.6 24.1 12.5 23.3 C 12.5 23.3 14.1 24.1 14.1 24.1 C 14.4 24.4 15.0 24.7 15.8 25.1 C 16.4 25.1 17.0 24.9 17.6 24.4 C 18.1 23.9 18.4 23.4 18.4 22.8 C 18.4 22.5 18.3 22.3 18.2 22.1 C 18.0 21.8 17.8 21.7 17.4 21.6 C 16.9 21.5 16.6 21.4 16.5 21.3 C 16.5 21.3 14.2 19.7 14.2 19.7 C 14.2 19.7 17.1 18.1 17.1 18.1 C 17.5 18.0 18.0 17.7 18.6 17.3 Z M 18.6 17.3 " fill="#3995D6"></path></g></g><text xml:space="preserve" font-family="MarkerFelt-Thin" font-size="32.4" fill="#858585" transform="matrix(1.00, 0.00, -0.00, -1.00, 31.0, 9.0)">M</text><text xml:space="preserve" font-family="MarkerFelt-Thin" font-size="32.4" fill="#858585" transform="matrix(1.00, 0.00, -0.00, -1.00, 61.1, 9.0)">u</text><text xml:space="preserve" font-family="MarkerFelt-Thin" font-size="32.4" fill="#858585" transform="matrix(1.00, 0.00, -0.00, -1.00, 75.6, 9.0)">l</text><text xml:space="preserve" font-family="MarkerFelt-Thin" font-size="32.4" fill="#858585" transform="matrix(1.00, 0.00, -0.00, -1.00, 84.2, 9.0)">t</text><text xml:space="preserve" font-family="MarkerFelt-Thin" font-size="32.4" fill="#858585" transform="matrix(1.00, 0.00, -0.00, -1.00, 98.1, 9.0)">i</text><text xml:space="preserve" font-family="MarkerFelt-Thin" font-size="32.4" fill="#858585" transform="matrix(1.00, 0.00, -0.00, -1.00, 106.1, 9.0)">p</text><text xml:space="preserve" font-family="MarkerFelt-Thin" font-size="32.4" fill="#858585" transform="matrix(1.00, 0.00, -0.00, -1.00, 121.2, 9.0)">l</text><text xml:space="preserve" font-family="MarkerFelt-Thin" font-size="32.4" fill="#858585" transform="matrix(1.00, 0.00, -0.00, -1.00, 128.5, 9.0)">e</text><text xml:space="preserve" font-family="MarkerFelt-Thin" font-size="32.4" fill="#858585" transform="matrix(1.00, 0.00, -0.00, -1.00, 140.8, 9.0)"> </text><text xml:space="preserve" font-family="MarkerFelt-Thin" font-size="32.4" fill="#858585" transform="matrix(1.00, 0.00, -0.00, -1.00, 148.9, 9.0)">c</text><text xml:space="preserve" font-family="MarkerFelt-Thin" font-size="32.4" fill="#858585" transform="matrix(1.00, 0.00, -0.00, -1.00, 162.8, 9.0)">o</text><text xml:space="preserve" font-family="MarkerFelt-Thin" font-size="32.4" fill="#858585" transform="matrix(1.00, 0.00, -0.00, -1.00, 177.4, 9.0)">n</text><text xml:space="preserve" font-family="MarkerFelt-Thin" font-size="32.4" fill="#858585" transform="matrix(1.00, 0.00, -0.00, -1.00, 193.3, 9.0)">ï¬</text><text xml:space="preserve" font-family="MarkerFelt-Thin" font-size="32.4" fill="#858585" transform="matrix(1.00, 0.00, -0.00, -1.00, 207.9, 9.0)">g</text><text xml:space="preserve" font-family="MarkerFelt-Thin" font-size="32.4" fill="#858585" transform="matrix(1.00, 0.00, -0.00, -1.00, 222.7, 9.0)">u</text><text xml:space="preserve" font-family="MarkerFelt-Thin" font-size="32.4" fill="#858585" transform="matrix(1.00, 0.00, -0.00, -1.00, 237.5, 9.0)">r</text><text xml:space="preserve" font-family="MarkerFelt-Thin" font-size="32.4" fill="#858585" transform="matrix(1.00, 0.00, -0.00, -1.00, 250.7, 9.0)">a</text><text xml:space="preserve" font-family="MarkerFelt-Thin" font-size="32.4" fill="#858585" transform="matrix(1.00, 0.00, -0.00, -1.00, 266.6, 9.0)">t</text><text xml:space="preserve" font-family="MarkerFelt-Thin" font-size="32.4" fill="#858585" transform="matrix(1.00, 0.00, -0.00, -1.00, 280.5, 9.0)">i</text><text xml:space="preserve" font-family="MarkerFelt-Thin" font-size="32.4" fill="#858585" transform="matrix(1.00, 0.00, -0.00, -1.00, 288.0, 9.0)">o</text><text xml:space="preserve" font-family="MarkerFelt-Thin" font-size="32.4" fill="#858585" transform="matrix(1.00, 0.00, -0.00, -1.00, 302.7, 9.0)">n</text><text xml:space="preserve" font-family="MarkerFelt-Thin" font-size="32.4" fill="#858585" transform="matrix(1.00, 0.00, -0.00, -1.00, 319.8, 9.0)">s</text></g></svg>