<?xml version="1.0" encoding="UTF-8" standalone="no"?><svg xmlns="http://www.w3.org/2000/svg" xmlns:xlink="http://www.w3.org/1999/xlink" clip-rule="evenodd" stroke-miterlimit="4.00" viewBox="0 0 326 38"><desc>SVG generated by Keynote</desc><defs></defs><g transform="matrix(1.00, 0.00, -0.00, -1.00, 0.0, 38.0)"><g><clipPath id="clip-427"><path d="M 0.0 11.5 L 19.1 11.5 L 19.1 29.3 L 0.0 29.3 Z M 0.0 11.5 "></path></clipPath><g clip-path="url(#clip-427)"><path d="M 18.8 17.9 C 19.0 17.7 19.1 17.4 19.1 17.1 C 19.1 16.5 18.8 16.0 18.1 15.5 C 17.5 15.0 16.8 14.8 16.0 14.8 C 14.9 14.8 13.7 15.5 12.3 17.1 C 12.3 17.1 12.3 14.8 12.3 14.8 C 12.3 14.6 12.4 14.3 12.5 14.0 C 12.7 13.7 12.7 13.4 12.7 13.3 C 12.7 12.8 12.5 12.4 12.0 12.0 C 11.5 11.7 11.0 11.5 10.5 11.5 C 9.7 11.5 8.9 11.9 8.3 12.7 C 8.1 12.9 8.1 13.5 8.1 14.5 C 8.2 15.5 8.2 16.6 8.3 17.6 C 7.8 17.3 6.8 16.7 5.3 15.9 C 5.1 15.6 4.5 15.3 3.5 14.9 C 2.7 14.9 2.0 15.0 1.2 15.4 C 0.4 15.7 0.0 16.2 0.0 16.8 C 0.0 16.9 0.0 17.1 0.1 17.2 C 0.3 17.6 0.6 17.8 1.1 18.0 C 1.8 18.2 2.3 18.4 2.4 18.4 C 2.4 18.4 6.6 20.7 6.6 20.7 C 6.6 20.7 3.6 22.2 3.6 22.2 C 3.1 22.2 2.6 22.4 1.9 22.8 C 1.7 23.0 1.6 23.2 1.6 23.5 C 1.6 24.2 2.0 24.9 2.9 25.6 C 3.7 26.3 4.6 26.6 5.4 26.6 C 5.7 26.6 6.0 26.5 6.3 26.5 C 6.5 26.4 6.8 26.1 7.0 25.7 C 7.3 25.2 7.7 24.7 8.3 24.3 C 8.3 24.3 8.4 27.0 8.4 27.0 C 8.3 27.4 8.3 27.9 8.4 28.7 C 8.7 29.1 9.5 29.3 10.7 29.3 C 11.8 29.3 12.5 29.0 12.9 28.4 C 13.0 28.1 13.1 27.5 13.0 26.5 C 12.9 25.7 12.8 24.8 12.7 24.0 C 12.7 24.0 14.2 24.7 14.2 24.7 C 14.5 25.1 15.1 25.4 16.0 25.8 C 16.6 25.8 17.2 25.6 17.8 25.1 C 18.3 24.6 18.6 24.0 18.6 23.5 C 18.6 23.2 18.5 22.9 18.4 22.7 C 18.2 22.5 18.0 22.4 17.6 22.3 C 17.1 22.2 16.8 22.1 16.7 21.9 C 16.7 21.9 14.4 20.3 14.4 20.3 C 14.4 20.3 17.3 18.7 17.3 18.7 C 17.7 18.6 18.2 18.3 18.8 17.9 Z M 18.8 17.9 " fill="#3995D6"></path></g></g><text xml:space="preserve" font-family="MarkerFelt-Thin" font-size="32.8" fill="#858585" transform="matrix(1.00, 0.00, -0.00, -1.00, 32.0, 10.0)">S</text><text xml:space="preserve" font-family="MarkerFelt-Thin" font-size="32.8" fill="#858585" transform="matrix(1.00, 0.00, -0.00, -1.00, 49.2, 10.0)">i</text><text xml:space="preserve" font-family="MarkerFelt-Thin" font-size="32.8" fill="#858585" transform="matrix(1.00, 0.00, -0.00, -1.00, 57.4, 10.0)">n</text><text xml:space="preserve" font-family="MarkerFelt-Thin" font-size="32.8" fill="#858585" transform="matrix(1.00, 0.00, -0.00, -1.00, 74.4, 10.0)">g</text><text xml:space="preserve" font-family="MarkerFelt-Thin" font-size="32.8" fill="#858585" transform="matrix(1.00, 0.00, -0.00, -1.00, 89.6, 10.0)">l</text><text xml:space="preserve" font-family="MarkerFelt-Thin" font-size="32.8" fill="#858585" transform="matrix(1.00, 0.00, -0.00, -1.00, 97.0, 10.0)">e</text><text xml:space="preserve" font-family="MarkerFelt-Thin" font-size="32.8" fill="#858585" transform="matrix(1.00, 0.00, -0.00, -1.00, 109.4, 10.0)"> </text><text xml:space="preserve" font-family="MarkerFelt-Thin" font-size="32.8" fill="#858585" transform="matrix(1.00, 0.00, -0.00, -1.00, 117.6, 10.0)">i</text><text xml:space="preserve" font-family="MarkerFelt-Thin" font-size="32.8" fill="#858585" transform="matrix(1.00, 0.00, -0.00, -1.00, 125.3, 10.0)">m</text><text xml:space="preserve" font-family="MarkerFelt-Thin" font-size="32.8" fill="#858585" transform="matrix(1.00, 0.00, -0.00, -1.00, 150.0, 10.0)">p</text><text xml:space="preserve" font-family="MarkerFelt-Thin" font-size="32.8" fill="#858585" transform="matrix(1.00, 0.00, -0.00, -1.00, 165.3, 10.0)">l</text><text xml:space="preserve" font-family="MarkerFelt-Thin" font-size="32.8" fill="#858585" transform="matrix(1.00, 0.00, -0.00, -1.00, 172.7, 10.0)">e</text><text xml:space="preserve" font-family="MarkerFelt-Thin" font-size="32.8" fill="#858585" transform="matrix(1.00, 0.00, -0.00, -1.00, 186.5, 10.0)">m</text><text xml:space="preserve" font-family="MarkerFelt-Thin" font-size="32.8" fill="#858585" transform="matrix(1.00, 0.00, -0.00, -1.00, 210.1, 10.0)">e</text><text xml:space="preserve" font-family="MarkerFelt-Thin" font-size="32.8" fill="#858585" transform="matrix(1.00, 0.00, -0.00, -1.00, 224.6, 10.0)">n</text><text xml:space="preserve" font-family="MarkerFelt-Thin" font-size="32.8" fill="#858585" transform="matrix(1.00, 0.00, -0.00, -1.00, 242.5, 10.0)">t</text><text xml:space="preserve" font-family="MarkerFelt-Thin" font-size="32.8" fill="#858585" transform="matrix(1.00, 0.00, -0.00, -1.00, 256.0, 10.0)">a</text><text xml:space="preserve" font-family="MarkerFelt-Thin" font-size="32.8" fill="#858585" transform="matrix(1.00, 0.00, -0.00, -1.00, 272.1, 10.0)">t</text><text xml:space="preserve" font-family="MarkerFelt-Thin" font-size="32.8" fill="#858585" transform="matrix(1.00, 0.00, -0.00, -1.00, 286.1, 10.0)">i</text><text xml:space="preserve" font-family="MarkerFelt-Thin" font-size="32.8" fill="#858585" transform="matrix(1.00, 0.00, -0.00, -1.00, 293.7, 10.0)">o</text><text xml:space="preserve" font-family="MarkerFelt-Thin" font-size="32.8" fill="#858585" transform="matrix(1.00, 0.00, -0.00, -1.00, 308.6, 10.0)">n</text></g></svg>