<?xml version="1.0" encoding="UTF-8" standalone="no"?><svg xmlns="http://www.w3.org/2000/svg" xmlns:xlink="http://www.w3.org/1999/xlink" clip-rule="evenodd" stroke-miterlimit="4.00" viewBox="0 0 218 33"><desc>SVG generated by Keynote</desc><defs></defs><g transform="matrix(1.00, 0.00, -0.00, -1.00, 0.0, 33.0)"><g><clipPath id="clip-424"><path d="M 0.0 5.6 L 18.9 5.6 L 18.9 23.2 L 0.0 23.2 Z M 0.0 5.6 "></path></clipPath><g clip-path="url(#clip-424)"><path d="M 18.6 11.9 C 18.8 11.6 18.9 11.4 18.9 11.1 C 18.9 10.5 18.5 10.0 17.9 9.5 C 17.3 9.0 16.6 8.8 15.8 8.8 C 14.8 8.8 13.6 9.6 12.2 11.1 C 12.2 11.1 12.2 8.8 12.2 8.8 C 12.2 8.6 12.3 8.3 12.4 8.0 C 12.5 7.7 12.6 7.5 12.6 7.3 C 12.6 6.8 12.4 6.4 11.9 6.1 C 11.4 5.8 10.9 5.6 10.4 5.6 C 9.6 5.6 8.8 6.0 8.2 6.7 C 8.0 6.9 8.0 7.5 8.0 8.5 C 8.1 9.6 8.1 10.6 8.2 11.6 C 7.7 11.3 6.7 10.7 5.2 9.9 C 5.0 9.6 4.4 9.3 3.4 9.0 C 2.7 8.9 1.9 9.0 1.2 9.4 C 0.4 9.7 0.0 10.2 0.0 10.8 C 0.0 10.9 0.0 11.1 0.1 11.2 C 0.3 11.6 0.6 11.8 1.1 12.0 C 1.8 12.2 2.3 12.4 2.3 12.4 C 2.3 12.4 6.5 14.7 6.5 14.7 C 6.5 14.7 3.6 16.1 3.6 16.1 C 3.1 16.1 2.5 16.3 1.8 16.7 C 1.7 16.9 1.6 17.2 1.6 17.4 C 1.6 18.1 2.0 18.8 2.9 19.5 C 3.7 20.2 4.5 20.5 5.4 20.5 C 5.6 20.5 5.9 20.4 6.2 20.3 C 6.5 20.3 6.7 20.0 6.9 19.6 C 7.2 19.1 7.6 18.6 8.2 18.3 C 8.2 18.3 8.3 20.9 8.3 20.9 C 8.2 21.3 8.2 21.8 8.3 22.5 C 8.7 23.0 9.4 23.2 10.6 23.2 C 11.7 23.2 12.4 22.9 12.8 22.3 C 12.9 22.0 12.9 21.4 12.8 20.4 C 12.7 19.6 12.6 18.7 12.5 17.9 C 12.5 17.9 14.1 18.7 14.1 18.7 C 14.4 19.0 15.0 19.3 15.8 19.7 C 16.4 19.7 17.0 19.5 17.6 19.0 C 18.1 18.5 18.4 18.0 18.4 17.4 C 18.4 17.1 18.3 16.9 18.2 16.7 C 18.0 16.4 17.8 16.3 17.4 16.2 C 16.9 16.1 16.6 16.0 16.5 15.9 C 16.5 15.9 14.2 14.3 14.2 14.3 C 14.2 14.3 17.1 12.7 17.1 12.7 C 17.5 12.6 18.0 12.3 18.6 11.9 Z M 18.6 11.9 " fill="#3995D6"></path></g></g><text xml:space="preserve" font-family="MarkerFelt-Thin" font-size="32.4" fill="#858585" transform="matrix(1.00, 0.00, -0.00, -1.00, 31.0, 4.0)">N</text><text xml:space="preserve" font-family="MarkerFelt-Thin" font-size="32.4" fill="#858585" transform="matrix(1.00, 0.00, -0.00, -1.00, 50.4, 4.0)"> </text><text xml:space="preserve" font-family="MarkerFelt-Thin" font-size="32.4" fill="#858585" transform="matrix(1.00, 0.00, -0.00, -1.00, 58.5, 4.0)">l</text><text xml:space="preserve" font-family="MarkerFelt-Thin" font-size="32.4" fill="#858585" transform="matrix(1.00, 0.00, -0.00, -1.00, 66.1, 4.0)">i</text><text xml:space="preserve" font-family="MarkerFelt-Thin" font-size="32.4" fill="#858585" transform="matrix(1.00, 0.00, -0.00, -1.00, 74.2, 4.0)">n</text><text xml:space="preserve" font-family="MarkerFelt-Thin" font-size="32.4" fill="#858585" transform="matrix(1.00, 0.00, -0.00, -1.00, 90.9, 4.0)">e</text><text xml:space="preserve" font-family="MarkerFelt-Thin" font-size="32.4" fill="#858585" transform="matrix(1.00, 0.00, -0.00, -1.00, 105.7, 4.0)">s</text><text xml:space="preserve" font-family="MarkerFelt-Thin" font-size="32.4" fill="#858585" transform="matrix(1.00, 0.00, -0.00, -1.00, 117.7, 4.0)"> </text><text xml:space="preserve" font-family="MarkerFelt-Thin" font-size="32.4" fill="#858585" transform="matrix(1.00, 0.00, -0.00, -1.00, 125.8, 4.0)">o</text><text xml:space="preserve" font-family="MarkerFelt-Thin" font-size="32.4" fill="#858585" transform="matrix(1.00, 0.00, -0.00, -1.00, 140.5, 4.0)">f</text><text xml:space="preserve" font-family="MarkerFelt-Thin" font-size="32.4" fill="#858585" transform="matrix(1.00, 0.00, -0.00, -1.00, 152.1, 4.0)"> </text><text xml:space="preserve" font-family="MarkerFelt-Thin" font-size="32.4" fill="#858585" transform="matrix(1.00, 0.00, -0.00, -1.00, 160.2, 4.0)">c</text><text xml:space="preserve" font-family="MarkerFelt-Thin" font-size="32.4" fill="#858585" transform="matrix(1.00, 0.00, -0.00, -1.00, 174.1, 4.0)">o</text><text xml:space="preserve" font-family="MarkerFelt-Thin" font-size="32.4" fill="#858585" transform="matrix(1.00, 0.00, -0.00, -1.00, 189.1, 4.0)">d</text><text xml:space="preserve" font-family="MarkerFelt-Thin" font-size="32.4" fill="#858585" transform="matrix(1.00, 0.00, -0.00, -1.00, 203.0, 4.0)">e</text></g></svg>