<?xml version="1.0" encoding="UTF-8" standalone="no"?><svg xmlns="http://www.w3.org/2000/svg" xmlns:xlink="http://www.w3.org/1999/xlink" clip-rule="evenodd" stroke-miterlimit="4.00" viewBox="0 0 291 33"><desc>SVG generated by Keynote</desc><defs></defs><g transform="matrix(1.00, 0.00, -0.00, -1.00, 0.0, 33.0)"><g><clipPath id="clip-430"><path d="M 0.0 5.8 L 19.1 5.8 L 19.1 23.6 L 0.0 23.6 Z M 0.0 5.8 "></path></clipPath><g clip-path="url(#clip-430)"><path d="M 18.8 12.2 C 19.0 11.9 19.1 11.6 19.1 11.3 C 19.1 10.8 18.8 10.3 18.1 9.8 C 17.5 9.3 16.8 9.0 16.0 9.0 C 14.9 9.0 13.7 9.8 12.3 11.3 C 12.3 11.3 12.3 9.0 12.3 9.0 C 12.3 8.8 12.4 8.5 12.5 8.2 C 12.7 7.9 12.7 7.7 12.7 7.5 C 12.7 7.0 12.5 6.6 12.0 6.3 C 11.5 6.0 11.0 5.8 10.5 5.8 C 9.7 5.8 8.9 6.2 8.3 6.9 C 8.1 7.1 8.1 7.8 8.1 8.8 C 8.2 9.8 8.2 10.9 8.3 11.9 C 7.8 11.5 6.8 10.9 5.3 10.2 C 5.1 9.9 4.5 9.5 3.5 9.2 C 2.7 9.1 2.0 9.3 1.2 9.6 C 0.4 10.0 0.0 10.5 0.0 11.1 C 0.0 11.2 0.0 11.4 0.1 11.5 C 0.3 11.8 0.6 12.1 1.1 12.2 C 1.8 12.5 2.3 12.6 2.4 12.7 C 2.4 12.7 6.6 15.0 6.6 15.0 C 6.6 15.0 3.6 16.4 3.6 16.4 C 3.1 16.4 2.6 16.6 1.9 17.0 C 1.7 17.3 1.6 17.5 1.6 17.8 C 1.6 18.5 2.0 19.2 2.9 19.8 C 3.7 20.5 4.6 20.9 5.4 20.9 C 5.7 20.9 6.0 20.8 6.3 20.7 C 6.5 20.6 6.8 20.4 7.0 20.0 C 7.3 19.4 7.7 19.0 8.3 18.6 C 8.3 18.6 8.4 21.3 8.4 21.3 C 8.3 21.7 8.3 22.2 8.4 22.9 C 8.7 23.4 9.5 23.6 10.7 23.6 C 11.8 23.6 12.5 23.3 12.9 22.6 C 13.0 22.4 13.1 21.8 13.0 20.8 C 12.9 19.9 12.8 19.1 12.7 18.2 C 12.7 18.2 14.2 19.0 14.2 19.0 C 14.5 19.3 15.1 19.7 16.0 20.1 C 16.6 20.1 17.2 19.9 17.8 19.4 C 18.3 18.9 18.6 18.3 18.6 17.7 C 18.6 17.5 18.5 17.2 18.4 17.0 C 18.2 16.8 18.0 16.6 17.6 16.5 C 17.1 16.4 16.8 16.3 16.7 16.2 C 16.7 16.2 14.4 14.6 14.4 14.6 C 14.4 14.6 17.3 13.0 17.3 13.0 C 17.7 12.8 18.2 12.6 18.8 12.2 Z M 18.8 12.2 " fill="#3995D6"></path></g></g><text xml:space="preserve" font-family="MarkerFelt-Thin" font-size="32.8" fill="#858585" transform="matrix(1.00, 0.00, -0.00, -1.00, 32.0, 4.0)">N</text><text xml:space="preserve" font-family="MarkerFelt-Thin" font-size="32.8" fill="#858585" transform="matrix(1.00, 0.00, -0.00, -1.00, 51.7, 4.0)"> </text><text xml:space="preserve" font-family="MarkerFelt-Thin" font-size="32.8" fill="#858585" transform="matrix(1.00, 0.00, -0.00, -1.00, 59.8, 4.0)">/</text><text xml:space="preserve" font-family="MarkerFelt-Thin" font-size="32.8" fill="#858585" transform="matrix(1.00, 0.00, -0.00, -1.00, 76.9, 4.0)"> </text><text xml:space="preserve" font-family="MarkerFelt-Thin" font-size="32.8" fill="#858585" transform="matrix(1.00, 0.00, -0.00, -1.00, 85.1, 4.0)">1</text><text xml:space="preserve" font-family="MarkerFelt-Thin" font-size="32.8" fill="#858585" transform="matrix(1.00, 0.00, -0.00, -1.00, 103.7, 4.0)">0</text><text xml:space="preserve" font-family="MarkerFelt-Thin" font-size="32.8" fill="#858585" transform="matrix(1.00, 0.00, -0.00, -1.00, 122.4, 4.0)"> </text><text xml:space="preserve" font-family="MarkerFelt-Thin" font-size="32.8" fill="#858585" transform="matrix(1.00, 0.00, -0.00, -1.00, 130.6, 4.0)">l</text><text xml:space="preserve" font-family="MarkerFelt-Thin" font-size="32.8" fill="#858585" transform="matrix(1.00, 0.00, -0.00, -1.00, 138.3, 4.0)">i</text><text xml:space="preserve" font-family="MarkerFelt-Thin" font-size="32.8" fill="#858585" transform="matrix(1.00, 0.00, -0.00, -1.00, 146.4, 4.0)">n</text><text xml:space="preserve" font-family="MarkerFelt-Thin" font-size="32.8" fill="#858585" transform="matrix(1.00, 0.00, -0.00, -1.00, 163.3, 4.0)">e</text><text xml:space="preserve" font-family="MarkerFelt-Thin" font-size="32.8" fill="#858585" transform="matrix(1.00, 0.00, -0.00, -1.00, 178.3, 4.0)">s</text><text xml:space="preserve" font-family="MarkerFelt-Thin" font-size="32.8" fill="#858585" transform="matrix(1.00, 0.00, -0.00, -1.00, 190.4, 4.0)"> </text><text xml:space="preserve" font-family="MarkerFelt-Thin" font-size="32.8" fill="#858585" transform="matrix(1.00, 0.00, -0.00, -1.00, 198.6, 4.0)">o</text><text xml:space="preserve" font-family="MarkerFelt-Thin" font-size="32.8" fill="#858585" transform="matrix(1.00, 0.00, -0.00, -1.00, 213.5, 4.0)">f</text><text xml:space="preserve" font-family="MarkerFelt-Thin" font-size="32.8" fill="#858585" transform="matrix(1.00, 0.00, -0.00, -1.00, 225.3, 4.0)"> </text><text xml:space="preserve" font-family="MarkerFelt-Thin" font-size="32.8" fill="#858585" transform="matrix(1.00, 0.00, -0.00, -1.00, 233.4, 4.0)">c</text><text xml:space="preserve" font-family="MarkerFelt-Thin" font-size="32.8" fill="#858585" transform="matrix(1.00, 0.00, -0.00, -1.00, 247.4, 4.0)">o</text><text xml:space="preserve" font-family="MarkerFelt-Thin" font-size="32.8" fill="#858585" transform="matrix(1.00, 0.00, -0.00, -1.00, 262.6, 4.0)">d</text><text xml:space="preserve" font-family="MarkerFelt-Thin" font-size="32.8" fill="#858585" transform="matrix(1.00, 0.00, -0.00, -1.00, 276.7, 4.0)">e</text></g></svg>