<?xml version="1.0" encoding="UTF-8" standalone="no"?><svg xmlns="http://www.w3.org/2000/svg" xmlns:xlink="http://www.w3.org/1999/xlink" clip-rule="evenodd" stroke-miterlimit="4.00" viewBox="0 0 364 37"><desc>SVG generated by Keynote</desc><defs></defs><g transform="matrix(1.00, 0.00, -0.00, -1.00, 0.0, 37.0)"><g><clipPath id="clip-429"><path d="M 0.0 10.4 L 19.1 10.4 L 19.1 28.2 L 0.0 28.2 Z M 0.0 10.4 "></path></clipPath><g clip-path="url(#clip-429)"><path d="M 18.8 16.8 C 19.0 16.5 19.1 16.2 19.1 15.9 C 19.1 15.4 18.8 14.8 18.1 14.3 C 17.5 13.9 16.8 13.6 16.0 13.6 C 14.9 13.6 13.7 14.4 12.3 15.9 C 12.3 15.9 12.3 13.6 12.3 13.6 C 12.3 13.4 12.4 13.1 12.5 12.8 C 12.7 12.5 12.7 12.3 12.7 12.1 C 12.7 11.6 12.5 11.2 12.0 10.9 C 11.5 10.5 11.0 10.4 10.5 10.4 C 9.7 10.4 8.9 10.8 8.3 11.5 C 8.1 11.7 8.1 12.3 8.1 13.3 C 8.2 14.4 8.2 15.4 8.3 16.5 C 7.8 16.1 6.8 15.5 5.3 14.7 C 5.1 14.4 4.5 14.1 3.5 13.8 C 2.7 13.7 2.0 13.8 1.2 14.2 C 0.4 14.6 0.0 15.0 0.0 15.6 C 0.0 15.8 0.0 15.9 0.1 16.1 C 0.3 16.4 0.6 16.7 1.1 16.8 C 1.8 17.1 2.3 17.2 2.4 17.3 C 2.4 17.3 6.6 19.6 6.6 19.6 C 6.6 19.6 3.6 21.0 3.6 21.0 C 3.1 21.0 2.6 21.2 1.9 21.6 C 1.7 21.8 1.6 22.1 1.6 22.3 C 1.6 23.1 2.0 23.7 2.9 24.4 C 3.7 25.1 4.6 25.4 5.4 25.4 C 5.7 25.4 6.0 25.4 6.3 25.3 C 6.5 25.2 6.8 24.9 7.0 24.5 C 7.3 24.0 7.7 23.6 8.3 23.2 C 8.3 23.2 8.4 25.9 8.4 25.9 C 8.3 26.2 8.3 26.8 8.4 27.5 C 8.7 27.9 9.5 28.2 10.7 28.2 C 11.8 28.2 12.5 27.8 12.9 27.2 C 13.0 27.0 13.1 26.3 13.0 25.4 C 12.9 24.5 12.8 23.7 12.7 22.8 C 12.7 22.8 14.2 23.6 14.2 23.6 C 14.5 23.9 15.1 24.3 16.0 24.6 C 16.6 24.7 17.2 24.4 17.8 23.9 C 18.3 23.4 18.6 22.9 18.6 22.3 C 18.6 22.0 18.5 21.8 18.4 21.6 C 18.2 21.3 18.0 21.2 17.6 21.1 C 17.1 21.0 16.8 20.9 16.7 20.8 C 16.7 20.8 14.4 19.2 14.4 19.2 C 14.4 19.2 17.3 17.5 17.3 17.5 C 17.7 17.4 18.2 17.2 18.8 16.8 Z M 18.8 16.8 " fill="#3995D6"></path></g></g><text xml:space="preserve" font-family="MarkerFelt-Thin" font-size="32.8" fill="#858585" transform="matrix(1.00, 0.00, -0.00, -1.00, 32.0, 9.0)">S</text><text xml:space="preserve" font-family="MarkerFelt-Thin" font-size="32.8" fill="#858585" transform="matrix(1.00, 0.00, -0.00, -1.00, 49.2, 9.0)">i</text><text xml:space="preserve" font-family="MarkerFelt-Thin" font-size="32.8" fill="#858585" transform="matrix(1.00, 0.00, -0.00, -1.00, 57.4, 9.0)">n</text><text xml:space="preserve" font-family="MarkerFelt-Thin" font-size="32.8" fill="#858585" transform="matrix(1.00, 0.00, -0.00, -1.00, 74.4, 9.0)">g</text><text xml:space="preserve" font-family="MarkerFelt-Thin" font-size="32.8" fill="#858585" transform="matrix(1.00, 0.00, -0.00, -1.00, 89.6, 9.0)">l</text><text xml:space="preserve" font-family="MarkerFelt-Thin" font-size="32.8" fill="#858585" transform="matrix(1.00, 0.00, -0.00, -1.00, 97.0, 9.0)">e</text><text xml:space="preserve" font-family="MarkerFelt-Thin" font-size="32.8" fill="#858585" transform="matrix(1.00, 0.00, -0.00, -1.00, 109.4, 9.0)"> </text><text xml:space="preserve" font-family="MarkerFelt-Thin" font-size="32.8" fill="#858585" transform="matrix(1.00, 0.00, -0.00, -1.00, 117.6, 9.0)">t</text><text xml:space="preserve" font-family="MarkerFelt-Thin" font-size="32.8" fill="#858585" transform="matrix(1.00, 0.00, -0.00, -1.00, 130.8, 9.0)">o</text><text xml:space="preserve" font-family="MarkerFelt-Thin" font-size="32.8" fill="#858585" transform="matrix(1.00, 0.00, -0.00, -1.00, 146.0, 9.0)">o</text><text xml:space="preserve" font-family="MarkerFelt-Thin" font-size="32.8" fill="#858585" transform="matrix(1.00, 0.00, -0.00, -1.00, 160.8, 9.0)">l</text><text xml:space="preserve" font-family="MarkerFelt-Thin" font-size="32.8" fill="#858585" transform="matrix(1.00, 0.00, -0.00, -1.00, 167.4, 9.0)"> </text><text xml:space="preserve" font-family="MarkerFelt-Thin" font-size="32.8" fill="#858585" transform="matrix(1.00, 0.00, -0.00, -1.00, 175.6, 9.0)">&amp;</text><text xml:space="preserve" font-family="MarkerFelt-Thin" font-size="32.8" fill="#858585" transform="matrix(1.00, 0.00, -0.00, -1.00, 193.9, 9.0)"> </text><text xml:space="preserve" font-family="MarkerFelt-Thin" font-size="32.8" fill="#858585" transform="matrix(1.00, 0.00, -0.00, -1.00, 202.1, 9.0)">b</text><text xml:space="preserve" font-family="MarkerFelt-Thin" font-size="32.8" fill="#858585" transform="matrix(1.00, 0.00, -0.00, -1.00, 217.6, 9.0)">u</text><text xml:space="preserve" font-family="MarkerFelt-Thin" font-size="32.8" fill="#858585" transform="matrix(1.00, 0.00, -0.00, -1.00, 232.4, 9.0)">i</text><text xml:space="preserve" font-family="MarkerFelt-Thin" font-size="32.8" fill="#858585" transform="matrix(1.00, 0.00, -0.00, -1.00, 240.5, 9.0)">l</text><text xml:space="preserve" font-family="MarkerFelt-Thin" font-size="32.8" fill="#858585" transform="matrix(1.00, 0.00, -0.00, -1.00, 248.0, 9.0)">d</text><text xml:space="preserve" font-family="MarkerFelt-Thin" font-size="32.8" fill="#858585" transform="matrix(1.00, 0.00, -0.00, -1.00, 262.0, 9.0)"> </text><text xml:space="preserve" font-family="MarkerFelt-Thin" font-size="32.8" fill="#858585" transform="matrix(1.00, 0.00, -0.00, -1.00, 270.2, 9.0)">s</text><text xml:space="preserve" font-family="MarkerFelt-Thin" font-size="32.8" fill="#858585" transform="matrix(1.00, 0.00, -0.00, -1.00, 283.5, 9.0)">y</text><text xml:space="preserve" font-family="MarkerFelt-Thin" font-size="32.8" fill="#858585" transform="matrix(1.00, 0.00, -0.00, -1.00, 298.9, 9.0)">s</text><text xml:space="preserve" font-family="MarkerFelt-Thin" font-size="32.8" fill="#858585" transform="matrix(1.00, 0.00, -0.00, -1.00, 313.1, 9.0)">t</text><text xml:space="preserve" font-family="MarkerFelt-Thin" font-size="32.8" fill="#858585" transform="matrix(1.00, 0.00, -0.00, -1.00, 325.6, 9.0)">e</text><text xml:space="preserve" font-family="MarkerFelt-Thin" font-size="32.8" fill="#858585" transform="matrix(1.00, 0.00, -0.00, -1.00, 339.4, 9.0)">m</text></g></svg>