<?xml version="1.0" encoding="UTF-8" standalone="no"?><svg xmlns="http://www.w3.org/2000/svg" xmlns:xlink="http://www.w3.org/1999/xlink" clip-rule="evenodd" stroke-miterlimit="4.00" viewBox="0 0 278 38"><desc>SVG generated by Keynote</desc><defs></defs><g transform="matrix(1.00, 0.00, -0.00, -1.00, 0.0, 38.0)"><g><clipPath id="clip-420"><path d="M 0.0 11.4 L 18.9 11.4 L 18.9 29.0 L 0.0 29.0 Z M 0.0 11.4 "></path></clipPath><g clip-path="url(#clip-420)"><path d="M 18.6 17.7 C 18.8 17.4 18.9 17.2 18.9 16.9 C 18.9 16.3 18.5 15.8 17.9 15.3 C 17.3 14.8 16.6 14.6 15.8 14.6 C 14.8 14.6 13.6 15.4 12.2 16.9 C 12.2 16.9 12.2 14.6 12.2 14.6 C 12.2 14.4 12.3 14.1 12.4 13.8 C 12.5 13.5 12.6 13.3 12.6 13.1 C 12.6 12.6 12.4 12.2 11.9 11.9 C 11.4 11.6 10.9 11.4 10.4 11.4 C 9.6 11.4 8.8 11.8 8.2 12.5 C 8.0 12.7 8.0 13.3 8.0 14.3 C 8.1 15.4 8.1 16.4 8.2 17.4 C 7.7 17.1 6.7 16.5 5.2 15.7 C 5.0 15.4 4.4 15.1 3.4 14.8 C 2.7 14.7 1.9 14.8 1.2 15.2 C 0.4 15.5 0.0 16.0 0.0 16.6 C 0.0 16.7 0.0 16.9 0.1 17.0 C 0.3 17.4 0.6 17.6 1.1 17.8 C 1.8 18.0 2.3 18.2 2.3 18.2 C 2.3 18.2 6.5 20.5 6.5 20.5 C 6.5 20.5 3.6 21.9 3.6 21.9 C 3.1 21.9 2.5 22.1 1.8 22.5 C 1.7 22.7 1.6 23.0 1.6 23.2 C 1.6 23.9 2.0 24.6 2.9 25.3 C 3.7 26.0 4.5 26.3 5.4 26.3 C 5.6 26.3 5.9 26.2 6.2 26.1 C 6.5 26.1 6.7 25.8 6.9 25.4 C 7.2 24.9 7.6 24.4 8.2 24.1 C 8.2 24.1 8.3 26.7 8.3 26.7 C 8.2 27.1 8.2 27.6 8.3 28.3 C 8.7 28.8 9.4 29.0 10.6 29.0 C 11.7 29.0 12.4 28.7 12.8 28.1 C 12.9 27.8 12.9 27.2 12.8 26.2 C 12.7 25.4 12.6 24.5 12.5 23.7 C 12.5 23.7 14.1 24.5 14.1 24.5 C 14.4 24.8 15.0 25.1 15.8 25.5 C 16.4 25.5 17.0 25.3 17.6 24.8 C 18.1 24.3 18.4 23.8 18.4 23.2 C 18.4 22.9 18.3 22.7 18.2 22.5 C 18.0 22.2 17.8 22.1 17.4 22.0 C 16.9 21.9 16.6 21.8 16.5 21.7 C 16.5 21.7 14.2 20.1 14.2 20.1 C 14.2 20.1 17.1 18.5 17.1 18.5 C 17.5 18.4 18.0 18.1 18.6 17.7 Z M 18.6 17.7 " fill="#3995D6"></path></g></g><text xml:space="preserve" font-family="MarkerFelt-Thin" font-size="32.4" fill="#858585" transform="matrix(1.00, 0.00, -0.00, -1.00, 31.0, 10.0)">M</text><text xml:space="preserve" font-family="MarkerFelt-Thin" font-size="32.4" fill="#858585" transform="matrix(1.00, 0.00, -0.00, -1.00, 61.1, 10.0)">u</text><text xml:space="preserve" font-family="MarkerFelt-Thin" font-size="32.4" fill="#858585" transform="matrix(1.00, 0.00, -0.00, -1.00, 75.6, 10.0)">l</text><text xml:space="preserve" font-family="MarkerFelt-Thin" font-size="32.4" fill="#858585" transform="matrix(1.00, 0.00, -0.00, -1.00, 84.2, 10.0)">t</text><text xml:space="preserve" font-family="MarkerFelt-Thin" font-size="32.4" fill="#858585" transform="matrix(1.00, 0.00, -0.00, -1.00, 98.1, 10.0)">i</text><text xml:space="preserve" font-family="MarkerFelt-Thin" font-size="32.4" fill="#858585" transform="matrix(1.00, 0.00, -0.00, -1.00, 106.1, 10.0)">p</text><text xml:space="preserve" font-family="MarkerFelt-Thin" font-size="32.4" fill="#858585" transform="matrix(1.00, 0.00, -0.00, -1.00, 121.2, 10.0)">l</text><text xml:space="preserve" font-family="MarkerFelt-Thin" font-size="32.4" fill="#858585" transform="matrix(1.00, 0.00, -0.00, -1.00, 128.5, 10.0)">e</text><text xml:space="preserve" font-family="MarkerFelt-Thin" font-size="32.4" fill="#858585" transform="matrix(1.00, 0.00, -0.00, -1.00, 140.8, 10.0)"> </text><text xml:space="preserve" font-family="MarkerFelt-Thin" font-size="32.4" fill="#858585" transform="matrix(1.00, 0.00, -0.00, -1.00, 148.9, 10.0)">l</text><text xml:space="preserve" font-family="MarkerFelt-Thin" font-size="32.4" fill="#858585" transform="matrix(1.00, 0.00, -0.00, -1.00, 156.9, 10.0)">a</text><text xml:space="preserve" font-family="MarkerFelt-Thin" font-size="32.4" fill="#858585" transform="matrix(1.00, 0.00, -0.00, -1.00, 173.1, 10.0)">n</text><text xml:space="preserve" font-family="MarkerFelt-Thin" font-size="32.4" fill="#858585" transform="matrix(1.00, 0.00, -0.00, -1.00, 189.9, 10.0)">g</text><text xml:space="preserve" font-family="MarkerFelt-Thin" font-size="32.4" fill="#858585" transform="matrix(1.00, 0.00, -0.00, -1.00, 204.7, 10.0)">u</text><text xml:space="preserve" font-family="MarkerFelt-Thin" font-size="32.4" fill="#858585" transform="matrix(1.00, 0.00, -0.00, -1.00, 219.2, 10.0)">a</text><text xml:space="preserve" font-family="MarkerFelt-Thin" font-size="32.4" fill="#858585" transform="matrix(1.00, 0.00, -0.00, -1.00, 234.7, 10.0)">g</text><text xml:space="preserve" font-family="MarkerFelt-Thin" font-size="32.4" fill="#858585" transform="matrix(1.00, 0.00, -0.00, -1.00, 249.3, 10.0)">e</text><text xml:space="preserve" font-family="MarkerFelt-Thin" font-size="32.4" fill="#858585" transform="matrix(1.00, 0.00, -0.00, -1.00, 264.1, 10.0)">s</text></g></svg>