<?xml version="1.0" encoding="UTF-8" standalone="no"?><svg xmlns="http://www.w3.org/2000/svg" xmlns:xlink="http://www.w3.org/1999/xlink" clip-rule="evenodd" stroke-miterlimit="4.00" viewBox="0 0 228 222"><desc>SVG generated by Keynote</desc><defs></defs><g transform="matrix(1.00, 0.00, -0.00, -1.00, 0.0, 222.0)"><g><clipPath id="clip-243"><path d="M 0.0 0.3 L 227.3 0.3 L 227.3 221.0 L 0.0 221.0 Z M 0.0 0.3 "></path></clipPath><g clip-path="url(#clip-243)"><path d="M 2.0 219.0 L 225.3 219.0 L 225.3 2.3 L 2.0 2.3 Z M 2.0 219.0 " fill="#932092" fill-opacity="0.20"></path><path d="M 0.0 0.0 L 223.2 0.0 L 223.2 216.8 L 0.0 216.8 Z M 0.0 0.0 " fill="none" stroke="#000000" stroke-width="2.00" transform="matrix(1.00, 0.00, 0.00, -1.00, 2.0, 219.0)"></path></g></g><g><clipPath id="clip-244"><path d="M 67.5 155.5 L 159.9 155.5 L 159.9 216.5 L 67.5 216.5 Z M 67.5 155.5 "></path></clipPath><g clip-path="url(#clip-244)"><text xml:space="preserve" font-family="Helvetica-Light" font-size="36.0" fill="#000000" transform="matrix(1.00, 0.00, -0.00, -1.00, 77.0, 173.0)">P</text><text xml:space="preserve" font-family="Helvetica-Light" font-size="36.0" fill="#000000" transform="matrix(1.00, 0.00, -0.00, -1.00, 99.0, 173.0)">u</text><text xml:space="preserve" font-family="Helvetica-Light" font-size="36.0" fill="#000000" transform="matrix(1.00, 0.00, -0.00, -1.00, 119.0, 173.0)">r</text><text xml:space="preserve" font-family="Helvetica-Light" font-size="36.0" fill="#000000" transform="matrix(1.00, 0.00, -0.00, -1.00, 130.4, 173.0)">e</text></g></g></g></svg>