<?xml version="1.0" encoding="UTF-8" standalone="no"?><svg xmlns="http://www.w3.org/2000/svg" xmlns:xlink="http://www.w3.org/1999/xlink" clip-rule="evenodd" stroke-miterlimit="4.00" viewBox="0 0 1024 768"><desc>SVG generated by Keynote</desc><defs></defs><g transform="matrix(1.00, 0.00, -0.00, -1.00, 0.0, 768.0)"><g><clipPath id="clip-31"><path d="M 0.0 768.0 L 1024.0 768.0 L 1024.0 0.0 L 0.0 0.0 Z M 0.0 768.0 "></path></clipPath><g clip-path="url(#clip-31)"><image xlink:href="../../39451CEE-E280-41CA-872D-216C9FC86FAF/assets/43DA95A1552523200D88D33196FD3A18.jpeg" width="1024.00" height="768.00" transform="matrix(1.00, 0.00, -0.00, -1.00, 0.0, 768.0)"></image></g></g><text xml:space="preserve" font-family="MarkerFelt-Thin" font-size="95.0" fill="#45A6DE" transform="matrix(1.00, 0.00, -0.00, -1.00, 189.0, 456.0)">W</text><text xml:space="preserve" font-family="MarkerFelt-Thin" font-size="95.0" fill="#45A6DE" transform="matrix(1.00, 0.00, -0.00, -1.00, 279.2, 456.0)">h</text><text xml:space="preserve" font-family="MarkerFelt-Thin" font-size="95.0" fill="#45A6DE" transform="matrix(1.00, 0.00, -0.00, -1.00, 329.5, 456.0)">a</text><text xml:space="preserve" font-family="MarkerFelt-Thin" font-size="95.0" fill="#45A6DE" transform="matrix(1.00, 0.00, -0.00, -1.00, 376.0, 456.0)">t</text><text xml:space="preserve" font-family="MarkerFelt-Thin" font-size="95.0" fill="#45A6DE" transform="matrix(1.00, 0.00, -0.00, -1.00, 410.2, 456.0)"> </text><text xml:space="preserve" font-family="MarkerFelt-Thin" font-size="95.0" fill="#45A6DE" transform="matrix(1.00, 0.00, -0.00, -1.00, 433.9, 456.0)">d</text><text xml:space="preserve" font-family="MarkerFelt-Thin" font-size="95.0" fill="#45A6DE" transform="matrix(1.00, 0.00, -0.00, -1.00, 477.5, 456.0)">o</text><text xml:space="preserve" font-family="MarkerFelt-Thin" font-size="95.0" fill="#45A6DE" transform="matrix(1.00, 0.00, -0.00, -1.00, 516.5, 456.0)"> </text><text xml:space="preserve" font-family="MarkerFelt-Thin" font-size="95.0" fill="#45A6DE" transform="matrix(1.00, 0.00, -0.00, -1.00, 540.2, 456.0)">d</text><text xml:space="preserve" font-family="MarkerFelt-Thin" font-size="95.0" fill="#45A6DE" transform="matrix(1.00, 0.00, -0.00, -1.00, 581.1, 456.0)">e</text><text xml:space="preserve" font-family="MarkerFelt-Thin" font-size="95.0" fill="#45A6DE" transform="matrix(1.00, 0.00, -0.00, -1.00, 623.1, 456.0)">c</text><text xml:space="preserve" font-family="MarkerFelt-Thin" font-size="95.0" fill="#45A6DE" transform="matrix(1.00, 0.00, -0.00, -1.00, 663.0, 456.0)">i</text><text xml:space="preserve" font-family="MarkerFelt-Thin" font-size="95.0" fill="#45A6DE" transform="matrix(1.00, 0.00, -0.00, -1.00, 685.3, 456.0)">s</text><text xml:space="preserve" font-family="MarkerFelt-Thin" font-size="95.0" fill="#45A6DE" transform="matrix(1.00, 0.00, -0.00, -1.00, 724.3, 456.0)">i</text><text xml:space="preserve" font-family="MarkerFelt-Thin" font-size="95.0" fill="#45A6DE" transform="matrix(1.00, 0.00, -0.00, -1.00, 746.4, 456.0)">o</text><text xml:space="preserve" font-family="MarkerFelt-Thin" font-size="95.0" fill="#45A6DE" transform="matrix(1.00, 0.00, -0.00, -1.00, 789.4, 456.0)">n</text><text xml:space="preserve" font-family="MarkerFelt-Thin" font-size="95.0" fill="#45A6DE" transform="matrix(1.00, 0.00, -0.00, -1.00, 836.0, 456.0)"> </text><text xml:space="preserve" font-family="MarkerFelt-Thin" font-size="95.0" fill="#45A6DE" transform="matrix(1.00, 0.00, -0.00, -1.00, 143.0, 353.0)">m</text><text xml:space="preserve" font-family="MarkerFelt-Thin" font-size="95.0" fill="#45A6DE" transform="matrix(1.00, 0.00, -0.00, -1.00, 216.2, 353.0)">a</text><text xml:space="preserve" font-family="MarkerFelt-Thin" font-size="95.0" fill="#45A6DE" transform="matrix(1.00, 0.00, -0.00, -1.00, 263.7, 353.0)">k</text><text xml:space="preserve" font-family="MarkerFelt-Thin" font-size="95.0" fill="#45A6DE" transform="matrix(1.00, 0.00, -0.00, -1.00, 313.4, 353.0)">e</text><text xml:space="preserve" font-family="MarkerFelt-Thin" font-size="95.0" fill="#45A6DE" transform="matrix(1.00, 0.00, -0.00, -1.00, 355.2, 353.0)">r</text><text xml:space="preserve" font-family="MarkerFelt-Thin" font-size="95.0" fill="#45A6DE" transform="matrix(1.00, 0.00, -0.00, -1.00, 391.3, 353.0)">s</text><text xml:space="preserve" font-family="MarkerFelt-Thin" font-size="95.0" fill="#45A6DE" transform="matrix(1.00, 0.00, -0.00, -1.00, 426.5, 353.0)"> </text><text xml:space="preserve" font-family="MarkerFelt-Thin" font-size="95.0" fill="#45A6DE" transform="matrix(1.00, 0.00, -0.00, -1.00, 450.2, 353.0)">u</text><text xml:space="preserve" font-family="MarkerFelt-Thin" font-size="95.0" fill="#45A6DE" transform="matrix(1.00, 0.00, -0.00, -1.00, 492.9, 353.0)">n</text><text xml:space="preserve" font-family="MarkerFelt-Thin" font-size="95.0" fill="#45A6DE" transform="matrix(1.00, 0.00, -0.00, -1.00, 542.9, 353.0)">d</text><text xml:space="preserve" font-family="MarkerFelt-Thin" font-size="95.0" fill="#45A6DE" transform="matrix(1.00, 0.00, -0.00, -1.00, 583.8, 353.0)">e</text><text xml:space="preserve" font-family="MarkerFelt-Thin" font-size="95.0" fill="#45A6DE" transform="matrix(1.00, 0.00, -0.00, -1.00, 625.6, 353.0)">r</text><text xml:space="preserve" font-family="MarkerFelt-Thin" font-size="95.0" fill="#45A6DE" transform="matrix(1.00, 0.00, -0.00, -1.00, 661.7, 353.0)">s</text><text xml:space="preserve" font-family="MarkerFelt-Thin" font-size="95.0" fill="#45A6DE" transform="matrix(1.00, 0.00, -0.00, -1.00, 702.9, 353.0)">t</text><text xml:space="preserve" font-family="MarkerFelt-Thin" font-size="95.0" fill="#45A6DE" transform="matrix(1.00, 0.00, -0.00, -1.00, 742.1, 353.0)">a</text><text xml:space="preserve" font-family="MarkerFelt-Thin" font-size="95.0" fill="#45A6DE" transform="matrix(1.00, 0.00, -0.00, -1.00, 789.5, 353.0)">n</text><text xml:space="preserve" font-family="MarkerFelt-Thin" font-size="95.0" fill="#45A6DE" transform="matrix(1.00, 0.00, -0.00, -1.00, 839.5, 353.0)">d</text><text xml:space="preserve" font-family="MarkerFelt-Thin" font-size="95.0" fill="#45A6DE" transform="matrix(1.00, 0.00, -0.00, -1.00, 880.4, 353.0)"> </text><text xml:space="preserve" font-family="MarkerFelt-Thin" font-size="95.0" fill="#45A6DE" transform="matrix(1.00, 0.00, -0.00, -1.00, 208.0, 250.0)">a</text><text xml:space="preserve" font-family="MarkerFelt-Thin" font-size="95.0" fill="#45A6DE" transform="matrix(1.00, 0.00, -0.00, -1.00, 255.4, 250.0)">n</text><text xml:space="preserve" font-family="MarkerFelt-Thin" font-size="95.0" fill="#45A6DE" transform="matrix(1.00, 0.00, -0.00, -1.00, 305.5, 250.0)">d</text><text xml:space="preserve" font-family="MarkerFelt-Thin" font-size="95.0" fill="#45A6DE" transform="matrix(1.00, 0.00, -0.00, -1.00, 346.3, 250.0)"> </text><text xml:space="preserve" font-family="MarkerFelt-Thin" font-size="95.0" fill="#45A6DE" transform="matrix(1.00, 0.00, -0.00, -1.00, 370.1, 250.0)">c</text><text xml:space="preserve" font-family="MarkerFelt-Thin" font-size="95.0" fill="#45A6DE" transform="matrix(1.00, 0.00, -0.00, -1.00, 411.8, 250.0)">a</text><text xml:space="preserve" font-family="MarkerFelt-Thin" font-size="95.0" fill="#45A6DE" transform="matrix(1.00, 0.00, -0.00, -1.00, 459.4, 250.0)">r</text><text xml:space="preserve" font-family="MarkerFelt-Thin" font-size="95.0" fill="#45A6DE" transform="matrix(1.00, 0.00, -0.00, -1.00, 495.5, 250.0)">e</text><text xml:space="preserve" font-family="MarkerFelt-Thin" font-size="95.0" fill="#45A6DE" transform="matrix(1.00, 0.00, -0.00, -1.00, 531.6, 250.0)"> </text><text xml:space="preserve" font-family="MarkerFelt-Thin" font-size="95.0" fill="#45A6DE" transform="matrix(1.00, 0.00, -0.00, -1.00, 555.3, 250.0)">a</text><text xml:space="preserve" font-family="MarkerFelt-Thin" font-size="95.0" fill="#45A6DE" transform="matrix(1.00, 0.00, -0.00, -1.00, 603.0, 250.0)">b</text><text xml:space="preserve" font-family="MarkerFelt-Thin" font-size="95.0" fill="#45A6DE" transform="matrix(1.00, 0.00, -0.00, -1.00, 648.5, 250.0)">o</text><text xml:space="preserve" font-family="MarkerFelt-Thin" font-size="95.0" fill="#45A6DE" transform="matrix(1.00, 0.00, -0.00, -1.00, 692.2, 250.0)">u</text><text xml:space="preserve" font-family="MarkerFelt-Thin" font-size="95.0" fill="#45A6DE" transform="matrix(1.00, 0.00, -0.00, -1.00, 737.8, 250.0)">t</text><text xml:space="preserve" font-family="MarkerFelt-Thin" font-size="95.0" fill="#45A6DE" transform="matrix(1.00, 0.00, -0.00, -1.00, 776.3, 250.0)">?</text></g></svg>