<?xml version="1.0" encoding="UTF-8" standalone="no"?><svg xmlns="http://www.w3.org/2000/svg" xmlns:xlink="http://www.w3.org/1999/xlink" clip-rule="evenodd" stroke-miterlimit="4.00" viewBox="0 0 1024 768"><desc>SVG generated by Keynote</desc><defs></defs><g transform="matrix(1.00, 0.00, -0.00, -1.00, 0.0, 768.0)"><path d="M 0.0 768.0 L 1024.0 768.0 L 1024.0 0.0 L 0.0 0.0 Z M 0.0 768.0 " fill="#FEFFFF"></path><text xml:space="preserve" font-family="Helvetica-Light" font-size="80.0" fill="#000000" transform="matrix(1.00, 0.00, -0.00, -1.00, 259.0, 657.0)">H</text><text xml:space="preserve" font-family="Helvetica-Light" font-size="80.0" fill="#000000" transform="matrix(1.00, 0.00, -0.00, -1.00, 316.8, 657.0)">o</text><text xml:space="preserve" font-family="Helvetica-Light" font-size="80.0" fill="#000000" transform="matrix(1.00, 0.00, -0.00, -1.00, 361.2, 657.0)">w</text><text xml:space="preserve" font-family="Helvetica-Light" font-size="80.0" fill="#000000" transform="matrix(1.00, 0.00, -0.00, -1.00, 419.0, 657.0)">’</text><text xml:space="preserve" font-family="Helvetica-Light" font-size="80.0" fill="#000000" transform="matrix(1.00, 0.00, -0.00, -1.00, 436.8, 657.0)">d</text><text xml:space="preserve" font-family="Helvetica-Light" font-size="80.0" fill="#000000" transform="matrix(1.00, 0.00, -0.00, -1.00, 485.6, 657.0)"> </text><text xml:space="preserve" font-family="Helvetica-Light" font-size="80.0" fill="#000000" transform="matrix(1.00, 0.00, -0.00, -1.00, 507.9, 657.0)">w</text><text xml:space="preserve" font-family="Helvetica-Light" font-size="80.0" fill="#000000" transform="matrix(1.00, 0.00, -0.00, -1.00, 565.6, 657.0)">e</text><text xml:space="preserve" font-family="Helvetica-Light" font-size="80.0" fill="#000000" transform="matrix(1.00, 0.00, -0.00, -1.00, 610.1, 657.0)"> </text><text xml:space="preserve" font-family="Helvetica-Light" font-size="80.0" fill="#000000" transform="matrix(1.00, 0.00, -0.00, -1.00, 632.4, 657.0)">d</text><text xml:space="preserve" font-family="Helvetica-Light" font-size="80.0" fill="#000000" transform="matrix(1.00, 0.00, -0.00, -1.00, 681.2, 657.0)">o</text><text xml:space="preserve" font-family="Helvetica-Light" font-size="80.0" fill="#000000" transform="matrix(1.00, 0.00, -0.00, -1.00, 725.7, 657.0)">?</text><g><clipPath id="clip-316"><path d="M 185.0 600.0 L 838.4 600.0 L 838.4 61.6 L 185.0 61.6 Z M 185.0 600.0 "></path></clipPath><g clip-path="url(#clip-316)"><path d="M 185.0 600.0 L 511.7 600.0 L 511.7 561.5 L 185.0 561.5 Z M 185.0 600.0 " fill="#0264C0"></path><path d="M 511.7 600.0 L 838.4 600.0 L 838.4 561.5 L 511.7 561.5 Z M 511.7 600.0 " fill="#0264C0"></path><path d="M 185.0 561.5 L 511.7 561.5 L 511.7 523.1 L 185.0 523.1 Z M 185.0 561.5 " fill="#388CCE"></path><path d="M 511.7 561.5 L 838.4 561.5 L 838.4 523.1 L 511.7 523.1 Z M 511.7 561.5 " fill="#FEFFFF"></path><path d="M 185.0 523.1 L 511.7 523.1 L 511.7 484.6 L 185.0 484.6 Z M 185.0 523.1 " fill="#388CCE"></path><path d="M 511.7 523.1 L 838.4 523.1 L 838.4 484.6 L 511.7 484.6 Z M 511.7 523.1 " fill="#E2E5E8"></path><path d="M 185.0 484.6 L 511.7 484.6 L 511.7 446.2 L 185.0 446.2 Z M 185.0 484.6 " fill="#388CCE"></path><path d="M 511.7 484.6 L 838.4 484.6 L 838.4 446.2 L 511.7 446.2 Z M 511.7 484.6 " fill="#FEFFFF"></path><path d="M 185.0 446.2 L 511.7 446.2 L 511.7 407.7 L 185.0 407.7 Z M 185.0 446.2 " fill="#388CCE"></path><path d="M 511.7 446.2 L 838.4 446.2 L 838.4 407.7 L 511.7 407.7 Z M 511.7 446.2 " fill="#E2E5E8"></path><path d="M 185.0 407.7 L 511.7 407.7 L 511.7 369.2 L 185.0 369.2 Z M 185.0 407.7 " fill="#388CCE"></path><path d="M 511.7 407.7 L 838.4 407.7 L 838.4 369.2 L 511.7 369.2 Z M 511.7 407.7 " fill="#FEFFFF"></path><path d="M 185.0 369.2 L 511.7 369.2 L 511.7 330.8 L 185.0 330.8 Z M 185.0 369.2 " fill="#388CCE"></path><path d="M 511.7 369.2 L 838.4 369.2 L 838.4 330.8 L 511.7 330.8 Z M 511.7 369.2 " fill="#E2E5E8"></path><path d="M 185.0 330.8 L 511.7 330.8 L 511.7 292.3 L 185.0 292.3 Z M 185.0 330.8 " fill="#388CCE"></path><path d="M 511.7 330.8 L 838.4 330.8 L 838.4 292.3 L 511.7 292.3 Z M 511.7 330.8 " fill="#FEFFFF"></path><path d="M 185.0 292.3 L 511.7 292.3 L 511.7 253.9 L 185.0 253.9 Z M 185.0 292.3 " fill="#388CCE"></path><path d="M 511.7 292.3 L 838.4 292.3 L 838.4 253.9 L 511.7 253.9 Z M 511.7 292.3 " fill="#E2E5E8"></path><path d="M 185.0 253.9 L 511.7 253.9 L 511.7 215.4 L 185.0 215.4 Z M 185.0 253.9 " fill="#388CCE"></path><path d="M 511.7 253.9 L 838.4 253.9 L 838.4 215.4 L 511.7 215.4 Z M 511.7 253.9 " fill="#FEFFFF"></path><path d="M 185.0 215.4 L 511.7 215.4 L 511.7 176.9 L 185.0 176.9 Z M 185.0 215.4 " fill="#388CCE"></path><path d="M 511.7 215.4 L 838.4 215.4 L 838.4 176.9 L 511.7 176.9 Z M 511.7 215.4 " fill="#E2E5E8"></path><path d="M 185.0 176.9 L 511.7 176.9 L 511.7 138.5 L 185.0 138.5 Z M 185.0 176.9 " fill="#388CCE"></path><path d="M 511.7 176.9 L 838.4 176.9 L 838.4 138.5 L 511.7 138.5 Z M 511.7 176.9 " fill="#FEFFFF"></path><path d="M 185.0 138.5 L 511.7 138.5 L 511.7 100.0 L 185.0 100.0 Z M 185.0 138.5 " fill="#388CCE"></path><path d="M 511.7 138.5 L 838.4 138.5 L 838.4 100.0 L 511.7 100.0 Z M 511.7 138.5 " fill="#E2E5E8"></path><path d="M 185.0 100.0 L 511.7 100.0 L 511.7 61.6 L 185.0 61.6 Z M 185.0 100.0 " fill="#388CCE"></path><path d="M 511.7 100.0 L 838.4 100.0 L 838.4 61.6 L 511.7 61.6 Z M 511.7 100.0 " fill="#FEFFFF"></path></g></g><g><clipPath id="clip-317"><path d="M 185.0 600.0 L 838.4 600.0 L 838.4 61.6 L 185.0 61.6 Z M 185.0 600.0 "></path></clipPath><g clip-path="url(#clip-317)"><g><clipPath id="clip-318"><path d="M 185.0 562.0 L 511.7 562.0 L 511.7 600.0 L 185.0 600.0 Z M 185.0 562.0 "></path></clipPath><g clip-path="url(#clip-318)"><text xml:space="preserve" font-family="Helvetica-Bold" font-weight="bold" font-size="26.0" fill="#FEFFFE" transform="matrix(1.00, 0.00, -0.00, -1.00, 294.0, 571.0)">A</text><text xml:space="preserve" font-family="Helvetica-Bold" font-weight="bold" font-size="26.0" fill="#FEFFFE" transform="matrix(1.00, 0.00, -0.00, -1.00, 312.8, 571.0)">t</text><text xml:space="preserve" font-family="Helvetica-Bold" font-weight="bold" font-size="26.0" fill="#FEFFFE" transform="matrix(1.00, 0.00, -0.00, -1.00, 321.4, 571.0)">t</text><text xml:space="preserve" font-family="Helvetica-Bold" font-weight="bold" font-size="26.0" fill="#FEFFFE" transform="matrix(1.00, 0.00, -0.00, -1.00, 330.1, 571.0)">r</text><text xml:space="preserve" font-family="Helvetica-Bold" font-weight="bold" font-size="26.0" fill="#FEFFFE" transform="matrix(1.00, 0.00, -0.00, -1.00, 340.2, 571.0)">i</text><text xml:space="preserve" font-family="Helvetica-Bold" font-weight="bold" font-size="26.0" fill="#FEFFFE" transform="matrix(1.00, 0.00, -0.00, -1.00, 347.4, 571.0)">b</text><text xml:space="preserve" font-family="Helvetica-Bold" font-weight="bold" font-size="26.0" fill="#FEFFFE" transform="matrix(1.00, 0.00, -0.00, -1.00, 363.3, 571.0)">u</text><text xml:space="preserve" font-family="Helvetica-Bold" font-weight="bold" font-size="26.0" fill="#FEFFFE" transform="matrix(1.00, 0.00, -0.00, -1.00, 379.2, 571.0)">t</text><text xml:space="preserve" font-family="Helvetica-Bold" font-weight="bold" font-size="26.0" fill="#FEFFFE" transform="matrix(1.00, 0.00, -0.00, -1.00, 387.9, 571.0)">e</text></g></g></g></g><g><clipPath id="clip-319"><path d="M 185.0 600.0 L 838.4 600.0 L 838.4 61.6 L 185.0 61.6 Z M 185.0 600.0 "></path></clipPath><g clip-path="url(#clip-319)"><g><clipPath id="clip-320"><path d="M 511.7 562.0 L 838.4 562.0 L 838.4 600.0 L 511.7 600.0 Z M 511.7 562.0 "></path></clipPath><g clip-path="url(#clip-320)"><text xml:space="preserve" font-family="Helvetica-Bold" font-weight="bold" font-size="26.0" fill="#FEFFFE" transform="matrix(1.00, 0.00, -0.00, -1.00, 518.0, 571.0)">D</text><text xml:space="preserve" font-family="Helvetica-Bold" font-weight="bold" font-size="26.0" fill="#FEFFFE" transform="matrix(1.00, 0.00, -0.00, -1.00, 536.8, 571.0)">o</text><text xml:space="preserve" font-family="Helvetica-Bold" font-weight="bold" font-size="26.0" fill="#FEFFFE" transform="matrix(1.00, 0.00, -0.00, -1.00, 552.7, 571.0)">a</text><text xml:space="preserve" font-family="Helvetica-Bold" font-weight="bold" font-size="26.0" fill="#FEFFFE" transform="matrix(1.00, 0.00, -0.00, -1.00, 567.1, 571.0)">b</text><text xml:space="preserve" font-family="Helvetica-Bold" font-weight="bold" font-size="26.0" fill="#FEFFFE" transform="matrix(1.00, 0.00, -0.00, -1.00, 583.0, 571.0)">l</text><text xml:space="preserve" font-family="Helvetica-Bold" font-weight="bold" font-size="26.0" fill="#FEFFFE" transform="matrix(1.00, 0.00, -0.00, -1.00, 590.2, 571.0)">e</text><text xml:space="preserve" font-family="Helvetica-Bold" font-weight="bold" font-size="26.0" fill="#FEFFFE" transform="matrix(1.00, 0.00, -0.00, -1.00, 604.7, 571.0)"> </text><text xml:space="preserve" font-family="Helvetica-Bold" font-weight="bold" font-size="26.0" fill="#FEFFFE" transform="matrix(1.00, 0.00, -0.00, -1.00, 611.9, 571.0)">w</text><text xml:space="preserve" font-family="Helvetica-Bold" font-weight="bold" font-size="26.0" fill="#FEFFFE" transform="matrix(1.00, 0.00, -0.00, -1.00, 632.1, 571.0)">i</text><text xml:space="preserve" font-family="Helvetica-Bold" font-weight="bold" font-size="26.0" fill="#FEFFFE" transform="matrix(1.00, 0.00, -0.00, -1.00, 639.3, 571.0)">t</text><text xml:space="preserve" font-family="Helvetica-Bold" font-weight="bold" font-size="26.0" fill="#FEFFFE" transform="matrix(1.00, 0.00, -0.00, -1.00, 648.0, 571.0)">h</text><text xml:space="preserve" font-family="Helvetica-Bold" font-weight="bold" font-size="26.0" fill="#FEFFFE" transform="matrix(1.00, 0.00, -0.00, -1.00, 663.9, 571.0)"> </text><text xml:space="preserve" font-family="Helvetica-Bold" font-weight="bold" font-size="26.0" fill="#FEFFFE" transform="matrix(1.00, 0.00, -0.00, -1.00, 671.1, 571.0)">J</text><text xml:space="preserve" font-family="Helvetica-Bold" font-weight="bold" font-size="26.0" fill="#FEFFFE" transform="matrix(1.00, 0.00, -0.00, -1.00, 685.6, 571.0)">a</text><text xml:space="preserve" font-family="Helvetica-Bold" font-weight="bold" font-size="26.0" fill="#FEFFFE" transform="matrix(1.00, 0.00, -0.00, -1.00, 700.0, 571.0)">v</text><text xml:space="preserve" font-family="Helvetica-Bold" font-weight="bold" font-size="26.0" fill="#FEFFFE" transform="matrix(1.00, 0.00, -0.00, -1.00, 714.5, 571.0)">a</text><text xml:space="preserve" font-family="Helvetica-Bold" font-weight="bold" font-size="26.0" fill="#FEFFFE" transform="matrix(1.00, 0.00, -0.00, -1.00, 729.0, 571.0)"> </text><text xml:space="preserve" font-family="Helvetica-Bold" font-weight="bold" font-size="26.0" fill="#FEFFFE" transform="matrix(1.00, 0.00, -0.00, -1.00, 736.2, 571.0)">O</text><text xml:space="preserve" font-family="Helvetica-Bold" font-weight="bold" font-size="26.0" fill="#FEFFFE" transform="matrix(1.00, 0.00, -0.00, -1.00, 756.4, 571.0)">b</text><text xml:space="preserve" font-family="Helvetica-Bold" font-weight="bold" font-size="26.0" fill="#FEFFFE" transform="matrix(1.00, 0.00, -0.00, -1.00, 772.3, 571.0)">j</text><text xml:space="preserve" font-family="Helvetica-Bold" font-weight="bold" font-size="26.0" fill="#FEFFFE" transform="matrix(1.00, 0.00, -0.00, -1.00, 779.5, 571.0)">e</text><text xml:space="preserve" font-family="Helvetica-Bold" font-weight="bold" font-size="26.0" fill="#FEFFFE" transform="matrix(1.00, 0.00, -0.00, -1.00, 793.9, 571.0)">c</text><text xml:space="preserve" font-family="Helvetica-Bold" font-weight="bold" font-size="26.0" fill="#FEFFFE" transform="matrix(1.00, 0.00, -0.00, -1.00, 808.4, 571.0)">t</text><text xml:space="preserve" font-family="Helvetica-Bold" font-weight="bold" font-size="26.0" fill="#FEFFFE" transform="matrix(1.00, 0.00, -0.00, -1.00, 817.1, 571.0)">s</text></g></g></g></g><g><clipPath id="clip-321"><path d="M 185.0 600.0 L 838.4 600.0 L 838.4 61.6 L 185.0 61.6 Z M 185.0 600.0 "></path></clipPath><g clip-path="url(#clip-321)"><g><clipPath id="clip-322"><path d="M 185.0 523.1 L 511.2 523.1 L 511.2 561.0 L 185.0 561.0 Z M 185.0 523.1 "></path></clipPath><g clip-path="url(#clip-322)"><text xml:space="preserve" font-family="Helvetica-Bold" font-weight="bold" font-size="26.0" fill="#FEFFFE" transform="matrix(1.00, 0.00, -0.00, -1.00, 286.0, 532.0)">S</text><text xml:space="preserve" font-family="Helvetica-Bold" font-weight="bold" font-size="26.0" fill="#FEFFFE" transform="matrix(1.00, 0.00, -0.00, -1.00, 303.3, 532.0)">h</text><text xml:space="preserve" font-family="Helvetica-Bold" font-weight="bold" font-size="26.0" fill="#FEFFFE" transform="matrix(1.00, 0.00, -0.00, -1.00, 319.2, 532.0)">a</text><text xml:space="preserve" font-family="Helvetica-Bold" font-weight="bold" font-size="26.0" fill="#FEFFFE" transform="matrix(1.00, 0.00, -0.00, -1.00, 333.7, 532.0)">r</text><text xml:space="preserve" font-family="Helvetica-Bold" font-weight="bold" font-size="26.0" fill="#FEFFFE" transform="matrix(1.00, 0.00, -0.00, -1.00, 343.8, 532.0)">e</text><text xml:space="preserve" font-family="Helvetica-Bold" font-weight="bold" font-size="26.0" fill="#FEFFFE" transform="matrix(1.00, 0.00, -0.00, -1.00, 358.3, 532.0)">a</text><text xml:space="preserve" font-family="Helvetica-Bold" font-weight="bold" font-size="26.0" fill="#FEFFFE" transform="matrix(1.00, 0.00, -0.00, -1.00, 372.7, 532.0)">b</text><text xml:space="preserve" font-family="Helvetica-Bold" font-weight="bold" font-size="26.0" fill="#FEFFFE" transform="matrix(1.00, 0.00, -0.00, -1.00, 388.6, 532.0)">l</text><text xml:space="preserve" font-family="Helvetica-Bold" font-weight="bold" font-size="26.0" fill="#FEFFFE" transform="matrix(1.00, 0.00, -0.00, -1.00, 395.8, 532.0)">e</text></g></g></g></g><g><clipPath id="clip-323"><path d="M 185.0 600.0 L 838.4 600.0 L 838.4 61.6 L 185.0 61.6 Z M 185.0 600.0 "></path></clipPath><g clip-path="url(#clip-323)"><g><clipPath id="clip-324"><path d="M 512.2 523.1 L 838.4 523.1 L 838.4 561.0 L 512.2 561.0 Z M 512.2 523.1 "></path></clipPath><g clip-path="url(#clip-324)"><text xml:space="preserve" font-family="Helvetica-Light" font-size="26.0" fill="#000000" transform="matrix(1.00, 0.00, -0.00, -1.00, 655.0, 532.0)">Y</text><text xml:space="preserve" font-family="Helvetica-Light" font-size="26.0" fill="#000000" transform="matrix(1.00, 0.00, -0.00, -1.00, 668.5, 532.0)">e</text><text xml:space="preserve" font-family="Helvetica-Light" font-size="26.0" fill="#000000" transform="matrix(1.00, 0.00, -0.00, -1.00, 683.0, 532.0)">s</text></g></g></g></g><g><clipPath id="clip-325"><path d="M 185.0 600.0 L 838.4 600.0 L 838.4 61.6 L 185.0 61.6 Z M 185.0 600.0 "></path></clipPath><g clip-path="url(#clip-325)"><g><clipPath id="clip-326"><path d="M 185.0 484.6 L 511.2 484.6 L 511.2 523.1 L 185.0 523.1 Z M 185.0 484.6 "></path></clipPath><g clip-path="url(#clip-326)"><text xml:space="preserve" font-family="Helvetica-Bold" font-weight="bold" font-size="26.0" fill="#FEFFFE" transform="matrix(1.00, 0.00, -0.00, -1.00, 273.0, 494.0)">C</text><text xml:space="preserve" font-family="Helvetica-Bold" font-weight="bold" font-size="26.0" fill="#FEFFFE" transform="matrix(1.00, 0.00, -0.00, -1.00, 291.8, 494.0)">o</text><text xml:space="preserve" font-family="Helvetica-Bold" font-weight="bold" font-size="26.0" fill="#FEFFFE" transform="matrix(1.00, 0.00, -0.00, -1.00, 307.7, 494.0)">m</text><text xml:space="preserve" font-family="Helvetica-Bold" font-weight="bold" font-size="26.0" fill="#FEFFFE" transform="matrix(1.00, 0.00, -0.00, -1.00, 330.8, 494.0)">p</text><text xml:space="preserve" font-family="Helvetica-Bold" font-weight="bold" font-size="26.0" fill="#FEFFFE" transform="matrix(1.00, 0.00, -0.00, -1.00, 346.7, 494.0)">a</text><text xml:space="preserve" font-family="Helvetica-Bold" font-weight="bold" font-size="26.0" fill="#FEFFFE" transform="matrix(1.00, 0.00, -0.00, -1.00, 361.1, 494.0)">r</text><text xml:space="preserve" font-family="Helvetica-Bold" font-weight="bold" font-size="26.0" fill="#FEFFFE" transform="matrix(1.00, 0.00, -0.00, -1.00, 371.3, 494.0)">a</text><text xml:space="preserve" font-family="Helvetica-Bold" font-weight="bold" font-size="26.0" fill="#FEFFFE" transform="matrix(1.00, 0.00, -0.00, -1.00, 385.7, 494.0)">b</text><text xml:space="preserve" font-family="Helvetica-Bold" font-weight="bold" font-size="26.0" fill="#FEFFFE" transform="matrix(1.00, 0.00, -0.00, -1.00, 401.6, 494.0)">l</text><text xml:space="preserve" font-family="Helvetica-Bold" font-weight="bold" font-size="26.0" fill="#FEFFFE" transform="matrix(1.00, 0.00, -0.00, -1.00, 408.8, 494.0)">e</text></g></g></g></g><g><clipPath id="clip-327"><path d="M 185.0 600.0 L 838.4 600.0 L 838.4 61.6 L 185.0 61.6 Z M 185.0 600.0 "></path></clipPath><g clip-path="url(#clip-327)"><g><clipPath id="clip-328"><path d="M 512.2 484.6 L 838.4 484.6 L 838.4 523.1 L 512.2 523.1 Z M 512.2 484.6 "></path></clipPath><g clip-path="url(#clip-328)"><text xml:space="preserve" font-family="Helvetica-Light" font-size="26.0" fill="#000000" transform="matrix(1.00, 0.00, -0.00, -1.00, 655.0, 494.0)">Y</text><text xml:space="preserve" font-family="Helvetica-Light" font-size="26.0" fill="#000000" transform="matrix(1.00, 0.00, -0.00, -1.00, 668.5, 494.0)">e</text><text xml:space="preserve" font-family="Helvetica-Light" font-size="26.0" fill="#000000" transform="matrix(1.00, 0.00, -0.00, -1.00, 683.0, 494.0)">s</text></g></g></g></g><g><clipPath id="clip-329"><path d="M 185.0 600.0 L 838.4 600.0 L 838.4 61.6 L 185.0 61.6 Z M 185.0 600.0 "></path></clipPath><g clip-path="url(#clip-329)"><g><clipPath id="clip-330"><path d="M 185.0 446.2 L 511.2 446.2 L 511.2 484.6 L 185.0 484.6 Z M 185.0 446.2 "></path></clipPath><g clip-path="url(#clip-330)"><text xml:space="preserve" font-family="Helvetica-Bold" font-weight="bold" font-size="26.0" fill="#FEFFFE" transform="matrix(1.00, 0.00, -0.00, -1.00, 265.0, 456.0)">R</text><text xml:space="preserve" font-family="Helvetica-Bold" font-weight="bold" font-size="26.0" fill="#FEFFFE" transform="matrix(1.00, 0.00, -0.00, -1.00, 283.8, 456.0)">e</text><text xml:space="preserve" font-family="Helvetica-Bold" font-weight="bold" font-size="26.0" fill="#FEFFFE" transform="matrix(1.00, 0.00, -0.00, -1.00, 298.2, 456.0)">p</text><text xml:space="preserve" font-family="Helvetica-Bold" font-weight="bold" font-size="26.0" fill="#FEFFFE" transform="matrix(1.00, 0.00, -0.00, -1.00, 314.1, 456.0)">r</text><text xml:space="preserve" font-family="Helvetica-Bold" font-weight="bold" font-size="26.0" fill="#FEFFFE" transform="matrix(1.00, 0.00, -0.00, -1.00, 324.3, 456.0)">o</text><text xml:space="preserve" font-family="Helvetica-Bold" font-weight="bold" font-size="26.0" fill="#FEFFFE" transform="matrix(1.00, 0.00, -0.00, -1.00, 340.1, 456.0)">d</text><text xml:space="preserve" font-family="Helvetica-Bold" font-weight="bold" font-size="26.0" fill="#FEFFFE" transform="matrix(1.00, 0.00, -0.00, -1.00, 356.0, 456.0)">u</text><text xml:space="preserve" font-family="Helvetica-Bold" font-weight="bold" font-size="26.0" fill="#FEFFFE" transform="matrix(1.00, 0.00, -0.00, -1.00, 371.9, 456.0)">c</text><text xml:space="preserve" font-family="Helvetica-Bold" font-weight="bold" font-size="26.0" fill="#FEFFFE" transform="matrix(1.00, 0.00, -0.00, -1.00, 386.4, 456.0)">i</text><text xml:space="preserve" font-family="Helvetica-Bold" font-weight="bold" font-size="26.0" fill="#FEFFFE" transform="matrix(1.00, 0.00, -0.00, -1.00, 393.6, 456.0)">b</text><text xml:space="preserve" font-family="Helvetica-Bold" font-weight="bold" font-size="26.0" fill="#FEFFFE" transform="matrix(1.00, 0.00, -0.00, -1.00, 409.5, 456.0)">l</text><text xml:space="preserve" font-family="Helvetica-Bold" font-weight="bold" font-size="26.0" fill="#FEFFFE" transform="matrix(1.00, 0.00, -0.00, -1.00, 416.7, 456.0)">e</text></g></g></g></g><g><clipPath id="clip-331"><path d="M 185.0 600.0 L 838.4 600.0 L 838.4 61.6 L 185.0 61.6 Z M 185.0 600.0 "></path></clipPath><g clip-path="url(#clip-331)"><g><clipPath id="clip-332"><path d="M 512.2 446.2 L 838.4 446.2 L 838.4 484.6 L 512.2 484.6 Z M 512.2 446.2 "></path></clipPath><g clip-path="url(#clip-332)"><text xml:space="preserve" font-family="Helvetica-Light" font-size="26.0" fill="#000000" transform="matrix(1.00, 0.00, -0.00, -1.00, 655.0, 456.0)">Y</text><text xml:space="preserve" font-family="Helvetica-Light" font-size="26.0" fill="#000000" transform="matrix(1.00, 0.00, -0.00, -1.00, 668.5, 456.0)">e</text><text xml:space="preserve" font-family="Helvetica-Light" font-size="26.0" fill="#000000" transform="matrix(1.00, 0.00, -0.00, -1.00, 683.0, 456.0)">s</text></g></g></g></g><g><clipPath id="clip-333"><path d="M 185.0 600.0 L 838.4 600.0 L 838.4 61.6 L 185.0 61.6 Z M 185.0 600.0 "></path></clipPath><g clip-path="url(#clip-333)"><g><clipPath id="clip-334"><path d="M 185.0 407.7 L 511.2 407.7 L 511.2 446.2 L 185.0 446.2 Z M 185.0 407.7 "></path></clipPath><g clip-path="url(#clip-334)"><text xml:space="preserve" font-family="Helvetica-Bold" font-weight="bold" font-size="26.0" fill="#FEFFFE" transform="matrix(1.00, 0.00, -0.00, -1.00, 261.0, 417.0)">S</text><text xml:space="preserve" font-family="Helvetica-Bold" font-weight="bold" font-size="26.0" fill="#FEFFFE" transform="matrix(1.00, 0.00, -0.00, -1.00, 278.3, 417.0)">y</text><text xml:space="preserve" font-family="Helvetica-Bold" font-weight="bold" font-size="26.0" fill="#FEFFFE" transform="matrix(1.00, 0.00, -0.00, -1.00, 292.8, 417.0)">n</text><text xml:space="preserve" font-family="Helvetica-Bold" font-weight="bold" font-size="26.0" fill="#FEFFFE" transform="matrix(1.00, 0.00, -0.00, -1.00, 308.7, 417.0)">t</text><text xml:space="preserve" font-family="Helvetica-Bold" font-weight="bold" font-size="26.0" fill="#FEFFFE" transform="matrix(1.00, 0.00, -0.00, -1.00, 317.3, 417.0)">h</text><text xml:space="preserve" font-family="Helvetica-Bold" font-weight="bold" font-size="26.0" fill="#FEFFFE" transform="matrix(1.00, 0.00, -0.00, -1.00, 333.2, 417.0)">e</text><text xml:space="preserve" font-family="Helvetica-Bold" font-weight="bold" font-size="26.0" fill="#FEFFFE" transform="matrix(1.00, 0.00, -0.00, -1.00, 347.7, 417.0)">s</text><text xml:space="preserve" font-family="Helvetica-Bold" font-weight="bold" font-size="26.0" fill="#FEFFFE" transform="matrix(1.00, 0.00, -0.00, -1.00, 362.1, 417.0)">i</text><text xml:space="preserve" font-family="Helvetica-Bold" font-weight="bold" font-size="26.0" fill="#FEFFFE" transform="matrix(1.00, 0.00, -0.00, -1.00, 369.4, 417.0)">z</text><text xml:space="preserve" font-family="Helvetica-Bold" font-weight="bold" font-size="26.0" fill="#FEFFFE" transform="matrix(1.00, 0.00, -0.00, -1.00, 382.4, 417.0)">a</text><text xml:space="preserve" font-family="Helvetica-Bold" font-weight="bold" font-size="26.0" fill="#FEFFFE" transform="matrix(1.00, 0.00, -0.00, -1.00, 396.8, 417.0)">b</text><text xml:space="preserve" font-family="Helvetica-Bold" font-weight="bold" font-size="26.0" fill="#FEFFFE" transform="matrix(1.00, 0.00, -0.00, -1.00, 412.7, 417.0)">l</text><text xml:space="preserve" font-family="Helvetica-Bold" font-weight="bold" font-size="26.0" fill="#FEFFFE" transform="matrix(1.00, 0.00, -0.00, -1.00, 419.9, 417.0)">e</text></g></g></g></g><g><clipPath id="clip-335"><path d="M 185.0 600.0 L 838.4 600.0 L 838.4 61.6 L 185.0 61.6 Z M 185.0 600.0 "></path></clipPath><g clip-path="url(#clip-335)"><g><clipPath id="clip-336"><path d="M 512.2 407.7 L 838.4 407.7 L 838.4 446.2 L 512.2 446.2 Z M 512.2 407.7 "></path></clipPath><g clip-path="url(#clip-336)"><text xml:space="preserve" font-family="Helvetica-Light" font-size="26.0" fill="#000000" transform="matrix(1.00, 0.00, -0.00, -1.00, 659.0, 417.0)">N</text><text xml:space="preserve" font-family="Helvetica-Light" font-size="26.0" fill="#000000" transform="matrix(1.00, 0.00, -0.00, -1.00, 677.8, 417.0)">o</text></g></g></g></g><g><clipPath id="clip-337"><path d="M 185.0 600.0 L 838.4 600.0 L 838.4 61.6 L 185.0 61.6 Z M 185.0 600.0 "></path></clipPath><g clip-path="url(#clip-337)"><g><clipPath id="clip-338"><path d="M 185.0 369.2 L 511.2 369.2 L 511.2 407.7 L 185.0 407.7 Z M 185.0 369.2 "></path></clipPath><g clip-path="url(#clip-338)"><text xml:space="preserve" font-family="Helvetica-Bold" font-weight="bold" font-size="26.0" fill="#FEFFFE" transform="matrix(1.00, 0.00, -0.00, -1.00, 290.0, 379.0)">U</text><text xml:space="preserve" font-family="Helvetica-Bold" font-weight="bold" font-size="26.0" fill="#FEFFFE" transform="matrix(1.00, 0.00, -0.00, -1.00, 308.8, 379.0)">n</text><text xml:space="preserve" font-family="Helvetica-Bold" font-weight="bold" font-size="26.0" fill="#FEFFFE" transform="matrix(1.00, 0.00, -0.00, -1.00, 324.7, 379.0)">i</text><text xml:space="preserve" font-family="Helvetica-Bold" font-weight="bold" font-size="26.0" fill="#FEFFFE" transform="matrix(1.00, 0.00, -0.00, -1.00, 331.9, 379.0)">v</text><text xml:space="preserve" font-family="Helvetica-Bold" font-weight="bold" font-size="26.0" fill="#FEFFFE" transform="matrix(1.00, 0.00, -0.00, -1.00, 346.4, 379.0)">e</text><text xml:space="preserve" font-family="Helvetica-Bold" font-weight="bold" font-size="26.0" fill="#FEFFFE" transform="matrix(1.00, 0.00, -0.00, -1.00, 360.8, 379.0)">r</text><text xml:space="preserve" font-family="Helvetica-Bold" font-weight="bold" font-size="26.0" fill="#FEFFFE" transform="matrix(1.00, 0.00, -0.00, -1.00, 371.0, 379.0)">s</text><text xml:space="preserve" font-family="Helvetica-Bold" font-weight="bold" font-size="26.0" fill="#FEFFFE" transform="matrix(1.00, 0.00, -0.00, -1.00, 385.4, 379.0)">a</text><text xml:space="preserve" font-family="Helvetica-Bold" font-weight="bold" font-size="26.0" fill="#FEFFFE" transform="matrix(1.00, 0.00, -0.00, -1.00, 399.9, 379.0)">l</text></g></g></g></g><g><clipPath id="clip-339"><path d="M 185.0 600.0 L 838.4 600.0 L 838.4 61.6 L 185.0 61.6 Z M 185.0 600.0 "></path></clipPath><g clip-path="url(#clip-339)"><g><clipPath id="clip-340"><path d="M 512.2 369.2 L 838.4 369.2 L 838.4 407.7 L 512.2 407.7 Z M 512.2 369.2 "></path></clipPath><g clip-path="url(#clip-340)"><text xml:space="preserve" font-family="Helvetica-Light" font-size="26.0" fill="#000000" transform="matrix(1.00, 0.00, -0.00, -1.00, 659.0, 379.0)">N</text><text xml:space="preserve" font-family="Helvetica-Light" font-size="26.0" fill="#000000" transform="matrix(1.00, 0.00, -0.00, -1.00, 677.8, 379.0)">o</text></g></g></g></g><g><clipPath id="clip-341"><path d="M 185.0 600.0 L 838.4 600.0 L 838.4 61.6 L 185.0 61.6 Z M 185.0 600.0 "></path></clipPath><g clip-path="url(#clip-341)"><g><clipPath id="clip-342"><path d="M 185.0 330.8 L 511.2 330.8 L 511.2 369.2 L 185.0 369.2 Z M 185.0 330.8 "></path></clipPath><g clip-path="url(#clip-342)"><text xml:space="preserve" font-family="Helvetica-Bold" font-weight="bold" font-size="26.0" fill="#FEFFFE" transform="matrix(1.00, 0.00, -0.00, -1.00, 300.0, 340.0)">G</text><text xml:space="preserve" font-family="Helvetica-Bold" font-weight="bold" font-size="26.0" fill="#FEFFFE" transform="matrix(1.00, 0.00, -0.00, -1.00, 320.2, 340.0)">e</text><text xml:space="preserve" font-family="Helvetica-Bold" font-weight="bold" font-size="26.0" fill="#FEFFFE" transform="matrix(1.00, 0.00, -0.00, -1.00, 334.7, 340.0)">n</text><text xml:space="preserve" font-family="Helvetica-Bold" font-weight="bold" font-size="26.0" fill="#FEFFFE" transform="matrix(1.00, 0.00, -0.00, -1.00, 350.5, 340.0)">e</text><text xml:space="preserve" font-family="Helvetica-Bold" font-weight="bold" font-size="26.0" fill="#FEFFFE" transform="matrix(1.00, 0.00, -0.00, -1.00, 365.0, 340.0)">r</text><text xml:space="preserve" font-family="Helvetica-Bold" font-weight="bold" font-size="26.0" fill="#FEFFFE" transform="matrix(1.00, 0.00, -0.00, -1.00, 375.1, 340.0)">i</text><text xml:space="preserve" font-family="Helvetica-Bold" font-weight="bold" font-size="26.0" fill="#FEFFFE" transform="matrix(1.00, 0.00, -0.00, -1.00, 382.3, 340.0)">c</text></g></g></g></g><g><clipPath id="clip-343"><path d="M 185.0 600.0 L 838.4 600.0 L 838.4 61.6 L 185.0 61.6 Z M 185.0 600.0 "></path></clipPath><g clip-path="url(#clip-343)"><g><clipPath id="clip-344"><path d="M 512.2 330.8 L 838.4 330.8 L 838.4 369.2 L 512.2 369.2 Z M 512.2 330.8 "></path></clipPath><g clip-path="url(#clip-344)"><text xml:space="preserve" font-family="Helvetica-Light" font-size="26.0" fill="#000000" transform="matrix(1.00, 0.00, -0.00, -1.00, 659.0, 340.0)">N</text><text xml:space="preserve" font-family="Helvetica-Light" font-size="26.0" fill="#000000" transform="matrix(1.00, 0.00, -0.00, -1.00, 677.8, 340.0)">o</text></g></g></g></g><g><clipPath id="clip-345"><path d="M 185.0 600.0 L 838.4 600.0 L 838.4 61.6 L 185.0 61.6 Z M 185.0 600.0 "></path></clipPath><g clip-path="url(#clip-345)"><g><clipPath id="clip-346"><path d="M 185.0 292.3 L 511.2 292.3 L 511.2 330.8 L 185.0 330.8 Z M 185.0 292.3 "></path></clipPath><g clip-path="url(#clip-346)"><text xml:space="preserve" font-family="Helvetica-Bold" font-weight="bold" font-size="26.0" fill="#FEFFFE" transform="matrix(1.00, 0.00, -0.00, -1.00, 277.0, 302.0)">A</text><text xml:space="preserve" font-family="Helvetica-Bold" font-weight="bold" font-size="26.0" fill="#FEFFFE" transform="matrix(1.00, 0.00, -0.00, -1.00, 295.8, 302.0)">g</text><text xml:space="preserve" font-family="Helvetica-Bold" font-weight="bold" font-size="26.0" fill="#FEFFFE" transform="matrix(1.00, 0.00, -0.00, -1.00, 311.7, 302.0)">g</text><text xml:space="preserve" font-family="Helvetica-Bold" font-weight="bold" font-size="26.0" fill="#FEFFFE" transform="matrix(1.00, 0.00, -0.00, -1.00, 327.6, 302.0)">r</text><text xml:space="preserve" font-family="Helvetica-Bold" font-weight="bold" font-size="26.0" fill="#FEFFFE" transform="matrix(1.00, 0.00, -0.00, -1.00, 337.7, 302.0)">e</text><text xml:space="preserve" font-family="Helvetica-Bold" font-weight="bold" font-size="26.0" fill="#FEFFFE" transform="matrix(1.00, 0.00, -0.00, -1.00, 352.1, 302.0)">g</text><text xml:space="preserve" font-family="Helvetica-Bold" font-weight="bold" font-size="26.0" fill="#FEFFFE" transform="matrix(1.00, 0.00, -0.00, -1.00, 368.0, 302.0)">a</text><text xml:space="preserve" font-family="Helvetica-Bold" font-weight="bold" font-size="26.0" fill="#FEFFFE" transform="matrix(1.00, 0.00, -0.00, -1.00, 382.5, 302.0)">b</text><text xml:space="preserve" font-family="Helvetica-Bold" font-weight="bold" font-size="26.0" fill="#FEFFFE" transform="matrix(1.00, 0.00, -0.00, -1.00, 398.4, 302.0)">l</text><text xml:space="preserve" font-family="Helvetica-Bold" font-weight="bold" font-size="26.0" fill="#FEFFFE" transform="matrix(1.00, 0.00, -0.00, -1.00, 405.6, 302.0)">e</text></g></g></g></g><g><clipPath id="clip-347"><path d="M 185.0 600.0 L 838.4 600.0 L 838.4 61.6 L 185.0 61.6 Z M 185.0 600.0 "></path></clipPath><g clip-path="url(#clip-347)"><g><clipPath id="clip-348"><path d="M 512.2 292.3 L 838.4 292.3 L 838.4 330.8 L 512.2 330.8 Z M 512.2 292.3 "></path></clipPath><g clip-path="url(#clip-348)"><text xml:space="preserve" font-family="Helvetica-Light" font-size="26.0" fill="#000000" transform="matrix(1.00, 0.00, -0.00, -1.00, 655.0, 302.0)">Y</text><text xml:space="preserve" font-family="Helvetica-Light" font-size="26.0" fill="#000000" transform="matrix(1.00, 0.00, -0.00, -1.00, 668.5, 302.0)">e</text><text xml:space="preserve" font-family="Helvetica-Light" font-size="26.0" fill="#000000" transform="matrix(1.00, 0.00, -0.00, -1.00, 683.0, 302.0)">s</text></g></g></g></g><g><clipPath id="clip-349"><path d="M 185.0 600.0 L 838.4 600.0 L 838.4 61.6 L 185.0 61.6 Z M 185.0 600.0 "></path></clipPath><g clip-path="url(#clip-349)"><g><clipPath id="clip-350"><path d="M 185.0 253.9 L 511.2 253.9 L 511.2 292.3 L 185.0 292.3 Z M 185.0 253.9 "></path></clipPath><g clip-path="url(#clip-350)"><text xml:space="preserve" font-family="Helvetica-Bold" font-weight="bold" font-size="26.0" fill="#FEFFFE" transform="matrix(1.00, 0.00, -0.00, -1.00, 275.0, 263.0)">C</text><text xml:space="preserve" font-family="Helvetica-Bold" font-weight="bold" font-size="26.0" fill="#FEFFFE" transform="matrix(1.00, 0.00, -0.00, -1.00, 293.8, 263.0)">o</text><text xml:space="preserve" font-family="Helvetica-Bold" font-weight="bold" font-size="26.0" fill="#FEFFFE" transform="matrix(1.00, 0.00, -0.00, -1.00, 309.7, 263.0)">n</text><text xml:space="preserve" font-family="Helvetica-Bold" font-weight="bold" font-size="26.0" fill="#FEFFFE" transform="matrix(1.00, 0.00, -0.00, -1.00, 325.6, 263.0)">v</text><text xml:space="preserve" font-family="Helvetica-Bold" font-weight="bold" font-size="26.0" fill="#FEFFFE" transform="matrix(1.00, 0.00, -0.00, -1.00, 340.0, 263.0)">e</text><text xml:space="preserve" font-family="Helvetica-Bold" font-weight="bold" font-size="26.0" fill="#FEFFFE" transform="matrix(1.00, 0.00, -0.00, -1.00, 354.5, 263.0)">y</text><text xml:space="preserve" font-family="Helvetica-Bold" font-weight="bold" font-size="26.0" fill="#FEFFFE" transform="matrix(1.00, 0.00, -0.00, -1.00, 369.0, 263.0)">a</text><text xml:space="preserve" font-family="Helvetica-Bold" font-weight="bold" font-size="26.0" fill="#FEFFFE" transform="matrix(1.00, 0.00, -0.00, -1.00, 383.4, 263.0)">b</text><text xml:space="preserve" font-family="Helvetica-Bold" font-weight="bold" font-size="26.0" fill="#FEFFFE" transform="matrix(1.00, 0.00, -0.00, -1.00, 399.3, 263.0)">l</text><text xml:space="preserve" font-family="Helvetica-Bold" font-weight="bold" font-size="26.0" fill="#FEFFFE" transform="matrix(1.00, 0.00, -0.00, -1.00, 406.5, 263.0)">e</text></g></g></g></g><g><clipPath id="clip-351"><path d="M 185.0 600.0 L 838.4 600.0 L 838.4 61.6 L 185.0 61.6 Z M 185.0 600.0 "></path></clipPath><g clip-path="url(#clip-351)"><g><clipPath id="clip-352"><path d="M 512.2 253.9 L 838.4 253.9 L 838.4 292.3 L 512.2 292.3 Z M 512.2 253.9 "></path></clipPath><g clip-path="url(#clip-352)"><text xml:space="preserve" font-family="Helvetica-Light" font-size="26.0" fill="#000000" transform="matrix(1.00, 0.00, -0.00, -1.00, 655.0, 263.0)">Y</text><text xml:space="preserve" font-family="Helvetica-Light" font-size="26.0" fill="#000000" transform="matrix(1.00, 0.00, -0.00, -1.00, 668.5, 263.0)">e</text><text xml:space="preserve" font-family="Helvetica-Light" font-size="26.0" fill="#000000" transform="matrix(1.00, 0.00, -0.00, -1.00, 683.0, 263.0)">s</text></g></g></g></g><g><clipPath id="clip-353"><path d="M 185.0 600.0 L 838.4 600.0 L 838.4 61.6 L 185.0 61.6 Z M 185.0 600.0 "></path></clipPath><g clip-path="url(#clip-353)"><g><clipPath id="clip-354"><path d="M 185.0 215.4 L 511.2 215.4 L 511.2 253.9 L 185.0 253.9 Z M 185.0 215.4 "></path></clipPath><g clip-path="url(#clip-354)"><text xml:space="preserve" font-family="Helvetica-Bold" font-weight="bold" font-size="26.0" fill="#FEFFFE" transform="matrix(1.00, 0.00, -0.00, -1.00, 276.0, 225.0)">P</text><text xml:space="preserve" font-family="Helvetica-Bold" font-weight="bold" font-size="26.0" fill="#FEFFFE" transform="matrix(1.00, 0.00, -0.00, -1.00, 293.3, 225.0)">e</text><text xml:space="preserve" font-family="Helvetica-Bold" font-weight="bold" font-size="26.0" fill="#FEFFFE" transform="matrix(1.00, 0.00, -0.00, -1.00, 307.8, 225.0)">r</text><text xml:space="preserve" font-family="Helvetica-Bold" font-weight="bold" font-size="26.0" fill="#FEFFFE" transform="matrix(1.00, 0.00, -0.00, -1.00, 317.9, 225.0)">c</text><text xml:space="preserve" font-family="Helvetica-Bold" font-weight="bold" font-size="26.0" fill="#FEFFFE" transform="matrix(1.00, 0.00, -0.00, -1.00, 332.4, 225.0)">e</text><text xml:space="preserve" font-family="Helvetica-Bold" font-weight="bold" font-size="26.0" fill="#FEFFFE" transform="matrix(1.00, 0.00, -0.00, -1.00, 346.9, 225.0)">i</text><text xml:space="preserve" font-family="Helvetica-Bold" font-weight="bold" font-size="26.0" fill="#FEFFFE" transform="matrix(1.00, 0.00, -0.00, -1.00, 354.1, 225.0)">v</text><text xml:space="preserve" font-family="Helvetica-Bold" font-weight="bold" font-size="26.0" fill="#FEFFFE" transform="matrix(1.00, 0.00, -0.00, -1.00, 368.5, 225.0)">a</text><text xml:space="preserve" font-family="Helvetica-Bold" font-weight="bold" font-size="26.0" fill="#FEFFFE" transform="matrix(1.00, 0.00, -0.00, -1.00, 383.0, 225.0)">b</text><text xml:space="preserve" font-family="Helvetica-Bold" font-weight="bold" font-size="26.0" fill="#FEFFFE" transform="matrix(1.00, 0.00, -0.00, -1.00, 398.9, 225.0)">l</text><text xml:space="preserve" font-family="Helvetica-Bold" font-weight="bold" font-size="26.0" fill="#FEFFFE" transform="matrix(1.00, 0.00, -0.00, -1.00, 406.1, 225.0)">e</text></g></g></g></g><g><clipPath id="clip-355"><path d="M 185.0 600.0 L 838.4 600.0 L 838.4 61.6 L 185.0 61.6 Z M 185.0 600.0 "></path></clipPath><g clip-path="url(#clip-355)"><g><clipPath id="clip-356"><path d="M 512.2 215.4 L 838.4 215.4 L 838.4 253.9 L 512.2 253.9 Z M 512.2 215.4 "></path></clipPath><g clip-path="url(#clip-356)"><text xml:space="preserve" font-family="Helvetica-Light" font-size="26.0" fill="#000000" transform="matrix(1.00, 0.00, -0.00, -1.00, 655.0, 225.0)">Y</text><text xml:space="preserve" font-family="Helvetica-Light" font-size="26.0" fill="#000000" transform="matrix(1.00, 0.00, -0.00, -1.00, 668.5, 225.0)">e</text><text xml:space="preserve" font-family="Helvetica-Light" font-size="26.0" fill="#000000" transform="matrix(1.00, 0.00, -0.00, -1.00, 683.0, 225.0)">s</text></g></g></g></g><g><clipPath id="clip-357"><path d="M 185.0 600.0 L 838.4 600.0 L 838.4 61.6 L 185.0 61.6 Z M 185.0 600.0 "></path></clipPath><g clip-path="url(#clip-357)"><g><clipPath id="clip-358"><path d="M 185.0 176.9 L 511.2 176.9 L 511.2 215.4 L 185.0 215.4 Z M 185.0 176.9 "></path></clipPath><g clip-path="url(#clip-358)"><text xml:space="preserve" font-family="Helvetica-Bold" font-weight="bold" font-size="26.0" fill="#FEFFFE" transform="matrix(1.00, 0.00, -0.00, -1.00, 255.0, 186.0)">R</text><text xml:space="preserve" font-family="Helvetica-Bold" font-weight="bold" font-size="26.0" fill="#FEFFFE" transform="matrix(1.00, 0.00, -0.00, -1.00, 273.8, 186.0)">e</text><text xml:space="preserve" font-family="Helvetica-Bold" font-weight="bold" font-size="26.0" fill="#FEFFFE" transform="matrix(1.00, 0.00, -0.00, -1.00, 288.2, 186.0)">m</text><text xml:space="preserve" font-family="Helvetica-Bold" font-weight="bold" font-size="26.0" fill="#FEFFFE" transform="matrix(1.00, 0.00, -0.00, -1.00, 311.4, 186.0)">e</text><text xml:space="preserve" font-family="Helvetica-Bold" font-weight="bold" font-size="26.0" fill="#FEFFFE" transform="matrix(1.00, 0.00, -0.00, -1.00, 325.8, 186.0)">m</text><text xml:space="preserve" font-family="Helvetica-Bold" font-weight="bold" font-size="26.0" fill="#FEFFFE" transform="matrix(1.00, 0.00, -0.00, -1.00, 349.0, 186.0)">b</text><text xml:space="preserve" font-family="Helvetica-Bold" font-weight="bold" font-size="26.0" fill="#FEFFFE" transform="matrix(1.00, 0.00, -0.00, -1.00, 364.8, 186.0)">e</text><text xml:space="preserve" font-family="Helvetica-Bold" font-weight="bold" font-size="26.0" fill="#FEFFFE" transform="matrix(1.00, 0.00, -0.00, -1.00, 379.3, 186.0)">r</text><text xml:space="preserve" font-family="Helvetica-Bold" font-weight="bold" font-size="26.0" fill="#FEFFFE" transform="matrix(1.00, 0.00, -0.00, -1.00, 389.4, 186.0)">a</text><text xml:space="preserve" font-family="Helvetica-Bold" font-weight="bold" font-size="26.0" fill="#FEFFFE" transform="matrix(1.00, 0.00, -0.00, -1.00, 403.9, 186.0)">b</text><text xml:space="preserve" font-family="Helvetica-Bold" font-weight="bold" font-size="26.0" fill="#FEFFFE" transform="matrix(1.00, 0.00, -0.00, -1.00, 419.8, 186.0)">l</text><text xml:space="preserve" font-family="Helvetica-Bold" font-weight="bold" font-size="26.0" fill="#FEFFFE" transform="matrix(1.00, 0.00, -0.00, -1.00, 427.0, 186.0)">e</text></g></g></g></g><g><clipPath id="clip-359"><path d="M 185.0 600.0 L 838.4 600.0 L 838.4 61.6 L 185.0 61.6 Z M 185.0 600.0 "></path></clipPath><g clip-path="url(#clip-359)"><g><clipPath id="clip-360"><path d="M 512.2 176.9 L 838.4 176.9 L 838.4 215.4 L 512.2 215.4 Z M 512.2 176.9 "></path></clipPath><g clip-path="url(#clip-360)"><text xml:space="preserve" font-family="Helvetica-Light" font-size="26.0" fill="#000000" transform="matrix(1.00, 0.00, -0.00, -1.00, 655.0, 186.0)">Y</text><text xml:space="preserve" font-family="Helvetica-Light" font-size="26.0" fill="#000000" transform="matrix(1.00, 0.00, -0.00, -1.00, 668.5, 186.0)">e</text><text xml:space="preserve" font-family="Helvetica-Light" font-size="26.0" fill="#000000" transform="matrix(1.00, 0.00, -0.00, -1.00, 683.0, 186.0)">s</text></g></g></g></g><g><clipPath id="clip-361"><path d="M 185.0 600.0 L 838.4 600.0 L 838.4 61.6 L 185.0 61.6 Z M 185.0 600.0 "></path></clipPath><g clip-path="url(#clip-361)"><g><clipPath id="clip-362"><path d="M 185.0 138.5 L 511.2 138.5 L 511.2 176.9 L 185.0 176.9 Z M 185.0 138.5 "></path></clipPath><g clip-path="url(#clip-362)"><text xml:space="preserve" font-family="Helvetica-Bold" font-weight="bold" font-size="26.0" fill="#FEFFFE" transform="matrix(1.00, 0.00, -0.00, -1.00, 287.0, 148.0)">I</text><text xml:space="preserve" font-family="Helvetica-Bold" font-weight="bold" font-size="26.0" fill="#FEFFFE" transform="matrix(1.00, 0.00, -0.00, -1.00, 294.2, 148.0)">n</text><text xml:space="preserve" font-family="Helvetica-Bold" font-weight="bold" font-size="26.0" fill="#FEFFFE" transform="matrix(1.00, 0.00, -0.00, -1.00, 310.1, 148.0)">t</text><text xml:space="preserve" font-family="Helvetica-Bold" font-weight="bold" font-size="26.0" fill="#FEFFFE" transform="matrix(1.00, 0.00, -0.00, -1.00, 318.8, 148.0)">e</text><text xml:space="preserve" font-family="Helvetica-Bold" font-weight="bold" font-size="26.0" fill="#FEFFFE" transform="matrix(1.00, 0.00, -0.00, -1.00, 333.2, 148.0)">r</text><text xml:space="preserve" font-family="Helvetica-Bold" font-weight="bold" font-size="26.0" fill="#FEFFFE" transform="matrix(1.00, 0.00, -0.00, -1.00, 343.3, 148.0)">f</text><text xml:space="preserve" font-family="Helvetica-Bold" font-weight="bold" font-size="26.0" fill="#FEFFFE" transform="matrix(1.00, 0.00, -0.00, -1.00, 352.0, 148.0)">a</text><text xml:space="preserve" font-family="Helvetica-Bold" font-weight="bold" font-size="26.0" fill="#FEFFFE" transform="matrix(1.00, 0.00, -0.00, -1.00, 366.5, 148.0)">c</text><text xml:space="preserve" font-family="Helvetica-Bold" font-weight="bold" font-size="26.0" fill="#FEFFFE" transform="matrix(1.00, 0.00, -0.00, -1.00, 380.9, 148.0)">e</text><text xml:space="preserve" font-family="Helvetica-Bold" font-weight="bold" font-size="26.0" fill="#FEFFFE" transform="matrix(1.00, 0.00, -0.00, -1.00, 395.4, 148.0)">s</text></g></g></g></g><g><clipPath id="clip-363"><path d="M 185.0 600.0 L 838.4 600.0 L 838.4 61.6 L 185.0 61.6 Z M 185.0 600.0 "></path></clipPath><g clip-path="url(#clip-363)"><g><clipPath id="clip-364"><path d="M 512.2 138.5 L 838.4 138.5 L 838.4 176.9 L 512.2 176.9 Z M 512.2 138.5 "></path></clipPath><g clip-path="url(#clip-364)"><text xml:space="preserve" font-family="Helvetica-Light" font-size="26.0" fill="#000000" transform="matrix(1.00, 0.00, -0.00, -1.00, 659.0, 148.0)">N</text><text xml:space="preserve" font-family="Helvetica-Light" font-size="26.0" fill="#000000" transform="matrix(1.00, 0.00, -0.00, -1.00, 677.8, 148.0)">o</text></g></g></g></g><g><clipPath id="clip-365"><path d="M 185.0 600.0 L 838.4 600.0 L 838.4 61.6 L 185.0 61.6 Z M 185.0 600.0 "></path></clipPath><g clip-path="url(#clip-365)"><g><clipPath id="clip-366"><path d="M 185.0 100.0 L 511.2 100.0 L 511.2 138.5 L 185.0 138.5 Z M 185.0 100.0 "></path></clipPath><g clip-path="url(#clip-366)"><text xml:space="preserve" font-family="Helvetica-Bold" font-weight="bold" font-size="26.0" fill="#FEFFFE" transform="matrix(1.00, 0.00, -0.00, -1.00, 272.0, 109.0)">C</text><text xml:space="preserve" font-family="Helvetica-Bold" font-weight="bold" font-size="26.0" fill="#FEFFFE" transform="matrix(1.00, 0.00, -0.00, -1.00, 290.8, 109.0)">o</text><text xml:space="preserve" font-family="Helvetica-Bold" font-weight="bold" font-size="26.0" fill="#FEFFFE" transform="matrix(1.00, 0.00, -0.00, -1.00, 306.7, 109.0)">o</text><text xml:space="preserve" font-family="Helvetica-Bold" font-weight="bold" font-size="26.0" fill="#FEFFFE" transform="matrix(1.00, 0.00, -0.00, -1.00, 322.5, 109.0)">r</text><text xml:space="preserve" font-family="Helvetica-Bold" font-weight="bold" font-size="26.0" fill="#FEFFFE" transform="matrix(1.00, 0.00, -0.00, -1.00, 332.7, 109.0)">d</text><text xml:space="preserve" font-family="Helvetica-Bold" font-weight="bold" font-size="26.0" fill="#FEFFFE" transform="matrix(1.00, 0.00, -0.00, -1.00, 348.5, 109.0)">i</text><text xml:space="preserve" font-family="Helvetica-Bold" font-weight="bold" font-size="26.0" fill="#FEFFFE" transform="matrix(1.00, 0.00, -0.00, -1.00, 355.8, 109.0)">n</text><text xml:space="preserve" font-family="Helvetica-Bold" font-weight="bold" font-size="26.0" fill="#FEFFFE" transform="matrix(1.00, 0.00, -0.00, -1.00, 371.6, 109.0)">a</text><text xml:space="preserve" font-family="Helvetica-Bold" font-weight="bold" font-size="26.0" fill="#FEFFFE" transform="matrix(1.00, 0.00, -0.00, -1.00, 386.1, 109.0)">t</text><text xml:space="preserve" font-family="Helvetica-Bold" font-weight="bold" font-size="26.0" fill="#FEFFFE" transform="matrix(1.00, 0.00, -0.00, -1.00, 394.8, 109.0)">e</text><text xml:space="preserve" font-family="Helvetica-Bold" font-weight="bold" font-size="26.0" fill="#FEFFFE" transform="matrix(1.00, 0.00, -0.00, -1.00, 409.2, 109.0)">d</text></g></g></g></g><g><clipPath id="clip-367"><path d="M 185.0 600.0 L 838.4 600.0 L 838.4 61.6 L 185.0 61.6 Z M 185.0 600.0 "></path></clipPath><g clip-path="url(#clip-367)"><g><clipPath id="clip-368"><path d="M 512.2 100.0 L 838.4 100.0 L 838.4 138.5 L 512.2 138.5 Z M 512.2 100.0 "></path></clipPath><g clip-path="url(#clip-368)"><text xml:space="preserve" font-family="Helvetica-Light" font-size="26.0" fill="#000000" transform="matrix(1.00, 0.00, -0.00, -1.00, 655.0, 109.0)">Y</text><text xml:space="preserve" font-family="Helvetica-Light" font-size="26.0" fill="#000000" transform="matrix(1.00, 0.00, -0.00, -1.00, 668.5, 109.0)">e</text><text xml:space="preserve" font-family="Helvetica-Light" font-size="26.0" fill="#000000" transform="matrix(1.00, 0.00, -0.00, -1.00, 683.0, 109.0)">s</text></g></g></g></g><g><clipPath id="clip-369"><path d="M 185.0 600.0 L 838.4 600.0 L 838.4 61.6 L 185.0 61.6 Z M 185.0 600.0 "></path></clipPath><g clip-path="url(#clip-369)"><g><clipPath id="clip-370"><path d="M 185.0 61.6 L 511.2 61.6 L 511.2 100.0 L 185.0 100.0 Z M 185.0 61.6 "></path></clipPath><g clip-path="url(#clip-370)"><text xml:space="preserve" font-family="Helvetica-Bold" font-weight="bold" font-size="26.0" fill="#FEFFFE" transform="matrix(1.00, 0.00, -0.00, -1.00, 296.0, 71.0)">M</text><text xml:space="preserve" font-family="Helvetica-Bold" font-weight="bold" font-size="26.0" fill="#FEFFFE" transform="matrix(1.00, 0.00, -0.00, -1.00, 317.7, 71.0)">o</text><text xml:space="preserve" font-family="Helvetica-Bold" font-weight="bold" font-size="26.0" fill="#FEFFFE" transform="matrix(1.00, 0.00, -0.00, -1.00, 333.5, 71.0)">v</text><text xml:space="preserve" font-family="Helvetica-Bold" font-weight="bold" font-size="26.0" fill="#FEFFFE" transform="matrix(1.00, 0.00, -0.00, -1.00, 348.0, 71.0)">a</text><text xml:space="preserve" font-family="Helvetica-Bold" font-weight="bold" font-size="26.0" fill="#FEFFFE" transform="matrix(1.00, 0.00, -0.00, -1.00, 362.5, 71.0)">b</text><text xml:space="preserve" font-family="Helvetica-Bold" font-weight="bold" font-size="26.0" fill="#FEFFFE" transform="matrix(1.00, 0.00, -0.00, -1.00, 378.3, 71.0)">l</text><text xml:space="preserve" font-family="Helvetica-Bold" font-weight="bold" font-size="26.0" fill="#FEFFFE" transform="matrix(1.00, 0.00, -0.00, -1.00, 385.6, 71.0)">e</text></g></g></g></g><g><clipPath id="clip-371"><path d="M 185.0 600.0 L 838.4 600.0 L 838.4 61.6 L 185.0 61.6 Z M 185.0 600.0 "></path></clipPath><g clip-path="url(#clip-371)"><g><clipPath id="clip-372"><path d="M 512.2 61.6 L 838.4 61.6 L 838.4 100.0 L 512.2 100.0 Z M 512.2 61.6 "></path></clipPath><g clip-path="url(#clip-372)"><text xml:space="preserve" font-family="Helvetica-Light" font-size="26.0" fill="#000000" transform="matrix(1.00, 0.00, -0.00, -1.00, 659.0, 71.0)">N</text><text xml:space="preserve" font-family="Helvetica-Light" font-size="26.0" fill="#000000" transform="matrix(1.00, 0.00, -0.00, -1.00, 677.8, 71.0)">o</text></g></g></g></g></g></svg>