<?xml version="1.0" encoding="UTF-8" standalone="no"?><svg xmlns="http://www.w3.org/2000/svg" xmlns:xlink="http://www.w3.org/1999/xlink" clip-rule="evenodd" stroke-miterlimit="4.00" viewBox="0 0 1024 768"><desc>SVG generated by Keynote</desc><defs></defs><g transform="matrix(1.00, 0.00, -0.00, -1.00, 0.0, 768.0)"><g><clipPath id="clip-227"><path d="M 0.0 768.0 L 1024.0 768.0 L 1024.0 0.0 L 0.0 0.0 Z M 0.0 768.0 "></path></clipPath><g clip-path="url(#clip-227)"><image xlink:href="../../39451CEE-E280-41CA-872D-216C9FC86FAF/assets/43DA95A1552523200D88D33196FD3A18.jpeg" width="1024.00" height="768.00" transform="matrix(1.00, 0.00, -0.00, -1.00, 0.0, 768.0)"></image></g></g><text xml:space="preserve" font-family="MarkerFelt-Thin" font-size="95.0" fill="#45A6DE" transform="matrix(1.00, 0.00, -0.00, -1.00, 292.0, 405.0)">I</text><text xml:space="preserve" font-family="MarkerFelt-Thin" font-size="95.0" fill="#45A6DE" transform="matrix(1.00, 0.00, -0.00, -1.00, 320.0, 405.0)">t</text><text xml:space="preserve" font-family="MarkerFelt-Thin" font-size="95.0" fill="#45A6DE" transform="matrix(1.00, 0.00, -0.00, -1.00, 356.2, 405.0)">e</text><text xml:space="preserve" font-family="MarkerFelt-Thin" font-size="95.0" fill="#45A6DE" transform="matrix(1.00, 0.00, -0.00, -1.00, 398.0, 405.0)">r</text><text xml:space="preserve" font-family="MarkerFelt-Thin" font-size="95.0" fill="#45A6DE" transform="matrix(1.00, 0.00, -0.00, -1.00, 436.9, 405.0)">a</text><text xml:space="preserve" font-family="MarkerFelt-Thin" font-size="95.0" fill="#45A6DE" transform="matrix(1.00, 0.00, -0.00, -1.00, 483.3, 405.0)">t</text><text xml:space="preserve" font-family="MarkerFelt-Thin" font-size="95.0" fill="#45A6DE" transform="matrix(1.00, 0.00, -0.00, -1.00, 524.1, 405.0)">i</text><text xml:space="preserve" font-family="MarkerFelt-Thin" font-size="95.0" fill="#45A6DE" transform="matrix(1.00, 0.00, -0.00, -1.00, 546.1, 405.0)">o</text><text xml:space="preserve" font-family="MarkerFelt-Thin" font-size="95.0" fill="#45A6DE" transform="matrix(1.00, 0.00, -0.00, -1.00, 589.2, 405.0)">n</text><text xml:space="preserve" font-family="MarkerFelt-Thin" font-size="95.0" fill="#45A6DE" transform="matrix(1.00, 0.00, -0.00, -1.00, 635.7, 405.0)"> </text><text xml:space="preserve" font-family="MarkerFelt-Thin" font-size="95.0" fill="#45A6DE" transform="matrix(1.00, 0.00, -0.00, -1.00, 659.5, 405.0)">3</text><text xml:space="preserve" font-family="MarkerFelt-Thin" font-size="95.0" fill="#45A6DE" transform="matrix(1.00, 0.00, -0.00, -1.00, 709.7, 405.0)">:</text><text xml:space="preserve" font-family="MarkerFelt-Thin" font-size="95.0" fill="#45A6DE" transform="matrix(1.00, 0.00, -0.00, -1.00, 731.6, 405.0)"> </text><text xml:space="preserve" font-family="MarkerFelt-Thin" font-size="95.0" fill="#45A6DE" transform="matrix(1.00, 0.00, -0.00, -1.00, 262.0, 302.0)">C</text><text xml:space="preserve" font-family="MarkerFelt-Thin" font-size="95.0" fill="#45A6DE" transform="matrix(1.00, 0.00, -0.00, -1.00, 308.8, 302.0)">l</text><text xml:space="preserve" font-family="MarkerFelt-Thin" font-size="95.0" fill="#45A6DE" transform="matrix(1.00, 0.00, -0.00, -1.00, 331.1, 302.0)">i</text><text xml:space="preserve" font-family="MarkerFelt-Thin" font-size="95.0" fill="#45A6DE" transform="matrix(1.00, 0.00, -0.00, -1.00, 352.0, 302.0)">e</text><text xml:space="preserve" font-family="MarkerFelt-Thin" font-size="95.0" fill="#45A6DE" transform="matrix(1.00, 0.00, -0.00, -1.00, 394.1, 302.0)">n</text><text xml:space="preserve" font-family="MarkerFelt-Thin" font-size="95.0" fill="#45A6DE" transform="matrix(1.00, 0.00, -0.00, -1.00, 446.2, 302.0)">t</text><text xml:space="preserve" font-family="MarkerFelt-Thin" font-size="95.0" fill="#45A6DE" transform="matrix(1.00, 0.00, -0.00, -1.00, 474.9, 302.0)">-</text><text xml:space="preserve" font-family="MarkerFelt-Thin" font-size="95.0" fill="#45A6DE" transform="matrix(1.00, 0.00, -0.00, -1.00, 504.1, 302.0)">S</text><text xml:space="preserve" font-family="MarkerFelt-Thin" font-size="95.0" fill="#45A6DE" transform="matrix(1.00, 0.00, -0.00, -1.00, 553.7, 302.0)">e</text><text xml:space="preserve" font-family="MarkerFelt-Thin" font-size="95.0" fill="#45A6DE" transform="matrix(1.00, 0.00, -0.00, -1.00, 595.5, 302.0)">r</text><text xml:space="preserve" font-family="MarkerFelt-Thin" font-size="95.0" fill="#45A6DE" transform="matrix(1.00, 0.00, -0.00, -1.00, 641.1, 302.0)">v</text><text xml:space="preserve" font-family="MarkerFelt-Thin" font-size="95.0" fill="#45A6DE" transform="matrix(1.00, 0.00, -0.00, -1.00, 684.9, 302.0)">e</text><text xml:space="preserve" font-family="MarkerFelt-Thin" font-size="95.0" fill="#45A6DE" transform="matrix(1.00, 0.00, -0.00, -1.00, 726.7, 302.0)">r</text></g></svg>