<?xml version="1.0" encoding="UTF-8" standalone="no"?><svg xmlns="http://www.w3.org/2000/svg" xmlns:xlink="http://www.w3.org/1999/xlink" clip-rule="evenodd" stroke-miterlimit="4.00" viewBox="0 0 1024 768"><desc>SVG generated by Keynote</desc><defs></defs><g transform="matrix(1.00, 0.00, -0.00, -1.00, 0.0, 768.0)"><path d="M 0.0 768.0 L 1024.0 768.0 L 1024.0 0.0 L 0.0 0.0 Z M 0.0 768.0 " fill="#FEFFFF"></path><text xml:space="preserve" font-family="Helvetica-Light" font-size="80.0" fill="#000000" transform="matrix(1.00, 0.00, -0.00, -1.00, 312.0, 551.0)">Q</text><text xml:space="preserve" font-family="Helvetica-Light" font-size="80.0" fill="#000000" transform="matrix(1.00, 0.00, -0.00, -1.00, 374.2, 551.0)">u</text><text xml:space="preserve" font-family="Helvetica-Light" font-size="80.0" fill="#000000" transform="matrix(1.00, 0.00, -0.00, -1.00, 418.7, 551.0)">e</text><text xml:space="preserve" font-family="Helvetica-Light" font-size="80.0" fill="#000000" transform="matrix(1.00, 0.00, -0.00, -1.00, 463.2, 551.0)">s</text><text xml:space="preserve" font-family="Helvetica-Light" font-size="80.0" fill="#000000" transform="matrix(1.00, 0.00, -0.00, -1.00, 503.2, 551.0)">t</text><text xml:space="preserve" font-family="Helvetica-Light" font-size="80.0" fill="#000000" transform="matrix(1.00, 0.00, -0.00, -1.00, 525.4, 551.0)">i</text><text xml:space="preserve" font-family="Helvetica-Light" font-size="80.0" fill="#000000" transform="matrix(1.00, 0.00, -0.00, -1.00, 543.2, 551.0)">o</text><text xml:space="preserve" font-family="Helvetica-Light" font-size="80.0" fill="#000000" transform="matrix(1.00, 0.00, -0.00, -1.00, 587.7, 551.0)">n</text><text xml:space="preserve" font-family="Helvetica-Light" font-size="80.0" fill="#000000" transform="matrix(1.00, 0.00, -0.00, -1.00, 632.2, 551.0)">s</text><text xml:space="preserve" font-family="Helvetica-Light" font-size="80.0" fill="#000000" transform="matrix(1.00, 0.00, -0.00, -1.00, 672.2, 551.0)">?</text><text xml:space="preserve" font-family="Helvetica-Light" font-size="27.0" fill="#000000" transform="matrix(1.00, 0.00, -0.00, -1.00, 79.0, 412.2)">•</text><text xml:space="preserve" font-family="Helvetica-Light" font-size="36.0" fill="#000000" transform="matrix(1.00, 0.00, -0.00, -1.00, 114.0, 409.0)">S</text><text xml:space="preserve" font-family="Helvetica-Light" font-size="36.0" fill="#000000" transform="matrix(1.00, 0.00, -0.00, -1.00, 136.0, 409.0)">l</text><text xml:space="preserve" font-family="Helvetica-Light" font-size="36.0" fill="#000000" transform="matrix(1.00, 0.00, -0.00, -1.00, 144.0, 409.0)">i</text><text xml:space="preserve" font-family="Helvetica-Light" font-size="36.0" fill="#000000" transform="matrix(1.00, 0.00, -0.00, -1.00, 152.0, 409.0)">d</text><text xml:space="preserve" font-family="Helvetica-Light" font-size="36.0" fill="#000000" transform="matrix(1.00, 0.00, -0.00, -1.00, 174.0, 409.0)">e</text><text xml:space="preserve" font-family="Helvetica-Light" font-size="36.0" fill="#000000" transform="matrix(1.00, 0.00, -0.00, -1.00, 194.0, 409.0)">s</text><text xml:space="preserve" font-family="Helvetica-Light" font-size="36.0" fill="#000000" transform="matrix(1.00, 0.00, -0.00, -1.00, 212.0, 409.0)">:</text><text xml:space="preserve" font-family="Helvetica-Light" font-size="36.0" fill="#000000" transform="matrix(1.00, 0.00, -0.00, -1.00, 222.0, 409.0)"> </text><text xml:space="preserve" font-family="Helvetica-Light" font-size="29.0" fill="#000000" transform="matrix(1.00, 0.00, -0.00, -1.00, 232.0, 409.0)">h</text><text xml:space="preserve" font-family="Helvetica-Light" font-size="29.0" fill="#000000" transform="matrix(1.00, 0.00, -0.00, -1.00, 248.1, 409.0)">t</text><text xml:space="preserve" font-family="Helvetica-Light" font-size="29.0" fill="#000000" transform="matrix(1.00, 0.00, -0.00, -1.00, 256.2, 409.0)">t</text><text xml:space="preserve" font-family="Helvetica-Light" font-size="29.0" fill="#000000" transform="matrix(1.00, 0.00, -0.00, -1.00, 264.3, 409.0)">p</text><text xml:space="preserve" font-family="Helvetica-Light" font-size="29.0" fill="#000000" transform="matrix(1.00, 0.00, -0.00, -1.00, 282.0, 409.0)">:</text><text xml:space="preserve" font-family="Helvetica-Light" font-size="29.0" fill="#000000" transform="matrix(1.00, 0.00, -0.00, -1.00, 290.0, 409.0)">/</text><text xml:space="preserve" font-family="Helvetica-Light" font-size="29.0" fill="#000000" transform="matrix(1.00, 0.00, -0.00, -1.00, 298.1, 409.0)">/</text><text xml:space="preserve" font-family="Helvetica-Light" font-size="29.0" fill="#000000" transform="matrix(1.00, 0.00, -0.00, -1.00, 306.2, 409.0)">m</text><text xml:space="preserve" font-family="Helvetica-Light" font-size="29.0" fill="#000000" transform="matrix(1.00, 0.00, -0.00, -1.00, 330.3, 409.0)">a</text><text xml:space="preserve" font-family="Helvetica-Light" font-size="29.0" fill="#000000" transform="matrix(1.00, 0.00, -0.00, -1.00, 346.4, 409.0)">r</text><text xml:space="preserve" font-family="Helvetica-Light" font-size="29.0" fill="#000000" transform="matrix(1.00, 0.00, -0.00, -1.00, 356.1, 409.0)">k</text><text xml:space="preserve" font-family="Helvetica-Light" font-size="29.0" fill="#000000" transform="matrix(1.00, 0.00, -0.00, -1.00, 370.6, 409.0)">b</text><text xml:space="preserve" font-family="Helvetica-Light" font-size="29.0" fill="#000000" transform="matrix(1.00, 0.00, -0.00, -1.00, 388.3, 409.0)">a</text><text xml:space="preserve" font-family="Helvetica-Light" font-size="29.0" fill="#000000" transform="matrix(1.00, 0.00, -0.00, -1.00, 404.4, 409.0)">s</text><text xml:space="preserve" font-family="Helvetica-Light" font-size="29.0" fill="#000000" transform="matrix(1.00, 0.00, -0.00, -1.00, 418.9, 409.0)">t</text><text xml:space="preserve" font-family="Helvetica-Light" font-size="29.0" fill="#000000" transform="matrix(1.00, 0.00, -0.00, -1.00, 427.0, 409.0)">i</text><text xml:space="preserve" font-family="Helvetica-Light" font-size="29.0" fill="#000000" transform="matrix(1.00, 0.00, -0.00, -1.00, 433.4, 409.0)">a</text><text xml:space="preserve" font-family="Helvetica-Light" font-size="29.0" fill="#000000" transform="matrix(1.00, 0.00, -0.00, -1.00, 449.6, 409.0)">n</text><text xml:space="preserve" font-family="Helvetica-Light" font-size="29.0" fill="#000000" transform="matrix(1.00, 0.00, -0.00, -1.00, 465.7, 409.0)">.</text><text xml:space="preserve" font-family="Helvetica-Light" font-size="29.0" fill="#000000" transform="matrix(1.00, 0.00, -0.00, -1.00, 473.8, 409.0)">g</text><text xml:space="preserve" font-family="Helvetica-Light" font-size="29.0" fill="#000000" transform="matrix(1.00, 0.00, -0.00, -1.00, 491.5, 409.0)">i</text><text xml:space="preserve" font-family="Helvetica-Light" font-size="29.0" fill="#000000" transform="matrix(1.00, 0.00, -0.00, -1.00, 497.9, 409.0)">t</text><text xml:space="preserve" font-family="Helvetica-Light" font-size="29.0" fill="#000000" transform="matrix(1.00, 0.00, -0.00, -1.00, 506.0, 409.0)">h</text><text xml:space="preserve" font-family="Helvetica-Light" font-size="29.0" fill="#000000" transform="matrix(1.00, 0.00, -0.00, -1.00, 522.1, 409.0)">u</text><text xml:space="preserve" font-family="Helvetica-Light" font-size="29.0" fill="#000000" transform="matrix(1.00, 0.00, -0.00, -1.00, 538.2, 409.0)">b</text><text xml:space="preserve" font-family="Helvetica-Light" font-size="29.0" fill="#000000" transform="matrix(1.00, 0.00, -0.00, -1.00, 555.9, 409.0)">.</text><text xml:space="preserve" font-family="Helvetica-Light" font-size="29.0" fill="#000000" transform="matrix(1.00, 0.00, -0.00, -1.00, 564.0, 409.0)">i</text><text xml:space="preserve" font-family="Helvetica-Light" font-size="29.0" fill="#000000" transform="matrix(1.00, 0.00, -0.00, -1.00, 570.4, 409.0)">o</text><text xml:space="preserve" font-family="Helvetica-Light" font-size="29.0" fill="#000000" transform="matrix(1.00, 0.00, -0.00, -1.00, 586.6, 409.0)">/</text><text xml:space="preserve" font-family="Helvetica-Light" font-size="29.0" fill="#000000" transform="matrix(1.00, 0.00, -0.00, -1.00, 594.6, 409.0)">a</text><text xml:space="preserve" font-family="Helvetica-Light" font-size="29.0" fill="#000000" transform="matrix(1.00, 0.00, -0.00, -1.00, 610.7, 409.0)">w</text><text xml:space="preserve" font-family="Helvetica-Light" font-size="29.0" fill="#000000" transform="matrix(1.00, 0.00, -0.00, -1.00, 631.7, 409.0)">e</text><text xml:space="preserve" font-family="Helvetica-Light" font-size="29.0" fill="#000000" transform="matrix(1.00, 0.00, -0.00, -1.00, 647.8, 409.0)">s</text><text xml:space="preserve" font-family="Helvetica-Light" font-size="29.0" fill="#000000" transform="matrix(1.00, 0.00, -0.00, -1.00, 662.3, 409.0)">o</text><text xml:space="preserve" font-family="Helvetica-Light" font-size="29.0" fill="#000000" transform="matrix(1.00, 0.00, -0.00, -1.00, 678.4, 409.0)">m</text><text xml:space="preserve" font-family="Helvetica-Light" font-size="29.0" fill="#000000" transform="matrix(1.00, 0.00, -0.00, -1.00, 702.6, 409.0)">e</text><text xml:space="preserve" font-family="Helvetica-Light" font-size="29.0" fill="#000000" transform="matrix(1.00, 0.00, -0.00, -1.00, 718.7, 409.0)">/</text><text xml:space="preserve" font-family="Helvetica-Light" font-size="29.0" fill="#000000" transform="matrix(1.00, 0.00, -0.00, -1.00, 726.8, 409.0)">a</text><text xml:space="preserve" font-family="Helvetica-Light" font-size="29.0" fill="#000000" transform="matrix(1.00, 0.00, -0.00, -1.00, 742.9, 409.0)">w</text><text xml:space="preserve" font-family="Helvetica-Light" font-size="29.0" fill="#000000" transform="matrix(1.00, 0.00, -0.00, -1.00, 763.8, 409.0)">e</text><text xml:space="preserve" font-family="Helvetica-Light" font-size="29.0" fill="#000000" transform="matrix(1.00, 0.00, -0.00, -1.00, 780.0, 409.0)">s</text><text xml:space="preserve" font-family="Helvetica-Light" font-size="29.0" fill="#000000" transform="matrix(1.00, 0.00, -0.00, -1.00, 794.5, 409.0)">o</text><text xml:space="preserve" font-family="Helvetica-Light" font-size="29.0" fill="#000000" transform="matrix(1.00, 0.00, -0.00, -1.00, 810.6, 409.0)">m</text><text xml:space="preserve" font-family="Helvetica-Light" font-size="29.0" fill="#000000" transform="matrix(1.00, 0.00, -0.00, -1.00, 834.7, 409.0)">e</text><text xml:space="preserve" font-family="Helvetica-Light" font-size="29.0" fill="#000000" transform="matrix(1.00, 0.00, -0.00, -1.00, 850.9, 409.0)">.</text><text xml:space="preserve" font-family="Helvetica-Light" font-size="29.0" fill="#000000" transform="matrix(1.00, 0.00, -0.00, -1.00, 858.9, 409.0)">h</text><text xml:space="preserve" font-family="Helvetica-Light" font-size="29.0" fill="#000000" transform="matrix(1.00, 0.00, -0.00, -1.00, 875.1, 409.0)">t</text><text xml:space="preserve" font-family="Helvetica-Light" font-size="29.0" fill="#000000" transform="matrix(1.00, 0.00, -0.00, -1.00, 883.1, 409.0)">m</text><text xml:space="preserve" font-family="Helvetica-Light" font-size="29.0" fill="#000000" transform="matrix(1.00, 0.00, -0.00, -1.00, 907.3, 409.0)">l</text><text xml:space="preserve" font-family="Helvetica-Light" font-size="29.0" fill="#000000" transform="matrix(1.00, 0.00, -0.00, -1.00, 913.7, 409.0)">#</text><text xml:space="preserve" font-family="Helvetica-Light" font-size="29.0" fill="#000000" transform="matrix(1.00, 0.00, -0.00, -1.00, 929.8, 409.0)">/</text><text xml:space="preserve" font-family="Helvetica-Light" font-size="36.0" fill="#000000" transform="matrix(1.00, 0.00, -0.00, -1.00, 937.9, 409.0)"> </text><g><clipPath id="clip-118"><path d="M 231.0 404.9 L 937.9 404.9 L 937.9 408.3 L 231.0 408.3 Z M 231.0 404.9 "></path></clipPath><g clip-path="url(#clip-118)"><path d="M 157.0 139.9 L 862.9 139.9 " fill="none" stroke="#000000" stroke-width="1.45" stroke-miterlimit="0.00" transform="matrix(1.00, 0.00, 0.00, -1.00, 75.0, 546.5)"></path></g></g><text xml:space="preserve" font-family="Helvetica-Light" font-size="27.0" fill="#000000" transform="matrix(1.00, 0.00, -0.00, -1.00, 79.0, 327.2)">•</text><text xml:space="preserve" font-family="Helvetica-Light" font-size="36.0" fill="#000000" transform="matrix(1.00, 0.00, -0.00, -1.00, 114.0, 324.0)">C</text><text xml:space="preserve" font-family="Helvetica-Light" font-size="36.0" fill="#000000" transform="matrix(1.00, 0.00, -0.00, -1.00, 140.0, 324.0)">o</text><text xml:space="preserve" font-family="Helvetica-Light" font-size="36.0" fill="#000000" transform="matrix(1.00, 0.00, -0.00, -1.00, 160.0, 324.0)">d</text><text xml:space="preserve" font-family="Helvetica-Light" font-size="36.0" fill="#000000" transform="matrix(1.00, 0.00, -0.00, -1.00, 182.0, 324.0)">e</text><text xml:space="preserve" font-family="Helvetica-Light" font-size="36.0" fill="#000000" transform="matrix(1.00, 0.00, -0.00, -1.00, 202.0, 324.0)">:</text><text xml:space="preserve" font-family="Helvetica-Light" font-size="36.0" fill="#000000" transform="matrix(1.00, 0.00, -0.00, -1.00, 212.0, 324.0)"> </text><text xml:space="preserve" font-family="Helvetica-Light" font-size="29.0" fill="#000000" transform="matrix(1.00, 0.00, -0.00, -1.00, 222.0, 324.0)">h</text><text xml:space="preserve" font-family="Helvetica-Light" font-size="29.0" fill="#000000" transform="matrix(1.00, 0.00, -0.00, -1.00, 238.2, 324.0)">t</text><text xml:space="preserve" font-family="Helvetica-Light" font-size="29.0" fill="#000000" transform="matrix(1.00, 0.00, -0.00, -1.00, 246.2, 324.0)">t</text><text xml:space="preserve" font-family="Helvetica-Light" font-size="29.0" fill="#000000" transform="matrix(1.00, 0.00, -0.00, -1.00, 254.3, 324.0)">p</text><text xml:space="preserve" font-family="Helvetica-Light" font-size="29.0" fill="#000000" transform="matrix(1.00, 0.00, -0.00, -1.00, 272.0, 324.0)">s</text><text xml:space="preserve" font-family="Helvetica-Light" font-size="29.0" fill="#000000" transform="matrix(1.00, 0.00, -0.00, -1.00, 286.5, 324.0)">:</text><text xml:space="preserve" font-family="Helvetica-Light" font-size="29.0" fill="#000000" transform="matrix(1.00, 0.00, -0.00, -1.00, 294.6, 324.0)">/</text><text xml:space="preserve" font-family="Helvetica-Light" font-size="29.0" fill="#000000" transform="matrix(1.00, 0.00, -0.00, -1.00, 302.6, 324.0)">/</text><text xml:space="preserve" font-family="Helvetica-Light" font-size="29.0" fill="#000000" transform="matrix(1.00, 0.00, -0.00, -1.00, 310.7, 324.0)">g</text><text xml:space="preserve" font-family="Helvetica-Light" font-size="29.0" fill="#000000" transform="matrix(1.00, 0.00, -0.00, -1.00, 328.4, 324.0)">i</text><text xml:space="preserve" font-family="Helvetica-Light" font-size="29.0" fill="#000000" transform="matrix(1.00, 0.00, -0.00, -1.00, 334.8, 324.0)">t</text><text xml:space="preserve" font-family="Helvetica-Light" font-size="29.0" fill="#000000" transform="matrix(1.00, 0.00, -0.00, -1.00, 342.9, 324.0)">h</text><text xml:space="preserve" font-family="Helvetica-Light" font-size="29.0" fill="#000000" transform="matrix(1.00, 0.00, -0.00, -1.00, 359.0, 324.0)">u</text><text xml:space="preserve" font-family="Helvetica-Light" font-size="29.0" fill="#000000" transform="matrix(1.00, 0.00, -0.00, -1.00, 375.2, 324.0)">b</text><text xml:space="preserve" font-family="Helvetica-Light" font-size="29.0" fill="#000000" transform="matrix(1.00, 0.00, -0.00, -1.00, 392.9, 324.0)">.</text><text xml:space="preserve" font-family="Helvetica-Light" font-size="29.0" fill="#000000" transform="matrix(1.00, 0.00, -0.00, -1.00, 400.9, 324.0)">c</text><text xml:space="preserve" font-family="Helvetica-Light" font-size="29.0" fill="#000000" transform="matrix(1.00, 0.00, -0.00, -1.00, 417.1, 324.0)">o</text><text xml:space="preserve" font-family="Helvetica-Light" font-size="29.0" fill="#000000" transform="matrix(1.00, 0.00, -0.00, -1.00, 433.2, 324.0)">m</text><text xml:space="preserve" font-family="Helvetica-Light" font-size="29.0" fill="#000000" transform="matrix(1.00, 0.00, -0.00, -1.00, 457.3, 324.0)">/</text><text xml:space="preserve" font-family="Helvetica-Light" font-size="29.0" fill="#000000" transform="matrix(1.00, 0.00, -0.00, -1.00, 465.4, 324.0)">m</text><text xml:space="preserve" font-family="Helvetica-Light" font-size="29.0" fill="#000000" transform="matrix(1.00, 0.00, -0.00, -1.00, 489.6, 324.0)">a</text><text xml:space="preserve" font-family="Helvetica-Light" font-size="29.0" fill="#000000" transform="matrix(1.00, 0.00, -0.00, -1.00, 505.7, 324.0)">r</text><text xml:space="preserve" font-family="Helvetica-Light" font-size="29.0" fill="#000000" transform="matrix(1.00, 0.00, -0.00, -1.00, 515.3, 324.0)">k</text><text xml:space="preserve" font-family="Helvetica-Light" font-size="29.0" fill="#000000" transform="matrix(1.00, 0.00, -0.00, -1.00, 529.8, 324.0)">b</text><text xml:space="preserve" font-family="Helvetica-Light" font-size="29.0" fill="#000000" transform="matrix(1.00, 0.00, -0.00, -1.00, 547.6, 324.0)">a</text><text xml:space="preserve" font-family="Helvetica-Light" font-size="29.0" fill="#000000" transform="matrix(1.00, 0.00, -0.00, -1.00, 563.7, 324.0)">s</text><text xml:space="preserve" font-family="Helvetica-Light" font-size="29.0" fill="#000000" transform="matrix(1.00, 0.00, -0.00, -1.00, 578.2, 324.0)">t</text><text xml:space="preserve" font-family="Helvetica-Light" font-size="29.0" fill="#000000" transform="matrix(1.00, 0.00, -0.00, -1.00, 586.2, 324.0)">i</text><text xml:space="preserve" font-family="Helvetica-Light" font-size="29.0" fill="#000000" transform="matrix(1.00, 0.00, -0.00, -1.00, 592.7, 324.0)">a</text><text xml:space="preserve" font-family="Helvetica-Light" font-size="29.0" fill="#000000" transform="matrix(1.00, 0.00, -0.00, -1.00, 608.8, 324.0)">n</text><text xml:space="preserve" font-family="Helvetica-Light" font-size="29.0" fill="#000000" transform="matrix(1.00, 0.00, -0.00, -1.00, 624.9, 324.0)">/</text><text xml:space="preserve" font-family="Helvetica-Light" font-size="29.0" fill="#000000" transform="matrix(1.00, 0.00, -0.00, -1.00, 633.0, 324.0)">p</text><text xml:space="preserve" font-family="Helvetica-Light" font-size="29.0" fill="#000000" transform="matrix(1.00, 0.00, -0.00, -1.00, 650.7, 324.0)">i</text><text xml:space="preserve" font-family="Helvetica-Light" font-size="29.0" fill="#000000" transform="matrix(1.00, 0.00, -0.00, -1.00, 657.2, 324.0)">r</text><text xml:space="preserve" font-family="Helvetica-Light" font-size="29.0" fill="#000000" transform="matrix(1.00, 0.00, -0.00, -1.00, 666.8, 324.0)">a</text><text xml:space="preserve" font-family="Helvetica-Light" font-size="29.0" fill="#000000" transform="matrix(1.00, 0.00, -0.00, -1.00, 682.9, 324.0)">t</text><text xml:space="preserve" font-family="Helvetica-Light" font-size="29.0" fill="#000000" transform="matrix(1.00, 0.00, -0.00, -1.00, 691.0, 324.0)">e</text><text xml:space="preserve" font-family="Helvetica-Light" font-size="29.0" fill="#000000" transform="matrix(1.00, 0.00, -0.00, -1.00, 707.1, 324.0)">s</text><text xml:space="preserve" font-family="Helvetica-Light" font-size="36.0" fill="#000000" transform="matrix(1.00, 0.00, -0.00, -1.00, 721.6, 324.0)"> </text><g><clipPath id="clip-119"><path d="M 221.0 319.9 L 721.6 319.9 L 721.6 323.3 L 221.0 323.3 Z M 221.0 319.9 "></path></clipPath><g clip-path="url(#clip-119)"><path d="M 147.0 224.9 L 646.6 224.9 " fill="none" stroke="#000000" stroke-width="1.45" stroke-miterlimit="0.00" transform="matrix(1.00, 0.00, 0.00, -1.00, 75.0, 546.5)"></path></g></g><text xml:space="preserve" font-family="Helvetica-Light" font-size="32.0" fill="#000000" transform="matrix(1.00, 0.00, -0.00, -1.00, 403.0, 200.0)">@</text><text xml:space="preserve" font-family="Helvetica-Light" font-size="32.0" fill="#000000" transform="matrix(1.00, 0.00, -0.00, -1.00, 428.6, 200.0)">m</text><text xml:space="preserve" font-family="Helvetica-Light" font-size="32.0" fill="#000000" transform="matrix(1.00, 0.00, -0.00, -1.00, 455.3, 200.0)">a</text><text xml:space="preserve" font-family="Helvetica-Light" font-size="32.0" fill="#000000" transform="matrix(1.00, 0.00, -0.00, -1.00, 473.0, 200.0)">r</text><text xml:space="preserve" font-family="Helvetica-Light" font-size="32.0" fill="#000000" transform="matrix(1.00, 0.00, -0.00, -1.00, 483.7, 200.0)">k</text><text xml:space="preserve" font-family="Helvetica-Light" font-size="32.0" fill="#000000" transform="matrix(1.00, 0.00, -0.00, -1.00, 499.7, 200.0)">_</text><text xml:space="preserve" font-family="Helvetica-Light" font-size="32.0" fill="#000000" transform="matrix(1.00, 0.00, -0.00, -1.00, 515.7, 200.0)">b</text><text xml:space="preserve" font-family="Helvetica-Light" font-size="32.0" fill="#000000" transform="matrix(1.00, 0.00, -0.00, -1.00, 535.3, 200.0)">a</text><text xml:space="preserve" font-family="Helvetica-Light" font-size="32.0" fill="#000000" transform="matrix(1.00, 0.00, -0.00, -1.00, 553.0, 200.0)">s</text><text xml:space="preserve" font-family="Helvetica-Light" font-size="32.0" fill="#000000" transform="matrix(1.00, 0.00, -0.00, -1.00, 569.0, 200.0)">t</text><text xml:space="preserve" font-family="Helvetica-Light" font-size="32.0" fill="#000000" transform="matrix(1.00, 0.00, -0.00, -1.00, 577.9, 200.0)">i</text><text xml:space="preserve" font-family="Helvetica-Light" font-size="32.0" fill="#000000" transform="matrix(1.00, 0.00, -0.00, -1.00, 585.0, 200.0)">a</text><text xml:space="preserve" font-family="Helvetica-Light" font-size="32.0" fill="#000000" transform="matrix(1.00, 0.00, -0.00, -1.00, 602.8, 200.0)">n</text><text xml:space="preserve" font-family="Helvetica-Light" font-size="32.0" fill="#000000" transform="matrix(1.00, 0.00, -0.00, -1.00, 620.6, 200.0)"> </text><text xml:space="preserve" font-family="Helvetica-Light" font-size="32.0" fill="#000000" transform="matrix(1.00, 0.00, -0.00, -1.00, 313.0, 162.0)">h</text><text xml:space="preserve" font-family="Helvetica-Light" font-size="32.0" fill="#000000" transform="matrix(1.00, 0.00, -0.00, -1.00, 330.8, 162.0)">t</text><text xml:space="preserve" font-family="Helvetica-Light" font-size="32.0" fill="#000000" transform="matrix(1.00, 0.00, -0.00, -1.00, 339.7, 162.0)">t</text><text xml:space="preserve" font-family="Helvetica-Light" font-size="32.0" fill="#000000" transform="matrix(1.00, 0.00, -0.00, -1.00, 348.6, 162.0)">p</text><text xml:space="preserve" font-family="Helvetica-Light" font-size="32.0" fill="#000000" transform="matrix(1.00, 0.00, -0.00, -1.00, 368.1, 162.0)">:</text><text xml:space="preserve" font-family="Helvetica-Light" font-size="32.0" fill="#000000" transform="matrix(1.00, 0.00, -0.00, -1.00, 377.0, 162.0)">/</text><text xml:space="preserve" font-family="Helvetica-Light" font-size="32.0" fill="#000000" transform="matrix(1.00, 0.00, -0.00, -1.00, 385.9, 162.0)">/</text><text xml:space="preserve" font-family="Helvetica-Light" font-size="32.0" fill="#000000" transform="matrix(1.00, 0.00, -0.00, -1.00, 394.8, 162.0)">f</text><text xml:space="preserve" font-family="Helvetica-Light" font-size="32.0" fill="#000000" transform="matrix(1.00, 0.00, -0.00, -1.00, 403.7, 162.0)">n</text><text xml:space="preserve" font-family="Helvetica-Light" font-size="32.0" fill="#000000" transform="matrix(1.00, 0.00, -0.00, -1.00, 421.5, 162.0)">-</text><text xml:space="preserve" font-family="Helvetica-Light" font-size="32.0" fill="#000000" transform="matrix(1.00, 0.00, -0.00, -1.00, 432.2, 162.0)">c</text><text xml:space="preserve" font-family="Helvetica-Light" font-size="32.0" fill="#000000" transform="matrix(1.00, 0.00, -0.00, -1.00, 450.0, 162.0)">o</text><text xml:space="preserve" font-family="Helvetica-Light" font-size="32.0" fill="#000000" transform="matrix(1.00, 0.00, -0.00, -1.00, 467.8, 162.0)">d</text><text xml:space="preserve" font-family="Helvetica-Light" font-size="32.0" fill="#000000" transform="matrix(1.00, 0.00, -0.00, -1.00, 487.3, 162.0)">e</text><text xml:space="preserve" font-family="Helvetica-Light" font-size="32.0" fill="#000000" transform="matrix(1.00, 0.00, -0.00, -1.00, 505.1, 162.0)">.</text><text xml:space="preserve" font-family="Helvetica-Light" font-size="32.0" fill="#000000" transform="matrix(1.00, 0.00, -0.00, -1.00, 514.0, 162.0)">b</text><text xml:space="preserve" font-family="Helvetica-Light" font-size="32.0" fill="#000000" transform="matrix(1.00, 0.00, -0.00, -1.00, 533.5, 162.0)">l</text><text xml:space="preserve" font-family="Helvetica-Light" font-size="32.0" fill="#000000" transform="matrix(1.00, 0.00, -0.00, -1.00, 540.6, 162.0)">o</text><text xml:space="preserve" font-family="Helvetica-Light" font-size="32.0" fill="#000000" transform="matrix(1.00, 0.00, -0.00, -1.00, 558.4, 162.0)">g</text><text xml:space="preserve" font-family="Helvetica-Light" font-size="32.0" fill="#000000" transform="matrix(1.00, 0.00, -0.00, -1.00, 578.0, 162.0)">s</text><text xml:space="preserve" font-family="Helvetica-Light" font-size="32.0" fill="#000000" transform="matrix(1.00, 0.00, -0.00, -1.00, 594.0, 162.0)">p</text><text xml:space="preserve" font-family="Helvetica-Light" font-size="32.0" fill="#000000" transform="matrix(1.00, 0.00, -0.00, -1.00, 613.5, 162.0)">o</text><text xml:space="preserve" font-family="Helvetica-Light" font-size="32.0" fill="#000000" transform="matrix(1.00, 0.00, -0.00, -1.00, 631.3, 162.0)">t</text><text xml:space="preserve" font-family="Helvetica-Light" font-size="32.0" fill="#000000" transform="matrix(1.00, 0.00, -0.00, -1.00, 640.2, 162.0)">.</text><text xml:space="preserve" font-family="Helvetica-Light" font-size="32.0" fill="#000000" transform="matrix(1.00, 0.00, -0.00, -1.00, 649.1, 162.0)">c</text><text xml:space="preserve" font-family="Helvetica-Light" font-size="32.0" fill="#000000" transform="matrix(1.00, 0.00, -0.00, -1.00, 666.9, 162.0)">o</text><text xml:space="preserve" font-family="Helvetica-Light" font-size="32.0" fill="#000000" transform="matrix(1.00, 0.00, -0.00, -1.00, 684.7, 162.0)">m</text><g><clipPath id="clip-120"><path d="M 311.8 157.7 L 711.2 157.7 L 711.2 161.3 L 311.8 161.3 Z M 311.8 157.7 "></path></clipPath><g clip-path="url(#clip-120)"><path d="M 237.8 387.0 L 636.2 387.0 " fill="none" stroke="#000000" stroke-width="1.60" stroke-miterlimit="0.00" transform="matrix(1.00, 0.00, 0.00, -1.00, 75.0, 546.5)"></path></g></g></g></svg>