<?xml version="1.0" encoding="UTF-8" standalone="no"?><svg xmlns="http://www.w3.org/2000/svg" xmlns:xlink="http://www.w3.org/1999/xlink" clip-rule="evenodd" stroke-miterlimit="4.00" viewBox="0 0 842 89"><desc>SVG generated by Keynote</desc><defs></defs><g transform="matrix(1.00, 0.00, -0.00, -1.00, 0.0, 89.0)"><text xml:space="preserve" font-family="CourierNewPSMT" font-size="20.0" fill="#AAAAAA" transform="matrix(1.00, 0.00, -0.00, -1.00, 1.0, 75.0)"> </text><text xml:space="preserve" font-family="CourierNewPSMT" font-size="20.0" fill="#AAAAAA" transform="matrix(1.00, 0.00, -0.00, -1.00, 13.0, 75.0)"> </text><text xml:space="preserve" font-family="CourierNewPSMT" font-size="20.0" fill="#AAAAAA" transform="matrix(1.00, 0.00, -0.00, -1.00, 25.0, 75.0)"> </text><text xml:space="preserve" font-family="CourierNewPSMT" font-size="20.0" fill="#AAAAAA" transform="matrix(1.00, 0.00, -0.00, -1.00, 37.0, 75.0)"> </text><text xml:space="preserve" font-family="CourierNewPSMT" font-size="20.0" fill="#AAAAAA" transform="matrix(1.00, 0.00, -0.00, -1.00, 49.0, 75.0)">1</text><text xml:space="preserve" font-family="CourierNewPSMT" font-size="20.0" fill="#AAAAAA" transform="matrix(1.00, 0.00, -0.00, -1.00, 61.0, 75.0)"> </text><text xml:space="preserve" font-family="CourierNewPSMT" font-size="20.0" fill="#676767" transform="matrix(1.00, 0.00, -0.00, -1.00, 73.0, 75.0)">(</text><text xml:space="preserve" font-family="CourierNewPSMT" font-size="20.0" fill="#FF493D" transform="matrix(1.00, 0.00, -0.00, -1.00, 85.0, 75.0)">d</text><text xml:space="preserve" font-family="CourierNewPSMT" font-size="20.0" fill="#FF493D" transform="matrix(1.00, 0.00, -0.00, -1.00, 97.0, 75.0)">e</text><text xml:space="preserve" font-family="CourierNewPSMT" font-size="20.0" fill="#FF493D" transform="matrix(1.00, 0.00, -0.00, -1.00, 109.0, 75.0)">f</text><text xml:space="preserve" font-family="CourierNewPSMT" font-size="20.0" fill="#FF493D" transform="matrix(1.00, 0.00, -0.00, -1.00, 121.0, 75.0)">n</text><text xml:space="preserve" font-family="CourierNewPSMT" font-size="20.0" fill="#000000" transform="matrix(1.00, 0.00, -0.00, -1.00, 133.0, 75.0)"> </text><text xml:space="preserve" font-family="CourierNewPSMT" font-size="20.0" fill="#431479" transform="matrix(1.00, 0.00, -0.00, -1.00, 145.0, 75.0)">i</text><text xml:space="preserve" font-family="CourierNewPSMT" font-size="20.0" fill="#431479" transform="matrix(1.00, 0.00, -0.00, -1.00, 157.0, 75.0)">n</text><text xml:space="preserve" font-family="CourierNewPSMT" font-size="20.0" fill="#431479" transform="matrix(1.00, 0.00, -0.00, -1.00, 169.0, 75.0)">i</text><text xml:space="preserve" font-family="CourierNewPSMT" font-size="20.0" fill="#431479" transform="matrix(1.00, 0.00, -0.00, -1.00, 181.0, 75.0)">t</text><text xml:space="preserve" font-family="CourierNewPSMT" font-size="20.0" fill="#431479" transform="matrix(1.00, 0.00, -0.00, -1.00, 193.0, 75.0)">-</text><text xml:space="preserve" font-family="CourierNewPSMT" font-size="20.0" fill="#431479" transform="matrix(1.00, 0.00, -0.00, -1.00, 205.0, 75.0)">g</text><text xml:space="preserve" font-family="CourierNewPSMT" font-size="20.0" fill="#431479" transform="matrix(1.00, 0.00, -0.00, -1.00, 217.0, 75.0)">a</text><text xml:space="preserve" font-family="CourierNewPSMT" font-size="20.0" fill="#431479" transform="matrix(1.00, 0.00, -0.00, -1.00, 229.1, 75.0)">m</text><text xml:space="preserve" font-family="CourierNewPSMT" font-size="20.0" fill="#431479" transform="matrix(1.00, 0.00, -0.00, -1.00, 241.1, 75.0)">e</text><text xml:space="preserve" font-family="CourierNewPSMT" font-size="20.0" fill="#431479" transform="matrix(1.00, 0.00, -0.00, -1.00, 253.1, 75.0)">-</text><text xml:space="preserve" font-family="CourierNewPSMT" font-size="20.0" fill="#431479" transform="matrix(1.00, 0.00, -0.00, -1.00, 265.1, 75.0)">s</text><text xml:space="preserve" font-family="CourierNewPSMT" font-size="20.0" fill="#431479" transform="matrix(1.00, 0.00, -0.00, -1.00, 277.1, 75.0)">t</text><text xml:space="preserve" font-family="CourierNewPSMT" font-size="20.0" fill="#431479" transform="matrix(1.00, 0.00, -0.00, -1.00, 289.1, 75.0)">a</text><text xml:space="preserve" font-family="CourierNewPSMT" font-size="20.0" fill="#431479" transform="matrix(1.00, 0.00, -0.00, -1.00, 301.1, 75.0)">t</text><text xml:space="preserve" font-family="CourierNewPSMT" font-size="20.0" fill="#431479" transform="matrix(1.00, 0.00, -0.00, -1.00, 313.1, 75.0)">e</text><text xml:space="preserve" font-family="CourierNewPSMT" font-size="20.0" fill="#000000" transform="matrix(1.00, 0.00, -0.00, -1.00, 325.1, 75.0)"> </text><text xml:space="preserve" font-family="CourierNewPSMT" font-size="20.0" fill="#676767" transform="matrix(1.00, 0.00, -0.00, -1.00, 337.1, 75.0)">[</text><text xml:space="preserve" font-family="CourierNewPSMT" font-size="20.0" fill="#431479" transform="matrix(1.00, 0.00, -0.00, -1.00, 349.1, 75.0)">p</text><text xml:space="preserve" font-family="CourierNewPSMT" font-size="20.0" fill="#431479" transform="matrix(1.00, 0.00, -0.00, -1.00, 361.1, 75.0)">l</text><text xml:space="preserve" font-family="CourierNewPSMT" font-size="20.0" fill="#431479" transform="matrix(1.00, 0.00, -0.00, -1.00, 373.1, 75.0)">a</text><text xml:space="preserve" font-family="CourierNewPSMT" font-size="20.0" fill="#431479" transform="matrix(1.00, 0.00, -0.00, -1.00, 385.1, 75.0)">y</text><text xml:space="preserve" font-family="CourierNewPSMT" font-size="20.0" fill="#431479" transform="matrix(1.00, 0.00, -0.00, -1.00, 397.1, 75.0)">e</text><text xml:space="preserve" font-family="CourierNewPSMT" font-size="20.0" fill="#431479" transform="matrix(1.00, 0.00, -0.00, -1.00, 409.1, 75.0)">r</text><text xml:space="preserve" font-family="CourierNewPSMT" font-size="20.0" fill="#431479" transform="matrix(1.00, 0.00, -0.00, -1.00, 421.1, 75.0)">-</text><text xml:space="preserve" font-family="CourierNewPSMT" font-size="20.0" fill="#431479" transform="matrix(1.00, 0.00, -0.00, -1.00, 433.1, 75.0)">p</text><text xml:space="preserve" font-family="CourierNewPSMT" font-size="20.0" fill="#431479" transform="matrix(1.00, 0.00, -0.00, -1.00, 445.1, 75.0)">r</text><text xml:space="preserve" font-family="CourierNewPSMT" font-size="20.0" fill="#431479" transform="matrix(1.00, 0.00, -0.00, -1.00, 457.1, 75.0)">e</text><text xml:space="preserve" font-family="CourierNewPSMT" font-size="20.0" fill="#431479" transform="matrix(1.00, 0.00, -0.00, -1.00, 469.1, 75.0)">f</text><text xml:space="preserve" font-family="CourierNewPSMT" font-size="20.0" fill="#431479" transform="matrix(1.00, 0.00, -0.00, -1.00, 481.1, 75.0)">s</text><text xml:space="preserve" font-family="CourierNewPSMT" font-size="20.0" fill="#676767" transform="matrix(1.00, 0.00, -0.00, -1.00, 493.1, 75.0)">]</text><text xml:space="preserve" font-family="CourierNewPSMT" font-size="20.0" fill="#000000" transform="matrix(1.00, 0.00, -0.00, -1.00, 505.1, 75.0)"> </text><text xml:space="preserve" font-family="CourierNewPSMT" font-size="20.0" fill="#AAAAAA" transform="matrix(1.00, 0.00, -0.00, -1.00, 1.0, 52.0)"> </text><text xml:space="preserve" font-family="CourierNewPSMT" font-size="20.0" fill="#AAAAAA" transform="matrix(1.00, 0.00, -0.00, -1.00, 13.0, 52.0)"> </text><text xml:space="preserve" font-family="CourierNewPSMT" font-size="20.0" fill="#AAAAAA" transform="matrix(1.00, 0.00, -0.00, -1.00, 25.0, 52.0)"> </text><text xml:space="preserve" font-family="CourierNewPSMT" font-size="20.0" fill="#AAAAAA" transform="matrix(1.00, 0.00, -0.00, -1.00, 37.0, 52.0)"> </text><text xml:space="preserve" font-family="CourierNewPSMT" font-size="20.0" fill="#AAAAAA" transform="matrix(1.00, 0.00, -0.00, -1.00, 49.0, 52.0)">2</text><text xml:space="preserve" font-family="CourierNewPSMT" font-size="20.0" fill="#AAAAAA" transform="matrix(1.00, 0.00, -0.00, -1.00, 61.0, 52.0)"> </text><text xml:space="preserve" font-family="CourierNewPSMT" font-size="20.0" fill="#000000" transform="matrix(1.00, 0.00, -0.00, -1.00, 73.0, 52.0)"> </text><text xml:space="preserve" font-family="CourierNewPSMT" font-size="20.0" fill="#000000" transform="matrix(1.00, 0.00, -0.00, -1.00, 85.0, 52.0)"> </text><text xml:space="preserve" font-family="CourierNewPSMT" font-size="20.0" fill="#676767" transform="matrix(1.00, 0.00, -0.00, -1.00, 97.0, 52.0)">{</text><text xml:space="preserve" font-family="CourierNewPSMT" font-size="20.0" fill="#676767" transform="matrix(1.00, 0.00, -0.00, -1.00, 109.0, 52.0)"> </text><text xml:space="preserve" font-family="CourierNewPSMT" font-size="20.0" fill="#676767" transform="matrix(1.00, 0.00, -0.00, -1.00, 121.0, 52.0)">:</text><text xml:space="preserve" font-family="CourierNewPSMT" font-size="20.0" fill="#431479" transform="matrix(1.00, 0.00, -0.00, -1.00, 133.0, 52.0)">t</text><text xml:space="preserve" font-family="CourierNewPSMT" font-size="20.0" fill="#431479" transform="matrix(1.00, 0.00, -0.00, -1.00, 145.0, 52.0)">u</text><text xml:space="preserve" font-family="CourierNewPSMT" font-size="20.0" fill="#431479" transform="matrix(1.00, 0.00, -0.00, -1.00, 157.0, 52.0)">r</text><text xml:space="preserve" font-family="CourierNewPSMT" font-size="20.0" fill="#431479" transform="matrix(1.00, 0.00, -0.00, -1.00, 169.0, 52.0)">n</text><text xml:space="preserve" font-family="CourierNewPSMT" font-size="20.0" fill="#431479" transform="matrix(1.00, 0.00, -0.00, -1.00, 181.0, 52.0)">-</text><text xml:space="preserve" font-family="CourierNewPSMT" font-size="20.0" fill="#431479" transform="matrix(1.00, 0.00, -0.00, -1.00, 193.0, 52.0)">o</text><text xml:space="preserve" font-family="CourierNewPSMT" font-size="20.0" fill="#431479" transform="matrix(1.00, 0.00, -0.00, -1.00, 205.0, 52.0)">r</text><text xml:space="preserve" font-family="CourierNewPSMT" font-size="20.0" fill="#431479" transform="matrix(1.00, 0.00, -0.00, -1.00, 217.0, 52.0)">d</text><text xml:space="preserve" font-family="CourierNewPSMT" font-size="20.0" fill="#431479" transform="matrix(1.00, 0.00, -0.00, -1.00, 229.1, 52.0)">e</text><text xml:space="preserve" font-family="CourierNewPSMT" font-size="20.0" fill="#431479" transform="matrix(1.00, 0.00, -0.00, -1.00, 241.1, 52.0)">r</text><text xml:space="preserve" font-family="CourierNewPSMT" font-size="20.0" fill="#000000" transform="matrix(1.00, 0.00, -0.00, -1.00, 253.0, 52.0)"> </text><text xml:space="preserve" font-family="CourierNewPSMT" font-size="20.0" fill="#676767" transform="matrix(1.00, 0.00, -0.00, -1.00, 265.0, 52.0)">(</text><text xml:space="preserve" font-family="CourierNewPSMT" font-size="20.0" fill="#431479" transform="matrix(1.00, 0.00, -0.00, -1.00, 277.0, 52.0)">c</text><text xml:space="preserve" font-family="CourierNewPSMT" font-size="20.0" fill="#431479" transform="matrix(1.00, 0.00, -0.00, -1.00, 289.0, 52.0)">r</text><text xml:space="preserve" font-family="CourierNewPSMT" font-size="20.0" fill="#431479" transform="matrix(1.00, 0.00, -0.00, -1.00, 301.1, 52.0)">e</text><text xml:space="preserve" font-family="CourierNewPSMT" font-size="20.0" fill="#431479" transform="matrix(1.00, 0.00, -0.00, -1.00, 313.1, 52.0)">a</text><text xml:space="preserve" font-family="CourierNewPSMT" font-size="20.0" fill="#431479" transform="matrix(1.00, 0.00, -0.00, -1.00, 325.1, 52.0)">t</text><text xml:space="preserve" font-family="CourierNewPSMT" font-size="20.0" fill="#431479" transform="matrix(1.00, 0.00, -0.00, -1.00, 337.1, 52.0)">e</text><text xml:space="preserve" font-family="CourierNewPSMT" font-size="20.0" fill="#431479" transform="matrix(1.00, 0.00, -0.00, -1.00, 349.1, 52.0)">-</text><text xml:space="preserve" font-family="CourierNewPSMT" font-size="20.0" fill="#431479" transform="matrix(1.00, 0.00, -0.00, -1.00, 361.1, 52.0)">t</text><text xml:space="preserve" font-family="CourierNewPSMT" font-size="20.0" fill="#431479" transform="matrix(1.00, 0.00, -0.00, -1.00, 373.1, 52.0)">u</text><text xml:space="preserve" font-family="CourierNewPSMT" font-size="20.0" fill="#431479" transform="matrix(1.00, 0.00, -0.00, -1.00, 385.1, 52.0)">r</text><text xml:space="preserve" font-family="CourierNewPSMT" font-size="20.0" fill="#431479" transform="matrix(1.00, 0.00, -0.00, -1.00, 397.1, 52.0)">n</text><text xml:space="preserve" font-family="CourierNewPSMT" font-size="20.0" fill="#431479" transform="matrix(1.00, 0.00, -0.00, -1.00, 409.1, 52.0)">-</text><text xml:space="preserve" font-family="CourierNewPSMT" font-size="20.0" fill="#431479" transform="matrix(1.00, 0.00, -0.00, -1.00, 421.1, 52.0)">s</text><text xml:space="preserve" font-family="CourierNewPSMT" font-size="20.0" fill="#431479" transform="matrix(1.00, 0.00, -0.00, -1.00, 433.1, 52.0)">e</text><text xml:space="preserve" font-family="CourierNewPSMT" font-size="20.0" fill="#431479" transform="matrix(1.00, 0.00, -0.00, -1.00, 445.1, 52.0)">q</text><text xml:space="preserve" font-family="CourierNewPSMT" font-size="20.0" fill="#431479" transform="matrix(1.00, 0.00, -0.00, -1.00, 457.1, 52.0)">u</text><text xml:space="preserve" font-family="CourierNewPSMT" font-size="20.0" fill="#431479" transform="matrix(1.00, 0.00, -0.00, -1.00, 469.1, 52.0)">e</text><text xml:space="preserve" font-family="CourierNewPSMT" font-size="20.0" fill="#431479" transform="matrix(1.00, 0.00, -0.00, -1.00, 481.1, 52.0)">n</text><text xml:space="preserve" font-family="CourierNewPSMT" font-size="20.0" fill="#431479" transform="matrix(1.00, 0.00, -0.00, -1.00, 493.1, 52.0)">c</text><text xml:space="preserve" font-family="CourierNewPSMT" font-size="20.0" fill="#431479" transform="matrix(1.00, 0.00, -0.00, -1.00, 505.1, 52.0)">e</text><text xml:space="preserve" font-family="CourierNewPSMT" font-size="20.0" fill="#000000" transform="matrix(1.00, 0.00, -0.00, -1.00, 517.1, 52.0)"> </text><text xml:space="preserve" font-family="CourierNewPSMT" font-size="20.0" fill="#676767" transform="matrix(1.00, 0.00, -0.00, -1.00, 529.1, 52.0)">(</text><text xml:space="preserve" font-family="CourierNewPSMT" font-size="20.0" fill="#DC45F0" transform="matrix(1.00, 0.00, -0.00, -1.00, 541.1, 52.0)">m</text><text xml:space="preserve" font-family="CourierNewPSMT" font-size="20.0" fill="#DC45F0" transform="matrix(1.00, 0.00, -0.00, -1.00, 553.1, 52.0)">a</text><text xml:space="preserve" font-family="CourierNewPSMT" font-size="20.0" fill="#DC45F0" transform="matrix(1.00, 0.00, -0.00, -1.00, 565.1, 52.0)">p</text><text xml:space="preserve" font-family="CourierNewPSMT" font-size="20.0" fill="#000000" transform="matrix(1.00, 0.00, -0.00, -1.00, 577.1, 52.0)"> </text><text xml:space="preserve" font-family="CourierNewPSMT" font-size="20.0" fill="#676767" transform="matrix(1.00, 0.00, -0.00, -1.00, 589.1, 52.0)">:</text><text xml:space="preserve" font-family="CourierNewPSMT" font-size="20.0" fill="#431479" transform="matrix(1.00, 0.00, -0.00, -1.00, 601.1, 52.0)">c</text><text xml:space="preserve" font-family="CourierNewPSMT" font-size="20.0" fill="#431479" transform="matrix(1.00, 0.00, -0.00, -1.00, 613.1, 52.0)">o</text><text xml:space="preserve" font-family="CourierNewPSMT" font-size="20.0" fill="#431479" transform="matrix(1.00, 0.00, -0.00, -1.00, 625.1, 52.0)">l</text><text xml:space="preserve" font-family="CourierNewPSMT" font-size="20.0" fill="#431479" transform="matrix(1.00, 0.00, -0.00, -1.00, 637.1, 52.0)">o</text><text xml:space="preserve" font-family="CourierNewPSMT" font-size="20.0" fill="#431479" transform="matrix(1.00, 0.00, -0.00, -1.00, 649.1, 52.0)">r</text><text xml:space="preserve" font-family="CourierNewPSMT" font-size="20.0" fill="#431479" transform="matrix(1.00, 0.00, -0.00, -1.00, 661.1, 52.0)"> </text><text xml:space="preserve" font-family="CourierNewPSMT" font-size="20.0" fill="#431479" transform="matrix(1.00, 0.00, -0.00, -1.00, 673.1, 52.0)">p</text><text xml:space="preserve" font-family="CourierNewPSMT" font-size="20.0" fill="#431479" transform="matrix(1.00, 0.00, -0.00, -1.00, 685.1, 52.0)">l</text><text xml:space="preserve" font-family="CourierNewPSMT" font-size="20.0" fill="#431479" transform="matrix(1.00, 0.00, -0.00, -1.00, 697.1, 52.0)">a</text><text xml:space="preserve" font-family="CourierNewPSMT" font-size="20.0" fill="#431479" transform="matrix(1.00, 0.00, -0.00, -1.00, 709.1, 52.0)">y</text><text xml:space="preserve" font-family="CourierNewPSMT" font-size="20.0" fill="#431479" transform="matrix(1.00, 0.00, -0.00, -1.00, 721.1, 52.0)">e</text><text xml:space="preserve" font-family="CourierNewPSMT" font-size="20.0" fill="#431479" transform="matrix(1.00, 0.00, -0.00, -1.00, 733.1, 52.0)">r</text><text xml:space="preserve" font-family="CourierNewPSMT" font-size="20.0" fill="#431479" transform="matrix(1.00, 0.00, -0.00, -1.00, 745.1, 52.0)">-</text><text xml:space="preserve" font-family="CourierNewPSMT" font-size="20.0" fill="#431479" transform="matrix(1.00, 0.00, -0.00, -1.00, 757.1, 52.0)">p</text><text xml:space="preserve" font-family="CourierNewPSMT" font-size="20.0" fill="#431479" transform="matrix(1.00, 0.00, -0.00, -1.00, 769.2, 52.0)">r</text><text xml:space="preserve" font-family="CourierNewPSMT" font-size="20.0" fill="#431479" transform="matrix(1.00, 0.00, -0.00, -1.00, 781.2, 52.0)">e</text><text xml:space="preserve" font-family="CourierNewPSMT" font-size="20.0" fill="#431479" transform="matrix(1.00, 0.00, -0.00, -1.00, 793.2, 52.0)">f</text><text xml:space="preserve" font-family="CourierNewPSMT" font-size="20.0" fill="#431479" transform="matrix(1.00, 0.00, -0.00, -1.00, 805.2, 52.0)">s</text><text xml:space="preserve" font-family="CourierNewPSMT" font-size="20.0" fill="#676767" transform="matrix(1.00, 0.00, -0.00, -1.00, 817.1, 52.0)">)</text><text xml:space="preserve" font-family="CourierNewPSMT" font-size="20.0" fill="#676767" transform="matrix(1.00, 0.00, -0.00, -1.00, 829.1, 52.0)">)</text><text xml:space="preserve" font-family="CourierNewPSMT" font-size="20.0" fill="#000000" transform="matrix(1.00, 0.00, -0.00, -1.00, 841.1, 52.0)"> </text><text xml:space="preserve" font-family="CourierNewPSMT" font-size="20.0" fill="#AAAAAA" transform="matrix(1.00, 0.00, -0.00, -1.00, 1.0, 29.0)"> </text><text xml:space="preserve" font-family="CourierNewPSMT" font-size="20.0" fill="#AAAAAA" transform="matrix(1.00, 0.00, -0.00, -1.00, 13.0, 29.0)"> </text><text xml:space="preserve" font-family="CourierNewPSMT" font-size="20.0" fill="#AAAAAA" transform="matrix(1.00, 0.00, -0.00, -1.00, 25.0, 29.0)"> </text><text xml:space="preserve" font-family="CourierNewPSMT" font-size="20.0" fill="#AAAAAA" transform="matrix(1.00, 0.00, -0.00, -1.00, 37.0, 29.0)"> </text><text xml:space="preserve" font-family="CourierNewPSMT" font-size="20.0" fill="#AAAAAA" transform="matrix(1.00, 0.00, -0.00, -1.00, 49.0, 29.0)">3</text><text xml:space="preserve" font-family="CourierNewPSMT" font-size="20.0" fill="#AAAAAA" transform="matrix(1.00, 0.00, -0.00, -1.00, 61.0, 29.0)"> </text><text xml:space="preserve" font-family="CourierNewPSMT" font-size="20.0" fill="#000000" transform="matrix(1.00, 0.00, -0.00, -1.00, 73.0, 29.0)"> </text><text xml:space="preserve" font-family="CourierNewPSMT" font-size="20.0" fill="#000000" transform="matrix(1.00, 0.00, -0.00, -1.00, 85.0, 29.0)"> </text><text xml:space="preserve" font-family="CourierNewPSMT" font-size="20.0" fill="#000000" transform="matrix(1.00, 0.00, -0.00, -1.00, 97.0, 29.0)"> </text><text xml:space="preserve" font-family="CourierNewPSMT" font-size="20.0" fill="#676767" transform="matrix(1.00, 0.00, -0.00, -1.00, 109.0, 29.0)">:</text><text xml:space="preserve" font-family="CourierNewPSMT" font-size="20.0" fill="#431479" transform="matrix(1.00, 0.00, -0.00, -1.00, 121.0, 29.0)">p</text><text xml:space="preserve" font-family="CourierNewPSMT" font-size="20.0" fill="#431479" transform="matrix(1.00, 0.00, -0.00, -1.00, 133.0, 29.0)">l</text><text xml:space="preserve" font-family="CourierNewPSMT" font-size="20.0" fill="#431479" transform="matrix(1.00, 0.00, -0.00, -1.00, 145.0, 29.0)">a</text><text xml:space="preserve" font-family="CourierNewPSMT" font-size="20.0" fill="#431479" transform="matrix(1.00, 0.00, -0.00, -1.00, 157.0, 29.0)">y</text><text xml:space="preserve" font-family="CourierNewPSMT" font-size="20.0" fill="#431479" transform="matrix(1.00, 0.00, -0.00, -1.00, 169.0, 29.0)">e</text><text xml:space="preserve" font-family="CourierNewPSMT" font-size="20.0" fill="#431479" transform="matrix(1.00, 0.00, -0.00, -1.00, 181.0, 29.0)">r</text><text xml:space="preserve" font-family="CourierNewPSMT" font-size="20.0" fill="#431479" transform="matrix(1.00, 0.00, -0.00, -1.00, 193.0, 29.0)">s</text><text xml:space="preserve" font-family="CourierNewPSMT" font-size="20.0" fill="#000000" transform="matrix(1.00, 0.00, -0.00, -1.00, 205.0, 29.0)"> </text><text xml:space="preserve" font-family="CourierNewPSMT" font-size="20.0" fill="#676767" transform="matrix(1.00, 0.00, -0.00, -1.00, 217.0, 29.0)">(</text><text xml:space="preserve" font-family="CourierNewPSMT" font-size="20.0" fill="#431479" transform="matrix(1.00, 0.00, -0.00, -1.00, 229.0, 29.0)">i</text><text xml:space="preserve" font-family="CourierNewPSMT" font-size="20.0" fill="#431479" transform="matrix(1.00, 0.00, -0.00, -1.00, 241.0, 29.0)">n</text><text xml:space="preserve" font-family="CourierNewPSMT" font-size="20.0" fill="#431479" transform="matrix(1.00, 0.00, -0.00, -1.00, 253.0, 29.0)">i</text><text xml:space="preserve" font-family="CourierNewPSMT" font-size="20.0" fill="#431479" transform="matrix(1.00, 0.00, -0.00, -1.00, 265.0, 29.0)">t</text><text xml:space="preserve" font-family="CourierNewPSMT" font-size="20.0" fill="#431479" transform="matrix(1.00, 0.00, -0.00, -1.00, 277.1, 29.0)">-</text><text xml:space="preserve" font-family="CourierNewPSMT" font-size="20.0" fill="#431479" transform="matrix(1.00, 0.00, -0.00, -1.00, 289.1, 29.0)">p</text><text xml:space="preserve" font-family="CourierNewPSMT" font-size="20.0" fill="#431479" transform="matrix(1.00, 0.00, -0.00, -1.00, 301.1, 29.0)">l</text><text xml:space="preserve" font-family="CourierNewPSMT" font-size="20.0" fill="#431479" transform="matrix(1.00, 0.00, -0.00, -1.00, 313.1, 29.0)">a</text><text xml:space="preserve" font-family="CourierNewPSMT" font-size="20.0" fill="#431479" transform="matrix(1.00, 0.00, -0.00, -1.00, 325.1, 29.0)">y</text><text xml:space="preserve" font-family="CourierNewPSMT" font-size="20.0" fill="#431479" transform="matrix(1.00, 0.00, -0.00, -1.00, 337.1, 29.0)">e</text><text xml:space="preserve" font-family="CourierNewPSMT" font-size="20.0" fill="#431479" transform="matrix(1.00, 0.00, -0.00, -1.00, 349.1, 29.0)">r</text><text xml:space="preserve" font-family="CourierNewPSMT" font-size="20.0" fill="#431479" transform="matrix(1.00, 0.00, -0.00, -1.00, 361.1, 29.0)">s</text><text xml:space="preserve" font-family="CourierNewPSMT" font-size="20.0" fill="#431479" transform="matrix(1.00, 0.00, -0.00, -1.00, 373.1, 29.0)"> </text><text xml:space="preserve" font-family="CourierNewPSMT" font-size="20.0" fill="#431479" transform="matrix(1.00, 0.00, -0.00, -1.00, 385.1, 29.0)">p</text><text xml:space="preserve" font-family="CourierNewPSMT" font-size="20.0" fill="#431479" transform="matrix(1.00, 0.00, -0.00, -1.00, 397.1, 29.0)">l</text><text xml:space="preserve" font-family="CourierNewPSMT" font-size="20.0" fill="#431479" transform="matrix(1.00, 0.00, -0.00, -1.00, 409.1, 29.0)">a</text><text xml:space="preserve" font-family="CourierNewPSMT" font-size="20.0" fill="#431479" transform="matrix(1.00, 0.00, -0.00, -1.00, 421.1, 29.0)">y</text><text xml:space="preserve" font-family="CourierNewPSMT" font-size="20.0" fill="#431479" transform="matrix(1.00, 0.00, -0.00, -1.00, 433.1, 29.0)">e</text><text xml:space="preserve" font-family="CourierNewPSMT" font-size="20.0" fill="#431479" transform="matrix(1.00, 0.00, -0.00, -1.00, 445.1, 29.0)">r</text><text xml:space="preserve" font-family="CourierNewPSMT" font-size="20.0" fill="#431479" transform="matrix(1.00, 0.00, -0.00, -1.00, 457.1, 29.0)">-</text><text xml:space="preserve" font-family="CourierNewPSMT" font-size="20.0" fill="#431479" transform="matrix(1.00, 0.00, -0.00, -1.00, 469.1, 29.0)">p</text><text xml:space="preserve" font-family="CourierNewPSMT" font-size="20.0" fill="#431479" transform="matrix(1.00, 0.00, -0.00, -1.00, 481.1, 29.0)">r</text><text xml:space="preserve" font-family="CourierNewPSMT" font-size="20.0" fill="#431479" transform="matrix(1.00, 0.00, -0.00, -1.00, 493.1, 29.0)">e</text><text xml:space="preserve" font-family="CourierNewPSMT" font-size="20.0" fill="#431479" transform="matrix(1.00, 0.00, -0.00, -1.00, 505.1, 29.0)">f</text><text xml:space="preserve" font-family="CourierNewPSMT" font-size="20.0" fill="#431479" transform="matrix(1.00, 0.00, -0.00, -1.00, 517.1, 29.0)">s</text><text xml:space="preserve" font-family="CourierNewPSMT" font-size="20.0" fill="#676767" transform="matrix(1.00, 0.00, -0.00, -1.00, 529.1, 29.0)">)</text><text xml:space="preserve" font-family="CourierNewPSMT" font-size="20.0" fill="#000000" transform="matrix(1.00, 0.00, -0.00, -1.00, 541.1, 29.0)"> </text><text xml:space="preserve" font-family="CourierNewPSMT" font-size="20.0" fill="#AAAAAA" transform="matrix(1.00, 0.00, -0.00, -1.00, 1.0, 6.0)"> </text><text xml:space="preserve" font-family="CourierNewPSMT" font-size="20.0" fill="#AAAAAA" transform="matrix(1.00, 0.00, -0.00, -1.00, 13.0, 6.0)"> </text><text xml:space="preserve" font-family="CourierNewPSMT" font-size="20.0" fill="#AAAAAA" transform="matrix(1.00, 0.00, -0.00, -1.00, 25.0, 6.0)"> </text><text xml:space="preserve" font-family="CourierNewPSMT" font-size="20.0" fill="#AAAAAA" transform="matrix(1.00, 0.00, -0.00, -1.00, 37.0, 6.0)"> </text><text xml:space="preserve" font-family="CourierNewPSMT" font-size="20.0" fill="#AAAAAA" transform="matrix(1.00, 0.00, -0.00, -1.00, 49.0, 6.0)">4</text><text xml:space="preserve" font-family="CourierNewPSMT" font-size="20.0" fill="#AAAAAA" transform="matrix(1.00, 0.00, -0.00, -1.00, 61.0, 6.0)"> </text><text xml:space="preserve" font-family="CourierNewPSMT" font-size="20.0" fill="#000000" transform="matrix(1.00, 0.00, -0.00, -1.00, 73.0, 6.0)"> </text><text xml:space="preserve" font-family="CourierNewPSMT" font-size="20.0" fill="#000000" transform="matrix(1.00, 0.00, -0.00, -1.00, 85.0, 6.0)"> </text><text xml:space="preserve" font-family="CourierNewPSMT" font-size="20.0" fill="#000000" transform="matrix(1.00, 0.00, -0.00, -1.00, 97.0, 6.0)"> </text><text xml:space="preserve" font-family="CourierNewPSMT" font-size="20.0" fill="#676767" transform="matrix(1.00, 0.00, -0.00, -1.00, 109.0, 6.0)">:</text><text xml:space="preserve" font-family="CourierNewPSMT" font-size="20.0" fill="#431479" transform="matrix(1.00, 0.00, -0.00, -1.00, 121.0, 6.0)">b</text><text xml:space="preserve" font-family="CourierNewPSMT" font-size="20.0" fill="#431479" transform="matrix(1.00, 0.00, -0.00, -1.00, 133.0, 6.0)">o</text><text xml:space="preserve" font-family="CourierNewPSMT" font-size="20.0" fill="#431479" transform="matrix(1.00, 0.00, -0.00, -1.00, 145.0, 6.0)">a</text><text xml:space="preserve" font-family="CourierNewPSMT" font-size="20.0" fill="#431479" transform="matrix(1.00, 0.00, -0.00, -1.00, 157.0, 6.0)">r</text><text xml:space="preserve" font-family="CourierNewPSMT" font-size="20.0" fill="#431479" transform="matrix(1.00, 0.00, -0.00, -1.00, 169.0, 6.0)">d</text><text xml:space="preserve" font-family="CourierNewPSMT" font-size="20.0" fill="#000000" transform="matrix(1.00, 0.00, -0.00, -1.00, 181.0, 6.0)"> </text><text xml:space="preserve" font-family="CourierNewPSMT" font-size="20.0" fill="#676767" transform="matrix(1.00, 0.00, -0.00, -1.00, 193.0, 6.0)">(</text><text xml:space="preserve" font-family="CourierNewPSMT" font-size="20.0" fill="#431479" transform="matrix(1.00, 0.00, -0.00, -1.00, 205.0, 6.0)">s</text><text xml:space="preserve" font-family="CourierNewPSMT" font-size="20.0" fill="#431479" transform="matrix(1.00, 0.00, -0.00, -1.00, 217.0, 6.0)">e</text><text xml:space="preserve" font-family="CourierNewPSMT" font-size="20.0" fill="#431479" transform="matrix(1.00, 0.00, -0.00, -1.00, 229.0, 6.0)">t</text><text xml:space="preserve" font-family="CourierNewPSMT" font-size="20.0" fill="#431479" transform="matrix(1.00, 0.00, -0.00, -1.00, 241.0, 6.0)">u</text><text xml:space="preserve" font-family="CourierNewPSMT" font-size="20.0" fill="#431479" transform="matrix(1.00, 0.00, -0.00, -1.00, 253.0, 6.0)">p</text><text xml:space="preserve" font-family="CourierNewPSMT" font-size="20.0" fill="#431479" transform="matrix(1.00, 0.00, -0.00, -1.00, 265.1, 6.0)">-</text><text xml:space="preserve" font-family="CourierNewPSMT" font-size="20.0" fill="#431479" transform="matrix(1.00, 0.00, -0.00, -1.00, 277.1, 6.0)">b</text><text xml:space="preserve" font-family="CourierNewPSMT" font-size="20.0" fill="#431479" transform="matrix(1.00, 0.00, -0.00, -1.00, 289.1, 6.0)">o</text><text xml:space="preserve" font-family="CourierNewPSMT" font-size="20.0" fill="#431479" transform="matrix(1.00, 0.00, -0.00, -1.00, 301.1, 6.0)">a</text><text xml:space="preserve" font-family="CourierNewPSMT" font-size="20.0" fill="#431479" transform="matrix(1.00, 0.00, -0.00, -1.00, 313.1, 6.0)">r</text><text xml:space="preserve" font-family="CourierNewPSMT" font-size="20.0" fill="#431479" transform="matrix(1.00, 0.00, -0.00, -1.00, 325.1, 6.0)">d</text><text xml:space="preserve" font-family="CourierNewPSMT" font-size="20.0" fill="#000000" transform="matrix(1.00, 0.00, -0.00, -1.00, 337.1, 6.0)"> </text><text xml:space="preserve" font-family="CourierNewPSMT" font-size="20.0" fill="#676767" transform="matrix(1.00, 0.00, -0.00, -1.00, 349.1, 6.0)">(</text><text xml:space="preserve" font-family="CourierNewPSMT" font-size="20.0" fill="#DC45F0" transform="matrix(1.00, 0.00, -0.00, -1.00, 361.1, 6.0)">m</text><text xml:space="preserve" font-family="CourierNewPSMT" font-size="20.0" fill="#DC45F0" transform="matrix(1.00, 0.00, -0.00, -1.00, 373.1, 6.0)">a</text><text xml:space="preserve" font-family="CourierNewPSMT" font-size="20.0" fill="#DC45F0" transform="matrix(1.00, 0.00, -0.00, -1.00, 385.1, 6.0)">p</text><text xml:space="preserve" font-family="CourierNewPSMT" font-size="20.0" fill="#000000" transform="matrix(1.00, 0.00, -0.00, -1.00, 397.1, 6.0)"> </text><text xml:space="preserve" font-family="CourierNewPSMT" font-size="20.0" fill="#676767" transform="matrix(1.00, 0.00, -0.00, -1.00, 409.1, 6.0)">:</text><text xml:space="preserve" font-family="CourierNewPSMT" font-size="20.0" fill="#431479" transform="matrix(1.00, 0.00, -0.00, -1.00, 421.1, 6.0)">c</text><text xml:space="preserve" font-family="CourierNewPSMT" font-size="20.0" fill="#431479" transform="matrix(1.00, 0.00, -0.00, -1.00, 433.1, 6.0)">o</text><text xml:space="preserve" font-family="CourierNewPSMT" font-size="20.0" fill="#431479" transform="matrix(1.00, 0.00, -0.00, -1.00, 445.1, 6.0)">l</text><text xml:space="preserve" font-family="CourierNewPSMT" font-size="20.0" fill="#431479" transform="matrix(1.00, 0.00, -0.00, -1.00, 457.1, 6.0)">o</text><text xml:space="preserve" font-family="CourierNewPSMT" font-size="20.0" fill="#431479" transform="matrix(1.00, 0.00, -0.00, -1.00, 469.1, 6.0)">r</text><text xml:space="preserve" font-family="CourierNewPSMT" font-size="20.0" fill="#431479" transform="matrix(1.00, 0.00, -0.00, -1.00, 481.1, 6.0)"> </text><text xml:space="preserve" font-family="CourierNewPSMT" font-size="20.0" fill="#431479" transform="matrix(1.00, 0.00, -0.00, -1.00, 493.1, 6.0)">p</text><text xml:space="preserve" font-family="CourierNewPSMT" font-size="20.0" fill="#431479" transform="matrix(1.00, 0.00, -0.00, -1.00, 505.1, 6.0)">l</text><text xml:space="preserve" font-family="CourierNewPSMT" font-size="20.0" fill="#431479" transform="matrix(1.00, 0.00, -0.00, -1.00, 517.1, 6.0)">a</text><text xml:space="preserve" font-family="CourierNewPSMT" font-size="20.0" fill="#431479" transform="matrix(1.00, 0.00, -0.00, -1.00, 529.1, 6.0)">y</text><text xml:space="preserve" font-family="CourierNewPSMT" font-size="20.0" fill="#431479" transform="matrix(1.00, 0.00, -0.00, -1.00, 541.1, 6.0)">e</text><text xml:space="preserve" font-family="CourierNewPSMT" font-size="20.0" fill="#431479" transform="matrix(1.00, 0.00, -0.00, -1.00, 553.1, 6.0)">r</text><text xml:space="preserve" font-family="CourierNewPSMT" font-size="20.0" fill="#431479" transform="matrix(1.00, 0.00, -0.00, -1.00, 565.1, 6.0)">-</text><text xml:space="preserve" font-family="CourierNewPSMT" font-size="20.0" fill="#431479" transform="matrix(1.00, 0.00, -0.00, -1.00, 577.1, 6.0)">p</text><text xml:space="preserve" font-family="CourierNewPSMT" font-size="20.0" fill="#431479" transform="matrix(1.00, 0.00, -0.00, -1.00, 589.1, 6.0)">r</text><text xml:space="preserve" font-family="CourierNewPSMT" font-size="20.0" fill="#431479" transform="matrix(1.00, 0.00, -0.00, -1.00, 601.1, 6.0)">e</text><text xml:space="preserve" font-family="CourierNewPSMT" font-size="20.0" fill="#431479" transform="matrix(1.00, 0.00, -0.00, -1.00, 613.1, 6.0)">f</text><text xml:space="preserve" font-family="CourierNewPSMT" font-size="20.0" fill="#431479" transform="matrix(1.00, 0.00, -0.00, -1.00, 625.1, 6.0)">s</text><text xml:space="preserve" font-family="CourierNewPSMT" font-size="20.0" fill="#676767" transform="matrix(1.00, 0.00, -0.00, -1.00, 637.1, 6.0)">)</text><text xml:space="preserve" font-family="CourierNewPSMT" font-size="20.0" fill="#676767" transform="matrix(1.00, 0.00, -0.00, -1.00, 649.1, 6.0)">)</text><text xml:space="preserve" font-family="CourierNewPSMT" font-size="20.0" fill="#676767" transform="matrix(1.00, 0.00, -0.00, -1.00, 661.1, 6.0)"> </text><text xml:space="preserve" font-family="CourierNewPSMT" font-size="20.0" fill="#676767" transform="matrix(1.00, 0.00, -0.00, -1.00, 673.1, 6.0)">}</text><text xml:space="preserve" font-family="CourierNewPSMT" font-size="20.0" fill="#676767" transform="matrix(1.00, 0.00, -0.00, -1.00, 685.1, 6.0)">)</text><text xml:space="preserve" font-family="CourierNewPSMT" font-size="20.0" fill="#000000" transform="matrix(1.00, 0.00, -0.00, -1.00, 697.1, 6.0)"> </text></g></svg>