<?xml version="1.0" encoding="UTF-8" standalone="no"?><svg xmlns="http://www.w3.org/2000/svg" xmlns:xlink="http://www.w3.org/1999/xlink" clip-rule="evenodd" stroke-miterlimit="4.00" viewBox="0 0 1024 768"><desc>SVG generated by Keynote</desc><defs></defs><g transform="matrix(1.00, 0.00, -0.00, -1.00, 0.0, 768.0)"><g><clipPath id="clip-485"><path d="M 0.0 768.0 L 1024.0 768.0 L 1024.0 0.0 L 0.0 0.0 Z M 0.0 768.0 "></path></clipPath><g clip-path="url(#clip-485)"><image xlink:href="../../39451CEE-E280-41CA-872D-216C9FC86FAF/assets/43DA95A1552523200D88D33196FD3A18.jpeg" width="1024.00" height="768.00" transform="matrix(1.00, 0.00, -0.00, -1.00, 0.0, 768.0)"></image></g></g><text xml:space="preserve" font-family="MarkerFelt-Thin" font-size="95.0" fill="#45A6DE" transform="matrix(1.00, 0.00, -0.00, -1.00, 277.0, 353.0)">E</text><text xml:space="preserve" font-family="MarkerFelt-Thin" font-size="95.0" fill="#45A6DE" transform="matrix(1.00, 0.00, -0.00, -1.00, 317.9, 353.0)">n</text><text xml:space="preserve" font-family="MarkerFelt-Thin" font-size="95.0" fill="#45A6DE" transform="matrix(1.00, 0.00, -0.00, -1.00, 367.9, 353.0)">d</text><text xml:space="preserve" font-family="MarkerFelt-Thin" font-size="95.0" fill="#45A6DE" transform="matrix(1.00, 0.00, -0.00, -1.00, 408.8, 353.0)"> </text><text xml:space="preserve" font-family="MarkerFelt-Thin" font-size="95.0" fill="#45A6DE" transform="matrix(1.00, 0.00, -0.00, -1.00, 432.5, 353.0)">o</text><text xml:space="preserve" font-family="MarkerFelt-Thin" font-size="95.0" fill="#45A6DE" transform="matrix(1.00, 0.00, -0.00, -1.00, 475.6, 353.0)">f</text><text xml:space="preserve" font-family="MarkerFelt-Thin" font-size="95.0" fill="#45A6DE" transform="matrix(1.00, 0.00, -0.00, -1.00, 509.8, 353.0)"> </text><text xml:space="preserve" font-family="MarkerFelt-Thin" font-size="95.0" fill="#45A6DE" transform="matrix(1.00, 0.00, -0.00, -1.00, 533.6, 353.0)">S</text><text xml:space="preserve" font-family="MarkerFelt-Thin" font-size="95.0" fill="#45A6DE" transform="matrix(1.00, 0.00, -0.00, -1.00, 577.4, 353.0)">t</text><text xml:space="preserve" font-family="MarkerFelt-Thin" font-size="95.0" fill="#45A6DE" transform="matrix(1.00, 0.00, -0.00, -1.00, 615.6, 353.0)">o</text><text xml:space="preserve" font-family="MarkerFelt-Thin" font-size="95.0" fill="#45A6DE" transform="matrix(1.00, 0.00, -0.00, -1.00, 658.2, 353.0)">r</text><text xml:space="preserve" font-family="MarkerFelt-Thin" font-size="95.0" fill="#45A6DE" transform="matrix(1.00, 0.00, -0.00, -1.00, 702.3, 353.0)">y</text></g></svg>