<?xml version="1.0" encoding="UTF-8" standalone="no"?><svg xmlns="http://www.w3.org/2000/svg" xmlns:xlink="http://www.w3.org/1999/xlink" clip-rule="evenodd" stroke-miterlimit="4.00" viewBox="0 0 1024 768"><desc>SVG generated by Keynote</desc><defs></defs><g transform="matrix(1.00, 0.00, -0.00, -1.00, 0.0, 768.0)"><path d="M 0.0 768.0 L 1024.0 768.0 L 1024.0 0.0 L 0.0 0.0 Z M 0.0 768.0 " fill="#FEFFFF"></path><text xml:space="preserve" font-family="Helvetica-Light" font-size="80.0" fill="#000000" transform="matrix(1.00, 0.00, -0.00, -1.00, 179.0, 618.0)">D</text><text xml:space="preserve" font-family="Helvetica-Light" font-size="80.0" fill="#000000" transform="matrix(1.00, 0.00, -0.00, -1.00, 236.8, 618.0)">e</text><text xml:space="preserve" font-family="Helvetica-Light" font-size="80.0" fill="#000000" transform="matrix(1.00, 0.00, -0.00, -1.00, 281.2, 618.0)">c</text><text xml:space="preserve" font-family="Helvetica-Light" font-size="80.0" fill="#000000" transform="matrix(1.00, 0.00, -0.00, -1.00, 325.7, 618.0)">o</text><text xml:space="preserve" font-family="Helvetica-Light" font-size="80.0" fill="#000000" transform="matrix(1.00, 0.00, -0.00, -1.00, 370.2, 618.0)">m</text><text xml:space="preserve" font-family="Helvetica-Light" font-size="80.0" fill="#000000" transform="matrix(1.00, 0.00, -0.00, -1.00, 436.8, 618.0)">p</text><text xml:space="preserve" font-family="Helvetica-Light" font-size="80.0" fill="#000000" transform="matrix(1.00, 0.00, -0.00, -1.00, 485.7, 618.0)">o</text><text xml:space="preserve" font-family="Helvetica-Light" font-size="80.0" fill="#000000" transform="matrix(1.00, 0.00, -0.00, -1.00, 530.2, 618.0)">s</text><text xml:space="preserve" font-family="Helvetica-Light" font-size="80.0" fill="#000000" transform="matrix(1.00, 0.00, -0.00, -1.00, 570.2, 618.0)">e</text><text xml:space="preserve" font-family="Helvetica-Light" font-size="80.0" fill="#000000" transform="matrix(1.00, 0.00, -0.00, -1.00, 614.7, 618.0)"> </text><text xml:space="preserve" font-family="Helvetica-Light" font-size="80.0" fill="#000000" transform="matrix(1.00, 0.00, -0.00, -1.00, 636.9, 618.0)">A</text><text xml:space="preserve" font-family="Helvetica-Light" font-size="80.0" fill="#000000" transform="matrix(1.00, 0.00, -0.00, -1.00, 690.3, 618.0)">g</text><text xml:space="preserve" font-family="Helvetica-Light" font-size="80.0" fill="#000000" transform="matrix(1.00, 0.00, -0.00, -1.00, 739.2, 618.0)">a</text><text xml:space="preserve" font-family="Helvetica-Light" font-size="80.0" fill="#000000" transform="matrix(1.00, 0.00, -0.00, -1.00, 783.6, 618.0)">i</text><text xml:space="preserve" font-family="Helvetica-Light" font-size="80.0" fill="#000000" transform="matrix(1.00, 0.00, -0.00, -1.00, 801.4, 618.0)">n</text><text xml:space="preserve" font-family="Helvetica-Light" font-size="23.8" fill="#000000" transform="matrix(1.00, 0.00, -0.00, -1.00, 79.0, 532.0)">•</text><text xml:space="preserve" font-family="Helvetica-Light" font-size="31.7" fill="#000000" transform="matrix(1.00, 0.00, -0.00, -1.00, 110.0, 529.0)">S</text><text xml:space="preserve" font-family="Helvetica-Light" font-size="31.7" fill="#000000" transform="matrix(1.00, 0.00, -0.00, -1.00, 129.4, 529.0)">o</text><text xml:space="preserve" font-family="Helvetica-Light" font-size="31.7" fill="#000000" transform="matrix(1.00, 0.00, -0.00, -1.00, 147.0, 529.0)">m</text><text xml:space="preserve" font-family="Helvetica-Light" font-size="31.7" fill="#000000" transform="matrix(1.00, 0.00, -0.00, -1.00, 173.4, 529.0)">e</text><text xml:space="preserve" font-family="Helvetica-Light" font-size="31.7" fill="#000000" transform="matrix(1.00, 0.00, -0.00, -1.00, 191.0, 529.0)"> </text><text xml:space="preserve" font-family="Helvetica-Light" font-size="31.7" fill="#000000" transform="matrix(1.00, 0.00, -0.00, -1.00, 199.8, 529.0)">b</text><text xml:space="preserve" font-family="Helvetica-Light" font-size="31.7" fill="#000000" transform="matrix(1.00, 0.00, -0.00, -1.00, 219.1, 529.0)">o</text><text xml:space="preserve" font-family="Helvetica-Light" font-size="31.7" fill="#000000" transform="matrix(1.00, 0.00, -0.00, -1.00, 236.8, 529.0)">a</text><text xml:space="preserve" font-family="Helvetica-Light" font-size="31.7" fill="#000000" transform="matrix(1.00, 0.00, -0.00, -1.00, 254.4, 529.0)">r</text><text xml:space="preserve" font-family="Helvetica-Light" font-size="31.7" fill="#000000" transform="matrix(1.00, 0.00, -0.00, -1.00, 264.3, 529.0)">d</text><text xml:space="preserve" font-family="Helvetica-Light" font-size="31.7" fill="#000000" transform="matrix(1.00, 0.00, -0.00, -1.00, 283.7, 529.0)"> </text><text xml:space="preserve" font-family="Helvetica-Light" font-size="31.7" fill="#000000" transform="matrix(1.00, 0.00, -0.00, -1.00, 292.5, 529.0)">g</text><text xml:space="preserve" font-family="Helvetica-Light" font-size="31.7" fill="#000000" transform="matrix(1.00, 0.00, -0.00, -1.00, 311.9, 529.0)">a</text><text xml:space="preserve" font-family="Helvetica-Light" font-size="31.7" fill="#000000" transform="matrix(1.00, 0.00, -0.00, -1.00, 329.5, 529.0)">m</text><text xml:space="preserve" font-family="Helvetica-Light" font-size="31.7" fill="#000000" transform="matrix(1.00, 0.00, -0.00, -1.00, 355.9, 529.0)">e</text><text xml:space="preserve" font-family="Helvetica-Light" font-size="31.7" fill="#000000" transform="matrix(1.00, 0.00, -0.00, -1.00, 373.5, 529.0)">s</text><text xml:space="preserve" font-family="Helvetica-Light" font-size="31.7" fill="#000000" transform="matrix(1.00, 0.00, -0.00, -1.00, 389.3, 529.0)"> </text><text xml:space="preserve" font-family="Helvetica-Light" font-size="31.7" fill="#000000" transform="matrix(1.00, 0.00, -0.00, -1.00, 398.1, 529.0)">h</text><text xml:space="preserve" font-family="Helvetica-Light" font-size="31.7" fill="#000000" transform="matrix(1.00, 0.00, -0.00, -1.00, 415.7, 529.0)">a</text><text xml:space="preserve" font-family="Helvetica-Light" font-size="31.7" fill="#000000" transform="matrix(1.00, 0.00, -0.00, -1.00, 433.4, 529.0)">v</text><text xml:space="preserve" font-family="Helvetica-Light" font-size="31.7" fill="#000000" transform="matrix(1.00, 0.00, -0.00, -1.00, 449.2, 529.0)">e</text><text xml:space="preserve" font-family="Helvetica-Light" font-size="31.7" fill="#000000" transform="matrix(1.00, 0.00, -0.00, -1.00, 466.8, 529.0)"> </text><text xml:space="preserve" font-family="Helvetica-Light" font-size="31.7" fill="#000000" transform="matrix(1.00, 0.00, -0.00, -1.00, 110.0, 492.0)">c</text><text xml:space="preserve" font-family="Helvetica-Light" font-size="31.7" fill="#000000" transform="matrix(1.00, 0.00, -0.00, -1.00, 127.6, 492.0)">a</text><text xml:space="preserve" font-family="Helvetica-Light" font-size="31.7" fill="#000000" transform="matrix(1.00, 0.00, -0.00, -1.00, 145.2, 492.0)">r</text><text xml:space="preserve" font-family="Helvetica-Light" font-size="31.7" fill="#000000" transform="matrix(1.00, 0.00, -0.00, -1.00, 155.2, 492.0)">d</text><text xml:space="preserve" font-family="Helvetica-Light" font-size="31.7" fill="#000000" transform="matrix(1.00, 0.00, -0.00, -1.00, 174.6, 492.0)">s</text><text xml:space="preserve" font-family="Helvetica-Light" font-size="31.7" fill="#000000" transform="matrix(1.00, 0.00, -0.00, -1.00, 190.4, 492.0)"> </text><text xml:space="preserve" font-family="Helvetica-Light" font-size="23.8" fill="#000000" transform="matrix(1.00, 0.00, -0.00, -1.00, 79.0, 421.0)">•</text><text xml:space="preserve" font-family="Helvetica-Light" font-size="31.7" fill="#000000" transform="matrix(1.00, 0.00, -0.00, -1.00, 110.0, 418.0)">S</text><text xml:space="preserve" font-family="Helvetica-Light" font-size="31.7" fill="#000000" transform="matrix(1.00, 0.00, -0.00, -1.00, 129.4, 418.0)">o</text><text xml:space="preserve" font-family="Helvetica-Light" font-size="31.7" fill="#000000" transform="matrix(1.00, 0.00, -0.00, -1.00, 147.0, 418.0)">m</text><text xml:space="preserve" font-family="Helvetica-Light" font-size="31.7" fill="#000000" transform="matrix(1.00, 0.00, -0.00, -1.00, 173.4, 418.0)">e</text><text xml:space="preserve" font-family="Helvetica-Light" font-size="31.7" fill="#000000" transform="matrix(1.00, 0.00, -0.00, -1.00, 191.0, 418.0)"> </text><text xml:space="preserve" font-family="Helvetica-Light" font-size="31.7" fill="#000000" transform="matrix(1.00, 0.00, -0.00, -1.00, 199.8, 418.0)">c</text><text xml:space="preserve" font-family="Helvetica-Light" font-size="31.7" fill="#000000" transform="matrix(1.00, 0.00, -0.00, -1.00, 217.4, 418.0)">a</text><text xml:space="preserve" font-family="Helvetica-Light" font-size="31.7" fill="#000000" transform="matrix(1.00, 0.00, -0.00, -1.00, 235.0, 418.0)">r</text><text xml:space="preserve" font-family="Helvetica-Light" font-size="31.7" fill="#000000" transform="matrix(1.00, 0.00, -0.00, -1.00, 245.0, 418.0)">d</text><text xml:space="preserve" font-family="Helvetica-Light" font-size="31.7" fill="#000000" transform="matrix(1.00, 0.00, -0.00, -1.00, 264.3, 418.0)"> </text><text xml:space="preserve" font-family="Helvetica-Light" font-size="31.7" fill="#000000" transform="matrix(1.00, 0.00, -0.00, -1.00, 273.2, 418.0)">g</text><text xml:space="preserve" font-family="Helvetica-Light" font-size="31.7" fill="#000000" transform="matrix(1.00, 0.00, -0.00, -1.00, 292.5, 418.0)">a</text><text xml:space="preserve" font-family="Helvetica-Light" font-size="31.7" fill="#000000" transform="matrix(1.00, 0.00, -0.00, -1.00, 310.1, 418.0)">m</text><text xml:space="preserve" font-family="Helvetica-Light" font-size="31.7" fill="#000000" transform="matrix(1.00, 0.00, -0.00, -1.00, 336.5, 418.0)">e</text><text xml:space="preserve" font-family="Helvetica-Light" font-size="31.7" fill="#000000" transform="matrix(1.00, 0.00, -0.00, -1.00, 354.1, 418.0)">s</text><text xml:space="preserve" font-family="Helvetica-Light" font-size="31.7" fill="#000000" transform="matrix(1.00, 0.00, -0.00, -1.00, 370.0, 418.0)"> </text><text xml:space="preserve" font-family="Helvetica-Light" font-size="31.7" fill="#000000" transform="matrix(1.00, 0.00, -0.00, -1.00, 378.8, 418.0)">h</text><text xml:space="preserve" font-family="Helvetica-Light" font-size="31.7" fill="#000000" transform="matrix(1.00, 0.00, -0.00, -1.00, 396.4, 418.0)">a</text><text xml:space="preserve" font-family="Helvetica-Light" font-size="31.7" fill="#000000" transform="matrix(1.00, 0.00, -0.00, -1.00, 414.0, 418.0)">v</text><text xml:space="preserve" font-family="Helvetica-Light" font-size="31.7" fill="#000000" transform="matrix(1.00, 0.00, -0.00, -1.00, 429.8, 418.0)">e</text><text xml:space="preserve" font-family="Helvetica-Light" font-size="31.7" fill="#000000" transform="matrix(1.00, 0.00, -0.00, -1.00, 447.5, 418.0)"> </text><text xml:space="preserve" font-family="Helvetica-Light" font-size="31.7" fill="#000000" transform="matrix(1.00, 0.00, -0.00, -1.00, 110.0, 381.0)">b</text><text xml:space="preserve" font-family="Helvetica-Light" font-size="31.7" fill="#000000" transform="matrix(1.00, 0.00, -0.00, -1.00, 129.4, 381.0)">o</text><text xml:space="preserve" font-family="Helvetica-Light" font-size="31.7" fill="#000000" transform="matrix(1.00, 0.00, -0.00, -1.00, 147.0, 381.0)">a</text><text xml:space="preserve" font-family="Helvetica-Light" font-size="31.7" fill="#000000" transform="matrix(1.00, 0.00, -0.00, -1.00, 164.6, 381.0)">r</text><text xml:space="preserve" font-family="Helvetica-Light" font-size="31.7" fill="#000000" transform="matrix(1.00, 0.00, -0.00, -1.00, 174.6, 381.0)">d</text><text xml:space="preserve" font-family="Helvetica-Light" font-size="31.7" fill="#000000" transform="matrix(1.00, 0.00, -0.00, -1.00, 193.9, 381.0)">s</text><text xml:space="preserve" font-family="Helvetica-Light" font-size="31.7" fill="#000000" transform="matrix(1.00, 0.00, -0.00, -1.00, 209.8, 381.0)"> </text><text xml:space="preserve" font-family="Helvetica-Light" font-size="23.8" fill="#000000" transform="matrix(1.00, 0.00, -0.00, -1.00, 79.0, 310.0)">•</text><text xml:space="preserve" font-family="Helvetica-Light" font-size="31.7" fill="#000000" transform="matrix(1.00, 0.00, -0.00, -1.00, 110.0, 307.0)">S</text><text xml:space="preserve" font-family="Helvetica-Light" font-size="31.7" fill="#000000" transform="matrix(1.00, 0.00, -0.00, -1.00, 129.4, 307.0)">o</text><text xml:space="preserve" font-family="Helvetica-Light" font-size="31.7" fill="#000000" transform="matrix(1.00, 0.00, -0.00, -1.00, 147.0, 307.0)">l</text><text xml:space="preserve" font-family="Helvetica-Light" font-size="31.7" fill="#000000" transform="matrix(1.00, 0.00, -0.00, -1.00, 154.0, 307.0)">u</text><text xml:space="preserve" font-family="Helvetica-Light" font-size="31.7" fill="#000000" transform="matrix(1.00, 0.00, -0.00, -1.00, 171.6, 307.0)">t</text><text xml:space="preserve" font-family="Helvetica-Light" font-size="31.7" fill="#000000" transform="matrix(1.00, 0.00, -0.00, -1.00, 180.4, 307.0)">i</text><text xml:space="preserve" font-family="Helvetica-Light" font-size="31.7" fill="#000000" transform="matrix(1.00, 0.00, -0.00, -1.00, 187.5, 307.0)">o</text><text xml:space="preserve" font-family="Helvetica-Light" font-size="31.7" fill="#000000" transform="matrix(1.00, 0.00, -0.00, -1.00, 205.1, 307.0)">n</text><text xml:space="preserve" font-family="Helvetica-Light" font-size="31.7" fill="#000000" transform="matrix(1.00, 0.00, -0.00, -1.00, 222.7, 307.0)">s</text><text xml:space="preserve" font-family="Helvetica-Light" font-size="31.7" fill="#000000" transform="matrix(1.00, 0.00, -0.00, -1.00, 238.5, 307.0)"> </text><text xml:space="preserve" font-family="Helvetica-Light" font-size="23.8" fill="#000000" transform="matrix(1.00, 0.00, -0.00, -1.00, 114.0, 236.1)">•</text><text xml:space="preserve" font-family="Helvetica-Light" font-size="31.7" fill="#000000" transform="matrix(1.00, 0.00, -0.00, -1.00, 145.0, 233.0)">M</text><text xml:space="preserve" font-family="Helvetica-Light" font-size="31.7" fill="#000000" transform="matrix(1.00, 0.00, -0.00, -1.00, 171.4, 233.0)">u</text><text xml:space="preserve" font-family="Helvetica-Light" font-size="31.7" fill="#000000" transform="matrix(1.00, 0.00, -0.00, -1.00, 189.0, 233.0)">l</text><text xml:space="preserve" font-family="Helvetica-Light" font-size="31.7" fill="#000000" transform="matrix(1.00, 0.00, -0.00, -1.00, 196.0, 233.0)">t</text><text xml:space="preserve" font-family="Helvetica-Light" font-size="31.7" fill="#000000" transform="matrix(1.00, 0.00, -0.00, -1.00, 204.8, 233.0)">i</text><text xml:space="preserve" font-family="Helvetica-Light" font-size="31.7" fill="#000000" transform="matrix(1.00, 0.00, -0.00, -1.00, 211.9, 233.0)">p</text><text xml:space="preserve" font-family="Helvetica-Light" font-size="31.7" fill="#000000" transform="matrix(1.00, 0.00, -0.00, -1.00, 231.2, 233.0)">l</text><text xml:space="preserve" font-family="Helvetica-Light" font-size="31.7" fill="#000000" transform="matrix(1.00, 0.00, -0.00, -1.00, 238.3, 233.0)">e</text><text xml:space="preserve" font-family="Helvetica-Light" font-size="31.7" fill="#000000" transform="matrix(1.00, 0.00, -0.00, -1.00, 255.9, 233.0)"> </text><text xml:space="preserve" font-family="Helvetica-Light" font-size="31.7" fill="#000000" transform="matrix(1.00, 0.00, -0.00, -1.00, 264.7, 233.0)">i</text><text xml:space="preserve" font-family="Helvetica-Light" font-size="31.7" fill="#000000" transform="matrix(1.00, 0.00, -0.00, -1.00, 271.7, 233.0)">n</text><text xml:space="preserve" font-family="Helvetica-Light" font-size="31.7" fill="#000000" transform="matrix(1.00, 0.00, -0.00, -1.00, 289.3, 233.0)">h</text><text xml:space="preserve" font-family="Helvetica-Light" font-size="31.7" fill="#000000" transform="matrix(1.00, 0.00, -0.00, -1.00, 306.9, 233.0)">e</text><text xml:space="preserve" font-family="Helvetica-Light" font-size="31.7" fill="#000000" transform="matrix(1.00, 0.00, -0.00, -1.00, 324.6, 233.0)">r</text><text xml:space="preserve" font-family="Helvetica-Light" font-size="31.7" fill="#000000" transform="matrix(1.00, 0.00, -0.00, -1.00, 335.1, 233.0)">i</text><text xml:space="preserve" font-family="Helvetica-Light" font-size="31.7" fill="#000000" transform="matrix(1.00, 0.00, -0.00, -1.00, 342.1, 233.0)">t</text><text xml:space="preserve" font-family="Helvetica-Light" font-size="31.7" fill="#000000" transform="matrix(1.00, 0.00, -0.00, -1.00, 351.0, 233.0)">a</text><text xml:space="preserve" font-family="Helvetica-Light" font-size="31.7" fill="#000000" transform="matrix(1.00, 0.00, -0.00, -1.00, 368.6, 233.0)">n</text><text xml:space="preserve" font-family="Helvetica-Light" font-size="31.7" fill="#000000" transform="matrix(1.00, 0.00, -0.00, -1.00, 386.2, 233.0)">c</text><text xml:space="preserve" font-family="Helvetica-Light" font-size="31.7" fill="#000000" transform="matrix(1.00, 0.00, -0.00, -1.00, 403.8, 233.0)">e</text><text xml:space="preserve" font-family="Helvetica-Light" font-size="31.7" fill="#000000" transform="matrix(1.00, 0.00, -0.00, -1.00, 421.4, 233.0)"> </text><text xml:space="preserve" font-family="Helvetica-Light" font-size="23.8" fill="#000000" transform="matrix(1.00, 0.00, -0.00, -1.00, 114.0, 162.1)">•</text><text xml:space="preserve" font-family="Helvetica-Light" font-size="31.7" fill="#000000" transform="matrix(1.00, 0.00, -0.00, -1.00, 145.0, 159.0)">S</text><text xml:space="preserve" font-family="Helvetica-Light" font-size="31.7" fill="#000000" transform="matrix(1.00, 0.00, -0.00, -1.00, 164.4, 159.0)">i</text><text xml:space="preserve" font-family="Helvetica-Light" font-size="31.7" fill="#000000" transform="matrix(1.00, 0.00, -0.00, -1.00, 171.4, 159.0)">n</text><text xml:space="preserve" font-family="Helvetica-Light" font-size="31.7" fill="#000000" transform="matrix(1.00, 0.00, -0.00, -1.00, 189.0, 159.0)">g</text><text xml:space="preserve" font-family="Helvetica-Light" font-size="31.7" fill="#000000" transform="matrix(1.00, 0.00, -0.00, -1.00, 208.4, 159.0)">l</text><text xml:space="preserve" font-family="Helvetica-Light" font-size="31.7" fill="#000000" transform="matrix(1.00, 0.00, -0.00, -1.00, 215.4, 159.0)">e</text><text xml:space="preserve" font-family="Helvetica-Light" font-size="31.7" fill="#000000" transform="matrix(1.00, 0.00, -0.00, -1.00, 233.0, 159.0)"> </text><text xml:space="preserve" font-family="Helvetica-Light" font-size="31.7" fill="#000000" transform="matrix(1.00, 0.00, -0.00, -1.00, 241.8, 159.0)">i</text><text xml:space="preserve" font-family="Helvetica-Light" font-size="31.7" fill="#000000" transform="matrix(1.00, 0.00, -0.00, -1.00, 248.8, 159.0)">n</text><text xml:space="preserve" font-family="Helvetica-Light" font-size="31.7" fill="#000000" transform="matrix(1.00, 0.00, -0.00, -1.00, 266.5, 159.0)">h</text><text xml:space="preserve" font-family="Helvetica-Light" font-size="31.7" fill="#000000" transform="matrix(1.00, 0.00, -0.00, -1.00, 284.1, 159.0)">e</text><text xml:space="preserve" font-family="Helvetica-Light" font-size="31.7" fill="#000000" transform="matrix(1.00, 0.00, -0.00, -1.00, 301.7, 159.0)">r</text><text xml:space="preserve" font-family="Helvetica-Light" font-size="31.7" fill="#000000" transform="matrix(1.00, 0.00, -0.00, -1.00, 312.2, 159.0)">i</text><text xml:space="preserve" font-family="Helvetica-Light" font-size="31.7" fill="#000000" transform="matrix(1.00, 0.00, -0.00, -1.00, 319.3, 159.0)">t</text><text xml:space="preserve" font-family="Helvetica-Light" font-size="31.7" fill="#000000" transform="matrix(1.00, 0.00, -0.00, -1.00, 328.1, 159.0)">a</text><text xml:space="preserve" font-family="Helvetica-Light" font-size="31.7" fill="#000000" transform="matrix(1.00, 0.00, -0.00, -1.00, 345.7, 159.0)">n</text><text xml:space="preserve" font-family="Helvetica-Light" font-size="31.7" fill="#000000" transform="matrix(1.00, 0.00, -0.00, -1.00, 363.3, 159.0)">c</text><text xml:space="preserve" font-family="Helvetica-Light" font-size="31.7" fill="#000000" transform="matrix(1.00, 0.00, -0.00, -1.00, 380.9, 159.0)">e</text><text xml:space="preserve" font-family="Helvetica-Light" font-size="31.7" fill="#000000" transform="matrix(1.00, 0.00, -0.00, -1.00, 398.5, 159.0)"> </text><text xml:space="preserve" font-family="Helvetica-Light" font-size="23.8" fill="#000000" transform="matrix(1.00, 0.00, -0.00, -1.00, 114.0, 88.2)">•</text><text xml:space="preserve" font-family="Helvetica-Light" font-size="31.7" fill="#000000" transform="matrix(1.00, 0.00, -0.00, -1.00, 145.0, 85.0)">C</text><text xml:space="preserve" font-family="Helvetica-Light" font-size="31.7" fill="#000000" transform="matrix(1.00, 0.00, -0.00, -1.00, 167.9, 85.0)">o</text><text xml:space="preserve" font-family="Helvetica-Light" font-size="31.7" fill="#000000" transform="matrix(1.00, 0.00, -0.00, -1.00, 185.5, 85.0)">m</text><text xml:space="preserve" font-family="Helvetica-Light" font-size="31.7" fill="#000000" transform="matrix(1.00, 0.00, -0.00, -1.00, 211.9, 85.0)">p</text><text xml:space="preserve" font-family="Helvetica-Light" font-size="31.7" fill="#000000" transform="matrix(1.00, 0.00, -0.00, -1.00, 231.2, 85.0)">o</text><text xml:space="preserve" font-family="Helvetica-Light" font-size="31.7" fill="#000000" transform="matrix(1.00, 0.00, -0.00, -1.00, 248.8, 85.0)">s</text><text xml:space="preserve" font-family="Helvetica-Light" font-size="31.7" fill="#000000" transform="matrix(1.00, 0.00, -0.00, -1.00, 264.7, 85.0)">i</text><text xml:space="preserve" font-family="Helvetica-Light" font-size="31.7" fill="#000000" transform="matrix(1.00, 0.00, -0.00, -1.00, 271.7, 85.0)">t</text><text xml:space="preserve" font-family="Helvetica-Light" font-size="31.7" fill="#000000" transform="matrix(1.00, 0.00, -0.00, -1.00, 280.5, 85.0)">i</text><text xml:space="preserve" font-family="Helvetica-Light" font-size="31.7" fill="#000000" transform="matrix(1.00, 0.00, -0.00, -1.00, 287.6, 85.0)">o</text><text xml:space="preserve" font-family="Helvetica-Light" font-size="31.7" fill="#000000" transform="matrix(1.00, 0.00, -0.00, -1.00, 305.2, 85.0)">n</text><image xlink:href="../../4C0F5850-5ACE-4040-8FBA-0F05CB2ED30D/assets/C0DB4AB2A8B5F003A2FDB5EC850B2C0A.png" width="500.00" height="375.00" transform="matrix(1.00, 0.00, -0.00, -1.00, 487.0, 510.0)"></image><text xml:space="preserve" font-family="Helvetica-Light" font-size="10.0" fill="#000000" transform="matrix(1.00, 0.00, -0.00, -1.00, 653.0, 114.0)">h</text><text xml:space="preserve" font-family="Helvetica-Light" font-size="10.0" fill="#000000" transform="matrix(1.00, 0.00, -0.00, -1.00, 658.6, 114.0)">t</text><text xml:space="preserve" font-family="Helvetica-Light" font-size="10.0" fill="#000000" transform="matrix(1.00, 0.00, -0.00, -1.00, 661.3, 114.0)">t</text><text xml:space="preserve" font-family="Helvetica-Light" font-size="10.0" fill="#000000" transform="matrix(1.00, 0.00, -0.00, -1.00, 664.1, 114.0)">p</text><text xml:space="preserve" font-family="Helvetica-Light" font-size="10.0" fill="#000000" transform="matrix(1.00, 0.00, -0.00, -1.00, 670.2, 114.0)">:</text><text xml:space="preserve" font-family="Helvetica-Light" font-size="10.0" fill="#000000" transform="matrix(1.00, 0.00, -0.00, -1.00, 673.0, 114.0)">/</text><text xml:space="preserve" font-family="Helvetica-Light" font-size="10.0" fill="#000000" transform="matrix(1.00, 0.00, -0.00, -1.00, 675.8, 114.0)">/</text><text xml:space="preserve" font-family="Helvetica-Light" font-size="10.0" fill="#000000" transform="matrix(1.00, 0.00, -0.00, -1.00, 678.6, 114.0)">b</text><text xml:space="preserve" font-family="Helvetica-Light" font-size="10.0" fill="#000000" transform="matrix(1.00, 0.00, -0.00, -1.00, 684.7, 114.0)">o</text><text xml:space="preserve" font-family="Helvetica-Light" font-size="10.0" fill="#000000" transform="matrix(1.00, 0.00, -0.00, -1.00, 690.2, 114.0)">a</text><text xml:space="preserve" font-family="Helvetica-Light" font-size="10.0" fill="#000000" transform="matrix(1.00, 0.00, -0.00, -1.00, 695.8, 114.0)">r</text><text xml:space="preserve" font-family="Helvetica-Light" font-size="10.0" fill="#000000" transform="matrix(1.00, 0.00, -0.00, -1.00, 699.0, 114.0)">d</text><text xml:space="preserve" font-family="Helvetica-Light" font-size="10.0" fill="#000000" transform="matrix(1.00, 0.00, -0.00, -1.00, 705.1, 114.0)">g</text><text xml:space="preserve" font-family="Helvetica-Light" font-size="10.0" fill="#000000" transform="matrix(1.00, 0.00, -0.00, -1.00, 711.2, 114.0)">a</text><text xml:space="preserve" font-family="Helvetica-Light" font-size="10.0" fill="#000000" transform="matrix(1.00, 0.00, -0.00, -1.00, 716.7, 114.0)">m</text><text xml:space="preserve" font-family="Helvetica-Light" font-size="10.0" fill="#000000" transform="matrix(1.00, 0.00, -0.00, -1.00, 725.1, 114.0)">e</text><text xml:space="preserve" font-family="Helvetica-Light" font-size="10.0" fill="#000000" transform="matrix(1.00, 0.00, -0.00, -1.00, 730.6, 114.0)">g</text><text xml:space="preserve" font-family="Helvetica-Light" font-size="10.0" fill="#000000" transform="matrix(1.00, 0.00, -0.00, -1.00, 736.7, 114.0)">e</text><text xml:space="preserve" font-family="Helvetica-Light" font-size="10.0" fill="#000000" transform="matrix(1.00, 0.00, -0.00, -1.00, 742.3, 114.0)">e</text><text xml:space="preserve" font-family="Helvetica-Light" font-size="10.0" fill="#000000" transform="matrix(1.00, 0.00, -0.00, -1.00, 747.9, 114.0)">k</text><text xml:space="preserve" font-family="Helvetica-Light" font-size="10.0" fill="#000000" transform="matrix(1.00, 0.00, -0.00, -1.00, 752.9, 114.0)">.</text><text xml:space="preserve" font-family="Helvetica-Light" font-size="10.0" fill="#000000" transform="matrix(1.00, 0.00, -0.00, -1.00, 755.6, 114.0)">c</text><text xml:space="preserve" font-family="Helvetica-Light" font-size="10.0" fill="#000000" transform="matrix(1.00, 0.00, -0.00, -1.00, 761.2, 114.0)">o</text><text xml:space="preserve" font-family="Helvetica-Light" font-size="10.0" fill="#000000" transform="matrix(1.00, 0.00, -0.00, -1.00, 766.8, 114.0)">m</text><text xml:space="preserve" font-family="Helvetica-Light" font-size="10.0" fill="#000000" transform="matrix(1.00, 0.00, -0.00, -1.00, 775.1, 114.0)">/</text><text xml:space="preserve" font-family="Helvetica-Light" font-size="10.0" fill="#000000" transform="matrix(1.00, 0.00, -0.00, -1.00, 777.9, 114.0)">i</text><text xml:space="preserve" font-family="Helvetica-Light" font-size="10.0" fill="#000000" transform="matrix(1.00, 0.00, -0.00, -1.00, 780.1, 114.0)">m</text><text xml:space="preserve" font-family="Helvetica-Light" font-size="10.0" fill="#000000" transform="matrix(1.00, 0.00, -0.00, -1.00, 788.4, 114.0)">a</text><text xml:space="preserve" font-family="Helvetica-Light" font-size="10.0" fill="#000000" transform="matrix(1.00, 0.00, -0.00, -1.00, 794.0, 114.0)">g</text><text xml:space="preserve" font-family="Helvetica-Light" font-size="10.0" fill="#000000" transform="matrix(1.00, 0.00, -0.00, -1.00, 800.1, 114.0)">e</text><text xml:space="preserve" font-family="Helvetica-Light" font-size="10.0" fill="#000000" transform="matrix(1.00, 0.00, -0.00, -1.00, 805.6, 114.0)">/</text><text xml:space="preserve" font-family="Helvetica-Light" font-size="10.0" fill="#000000" transform="matrix(1.00, 0.00, -0.00, -1.00, 808.4, 114.0)">2</text><text xml:space="preserve" font-family="Helvetica-Light" font-size="10.0" fill="#000000" transform="matrix(1.00, 0.00, -0.00, -1.00, 814.0, 114.0)">5</text><text xml:space="preserve" font-family="Helvetica-Light" font-size="10.0" fill="#000000" transform="matrix(1.00, 0.00, -0.00, -1.00, 819.5, 114.0)">1</text><text xml:space="preserve" font-family="Helvetica-Light" font-size="10.0" fill="#000000" transform="matrix(1.00, 0.00, -0.00, -1.00, 825.1, 114.0)">2</text><text xml:space="preserve" font-family="Helvetica-Light" font-size="10.0" fill="#000000" transform="matrix(1.00, 0.00, -0.00, -1.00, 830.7, 114.0)">4</text><text xml:space="preserve" font-family="Helvetica-Light" font-size="10.0" fill="#000000" transform="matrix(1.00, 0.00, -0.00, -1.00, 836.2, 114.0)">5</text><text xml:space="preserve" font-family="Helvetica-Light" font-size="10.0" fill="#000000" transform="matrix(1.00, 0.00, -0.00, -1.00, 841.8, 114.0)">5</text><text xml:space="preserve" font-family="Helvetica-Light" font-size="10.0" fill="#000000" transform="matrix(1.00, 0.00, -0.00, -1.00, 847.3, 114.0)">/</text><text xml:space="preserve" font-family="Helvetica-Light" font-size="10.0" fill="#000000" transform="matrix(1.00, 0.00, -0.00, -1.00, 850.1, 114.0)">t</text><text xml:space="preserve" font-family="Helvetica-Light" font-size="10.0" fill="#000000" transform="matrix(1.00, 0.00, -0.00, -1.00, 852.9, 114.0)">w</text><text xml:space="preserve" font-family="Helvetica-Light" font-size="10.0" fill="#000000" transform="matrix(1.00, 0.00, -0.00, -1.00, 860.1, 114.0)">i</text><text xml:space="preserve" font-family="Helvetica-Light" font-size="10.0" fill="#000000" transform="matrix(1.00, 0.00, -0.00, -1.00, 862.3, 114.0)">l</text><text xml:space="preserve" font-family="Helvetica-Light" font-size="10.0" fill="#000000" transform="matrix(1.00, 0.00, -0.00, -1.00, 864.6, 114.0)">i</text><text xml:space="preserve" font-family="Helvetica-Light" font-size="10.0" fill="#000000" transform="matrix(1.00, 0.00, -0.00, -1.00, 866.8, 114.0)">g</text><text xml:space="preserve" font-family="Helvetica-Light" font-size="10.0" fill="#000000" transform="matrix(1.00, 0.00, -0.00, -1.00, 872.9, 114.0)">h</text><text xml:space="preserve" font-family="Helvetica-Light" font-size="10.0" fill="#000000" transform="matrix(1.00, 0.00, -0.00, -1.00, 878.5, 114.0)">t</text><text xml:space="preserve" font-family="Helvetica-Light" font-size="10.0" fill="#000000" transform="matrix(1.00, 0.00, -0.00, -1.00, 881.2, 114.0)">-</text><text xml:space="preserve" font-family="Helvetica-Light" font-size="10.0" fill="#000000" transform="matrix(1.00, 0.00, -0.00, -1.00, 884.6, 114.0)">i</text><text xml:space="preserve" font-family="Helvetica-Light" font-size="10.0" fill="#000000" transform="matrix(1.00, 0.00, -0.00, -1.00, 886.8, 114.0)">m</text><text xml:space="preserve" font-family="Helvetica-Light" font-size="10.0" fill="#000000" transform="matrix(1.00, 0.00, -0.00, -1.00, 895.1, 114.0)">p</text><text xml:space="preserve" font-family="Helvetica-Light" font-size="10.0" fill="#000000" transform="matrix(1.00, 0.00, -0.00, -1.00, 901.2, 114.0)">e</text><text xml:space="preserve" font-family="Helvetica-Light" font-size="10.0" fill="#000000" transform="matrix(1.00, 0.00, -0.00, -1.00, 906.8, 114.0)">r</text><text xml:space="preserve" font-family="Helvetica-Light" font-size="10.0" fill="#000000" transform="matrix(1.00, 0.00, -0.00, -1.00, 910.1, 114.0)">i</text><text xml:space="preserve" font-family="Helvetica-Light" font-size="10.0" fill="#000000" transform="matrix(1.00, 0.00, -0.00, -1.00, 912.3, 114.0)">u</text><text xml:space="preserve" font-family="Helvetica-Light" font-size="10.0" fill="#000000" transform="matrix(1.00, 0.00, -0.00, -1.00, 917.9, 114.0)">m</text><text xml:space="preserve" font-family="Helvetica-Light" font-size="10.0" fill="#000000" transform="matrix(1.00, 0.00, -0.00, -1.00, 926.2, 114.0)">-</text><text xml:space="preserve" font-family="Helvetica-Light" font-size="10.0" fill="#000000" transform="matrix(1.00, 0.00, -0.00, -1.00, 929.6, 114.0)">t</text><text xml:space="preserve" font-family="Helvetica-Light" font-size="10.0" fill="#000000" transform="matrix(1.00, 0.00, -0.00, -1.00, 932.3, 114.0)">h</text><text xml:space="preserve" font-family="Helvetica-Light" font-size="10.0" fill="#000000" transform="matrix(1.00, 0.00, -0.00, -1.00, 937.9, 114.0)">i</text><text xml:space="preserve" font-family="Helvetica-Light" font-size="10.0" fill="#000000" transform="matrix(1.00, 0.00, -0.00, -1.00, 940.1, 114.0)">r</text><text xml:space="preserve" font-family="Helvetica-Light" font-size="10.0" fill="#000000" transform="matrix(1.00, 0.00, -0.00, -1.00, 943.3, 114.0)">d</text><text xml:space="preserve" font-family="Helvetica-Light" font-size="10.0" fill="#000000" transform="matrix(1.00, 0.00, -0.00, -1.00, 949.4, 114.0)">-</text><text xml:space="preserve" font-family="Helvetica-Light" font-size="10.0" fill="#000000" transform="matrix(1.00, 0.00, -0.00, -1.00, 952.7, 114.0)">e</text><text xml:space="preserve" font-family="Helvetica-Light" font-size="10.0" fill="#000000" transform="matrix(1.00, 0.00, -0.00, -1.00, 958.3, 114.0)">d</text><text xml:space="preserve" font-family="Helvetica-Light" font-size="10.0" fill="#000000" transform="matrix(1.00, 0.00, -0.00, -1.00, 964.4, 114.0)">i</text><text xml:space="preserve" font-family="Helvetica-Light" font-size="10.0" fill="#000000" transform="matrix(1.00, 0.00, -0.00, -1.00, 966.6, 114.0)">t</text><text xml:space="preserve" font-family="Helvetica-Light" font-size="10.0" fill="#000000" transform="matrix(1.00, 0.00, -0.00, -1.00, 969.4, 114.0)">i</text><text xml:space="preserve" font-family="Helvetica-Light" font-size="10.0" fill="#000000" transform="matrix(1.00, 0.00, -0.00, -1.00, 971.6, 114.0)">o</text><text xml:space="preserve" font-family="Helvetica-Light" font-size="10.0" fill="#000000" transform="matrix(1.00, 0.00, -0.00, -1.00, 977.2, 114.0)">n</text><g><clipPath id="clip-496"><path d="M 651.7 111.8 L 982.4 111.8 L 982.4 114.3 L 651.7 114.3 Z M 651.7 111.8 "></path></clipPath><g clip-path="url(#clip-496)"><path d="M 4.5 14.6 L 334.2 14.6 " fill="none" stroke="#000000" stroke-width="0.50" stroke-miterlimit="0.00" transform="matrix(1.00, 0.00, 0.00, -1.00, 648.2, 127.7)"></path></g></g></g></svg>