<?xml version="1.0" encoding="UTF-8" standalone="no"?><svg xmlns="http://www.w3.org/2000/svg" xmlns:xlink="http://www.w3.org/1999/xlink" clip-rule="evenodd" stroke-miterlimit="4.00" viewBox="0 0 1024 768"><desc>SVG generated by Keynote</desc><defs></defs><g transform="matrix(1.00, 0.00, -0.00, -1.00, 0.0, 768.0)"><g><clipPath id="clip-33"><path d="M 0.0 768.0 L 1024.0 768.0 L 1024.0 0.0 L 0.0 0.0 Z M 0.0 768.0 "></path></clipPath><g clip-path="url(#clip-33)"><image xlink:href="../../39451CEE-E280-41CA-872D-216C9FC86FAF/assets/43DA95A1552523200D88D33196FD3A18.jpeg" width="1024.00" height="768.00" transform="matrix(1.00, 0.00, -0.00, -1.00, 0.0, 768.0)"></image></g></g><path d="M 223.5 0.0 L 447.1 387.4 L 0.0 387.4 Z M 223.5 0.0 " fill="none" stroke="#000000" stroke-width="36.00" transform="matrix(1.00, 0.00, 0.00, -1.00, 288.5, 556.9)"></path><image xlink:href="../../078093C0-90B4-44D1-885F-4318D9E18CA1/assets/31FE5DBB4502A4E6B22E69BA18EECD34.png" width="2123.00" height="505.00" transform="matrix(0.24, 0.00, -0.00, -0.24, 257.3, 151.5)"></image><image xlink:href="../../078093C0-90B4-44D1-885F-4318D9E18CA1/assets/8E6EF84E51D3FCF6F9D3EFF965B2045B.png" width="128.00" height="128.00" transform="matrix(1.00, 0.00, -0.00, -1.00, 448.0, 735.0)"></image><image xlink:href="../../078093C0-90B4-44D1-885F-4318D9E18CA1/assets/F151384ED64CA4F79BE678D7A23B32C9.png" width="128.00" height="128.00" transform="matrix(1.00, 0.00, -0.00, -1.00, 771.0, 174.0)"></image><image xlink:href="../../078093C0-90B4-44D1-885F-4318D9E18CA1/assets/5D5A36979CA7308218DC52F2BE8980EC.png" width="128.00" height="128.00" transform="matrix(1.00, 0.00, -0.00, -1.00, 133.0, 174.0)"></image><text xml:space="preserve" font-family="MarkerFelt-Thin" font-size="40.0" fill="#858484" transform="matrix(1.00, 0.00, -0.00, -1.00, 589.0, 658.0)">T</text><text xml:space="preserve" font-family="MarkerFelt-Thin" font-size="40.0" fill="#858484" transform="matrix(1.00, 0.00, -0.00, -1.00, 608.2, 658.0)">i</text><text xml:space="preserve" font-family="MarkerFelt-Thin" font-size="40.0" fill="#858484" transform="matrix(1.00, 0.00, -0.00, -1.00, 617.6, 658.0)">m</text><text xml:space="preserve" font-family="MarkerFelt-Thin" font-size="40.0" fill="#858484" transform="matrix(1.00, 0.00, -0.00, -1.00, 646.4, 658.0)">e</text><text xml:space="preserve" font-family="MarkerFelt-Thin" font-size="40.0" fill="#858484" transform="matrix(1.00, 0.00, -0.00, -1.00, 779.0, 191.0)">M</text><text xml:space="preserve" font-family="MarkerFelt-Thin" font-size="40.0" fill="#858484" transform="matrix(1.00, 0.00, -0.00, -1.00, 816.2, 191.0)">o</text><text xml:space="preserve" font-family="MarkerFelt-Thin" font-size="40.0" fill="#858484" transform="matrix(1.00, 0.00, -0.00, -1.00, 834.3, 191.0)">n</text><text xml:space="preserve" font-family="MarkerFelt-Thin" font-size="40.0" fill="#858484" transform="matrix(1.00, 0.00, -0.00, -1.00, 855.0, 191.0)">e</text><text xml:space="preserve" font-family="MarkerFelt-Thin" font-size="40.0" fill="#858484" transform="matrix(1.00, 0.00, -0.00, -1.00, 872.5, 191.0)">y</text><text xml:space="preserve" font-family="MarkerFelt-Thin" font-size="40.0" fill="#858484" transform="matrix(1.00, 0.00, -0.00, -1.00, 128.0, 191.0)">F</text><text xml:space="preserve" font-family="MarkerFelt-Thin" font-size="40.0" fill="#858484" transform="matrix(1.00, 0.00, -0.00, -1.00, 144.8, 191.0)">e</text><text xml:space="preserve" font-family="MarkerFelt-Thin" font-size="40.0" fill="#858484" transform="matrix(1.00, 0.00, -0.00, -1.00, 163.4, 191.0)">a</text><text xml:space="preserve" font-family="MarkerFelt-Thin" font-size="40.0" fill="#858484" transform="matrix(1.00, 0.00, -0.00, -1.00, 182.9, 191.0)">t</text><text xml:space="preserve" font-family="MarkerFelt-Thin" font-size="40.0" fill="#858484" transform="matrix(1.00, 0.00, -0.00, -1.00, 200.1, 191.0)">u</text><text xml:space="preserve" font-family="MarkerFelt-Thin" font-size="40.0" fill="#858484" transform="matrix(1.00, 0.00, -0.00, -1.00, 218.3, 191.0)">r</text><text xml:space="preserve" font-family="MarkerFelt-Thin" font-size="40.0" fill="#858484" transform="matrix(1.00, 0.00, -0.00, -1.00, 233.5, 191.0)">e</text><text xml:space="preserve" font-family="MarkerFelt-Thin" font-size="40.0" fill="#858484" transform="matrix(1.00, 0.00, -0.00, -1.00, 251.8, 191.0)">s</text></g></svg>