<?xml version="1.0" encoding="UTF-8" standalone="no"?><svg xmlns="http://www.w3.org/2000/svg" xmlns:xlink="http://www.w3.org/1999/xlink" clip-rule="evenodd" stroke-miterlimit="4.00" viewBox="0 0 1024 768"><desc>SVG generated by Keynote</desc><defs></defs><g transform="matrix(1.00, 0.00, -0.00, -1.00, 0.0, 768.0)"><g><clipPath id="clip-133"><path d="M 0.0 768.0 L 1024.0 768.0 L 1024.0 0.0 L 0.0 0.0 Z M 0.0 768.0 "></path></clipPath><g clip-path="url(#clip-133)"><image xlink:href="../../39451CEE-E280-41CA-872D-216C9FC86FAF/assets/43DA95A1552523200D88D33196FD3A18.jpeg" width="1024.00" height="768.00" transform="matrix(1.00, 0.00, -0.00, -1.00, 0.0, 768.0)"></image></g></g><text xml:space="preserve" font-family="MarkerFelt-Thin" font-size="80.0" fill="#45A6DE" transform="matrix(1.00, 0.00, -0.00, -1.00, 357.0, 626.0)">T</text><text xml:space="preserve" font-family="MarkerFelt-Thin" font-size="80.0" fill="#45A6DE" transform="matrix(1.00, 0.00, -0.00, -1.00, 395.4, 626.0)">h</text><text xml:space="preserve" font-family="MarkerFelt-Thin" font-size="80.0" fill="#45A6DE" transform="matrix(1.00, 0.00, -0.00, -1.00, 436.5, 626.0)">e</text><text xml:space="preserve" font-family="MarkerFelt-Thin" font-size="80.0" fill="#45A6DE" transform="matrix(1.00, 0.00, -0.00, -1.00, 466.9, 626.0)"> </text><text xml:space="preserve" font-family="MarkerFelt-Thin" font-size="80.0" fill="#45A6DE" transform="matrix(1.00, 0.00, -0.00, -1.00, 486.9, 626.0)">S</text><text xml:space="preserve" font-family="MarkerFelt-Thin" font-size="80.0" fill="#45A6DE" transform="matrix(1.00, 0.00, -0.00, -1.00, 523.8, 626.0)">t</text><text xml:space="preserve" font-family="MarkerFelt-Thin" font-size="80.0" fill="#45A6DE" transform="matrix(1.00, 0.00, -0.00, -1.00, 556.0, 626.0)">o</text><text xml:space="preserve" font-family="MarkerFelt-Thin" font-size="80.0" fill="#45A6DE" transform="matrix(1.00, 0.00, -0.00, -1.00, 591.9, 626.0)">r</text><text xml:space="preserve" font-family="MarkerFelt-Thin" font-size="80.0" fill="#45A6DE" transform="matrix(1.00, 0.00, -0.00, -1.00, 629.0, 626.0)">y</text><g><clipPath id="clip-134"><path d="M 104.0 484.2 L 129.2 484.2 L 129.2 507.7 L 104.0 507.7 Z M 104.0 484.2 "></path></clipPath><g clip-path="url(#clip-134)"><path d="M 128.8 492.7 C 129.1 492.3 129.2 491.9 129.2 491.5 C 129.2 490.8 128.8 490.1 127.9 489.5 C 127.1 488.8 126.1 488.5 125.1 488.5 C 123.7 488.5 122.1 489.5 120.3 491.5 C 120.3 491.5 120.3 488.5 120.3 488.5 C 120.3 488.2 120.4 487.9 120.5 487.4 C 120.7 487.0 120.8 486.7 120.8 486.5 C 120.8 485.9 120.5 485.3 119.8 484.9 C 119.2 484.5 118.6 484.2 117.9 484.2 C 116.8 484.2 115.8 484.7 115.0 485.7 C 114.7 486.0 114.6 486.8 114.7 488.2 C 114.8 489.5 114.9 490.9 115.0 492.3 C 114.3 491.8 112.9 491.0 111.0 490.0 C 110.7 489.6 109.9 489.2 108.6 488.7 C 107.6 488.6 106.6 488.8 105.6 489.3 C 104.5 489.8 104.0 490.4 104.0 491.2 C 104.0 491.4 104.0 491.6 104.1 491.8 C 104.3 492.2 104.8 492.5 105.4 492.7 C 106.4 493.1 107.0 493.3 107.1 493.3 C 107.1 493.3 112.7 496.3 112.7 496.3 C 112.7 496.3 108.7 498.3 108.7 498.3 C 108.1 498.3 107.4 498.5 106.4 499.1 C 106.2 499.4 106.1 499.7 106.1 500.0 C 106.1 501.0 106.7 501.9 107.8 502.8 C 108.9 503.7 110.0 504.1 111.2 504.1 C 111.5 504.1 111.9 504.0 112.3 503.9 C 112.6 503.8 113.0 503.5 113.3 502.9 C 113.6 502.2 114.2 501.6 115.0 501.1 C 115.0 501.1 115.1 504.7 115.1 504.7 C 115.0 505.2 115.0 505.9 115.1 506.8 C 115.5 507.4 116.6 507.7 118.1 507.7 C 119.6 507.7 120.5 507.3 121.0 506.5 C 121.2 506.1 121.2 505.3 121.1 504.0 C 121.0 502.9 120.9 501.8 120.7 500.6 C 120.7 500.6 122.8 501.7 122.8 501.7 C 123.2 502.1 124.0 502.6 125.1 503.1 C 125.9 503.1 126.7 502.8 127.4 502.1 C 128.2 501.5 128.6 500.8 128.6 500.0 C 128.6 499.6 128.5 499.3 128.3 499.0 C 128.1 498.7 127.7 498.5 127.2 498.4 C 126.6 498.3 126.2 498.1 126.0 498.0 C 126.0 498.0 123.0 495.8 123.0 495.8 C 123.0 495.8 126.9 493.7 126.9 493.7 C 127.4 493.5 128.0 493.2 128.8 492.7 Z M 128.8 492.7 " fill="#3995D6"></path></g></g><text xml:space="preserve" font-family="MarkerFelt-Thin" font-size="46.0" fill="#858585" transform="matrix(1.00, 0.00, -0.00, -1.00, 154.0, 481.0)">S</text><text xml:space="preserve" font-family="MarkerFelt-Thin" font-size="46.0" fill="#858585" transform="matrix(1.00, 0.00, -0.00, -1.00, 178.1, 481.0)">e</text><text xml:space="preserve" font-family="MarkerFelt-Thin" font-size="46.0" fill="#858585" transform="matrix(1.00, 0.00, -0.00, -1.00, 198.0, 481.0)">e</text><text xml:space="preserve" font-family="MarkerFelt-Thin" font-size="46.0" fill="#858585" transform="matrix(1.00, 0.00, -0.00, -1.00, 218.4, 481.0)">i</text><text xml:space="preserve" font-family="MarkerFelt-Thin" font-size="46.0" fill="#858585" transform="matrix(1.00, 0.00, -0.00, -1.00, 229.9, 481.0)">n</text><text xml:space="preserve" font-family="MarkerFelt-Thin" font-size="46.0" fill="#858585" transform="matrix(1.00, 0.00, -0.00, -1.00, 253.8, 481.0)">g</text><text xml:space="preserve" font-family="MarkerFelt-Thin" font-size="46.0" fill="#858585" transform="matrix(1.00, 0.00, -0.00, -1.00, 273.1, 481.0)"> </text><text xml:space="preserve" font-family="MarkerFelt-Thin" font-size="46.0" fill="#858585" transform="matrix(1.00, 0.00, -0.00, -1.00, 284.6, 481.0)">t</text><text xml:space="preserve" font-family="MarkerFelt-Thin" font-size="46.0" fill="#858585" transform="matrix(1.00, 0.00, -0.00, -1.00, 303.7, 481.0)">h</text><text xml:space="preserve" font-family="MarkerFelt-Thin" font-size="46.0" fill="#858585" transform="matrix(1.00, 0.00, -0.00, -1.00, 327.3, 481.0)">e</text><text xml:space="preserve" font-family="MarkerFelt-Thin" font-size="46.0" fill="#858585" transform="matrix(1.00, 0.00, -0.00, -1.00, 344.8, 481.0)"> </text><text xml:space="preserve" font-family="MarkerFelt-Thin" font-size="46.0" fill="#858585" transform="matrix(1.00, 0.00, -0.00, -1.00, 356.3, 481.0)">v</text><text xml:space="preserve" font-family="MarkerFelt-Thin" font-size="46.0" fill="#858585" transform="matrix(1.00, 0.00, -0.00, -1.00, 378.9, 481.0)">a</text><text xml:space="preserve" font-family="MarkerFelt-Thin" font-size="46.0" fill="#858585" transform="matrix(1.00, 0.00, -0.00, -1.00, 402.3, 481.0)">l</text><text xml:space="preserve" font-family="MarkerFelt-Thin" font-size="46.0" fill="#858585" transform="matrix(1.00, 0.00, -0.00, -1.00, 413.0, 481.0)">u</text><text xml:space="preserve" font-family="MarkerFelt-Thin" font-size="46.0" fill="#858585" transform="matrix(1.00, 0.00, -0.00, -1.00, 432.9, 481.0)">e</text><text xml:space="preserve" font-family="MarkerFelt-Thin" font-size="46.0" fill="#858585" transform="matrix(1.00, 0.00, -0.00, -1.00, 450.3, 481.0)"> </text><text xml:space="preserve" font-family="MarkerFelt-Thin" font-size="46.0" fill="#858585" transform="matrix(1.00, 0.00, -0.00, -1.00, 461.8, 481.0)">o</text><text xml:space="preserve" font-family="MarkerFelt-Thin" font-size="46.0" fill="#858585" transform="matrix(1.00, 0.00, -0.00, -1.00, 482.7, 481.0)">f</text><text xml:space="preserve" font-family="MarkerFelt-Thin" font-size="46.0" fill="#858585" transform="matrix(1.00, 0.00, -0.00, -1.00, 499.3, 481.0)"> </text><text xml:space="preserve" font-family="MarkerFelt-Thin" font-size="46.0" fill="#858585" transform="matrix(1.00, 0.00, -0.00, -1.00, 510.8, 481.0)">t</text><text xml:space="preserve" font-family="MarkerFelt-Thin" font-size="46.0" fill="#858585" transform="matrix(1.00, 0.00, -0.00, -1.00, 529.9, 481.0)">h</text><text xml:space="preserve" font-family="MarkerFelt-Thin" font-size="46.0" fill="#858585" transform="matrix(1.00, 0.00, -0.00, -1.00, 553.5, 481.0)">e</text><text xml:space="preserve" font-family="MarkerFelt-Thin" font-size="46.0" fill="#858585" transform="matrix(1.00, 0.00, -0.00, -1.00, 571.0, 481.0)"> </text><text xml:space="preserve" font-family="MarkerFelt-Thin" font-size="46.0" fill="#858585" transform="matrix(1.00, 0.00, -0.00, -1.00, 582.5, 481.0)">M</text><text xml:space="preserve" font-family="MarkerFelt-Thin" font-size="46.0" fill="#858585" transform="matrix(1.00, 0.00, -0.00, -1.00, 626.2, 481.0)">E</text><text xml:space="preserve" font-family="MarkerFelt-Thin" font-size="46.0" fill="#858585" transform="matrix(1.00, 0.00, -0.00, -1.00, 646.0, 481.0)">G</text><text xml:space="preserve" font-family="MarkerFelt-Thin" font-size="46.0" fill="#858585" transform="matrix(1.00, 0.00, -0.00, -1.00, 668.6, 481.0)">A</text><text xml:space="preserve" font-family="MarkerFelt-Thin" font-size="46.0" fill="#858585" transform="matrix(1.00, 0.00, -0.00, -1.00, 699.1, 481.0)">,</text><text xml:space="preserve" font-family="MarkerFelt-Thin" font-size="46.0" fill="#858585" transform="matrix(1.00, 0.00, -0.00, -1.00, 707.8, 481.0)"> </text><text xml:space="preserve" font-family="MarkerFelt-Thin" font-size="46.0" fill="#858585" transform="matrix(1.00, 0.00, -0.00, -1.00, 719.3, 481.0)">t</text><text xml:space="preserve" font-family="MarkerFelt-Thin" font-size="46.0" fill="#858585" transform="matrix(1.00, 0.00, -0.00, -1.00, 738.4, 481.0)">h</text><text xml:space="preserve" font-family="MarkerFelt-Thin" font-size="46.0" fill="#858585" transform="matrix(1.00, 0.00, -0.00, -1.00, 762.1, 481.0)">e</text><text xml:space="preserve" font-family="MarkerFelt-Thin" font-size="46.0" fill="#858585" transform="matrix(1.00, 0.00, -0.00, -1.00, 779.6, 481.0)"> </text><text xml:space="preserve" font-family="MarkerFelt-Thin" font-size="46.0" fill="#858585" transform="matrix(1.00, 0.00, -0.00, -1.00, 791.1, 481.0)">b</text><text xml:space="preserve" font-family="MarkerFelt-Thin" font-size="46.0" fill="#858585" transform="matrix(1.00, 0.00, -0.00, -1.00, 813.1, 481.0)">o</text><text xml:space="preserve" font-family="MarkerFelt-Thin" font-size="46.0" fill="#858585" transform="matrix(1.00, 0.00, -0.00, -1.00, 834.0, 481.0)">s</text><text xml:space="preserve" font-family="MarkerFelt-Thin" font-size="46.0" fill="#858585" transform="matrix(1.00, 0.00, -0.00, -1.00, 853.4, 481.0)">s</text><text xml:space="preserve" font-family="MarkerFelt-Thin" font-size="46.0" fill="#858585" transform="matrix(1.00, 0.00, -0.00, -1.00, 870.4, 481.0)"> </text><text xml:space="preserve" font-family="MarkerFelt-Thin" font-size="46.0" fill="#858585" transform="matrix(1.00, 0.00, -0.00, -1.00, 154.0, 431.0)">h</text><text xml:space="preserve" font-family="MarkerFelt-Thin" font-size="46.0" fill="#858585" transform="matrix(1.00, 0.00, -0.00, -1.00, 178.3, 431.0)">a</text><text xml:space="preserve" font-family="MarkerFelt-Thin" font-size="46.0" fill="#858585" transform="matrix(1.00, 0.00, -0.00, -1.00, 201.1, 431.0)">s</text><text xml:space="preserve" font-family="MarkerFelt-Thin" font-size="46.0" fill="#858585" transform="matrix(1.00, 0.00, -0.00, -1.00, 218.1, 431.0)"> </text><text xml:space="preserve" font-family="MarkerFelt-Thin" font-size="46.0" fill="#858585" transform="matrix(1.00, 0.00, -0.00, -1.00, 229.6, 431.0)">n</text><text xml:space="preserve" font-family="MarkerFelt-Thin" font-size="46.0" fill="#858585" transform="matrix(1.00, 0.00, -0.00, -1.00, 253.9, 431.0)">o</text><text xml:space="preserve" font-family="MarkerFelt-Thin" font-size="46.0" fill="#858585" transform="matrix(1.00, 0.00, -0.00, -1.00, 275.5, 431.0)">w</text><text xml:space="preserve" font-family="MarkerFelt-Thin" font-size="46.0" fill="#858585" transform="matrix(1.00, 0.00, -0.00, -1.00, 308.6, 431.0)"> </text><text xml:space="preserve" font-family="MarkerFelt-Thin" font-size="46.0" fill="#858585" transform="matrix(1.00, 0.00, -0.00, -1.00, 320.1, 431.0)">a</text><text xml:space="preserve" font-family="MarkerFelt-Thin" font-size="46.0" fill="#858585" transform="matrix(1.00, 0.00, -0.00, -1.00, 342.8, 431.0)">s</text><text xml:space="preserve" font-family="MarkerFelt-Thin" font-size="46.0" fill="#858585" transform="matrix(1.00, 0.00, -0.00, -1.00, 361.6, 431.0)">k</text><text xml:space="preserve" font-family="MarkerFelt-Thin" font-size="46.0" fill="#858585" transform="matrix(1.00, 0.00, -0.00, -1.00, 385.7, 431.0)">e</text><text xml:space="preserve" font-family="MarkerFelt-Thin" font-size="46.0" fill="#858585" transform="matrix(1.00, 0.00, -0.00, -1.00, 406.1, 431.0)">d</text><text xml:space="preserve" font-family="MarkerFelt-Thin" font-size="46.0" fill="#858585" transform="matrix(1.00, 0.00, -0.00, -1.00, 425.9, 431.0)"> </text><text xml:space="preserve" font-family="MarkerFelt-Thin" font-size="46.0" fill="#858585" transform="matrix(1.00, 0.00, -0.00, -1.00, 437.4, 431.0)">o</text><text xml:space="preserve" font-family="MarkerFelt-Thin" font-size="46.0" fill="#858585" transform="matrix(1.00, 0.00, -0.00, -1.00, 458.5, 431.0)">u</text><text xml:space="preserve" font-family="MarkerFelt-Thin" font-size="46.0" fill="#858585" transform="matrix(1.00, 0.00, -0.00, -1.00, 479.5, 431.0)">r</text><text xml:space="preserve" font-family="MarkerFelt-Thin" font-size="46.0" fill="#858585" transform="matrix(1.00, 0.00, -0.00, -1.00, 497.0, 431.0)"> </text><text xml:space="preserve" font-family="MarkerFelt-Thin" font-size="46.0" fill="#858585" transform="matrix(1.00, 0.00, -0.00, -1.00, 508.5, 431.0)">t</text><text xml:space="preserve" font-family="MarkerFelt-Thin" font-size="46.0" fill="#858585" transform="matrix(1.00, 0.00, -0.00, -1.00, 526.0, 431.0)">e</text><text xml:space="preserve" font-family="MarkerFelt-Thin" font-size="46.0" fill="#858585" transform="matrix(1.00, 0.00, -0.00, -1.00, 547.3, 431.0)">a</text><text xml:space="preserve" font-family="MarkerFelt-Thin" font-size="46.0" fill="#858585" transform="matrix(1.00, 0.00, -0.00, -1.00, 568.5, 431.0)">m</text><text xml:space="preserve" font-family="MarkerFelt-Thin" font-size="46.0" fill="#858585" transform="matrix(1.00, 0.00, -0.00, -1.00, 601.6, 431.0)"> </text><text xml:space="preserve" font-family="MarkerFelt-Thin" font-size="46.0" fill="#858585" transform="matrix(1.00, 0.00, -0.00, -1.00, 613.1, 431.0)">t</text><text xml:space="preserve" font-family="MarkerFelt-Thin" font-size="46.0" fill="#858585" transform="matrix(1.00, 0.00, -0.00, -1.00, 631.6, 431.0)">o</text><text xml:space="preserve" font-family="MarkerFelt-Thin" font-size="46.0" fill="#858585" transform="matrix(1.00, 0.00, -0.00, -1.00, 650.5, 431.0)"> </text><text xml:space="preserve" font-family="MarkerFelt-Thin" font-size="46.0" fill="#858585" transform="matrix(1.00, 0.00, -0.00, -1.00, 662.0, 431.0)">c</text><text xml:space="preserve" font-family="MarkerFelt-Thin" font-size="46.0" fill="#858585" transform="matrix(1.00, 0.00, -0.00, -1.00, 681.1, 431.0)">r</text><text xml:space="preserve" font-family="MarkerFelt-Thin" font-size="46.0" fill="#858585" transform="matrix(1.00, 0.00, -0.00, -1.00, 698.6, 431.0)">e</text><text xml:space="preserve" font-family="MarkerFelt-Thin" font-size="46.0" fill="#858585" transform="matrix(1.00, 0.00, -0.00, -1.00, 719.9, 431.0)">a</text><text xml:space="preserve" font-family="MarkerFelt-Thin" font-size="46.0" fill="#858585" transform="matrix(1.00, 0.00, -0.00, -1.00, 742.4, 431.0)">t</text><text xml:space="preserve" font-family="MarkerFelt-Thin" font-size="46.0" fill="#858585" transform="matrix(1.00, 0.00, -0.00, -1.00, 760.0, 431.0)">e</text><text xml:space="preserve" font-family="MarkerFelt-Thin" font-size="46.0" fill="#858585" transform="matrix(1.00, 0.00, -0.00, -1.00, 777.4, 431.0)"> </text><text xml:space="preserve" font-family="MarkerFelt-Thin" font-size="46.0" fill="#858585" transform="matrix(1.00, 0.00, -0.00, -1.00, 788.9, 431.0)">a</text><text xml:space="preserve" font-family="MarkerFelt-Thin" font-size="46.0" fill="#858585" transform="matrix(1.00, 0.00, -0.00, -1.00, 810.1, 431.0)"> </text><text xml:space="preserve" font-family="MarkerFelt-Thin" font-size="46.0" fill="#858585" transform="matrix(1.00, 0.00, -0.00, -1.00, 154.0, 381.0)">p</text><text xml:space="preserve" font-family="MarkerFelt-Thin" font-size="46.0" fill="#858585" transform="matrix(1.00, 0.00, -0.00, -1.00, 175.3, 381.0)">r</text><text xml:space="preserve" font-family="MarkerFelt-Thin" font-size="46.0" fill="#858585" transform="matrix(1.00, 0.00, -0.00, -1.00, 194.0, 381.0)">o</text><text xml:space="preserve" font-family="MarkerFelt-Thin" font-size="46.0" fill="#858585" transform="matrix(1.00, 0.00, -0.00, -1.00, 215.3, 381.0)">d</text><text xml:space="preserve" font-family="MarkerFelt-Thin" font-size="46.0" fill="#858585" transform="matrix(1.00, 0.00, -0.00, -1.00, 236.2, 381.0)">u</text><text xml:space="preserve" font-family="MarkerFelt-Thin" font-size="46.0" fill="#858585" transform="matrix(1.00, 0.00, -0.00, -1.00, 256.4, 381.0)">c</text><text xml:space="preserve" font-family="MarkerFelt-Thin" font-size="46.0" fill="#858585" transform="matrix(1.00, 0.00, -0.00, -1.00, 276.5, 381.0)">t</text><text xml:space="preserve" font-family="MarkerFelt-Thin" font-size="46.0" fill="#858585" transform="matrix(1.00, 0.00, -0.00, -1.00, 293.0, 381.0)"> </text><text xml:space="preserve" font-family="MarkerFelt-Thin" font-size="46.0" fill="#858585" transform="matrix(1.00, 0.00, -0.00, -1.00, 304.5, 381.0)">f</text><text xml:space="preserve" font-family="MarkerFelt-Thin" font-size="46.0" fill="#858585" transform="matrix(1.00, 0.00, -0.00, -1.00, 323.4, 381.0)">o</text><text xml:space="preserve" font-family="MarkerFelt-Thin" font-size="46.0" fill="#858585" transform="matrix(1.00, 0.00, -0.00, -1.00, 344.1, 381.0)">r</text><text xml:space="preserve" font-family="MarkerFelt-Thin" font-size="46.0" fill="#858585" transform="matrix(1.00, 0.00, -0.00, -1.00, 361.6, 381.0)"> </text><text xml:space="preserve" font-family="MarkerFelt-Thin" font-size="46.0" fill="#858585" transform="matrix(1.00, 0.00, -0.00, -1.00, 373.1, 381.0)">a</text><text xml:space="preserve" font-family="MarkerFelt-Thin" font-size="46.0" fill="#858585" transform="matrix(1.00, 0.00, -0.00, -1.00, 394.2, 381.0)"> </text><text xml:space="preserve" font-family="MarkerFelt-Thin" font-size="46.0" fill="#858585" transform="matrix(1.00, 0.00, -0.00, -1.00, 405.7, 381.0)">d</text><text xml:space="preserve" font-family="MarkerFelt-Thin" font-size="46.0" fill="#858585" transform="matrix(1.00, 0.00, -0.00, -1.00, 425.5, 381.0)">e</text><text xml:space="preserve" font-family="MarkerFelt-Thin" font-size="46.0" fill="#858585" transform="matrix(1.00, 0.00, -0.00, -1.00, 446.5, 381.0)">s</text><text xml:space="preserve" font-family="MarkerFelt-Thin" font-size="46.0" fill="#858585" transform="matrix(1.00, 0.00, -0.00, -1.00, 465.3, 381.0)">k</text><text xml:space="preserve" font-family="MarkerFelt-Thin" font-size="46.0" fill="#858585" transform="matrix(1.00, 0.00, -0.00, -1.00, 490.1, 381.0)">t</text><text xml:space="preserve" font-family="MarkerFelt-Thin" font-size="46.0" fill="#858585" transform="matrix(1.00, 0.00, -0.00, -1.00, 508.6, 381.0)">o</text><text xml:space="preserve" font-family="MarkerFelt-Thin" font-size="46.0" fill="#858585" transform="matrix(1.00, 0.00, -0.00, -1.00, 528.9, 381.0)">p</text><text xml:space="preserve" font-family="MarkerFelt-Thin" font-size="46.0" fill="#858585" transform="matrix(1.00, 0.00, -0.00, -1.00, 548.7, 381.0)"> </text><text xml:space="preserve" font-family="MarkerFelt-Thin" font-size="46.0" fill="#858585" transform="matrix(1.00, 0.00, -0.00, -1.00, 560.2, 381.0)">u</text><text xml:space="preserve" font-family="MarkerFelt-Thin" font-size="46.0" fill="#858585" transform="matrix(1.00, 0.00, -0.00, -1.00, 580.3, 381.0)">s</text><text xml:space="preserve" font-family="MarkerFelt-Thin" font-size="46.0" fill="#858585" transform="matrix(1.00, 0.00, -0.00, -1.00, 598.9, 381.0)">e</text><text xml:space="preserve" font-family="MarkerFelt-Thin" font-size="46.0" fill="#858585" transform="matrix(1.00, 0.00, -0.00, -1.00, 619.2, 381.0)">r</text><text xml:space="preserve" font-family="MarkerFelt-Thin" font-size="46.0" fill="#858585" transform="matrix(1.00, 0.00, -0.00, -1.00, 636.6, 381.0)"> </text><g><clipPath id="clip-135"><path d="M 104.0 292.2 L 129.2 292.2 L 129.2 315.7 L 104.0 315.7 Z M 104.0 292.2 "></path></clipPath><g clip-path="url(#clip-135)"><path d="M 128.8 300.7 C 129.1 300.3 129.2 299.9 129.2 299.5 C 129.2 298.8 128.8 298.1 127.9 297.5 C 127.1 296.8 126.1 296.5 125.1 296.5 C 123.7 296.5 122.1 297.5 120.3 299.5 C 120.3 299.5 120.3 296.5 120.3 296.5 C 120.3 296.2 120.4 295.9 120.5 295.4 C 120.7 295.0 120.8 294.7 120.8 294.5 C 120.8 293.9 120.5 293.3 119.8 292.9 C 119.2 292.5 118.6 292.2 117.9 292.2 C 116.8 292.2 115.8 292.7 115.0 293.7 C 114.7 294.0 114.6 294.8 114.7 296.2 C 114.8 297.5 114.9 298.9 115.0 300.3 C 114.3 299.8 112.9 299.0 111.0 298.0 C 110.7 297.6 109.9 297.2 108.6 296.7 C 107.6 296.6 106.6 296.8 105.6 297.3 C 104.5 297.8 104.0 298.4 104.0 299.2 C 104.0 299.4 104.0 299.6 104.1 299.8 C 104.3 300.2 104.8 300.5 105.4 300.7 C 106.4 301.1 107.0 301.3 107.1 301.3 C 107.1 301.3 112.7 304.3 112.7 304.3 C 112.7 304.3 108.7 306.3 108.7 306.3 C 108.1 306.3 107.4 306.5 106.4 307.1 C 106.2 307.4 106.1 307.7 106.1 308.0 C 106.1 309.0 106.7 309.9 107.8 310.8 C 108.9 311.7 110.0 312.1 111.2 312.1 C 111.5 312.1 111.9 312.0 112.3 311.9 C 112.6 311.8 113.0 311.5 113.3 310.9 C 113.6 310.2 114.2 309.6 115.0 309.1 C 115.0 309.1 115.1 312.7 115.1 312.7 C 115.0 313.2 115.0 313.9 115.1 314.8 C 115.5 315.4 116.6 315.7 118.1 315.7 C 119.6 315.7 120.5 315.3 121.0 314.5 C 121.2 314.1 121.2 313.3 121.1 312.0 C 121.0 310.9 120.9 309.8 120.7 308.6 C 120.7 308.6 122.8 309.7 122.8 309.7 C 123.2 310.1 124.0 310.6 125.1 311.1 C 125.9 311.1 126.7 310.8 127.4 310.1 C 128.2 309.5 128.6 308.8 128.6 308.0 C 128.6 307.6 128.5 307.3 128.3 307.0 C 128.1 306.7 127.7 306.5 127.2 306.4 C 126.6 306.3 126.2 306.1 126.0 306.0 C 126.0 306.0 123.0 303.8 123.0 303.8 C 123.0 303.8 126.9 301.7 126.9 301.7 C 127.4 301.5 128.0 301.2 128.8 300.7 Z M 128.8 300.7 " fill="#3995D6"></path></g></g><text xml:space="preserve" font-family="MarkerFelt-Thin" font-size="46.0" fill="#858585" transform="matrix(1.00, 0.00, -0.00, -1.00, 154.0, 289.0)">T</text><text xml:space="preserve" font-family="MarkerFelt-Thin" font-size="46.0" fill="#858585" transform="matrix(1.00, 0.00, -0.00, -1.00, 176.1, 289.0)">h</text><text xml:space="preserve" font-family="MarkerFelt-Thin" font-size="46.0" fill="#858585" transform="matrix(1.00, 0.00, -0.00, -1.00, 199.7, 289.0)">e</text><text xml:space="preserve" font-family="MarkerFelt-Thin" font-size="46.0" fill="#858585" transform="matrix(1.00, 0.00, -0.00, -1.00, 217.2, 289.0)"> </text><text xml:space="preserve" font-family="MarkerFelt-Thin" font-size="46.0" fill="#858585" transform="matrix(1.00, 0.00, -0.00, -1.00, 228.7, 289.0)">t</text><text xml:space="preserve" font-family="MarkerFelt-Thin" font-size="46.0" fill="#858585" transform="matrix(1.00, 0.00, -0.00, -1.00, 247.2, 289.0)">o</text><text xml:space="preserve" font-family="MarkerFelt-Thin" font-size="46.0" fill="#858585" transform="matrix(1.00, 0.00, -0.00, -1.00, 268.5, 289.0)">o</text><text xml:space="preserve" font-family="MarkerFelt-Thin" font-size="46.0" fill="#858585" transform="matrix(1.00, 0.00, -0.00, -1.00, 289.4, 289.0)">l</text><text xml:space="preserve" font-family="MarkerFelt-Thin" font-size="46.0" fill="#858585" transform="matrix(1.00, 0.00, -0.00, -1.00, 298.6, 289.0)"> </text><text xml:space="preserve" font-family="MarkerFelt-Thin" font-size="46.0" fill="#858585" transform="matrix(1.00, 0.00, -0.00, -1.00, 310.1, 289.0)">s</text><text xml:space="preserve" font-family="MarkerFelt-Thin" font-size="46.0" fill="#858585" transform="matrix(1.00, 0.00, -0.00, -1.00, 328.4, 289.0)">h</text><text xml:space="preserve" font-family="MarkerFelt-Thin" font-size="46.0" fill="#858585" transform="matrix(1.00, 0.00, -0.00, -1.00, 352.6, 289.0)">o</text><text xml:space="preserve" font-family="MarkerFelt-Thin" font-size="46.0" fill="#858585" transform="matrix(1.00, 0.00, -0.00, -1.00, 373.8, 289.0)">u</text><text xml:space="preserve" font-family="MarkerFelt-Thin" font-size="46.0" fill="#858585" transform="matrix(1.00, 0.00, -0.00, -1.00, 394.4, 289.0)">l</text><text xml:space="preserve" font-family="MarkerFelt-Thin" font-size="46.0" fill="#858585" transform="matrix(1.00, 0.00, -0.00, -1.00, 404.8, 289.0)">d</text><text xml:space="preserve" font-family="MarkerFelt-Thin" font-size="46.0" fill="#858585" transform="matrix(1.00, 0.00, -0.00, -1.00, 424.6, 289.0)"> </text><text xml:space="preserve" font-family="MarkerFelt-Thin" font-size="46.0" fill="#858585" transform="matrix(1.00, 0.00, -0.00, -1.00, 436.1, 289.0)">b</text><text xml:space="preserve" font-family="MarkerFelt-Thin" font-size="46.0" fill="#858585" transform="matrix(1.00, 0.00, -0.00, -1.00, 457.6, 289.0)">e</text><text xml:space="preserve" font-family="MarkerFelt-Thin" font-size="46.0" fill="#858585" transform="matrix(1.00, 0.00, -0.00, -1.00, 475.1, 289.0)"> </text><text xml:space="preserve" font-family="MarkerFelt-Thin" font-size="46.0" fill="#858585" transform="matrix(1.00, 0.00, -0.00, -1.00, 486.6, 289.0)">i</text><text xml:space="preserve" font-family="MarkerFelt-Thin" font-size="46.0" fill="#858585" transform="matrix(1.00, 0.00, -0.00, -1.00, 498.0, 289.0)">n</text><text xml:space="preserve" font-family="MarkerFelt-Thin" font-size="46.0" fill="#858585" transform="matrix(1.00, 0.00, -0.00, -1.00, 523.2, 289.0)">t</text><text xml:space="preserve" font-family="MarkerFelt-Thin" font-size="46.0" fill="#858585" transform="matrix(1.00, 0.00, -0.00, -1.00, 540.7, 289.0)">e</text><text xml:space="preserve" font-family="MarkerFelt-Thin" font-size="46.0" fill="#858585" transform="matrix(1.00, 0.00, -0.00, -1.00, 561.0, 289.0)">r</text><text xml:space="preserve" font-family="MarkerFelt-Thin" font-size="46.0" fill="#858585" transform="matrix(1.00, 0.00, -0.00, -1.00, 579.8, 289.0)">a</text><text xml:space="preserve" font-family="MarkerFelt-Thin" font-size="46.0" fill="#858585" transform="matrix(1.00, 0.00, -0.00, -1.00, 602.1, 289.0)">c</text><text xml:space="preserve" font-family="MarkerFelt-Thin" font-size="46.0" fill="#858585" transform="matrix(1.00, 0.00, -0.00, -1.00, 622.2, 289.0)">t</text><text xml:space="preserve" font-family="MarkerFelt-Thin" font-size="46.0" fill="#858585" transform="matrix(1.00, 0.00, -0.00, -1.00, 641.9, 289.0)">i</text><text xml:space="preserve" font-family="MarkerFelt-Thin" font-size="46.0" fill="#858585" transform="matrix(1.00, 0.00, -0.00, -1.00, 655.1, 289.0)">v</text><text xml:space="preserve" font-family="MarkerFelt-Thin" font-size="46.0" fill="#858585" transform="matrix(1.00, 0.00, -0.00, -1.00, 676.3, 289.0)">e</text><text xml:space="preserve" font-family="MarkerFelt-Thin" font-size="46.0" fill="#858585" transform="matrix(1.00, 0.00, -0.00, -1.00, 693.8, 289.0)"> </text><text xml:space="preserve" font-family="MarkerFelt-Thin" font-size="46.0" fill="#858585" transform="matrix(1.00, 0.00, -0.00, -1.00, 705.3, 289.0)">a</text><text xml:space="preserve" font-family="MarkerFelt-Thin" font-size="46.0" fill="#858585" transform="matrix(1.00, 0.00, -0.00, -1.00, 728.3, 289.0)">n</text><text xml:space="preserve" font-family="MarkerFelt-Thin" font-size="46.0" fill="#858585" transform="matrix(1.00, 0.00, -0.00, -1.00, 752.5, 289.0)">d</text><text xml:space="preserve" font-family="MarkerFelt-Thin" font-size="46.0" fill="#858585" transform="matrix(1.00, 0.00, -0.00, -1.00, 772.3, 289.0)"> </text><text xml:space="preserve" font-family="MarkerFelt-Thin" font-size="46.0" fill="#858585" transform="matrix(1.00, 0.00, -0.00, -1.00, 783.8, 289.0)">a</text><text xml:space="preserve" font-family="MarkerFelt-Thin" font-size="46.0" fill="#858585" transform="matrix(1.00, 0.00, -0.00, -1.00, 807.1, 289.0)">l</text><text xml:space="preserve" font-family="MarkerFelt-Thin" font-size="46.0" fill="#858585" transform="matrix(1.00, 0.00, -0.00, -1.00, 818.6, 289.0)">l</text><text xml:space="preserve" font-family="MarkerFelt-Thin" font-size="46.0" fill="#858585" transform="matrix(1.00, 0.00, -0.00, -1.00, 829.6, 289.0)">o</text><text xml:space="preserve" font-family="MarkerFelt-Thin" font-size="46.0" fill="#858585" transform="matrix(1.00, 0.00, -0.00, -1.00, 851.2, 289.0)">w</text><text xml:space="preserve" font-family="MarkerFelt-Thin" font-size="46.0" fill="#858585" transform="matrix(1.00, 0.00, -0.00, -1.00, 884.3, 289.0)"> </text><text xml:space="preserve" font-family="MarkerFelt-Thin" font-size="46.0" fill="#858585" transform="matrix(1.00, 0.00, -0.00, -1.00, 895.8, 289.0)">a</text><text xml:space="preserve" font-family="MarkerFelt-Thin" font-size="46.0" fill="#858585" transform="matrix(1.00, 0.00, -0.00, -1.00, 917.0, 289.0)"> </text><text xml:space="preserve" font-family="MarkerFelt-Thin" font-size="46.0" fill="#858585" transform="matrix(1.00, 0.00, -0.00, -1.00, 154.0, 239.0)">u</text><text xml:space="preserve" font-family="MarkerFelt-Thin" font-size="46.0" fill="#858585" transform="matrix(1.00, 0.00, -0.00, -1.00, 174.1, 239.0)">s</text><text xml:space="preserve" font-family="MarkerFelt-Thin" font-size="46.0" fill="#858585" transform="matrix(1.00, 0.00, -0.00, -1.00, 192.7, 239.0)">e</text><text xml:space="preserve" font-family="MarkerFelt-Thin" font-size="46.0" fill="#858585" transform="matrix(1.00, 0.00, -0.00, -1.00, 212.9, 239.0)">r</text><text xml:space="preserve" font-family="MarkerFelt-Thin" font-size="46.0" fill="#858585" transform="matrix(1.00, 0.00, -0.00, -1.00, 230.4, 239.0)"> </text><text xml:space="preserve" font-family="MarkerFelt-Thin" font-size="46.0" fill="#858585" transform="matrix(1.00, 0.00, -0.00, -1.00, 241.9, 239.0)">t</text><text xml:space="preserve" font-family="MarkerFelt-Thin" font-size="46.0" fill="#858585" transform="matrix(1.00, 0.00, -0.00, -1.00, 260.4, 239.0)">o</text><text xml:space="preserve" font-family="MarkerFelt-Thin" font-size="46.0" fill="#858585" transform="matrix(1.00, 0.00, -0.00, -1.00, 279.3, 239.0)"> </text><text xml:space="preserve" font-family="MarkerFelt-Thin" font-size="46.0" fill="#858585" transform="matrix(1.00, 0.00, -0.00, -1.00, 290.8, 239.0)">e</text><text xml:space="preserve" font-family="MarkerFelt-Thin" font-size="46.0" fill="#858585" transform="matrix(1.00, 0.00, -0.00, -1.00, 312.1, 239.0)">a</text><text xml:space="preserve" font-family="MarkerFelt-Thin" font-size="46.0" fill="#858585" transform="matrix(1.00, 0.00, -0.00, -1.00, 334.8, 239.0)">s</text><text xml:space="preserve" font-family="MarkerFelt-Thin" font-size="46.0" fill="#858585" transform="matrix(1.00, 0.00, -0.00, -1.00, 353.7, 239.0)">i</text><text xml:space="preserve" font-family="MarkerFelt-Thin" font-size="46.0" fill="#858585" transform="matrix(1.00, 0.00, -0.00, -1.00, 365.1, 239.0)">l</text><text xml:space="preserve" font-family="MarkerFelt-Thin" font-size="46.0" fill="#858585" transform="matrix(1.00, 0.00, -0.00, -1.00, 376.8, 239.0)">y</text><text xml:space="preserve" font-family="MarkerFelt-Thin" font-size="46.0" fill="#858585" transform="matrix(1.00, 0.00, -0.00, -1.00, 398.4, 239.0)"> </text><text xml:space="preserve" font-family="MarkerFelt-Thin" font-size="46.0" fill="#858585" transform="matrix(1.00, 0.00, -0.00, -1.00, 409.9, 239.0)">n</text><text xml:space="preserve" font-family="MarkerFelt-Thin" font-size="46.0" fill="#858585" transform="matrix(1.00, 0.00, -0.00, -1.00, 435.2, 239.0)">a</text><text xml:space="preserve" font-family="MarkerFelt-Thin" font-size="46.0" fill="#858585" transform="matrix(1.00, 0.00, -0.00, -1.00, 457.3, 239.0)">v</text><text xml:space="preserve" font-family="MarkerFelt-Thin" font-size="46.0" fill="#858585" transform="matrix(1.00, 0.00, -0.00, -1.00, 480.8, 239.0)">i</text><text xml:space="preserve" font-family="MarkerFelt-Thin" font-size="46.0" fill="#858585" transform="matrix(1.00, 0.00, -0.00, -1.00, 491.2, 239.0)">g</text><text xml:space="preserve" font-family="MarkerFelt-Thin" font-size="46.0" fill="#858585" transform="matrix(1.00, 0.00, -0.00, -1.00, 512.9, 239.0)">a</text><text xml:space="preserve" font-family="MarkerFelt-Thin" font-size="46.0" fill="#858585" transform="matrix(1.00, 0.00, -0.00, -1.00, 535.4, 239.0)">t</text><text xml:space="preserve" font-family="MarkerFelt-Thin" font-size="46.0" fill="#858585" transform="matrix(1.00, 0.00, -0.00, -1.00, 553.0, 239.0)">e</text><text xml:space="preserve" font-family="MarkerFelt-Thin" font-size="46.0" fill="#858585" transform="matrix(1.00, 0.00, -0.00, -1.00, 570.4, 239.0)"> </text><text xml:space="preserve" font-family="MarkerFelt-Thin" font-size="46.0" fill="#858585" transform="matrix(1.00, 0.00, -0.00, -1.00, 581.9, 239.0)">a</text><text xml:space="preserve" font-family="MarkerFelt-Thin" font-size="46.0" fill="#858585" transform="matrix(1.00, 0.00, -0.00, -1.00, 604.9, 239.0)">n</text><text xml:space="preserve" font-family="MarkerFelt-Thin" font-size="46.0" fill="#858585" transform="matrix(1.00, 0.00, -0.00, -1.00, 629.1, 239.0)">d</text><text xml:space="preserve" font-family="MarkerFelt-Thin" font-size="46.0" fill="#858585" transform="matrix(1.00, 0.00, -0.00, -1.00, 648.9, 239.0)"> </text><text xml:space="preserve" font-family="MarkerFelt-Thin" font-size="46.0" fill="#858585" transform="matrix(1.00, 0.00, -0.00, -1.00, 660.4, 239.0)">a</text><text xml:space="preserve" font-family="MarkerFelt-Thin" font-size="46.0" fill="#858585" transform="matrix(1.00, 0.00, -0.00, -1.00, 683.4, 239.0)">n</text><text xml:space="preserve" font-family="MarkerFelt-Thin" font-size="46.0" fill="#858585" transform="matrix(1.00, 0.00, -0.00, -1.00, 708.6, 239.0)">a</text><text xml:space="preserve" font-family="MarkerFelt-Thin" font-size="46.0" fill="#858585" transform="matrix(1.00, 0.00, -0.00, -1.00, 731.9, 239.0)">l</text><text xml:space="preserve" font-family="MarkerFelt-Thin" font-size="46.0" fill="#858585" transform="matrix(1.00, 0.00, -0.00, -1.00, 743.6, 239.0)">y</text><text xml:space="preserve" font-family="MarkerFelt-Thin" font-size="46.0" fill="#858585" transform="matrix(1.00, 0.00, -0.00, -1.00, 765.2, 239.0)">z</text><text xml:space="preserve" font-family="MarkerFelt-Thin" font-size="46.0" fill="#858585" transform="matrix(1.00, 0.00, -0.00, -1.00, 787.3, 239.0)">e</text><text xml:space="preserve" font-family="MarkerFelt-Thin" font-size="46.0" fill="#858585" transform="matrix(1.00, 0.00, -0.00, -1.00, 804.8, 239.0)"> </text><text xml:space="preserve" font-family="MarkerFelt-Thin" font-size="46.0" fill="#858585" transform="matrix(1.00, 0.00, -0.00, -1.00, 816.3, 239.0)">d</text><text xml:space="preserve" font-family="MarkerFelt-Thin" font-size="46.0" fill="#858585" transform="matrix(1.00, 0.00, -0.00, -1.00, 837.8, 239.0)">a</text><text xml:space="preserve" font-family="MarkerFelt-Thin" font-size="46.0" fill="#858585" transform="matrix(1.00, 0.00, -0.00, -1.00, 860.3, 239.0)">t</text><text xml:space="preserve" font-family="MarkerFelt-Thin" font-size="46.0" fill="#858585" transform="matrix(1.00, 0.00, -0.00, -1.00, 879.2, 239.0)">a</text><text xml:space="preserve" font-family="MarkerFelt-Thin" font-size="46.0" fill="#858585" transform="matrix(1.00, 0.00, -0.00, -1.00, 901.8, 239.0)">,</text><text xml:space="preserve" font-family="MarkerFelt-Thin" font-size="46.0" fill="#858585" transform="matrix(1.00, 0.00, -0.00, -1.00, 910.5, 239.0)"> </text><text xml:space="preserve" font-family="MarkerFelt-Thin" font-size="46.0" fill="#858585" transform="matrix(1.00, 0.00, -0.00, -1.00, 154.0, 189.0)">i</text><text xml:space="preserve" font-family="MarkerFelt-Thin" font-size="46.0" fill="#858585" transform="matrix(1.00, 0.00, -0.00, -1.00, 165.4, 189.0)">n</text><text xml:space="preserve" font-family="MarkerFelt-Thin" font-size="46.0" fill="#858585" transform="matrix(1.00, 0.00, -0.00, -1.00, 189.5, 189.0)">c</text><text xml:space="preserve" font-family="MarkerFelt-Thin" font-size="46.0" fill="#858585" transform="matrix(1.00, 0.00, -0.00, -1.00, 208.8, 189.0)">l</text><text xml:space="preserve" font-family="MarkerFelt-Thin" font-size="46.0" fill="#858585" transform="matrix(1.00, 0.00, -0.00, -1.00, 219.5, 189.0)">u</text><text xml:space="preserve" font-family="MarkerFelt-Thin" font-size="46.0" fill="#858585" transform="matrix(1.00, 0.00, -0.00, -1.00, 239.8, 189.0)">d</text><text xml:space="preserve" font-family="MarkerFelt-Thin" font-size="46.0" fill="#858585" transform="matrix(1.00, 0.00, -0.00, -1.00, 260.8, 189.0)">i</text><text xml:space="preserve" font-family="MarkerFelt-Thin" font-size="46.0" fill="#858585" transform="matrix(1.00, 0.00, -0.00, -1.00, 272.2, 189.0)">n</text><text xml:space="preserve" font-family="MarkerFelt-Thin" font-size="46.0" fill="#858585" transform="matrix(1.00, 0.00, -0.00, -1.00, 296.1, 189.0)">g</text><text xml:space="preserve" font-family="MarkerFelt-Thin" font-size="46.0" fill="#858585" transform="matrix(1.00, 0.00, -0.00, -1.00, 315.4, 189.0)"> </text><text xml:space="preserve" font-family="MarkerFelt-Thin" font-size="46.0" fill="#858585" transform="matrix(1.00, 0.00, -0.00, -1.00, 326.9, 189.0)">r</text><text xml:space="preserve" font-family="MarkerFelt-Thin" font-size="46.0" fill="#858585" transform="matrix(1.00, 0.00, -0.00, -1.00, 347.2, 189.0)">u</text><text xml:space="preserve" font-family="MarkerFelt-Thin" font-size="46.0" fill="#858585" transform="matrix(1.00, 0.00, -0.00, -1.00, 367.9, 189.0)">n</text><text xml:space="preserve" font-family="MarkerFelt-Thin" font-size="46.0" fill="#858585" transform="matrix(1.00, 0.00, -0.00, -1.00, 392.2, 189.0)">n</text><text xml:space="preserve" font-family="MarkerFelt-Thin" font-size="46.0" fill="#858585" transform="matrix(1.00, 0.00, -0.00, -1.00, 416.6, 189.0)">i</text><text xml:space="preserve" font-family="MarkerFelt-Thin" font-size="46.0" fill="#858585" transform="matrix(1.00, 0.00, -0.00, -1.00, 428.0, 189.0)">n</text><text xml:space="preserve" font-family="MarkerFelt-Thin" font-size="46.0" fill="#858585" transform="matrix(1.00, 0.00, -0.00, -1.00, 451.9, 189.0)">g</text><text xml:space="preserve" font-family="MarkerFelt-Thin" font-size="46.0" fill="#858585" transform="matrix(1.00, 0.00, -0.00, -1.00, 471.2, 189.0)"> </text><text xml:space="preserve" font-family="MarkerFelt-Thin" font-size="46.0" fill="#858585" transform="matrix(1.00, 0.00, -0.00, -1.00, 482.7, 189.0)">t</text><text xml:space="preserve" font-family="MarkerFelt-Thin" font-size="46.0" fill="#858585" transform="matrix(1.00, 0.00, -0.00, -1.00, 501.8, 189.0)">h</text><text xml:space="preserve" font-family="MarkerFelt-Thin" font-size="46.0" fill="#858585" transform="matrix(1.00, 0.00, -0.00, -1.00, 525.5, 189.0)">e</text><text xml:space="preserve" font-family="MarkerFelt-Thin" font-size="46.0" fill="#858585" transform="matrix(1.00, 0.00, -0.00, -1.00, 542.9, 189.0)"> </text><text xml:space="preserve" font-family="MarkerFelt-Thin" font-size="46.0" fill="#858585" transform="matrix(1.00, 0.00, -0.00, -1.00, 554.4, 189.0)">M</text><text xml:space="preserve" font-family="MarkerFelt-Thin" font-size="46.0" fill="#858585" transform="matrix(1.00, 0.00, -0.00, -1.00, 598.2, 189.0)">E</text><text xml:space="preserve" font-family="MarkerFelt-Thin" font-size="46.0" fill="#858585" transform="matrix(1.00, 0.00, -0.00, -1.00, 618.0, 189.0)">G</text><text xml:space="preserve" font-family="MarkerFelt-Thin" font-size="46.0" fill="#858585" transform="matrix(1.00, 0.00, -0.00, -1.00, 640.5, 189.0)">A</text><text xml:space="preserve" font-family="MarkerFelt-Thin" font-size="46.0" fill="#858585" transform="matrix(1.00, 0.00, -0.00, -1.00, 669.0, 189.0)"> </text><text xml:space="preserve" font-family="MarkerFelt-Thin" font-size="46.0" fill="#858585" transform="matrix(1.00, 0.00, -0.00, -1.00, 680.5, 189.0)">a</text><text xml:space="preserve" font-family="MarkerFelt-Thin" font-size="46.0" fill="#858585" transform="matrix(1.00, 0.00, -0.00, -1.00, 703.8, 189.0)">l</text><text xml:space="preserve" font-family="MarkerFelt-Thin" font-size="46.0" fill="#858585" transform="matrix(1.00, 0.00, -0.00, -1.00, 714.5, 189.0)">g</text><text xml:space="preserve" font-family="MarkerFelt-Thin" font-size="46.0" fill="#858585" transform="matrix(1.00, 0.00, -0.00, -1.00, 735.8, 189.0)">o</text><text xml:space="preserve" font-family="MarkerFelt-Thin" font-size="46.0" fill="#858585" transform="matrix(1.00, 0.00, -0.00, -1.00, 756.4, 189.0)">r</text><text xml:space="preserve" font-family="MarkerFelt-Thin" font-size="46.0" fill="#858585" transform="matrix(1.00, 0.00, -0.00, -1.00, 776.7, 189.0)">i</text><text xml:space="preserve" font-family="MarkerFelt-Thin" font-size="46.0" fill="#858585" transform="matrix(1.00, 0.00, -0.00, -1.00, 788.9, 189.0)">t</text><text xml:space="preserve" font-family="MarkerFelt-Thin" font-size="46.0" fill="#858585" transform="matrix(1.00, 0.00, -0.00, -1.00, 808.0, 189.0)">h</text><text xml:space="preserve" font-family="MarkerFelt-Thin" font-size="46.0" fill="#858585" transform="matrix(1.00, 0.00, -0.00, -1.00, 830.7, 189.0)">m</text><text xml:space="preserve" font-family="MarkerFelt-Thin" font-size="46.0" fill="#858585" transform="matrix(1.00, 0.00, -0.00, -1.00, 863.8, 189.0)"> </text><text xml:space="preserve" font-family="MarkerFelt-Thin" font-size="46.0" fill="#858585" transform="matrix(1.00, 0.00, -0.00, -1.00, 875.3, 189.0)">o</text><text xml:space="preserve" font-family="MarkerFelt-Thin" font-size="46.0" fill="#858585" transform="matrix(1.00, 0.00, -0.00, -1.00, 896.2, 189.0)">n</text><text xml:space="preserve" font-family="MarkerFelt-Thin" font-size="46.0" fill="#858585" transform="matrix(1.00, 0.00, -0.00, -1.00, 918.7, 189.0)"> </text><text xml:space="preserve" font-family="MarkerFelt-Thin" font-size="46.0" fill="#858585" transform="matrix(1.00, 0.00, -0.00, -1.00, 154.0, 139.0)">i</text><text xml:space="preserve" font-family="MarkerFelt-Thin" font-size="46.0" fill="#858585" transform="matrix(1.00, 0.00, -0.00, -1.00, 166.2, 139.0)">t</text></g></svg>