<?xml version="1.0" encoding="UTF-8" standalone="no"?><svg xmlns="http://www.w3.org/2000/svg" xmlns:xlink="http://www.w3.org/1999/xlink" clip-rule="evenodd" stroke-miterlimit="4.00" viewBox="0 0 1024 768"><desc>SVG generated by Keynote</desc><defs></defs><g transform="matrix(1.00, 0.00, -0.00, -1.00, 0.0, 768.0)"><path d="M 0.0 768.0 L 1024.0 768.0 L 1024.0 0.0 L 0.0 0.0 Z M 0.0 768.0 " fill="#FEFFFF"></path><text xml:space="preserve" font-family="Helvetica-Light" font-size="80.0" fill="#000000" transform="matrix(1.00, 0.00, -0.00, -1.00, 278.0, 667.0)">S</text><text xml:space="preserve" font-family="Helvetica-Light" font-size="80.0" fill="#000000" transform="matrix(1.00, 0.00, -0.00, -1.00, 326.9, 667.0)">t</text><text xml:space="preserve" font-family="Helvetica-Light" font-size="80.0" fill="#000000" transform="matrix(1.00, 0.00, -0.00, -1.00, 349.1, 667.0)">a</text><text xml:space="preserve" font-family="Helvetica-Light" font-size="80.0" fill="#000000" transform="matrix(1.00, 0.00, -0.00, -1.00, 393.6, 667.0)">r</text><text xml:space="preserve" font-family="Helvetica-Light" font-size="80.0" fill="#000000" transform="matrix(1.00, 0.00, -0.00, -1.00, 421.7, 667.0)">t</text><text xml:space="preserve" font-family="Helvetica-Light" font-size="80.0" fill="#000000" transform="matrix(1.00, 0.00, -0.00, -1.00, 443.9, 667.0)">i</text><text xml:space="preserve" font-family="Helvetica-Light" font-size="80.0" fill="#000000" transform="matrix(1.00, 0.00, -0.00, -1.00, 461.7, 667.0)">n</text><text xml:space="preserve" font-family="Helvetica-Light" font-size="80.0" fill="#000000" transform="matrix(1.00, 0.00, -0.00, -1.00, 506.2, 667.0)">g</text><text xml:space="preserve" font-family="Helvetica-Light" font-size="80.0" fill="#000000" transform="matrix(1.00, 0.00, -0.00, -1.00, 555.0, 667.0)"> </text><text xml:space="preserve" font-family="Helvetica-Light" font-size="80.0" fill="#000000" transform="matrix(1.00, 0.00, -0.00, -1.00, 577.3, 667.0)">D</text><text xml:space="preserve" font-family="Helvetica-Light" font-size="80.0" fill="#000000" transform="matrix(1.00, 0.00, -0.00, -1.00, 635.0, 667.0)">a</text><text xml:space="preserve" font-family="Helvetica-Light" font-size="80.0" fill="#000000" transform="matrix(1.00, 0.00, -0.00, -1.00, 679.5, 667.0)">t</text><text xml:space="preserve" font-family="Helvetica-Light" font-size="80.0" fill="#000000" transform="matrix(1.00, 0.00, -0.00, -1.00, 701.8, 667.0)">a</text><text xml:space="preserve" font-family="CourierNewPSMT" font-size="42.0" fill="#AAAAAA" transform="matrix(1.00, 0.00, -0.00, -1.00, 20.0, 591.0)"> </text><text xml:space="preserve" font-family="CourierNewPSMT" font-size="42.0" fill="#AAAAAA" transform="matrix(1.00, 0.00, -0.00, -1.00, 45.2, 591.0)"> </text><text xml:space="preserve" font-family="CourierNewPSMT" font-size="42.0" fill="#AAAAAA" transform="matrix(1.00, 0.00, -0.00, -1.00, 70.4, 591.0)"> </text><text xml:space="preserve" font-family="CourierNewPSMT" font-size="42.0" fill="#AAAAAA" transform="matrix(1.00, 0.00, -0.00, -1.00, 95.6, 591.0)"> </text><text xml:space="preserve" font-family="CourierNewPSMT" font-size="42.0" fill="#AAAAAA" transform="matrix(1.00, 0.00, -0.00, -1.00, 120.8, 591.0)">1</text><text xml:space="preserve" font-family="CourierNewPSMT" font-size="42.0" fill="#AAAAAA" transform="matrix(1.00, 0.00, -0.00, -1.00, 146.0, 591.0)"> </text><text xml:space="preserve" font-family="CourierNewPSMT" font-size="42.0" fill="#431479" transform="matrix(1.00, 0.00, -0.00, -1.00, 171.2, 591.0)">#</text><text xml:space="preserve" font-family="CourierNewPSMT" font-size="42.0" fill="#676767" transform="matrix(1.00, 0.00, -0.00, -1.00, 196.4, 591.0)">{</text><text xml:space="preserve" font-family="CourierNewPSMT" font-size="42.0" fill="#676767" transform="matrix(1.00, 0.00, -0.00, -1.00, 221.6, 591.0)">{</text><text xml:space="preserve" font-family="CourierNewPSMT" font-size="42.0" fill="#676767" transform="matrix(1.00, 0.00, -0.00, -1.00, 246.8, 591.0)"> </text><text xml:space="preserve" font-family="CourierNewPSMT" font-size="42.0" fill="#676767" transform="matrix(1.00, 0.00, -0.00, -1.00, 272.1, 591.0)">:</text><text xml:space="preserve" font-family="CourierNewPSMT" font-size="42.0" fill="#431479" transform="matrix(1.00, 0.00, -0.00, -1.00, 297.2, 591.0)">n</text><text xml:space="preserve" font-family="CourierNewPSMT" font-size="42.0" fill="#431479" transform="matrix(1.00, 0.00, -0.00, -1.00, 322.5, 591.0)">a</text><text xml:space="preserve" font-family="CourierNewPSMT" font-size="42.0" fill="#431479" transform="matrix(1.00, 0.00, -0.00, -1.00, 347.7, 591.0)">m</text><text xml:space="preserve" font-family="CourierNewPSMT" font-size="42.0" fill="#431479" transform="matrix(1.00, 0.00, -0.00, -1.00, 372.9, 591.0)">e</text><text xml:space="preserve" font-family="CourierNewPSMT" font-size="42.0" fill="#000000" transform="matrix(1.00, 0.00, -0.00, -1.00, 398.1, 591.0)"> </text><text xml:space="preserve" font-family="CourierNewPSMT" font-size="42.0" fill="#1A76B6" transform="matrix(1.00, 0.00, -0.00, -1.00, 423.3, 591.0)">"</text><text xml:space="preserve" font-family="CourierNewPSMT" font-size="42.0" fill="#1A76B6" transform="matrix(1.00, 0.00, -0.00, -1.00, 448.5, 591.0)">M</text><text xml:space="preserve" font-family="CourierNewPSMT" font-size="42.0" fill="#1A76B6" transform="matrix(1.00, 0.00, -0.00, -1.00, 473.7, 591.0)">a</text><text xml:space="preserve" font-family="CourierNewPSMT" font-size="42.0" fill="#1A76B6" transform="matrix(1.00, 0.00, -0.00, -1.00, 498.9, 591.0)">r</text><text xml:space="preserve" font-family="CourierNewPSMT" font-size="42.0" fill="#1A76B6" transform="matrix(1.00, 0.00, -0.00, -1.00, 524.1, 591.0)">k</text><text xml:space="preserve" font-family="CourierNewPSMT" font-size="42.0" fill="#1A76B6" transform="matrix(1.00, 0.00, -0.00, -1.00, 549.3, 591.0)">"</text><text xml:space="preserve" font-family="CourierNewPSMT" font-size="42.0" fill="#000000" transform="matrix(1.00, 0.00, -0.00, -1.00, 574.5, 591.0)"> </text><text xml:space="preserve" font-family="CourierNewPSMT" font-size="42.0" fill="#676767" transform="matrix(1.00, 0.00, -0.00, -1.00, 599.7, 591.0)">:</text><text xml:space="preserve" font-family="CourierNewPSMT" font-size="42.0" fill="#431479" transform="matrix(1.00, 0.00, -0.00, -1.00, 624.9, 591.0)">c</text><text xml:space="preserve" font-family="CourierNewPSMT" font-size="42.0" fill="#431479" transform="matrix(1.00, 0.00, -0.00, -1.00, 650.1, 591.0)">o</text><text xml:space="preserve" font-family="CourierNewPSMT" font-size="42.0" fill="#431479" transform="matrix(1.00, 0.00, -0.00, -1.00, 675.3, 591.0)">l</text><text xml:space="preserve" font-family="CourierNewPSMT" font-size="42.0" fill="#431479" transform="matrix(1.00, 0.00, -0.00, -1.00, 700.5, 591.0)">o</text><text xml:space="preserve" font-family="CourierNewPSMT" font-size="42.0" fill="#431479" transform="matrix(1.00, 0.00, -0.00, -1.00, 725.7, 591.0)">r</text><text xml:space="preserve" font-family="CourierNewPSMT" font-size="42.0" fill="#000000" transform="matrix(1.00, 0.00, -0.00, -1.00, 750.9, 591.0)"> </text><text xml:space="preserve" font-family="CourierNewPSMT" font-size="42.0" fill="#676767" transform="matrix(1.00, 0.00, -0.00, -1.00, 776.1, 591.0)">:</text><text xml:space="preserve" font-family="CourierNewPSMT" font-size="42.0" fill="#431479" transform="matrix(1.00, 0.00, -0.00, -1.00, 801.3, 591.0)">g</text><text xml:space="preserve" font-family="CourierNewPSMT" font-size="42.0" fill="#431479" transform="matrix(1.00, 0.00, -0.00, -1.00, 826.5, 591.0)">r</text><text xml:space="preserve" font-family="CourierNewPSMT" font-size="42.0" fill="#431479" transform="matrix(1.00, 0.00, -0.00, -1.00, 851.7, 591.0)">e</text><text xml:space="preserve" font-family="CourierNewPSMT" font-size="42.0" fill="#431479" transform="matrix(1.00, 0.00, -0.00, -1.00, 877.0, 591.0)">e</text><text xml:space="preserve" font-family="CourierNewPSMT" font-size="42.0" fill="#431479" transform="matrix(1.00, 0.00, -0.00, -1.00, 902.2, 591.0)">n</text><text xml:space="preserve" font-family="CourierNewPSMT" font-size="42.0" fill="#000000" transform="matrix(1.00, 0.00, -0.00, -1.00, 927.3, 591.0)"> </text><text xml:space="preserve" font-family="CourierNewPSMT" font-size="42.0" fill="#676767" transform="matrix(1.00, 0.00, -0.00, -1.00, 952.6, 591.0)">}</text><text xml:space="preserve" font-family="CourierNewPSMT" font-size="42.0" fill="#000000" transform="matrix(1.00, 0.00, -0.00, -1.00, 977.8, 591.0)"> </text><text xml:space="preserve" font-family="CourierNewPSMT" font-size="42.0" fill="#AAAAAA" transform="matrix(1.00, 0.00, -0.00, -1.00, 20.0, 543.0)"> </text><text xml:space="preserve" font-family="CourierNewPSMT" font-size="42.0" fill="#AAAAAA" transform="matrix(1.00, 0.00, -0.00, -1.00, 45.2, 543.0)"> </text><text xml:space="preserve" font-family="CourierNewPSMT" font-size="42.0" fill="#AAAAAA" transform="matrix(1.00, 0.00, -0.00, -1.00, 70.4, 543.0)"> </text><text xml:space="preserve" font-family="CourierNewPSMT" font-size="42.0" fill="#AAAAAA" transform="matrix(1.00, 0.00, -0.00, -1.00, 95.6, 543.0)"> </text><text xml:space="preserve" font-family="CourierNewPSMT" font-size="42.0" fill="#AAAAAA" transform="matrix(1.00, 0.00, -0.00, -1.00, 120.8, 543.0)">2</text><text xml:space="preserve" font-family="CourierNewPSMT" font-size="42.0" fill="#AAAAAA" transform="matrix(1.00, 0.00, -0.00, -1.00, 146.0, 543.0)"> </text><text xml:space="preserve" font-family="CourierNewPSMT" font-size="42.0" fill="#000000" transform="matrix(1.00, 0.00, -0.00, -1.00, 171.2, 543.0)"> </text><text xml:space="preserve" font-family="CourierNewPSMT" font-size="42.0" fill="#000000" transform="matrix(1.00, 0.00, -0.00, -1.00, 196.4, 543.0)"> </text><text xml:space="preserve" font-family="CourierNewPSMT" font-size="42.0" fill="#676767" transform="matrix(1.00, 0.00, -0.00, -1.00, 221.6, 543.0)">{</text><text xml:space="preserve" font-family="CourierNewPSMT" font-size="42.0" fill="#676767" transform="matrix(1.00, 0.00, -0.00, -1.00, 246.8, 543.0)"> </text><text xml:space="preserve" font-family="CourierNewPSMT" font-size="42.0" fill="#676767" transform="matrix(1.00, 0.00, -0.00, -1.00, 272.0, 543.0)">:</text><text xml:space="preserve" font-family="CourierNewPSMT" font-size="42.0" fill="#431479" transform="matrix(1.00, 0.00, -0.00, -1.00, 297.2, 543.0)">n</text><text xml:space="preserve" font-family="CourierNewPSMT" font-size="42.0" fill="#431479" transform="matrix(1.00, 0.00, -0.00, -1.00, 322.5, 543.0)">a</text><text xml:space="preserve" font-family="CourierNewPSMT" font-size="42.0" fill="#431479" transform="matrix(1.00, 0.00, -0.00, -1.00, 347.7, 543.0)">m</text><text xml:space="preserve" font-family="CourierNewPSMT" font-size="42.0" fill="#431479" transform="matrix(1.00, 0.00, -0.00, -1.00, 372.9, 543.0)">e</text><text xml:space="preserve" font-family="CourierNewPSMT" font-size="42.0" fill="#000000" transform="matrix(1.00, 0.00, -0.00, -1.00, 398.1, 543.0)"> </text><text xml:space="preserve" font-family="CourierNewPSMT" font-size="42.0" fill="#1A76B6" transform="matrix(1.00, 0.00, -0.00, -1.00, 423.3, 543.0)">"</text><text xml:space="preserve" font-family="CourierNewPSMT" font-size="42.0" fill="#1A76B6" transform="matrix(1.00, 0.00, -0.00, -1.00, 448.5, 543.0)">B</text><text xml:space="preserve" font-family="CourierNewPSMT" font-size="42.0" fill="#1A76B6" transform="matrix(1.00, 0.00, -0.00, -1.00, 473.7, 543.0)">o</text><text xml:space="preserve" font-family="CourierNewPSMT" font-size="42.0" fill="#1A76B6" transform="matrix(1.00, 0.00, -0.00, -1.00, 498.9, 543.0)">b</text><text xml:space="preserve" font-family="CourierNewPSMT" font-size="42.0" fill="#1A76B6" transform="matrix(1.00, 0.00, -0.00, -1.00, 524.1, 543.0)">"</text><text xml:space="preserve" font-family="CourierNewPSMT" font-size="42.0" fill="#000000" transform="matrix(1.00, 0.00, -0.00, -1.00, 549.3, 543.0)"> </text><text xml:space="preserve" font-family="CourierNewPSMT" font-size="42.0" fill="#676767" transform="matrix(1.00, 0.00, -0.00, -1.00, 574.5, 543.0)">:</text><text xml:space="preserve" font-family="CourierNewPSMT" font-size="42.0" fill="#431479" transform="matrix(1.00, 0.00, -0.00, -1.00, 599.7, 543.0)">c</text><text xml:space="preserve" font-family="CourierNewPSMT" font-size="42.0" fill="#431479" transform="matrix(1.00, 0.00, -0.00, -1.00, 624.9, 543.0)">o</text><text xml:space="preserve" font-family="CourierNewPSMT" font-size="42.0" fill="#431479" transform="matrix(1.00, 0.00, -0.00, -1.00, 650.1, 543.0)">l</text><text xml:space="preserve" font-family="CourierNewPSMT" font-size="42.0" fill="#431479" transform="matrix(1.00, 0.00, -0.00, -1.00, 675.3, 543.0)">o</text><text xml:space="preserve" font-family="CourierNewPSMT" font-size="42.0" fill="#431479" transform="matrix(1.00, 0.00, -0.00, -1.00, 700.5, 543.0)">r</text><text xml:space="preserve" font-family="CourierNewPSMT" font-size="42.0" fill="#000000" transform="matrix(1.00, 0.00, -0.00, -1.00, 725.7, 543.0)"> </text><text xml:space="preserve" font-family="CourierNewPSMT" font-size="42.0" fill="#676767" transform="matrix(1.00, 0.00, -0.00, -1.00, 750.9, 543.0)">:</text><text xml:space="preserve" font-family="CourierNewPSMT" font-size="42.0" fill="#431479" transform="matrix(1.00, 0.00, -0.00, -1.00, 776.1, 543.0)">y</text><text xml:space="preserve" font-family="CourierNewPSMT" font-size="42.0" fill="#431479" transform="matrix(1.00, 0.00, -0.00, -1.00, 801.3, 543.0)">e</text><text xml:space="preserve" font-family="CourierNewPSMT" font-size="42.0" fill="#431479" transform="matrix(1.00, 0.00, -0.00, -1.00, 826.5, 543.0)">l</text><text xml:space="preserve" font-family="CourierNewPSMT" font-size="42.0" fill="#431479" transform="matrix(1.00, 0.00, -0.00, -1.00, 851.7, 543.0)">l</text><text xml:space="preserve" font-family="CourierNewPSMT" font-size="42.0" fill="#431479" transform="matrix(1.00, 0.00, -0.00, -1.00, 877.0, 543.0)">o</text><text xml:space="preserve" font-family="CourierNewPSMT" font-size="42.0" fill="#431479" transform="matrix(1.00, 0.00, -0.00, -1.00, 902.2, 543.0)">w</text><text xml:space="preserve" font-family="CourierNewPSMT" font-size="42.0" fill="#000000" transform="matrix(1.00, 0.00, -0.00, -1.00, 927.3, 543.0)"> </text><text xml:space="preserve" font-family="CourierNewPSMT" font-size="42.0" fill="#676767" transform="matrix(1.00, 0.00, -0.00, -1.00, 952.6, 543.0)">}</text><text xml:space="preserve" font-family="CourierNewPSMT" font-size="42.0" fill="#000000" transform="matrix(1.00, 0.00, -0.00, -1.00, 977.8, 543.0)"> </text><text xml:space="preserve" font-family="CourierNewPSMT" font-size="42.0" fill="#AAAAAA" transform="matrix(1.00, 0.00, -0.00, -1.00, 20.0, 495.0)"> </text><text xml:space="preserve" font-family="CourierNewPSMT" font-size="42.0" fill="#AAAAAA" transform="matrix(1.00, 0.00, -0.00, -1.00, 45.2, 495.0)"> </text><text xml:space="preserve" font-family="CourierNewPSMT" font-size="42.0" fill="#AAAAAA" transform="matrix(1.00, 0.00, -0.00, -1.00, 70.4, 495.0)"> </text><text xml:space="preserve" font-family="CourierNewPSMT" font-size="42.0" fill="#AAAAAA" transform="matrix(1.00, 0.00, -0.00, -1.00, 95.6, 495.0)"> </text><text xml:space="preserve" font-family="CourierNewPSMT" font-size="42.0" fill="#AAAAAA" transform="matrix(1.00, 0.00, -0.00, -1.00, 120.8, 495.0)">3</text><text xml:space="preserve" font-family="CourierNewPSMT" font-size="42.0" fill="#AAAAAA" transform="matrix(1.00, 0.00, -0.00, -1.00, 146.0, 495.0)"> </text><text xml:space="preserve" font-family="CourierNewPSMT" font-size="42.0" fill="#000000" transform="matrix(1.00, 0.00, -0.00, -1.00, 171.2, 495.0)"> </text><text xml:space="preserve" font-family="CourierNewPSMT" font-size="42.0" fill="#000000" transform="matrix(1.00, 0.00, -0.00, -1.00, 196.4, 495.0)"> </text><text xml:space="preserve" font-family="CourierNewPSMT" font-size="42.0" fill="#676767" transform="matrix(1.00, 0.00, -0.00, -1.00, 221.6, 495.0)">{</text><text xml:space="preserve" font-family="CourierNewPSMT" font-size="42.0" fill="#676767" transform="matrix(1.00, 0.00, -0.00, -1.00, 246.8, 495.0)"> </text><text xml:space="preserve" font-family="CourierNewPSMT" font-size="42.0" fill="#676767" transform="matrix(1.00, 0.00, -0.00, -1.00, 272.0, 495.0)">:</text><text xml:space="preserve" font-family="CourierNewPSMT" font-size="42.0" fill="#431479" transform="matrix(1.00, 0.00, -0.00, -1.00, 297.2, 495.0)">n</text><text xml:space="preserve" font-family="CourierNewPSMT" font-size="42.0" fill="#431479" transform="matrix(1.00, 0.00, -0.00, -1.00, 322.5, 495.0)">a</text><text xml:space="preserve" font-family="CourierNewPSMT" font-size="42.0" fill="#431479" transform="matrix(1.00, 0.00, -0.00, -1.00, 347.7, 495.0)">m</text><text xml:space="preserve" font-family="CourierNewPSMT" font-size="42.0" fill="#431479" transform="matrix(1.00, 0.00, -0.00, -1.00, 372.9, 495.0)">e</text><text xml:space="preserve" font-family="CourierNewPSMT" font-size="42.0" fill="#000000" transform="matrix(1.00, 0.00, -0.00, -1.00, 398.1, 495.0)"> </text><text xml:space="preserve" font-family="CourierNewPSMT" font-size="42.0" fill="#1A76B6" transform="matrix(1.00, 0.00, -0.00, -1.00, 423.3, 495.0)">"</text><text xml:space="preserve" font-family="CourierNewPSMT" font-size="42.0" fill="#1A76B6" transform="matrix(1.00, 0.00, -0.00, -1.00, 448.5, 495.0)">G</text><text xml:space="preserve" font-family="CourierNewPSMT" font-size="42.0" fill="#1A76B6" transform="matrix(1.00, 0.00, -0.00, -1.00, 473.7, 495.0)">e</text><text xml:space="preserve" font-family="CourierNewPSMT" font-size="42.0" fill="#1A76B6" transform="matrix(1.00, 0.00, -0.00, -1.00, 498.9, 495.0)">n</text><text xml:space="preserve" font-family="CourierNewPSMT" font-size="42.0" fill="#1A76B6" transform="matrix(1.00, 0.00, -0.00, -1.00, 524.1, 495.0)">e</text><text xml:space="preserve" font-family="CourierNewPSMT" font-size="42.0" fill="#1A76B6" transform="matrix(1.00, 0.00, -0.00, -1.00, 549.3, 495.0)">"</text><text xml:space="preserve" font-family="CourierNewPSMT" font-size="42.0" fill="#000000" transform="matrix(1.00, 0.00, -0.00, -1.00, 574.5, 495.0)"> </text><text xml:space="preserve" font-family="CourierNewPSMT" font-size="42.0" fill="#676767" transform="matrix(1.00, 0.00, -0.00, -1.00, 599.7, 495.0)">:</text><text xml:space="preserve" font-family="CourierNewPSMT" font-size="42.0" fill="#431479" transform="matrix(1.00, 0.00, -0.00, -1.00, 624.9, 495.0)">c</text><text xml:space="preserve" font-family="CourierNewPSMT" font-size="42.0" fill="#431479" transform="matrix(1.00, 0.00, -0.00, -1.00, 650.1, 495.0)">o</text><text xml:space="preserve" font-family="CourierNewPSMT" font-size="42.0" fill="#431479" transform="matrix(1.00, 0.00, -0.00, -1.00, 675.3, 495.0)">l</text><text xml:space="preserve" font-family="CourierNewPSMT" font-size="42.0" fill="#431479" transform="matrix(1.00, 0.00, -0.00, -1.00, 700.5, 495.0)">o</text><text xml:space="preserve" font-family="CourierNewPSMT" font-size="42.0" fill="#431479" transform="matrix(1.00, 0.00, -0.00, -1.00, 725.7, 495.0)">r</text><text xml:space="preserve" font-family="CourierNewPSMT" font-size="42.0" fill="#000000" transform="matrix(1.00, 0.00, -0.00, -1.00, 750.9, 495.0)"> </text><text xml:space="preserve" font-family="CourierNewPSMT" font-size="42.0" fill="#676767" transform="matrix(1.00, 0.00, -0.00, -1.00, 776.1, 495.0)">:</text><text xml:space="preserve" font-family="CourierNewPSMT" font-size="42.0" fill="#431479" transform="matrix(1.00, 0.00, -0.00, -1.00, 801.3, 495.0)">b</text><text xml:space="preserve" font-family="CourierNewPSMT" font-size="42.0" fill="#431479" transform="matrix(1.00, 0.00, -0.00, -1.00, 826.5, 495.0)">l</text><text xml:space="preserve" font-family="CourierNewPSMT" font-size="42.0" fill="#431479" transform="matrix(1.00, 0.00, -0.00, -1.00, 851.7, 495.0)">u</text><text xml:space="preserve" font-family="CourierNewPSMT" font-size="42.0" fill="#431479" transform="matrix(1.00, 0.00, -0.00, -1.00, 877.0, 495.0)">e</text><text xml:space="preserve" font-family="CourierNewPSMT" font-size="42.0" fill="#000000" transform="matrix(1.00, 0.00, -0.00, -1.00, 902.1, 495.0)"> </text><text xml:space="preserve" font-family="CourierNewPSMT" font-size="42.0" fill="#676767" transform="matrix(1.00, 0.00, -0.00, -1.00, 927.3, 495.0)">}</text><text xml:space="preserve" font-family="CourierNewPSMT" font-size="42.0" fill="#676767" transform="matrix(1.00, 0.00, -0.00, -1.00, 952.6, 495.0)">}</text><text xml:space="preserve" font-family="CourierNewPSMT" font-size="42.0" fill="#000000" transform="matrix(1.00, 0.00, -0.00, -1.00, 977.8, 495.0)"> </text><text xml:space="preserve" font-family="Helvetica-Light" font-size="25.5" fill="#000000" transform="matrix(1.00, 0.00, -0.00, -1.00, 79.0, 317.2)">•</text><text xml:space="preserve" font-family="Helvetica-Light" font-size="34.0" fill="#000000" transform="matrix(1.00, 0.00, -0.00, -1.00, 101.0, 314.0)">G</text><text xml:space="preserve" font-family="Helvetica-Light" font-size="34.0" fill="#000000" transform="matrix(1.00, 0.00, -0.00, -1.00, 127.5, 314.0)">e</text><text xml:space="preserve" font-family="Helvetica-Light" font-size="34.0" fill="#000000" transform="matrix(1.00, 0.00, -0.00, -1.00, 146.4, 314.0)">n</text><text xml:space="preserve" font-family="Helvetica-Light" font-size="34.0" fill="#000000" transform="matrix(1.00, 0.00, -0.00, -1.00, 165.3, 314.0)">e</text><text xml:space="preserve" font-family="Helvetica-Light" font-size="34.0" fill="#000000" transform="matrix(1.00, 0.00, -0.00, -1.00, 184.2, 314.0)">r</text><text xml:space="preserve" font-family="Helvetica-Light" font-size="34.0" fill="#000000" transform="matrix(1.00, 0.00, -0.00, -1.00, 195.5, 314.0)">a</text><text xml:space="preserve" font-family="Helvetica-Light" font-size="34.0" fill="#000000" transform="matrix(1.00, 0.00, -0.00, -1.00, 214.5, 314.0)">t</text><text xml:space="preserve" font-family="Helvetica-Light" font-size="34.0" fill="#000000" transform="matrix(1.00, 0.00, -0.00, -1.00, 223.9, 314.0)">o</text><text xml:space="preserve" font-family="Helvetica-Light" font-size="34.0" fill="#000000" transform="matrix(1.00, 0.00, -0.00, -1.00, 242.8, 314.0)">r</text><text xml:space="preserve" font-family="Helvetica-Light" font-size="34.0" fill="#000000" transform="matrix(1.00, 0.00, -0.00, -1.00, 254.2, 314.0)">s</text><text xml:space="preserve" font-family="Helvetica-Light" font-size="34.0" fill="#000000" transform="matrix(1.00, 0.00, -0.00, -1.00, 271.2, 314.0)"> </text><text xml:space="preserve" font-family="Helvetica-Light" font-size="25.5" fill="#000000" transform="matrix(1.00, 0.00, -0.00, -1.00, 114.0, 249.7)">•</text><text xml:space="preserve" font-family="Helvetica-Light" font-size="34.0" fill="#000000" transform="matrix(1.00, 0.00, -0.00, -1.00, 136.0, 247.0)">T</text><text xml:space="preserve" font-family="Helvetica-Light" font-size="34.0" fill="#000000" transform="matrix(1.00, 0.00, -0.00, -1.00, 154.9, 247.0)">h</text><text xml:space="preserve" font-family="Helvetica-Light" font-size="34.0" fill="#000000" transform="matrix(1.00, 0.00, -0.00, -1.00, 173.8, 247.0)">e</text><text xml:space="preserve" font-family="Helvetica-Light" font-size="34.0" fill="#000000" transform="matrix(1.00, 0.00, -0.00, -1.00, 192.7, 247.0)"> </text><text xml:space="preserve" font-family="Helvetica-Light" font-size="34.0" fill="#000000" transform="matrix(1.00, 0.00, -0.00, -1.00, 202.2, 247.0)">c</text><text xml:space="preserve" font-family="Helvetica-Light" font-size="34.0" fill="#000000" transform="matrix(1.00, 0.00, -0.00, -1.00, 221.1, 247.0)">a</text><text xml:space="preserve" font-family="Helvetica-Light" font-size="34.0" fill="#000000" transform="matrix(1.00, 0.00, -0.00, -1.00, 240.0, 247.0)">r</text><text xml:space="preserve" font-family="Helvetica-Light" font-size="34.0" fill="#000000" transform="matrix(1.00, 0.00, -0.00, -1.00, 250.7, 247.0)">d</text><text xml:space="preserve" font-family="Helvetica-Light" font-size="34.0" fill="#000000" transform="matrix(1.00, 0.00, -0.00, -1.00, 271.5, 247.0)">s</text><text xml:space="preserve" font-family="Helvetica-Light" font-size="34.0" fill="#000000" transform="matrix(1.00, 0.00, -0.00, -1.00, 288.5, 247.0)"> </text><text xml:space="preserve" font-family="Helvetica-Light" font-size="25.5" fill="#000000" transform="matrix(1.00, 0.00, -0.00, -1.00, 114.0, 182.2)">•</text><text xml:space="preserve" font-family="Helvetica-Light" font-size="34.0" fill="#000000" transform="matrix(1.00, 0.00, -0.00, -1.00, 136.0, 179.0)">T</text><text xml:space="preserve" font-family="Helvetica-Light" font-size="34.0" fill="#000000" transform="matrix(1.00, 0.00, -0.00, -1.00, 154.9, 179.0)">h</text><text xml:space="preserve" font-family="Helvetica-Light" font-size="34.0" fill="#000000" transform="matrix(1.00, 0.00, -0.00, -1.00, 173.8, 179.0)">e</text><text xml:space="preserve" font-family="Helvetica-Light" font-size="34.0" fill="#000000" transform="matrix(1.00, 0.00, -0.00, -1.00, 192.7, 179.0)"> </text><text xml:space="preserve" font-family="Helvetica-Light" font-size="34.0" fill="#000000" transform="matrix(1.00, 0.00, -0.00, -1.00, 202.2, 179.0)">b</text><text xml:space="preserve" font-family="Helvetica-Light" font-size="34.0" fill="#000000" transform="matrix(1.00, 0.00, -0.00, -1.00, 223.0, 179.0)">o</text><text xml:space="preserve" font-family="Helvetica-Light" font-size="34.0" fill="#000000" transform="matrix(1.00, 0.00, -0.00, -1.00, 241.9, 179.0)">a</text><text xml:space="preserve" font-family="Helvetica-Light" font-size="34.0" fill="#000000" transform="matrix(1.00, 0.00, -0.00, -1.00, 260.8, 179.0)">r</text><text xml:space="preserve" font-family="Helvetica-Light" font-size="34.0" fill="#000000" transform="matrix(1.00, 0.00, -0.00, -1.00, 271.5, 179.0)">d</text><text xml:space="preserve" font-family="Helvetica-Light" font-size="34.0" fill="#000000" transform="matrix(1.00, 0.00, -0.00, -1.00, 292.3, 179.0)"> </text><text xml:space="preserve" font-family="Helvetica-Light" font-size="25.5" fill="#000000" transform="matrix(1.00, 0.00, -0.00, -1.00, 114.0, 114.8)">•</text><text xml:space="preserve" font-family="Helvetica-Light" font-size="34.0" fill="#000000" transform="matrix(1.00, 0.00, -0.00, -1.00, 136.0, 112.0)">T</text><text xml:space="preserve" font-family="Helvetica-Light" font-size="34.0" fill="#000000" transform="matrix(1.00, 0.00, -0.00, -1.00, 154.9, 112.0)">h</text><text xml:space="preserve" font-family="Helvetica-Light" font-size="34.0" fill="#000000" transform="matrix(1.00, 0.00, -0.00, -1.00, 173.8, 112.0)">e</text><text xml:space="preserve" font-family="Helvetica-Light" font-size="34.0" fill="#000000" transform="matrix(1.00, 0.00, -0.00, -1.00, 192.7, 112.0)"> </text><text xml:space="preserve" font-family="Helvetica-Light" font-size="34.0" fill="#000000" transform="matrix(1.00, 0.00, -0.00, -1.00, 202.2, 112.0)">t</text><text xml:space="preserve" font-family="Helvetica-Light" font-size="34.0" fill="#000000" transform="matrix(1.00, 0.00, -0.00, -1.00, 211.7, 112.0)">u</text><text xml:space="preserve" font-family="Helvetica-Light" font-size="34.0" fill="#000000" transform="matrix(1.00, 0.00, -0.00, -1.00, 230.6, 112.0)">r</text><text xml:space="preserve" font-family="Helvetica-Light" font-size="34.0" fill="#000000" transform="matrix(1.00, 0.00, -0.00, -1.00, 242.5, 112.0)">n</text><text xml:space="preserve" font-family="Helvetica-Light" font-size="34.0" fill="#000000" transform="matrix(1.00, 0.00, -0.00, -1.00, 261.4, 112.0)"> </text><text xml:space="preserve" font-family="Helvetica-Light" font-size="34.0" fill="#000000" transform="matrix(1.00, 0.00, -0.00, -1.00, 270.9, 112.0)">s</text><text xml:space="preserve" font-family="Helvetica-Light" font-size="34.0" fill="#000000" transform="matrix(1.00, 0.00, -0.00, -1.00, 287.9, 112.0)">e</text><text xml:space="preserve" font-family="Helvetica-Light" font-size="34.0" fill="#000000" transform="matrix(1.00, 0.00, -0.00, -1.00, 306.8, 112.0)">q</text><text xml:space="preserve" font-family="Helvetica-Light" font-size="34.0" fill="#000000" transform="matrix(1.00, 0.00, -0.00, -1.00, 327.6, 112.0)">u</text><text xml:space="preserve" font-family="Helvetica-Light" font-size="34.0" fill="#000000" transform="matrix(1.00, 0.00, -0.00, -1.00, 346.5, 112.0)">e</text><text xml:space="preserve" font-family="Helvetica-Light" font-size="34.0" fill="#000000" transform="matrix(1.00, 0.00, -0.00, -1.00, 365.4, 112.0)">n</text><text xml:space="preserve" font-family="Helvetica-Light" font-size="34.0" fill="#000000" transform="matrix(1.00, 0.00, -0.00, -1.00, 384.3, 112.0)">c</text><text xml:space="preserve" font-family="Helvetica-Light" font-size="34.0" fill="#000000" transform="matrix(1.00, 0.00, -0.00, -1.00, 403.3, 112.0)">e</text><text xml:space="preserve" font-family="Helvetica-Light" font-size="34.0" fill="#000000" transform="matrix(1.00, 0.00, -0.00, -1.00, 422.2, 112.0)"> </text><text xml:space="preserve" font-family="Helvetica-Light" font-size="25.5" fill="#000000" transform="matrix(1.00, 0.00, -0.00, -1.00, 79.0, 47.3)">•</text><text xml:space="preserve" font-family="Helvetica-Light" font-size="34.0" fill="#000000" transform="matrix(1.00, 0.00, -0.00, -1.00, 101.0, 44.0)">I</text><text xml:space="preserve" font-family="Helvetica-Light" font-size="34.0" fill="#000000" transform="matrix(1.00, 0.00, -0.00, -1.00, 110.5, 44.0)">n</text><text xml:space="preserve" font-family="Helvetica-Light" font-size="34.0" fill="#000000" transform="matrix(1.00, 0.00, -0.00, -1.00, 129.4, 44.0)">i</text><text xml:space="preserve" font-family="Helvetica-Light" font-size="34.0" fill="#000000" transform="matrix(1.00, 0.00, -0.00, -1.00, 136.9, 44.0)">t</text><text xml:space="preserve" font-family="Helvetica-Light" font-size="34.0" fill="#000000" transform="matrix(1.00, 0.00, -0.00, -1.00, 146.4, 44.0)">i</text><text xml:space="preserve" font-family="Helvetica-Light" font-size="34.0" fill="#000000" transform="matrix(1.00, 0.00, -0.00, -1.00, 153.9, 44.0)">a</text><text xml:space="preserve" font-family="Helvetica-Light" font-size="34.0" fill="#000000" transform="matrix(1.00, 0.00, -0.00, -1.00, 172.9, 44.0)">l</text><text xml:space="preserve" font-family="Helvetica-Light" font-size="34.0" fill="#000000" transform="matrix(1.00, 0.00, -0.00, -1.00, 180.4, 44.0)">i</text><text xml:space="preserve" font-family="Helvetica-Light" font-size="34.0" fill="#000000" transform="matrix(1.00, 0.00, -0.00, -1.00, 188.0, 44.0)">z</text><text xml:space="preserve" font-family="Helvetica-Light" font-size="34.0" fill="#000000" transform="matrix(1.00, 0.00, -0.00, -1.00, 205.0, 44.0)">e</text><text xml:space="preserve" font-family="Helvetica-Light" font-size="34.0" fill="#000000" transform="matrix(1.00, 0.00, -0.00, -1.00, 223.9, 44.0)">r</text><text xml:space="preserve" font-family="Helvetica-Light" font-size="34.0" fill="#000000" transform="matrix(1.00, 0.00, -0.00, -1.00, 235.2, 44.0)"> </text><text xml:space="preserve" font-family="Helvetica-Light" font-size="34.0" fill="#000000" transform="matrix(1.00, 0.00, -0.00, -1.00, 244.7, 44.0)">t</text><text xml:space="preserve" font-family="Helvetica-Light" font-size="34.0" fill="#000000" transform="matrix(1.00, 0.00, -0.00, -1.00, 254.1, 44.0)">h</text><text xml:space="preserve" font-family="Helvetica-Light" font-size="34.0" fill="#000000" transform="matrix(1.00, 0.00, -0.00, -1.00, 273.0, 44.0)">a</text><text xml:space="preserve" font-family="Helvetica-Light" font-size="34.0" fill="#000000" transform="matrix(1.00, 0.00, -0.00, -1.00, 292.0, 44.0)">t</text><text xml:space="preserve" font-family="Helvetica-Light" font-size="34.0" fill="#000000" transform="matrix(1.00, 0.00, -0.00, -1.00, 301.4, 44.0)"> </text><text xml:space="preserve" font-family="Helvetica-Light" font-size="34.0" fill="#000000" transform="matrix(1.00, 0.00, -0.00, -1.00, 310.9, 44.0)">p</text><text xml:space="preserve" font-family="Helvetica-Light" font-size="34.0" fill="#000000" transform="matrix(1.00, 0.00, -0.00, -1.00, 331.7, 44.0)">u</text><text xml:space="preserve" font-family="Helvetica-Light" font-size="34.0" fill="#000000" transform="matrix(1.00, 0.00, -0.00, -1.00, 350.6, 44.0)">t</text><text xml:space="preserve" font-family="Helvetica-Light" font-size="34.0" fill="#000000" transform="matrix(1.00, 0.00, -0.00, -1.00, 360.0, 44.0)">s</text><text xml:space="preserve" font-family="Helvetica-Light" font-size="34.0" fill="#000000" transform="matrix(1.00, 0.00, -0.00, -1.00, 377.0, 44.0)"> </text><text xml:space="preserve" font-family="Helvetica-Light" font-size="34.0" fill="#000000" transform="matrix(1.00, 0.00, -0.00, -1.00, 386.5, 44.0)">e</text><text xml:space="preserve" font-family="Helvetica-Light" font-size="34.0" fill="#000000" transform="matrix(1.00, 0.00, -0.00, -1.00, 405.4, 44.0)">v</text><text xml:space="preserve" font-family="Helvetica-Light" font-size="34.0" fill="#000000" transform="matrix(1.00, 0.00, -0.00, -1.00, 422.4, 44.0)">e</text><text xml:space="preserve" font-family="Helvetica-Light" font-size="34.0" fill="#000000" transform="matrix(1.00, 0.00, -0.00, -1.00, 441.3, 44.0)">r</text><text xml:space="preserve" font-family="Helvetica-Light" font-size="34.0" fill="#000000" transform="matrix(1.00, 0.00, -0.00, -1.00, 453.3, 44.0)">y</text><text xml:space="preserve" font-family="Helvetica-Light" font-size="34.0" fill="#000000" transform="matrix(1.00, 0.00, -0.00, -1.00, 470.3, 44.0)">t</text><text xml:space="preserve" font-family="Helvetica-Light" font-size="34.0" fill="#000000" transform="matrix(1.00, 0.00, -0.00, -1.00, 479.7, 44.0)">h</text><text xml:space="preserve" font-family="Helvetica-Light" font-size="34.0" fill="#000000" transform="matrix(1.00, 0.00, -0.00, -1.00, 498.7, 44.0)">i</text><text xml:space="preserve" font-family="Helvetica-Light" font-size="34.0" fill="#000000" transform="matrix(1.00, 0.00, -0.00, -1.00, 506.2, 44.0)">n</text><text xml:space="preserve" font-family="Helvetica-Light" font-size="34.0" fill="#000000" transform="matrix(1.00, 0.00, -0.00, -1.00, 525.1, 44.0)">g</text><text xml:space="preserve" font-family="Helvetica-Light" font-size="34.0" fill="#000000" transform="matrix(1.00, 0.00, -0.00, -1.00, 545.9, 44.0)"> </text><text xml:space="preserve" font-family="Helvetica-Light" font-size="34.0" fill="#000000" transform="matrix(1.00, 0.00, -0.00, -1.00, 555.4, 44.0)">t</text><text xml:space="preserve" font-family="Helvetica-Light" font-size="34.0" fill="#000000" transform="matrix(1.00, 0.00, -0.00, -1.00, 564.8, 44.0)">o</text><text xml:space="preserve" font-family="Helvetica-Light" font-size="34.0" fill="#000000" transform="matrix(1.00, 0.00, -0.00, -1.00, 583.7, 44.0)">g</text><text xml:space="preserve" font-family="Helvetica-Light" font-size="34.0" fill="#000000" transform="matrix(1.00, 0.00, -0.00, -1.00, 604.5, 44.0)">e</text><text xml:space="preserve" font-family="Helvetica-Light" font-size="34.0" fill="#000000" transform="matrix(1.00, 0.00, -0.00, -1.00, 623.4, 44.0)">t</text><text xml:space="preserve" font-family="Helvetica-Light" font-size="34.0" fill="#000000" transform="matrix(1.00, 0.00, -0.00, -1.00, 632.9, 44.0)">h</text><text xml:space="preserve" font-family="Helvetica-Light" font-size="34.0" fill="#000000" transform="matrix(1.00, 0.00, -0.00, -1.00, 651.8, 44.0)">e</text><text xml:space="preserve" font-family="Helvetica-Light" font-size="34.0" fill="#000000" transform="matrix(1.00, 0.00, -0.00, -1.00, 670.7, 44.0)">r</text><text xml:space="preserve" font-family="Helvetica-Light" font-size="80.0" fill="#000000" transform="matrix(1.00, 0.00, -0.00, -1.00, 164.0, 387.0)">R</text><text xml:space="preserve" font-family="Helvetica-Light" font-size="80.0" fill="#000000" transform="matrix(1.00, 0.00, -0.00, -1.00, 217.4, 387.0)">e</text><text xml:space="preserve" font-family="Helvetica-Light" font-size="80.0" fill="#000000" transform="matrix(1.00, 0.00, -0.00, -1.00, 261.8, 387.0)">q</text><text xml:space="preserve" font-family="Helvetica-Light" font-size="80.0" fill="#000000" transform="matrix(1.00, 0.00, -0.00, -1.00, 310.7, 387.0)">u</text><text xml:space="preserve" font-family="Helvetica-Light" font-size="80.0" fill="#000000" transform="matrix(1.00, 0.00, -0.00, -1.00, 355.2, 387.0)">i</text><text xml:space="preserve" font-family="Helvetica-Light" font-size="80.0" fill="#000000" transform="matrix(1.00, 0.00, -0.00, -1.00, 373.0, 387.0)">r</text><text xml:space="preserve" font-family="Helvetica-Light" font-size="80.0" fill="#000000" transform="matrix(1.00, 0.00, -0.00, -1.00, 398.2, 387.0)">e</text><text xml:space="preserve" font-family="Helvetica-Light" font-size="80.0" fill="#000000" transform="matrix(1.00, 0.00, -0.00, -1.00, 442.6, 387.0)">d</text><text xml:space="preserve" font-family="Helvetica-Light" font-size="80.0" fill="#000000" transform="matrix(1.00, 0.00, -0.00, -1.00, 491.5, 387.0)"> </text><text xml:space="preserve" font-family="Helvetica-Light" font-size="80.0" fill="#000000" transform="matrix(1.00, 0.00, -0.00, -1.00, 513.8, 387.0)">F</text><text xml:space="preserve" font-family="Helvetica-Light" font-size="80.0" fill="#000000" transform="matrix(1.00, 0.00, -0.00, -1.00, 558.2, 387.0)">u</text><text xml:space="preserve" font-family="Helvetica-Light" font-size="80.0" fill="#000000" transform="matrix(1.00, 0.00, -0.00, -1.00, 602.7, 387.0)">n</text><text xml:space="preserve" font-family="Helvetica-Light" font-size="80.0" fill="#000000" transform="matrix(1.00, 0.00, -0.00, -1.00, 647.2, 387.0)">c</text><text xml:space="preserve" font-family="Helvetica-Light" font-size="80.0" fill="#000000" transform="matrix(1.00, 0.00, -0.00, -1.00, 691.7, 387.0)">t</text><text xml:space="preserve" font-family="Helvetica-Light" font-size="80.0" fill="#000000" transform="matrix(1.00, 0.00, -0.00, -1.00, 713.9, 387.0)">i</text><text xml:space="preserve" font-family="Helvetica-Light" font-size="80.0" fill="#000000" transform="matrix(1.00, 0.00, -0.00, -1.00, 731.7, 387.0)">o</text><text xml:space="preserve" font-family="Helvetica-Light" font-size="80.0" fill="#000000" transform="matrix(1.00, 0.00, -0.00, -1.00, 776.2, 387.0)">n</text><text xml:space="preserve" font-family="Helvetica-Light" font-size="80.0" fill="#000000" transform="matrix(1.00, 0.00, -0.00, -1.00, 820.6, 387.0)">s</text></g></svg>