<?xml version="1.0" encoding="UTF-8" standalone="no"?><svg xmlns="http://www.w3.org/2000/svg" xmlns:xlink="http://www.w3.org/1999/xlink" clip-rule="evenodd" stroke-miterlimit="4.00" viewBox="0 0 1024 768"><desc>SVG generated by Keynote</desc><defs></defs><g transform="matrix(1.00, 0.00, -0.00, -1.00, 0.0, 768.0)"><path d="M 0.0 768.0 L 1024.0 768.0 L 1024.0 0.0 L 0.0 0.0 Z M 0.0 768.0 " fill="#FEFFFF"></path><text xml:space="preserve" font-family="Helvetica-Light" font-size="80.0" fill="#000000" transform="matrix(1.00, 0.00, -0.00, -1.00, 127.0, 618.0)">D</text><text xml:space="preserve" font-family="Helvetica-Light" font-size="80.0" fill="#000000" transform="matrix(1.00, 0.00, -0.00, -1.00, 184.8, 618.0)">e</text><text xml:space="preserve" font-family="Helvetica-Light" font-size="80.0" fill="#000000" transform="matrix(1.00, 0.00, -0.00, -1.00, 229.2, 618.0)">c</text><text xml:space="preserve" font-family="Helvetica-Light" font-size="80.0" fill="#000000" transform="matrix(1.00, 0.00, -0.00, -1.00, 273.7, 618.0)">o</text><text xml:space="preserve" font-family="Helvetica-Light" font-size="80.0" fill="#000000" transform="matrix(1.00, 0.00, -0.00, -1.00, 318.2, 618.0)">m</text><text xml:space="preserve" font-family="Helvetica-Light" font-size="80.0" fill="#000000" transform="matrix(1.00, 0.00, -0.00, -1.00, 384.8, 618.0)">p</text><text xml:space="preserve" font-family="Helvetica-Light" font-size="80.0" fill="#000000" transform="matrix(1.00, 0.00, -0.00, -1.00, 433.7, 618.0)">o</text><text xml:space="preserve" font-family="Helvetica-Light" font-size="80.0" fill="#000000" transform="matrix(1.00, 0.00, -0.00, -1.00, 478.2, 618.0)">s</text><text xml:space="preserve" font-family="Helvetica-Light" font-size="80.0" fill="#000000" transform="matrix(1.00, 0.00, -0.00, -1.00, 518.2, 618.0)">i</text><text xml:space="preserve" font-family="Helvetica-Light" font-size="80.0" fill="#000000" transform="matrix(1.00, 0.00, -0.00, -1.00, 536.0, 618.0)">t</text><text xml:space="preserve" font-family="Helvetica-Light" font-size="80.0" fill="#000000" transform="matrix(1.00, 0.00, -0.00, -1.00, 558.2, 618.0)">i</text><text xml:space="preserve" font-family="Helvetica-Light" font-size="80.0" fill="#000000" transform="matrix(1.00, 0.00, -0.00, -1.00, 576.0, 618.0)">o</text><text xml:space="preserve" font-family="Helvetica-Light" font-size="80.0" fill="#000000" transform="matrix(1.00, 0.00, -0.00, -1.00, 620.4, 618.0)">n</text><text xml:space="preserve" font-family="Helvetica-Light" font-size="80.0" fill="#000000" transform="matrix(1.00, 0.00, -0.00, -1.00, 664.9, 618.0)"> </text><text xml:space="preserve" font-family="Helvetica-Light" font-size="80.0" fill="#000000" transform="matrix(1.00, 0.00, -0.00, -1.00, 687.2, 618.0)">S</text><text xml:space="preserve" font-family="Helvetica-Light" font-size="80.0" fill="#000000" transform="matrix(1.00, 0.00, -0.00, -1.00, 736.0, 618.0)">t</text><text xml:space="preserve" font-family="Helvetica-Light" font-size="80.0" fill="#000000" transform="matrix(1.00, 0.00, -0.00, -1.00, 758.3, 618.0)">a</text><text xml:space="preserve" font-family="Helvetica-Light" font-size="80.0" fill="#000000" transform="matrix(1.00, 0.00, -0.00, -1.00, 802.8, 618.0)">g</text><text xml:space="preserve" font-family="Helvetica-Light" font-size="80.0" fill="#000000" transform="matrix(1.00, 0.00, -0.00, -1.00, 851.6, 618.0)">e</text><text xml:space="preserve" font-family="Helvetica-Light" font-size="23.8" fill="#000000" transform="matrix(1.00, 0.00, -0.00, -1.00, 79.0, 532.0)">•</text><text xml:space="preserve" font-family="Helvetica-Light" font-size="31.7" fill="#000000" transform="matrix(1.00, 0.00, -0.00, -1.00, 110.0, 529.0)">S</text><text xml:space="preserve" font-family="Helvetica-Light" font-size="31.7" fill="#000000" transform="matrix(1.00, 0.00, -0.00, -1.00, 129.4, 529.0)">o</text><text xml:space="preserve" font-family="Helvetica-Light" font-size="31.7" fill="#000000" transform="matrix(1.00, 0.00, -0.00, -1.00, 147.0, 529.0)">m</text><text xml:space="preserve" font-family="Helvetica-Light" font-size="31.7" fill="#000000" transform="matrix(1.00, 0.00, -0.00, -1.00, 173.4, 529.0)">e</text><text xml:space="preserve" font-family="Helvetica-Light" font-size="31.7" fill="#000000" transform="matrix(1.00, 0.00, -0.00, -1.00, 191.0, 529.0)"> </text><text xml:space="preserve" font-family="Helvetica-Light" font-size="31.7" fill="#000000" transform="matrix(1.00, 0.00, -0.00, -1.00, 199.8, 529.0)">b</text><text xml:space="preserve" font-family="Helvetica-Light" font-size="31.7" fill="#000000" transform="matrix(1.00, 0.00, -0.00, -1.00, 219.1, 529.0)">o</text><text xml:space="preserve" font-family="Helvetica-Light" font-size="31.7" fill="#000000" transform="matrix(1.00, 0.00, -0.00, -1.00, 236.8, 529.0)">a</text><text xml:space="preserve" font-family="Helvetica-Light" font-size="31.7" fill="#000000" transform="matrix(1.00, 0.00, -0.00, -1.00, 254.4, 529.0)">r</text><text xml:space="preserve" font-family="Helvetica-Light" font-size="31.7" fill="#000000" transform="matrix(1.00, 0.00, -0.00, -1.00, 264.3, 529.0)">d</text><text xml:space="preserve" font-family="Helvetica-Light" font-size="31.7" fill="#000000" transform="matrix(1.00, 0.00, -0.00, -1.00, 283.7, 529.0)"> </text><text xml:space="preserve" font-family="Helvetica-Light" font-size="31.7" fill="#000000" transform="matrix(1.00, 0.00, -0.00, -1.00, 292.5, 529.0)">g</text><text xml:space="preserve" font-family="Helvetica-Light" font-size="31.7" fill="#000000" transform="matrix(1.00, 0.00, -0.00, -1.00, 311.9, 529.0)">a</text><text xml:space="preserve" font-family="Helvetica-Light" font-size="31.7" fill="#000000" transform="matrix(1.00, 0.00, -0.00, -1.00, 329.5, 529.0)">m</text><text xml:space="preserve" font-family="Helvetica-Light" font-size="31.7" fill="#000000" transform="matrix(1.00, 0.00, -0.00, -1.00, 355.9, 529.0)">e</text><text xml:space="preserve" font-family="Helvetica-Light" font-size="31.7" fill="#000000" transform="matrix(1.00, 0.00, -0.00, -1.00, 373.5, 529.0)">s</text><text xml:space="preserve" font-family="Helvetica-Light" font-size="31.7" fill="#000000" transform="matrix(1.00, 0.00, -0.00, -1.00, 389.3, 529.0)"> </text><text xml:space="preserve" font-family="Helvetica-Light" font-size="31.7" fill="#000000" transform="matrix(1.00, 0.00, -0.00, -1.00, 398.1, 529.0)">h</text><text xml:space="preserve" font-family="Helvetica-Light" font-size="31.7" fill="#000000" transform="matrix(1.00, 0.00, -0.00, -1.00, 415.7, 529.0)">a</text><text xml:space="preserve" font-family="Helvetica-Light" font-size="31.7" fill="#000000" transform="matrix(1.00, 0.00, -0.00, -1.00, 433.4, 529.0)">v</text><text xml:space="preserve" font-family="Helvetica-Light" font-size="31.7" fill="#000000" transform="matrix(1.00, 0.00, -0.00, -1.00, 449.2, 529.0)">e</text><text xml:space="preserve" font-family="Helvetica-Light" font-size="31.7" fill="#000000" transform="matrix(1.00, 0.00, -0.00, -1.00, 466.8, 529.0)"> </text><text xml:space="preserve" font-family="Helvetica-Light" font-size="31.7" fill="#000000" transform="matrix(1.00, 0.00, -0.00, -1.00, 110.0, 492.0)">c</text><text xml:space="preserve" font-family="Helvetica-Light" font-size="31.7" fill="#000000" transform="matrix(1.00, 0.00, -0.00, -1.00, 127.6, 492.0)">a</text><text xml:space="preserve" font-family="Helvetica-Light" font-size="31.7" fill="#000000" transform="matrix(1.00, 0.00, -0.00, -1.00, 145.2, 492.0)">r</text><text xml:space="preserve" font-family="Helvetica-Light" font-size="31.7" fill="#000000" transform="matrix(1.00, 0.00, -0.00, -1.00, 155.2, 492.0)">d</text><text xml:space="preserve" font-family="Helvetica-Light" font-size="31.7" fill="#000000" transform="matrix(1.00, 0.00, -0.00, -1.00, 174.6, 492.0)">s</text><text xml:space="preserve" font-family="Helvetica-Light" font-size="31.7" fill="#000000" transform="matrix(1.00, 0.00, -0.00, -1.00, 190.4, 492.0)"> </text><text xml:space="preserve" font-family="Helvetica-Light" font-size="23.8" fill="#000000" transform="matrix(1.00, 0.00, -0.00, -1.00, 79.0, 421.0)">•</text><text xml:space="preserve" font-family="Helvetica-Light" font-size="31.7" fill="#000000" transform="matrix(1.00, 0.00, -0.00, -1.00, 110.0, 418.0)">S</text><text xml:space="preserve" font-family="Helvetica-Light" font-size="31.7" fill="#000000" transform="matrix(1.00, 0.00, -0.00, -1.00, 129.4, 418.0)">o</text><text xml:space="preserve" font-family="Helvetica-Light" font-size="31.7" fill="#000000" transform="matrix(1.00, 0.00, -0.00, -1.00, 147.0, 418.0)">m</text><text xml:space="preserve" font-family="Helvetica-Light" font-size="31.7" fill="#000000" transform="matrix(1.00, 0.00, -0.00, -1.00, 173.4, 418.0)">e</text><text xml:space="preserve" font-family="Helvetica-Light" font-size="31.7" fill="#000000" transform="matrix(1.00, 0.00, -0.00, -1.00, 191.0, 418.0)"> </text><text xml:space="preserve" font-family="Helvetica-Light" font-size="31.7" fill="#000000" transform="matrix(1.00, 0.00, -0.00, -1.00, 199.8, 418.0)">c</text><text xml:space="preserve" font-family="Helvetica-Light" font-size="31.7" fill="#000000" transform="matrix(1.00, 0.00, -0.00, -1.00, 217.4, 418.0)">a</text><text xml:space="preserve" font-family="Helvetica-Light" font-size="31.7" fill="#000000" transform="matrix(1.00, 0.00, -0.00, -1.00, 235.0, 418.0)">r</text><text xml:space="preserve" font-family="Helvetica-Light" font-size="31.7" fill="#000000" transform="matrix(1.00, 0.00, -0.00, -1.00, 245.0, 418.0)">d</text><text xml:space="preserve" font-family="Helvetica-Light" font-size="31.7" fill="#000000" transform="matrix(1.00, 0.00, -0.00, -1.00, 264.3, 418.0)"> </text><text xml:space="preserve" font-family="Helvetica-Light" font-size="31.7" fill="#000000" transform="matrix(1.00, 0.00, -0.00, -1.00, 273.2, 418.0)">g</text><text xml:space="preserve" font-family="Helvetica-Light" font-size="31.7" fill="#000000" transform="matrix(1.00, 0.00, -0.00, -1.00, 292.5, 418.0)">a</text><text xml:space="preserve" font-family="Helvetica-Light" font-size="31.7" fill="#000000" transform="matrix(1.00, 0.00, -0.00, -1.00, 310.1, 418.0)">m</text><text xml:space="preserve" font-family="Helvetica-Light" font-size="31.7" fill="#000000" transform="matrix(1.00, 0.00, -0.00, -1.00, 336.5, 418.0)">e</text><text xml:space="preserve" font-family="Helvetica-Light" font-size="31.7" fill="#000000" transform="matrix(1.00, 0.00, -0.00, -1.00, 354.1, 418.0)">s</text><text xml:space="preserve" font-family="Helvetica-Light" font-size="31.7" fill="#000000" transform="matrix(1.00, 0.00, -0.00, -1.00, 370.0, 418.0)"> </text><text xml:space="preserve" font-family="Helvetica-Light" font-size="31.7" fill="#000000" transform="matrix(1.00, 0.00, -0.00, -1.00, 378.8, 418.0)">h</text><text xml:space="preserve" font-family="Helvetica-Light" font-size="31.7" fill="#000000" transform="matrix(1.00, 0.00, -0.00, -1.00, 396.4, 418.0)">a</text><text xml:space="preserve" font-family="Helvetica-Light" font-size="31.7" fill="#000000" transform="matrix(1.00, 0.00, -0.00, -1.00, 414.0, 418.0)">v</text><text xml:space="preserve" font-family="Helvetica-Light" font-size="31.7" fill="#000000" transform="matrix(1.00, 0.00, -0.00, -1.00, 429.8, 418.0)">e</text><text xml:space="preserve" font-family="Helvetica-Light" font-size="31.7" fill="#000000" transform="matrix(1.00, 0.00, -0.00, -1.00, 447.5, 418.0)"> </text><text xml:space="preserve" font-family="Helvetica-Light" font-size="31.7" fill="#000000" transform="matrix(1.00, 0.00, -0.00, -1.00, 110.0, 381.0)">b</text><text xml:space="preserve" font-family="Helvetica-Light" font-size="31.7" fill="#000000" transform="matrix(1.00, 0.00, -0.00, -1.00, 129.4, 381.0)">o</text><text xml:space="preserve" font-family="Helvetica-Light" font-size="31.7" fill="#000000" transform="matrix(1.00, 0.00, -0.00, -1.00, 147.0, 381.0)">a</text><text xml:space="preserve" font-family="Helvetica-Light" font-size="31.7" fill="#000000" transform="matrix(1.00, 0.00, -0.00, -1.00, 164.6, 381.0)">r</text><text xml:space="preserve" font-family="Helvetica-Light" font-size="31.7" fill="#000000" transform="matrix(1.00, 0.00, -0.00, -1.00, 174.6, 381.0)">d</text><text xml:space="preserve" font-family="Helvetica-Light" font-size="31.7" fill="#000000" transform="matrix(1.00, 0.00, -0.00, -1.00, 193.9, 381.0)">s</text><text xml:space="preserve" font-family="Helvetica-Light" font-size="31.7" fill="#000000" transform="matrix(1.00, 0.00, -0.00, -1.00, 209.8, 381.0)"> </text><text xml:space="preserve" font-family="Helvetica-Light" font-size="23.8" fill="#000000" transform="matrix(1.00, 0.00, -0.00, -1.00, 79.0, 310.0)">•</text><text xml:space="preserve" font-family="Helvetica-Light" font-size="31.7" fill="#000000" transform="matrix(1.00, 0.00, -0.00, -1.00, 110.0, 307.0)">S</text><text xml:space="preserve" font-family="Helvetica-Light" font-size="31.7" fill="#000000" transform="matrix(1.00, 0.00, -0.00, -1.00, 129.4, 307.0)">o</text><text xml:space="preserve" font-family="Helvetica-Light" font-size="31.7" fill="#000000" transform="matrix(1.00, 0.00, -0.00, -1.00, 147.0, 307.0)">l</text><text xml:space="preserve" font-family="Helvetica-Light" font-size="31.7" fill="#000000" transform="matrix(1.00, 0.00, -0.00, -1.00, 154.0, 307.0)">u</text><text xml:space="preserve" font-family="Helvetica-Light" font-size="31.7" fill="#000000" transform="matrix(1.00, 0.00, -0.00, -1.00, 171.6, 307.0)">t</text><text xml:space="preserve" font-family="Helvetica-Light" font-size="31.7" fill="#000000" transform="matrix(1.00, 0.00, -0.00, -1.00, 180.4, 307.0)">i</text><text xml:space="preserve" font-family="Helvetica-Light" font-size="31.7" fill="#000000" transform="matrix(1.00, 0.00, -0.00, -1.00, 187.5, 307.0)">o</text><text xml:space="preserve" font-family="Helvetica-Light" font-size="31.7" fill="#000000" transform="matrix(1.00, 0.00, -0.00, -1.00, 205.1, 307.0)">n</text><text xml:space="preserve" font-family="Helvetica-Light" font-size="31.7" fill="#000000" transform="matrix(1.00, 0.00, -0.00, -1.00, 222.7, 307.0)">s</text><text xml:space="preserve" font-family="Helvetica-Light" font-size="31.7" fill="#000000" transform="matrix(1.00, 0.00, -0.00, -1.00, 238.5, 307.0)"> </text><text xml:space="preserve" font-family="Helvetica-Light" font-size="23.8" fill="#000000" transform="matrix(1.00, 0.00, -0.00, -1.00, 114.0, 236.1)">•</text><text xml:space="preserve" font-family="Helvetica-Light" font-size="31.7" fill="#000000" transform="matrix(1.00, 0.00, -0.00, -1.00, 145.0, 233.0)">M</text><text xml:space="preserve" font-family="Helvetica-Light" font-size="31.7" fill="#000000" transform="matrix(1.00, 0.00, -0.00, -1.00, 171.4, 233.0)">u</text><text xml:space="preserve" font-family="Helvetica-Light" font-size="31.7" fill="#000000" transform="matrix(1.00, 0.00, -0.00, -1.00, 189.0, 233.0)">l</text><text xml:space="preserve" font-family="Helvetica-Light" font-size="31.7" fill="#000000" transform="matrix(1.00, 0.00, -0.00, -1.00, 196.0, 233.0)">t</text><text xml:space="preserve" font-family="Helvetica-Light" font-size="31.7" fill="#000000" transform="matrix(1.00, 0.00, -0.00, -1.00, 204.8, 233.0)">i</text><text xml:space="preserve" font-family="Helvetica-Light" font-size="31.7" fill="#000000" transform="matrix(1.00, 0.00, -0.00, -1.00, 211.9, 233.0)">p</text><text xml:space="preserve" font-family="Helvetica-Light" font-size="31.7" fill="#000000" transform="matrix(1.00, 0.00, -0.00, -1.00, 231.2, 233.0)">l</text><text xml:space="preserve" font-family="Helvetica-Light" font-size="31.7" fill="#000000" transform="matrix(1.00, 0.00, -0.00, -1.00, 238.3, 233.0)">e</text><text xml:space="preserve" font-family="Helvetica-Light" font-size="31.7" fill="#000000" transform="matrix(1.00, 0.00, -0.00, -1.00, 255.9, 233.0)"> </text><text xml:space="preserve" font-family="Helvetica-Light" font-size="31.7" fill="#000000" transform="matrix(1.00, 0.00, -0.00, -1.00, 264.7, 233.0)">i</text><text xml:space="preserve" font-family="Helvetica-Light" font-size="31.7" fill="#000000" transform="matrix(1.00, 0.00, -0.00, -1.00, 271.7, 233.0)">n</text><text xml:space="preserve" font-family="Helvetica-Light" font-size="31.7" fill="#000000" transform="matrix(1.00, 0.00, -0.00, -1.00, 289.3, 233.0)">h</text><text xml:space="preserve" font-family="Helvetica-Light" font-size="31.7" fill="#000000" transform="matrix(1.00, 0.00, -0.00, -1.00, 306.9, 233.0)">e</text><text xml:space="preserve" font-family="Helvetica-Light" font-size="31.7" fill="#000000" transform="matrix(1.00, 0.00, -0.00, -1.00, 324.6, 233.0)">r</text><text xml:space="preserve" font-family="Helvetica-Light" font-size="31.7" fill="#000000" transform="matrix(1.00, 0.00, -0.00, -1.00, 335.1, 233.0)">i</text><text xml:space="preserve" font-family="Helvetica-Light" font-size="31.7" fill="#000000" transform="matrix(1.00, 0.00, -0.00, -1.00, 342.1, 233.0)">t</text><text xml:space="preserve" font-family="Helvetica-Light" font-size="31.7" fill="#000000" transform="matrix(1.00, 0.00, -0.00, -1.00, 351.0, 233.0)">a</text><text xml:space="preserve" font-family="Helvetica-Light" font-size="31.7" fill="#000000" transform="matrix(1.00, 0.00, -0.00, -1.00, 368.6, 233.0)">n</text><text xml:space="preserve" font-family="Helvetica-Light" font-size="31.7" fill="#000000" transform="matrix(1.00, 0.00, -0.00, -1.00, 386.2, 233.0)">c</text><text xml:space="preserve" font-family="Helvetica-Light" font-size="31.7" fill="#000000" transform="matrix(1.00, 0.00, -0.00, -1.00, 403.8, 233.0)">e</text><text xml:space="preserve" font-family="Helvetica-Light" font-size="31.7" fill="#000000" transform="matrix(1.00, 0.00, -0.00, -1.00, 421.4, 233.0)"> </text><text xml:space="preserve" font-family="Helvetica-Light" font-size="23.8" fill="#000000" transform="matrix(1.00, 0.00, -0.00, -1.00, 114.0, 162.1)">•</text><text xml:space="preserve" font-family="Helvetica-Light" font-size="31.7" fill="#000000" transform="matrix(1.00, 0.00, -0.00, -1.00, 145.0, 159.0)">S</text><text xml:space="preserve" font-family="Helvetica-Light" font-size="31.7" fill="#000000" transform="matrix(1.00, 0.00, -0.00, -1.00, 164.4, 159.0)">i</text><text xml:space="preserve" font-family="Helvetica-Light" font-size="31.7" fill="#000000" transform="matrix(1.00, 0.00, -0.00, -1.00, 171.4, 159.0)">n</text><text xml:space="preserve" font-family="Helvetica-Light" font-size="31.7" fill="#000000" transform="matrix(1.00, 0.00, -0.00, -1.00, 189.0, 159.0)">g</text><text xml:space="preserve" font-family="Helvetica-Light" font-size="31.7" fill="#000000" transform="matrix(1.00, 0.00, -0.00, -1.00, 208.4, 159.0)">l</text><text xml:space="preserve" font-family="Helvetica-Light" font-size="31.7" fill="#000000" transform="matrix(1.00, 0.00, -0.00, -1.00, 215.4, 159.0)">e</text><text xml:space="preserve" font-family="Helvetica-Light" font-size="31.7" fill="#000000" transform="matrix(1.00, 0.00, -0.00, -1.00, 233.0, 159.0)"> </text><text xml:space="preserve" font-family="Helvetica-Light" font-size="31.7" fill="#000000" transform="matrix(1.00, 0.00, -0.00, -1.00, 241.8, 159.0)">i</text><text xml:space="preserve" font-family="Helvetica-Light" font-size="31.7" fill="#000000" transform="matrix(1.00, 0.00, -0.00, -1.00, 248.8, 159.0)">n</text><text xml:space="preserve" font-family="Helvetica-Light" font-size="31.7" fill="#000000" transform="matrix(1.00, 0.00, -0.00, -1.00, 266.5, 159.0)">h</text><text xml:space="preserve" font-family="Helvetica-Light" font-size="31.7" fill="#000000" transform="matrix(1.00, 0.00, -0.00, -1.00, 284.1, 159.0)">e</text><text xml:space="preserve" font-family="Helvetica-Light" font-size="31.7" fill="#000000" transform="matrix(1.00, 0.00, -0.00, -1.00, 301.7, 159.0)">r</text><text xml:space="preserve" font-family="Helvetica-Light" font-size="31.7" fill="#000000" transform="matrix(1.00, 0.00, -0.00, -1.00, 312.2, 159.0)">i</text><text xml:space="preserve" font-family="Helvetica-Light" font-size="31.7" fill="#000000" transform="matrix(1.00, 0.00, -0.00, -1.00, 319.3, 159.0)">t</text><text xml:space="preserve" font-family="Helvetica-Light" font-size="31.7" fill="#000000" transform="matrix(1.00, 0.00, -0.00, -1.00, 328.1, 159.0)">a</text><text xml:space="preserve" font-family="Helvetica-Light" font-size="31.7" fill="#000000" transform="matrix(1.00, 0.00, -0.00, -1.00, 345.7, 159.0)">n</text><text xml:space="preserve" font-family="Helvetica-Light" font-size="31.7" fill="#000000" transform="matrix(1.00, 0.00, -0.00, -1.00, 363.3, 159.0)">c</text><text xml:space="preserve" font-family="Helvetica-Light" font-size="31.7" fill="#000000" transform="matrix(1.00, 0.00, -0.00, -1.00, 380.9, 159.0)">e</text><text xml:space="preserve" font-family="Helvetica-Light" font-size="31.7" fill="#000000" transform="matrix(1.00, 0.00, -0.00, -1.00, 398.5, 159.0)"> </text><text xml:space="preserve" font-family="Helvetica-Light" font-size="23.8" fill="#000000" transform="matrix(1.00, 0.00, -0.00, -1.00, 114.0, 88.2)">•</text><text xml:space="preserve" font-family="Helvetica-Light" font-size="31.7" fill="#000000" transform="matrix(1.00, 0.00, -0.00, -1.00, 145.0, 85.0)">C</text><text xml:space="preserve" font-family="Helvetica-Light" font-size="31.7" fill="#000000" transform="matrix(1.00, 0.00, -0.00, -1.00, 167.9, 85.0)">o</text><text xml:space="preserve" font-family="Helvetica-Light" font-size="31.7" fill="#000000" transform="matrix(1.00, 0.00, -0.00, -1.00, 185.5, 85.0)">m</text><text xml:space="preserve" font-family="Helvetica-Light" font-size="31.7" fill="#000000" transform="matrix(1.00, 0.00, -0.00, -1.00, 211.9, 85.0)">p</text><text xml:space="preserve" font-family="Helvetica-Light" font-size="31.7" fill="#000000" transform="matrix(1.00, 0.00, -0.00, -1.00, 231.2, 85.0)">o</text><text xml:space="preserve" font-family="Helvetica-Light" font-size="31.7" fill="#000000" transform="matrix(1.00, 0.00, -0.00, -1.00, 248.8, 85.0)">s</text><text xml:space="preserve" font-family="Helvetica-Light" font-size="31.7" fill="#000000" transform="matrix(1.00, 0.00, -0.00, -1.00, 264.7, 85.0)">i</text><text xml:space="preserve" font-family="Helvetica-Light" font-size="31.7" fill="#000000" transform="matrix(1.00, 0.00, -0.00, -1.00, 271.7, 85.0)">t</text><text xml:space="preserve" font-family="Helvetica-Light" font-size="31.7" fill="#000000" transform="matrix(1.00, 0.00, -0.00, -1.00, 280.5, 85.0)">i</text><text xml:space="preserve" font-family="Helvetica-Light" font-size="31.7" fill="#000000" transform="matrix(1.00, 0.00, -0.00, -1.00, 287.6, 85.0)">o</text><text xml:space="preserve" font-family="Helvetica-Light" font-size="31.7" fill="#000000" transform="matrix(1.00, 0.00, -0.00, -1.00, 305.2, 85.0)">n</text><image xlink:href="5C4FB92893634C5875BE50DF9F0142E7.png" width="350.00" height="228.00" transform="matrix(1.00, 0.00, -0.00, -1.00, 613.0, 573.0)"></image><text xml:space="preserve" font-family="Helvetica-Light" font-size="10.0" fill="#000000" transform="matrix(1.00, 0.00, -0.00, -1.00, 721.0, 344.0)">h</text><text xml:space="preserve" font-family="Helvetica-Light" font-size="10.0" fill="#000000" transform="matrix(1.00, 0.00, -0.00, -1.00, 726.6, 344.0)">t</text><text xml:space="preserve" font-family="Helvetica-Light" font-size="10.0" fill="#000000" transform="matrix(1.00, 0.00, -0.00, -1.00, 729.3, 344.0)">t</text><text xml:space="preserve" font-family="Helvetica-Light" font-size="10.0" fill="#000000" transform="matrix(1.00, 0.00, -0.00, -1.00, 732.1, 344.0)">p</text><text xml:space="preserve" font-family="Helvetica-Light" font-size="10.0" fill="#000000" transform="matrix(1.00, 0.00, -0.00, -1.00, 738.2, 344.0)">:</text><text xml:space="preserve" font-family="Helvetica-Light" font-size="10.0" fill="#000000" transform="matrix(1.00, 0.00, -0.00, -1.00, 741.0, 344.0)">/</text><text xml:space="preserve" font-family="Helvetica-Light" font-size="10.0" fill="#000000" transform="matrix(1.00, 0.00, -0.00, -1.00, 743.8, 344.0)">/</text><text xml:space="preserve" font-family="Helvetica-Light" font-size="10.0" fill="#000000" transform="matrix(1.00, 0.00, -0.00, -1.00, 746.6, 344.0)">c</text><text xml:space="preserve" font-family="Helvetica-Light" font-size="10.0" fill="#000000" transform="matrix(1.00, 0.00, -0.00, -1.00, 752.1, 344.0)">f</text><text xml:space="preserve" font-family="Helvetica-Light" font-size="10.0" fill="#000000" transform="matrix(1.00, 0.00, -0.00, -1.00, 754.9, 344.0)">.</text><text xml:space="preserve" font-family="Helvetica-Light" font-size="10.0" fill="#000000" transform="matrix(1.00, 0.00, -0.00, -1.00, 757.7, 344.0)">g</text><text xml:space="preserve" font-family="Helvetica-Light" font-size="10.0" fill="#000000" transform="matrix(1.00, 0.00, -0.00, -1.00, 763.8, 344.0)">e</text><text xml:space="preserve" font-family="Helvetica-Light" font-size="10.0" fill="#000000" transform="matrix(1.00, 0.00, -0.00, -1.00, 769.4, 344.0)">e</text><text xml:space="preserve" font-family="Helvetica-Light" font-size="10.0" fill="#000000" transform="matrix(1.00, 0.00, -0.00, -1.00, 774.9, 344.0)">k</text><text xml:space="preserve" font-family="Helvetica-Light" font-size="10.0" fill="#000000" transform="matrix(1.00, 0.00, -0.00, -1.00, 779.9, 344.0)">d</text><text xml:space="preserve" font-family="Helvetica-Light" font-size="10.0" fill="#000000" transform="matrix(1.00, 0.00, -0.00, -1.00, 786.0, 344.0)">o</text><text xml:space="preserve" font-family="Helvetica-Light" font-size="10.0" fill="#000000" transform="matrix(1.00, 0.00, -0.00, -1.00, 791.6, 344.0)">-</text><text xml:space="preserve" font-family="Helvetica-Light" font-size="10.0" fill="#000000" transform="matrix(1.00, 0.00, -0.00, -1.00, 794.9, 344.0)">i</text><text xml:space="preserve" font-family="Helvetica-Light" font-size="10.0" fill="#000000" transform="matrix(1.00, 0.00, -0.00, -1.00, 797.1, 344.0)">m</text><text xml:space="preserve" font-family="Helvetica-Light" font-size="10.0" fill="#000000" transform="matrix(1.00, 0.00, -0.00, -1.00, 805.5, 344.0)">a</text><text xml:space="preserve" font-family="Helvetica-Light" font-size="10.0" fill="#000000" transform="matrix(1.00, 0.00, -0.00, -1.00, 811.0, 344.0)">g</text><text xml:space="preserve" font-family="Helvetica-Light" font-size="10.0" fill="#000000" transform="matrix(1.00, 0.00, -0.00, -1.00, 817.1, 344.0)">e</text><text xml:space="preserve" font-family="Helvetica-Light" font-size="10.0" fill="#000000" transform="matrix(1.00, 0.00, -0.00, -1.00, 822.7, 344.0)">s</text><text xml:space="preserve" font-family="Helvetica-Light" font-size="10.0" fill="#000000" transform="matrix(1.00, 0.00, -0.00, -1.00, 827.7, 344.0)">.</text><text xml:space="preserve" font-family="Helvetica-Light" font-size="10.0" fill="#000000" transform="matrix(1.00, 0.00, -0.00, -1.00, 830.5, 344.0)">c</text><text xml:space="preserve" font-family="Helvetica-Light" font-size="10.0" fill="#000000" transform="matrix(1.00, 0.00, -0.00, -1.00, 836.0, 344.0)">o</text><text xml:space="preserve" font-family="Helvetica-Light" font-size="10.0" fill="#000000" transform="matrix(1.00, 0.00, -0.00, -1.00, 841.6, 344.0)">m</text><text xml:space="preserve" font-family="Helvetica-Light" font-size="10.0" fill="#000000" transform="matrix(1.00, 0.00, -0.00, -1.00, 849.9, 344.0)">/</text><text xml:space="preserve" font-family="Helvetica-Light" font-size="10.0" fill="#000000" transform="matrix(1.00, 0.00, -0.00, -1.00, 852.7, 344.0)">i</text><text xml:space="preserve" font-family="Helvetica-Light" font-size="10.0" fill="#000000" transform="matrix(1.00, 0.00, -0.00, -1.00, 854.9, 344.0)">m</text><text xml:space="preserve" font-family="Helvetica-Light" font-size="10.0" fill="#000000" transform="matrix(1.00, 0.00, -0.00, -1.00, 863.3, 344.0)">a</text><text xml:space="preserve" font-family="Helvetica-Light" font-size="10.0" fill="#000000" transform="matrix(1.00, 0.00, -0.00, -1.00, 868.8, 344.0)">g</text><text xml:space="preserve" font-family="Helvetica-Light" font-size="10.0" fill="#000000" transform="matrix(1.00, 0.00, -0.00, -1.00, 874.9, 344.0)">e</text><text xml:space="preserve" font-family="Helvetica-Light" font-size="10.0" fill="#000000" transform="matrix(1.00, 0.00, -0.00, -1.00, 880.5, 344.0)">s</text><text xml:space="preserve" font-family="Helvetica-Light" font-size="10.0" fill="#000000" transform="matrix(1.00, 0.00, -0.00, -1.00, 885.5, 344.0)">/</text><text xml:space="preserve" font-family="Helvetica-Light" font-size="10.0" fill="#000000" transform="matrix(1.00, 0.00, -0.00, -1.00, 888.3, 344.0)">p</text><text xml:space="preserve" font-family="Helvetica-Light" font-size="10.0" fill="#000000" transform="matrix(1.00, 0.00, -0.00, -1.00, 894.4, 344.0)">i</text><text xml:space="preserve" font-family="Helvetica-Light" font-size="10.0" fill="#000000" transform="matrix(1.00, 0.00, -0.00, -1.00, 896.6, 344.0)">c</text><text xml:space="preserve" font-family="Helvetica-Light" font-size="10.0" fill="#000000" transform="matrix(1.00, 0.00, -0.00, -1.00, 902.2, 344.0)">7</text><text xml:space="preserve" font-family="Helvetica-Light" font-size="10.0" fill="#000000" transform="matrix(1.00, 0.00, -0.00, -1.00, 907.7, 344.0)">4</text><text xml:space="preserve" font-family="Helvetica-Light" font-size="10.0" fill="#000000" transform="matrix(1.00, 0.00, -0.00, -1.00, 913.3, 344.0)">1</text><text xml:space="preserve" font-family="Helvetica-Light" font-size="10.0" fill="#000000" transform="matrix(1.00, 0.00, -0.00, -1.00, 918.8, 344.0)">4</text><text xml:space="preserve" font-family="Helvetica-Light" font-size="10.0" fill="#000000" transform="matrix(1.00, 0.00, -0.00, -1.00, 924.4, 344.0)">3</text><text xml:space="preserve" font-family="Helvetica-Light" font-size="10.0" fill="#000000" transform="matrix(1.00, 0.00, -0.00, -1.00, 930.0, 344.0)">1</text><text xml:space="preserve" font-family="Helvetica-Light" font-size="10.0" fill="#000000" transform="matrix(1.00, 0.00, -0.00, -1.00, 935.5, 344.0)">_</text><text xml:space="preserve" font-family="Helvetica-Light" font-size="10.0" fill="#000000" transform="matrix(1.00, 0.00, -0.00, -1.00, 940.5, 344.0)">m</text><text xml:space="preserve" font-family="Helvetica-Light" font-size="10.0" fill="#000000" transform="matrix(1.00, 0.00, -0.00, -1.00, 948.9, 344.0)">d</text><text xml:space="preserve" font-family="Helvetica-Light" font-size="10.0" fill="#000000" transform="matrix(1.00, 0.00, -0.00, -1.00, 955.0, 344.0)">.</text><text xml:space="preserve" font-family="Helvetica-Light" font-size="10.0" fill="#000000" transform="matrix(1.00, 0.00, -0.00, -1.00, 957.7, 344.0)">j</text><text xml:space="preserve" font-family="Helvetica-Light" font-size="10.0" fill="#000000" transform="matrix(1.00, 0.00, -0.00, -1.00, 960.0, 344.0)">p</text><text xml:space="preserve" font-family="Helvetica-Light" font-size="10.0" fill="#000000" transform="matrix(1.00, 0.00, -0.00, -1.00, 966.1, 344.0)">g</text><image xlink:href="96992D7170520C4E83064C5A8D548FC9.png" width="317.00" height="238.00" transform="matrix(1.00, 0.00, -0.00, -1.00, 603.0, 326.0)"></image><text xml:space="preserve" font-family="Helvetica-Light" font-size="10.0" fill="#000000" transform="matrix(1.00, 0.00, -0.00, -1.00, 724.0, 70.0)">h</text><text xml:space="preserve" font-family="Helvetica-Light" font-size="10.0" fill="#000000" transform="matrix(1.00, 0.00, -0.00, -1.00, 729.6, 70.0)">t</text><text xml:space="preserve" font-family="Helvetica-Light" font-size="10.0" fill="#000000" transform="matrix(1.00, 0.00, -0.00, -1.00, 732.3, 70.0)">t</text><text xml:space="preserve" font-family="Helvetica-Light" font-size="10.0" fill="#000000" transform="matrix(1.00, 0.00, -0.00, -1.00, 735.1, 70.0)">p</text><text xml:space="preserve" font-family="Helvetica-Light" font-size="10.0" fill="#000000" transform="matrix(1.00, 0.00, -0.00, -1.00, 741.2, 70.0)">:</text><text xml:space="preserve" font-family="Helvetica-Light" font-size="10.0" fill="#000000" transform="matrix(1.00, 0.00, -0.00, -1.00, 744.0, 70.0)">/</text><text xml:space="preserve" font-family="Helvetica-Light" font-size="10.0" fill="#000000" transform="matrix(1.00, 0.00, -0.00, -1.00, 746.8, 70.0)">/</text><text xml:space="preserve" font-family="Helvetica-Light" font-size="10.0" fill="#000000" transform="matrix(1.00, 0.00, -0.00, -1.00, 749.6, 70.0)">c</text><text xml:space="preserve" font-family="Helvetica-Light" font-size="10.0" fill="#000000" transform="matrix(1.00, 0.00, -0.00, -1.00, 755.1, 70.0)">f</text><text xml:space="preserve" font-family="Helvetica-Light" font-size="10.0" fill="#000000" transform="matrix(1.00, 0.00, -0.00, -1.00, 757.9, 70.0)">.</text><text xml:space="preserve" font-family="Helvetica-Light" font-size="10.0" fill="#000000" transform="matrix(1.00, 0.00, -0.00, -1.00, 760.7, 70.0)">g</text><text xml:space="preserve" font-family="Helvetica-Light" font-size="10.0" fill="#000000" transform="matrix(1.00, 0.00, -0.00, -1.00, 766.8, 70.0)">e</text><text xml:space="preserve" font-family="Helvetica-Light" font-size="10.0" fill="#000000" transform="matrix(1.00, 0.00, -0.00, -1.00, 772.4, 70.0)">e</text><text xml:space="preserve" font-family="Helvetica-Light" font-size="10.0" fill="#000000" transform="matrix(1.00, 0.00, -0.00, -1.00, 777.9, 70.0)">k</text><text xml:space="preserve" font-family="Helvetica-Light" font-size="10.0" fill="#000000" transform="matrix(1.00, 0.00, -0.00, -1.00, 782.9, 70.0)">d</text><text xml:space="preserve" font-family="Helvetica-Light" font-size="10.0" fill="#000000" transform="matrix(1.00, 0.00, -0.00, -1.00, 789.0, 70.0)">o</text><text xml:space="preserve" font-family="Helvetica-Light" font-size="10.0" fill="#000000" transform="matrix(1.00, 0.00, -0.00, -1.00, 794.6, 70.0)">-</text><text xml:space="preserve" font-family="Helvetica-Light" font-size="10.0" fill="#000000" transform="matrix(1.00, 0.00, -0.00, -1.00, 797.9, 70.0)">i</text><text xml:space="preserve" font-family="Helvetica-Light" font-size="10.0" fill="#000000" transform="matrix(1.00, 0.00, -0.00, -1.00, 800.1, 70.0)">m</text><text xml:space="preserve" font-family="Helvetica-Light" font-size="10.0" fill="#000000" transform="matrix(1.00, 0.00, -0.00, -1.00, 808.5, 70.0)">a</text><text xml:space="preserve" font-family="Helvetica-Light" font-size="10.0" fill="#000000" transform="matrix(1.00, 0.00, -0.00, -1.00, 814.0, 70.0)">g</text><text xml:space="preserve" font-family="Helvetica-Light" font-size="10.0" fill="#000000" transform="matrix(1.00, 0.00, -0.00, -1.00, 820.1, 70.0)">e</text><text xml:space="preserve" font-family="Helvetica-Light" font-size="10.0" fill="#000000" transform="matrix(1.00, 0.00, -0.00, -1.00, 825.7, 70.0)">s</text><text xml:space="preserve" font-family="Helvetica-Light" font-size="10.0" fill="#000000" transform="matrix(1.00, 0.00, -0.00, -1.00, 830.7, 70.0)">.</text><text xml:space="preserve" font-family="Helvetica-Light" font-size="10.0" fill="#000000" transform="matrix(1.00, 0.00, -0.00, -1.00, 833.5, 70.0)">c</text><text xml:space="preserve" font-family="Helvetica-Light" font-size="10.0" fill="#000000" transform="matrix(1.00, 0.00, -0.00, -1.00, 839.0, 70.0)">o</text><text xml:space="preserve" font-family="Helvetica-Light" font-size="10.0" fill="#000000" transform="matrix(1.00, 0.00, -0.00, -1.00, 844.6, 70.0)">m</text><text xml:space="preserve" font-family="Helvetica-Light" font-size="10.0" fill="#000000" transform="matrix(1.00, 0.00, -0.00, -1.00, 852.9, 70.0)">/</text><text xml:space="preserve" font-family="Helvetica-Light" font-size="10.0" fill="#000000" transform="matrix(1.00, 0.00, -0.00, -1.00, 855.7, 70.0)">i</text><text xml:space="preserve" font-family="Helvetica-Light" font-size="10.0" fill="#000000" transform="matrix(1.00, 0.00, -0.00, -1.00, 857.9, 70.0)">m</text><text xml:space="preserve" font-family="Helvetica-Light" font-size="10.0" fill="#000000" transform="matrix(1.00, 0.00, -0.00, -1.00, 866.3, 70.0)">a</text><text xml:space="preserve" font-family="Helvetica-Light" font-size="10.0" fill="#000000" transform="matrix(1.00, 0.00, -0.00, -1.00, 871.8, 70.0)">g</text><text xml:space="preserve" font-family="Helvetica-Light" font-size="10.0" fill="#000000" transform="matrix(1.00, 0.00, -0.00, -1.00, 877.9, 70.0)">e</text><text xml:space="preserve" font-family="Helvetica-Light" font-size="10.0" fill="#000000" transform="matrix(1.00, 0.00, -0.00, -1.00, 883.5, 70.0)">s</text><text xml:space="preserve" font-family="Helvetica-Light" font-size="10.0" fill="#000000" transform="matrix(1.00, 0.00, -0.00, -1.00, 888.5, 70.0)">/</text><text xml:space="preserve" font-family="Helvetica-Light" font-size="10.0" fill="#000000" transform="matrix(1.00, 0.00, -0.00, -1.00, 891.3, 70.0)">p</text><text xml:space="preserve" font-family="Helvetica-Light" font-size="10.0" fill="#000000" transform="matrix(1.00, 0.00, -0.00, -1.00, 897.4, 70.0)">i</text><text xml:space="preserve" font-family="Helvetica-Light" font-size="10.0" fill="#000000" transform="matrix(1.00, 0.00, -0.00, -1.00, 899.6, 70.0)">c</text><text xml:space="preserve" font-family="Helvetica-Light" font-size="10.0" fill="#000000" transform="matrix(1.00, 0.00, -0.00, -1.00, 905.2, 70.0)">6</text><text xml:space="preserve" font-family="Helvetica-Light" font-size="10.0" fill="#000000" transform="matrix(1.00, 0.00, -0.00, -1.00, 910.7, 70.0)">8</text><text xml:space="preserve" font-family="Helvetica-Light" font-size="10.0" fill="#000000" transform="matrix(1.00, 0.00, -0.00, -1.00, 916.3, 70.0)">8</text><text xml:space="preserve" font-family="Helvetica-Light" font-size="10.0" fill="#000000" transform="matrix(1.00, 0.00, -0.00, -1.00, 921.8, 70.0)">6</text><text xml:space="preserve" font-family="Helvetica-Light" font-size="10.0" fill="#000000" transform="matrix(1.00, 0.00, -0.00, -1.00, 927.4, 70.0)">2</text><text xml:space="preserve" font-family="Helvetica-Light" font-size="10.0" fill="#000000" transform="matrix(1.00, 0.00, -0.00, -1.00, 933.0, 70.0)">0</text><text xml:space="preserve" font-family="Helvetica-Light" font-size="10.0" fill="#000000" transform="matrix(1.00, 0.00, -0.00, -1.00, 938.5, 70.0)">_</text><text xml:space="preserve" font-family="Helvetica-Light" font-size="10.0" fill="#000000" transform="matrix(1.00, 0.00, -0.00, -1.00, 943.5, 70.0)">l</text><text xml:space="preserve" font-family="Helvetica-Light" font-size="10.0" fill="#000000" transform="matrix(1.00, 0.00, -0.00, -1.00, 945.7, 70.0)">g</text><text xml:space="preserve" font-family="Helvetica-Light" font-size="10.0" fill="#000000" transform="matrix(1.00, 0.00, -0.00, -1.00, 951.9, 70.0)">.</text><text xml:space="preserve" font-family="Helvetica-Light" font-size="10.0" fill="#000000" transform="matrix(1.00, 0.00, -0.00, -1.00, 954.6, 70.0)">j</text><text xml:space="preserve" font-family="Helvetica-Light" font-size="10.0" fill="#000000" transform="matrix(1.00, 0.00, -0.00, -1.00, 956.9, 70.0)">p</text><text xml:space="preserve" font-family="Helvetica-Light" font-size="10.0" fill="#000000" transform="matrix(1.00, 0.00, -0.00, -1.00, 963.0, 70.0)">g</text></g></svg>