<?xml version="1.0" encoding="UTF-8" standalone="no"?><svg xmlns="http://www.w3.org/2000/svg" xmlns:xlink="http://www.w3.org/1999/xlink" clip-rule="evenodd" stroke-miterlimit="4.00" viewBox="0 0 1024 768"><desc>SVG generated by Keynote</desc><defs></defs><g transform="matrix(1.00, 0.00, -0.00, -1.00, 0.0, 768.0)"><path d="M 0.0 768.0 L 1024.0 768.0 L 1024.0 0.0 L 0.0 0.0 Z M 0.0 768.0 " fill="#FEFFFF"></path><text xml:space="preserve" font-family="Helvetica-Light" font-size="80.0" fill="#000000" transform="matrix(1.00, 0.00, -0.00, -1.00, 114.0, 679.0)">C</text><text xml:space="preserve" font-family="Helvetica-Light" font-size="80.0" fill="#000000" transform="matrix(1.00, 0.00, -0.00, -1.00, 171.8, 679.0)">o</text><text xml:space="preserve" font-family="Helvetica-Light" font-size="80.0" fill="#000000" transform="matrix(1.00, 0.00, -0.00, -1.00, 216.2, 679.0)">l</text><text xml:space="preserve" font-family="Helvetica-Light" font-size="80.0" fill="#000000" transform="matrix(1.00, 0.00, -0.00, -1.00, 234.0, 679.0)">l</text><text xml:space="preserve" font-family="Helvetica-Light" font-size="80.0" fill="#000000" transform="matrix(1.00, 0.00, -0.00, -1.00, 251.8, 679.0)">e</text><text xml:space="preserve" font-family="Helvetica-Light" font-size="80.0" fill="#000000" transform="matrix(1.00, 0.00, -0.00, -1.00, 296.2, 679.0)">c</text><text xml:space="preserve" font-family="Helvetica-Light" font-size="80.0" fill="#000000" transform="matrix(1.00, 0.00, -0.00, -1.00, 340.7, 679.0)">t</text><text xml:space="preserve" font-family="Helvetica-Light" font-size="80.0" fill="#000000" transform="matrix(1.00, 0.00, -0.00, -1.00, 363.0, 679.0)">i</text><text xml:space="preserve" font-family="Helvetica-Light" font-size="80.0" fill="#000000" transform="matrix(1.00, 0.00, -0.00, -1.00, 380.7, 679.0)">o</text><text xml:space="preserve" font-family="Helvetica-Light" font-size="80.0" fill="#000000" transform="matrix(1.00, 0.00, -0.00, -1.00, 425.2, 679.0)">n</text><text xml:space="preserve" font-family="Helvetica-Light" font-size="80.0" fill="#000000" transform="matrix(1.00, 0.00, -0.00, -1.00, 469.7, 679.0)"> </text><text xml:space="preserve" font-family="Helvetica-Light" font-size="80.0" fill="#000000" transform="matrix(1.00, 0.00, -0.00, -1.00, 491.9, 679.0)">I</text><text xml:space="preserve" font-family="Helvetica-Light" font-size="80.0" fill="#000000" transform="matrix(1.00, 0.00, -0.00, -1.00, 514.2, 679.0)">n</text><text xml:space="preserve" font-family="Helvetica-Light" font-size="80.0" fill="#000000" transform="matrix(1.00, 0.00, -0.00, -1.00, 558.6, 679.0)">i</text><text xml:space="preserve" font-family="Helvetica-Light" font-size="80.0" fill="#000000" transform="matrix(1.00, 0.00, -0.00, -1.00, 576.4, 679.0)">t</text><text xml:space="preserve" font-family="Helvetica-Light" font-size="80.0" fill="#000000" transform="matrix(1.00, 0.00, -0.00, -1.00, 598.6, 679.0)">i</text><text xml:space="preserve" font-family="Helvetica-Light" font-size="80.0" fill="#000000" transform="matrix(1.00, 0.00, -0.00, -1.00, 616.4, 679.0)">a</text><text xml:space="preserve" font-family="Helvetica-Light" font-size="80.0" fill="#000000" transform="matrix(1.00, 0.00, -0.00, -1.00, 660.9, 679.0)">l</text><text xml:space="preserve" font-family="Helvetica-Light" font-size="80.0" fill="#000000" transform="matrix(1.00, 0.00, -0.00, -1.00, 678.6, 679.0)">i</text><text xml:space="preserve" font-family="Helvetica-Light" font-size="80.0" fill="#000000" transform="matrix(1.00, 0.00, -0.00, -1.00, 696.4, 679.0)">z</text><text xml:space="preserve" font-family="Helvetica-Light" font-size="80.0" fill="#000000" transform="matrix(1.00, 0.00, -0.00, -1.00, 736.4, 679.0)">a</text><text xml:space="preserve" font-family="Helvetica-Light" font-size="80.0" fill="#000000" transform="matrix(1.00, 0.00, -0.00, -1.00, 780.9, 679.0)">t</text><text xml:space="preserve" font-family="Helvetica-Light" font-size="80.0" fill="#000000" transform="matrix(1.00, 0.00, -0.00, -1.00, 803.1, 679.0)">i</text><text xml:space="preserve" font-family="Helvetica-Light" font-size="80.0" fill="#000000" transform="matrix(1.00, 0.00, -0.00, -1.00, 820.9, 679.0)">o</text><text xml:space="preserve" font-family="Helvetica-Light" font-size="80.0" fill="#000000" transform="matrix(1.00, 0.00, -0.00, -1.00, 865.4, 679.0)">n</text><text xml:space="preserve" font-family="Helvetica-Light" font-size="36.0" fill="#000000" transform="matrix(1.00, 0.00, -0.00, -1.00, 252.0, 463.0)">C</text><text xml:space="preserve" font-family="Helvetica-Light" font-size="36.0" fill="#000000" transform="matrix(1.00, 0.00, -0.00, -1.00, 278.0, 463.0)">l</text><text xml:space="preserve" font-family="Helvetica-Light" font-size="36.0" fill="#000000" transform="matrix(1.00, 0.00, -0.00, -1.00, 286.0, 463.0)">o</text><text xml:space="preserve" font-family="Helvetica-Light" font-size="36.0" fill="#000000" transform="matrix(1.00, 0.00, -0.00, -1.00, 306.0, 463.0)">j</text><text xml:space="preserve" font-family="Helvetica-Light" font-size="36.0" fill="#000000" transform="matrix(1.00, 0.00, -0.00, -1.00, 314.0, 463.0)">u</text><text xml:space="preserve" font-family="Helvetica-Light" font-size="36.0" fill="#000000" transform="matrix(1.00, 0.00, -0.00, -1.00, 334.0, 463.0)">r</text><text xml:space="preserve" font-family="Helvetica-Light" font-size="36.0" fill="#000000" transform="matrix(1.00, 0.00, -0.00, -1.00, 345.3, 463.0)">e</text><text xml:space="preserve" font-family="CourierNewPSMT" font-size="24.0" fill="#999999" transform="matrix(1.00, 0.00, -0.00, -1.00, 195.0, 418.0)"> </text><text xml:space="preserve" font-family="CourierNewPSMT" font-size="24.0" fill="#999999" transform="matrix(1.00, 0.00, -0.00, -1.00, 209.4, 418.0)"> </text><text xml:space="preserve" font-family="CourierNewPSMT" font-size="24.0" fill="#999999" transform="matrix(1.00, 0.00, -0.00, -1.00, 223.8, 418.0)"> </text><text xml:space="preserve" font-family="CourierNewPSMT" font-size="24.0" fill="#999999" transform="matrix(1.00, 0.00, -0.00, -1.00, 238.2, 418.0)"> </text><text xml:space="preserve" font-family="CourierNewPSMT" font-size="24.0" fill="#999999" transform="matrix(1.00, 0.00, -0.00, -1.00, 252.6, 418.0)">1</text><text xml:space="preserve" font-family="CourierNewPSMT" font-size="24.0" fill="#999999" transform="matrix(1.00, 0.00, -0.00, -1.00, 267.0, 418.0)"> </text><text xml:space="preserve" font-family="CourierNewPSMT" font-size="24.0" fill="#000000" transform="matrix(1.00, 0.00, -0.00, -1.00, 281.4, 418.0)">(</text><text xml:space="preserve" font-family="CourierNewPSMT" font-size="24.0" fill="#B53D36" transform="matrix(1.00, 0.00, -0.00, -1.00, 295.8, 418.0)">d</text><text xml:space="preserve" font-family="CourierNewPSMT" font-size="24.0" fill="#B53D36" transform="matrix(1.00, 0.00, -0.00, -1.00, 310.2, 418.0)">e</text><text xml:space="preserve" font-family="CourierNewPSMT" font-size="24.0" fill="#B53D36" transform="matrix(1.00, 0.00, -0.00, -1.00, 324.6, 418.0)">f</text><text xml:space="preserve" font-family="CourierNewPSMT" font-size="24.0" fill="#000000" transform="matrix(1.00, 0.00, -0.00, -1.00, 339.0, 418.0)"> </text><text xml:space="preserve" font-family="CourierNewPSMT" font-size="24.0" fill="#000000" transform="matrix(1.00, 0.00, -0.00, -1.00, 353.4, 418.0)">n</text><text xml:space="preserve" font-family="CourierNewPSMT" font-size="24.0" fill="#000000" transform="matrix(1.00, 0.00, -0.00, -1.00, 367.8, 418.0)">a</text><text xml:space="preserve" font-family="CourierNewPSMT" font-size="24.0" fill="#000000" transform="matrix(1.00, 0.00, -0.00, -1.00, 382.2, 418.0)">m</text><text xml:space="preserve" font-family="CourierNewPSMT" font-size="24.0" fill="#000000" transform="matrix(1.00, 0.00, -0.00, -1.00, 396.6, 418.0)">e</text><text xml:space="preserve" font-family="CourierNewPSMT" font-size="24.0" fill="#000000" transform="matrix(1.00, 0.00, -0.00, -1.00, 411.0, 418.0)">s</text><text xml:space="preserve" font-family="CourierNewPSMT" font-size="24.0" fill="#000000" transform="matrix(1.00, 0.00, -0.00, -1.00, 425.5, 418.0)"> </text><text xml:space="preserve" font-family="CourierNewPSMT" font-size="24.0" fill="#000000" transform="matrix(1.00, 0.00, -0.00, -1.00, 439.9, 418.0)">#</text><text xml:space="preserve" font-family="CourierNewPSMT" font-size="24.0" fill="#000000" transform="matrix(1.00, 0.00, -0.00, -1.00, 454.3, 418.0)">{</text><text xml:space="preserve" font-family="CourierNewPSMT" font-size="24.0" fill="#000000" transform="matrix(1.00, 0.00, -0.00, -1.00, 468.7, 418.0)"> </text><text xml:space="preserve" font-family="CourierNewPSMT" font-size="24.0" fill="#FF40FF" transform="matrix(1.00, 0.00, -0.00, -1.00, 483.0, 418.0)">"</text><text xml:space="preserve" font-family="CourierNewPSMT" font-size="24.0" fill="#FF40FF" transform="matrix(1.00, 0.00, -0.00, -1.00, 497.5, 418.0)">C</text><text xml:space="preserve" font-family="CourierNewPSMT" font-size="24.0" fill="#FF40FF" transform="matrix(1.00, 0.00, -0.00, -1.00, 511.9, 418.0)">u</text><text xml:space="preserve" font-family="CourierNewPSMT" font-size="24.0" fill="#FF40FF" transform="matrix(1.00, 0.00, -0.00, -1.00, 526.3, 418.0)">r</text><text xml:space="preserve" font-family="CourierNewPSMT" font-size="24.0" fill="#FF40FF" transform="matrix(1.00, 0.00, -0.00, -1.00, 540.7, 418.0)">l</text><text xml:space="preserve" font-family="CourierNewPSMT" font-size="24.0" fill="#FF40FF" transform="matrix(1.00, 0.00, -0.00, -1.00, 555.1, 418.0)">y</text><text xml:space="preserve" font-family="CourierNewPSMT" font-size="24.0" fill="#FF40FF" transform="matrix(1.00, 0.00, -0.00, -1.00, 569.5, 418.0)">"</text><text xml:space="preserve" font-family="CourierNewPSMT" font-size="24.0" fill="#000000" transform="matrix(1.00, 0.00, -0.00, -1.00, 583.9, 418.0)"> </text><text xml:space="preserve" font-family="CourierNewPSMT" font-size="24.0" fill="#FF40FF" transform="matrix(1.00, 0.00, -0.00, -1.00, 598.3, 418.0)">"</text><text xml:space="preserve" font-family="CourierNewPSMT" font-size="24.0" fill="#FF40FF" transform="matrix(1.00, 0.00, -0.00, -1.00, 612.7, 418.0)">L</text><text xml:space="preserve" font-family="CourierNewPSMT" font-size="24.0" fill="#FF40FF" transform="matrix(1.00, 0.00, -0.00, -1.00, 627.1, 418.0)">a</text><text xml:space="preserve" font-family="CourierNewPSMT" font-size="24.0" fill="#FF40FF" transform="matrix(1.00, 0.00, -0.00, -1.00, 641.5, 418.0)">r</text><text xml:space="preserve" font-family="CourierNewPSMT" font-size="24.0" fill="#FF40FF" transform="matrix(1.00, 0.00, -0.00, -1.00, 655.9, 418.0)">r</text><text xml:space="preserve" font-family="CourierNewPSMT" font-size="24.0" fill="#FF40FF" transform="matrix(1.00, 0.00, -0.00, -1.00, 670.3, 418.0)">y</text><text xml:space="preserve" font-family="CourierNewPSMT" font-size="24.0" fill="#FF40FF" transform="matrix(1.00, 0.00, -0.00, -1.00, 684.7, 418.0)">"</text><text xml:space="preserve" font-family="CourierNewPSMT" font-size="24.0" fill="#000000" transform="matrix(1.00, 0.00, -0.00, -1.00, 699.1, 418.0)"> </text><text xml:space="preserve" font-family="CourierNewPSMT" font-size="24.0" fill="#FF40FF" transform="matrix(1.00, 0.00, -0.00, -1.00, 713.5, 418.0)">"</text><text xml:space="preserve" font-family="CourierNewPSMT" font-size="24.0" fill="#FF40FF" transform="matrix(1.00, 0.00, -0.00, -1.00, 727.9, 418.0)">M</text><text xml:space="preserve" font-family="CourierNewPSMT" font-size="24.0" fill="#FF40FF" transform="matrix(1.00, 0.00, -0.00, -1.00, 742.3, 418.0)">o</text><text xml:space="preserve" font-family="CourierNewPSMT" font-size="24.0" fill="#FF40FF" transform="matrix(1.00, 0.00, -0.00, -1.00, 756.7, 418.0)">e</text><text xml:space="preserve" font-family="CourierNewPSMT" font-size="24.0" fill="#FF40FF" transform="matrix(1.00, 0.00, -0.00, -1.00, 771.1, 418.0)">"</text><text xml:space="preserve" font-family="CourierNewPSMT" font-size="24.0" fill="#000000" transform="matrix(1.00, 0.00, -0.00, -1.00, 785.5, 418.0)">}</text><text xml:space="preserve" font-family="CourierNewPSMT" font-size="24.0" fill="#000000" transform="matrix(1.00, 0.00, -0.00, -1.00, 799.9, 418.0)">)</text><text xml:space="preserve" font-family="CourierNewPSMT" font-size="24.0" fill="#000000" transform="matrix(1.00, 0.00, -0.00, -1.00, 814.3, 418.0)"> </text><text xml:space="preserve" font-family="CourierNewPSMT" font-size="24.0" fill="#999999" transform="matrix(1.00, 0.00, -0.00, -1.00, 195.0, 391.0)"> </text><text xml:space="preserve" font-family="CourierNewPSMT" font-size="24.0" fill="#999999" transform="matrix(1.00, 0.00, -0.00, -1.00, 209.4, 391.0)"> </text><text xml:space="preserve" font-family="CourierNewPSMT" font-size="24.0" fill="#999999" transform="matrix(1.00, 0.00, -0.00, -1.00, 223.8, 391.0)"> </text><text xml:space="preserve" font-family="CourierNewPSMT" font-size="24.0" fill="#999999" transform="matrix(1.00, 0.00, -0.00, -1.00, 238.2, 391.0)"> </text><text xml:space="preserve" font-family="CourierNewPSMT" font-size="24.0" fill="#999999" transform="matrix(1.00, 0.00, -0.00, -1.00, 252.6, 391.0)">2</text><text xml:space="preserve" font-family="CourierNewPSMT" font-size="24.0" fill="#999999" transform="matrix(1.00, 0.00, -0.00, -1.00, 267.0, 391.0)"> </text><text xml:space="preserve" font-family="CourierNewPSMT" font-size="24.0" fill="#000000" transform="matrix(1.00, 0.00, -0.00, -1.00, 281.4, 391.0)">(</text><text xml:space="preserve" font-family="CourierNewPSMT" font-size="24.0" fill="#B53D36" transform="matrix(1.00, 0.00, -0.00, -1.00, 295.8, 391.0)">d</text><text xml:space="preserve" font-family="CourierNewPSMT" font-size="24.0" fill="#B53D36" transform="matrix(1.00, 0.00, -0.00, -1.00, 310.2, 391.0)">e</text><text xml:space="preserve" font-family="CourierNewPSMT" font-size="24.0" fill="#B53D36" transform="matrix(1.00, 0.00, -0.00, -1.00, 324.6, 391.0)">f</text><text xml:space="preserve" font-family="CourierNewPSMT" font-size="24.0" fill="#000000" transform="matrix(1.00, 0.00, -0.00, -1.00, 339.0, 391.0)"> </text><text xml:space="preserve" font-family="CourierNewPSMT" font-size="24.0" fill="#000000" transform="matrix(1.00, 0.00, -0.00, -1.00, 353.4, 391.0)">a</text><text xml:space="preserve" font-family="CourierNewPSMT" font-size="24.0" fill="#000000" transform="matrix(1.00, 0.00, -0.00, -1.00, 367.8, 391.0)">g</text><text xml:space="preserve" font-family="CourierNewPSMT" font-size="24.0" fill="#000000" transform="matrix(1.00, 0.00, -0.00, -1.00, 382.2, 391.0)">e</text><text xml:space="preserve" font-family="CourierNewPSMT" font-size="24.0" fill="#000000" transform="matrix(1.00, 0.00, -0.00, -1.00, 396.6, 391.0)">s</text><text xml:space="preserve" font-family="CourierNewPSMT" font-size="24.0" fill="#000000" transform="matrix(1.00, 0.00, -0.00, -1.00, 411.0, 391.0)"> </text><text xml:space="preserve" font-family="CourierNewPSMT" font-size="24.0" fill="#000000" transform="matrix(1.00, 0.00, -0.00, -1.00, 425.5, 391.0)">[</text><text xml:space="preserve" font-family="CourierNewPSMT" font-size="24.0" fill="#FF2C78" transform="matrix(1.00, 0.00, -0.00, -1.00, 439.8, 391.0)">2</text><text xml:space="preserve" font-family="CourierNewPSMT" font-size="24.0" fill="#FF2C78" transform="matrix(1.00, 0.00, -0.00, -1.00, 454.2, 391.0)">0</text><text xml:space="preserve" font-family="CourierNewPSMT" font-size="24.0" fill="#FF2C78" transform="matrix(1.00, 0.00, -0.00, -1.00, 468.6, 391.0)"> </text><text xml:space="preserve" font-family="CourierNewPSMT" font-size="24.0" fill="#FF2C78" transform="matrix(1.00, 0.00, -0.00, -1.00, 483.1, 391.0)">2</text><text xml:space="preserve" font-family="CourierNewPSMT" font-size="24.0" fill="#FF2C78" transform="matrix(1.00, 0.00, -0.00, -1.00, 497.5, 391.0)">1</text><text xml:space="preserve" font-family="CourierNewPSMT" font-size="24.0" fill="#FF2C78" transform="matrix(1.00, 0.00, -0.00, -1.00, 511.9, 391.0)"> </text><text xml:space="preserve" font-family="CourierNewPSMT" font-size="24.0" fill="#FF2C78" transform="matrix(1.00, 0.00, -0.00, -1.00, 526.3, 391.0)">2</text><text xml:space="preserve" font-family="CourierNewPSMT" font-size="24.0" fill="#FF2C78" transform="matrix(1.00, 0.00, -0.00, -1.00, 540.7, 391.0)">2</text><text xml:space="preserve" font-family="CourierNewPSMT" font-size="24.0" fill="#000000" transform="matrix(1.00, 0.00, -0.00, -1.00, 555.1, 391.0)">]</text><text xml:space="preserve" font-family="CourierNewPSMT" font-size="24.0" fill="#000000" transform="matrix(1.00, 0.00, -0.00, -1.00, 569.5, 391.0)">)</text><text xml:space="preserve" font-family="CourierNewPSMT" font-size="24.0" fill="#000000" transform="matrix(1.00, 0.00, -0.00, -1.00, 583.9, 391.0)"> </text><text xml:space="preserve" font-family="CourierNewPSMT" font-size="24.0" fill="#999999" transform="matrix(1.00, 0.00, -0.00, -1.00, 195.0, 364.0)"> </text><text xml:space="preserve" font-family="CourierNewPSMT" font-size="24.0" fill="#999999" transform="matrix(1.00, 0.00, -0.00, -1.00, 209.4, 364.0)"> </text><text xml:space="preserve" font-family="CourierNewPSMT" font-size="24.0" fill="#999999" transform="matrix(1.00, 0.00, -0.00, -1.00, 223.8, 364.0)"> </text><text xml:space="preserve" font-family="CourierNewPSMT" font-size="24.0" fill="#999999" transform="matrix(1.00, 0.00, -0.00, -1.00, 238.2, 364.0)"> </text><text xml:space="preserve" font-family="CourierNewPSMT" font-size="24.0" fill="#999999" transform="matrix(1.00, 0.00, -0.00, -1.00, 252.6, 364.0)">3</text><text xml:space="preserve" font-family="CourierNewPSMT" font-size="24.0" fill="#999999" transform="matrix(1.00, 0.00, -0.00, -1.00, 267.0, 364.0)"> </text><text xml:space="preserve" font-family="CourierNewPSMT" font-size="24.0" fill="#000000" transform="matrix(1.00, 0.00, -0.00, -1.00, 281.4, 364.0)">(</text><text xml:space="preserve" font-family="CourierNewPSMT" font-size="24.0" fill="#B53D36" transform="matrix(1.00, 0.00, -0.00, -1.00, 295.8, 364.0)">d</text><text xml:space="preserve" font-family="CourierNewPSMT" font-size="24.0" fill="#B53D36" transform="matrix(1.00, 0.00, -0.00, -1.00, 310.2, 364.0)">e</text><text xml:space="preserve" font-family="CourierNewPSMT" font-size="24.0" fill="#B53D36" transform="matrix(1.00, 0.00, -0.00, -1.00, 324.6, 364.0)">f</text><text xml:space="preserve" font-family="CourierNewPSMT" font-size="24.0" fill="#000000" transform="matrix(1.00, 0.00, -0.00, -1.00, 339.0, 364.0)"> </text><text xml:space="preserve" font-family="CourierNewPSMT" font-size="24.0" fill="#000000" transform="matrix(1.00, 0.00, -0.00, -1.00, 353.4, 364.0)">n</text><text xml:space="preserve" font-family="CourierNewPSMT" font-size="24.0" fill="#000000" transform="matrix(1.00, 0.00, -0.00, -1.00, 367.8, 364.0)">a</text><text xml:space="preserve" font-family="CourierNewPSMT" font-size="24.0" fill="#000000" transform="matrix(1.00, 0.00, -0.00, -1.00, 382.2, 364.0)">m</text><text xml:space="preserve" font-family="CourierNewPSMT" font-size="24.0" fill="#000000" transform="matrix(1.00, 0.00, -0.00, -1.00, 396.6, 364.0)">e</text><text xml:space="preserve" font-family="CourierNewPSMT" font-size="24.0" fill="#000000" transform="matrix(1.00, 0.00, -0.00, -1.00, 411.0, 364.0)">s</text><text xml:space="preserve" font-family="CourierNewPSMT" font-size="24.0" fill="#000000" transform="matrix(1.00, 0.00, -0.00, -1.00, 425.5, 364.0)">-</text><text xml:space="preserve" font-family="CourierNewPSMT" font-size="24.0" fill="#000000" transform="matrix(1.00, 0.00, -0.00, -1.00, 439.9, 364.0)">&gt;</text><text xml:space="preserve" font-family="CourierNewPSMT" font-size="24.0" fill="#000000" transform="matrix(1.00, 0.00, -0.00, -1.00, 454.3, 364.0)">a</text><text xml:space="preserve" font-family="CourierNewPSMT" font-size="24.0" fill="#000000" transform="matrix(1.00, 0.00, -0.00, -1.00, 468.7, 364.0)">g</text><text xml:space="preserve" font-family="CourierNewPSMT" font-size="24.0" fill="#000000" transform="matrix(1.00, 0.00, -0.00, -1.00, 483.1, 364.0)">e</text><text xml:space="preserve" font-family="CourierNewPSMT" font-size="24.0" fill="#000000" transform="matrix(1.00, 0.00, -0.00, -1.00, 497.5, 364.0)">s</text><text xml:space="preserve" font-family="CourierNewPSMT" font-size="24.0" fill="#000000" transform="matrix(1.00, 0.00, -0.00, -1.00, 511.9, 364.0)"> </text><text xml:space="preserve" font-family="CourierNewPSMT" font-size="24.0" fill="#000000" transform="matrix(1.00, 0.00, -0.00, -1.00, 526.3, 364.0)">(</text><text xml:space="preserve" font-family="CourierNewPS-BoldMT" font-weight="bold" font-size="24.0" fill="#000000" transform="matrix(1.00, 0.00, -0.00, -1.00, 540.7, 364.0)">z</text><text xml:space="preserve" font-family="CourierNewPS-BoldMT" font-weight="bold" font-size="24.0" fill="#000000" transform="matrix(1.00, 0.00, -0.00, -1.00, 555.1, 364.0)">i</text><text xml:space="preserve" font-family="CourierNewPS-BoldMT" font-weight="bold" font-size="24.0" fill="#000000" transform="matrix(1.00, 0.00, -0.00, -1.00, 569.5, 364.0)">p</text><text xml:space="preserve" font-family="CourierNewPS-BoldMT" font-weight="bold" font-size="24.0" fill="#000000" transform="matrix(1.00, 0.00, -0.00, -1.00, 583.9, 364.0)">m</text><text xml:space="preserve" font-family="CourierNewPS-BoldMT" font-weight="bold" font-size="24.0" fill="#000000" transform="matrix(1.00, 0.00, -0.00, -1.00, 598.3, 364.0)">a</text><text xml:space="preserve" font-family="CourierNewPS-BoldMT" font-weight="bold" font-size="24.0" fill="#000000" transform="matrix(1.00, 0.00, -0.00, -1.00, 612.7, 364.0)">p</text><text xml:space="preserve" font-family="CourierNewPSMT" font-size="24.0" fill="#000000" transform="matrix(1.00, 0.00, -0.00, -1.00, 627.1, 364.0)"> </text><text xml:space="preserve" font-family="CourierNewPSMT" font-size="24.0" fill="#000000" transform="matrix(1.00, 0.00, -0.00, -1.00, 641.5, 364.0)">n</text><text xml:space="preserve" font-family="CourierNewPSMT" font-size="24.0" fill="#000000" transform="matrix(1.00, 0.00, -0.00, -1.00, 655.9, 364.0)">a</text><text xml:space="preserve" font-family="CourierNewPSMT" font-size="24.0" fill="#000000" transform="matrix(1.00, 0.00, -0.00, -1.00, 670.3, 364.0)">m</text><text xml:space="preserve" font-family="CourierNewPSMT" font-size="24.0" fill="#000000" transform="matrix(1.00, 0.00, -0.00, -1.00, 684.7, 364.0)">e</text><text xml:space="preserve" font-family="CourierNewPSMT" font-size="24.0" fill="#000000" transform="matrix(1.00, 0.00, -0.00, -1.00, 699.1, 364.0)">s</text><text xml:space="preserve" font-family="CourierNewPSMT" font-size="24.0" fill="#000000" transform="matrix(1.00, 0.00, -0.00, -1.00, 713.5, 364.0)"> </text><text xml:space="preserve" font-family="CourierNewPSMT" font-size="24.0" fill="#000000" transform="matrix(1.00, 0.00, -0.00, -1.00, 727.9, 364.0)">a</text><text xml:space="preserve" font-family="CourierNewPSMT" font-size="24.0" fill="#000000" transform="matrix(1.00, 0.00, -0.00, -1.00, 742.3, 364.0)">g</text><text xml:space="preserve" font-family="CourierNewPSMT" font-size="24.0" fill="#000000" transform="matrix(1.00, 0.00, -0.00, -1.00, 756.7, 364.0)">e</text><text xml:space="preserve" font-family="CourierNewPSMT" font-size="24.0" fill="#000000" transform="matrix(1.00, 0.00, -0.00, -1.00, 771.1, 364.0)">s</text><text xml:space="preserve" font-family="CourierNewPSMT" font-size="24.0" fill="#000000" transform="matrix(1.00, 0.00, -0.00, -1.00, 785.5, 364.0)">)</text><text xml:space="preserve" font-family="CourierNewPSMT" font-size="24.0" fill="#000000" transform="matrix(1.00, 0.00, -0.00, -1.00, 799.9, 364.0)">)</text><text xml:space="preserve" font-family="CourierNewPSMT" font-size="24.0" fill="#000000" transform="matrix(1.00, 0.00, -0.00, -1.00, 814.3, 364.0)"> </text></g></svg>