<?xml version="1.0" encoding="UTF-8" standalone="no"?><svg xmlns="http://www.w3.org/2000/svg" xmlns:xlink="http://www.w3.org/1999/xlink" clip-rule="evenodd" stroke-miterlimit="4.00" viewBox="0 0 1024 768"><desc>SVG generated by Keynote</desc><defs></defs><g transform="matrix(1.00, 0.00, -0.00, -1.00, 0.0, 768.0)"><path d="M 0.0 768.0 L 1024.0 768.0 L 1024.0 0.0 L 0.0 0.0 Z M 0.0 768.0 " fill="#FEFFFF"></path><text xml:space="preserve" font-family="Helvetica-Light" font-size="80.0" fill="#000000" transform="matrix(1.00, 0.00, -0.00, -1.00, 412.0, 618.0)">R</text><text xml:space="preserve" font-family="Helvetica-Light" font-size="80.0" fill="#000000" transform="matrix(1.00, 0.00, -0.00, -1.00, 465.4, 618.0)">u</text><text xml:space="preserve" font-family="Helvetica-Light" font-size="80.0" fill="#000000" transform="matrix(1.00, 0.00, -0.00, -1.00, 509.8, 618.0)">l</text><text xml:space="preserve" font-family="Helvetica-Light" font-size="80.0" fill="#000000" transform="matrix(1.00, 0.00, -0.00, -1.00, 527.6, 618.0)">e</text><text xml:space="preserve" font-family="Helvetica-Light" font-size="80.0" fill="#000000" transform="matrix(1.00, 0.00, -0.00, -1.00, 572.1, 618.0)">s</text><text xml:space="preserve" font-family="Helvetica-Light" font-size="21.9" fill="#000000" transform="matrix(1.00, 0.00, -0.00, -1.00, 79.0, 532.5)">•</text><text xml:space="preserve" font-family="Helvetica-Light" font-size="29.2" fill="#000000" transform="matrix(1.00, 0.00, -0.00, -1.00, 107.0, 530.0)">E</text><text xml:space="preserve" font-family="Helvetica-Light" font-size="29.2" fill="#000000" transform="matrix(1.00, 0.00, -0.00, -1.00, 124.8, 530.0)">a</text><text xml:space="preserve" font-family="Helvetica-Light" font-size="29.2" fill="#000000" transform="matrix(1.00, 0.00, -0.00, -1.00, 141.0, 530.0)">c</text><text xml:space="preserve" font-family="Helvetica-Light" font-size="29.2" fill="#000000" transform="matrix(1.00, 0.00, -0.00, -1.00, 157.2, 530.0)">h</text><text xml:space="preserve" font-family="Helvetica-Light" font-size="29.2" fill="#000000" transform="matrix(1.00, 0.00, -0.00, -1.00, 173.5, 530.0)"> </text><text xml:space="preserve" font-family="Helvetica-Light" font-size="29.2" fill="#000000" transform="matrix(1.00, 0.00, -0.00, -1.00, 181.6, 530.0)">p</text><text xml:space="preserve" font-family="Helvetica-Light" font-size="29.2" fill="#000000" transform="matrix(1.00, 0.00, -0.00, -1.00, 199.4, 530.0)">l</text><text xml:space="preserve" font-family="Helvetica-Light" font-size="29.2" fill="#000000" transform="matrix(1.00, 0.00, -0.00, -1.00, 205.9, 530.0)">a</text><text xml:space="preserve" font-family="Helvetica-Light" font-size="29.2" fill="#000000" transform="matrix(1.00, 0.00, -0.00, -1.00, 222.1, 530.0)">y</text><text xml:space="preserve" font-family="Helvetica-Light" font-size="29.2" fill="#000000" transform="matrix(1.00, 0.00, -0.00, -1.00, 236.6, 530.0)">e</text><text xml:space="preserve" font-family="Helvetica-Light" font-size="29.2" fill="#000000" transform="matrix(1.00, 0.00, -0.00, -1.00, 252.9, 530.0)">r</text><text xml:space="preserve" font-family="Helvetica-Light" font-size="29.2" fill="#000000" transform="matrix(1.00, 0.00, -0.00, -1.00, 262.6, 530.0)"> </text><text xml:space="preserve" font-family="Helvetica-Light" font-size="29.2" fill="#000000" transform="matrix(1.00, 0.00, -0.00, -1.00, 270.7, 530.0)">s</text><text xml:space="preserve" font-family="Helvetica-Light" font-size="29.2" fill="#000000" transform="matrix(1.00, 0.00, -0.00, -1.00, 285.3, 530.0)">t</text><text xml:space="preserve" font-family="Helvetica-Light" font-size="29.2" fill="#000000" transform="matrix(1.00, 0.00, -0.00, -1.00, 293.4, 530.0)">a</text><text xml:space="preserve" font-family="Helvetica-Light" font-size="29.2" fill="#000000" transform="matrix(1.00, 0.00, -0.00, -1.00, 309.6, 530.0)">r</text><text xml:space="preserve" font-family="Helvetica-Light" font-size="29.2" fill="#000000" transform="matrix(1.00, 0.00, -0.00, -1.00, 319.8, 530.0)">t</text><text xml:space="preserve" font-family="Helvetica-Light" font-size="29.2" fill="#000000" transform="matrix(1.00, 0.00, -0.00, -1.00, 327.9, 530.0)">s</text><text xml:space="preserve" font-family="Helvetica-Light" font-size="29.2" fill="#000000" transform="matrix(1.00, 0.00, -0.00, -1.00, 342.5, 530.0)"> </text><text xml:space="preserve" font-family="Helvetica-Light" font-size="29.2" fill="#000000" transform="matrix(1.00, 0.00, -0.00, -1.00, 350.6, 530.0)">w</text><text xml:space="preserve" font-family="Helvetica-Light" font-size="29.2" fill="#000000" transform="matrix(1.00, 0.00, -0.00, -1.00, 371.7, 530.0)">i</text><text xml:space="preserve" font-family="Helvetica-Light" font-size="29.2" fill="#000000" transform="matrix(1.00, 0.00, -0.00, -1.00, 378.1, 530.0)">t</text><text xml:space="preserve" font-family="Helvetica-Light" font-size="29.2" fill="#000000" transform="matrix(1.00, 0.00, -0.00, -1.00, 386.2, 530.0)">h</text><text xml:space="preserve" font-family="Helvetica-Light" font-size="29.2" fill="#000000" transform="matrix(1.00, 0.00, -0.00, -1.00, 402.4, 530.0)"> </text><text xml:space="preserve" font-family="Helvetica-Light" font-size="29.2" fill="#000000" transform="matrix(1.00, 0.00, -0.00, -1.00, 410.6, 530.0)">6</text><text xml:space="preserve" font-family="Helvetica-Light" font-size="29.2" fill="#000000" transform="matrix(1.00, 0.00, -0.00, -1.00, 426.8, 530.0)"> </text><text xml:space="preserve" font-family="Helvetica-Light" font-size="29.2" fill="#000000" transform="matrix(1.00, 0.00, -0.00, -1.00, 434.9, 530.0)">r</text><text xml:space="preserve" font-family="Helvetica-Light" font-size="29.2" fill="#000000" transform="matrix(1.00, 0.00, -0.00, -1.00, 444.6, 530.0)">a</text><text xml:space="preserve" font-family="Helvetica-Light" font-size="29.2" fill="#000000" transform="matrix(1.00, 0.00, -0.00, -1.00, 460.8, 530.0)">n</text><text xml:space="preserve" font-family="Helvetica-Light" font-size="29.2" fill="#000000" transform="matrix(1.00, 0.00, -0.00, -1.00, 477.0, 530.0)">d</text><text xml:space="preserve" font-family="Helvetica-Light" font-size="29.2" fill="#000000" transform="matrix(1.00, 0.00, -0.00, -1.00, 494.8, 530.0)">o</text><text xml:space="preserve" font-family="Helvetica-Light" font-size="29.2" fill="#000000" transform="matrix(1.00, 0.00, -0.00, -1.00, 511.0, 530.0)">m</text><text xml:space="preserve" font-family="Helvetica-Light" font-size="29.2" fill="#000000" transform="matrix(1.00, 0.00, -0.00, -1.00, 535.3, 530.0)"> </text><text xml:space="preserve" font-family="Helvetica-Light" font-size="29.2" fill="#000000" transform="matrix(1.00, 0.00, -0.00, -1.00, 543.4, 530.0)">c</text><text xml:space="preserve" font-family="Helvetica-Light" font-size="29.2" fill="#000000" transform="matrix(1.00, 0.00, -0.00, -1.00, 559.7, 530.0)">a</text><text xml:space="preserve" font-family="Helvetica-Light" font-size="29.2" fill="#000000" transform="matrix(1.00, 0.00, -0.00, -1.00, 575.9, 530.0)">r</text><text xml:space="preserve" font-family="Helvetica-Light" font-size="29.2" fill="#000000" transform="matrix(1.00, 0.00, -0.00, -1.00, 585.0, 530.0)">d</text><text xml:space="preserve" font-family="Helvetica-Light" font-size="29.2" fill="#000000" transform="matrix(1.00, 0.00, -0.00, -1.00, 602.9, 530.0)">s</text><text xml:space="preserve" font-family="Helvetica-Light" font-size="29.2" fill="#000000" transform="matrix(1.00, 0.00, -0.00, -1.00, 617.4, 530.0)"> </text><text xml:space="preserve" font-family="Helvetica-Light" font-size="21.9" fill="#000000" transform="matrix(1.00, 0.00, -0.00, -1.00, 79.0, 463.5)">•</text><text xml:space="preserve" font-family="Helvetica-Light" font-size="29.2" fill="#000000" transform="matrix(1.00, 0.00, -0.00, -1.00, 107.0, 461.0)">S</text><text xml:space="preserve" font-family="Helvetica-Light" font-size="29.2" fill="#000000" transform="matrix(1.00, 0.00, -0.00, -1.00, 124.8, 461.0)">y</text><text xml:space="preserve" font-family="Helvetica-Light" font-size="29.2" fill="#000000" transform="matrix(1.00, 0.00, -0.00, -1.00, 139.4, 461.0)">m</text><text xml:space="preserve" font-family="Helvetica-Light" font-size="29.2" fill="#000000" transform="matrix(1.00, 0.00, -0.00, -1.00, 163.7, 461.0)">b</text><text xml:space="preserve" font-family="Helvetica-Light" font-size="29.2" fill="#000000" transform="matrix(1.00, 0.00, -0.00, -1.00, 181.5, 461.0)">o</text><text xml:space="preserve" font-family="Helvetica-Light" font-size="29.2" fill="#000000" transform="matrix(1.00, 0.00, -0.00, -1.00, 197.7, 461.0)">l</text><text xml:space="preserve" font-family="Helvetica-Light" font-size="29.2" fill="#000000" transform="matrix(1.00, 0.00, -0.00, -1.00, 204.2, 461.0)">s</text><text xml:space="preserve" font-family="Helvetica-Light" font-size="29.2" fill="#000000" transform="matrix(1.00, 0.00, -0.00, -1.00, 218.8, 461.0)"> </text><text xml:space="preserve" font-family="Helvetica-Light" font-size="29.2" fill="#000000" transform="matrix(1.00, 0.00, -0.00, -1.00, 226.9, 461.0)">o</text><text xml:space="preserve" font-family="Helvetica-Light" font-size="29.2" fill="#000000" transform="matrix(1.00, 0.00, -0.00, -1.00, 243.1, 461.0)">n</text><text xml:space="preserve" font-family="Helvetica-Light" font-size="29.2" fill="#000000" transform="matrix(1.00, 0.00, -0.00, -1.00, 259.3, 461.0)"> </text><text xml:space="preserve" font-family="Helvetica-Light" font-size="29.2" fill="#000000" transform="matrix(1.00, 0.00, -0.00, -1.00, 267.4, 461.0)">c</text><text xml:space="preserve" font-family="Helvetica-Light" font-size="29.2" fill="#000000" transform="matrix(1.00, 0.00, -0.00, -1.00, 283.6, 461.0)">a</text><text xml:space="preserve" font-family="Helvetica-Light" font-size="29.2" fill="#000000" transform="matrix(1.00, 0.00, -0.00, -1.00, 299.8, 461.0)">r</text><text xml:space="preserve" font-family="Helvetica-Light" font-size="29.2" fill="#000000" transform="matrix(1.00, 0.00, -0.00, -1.00, 309.0, 461.0)">d</text><text xml:space="preserve" font-family="Helvetica-Light" font-size="29.2" fill="#000000" transform="matrix(1.00, 0.00, -0.00, -1.00, 326.8, 461.0)">s</text><text xml:space="preserve" font-family="Helvetica-Light" font-size="29.2" fill="#000000" transform="matrix(1.00, 0.00, -0.00, -1.00, 341.4, 461.0)"> </text><text xml:space="preserve" font-family="Helvetica-Light" font-size="29.2" fill="#000000" transform="matrix(1.00, 0.00, -0.00, -1.00, 349.5, 461.0)">=</text><text xml:space="preserve" font-family="Helvetica-Light" font-size="29.2" fill="#000000" transform="matrix(1.00, 0.00, -0.00, -1.00, 368.8, 461.0)"> </text><text xml:space="preserve" font-family="Helvetica-Light" font-size="29.2" fill="#000000" transform="matrix(1.00, 0.00, -0.00, -1.00, 376.9, 461.0)">S</text><text xml:space="preserve" font-family="Helvetica-Light" font-size="29.2" fill="#000000" transform="matrix(1.00, 0.00, -0.00, -1.00, 394.7, 461.0)">y</text><text xml:space="preserve" font-family="Helvetica-Light" font-size="29.2" fill="#000000" transform="matrix(1.00, 0.00, -0.00, -1.00, 409.3, 461.0)">m</text><text xml:space="preserve" font-family="Helvetica-Light" font-size="29.2" fill="#000000" transform="matrix(1.00, 0.00, -0.00, -1.00, 433.6, 461.0)">b</text><text xml:space="preserve" font-family="Helvetica-Light" font-size="29.2" fill="#000000" transform="matrix(1.00, 0.00, -0.00, -1.00, 451.4, 461.0)">o</text><text xml:space="preserve" font-family="Helvetica-Light" font-size="29.2" fill="#000000" transform="matrix(1.00, 0.00, -0.00, -1.00, 467.6, 461.0)">l</text><text xml:space="preserve" font-family="Helvetica-Light" font-size="29.2" fill="#000000" transform="matrix(1.00, 0.00, -0.00, -1.00, 474.1, 461.0)">s</text><text xml:space="preserve" font-family="Helvetica-Light" font-size="29.2" fill="#000000" transform="matrix(1.00, 0.00, -0.00, -1.00, 488.6, 461.0)"> </text><text xml:space="preserve" font-family="Helvetica-Light" font-size="29.2" fill="#000000" transform="matrix(1.00, 0.00, -0.00, -1.00, 496.8, 461.0)">o</text><text xml:space="preserve" font-family="Helvetica-Light" font-size="29.2" fill="#000000" transform="matrix(1.00, 0.00, -0.00, -1.00, 513.0, 461.0)">n</text><text xml:space="preserve" font-family="Helvetica-Light" font-size="29.2" fill="#000000" transform="matrix(1.00, 0.00, -0.00, -1.00, 529.2, 461.0)"> </text><text xml:space="preserve" font-family="Helvetica-Light" font-size="29.2" fill="#000000" transform="matrix(1.00, 0.00, -0.00, -1.00, 537.3, 461.0)"> </text><text xml:space="preserve" font-family="Helvetica-Light" font-size="29.2" fill="#000000" transform="matrix(1.00, 0.00, -0.00, -1.00, 545.4, 461.0)">t</text><text xml:space="preserve" font-family="Helvetica-Light" font-size="29.2" fill="#000000" transform="matrix(1.00, 0.00, -0.00, -1.00, 553.5, 461.0)">r</text><text xml:space="preserve" font-family="Helvetica-Light" font-size="29.2" fill="#000000" transform="matrix(1.00, 0.00, -0.00, -1.00, 563.2, 461.0)">a</text><text xml:space="preserve" font-family="Helvetica-Light" font-size="29.2" fill="#000000" transform="matrix(1.00, 0.00, -0.00, -1.00, 579.4, 461.0)">c</text><text xml:space="preserve" font-family="Helvetica-Light" font-size="29.2" fill="#000000" transform="matrix(1.00, 0.00, -0.00, -1.00, 595.6, 461.0)">k</text><text xml:space="preserve" font-family="Helvetica-Light" font-size="29.2" fill="#000000" transform="matrix(1.00, 0.00, -0.00, -1.00, 610.2, 461.0)"> </text><text xml:space="preserve" font-family="Helvetica-Light" font-size="21.9" fill="#000000" transform="matrix(1.00, 0.00, -0.00, -1.00, 79.0, 394.5)">•</text><text xml:space="preserve" font-family="Helvetica-Light" font-size="29.2" fill="#000000" transform="matrix(1.00, 0.00, -0.00, -1.00, 107.0, 392.0)">O</text><text xml:space="preserve" font-family="Helvetica-Light" font-size="29.2" fill="#000000" transform="matrix(1.00, 0.00, -0.00, -1.00, 129.7, 392.0)">n</text><text xml:space="preserve" font-family="Helvetica-Light" font-size="29.2" fill="#000000" transform="matrix(1.00, 0.00, -0.00, -1.00, 145.9, 392.0)"> </text><text xml:space="preserve" font-family="Helvetica-Light" font-size="29.2" fill="#000000" transform="matrix(1.00, 0.00, -0.00, -1.00, 154.0, 392.0)">a</text><text xml:space="preserve" font-family="Helvetica-Light" font-size="29.2" fill="#000000" transform="matrix(1.00, 0.00, -0.00, -1.00, 170.2, 392.0)"> </text><text xml:space="preserve" font-family="Helvetica-Light" font-size="29.2" fill="#000000" transform="matrix(1.00, 0.00, -0.00, -1.00, 178.3, 392.0)">t</text><text xml:space="preserve" font-family="Helvetica-Light" font-size="29.2" fill="#000000" transform="matrix(1.00, 0.00, -0.00, -1.00, 186.4, 392.0)">u</text><text xml:space="preserve" font-family="Helvetica-Light" font-size="29.2" fill="#000000" transform="matrix(1.00, 0.00, -0.00, -1.00, 202.6, 392.0)">r</text><text xml:space="preserve" font-family="Helvetica-Light" font-size="29.2" fill="#000000" transform="matrix(1.00, 0.00, -0.00, -1.00, 212.9, 392.0)">n</text><text xml:space="preserve" font-family="Helvetica-Light" font-size="29.2" fill="#000000" transform="matrix(1.00, 0.00, -0.00, -1.00, 229.1, 392.0)"> </text><text xml:space="preserve" font-family="Helvetica-Light" font-size="29.2" fill="#000000" transform="matrix(1.00, 0.00, -0.00, -1.00, 237.2, 392.0)">a</text><text xml:space="preserve" font-family="Helvetica-Light" font-size="29.2" fill="#000000" transform="matrix(1.00, 0.00, -0.00, -1.00, 253.4, 392.0)"> </text><text xml:space="preserve" font-family="Helvetica-Light" font-size="29.2" fill="#000000" transform="matrix(1.00, 0.00, -0.00, -1.00, 261.5, 392.0)">p</text><text xml:space="preserve" font-family="Helvetica-Light" font-size="29.2" fill="#000000" transform="matrix(1.00, 0.00, -0.00, -1.00, 279.3, 392.0)">l</text><text xml:space="preserve" font-family="Helvetica-Light" font-size="29.2" fill="#000000" transform="matrix(1.00, 0.00, -0.00, -1.00, 285.8, 392.0)">a</text><text xml:space="preserve" font-family="Helvetica-Light" font-size="29.2" fill="#000000" transform="matrix(1.00, 0.00, -0.00, -1.00, 302.0, 392.0)">y</text><text xml:space="preserve" font-family="Helvetica-Light" font-size="29.2" fill="#000000" transform="matrix(1.00, 0.00, -0.00, -1.00, 316.6, 392.0)">e</text><text xml:space="preserve" font-family="Helvetica-Light" font-size="29.2" fill="#000000" transform="matrix(1.00, 0.00, -0.00, -1.00, 332.8, 392.0)">r</text><text xml:space="preserve" font-family="Helvetica-Light" font-size="29.2" fill="#000000" transform="matrix(1.00, 0.00, -0.00, -1.00, 342.5, 392.0)"> </text><text xml:space="preserve" font-family="Helvetica-Light" font-size="29.2" fill="#000000" transform="matrix(1.00, 0.00, -0.00, -1.00, 350.6, 392.0)">g</text><text xml:space="preserve" font-family="Helvetica-Light" font-size="29.2" fill="#000000" transform="matrix(1.00, 0.00, -0.00, -1.00, 368.4, 392.0)">e</text><text xml:space="preserve" font-family="Helvetica-Light" font-size="29.2" fill="#000000" transform="matrix(1.00, 0.00, -0.00, -1.00, 384.7, 392.0)">t</text><text xml:space="preserve" font-family="Helvetica-Light" font-size="29.2" fill="#000000" transform="matrix(1.00, 0.00, -0.00, -1.00, 392.8, 392.0)">s</text><text xml:space="preserve" font-family="Helvetica-Light" font-size="29.2" fill="#000000" transform="matrix(1.00, 0.00, -0.00, -1.00, 407.3, 392.0)"> </text><text xml:space="preserve" font-family="Helvetica-Light" font-size="29.2" fill="#000000" transform="matrix(1.00, 0.00, -0.00, -1.00, 415.5, 392.0)">3</text><text xml:space="preserve" font-family="Helvetica-Light" font-size="29.2" fill="#000000" transform="matrix(1.00, 0.00, -0.00, -1.00, 431.7, 392.0)"> </text><text xml:space="preserve" font-family="Helvetica-Light" font-size="29.2" fill="#000000" transform="matrix(1.00, 0.00, -0.00, -1.00, 439.8, 392.0)">a</text><text xml:space="preserve" font-family="Helvetica-Light" font-size="29.2" fill="#000000" transform="matrix(1.00, 0.00, -0.00, -1.00, 456.0, 392.0)">c</text><text xml:space="preserve" font-family="Helvetica-Light" font-size="29.2" fill="#000000" transform="matrix(1.00, 0.00, -0.00, -1.00, 472.2, 392.0)">t</text><text xml:space="preserve" font-family="Helvetica-Light" font-size="29.2" fill="#000000" transform="matrix(1.00, 0.00, -0.00, -1.00, 480.3, 392.0)">i</text><text xml:space="preserve" font-family="Helvetica-Light" font-size="29.2" fill="#000000" transform="matrix(1.00, 0.00, -0.00, -1.00, 486.8, 392.0)">o</text><text xml:space="preserve" font-family="Helvetica-Light" font-size="29.2" fill="#000000" transform="matrix(1.00, 0.00, -0.00, -1.00, 503.0, 392.0)">n</text><text xml:space="preserve" font-family="Helvetica-Light" font-size="29.2" fill="#000000" transform="matrix(1.00, 0.00, -0.00, -1.00, 519.2, 392.0)">s</text><text xml:space="preserve" font-family="Helvetica-Light" font-size="29.2" fill="#000000" transform="matrix(1.00, 0.00, -0.00, -1.00, 533.8, 392.0)"> </text><text xml:space="preserve" font-family="Helvetica-Light" font-size="29.2" fill="#000000" transform="matrix(1.00, 0.00, -0.00, -1.00, 541.9, 392.0)">c</text><text xml:space="preserve" font-family="Helvetica-Light" font-size="29.2" fill="#000000" transform="matrix(1.00, 0.00, -0.00, -1.00, 558.1, 392.0)">o</text><text xml:space="preserve" font-family="Helvetica-Light" font-size="29.2" fill="#000000" transform="matrix(1.00, 0.00, -0.00, -1.00, 574.3, 392.0)">n</text><text xml:space="preserve" font-family="Helvetica-Light" font-size="29.2" fill="#000000" transform="matrix(1.00, 0.00, -0.00, -1.00, 590.5, 392.0)">s</text><text xml:space="preserve" font-family="Helvetica-Light" font-size="29.2" fill="#000000" transform="matrix(1.00, 0.00, -0.00, -1.00, 605.1, 392.0)">i</text><text xml:space="preserve" font-family="Helvetica-Light" font-size="29.2" fill="#000000" transform="matrix(1.00, 0.00, -0.00, -1.00, 611.6, 392.0)">s</text><text xml:space="preserve" font-family="Helvetica-Light" font-size="29.2" fill="#000000" transform="matrix(1.00, 0.00, -0.00, -1.00, 626.2, 392.0)">t</text><text xml:space="preserve" font-family="Helvetica-Light" font-size="29.2" fill="#000000" transform="matrix(1.00, 0.00, -0.00, -1.00, 634.3, 392.0)">i</text><text xml:space="preserve" font-family="Helvetica-Light" font-size="29.2" fill="#000000" transform="matrix(1.00, 0.00, -0.00, -1.00, 640.7, 392.0)">n</text><text xml:space="preserve" font-family="Helvetica-Light" font-size="29.2" fill="#000000" transform="matrix(1.00, 0.00, -0.00, -1.00, 657.0, 392.0)">g</text><text xml:space="preserve" font-family="Helvetica-Light" font-size="29.2" fill="#000000" transform="matrix(1.00, 0.00, -0.00, -1.00, 674.8, 392.0)"> </text><text xml:space="preserve" font-family="Helvetica-Light" font-size="29.2" fill="#000000" transform="matrix(1.00, 0.00, -0.00, -1.00, 682.9, 392.0)">o</text><text xml:space="preserve" font-family="Helvetica-Light" font-size="29.2" fill="#000000" transform="matrix(1.00, 0.00, -0.00, -1.00, 699.1, 392.0)">f</text><text xml:space="preserve" font-family="Helvetica-Light" font-size="29.2" fill="#000000" transform="matrix(1.00, 0.00, -0.00, -1.00, 707.2, 392.0)"> </text><text xml:space="preserve" font-family="Helvetica-Light" font-size="29.2" fill="#000000" transform="matrix(1.00, 0.00, -0.00, -1.00, 715.3, 392.0)">a</text><text xml:space="preserve" font-family="Helvetica-Light" font-size="29.2" fill="#000000" transform="matrix(1.00, 0.00, -0.00, -1.00, 731.5, 392.0)">n</text><text xml:space="preserve" font-family="Helvetica-Light" font-size="29.2" fill="#000000" transform="matrix(1.00, 0.00, -0.00, -1.00, 747.7, 392.0)">y</text><text xml:space="preserve" font-family="Helvetica-Light" font-size="29.2" fill="#000000" transform="matrix(1.00, 0.00, -0.00, -1.00, 762.3, 392.0)"> </text><text xml:space="preserve" font-family="Helvetica-Light" font-size="29.2" fill="#000000" transform="matrix(1.00, 0.00, -0.00, -1.00, 770.4, 392.0)">o</text><text xml:space="preserve" font-family="Helvetica-Light" font-size="29.2" fill="#000000" transform="matrix(1.00, 0.00, -0.00, -1.00, 786.6, 392.0)">f</text><text xml:space="preserve" font-family="Helvetica-Light" font-size="29.2" fill="#000000" transform="matrix(1.00, 0.00, -0.00, -1.00, 794.7, 392.0)"> </text><text xml:space="preserve" font-family="Helvetica-Light" font-size="29.2" fill="#000000" transform="matrix(1.00, 0.00, -0.00, -1.00, 802.8, 392.0)">t</text><text xml:space="preserve" font-family="Helvetica-Light" font-size="29.2" fill="#000000" transform="matrix(1.00, 0.00, -0.00, -1.00, 811.0, 392.0)">h</text><text xml:space="preserve" font-family="Helvetica-Light" font-size="29.2" fill="#000000" transform="matrix(1.00, 0.00, -0.00, -1.00, 827.2, 392.0)">e</text><text xml:space="preserve" font-family="Helvetica-Light" font-size="29.2" fill="#000000" transform="matrix(1.00, 0.00, -0.00, -1.00, 843.4, 392.0)"> </text><text xml:space="preserve" font-family="Helvetica-Light" font-size="29.2" fill="#000000" transform="matrix(1.00, 0.00, -0.00, -1.00, 107.0, 357.0)">f</text><text xml:space="preserve" font-family="Helvetica-Light" font-size="29.2" fill="#000000" transform="matrix(1.00, 0.00, -0.00, -1.00, 115.1, 357.0)">o</text><text xml:space="preserve" font-family="Helvetica-Light" font-size="29.2" fill="#000000" transform="matrix(1.00, 0.00, -0.00, -1.00, 131.3, 357.0)">l</text><text xml:space="preserve" font-family="Helvetica-Light" font-size="29.2" fill="#000000" transform="matrix(1.00, 0.00, -0.00, -1.00, 137.8, 357.0)">l</text><text xml:space="preserve" font-family="Helvetica-Light" font-size="29.2" fill="#000000" transform="matrix(1.00, 0.00, -0.00, -1.00, 144.3, 357.0)">o</text><text xml:space="preserve" font-family="Helvetica-Light" font-size="29.2" fill="#000000" transform="matrix(1.00, 0.00, -0.00, -1.00, 160.5, 357.0)">w</text><text xml:space="preserve" font-family="Helvetica-Light" font-size="29.2" fill="#000000" transform="matrix(1.00, 0.00, -0.00, -1.00, 181.5, 357.0)">i</text><text xml:space="preserve" font-family="Helvetica-Light" font-size="29.2" fill="#000000" transform="matrix(1.00, 0.00, -0.00, -1.00, 188.0, 357.0)">n</text><text xml:space="preserve" font-family="Helvetica-Light" font-size="29.2" fill="#000000" transform="matrix(1.00, 0.00, -0.00, -1.00, 204.2, 357.0)">g</text><text xml:space="preserve" font-family="Helvetica-Light" font-size="29.2" fill="#000000" transform="matrix(1.00, 0.00, -0.00, -1.00, 222.0, 357.0)">:</text><text xml:space="preserve" font-family="Helvetica-Light" font-size="29.2" fill="#000000" transform="matrix(1.00, 0.00, -0.00, -1.00, 230.1, 357.0)"> </text><text xml:space="preserve" font-family="Helvetica-Light" font-size="21.9" fill="#000000" transform="matrix(1.00, 0.00, -0.00, -1.00, 114.0, 290.5)">•</text><text xml:space="preserve" font-family="Helvetica-Light" font-size="29.2" fill="#000000" transform="matrix(1.00, 0.00, -0.00, -1.00, 142.0, 288.0)">P</text><text xml:space="preserve" font-family="Helvetica-Light" font-size="29.2" fill="#000000" transform="matrix(1.00, 0.00, -0.00, -1.00, 159.8, 288.0)">l</text><text xml:space="preserve" font-family="Helvetica-Light" font-size="29.2" fill="#000000" transform="matrix(1.00, 0.00, -0.00, -1.00, 166.3, 288.0)">a</text><text xml:space="preserve" font-family="Helvetica-Light" font-size="29.2" fill="#000000" transform="matrix(1.00, 0.00, -0.00, -1.00, 182.5, 288.0)">y</text><text xml:space="preserve" font-family="Helvetica-Light" font-size="29.2" fill="#000000" transform="matrix(1.00, 0.00, -0.00, -1.00, 197.1, 288.0)"> </text><text xml:space="preserve" font-family="Helvetica-Light" font-size="29.2" fill="#000000" transform="matrix(1.00, 0.00, -0.00, -1.00, 205.2, 288.0)">a</text><text xml:space="preserve" font-family="Helvetica-Light" font-size="29.2" fill="#000000" transform="matrix(1.00, 0.00, -0.00, -1.00, 221.4, 288.0)"> </text><text xml:space="preserve" font-family="Helvetica-Light" font-size="29.2" fill="#000000" transform="matrix(1.00, 0.00, -0.00, -1.00, 229.5, 288.0)">c</text><text xml:space="preserve" font-family="Helvetica-Light" font-size="29.2" fill="#000000" transform="matrix(1.00, 0.00, -0.00, -1.00, 245.7, 288.0)">a</text><text xml:space="preserve" font-family="Helvetica-Light" font-size="29.2" fill="#000000" transform="matrix(1.00, 0.00, -0.00, -1.00, 261.9, 288.0)">r</text><text xml:space="preserve" font-family="Helvetica-Light" font-size="29.2" fill="#000000" transform="matrix(1.00, 0.00, -0.00, -1.00, 271.1, 288.0)">d</text><text xml:space="preserve" font-family="Helvetica-Light" font-size="29.2" fill="#000000" transform="matrix(1.00, 0.00, -0.00, -1.00, 288.9, 288.0)"> </text><text xml:space="preserve" font-family="Helvetica-Light" font-size="29.2" fill="#000000" transform="matrix(1.00, 0.00, -0.00, -1.00, 297.0, 288.0)">t</text><text xml:space="preserve" font-family="Helvetica-Light" font-size="29.2" fill="#000000" transform="matrix(1.00, 0.00, -0.00, -1.00, 305.2, 288.0)">o</text><text xml:space="preserve" font-family="Helvetica-Light" font-size="29.2" fill="#000000" transform="matrix(1.00, 0.00, -0.00, -1.00, 321.4, 288.0)"> </text><text xml:space="preserve" font-family="Helvetica-Light" font-size="29.2" fill="#000000" transform="matrix(1.00, 0.00, -0.00, -1.00, 329.5, 288.0)">m</text><text xml:space="preserve" font-family="Helvetica-Light" font-size="29.2" fill="#000000" transform="matrix(1.00, 0.00, -0.00, -1.00, 353.8, 288.0)">o</text><text xml:space="preserve" font-family="Helvetica-Light" font-size="29.2" fill="#000000" transform="matrix(1.00, 0.00, -0.00, -1.00, 370.0, 288.0)">v</text><text xml:space="preserve" font-family="Helvetica-Light" font-size="29.2" fill="#000000" transform="matrix(1.00, 0.00, -0.00, -1.00, 384.6, 288.0)">e</text><text xml:space="preserve" font-family="Helvetica-Light" font-size="29.2" fill="#000000" transform="matrix(1.00, 0.00, -0.00, -1.00, 400.8, 288.0)"> </text><text xml:space="preserve" font-family="Helvetica-Light" font-size="29.2" fill="#000000" transform="matrix(1.00, 0.00, -0.00, -1.00, 408.9, 288.0)">a</text><text xml:space="preserve" font-family="Helvetica-Light" font-size="29.2" fill="#000000" transform="matrix(1.00, 0.00, -0.00, -1.00, 425.1, 288.0)"> </text><text xml:space="preserve" font-family="Helvetica-Light" font-size="29.2" fill="#000000" transform="matrix(1.00, 0.00, -0.00, -1.00, 433.2, 288.0)">p</text><text xml:space="preserve" font-family="Helvetica-Light" font-size="29.2" fill="#000000" transform="matrix(1.00, 0.00, -0.00, -1.00, 451.0, 288.0)">i</text><text xml:space="preserve" font-family="Helvetica-Light" font-size="29.2" fill="#000000" transform="matrix(1.00, 0.00, -0.00, -1.00, 457.5, 288.0)">r</text><text xml:space="preserve" font-family="Helvetica-Light" font-size="29.2" fill="#000000" transform="matrix(1.00, 0.00, -0.00, -1.00, 467.2, 288.0)">a</text><text xml:space="preserve" font-family="Helvetica-Light" font-size="29.2" fill="#000000" transform="matrix(1.00, 0.00, -0.00, -1.00, 483.4, 288.0)">t</text><text xml:space="preserve" font-family="Helvetica-Light" font-size="29.2" fill="#000000" transform="matrix(1.00, 0.00, -0.00, -1.00, 491.5, 288.0)">e</text><text xml:space="preserve" font-family="Helvetica-Light" font-size="29.2" fill="#000000" transform="matrix(1.00, 0.00, -0.00, -1.00, 507.7, 288.0)"> </text><text xml:space="preserve" font-family="Helvetica-Light" font-size="29.2" fill="#000000" transform="matrix(1.00, 0.00, -0.00, -1.00, 515.8, 288.0)">f</text><text xml:space="preserve" font-family="Helvetica-Light" font-size="29.2" fill="#000000" transform="matrix(1.00, 0.00, -0.00, -1.00, 523.9, 288.0)">o</text><text xml:space="preserve" font-family="Helvetica-Light" font-size="29.2" fill="#000000" transform="matrix(1.00, 0.00, -0.00, -1.00, 540.2, 288.0)">r</text><text xml:space="preserve" font-family="Helvetica-Light" font-size="29.2" fill="#000000" transform="matrix(1.00, 0.00, -0.00, -1.00, 549.9, 288.0)">w</text><text xml:space="preserve" font-family="Helvetica-Light" font-size="29.2" fill="#000000" transform="matrix(1.00, 0.00, -0.00, -1.00, 570.9, 288.0)">a</text><text xml:space="preserve" font-family="Helvetica-Light" font-size="29.2" fill="#000000" transform="matrix(1.00, 0.00, -0.00, -1.00, 587.1, 288.0)">r</text><text xml:space="preserve" font-family="Helvetica-Light" font-size="29.2" fill="#000000" transform="matrix(1.00, 0.00, -0.00, -1.00, 596.3, 288.0)">d</text><text xml:space="preserve" font-family="Helvetica-Light" font-size="29.2" fill="#000000" transform="matrix(1.00, 0.00, -0.00, -1.00, 614.1, 288.0)"> </text><text xml:space="preserve" font-family="Helvetica-Light" font-size="21.9" fill="#000000" transform="matrix(1.00, 0.00, -0.00, -1.00, 114.0, 221.5)">•</text><text xml:space="preserve" font-family="Helvetica-Light" font-size="29.2" fill="#000000" transform="matrix(1.00, 0.00, -0.00, -1.00, 142.0, 219.0)">M</text><text xml:space="preserve" font-family="Helvetica-Light" font-size="29.2" fill="#000000" transform="matrix(1.00, 0.00, -0.00, -1.00, 166.3, 219.0)">o</text><text xml:space="preserve" font-family="Helvetica-Light" font-size="29.2" fill="#000000" transform="matrix(1.00, 0.00, -0.00, -1.00, 182.5, 219.0)">v</text><text xml:space="preserve" font-family="Helvetica-Light" font-size="29.2" fill="#000000" transform="matrix(1.00, 0.00, -0.00, -1.00, 197.1, 219.0)">e</text><text xml:space="preserve" font-family="Helvetica-Light" font-size="29.2" fill="#000000" transform="matrix(1.00, 0.00, -0.00, -1.00, 213.3, 219.0)"> </text><text xml:space="preserve" font-family="Helvetica-Light" font-size="29.2" fill="#000000" transform="matrix(1.00, 0.00, -0.00, -1.00, 221.4, 219.0)">a</text><text xml:space="preserve" font-family="Helvetica-Light" font-size="29.2" fill="#000000" transform="matrix(1.00, 0.00, -0.00, -1.00, 237.6, 219.0)"> </text><text xml:space="preserve" font-family="Helvetica-Light" font-size="29.2" fill="#000000" transform="matrix(1.00, 0.00, -0.00, -1.00, 245.7, 219.0)">p</text><text xml:space="preserve" font-family="Helvetica-Light" font-size="29.2" fill="#000000" transform="matrix(1.00, 0.00, -0.00, -1.00, 263.5, 219.0)">i</text><text xml:space="preserve" font-family="Helvetica-Light" font-size="29.2" fill="#000000" transform="matrix(1.00, 0.00, -0.00, -1.00, 270.0, 219.0)">r</text><text xml:space="preserve" font-family="Helvetica-Light" font-size="29.2" fill="#000000" transform="matrix(1.00, 0.00, -0.00, -1.00, 279.7, 219.0)">a</text><text xml:space="preserve" font-family="Helvetica-Light" font-size="29.2" fill="#000000" transform="matrix(1.00, 0.00, -0.00, -1.00, 295.9, 219.0)">t</text><text xml:space="preserve" font-family="Helvetica-Light" font-size="29.2" fill="#000000" transform="matrix(1.00, 0.00, -0.00, -1.00, 304.0, 219.0)">e</text><text xml:space="preserve" font-family="Helvetica-Light" font-size="29.2" fill="#000000" transform="matrix(1.00, 0.00, -0.00, -1.00, 320.3, 219.0)"> </text><text xml:space="preserve" font-family="Helvetica-Light" font-size="29.2" fill="#000000" transform="matrix(1.00, 0.00, -0.00, -1.00, 328.4, 219.0)">b</text><text xml:space="preserve" font-family="Helvetica-Light" font-size="29.2" fill="#000000" transform="matrix(1.00, 0.00, -0.00, -1.00, 346.2, 219.0)">a</text><text xml:space="preserve" font-family="Helvetica-Light" font-size="29.2" fill="#000000" transform="matrix(1.00, 0.00, -0.00, -1.00, 362.4, 219.0)">c</text><text xml:space="preserve" font-family="Helvetica-Light" font-size="29.2" fill="#000000" transform="matrix(1.00, 0.00, -0.00, -1.00, 378.6, 219.0)">k</text><text xml:space="preserve" font-family="Helvetica-Light" font-size="29.2" fill="#000000" transform="matrix(1.00, 0.00, -0.00, -1.00, 393.2, 219.0)">w</text><text xml:space="preserve" font-family="Helvetica-Light" font-size="29.2" fill="#000000" transform="matrix(1.00, 0.00, -0.00, -1.00, 414.2, 219.0)">a</text><text xml:space="preserve" font-family="Helvetica-Light" font-size="29.2" fill="#000000" transform="matrix(1.00, 0.00, -0.00, -1.00, 430.5, 219.0)">r</text><text xml:space="preserve" font-family="Helvetica-Light" font-size="29.2" fill="#000000" transform="matrix(1.00, 0.00, -0.00, -1.00, 439.6, 219.0)">d</text><text xml:space="preserve" font-family="Helvetica-Light" font-size="29.2" fill="#000000" transform="matrix(1.00, 0.00, -0.00, -1.00, 457.5, 219.0)">s</text><text xml:space="preserve" font-family="Helvetica-Light" font-size="29.2" fill="#000000" transform="matrix(1.00, 0.00, -0.00, -1.00, 472.0, 219.0)"> </text><text xml:space="preserve" font-family="Helvetica-Light" font-size="29.2" fill="#000000" transform="matrix(1.00, 0.00, -0.00, -1.00, 480.1, 219.0)">t</text><text xml:space="preserve" font-family="Helvetica-Light" font-size="29.2" fill="#000000" transform="matrix(1.00, 0.00, -0.00, -1.00, 488.2, 219.0)">o</text><text xml:space="preserve" font-family="Helvetica-Light" font-size="29.2" fill="#000000" transform="matrix(1.00, 0.00, -0.00, -1.00, 504.5, 219.0)"> </text><text xml:space="preserve" font-family="Helvetica-Light" font-size="29.2" fill="#000000" transform="matrix(1.00, 0.00, -0.00, -1.00, 512.6, 219.0)">e</text><text xml:space="preserve" font-family="Helvetica-Light" font-size="29.2" fill="#000000" transform="matrix(1.00, 0.00, -0.00, -1.00, 528.8, 219.0)">a</text><text xml:space="preserve" font-family="Helvetica-Light" font-size="29.2" fill="#000000" transform="matrix(1.00, 0.00, -0.00, -1.00, 545.0, 219.0)">r</text><text xml:space="preserve" font-family="Helvetica-Light" font-size="29.2" fill="#000000" transform="matrix(1.00, 0.00, -0.00, -1.00, 555.2, 219.0)">n</text><text xml:space="preserve" font-family="Helvetica-Light" font-size="29.2" fill="#000000" transform="matrix(1.00, 0.00, -0.00, -1.00, 571.4, 219.0)"> </text><text xml:space="preserve" font-family="Helvetica-Light" font-size="29.2" fill="#000000" transform="matrix(1.00, 0.00, -0.00, -1.00, 579.5, 219.0)">c</text><text xml:space="preserve" font-family="Helvetica-Light" font-size="29.2" fill="#000000" transform="matrix(1.00, 0.00, -0.00, -1.00, 595.8, 219.0)">a</text><text xml:space="preserve" font-family="Helvetica-Light" font-size="29.2" fill="#000000" transform="matrix(1.00, 0.00, -0.00, -1.00, 612.0, 219.0)">r</text><text xml:space="preserve" font-family="Helvetica-Light" font-size="29.2" fill="#000000" transform="matrix(1.00, 0.00, -0.00, -1.00, 621.2, 219.0)">d</text><text xml:space="preserve" font-family="Helvetica-Light" font-size="29.2" fill="#000000" transform="matrix(1.00, 0.00, -0.00, -1.00, 639.0, 219.0)">s</text><text xml:space="preserve" font-family="Helvetica-Light" font-size="29.2" fill="#000000" transform="matrix(1.00, 0.00, -0.00, -1.00, 653.6, 219.0)"> </text><text xml:space="preserve" font-family="Helvetica-Light" font-size="21.9" fill="#000000" transform="matrix(1.00, 0.00, -0.00, -1.00, 114.0, 152.4)">•</text><text xml:space="preserve" font-family="Helvetica-Light" font-size="29.2" fill="#000000" transform="matrix(1.00, 0.00, -0.00, -1.00, 142.0, 150.0)">P</text><text xml:space="preserve" font-family="Helvetica-Light" font-size="29.2" fill="#000000" transform="matrix(1.00, 0.00, -0.00, -1.00, 159.8, 150.0)">a</text><text xml:space="preserve" font-family="Helvetica-Light" font-size="29.2" fill="#000000" transform="matrix(1.00, 0.00, -0.00, -1.00, 176.0, 150.0)">s</text><text xml:space="preserve" font-family="Helvetica-Light" font-size="29.2" fill="#000000" transform="matrix(1.00, 0.00, -0.00, -1.00, 190.6, 150.0)">s</text><text xml:space="preserve" font-family="Helvetica-Light" font-size="29.2" fill="#000000" transform="matrix(1.00, 0.00, -0.00, -1.00, 205.2, 150.0)"> </text><text xml:space="preserve" font-family="Helvetica-Light" font-size="21.9" fill="#000000" transform="matrix(1.00, 0.00, -0.00, -1.00, 79.0, 83.4)">•</text><text xml:space="preserve" font-family="Helvetica-Light" font-size="29.2" fill="#000000" transform="matrix(1.00, 0.00, -0.00, -1.00, 107.0, 81.0)">T</text><text xml:space="preserve" font-family="Helvetica-Light" font-size="29.2" fill="#000000" transform="matrix(1.00, 0.00, -0.00, -1.00, 123.2, 81.0)">h</text><text xml:space="preserve" font-family="Helvetica-Light" font-size="29.2" fill="#000000" transform="matrix(1.00, 0.00, -0.00, -1.00, 139.4, 81.0)">e</text><text xml:space="preserve" font-family="Helvetica-Light" font-size="29.2" fill="#000000" transform="matrix(1.00, 0.00, -0.00, -1.00, 155.6, 81.0)"> </text><text xml:space="preserve" font-family="Helvetica-Light" font-size="29.2" fill="#000000" transform="matrix(1.00, 0.00, -0.00, -1.00, 163.7, 81.0)">ﬁ</text><text xml:space="preserve" font-family="Helvetica-Light" font-size="29.2" fill="#000000" transform="matrix(1.00, 0.00, -0.00, -1.00, 178.3, 81.0)">r</text><text xml:space="preserve" font-family="Helvetica-Light" font-size="29.2" fill="#000000" transform="matrix(1.00, 0.00, -0.00, -1.00, 188.0, 81.0)">s</text><text xml:space="preserve" font-family="Helvetica-Light" font-size="29.2" fill="#000000" transform="matrix(1.00, 0.00, -0.00, -1.00, 202.6, 81.0)">t</text><text xml:space="preserve" font-family="Helvetica-Light" font-size="29.2" fill="#000000" transform="matrix(1.00, 0.00, -0.00, -1.00, 210.7, 81.0)"> </text><text xml:space="preserve" font-family="Helvetica-Light" font-size="29.2" fill="#000000" transform="matrix(1.00, 0.00, -0.00, -1.00, 218.8, 81.0)">p</text><text xml:space="preserve" font-family="Helvetica-Light" font-size="29.2" fill="#000000" transform="matrix(1.00, 0.00, -0.00, -1.00, 236.6, 81.0)">l</text><text xml:space="preserve" font-family="Helvetica-Light" font-size="29.2" fill="#000000" transform="matrix(1.00, 0.00, -0.00, -1.00, 243.1, 81.0)">a</text><text xml:space="preserve" font-family="Helvetica-Light" font-size="29.2" fill="#000000" transform="matrix(1.00, 0.00, -0.00, -1.00, 259.3, 81.0)">y</text><text xml:space="preserve" font-family="Helvetica-Light" font-size="29.2" fill="#000000" transform="matrix(1.00, 0.00, -0.00, -1.00, 273.9, 81.0)">e</text><text xml:space="preserve" font-family="Helvetica-Light" font-size="29.2" fill="#000000" transform="matrix(1.00, 0.00, -0.00, -1.00, 290.1, 81.0)">r</text><text xml:space="preserve" font-family="Helvetica-Light" font-size="29.2" fill="#000000" transform="matrix(1.00, 0.00, -0.00, -1.00, 299.8, 81.0)"> </text><text xml:space="preserve" font-family="Helvetica-Light" font-size="29.2" fill="#000000" transform="matrix(1.00, 0.00, -0.00, -1.00, 307.9, 81.0)">t</text><text xml:space="preserve" font-family="Helvetica-Light" font-size="29.2" fill="#000000" transform="matrix(1.00, 0.00, -0.00, -1.00, 316.0, 81.0)">o</text><text xml:space="preserve" font-family="Helvetica-Light" font-size="29.2" fill="#000000" transform="matrix(1.00, 0.00, -0.00, -1.00, 332.3, 81.0)"> </text><text xml:space="preserve" font-family="Helvetica-Light" font-size="29.2" fill="#000000" transform="matrix(1.00, 0.00, -0.00, -1.00, 340.4, 81.0)">m</text><text xml:space="preserve" font-family="Helvetica-Light" font-size="29.2" fill="#000000" transform="matrix(1.00, 0.00, -0.00, -1.00, 364.7, 81.0)">o</text><text xml:space="preserve" font-family="Helvetica-Light" font-size="29.2" fill="#000000" transform="matrix(1.00, 0.00, -0.00, -1.00, 380.9, 81.0)">v</text><text xml:space="preserve" font-family="Helvetica-Light" font-size="29.2" fill="#000000" transform="matrix(1.00, 0.00, -0.00, -1.00, 395.5, 81.0)">e</text><text xml:space="preserve" font-family="Helvetica-Light" font-size="29.2" fill="#000000" transform="matrix(1.00, 0.00, -0.00, -1.00, 411.7, 81.0)"> </text><text xml:space="preserve" font-family="Helvetica-Light" font-size="29.2" fill="#000000" transform="matrix(1.00, 0.00, -0.00, -1.00, 419.8, 81.0)">a</text><text xml:space="preserve" font-family="Helvetica-Light" font-size="29.2" fill="#000000" transform="matrix(1.00, 0.00, -0.00, -1.00, 436.0, 81.0)">l</text><text xml:space="preserve" font-family="Helvetica-Light" font-size="29.2" fill="#000000" transform="matrix(1.00, 0.00, -0.00, -1.00, 442.5, 81.0)">l</text><text xml:space="preserve" font-family="Helvetica-Light" font-size="29.2" fill="#000000" transform="matrix(1.00, 0.00, -0.00, -1.00, 448.9, 81.0)"> </text><text xml:space="preserve" font-family="Helvetica-Light" font-size="29.2" fill="#000000" transform="matrix(1.00, 0.00, -0.00, -1.00, 457.0, 81.0)">o</text><text xml:space="preserve" font-family="Helvetica-Light" font-size="29.2" fill="#000000" transform="matrix(1.00, 0.00, -0.00, -1.00, 473.2, 81.0)">f</text><text xml:space="preserve" font-family="Helvetica-Light" font-size="29.2" fill="#000000" transform="matrix(1.00, 0.00, -0.00, -1.00, 481.4, 81.0)"> </text><text xml:space="preserve" font-family="Helvetica-Light" font-size="29.2" fill="#000000" transform="matrix(1.00, 0.00, -0.00, -1.00, 489.5, 81.0)">t</text><text xml:space="preserve" font-family="Helvetica-Light" font-size="29.2" fill="#000000" transform="matrix(1.00, 0.00, -0.00, -1.00, 497.6, 81.0)">h</text><text xml:space="preserve" font-family="Helvetica-Light" font-size="29.2" fill="#000000" transform="matrix(1.00, 0.00, -0.00, -1.00, 513.8, 81.0)">e</text><text xml:space="preserve" font-family="Helvetica-Light" font-size="29.2" fill="#000000" transform="matrix(1.00, 0.00, -0.00, -1.00, 530.0, 81.0)">i</text><text xml:space="preserve" font-family="Helvetica-Light" font-size="29.2" fill="#000000" transform="matrix(1.00, 0.00, -0.00, -1.00, 536.5, 81.0)">r</text><text xml:space="preserve" font-family="Helvetica-Light" font-size="29.2" fill="#000000" transform="matrix(1.00, 0.00, -0.00, -1.00, 546.2, 81.0)"> </text><text xml:space="preserve" font-family="Helvetica-Light" font-size="29.2" fill="#000000" transform="matrix(1.00, 0.00, -0.00, -1.00, 554.3, 81.0)">p</text><text xml:space="preserve" font-family="Helvetica-Light" font-size="29.2" fill="#000000" transform="matrix(1.00, 0.00, -0.00, -1.00, 572.1, 81.0)">i</text><text xml:space="preserve" font-family="Helvetica-Light" font-size="29.2" fill="#000000" transform="matrix(1.00, 0.00, -0.00, -1.00, 578.6, 81.0)">r</text><text xml:space="preserve" font-family="Helvetica-Light" font-size="29.2" fill="#000000" transform="matrix(1.00, 0.00, -0.00, -1.00, 588.3, 81.0)">a</text><text xml:space="preserve" font-family="Helvetica-Light" font-size="29.2" fill="#000000" transform="matrix(1.00, 0.00, -0.00, -1.00, 604.5, 81.0)">t</text><text xml:space="preserve" font-family="Helvetica-Light" font-size="29.2" fill="#000000" transform="matrix(1.00, 0.00, -0.00, -1.00, 612.6, 81.0)">e</text><text xml:space="preserve" font-family="Helvetica-Light" font-size="29.2" fill="#000000" transform="matrix(1.00, 0.00, -0.00, -1.00, 628.8, 81.0)">s</text><text xml:space="preserve" font-family="Helvetica-Light" font-size="29.2" fill="#000000" transform="matrix(1.00, 0.00, -0.00, -1.00, 643.4, 81.0)"> </text><text xml:space="preserve" font-family="Helvetica-Light" font-size="29.2" fill="#000000" transform="matrix(1.00, 0.00, -0.00, -1.00, 651.5, 81.0)">t</text><text xml:space="preserve" font-family="Helvetica-Light" font-size="29.2" fill="#000000" transform="matrix(1.00, 0.00, -0.00, -1.00, 659.6, 81.0)">o</text><text xml:space="preserve" font-family="Helvetica-Light" font-size="29.2" fill="#000000" transform="matrix(1.00, 0.00, -0.00, -1.00, 675.8, 81.0)"> </text><text xml:space="preserve" font-family="Helvetica-Light" font-size="29.2" fill="#000000" transform="matrix(1.00, 0.00, -0.00, -1.00, 683.9, 81.0)">t</text><text xml:space="preserve" font-family="Helvetica-Light" font-size="29.2" fill="#000000" transform="matrix(1.00, 0.00, -0.00, -1.00, 692.0, 81.0)">h</text><text xml:space="preserve" font-family="Helvetica-Light" font-size="29.2" fill="#000000" transform="matrix(1.00, 0.00, -0.00, -1.00, 708.3, 81.0)">e</text><text xml:space="preserve" font-family="Helvetica-Light" font-size="29.2" fill="#000000" transform="matrix(1.00, 0.00, -0.00, -1.00, 724.5, 81.0)"> </text><text xml:space="preserve" font-family="Helvetica-Light" font-size="29.2" fill="#000000" transform="matrix(1.00, 0.00, -0.00, -1.00, 732.6, 81.0)">b</text><text xml:space="preserve" font-family="Helvetica-Light" font-size="29.2" fill="#000000" transform="matrix(1.00, 0.00, -0.00, -1.00, 750.4, 81.0)">o</text><text xml:space="preserve" font-family="Helvetica-Light" font-size="29.2" fill="#000000" transform="matrix(1.00, 0.00, -0.00, -1.00, 766.6, 81.0)">a</text><text xml:space="preserve" font-family="Helvetica-Light" font-size="29.2" fill="#000000" transform="matrix(1.00, 0.00, -0.00, -1.00, 782.8, 81.0)">t</text><text xml:space="preserve" font-family="Helvetica-Light" font-size="29.2" fill="#000000" transform="matrix(1.00, 0.00, -0.00, -1.00, 790.9, 81.0)"> </text><text xml:space="preserve" font-family="Helvetica-Light" font-size="29.2" fill="#000000" transform="matrix(1.00, 0.00, -0.00, -1.00, 799.0, 81.0)">w</text><text xml:space="preserve" font-family="Helvetica-Light" font-size="29.2" fill="#000000" transform="matrix(1.00, 0.00, -0.00, -1.00, 820.1, 81.0)">i</text><text xml:space="preserve" font-family="Helvetica-Light" font-size="29.2" fill="#000000" transform="matrix(1.00, 0.00, -0.00, -1.00, 826.6, 81.0)">n</text><text xml:space="preserve" font-family="Helvetica-Light" font-size="29.2" fill="#000000" transform="matrix(1.00, 0.00, -0.00, -1.00, 842.8, 81.0)">s</text></g></svg>