<?xml version="1.0" encoding="UTF-8" standalone="no"?><svg xmlns="http://www.w3.org/2000/svg" xmlns:xlink="http://www.w3.org/1999/xlink" clip-rule="evenodd" stroke-miterlimit="4.00" viewBox="0 0 109 16"><desc>SVG generated by Keynote</desc><defs></defs><g transform="matrix(1.00, 0.00, -0.00, -1.00, 0.0, 16.0)"><text xml:space="preserve" font-family="Helvetica-Light" font-size="13.0" fill="#000000" transform="matrix(1.00, 0.00, -0.00, -1.00, 0.0, 2.8)">•</text><text xml:space="preserve" font-family="Helvetica-Light" font-size="17.3" fill="#000000" transform="matrix(1.00, 0.00, -0.00, -1.00, 17.0, 2.0)">9</text><text xml:space="preserve" font-family="Helvetica-Light" font-size="17.3" fill="#000000" transform="matrix(1.00, 0.00, -0.00, -1.00, 26.6, 2.0)"> </text><text xml:space="preserve" font-family="Helvetica-Light" font-size="17.3" fill="#000000" transform="matrix(1.00, 0.00, -0.00, -1.00, 31.4, 2.0)">I</text><text xml:space="preserve" font-family="Helvetica-Light" font-size="17.3" fill="#000000" transform="matrix(1.00, 0.00, -0.00, -1.00, 36.2, 2.0)">n</text><text xml:space="preserve" font-family="Helvetica-Light" font-size="17.3" fill="#000000" transform="matrix(1.00, 0.00, -0.00, -1.00, 45.8, 2.0)">t</text><text xml:space="preserve" font-family="Helvetica-Light" font-size="17.3" fill="#000000" transform="matrix(1.00, 0.00, -0.00, -1.00, 50.6, 2.0)">e</text><text xml:space="preserve" font-family="Helvetica-Light" font-size="17.3" fill="#000000" transform="matrix(1.00, 0.00, -0.00, -1.00, 60.2, 2.0)">r</text><text xml:space="preserve" font-family="Helvetica-Light" font-size="17.3" fill="#000000" transform="matrix(1.00, 0.00, -0.00, -1.00, 66.3, 2.0)">f</text><text xml:space="preserve" font-family="Helvetica-Light" font-size="17.3" fill="#000000" transform="matrix(1.00, 0.00, -0.00, -1.00, 71.1, 2.0)">a</text><text xml:space="preserve" font-family="Helvetica-Light" font-size="17.3" fill="#000000" transform="matrix(1.00, 0.00, -0.00, -1.00, 80.7, 2.0)">c</text><text xml:space="preserve" font-family="Helvetica-Light" font-size="17.3" fill="#000000" transform="matrix(1.00, 0.00, -0.00, -1.00, 90.3, 2.0)">e</text><text xml:space="preserve" font-family="Helvetica-Light" font-size="17.3" fill="#000000" transform="matrix(1.00, 0.00, -0.00, -1.00, 99.9, 2.0)">s</text></g></svg>