<?xml version="1.0" encoding="UTF-8" standalone="no"?><svg xmlns="http://www.w3.org/2000/svg" xmlns:xlink="http://www.w3.org/1999/xlink" clip-rule="evenodd" stroke-miterlimit="4.00" viewBox="0 0 1024 768"><desc>SVG generated by Keynote</desc><defs></defs><g transform="matrix(1.00, 0.00, -0.00, -1.00, 0.0, 768.0)"><path d="M 0.0 768.0 L 1024.0 768.0 L 1024.0 0.0 L 0.0 0.0 Z M 0.0 768.0 " fill="#000000"></path><text xml:space="preserve" font-family="Helvetica-Light" font-size="80.0" fill="#FEFFFF" transform="matrix(1.00, 0.00, -0.00, -1.00, 292.0, 633.0)">C</text><text xml:space="preserve" font-family="Helvetica-Light" font-size="80.0" fill="#FEFFFF" transform="matrix(1.00, 0.00, -0.00, -1.00, 349.8, 633.0)">o</text><text xml:space="preserve" font-family="Helvetica-Light" font-size="80.0" fill="#FEFFFF" transform="matrix(1.00, 0.00, -0.00, -1.00, 394.2, 633.0)">n</text><text xml:space="preserve" font-family="Helvetica-Light" font-size="80.0" fill="#FEFFFF" transform="matrix(1.00, 0.00, -0.00, -1.00, 438.7, 633.0)">c</text><text xml:space="preserve" font-family="Helvetica-Light" font-size="80.0" fill="#FEFFFF" transform="matrix(1.00, 0.00, -0.00, -1.00, 483.2, 633.0)">l</text><text xml:space="preserve" font-family="Helvetica-Light" font-size="80.0" fill="#FEFFFF" transform="matrix(1.00, 0.00, -0.00, -1.00, 501.0, 633.0)">u</text><text xml:space="preserve" font-family="Helvetica-Light" font-size="80.0" fill="#FEFFFF" transform="matrix(1.00, 0.00, -0.00, -1.00, 545.4, 633.0)">s</text><text xml:space="preserve" font-family="Helvetica-Light" font-size="80.0" fill="#FEFFFF" transform="matrix(1.00, 0.00, -0.00, -1.00, 585.4, 633.0)">i</text><text xml:space="preserve" font-family="Helvetica-Light" font-size="80.0" fill="#FEFFFF" transform="matrix(1.00, 0.00, -0.00, -1.00, 603.2, 633.0)">o</text><text xml:space="preserve" font-family="Helvetica-Light" font-size="80.0" fill="#FEFFFF" transform="matrix(1.00, 0.00, -0.00, -1.00, 647.7, 633.0)">n</text><text xml:space="preserve" font-family="Helvetica-Light" font-size="80.0" fill="#FEFFFF" transform="matrix(1.00, 0.00, -0.00, -1.00, 692.2, 633.0)">s</text><text xml:space="preserve" font-family="Helvetica-Light" font-size="25.9" fill="#FEFFFF" transform="matrix(1.00, 0.00, -0.00, -1.00, 79.0, 528.5)">•</text><text xml:space="preserve" font-family="Helvetica-Light" font-size="34.6" fill="#FEFFFF" transform="matrix(1.00, 0.00, -0.00, -1.00, 111.0, 525.0)">C</text><text xml:space="preserve" font-family="Helvetica-Light" font-size="34.6" fill="#FEFFFF" transform="matrix(1.00, 0.00, -0.00, -1.00, 136.0, 525.0)">l</text><text xml:space="preserve" font-family="Helvetica-Light" font-size="34.6" fill="#FEFFFF" transform="matrix(1.00, 0.00, -0.00, -1.00, 143.6, 525.0)">o</text><text xml:space="preserve" font-family="Helvetica-Light" font-size="34.6" fill="#FEFFFF" transform="matrix(1.00, 0.00, -0.00, -1.00, 162.9, 525.0)">j</text><text xml:space="preserve" font-family="Helvetica-Light" font-size="34.6" fill="#FEFFFF" transform="matrix(1.00, 0.00, -0.00, -1.00, 170.5, 525.0)">u</text><text xml:space="preserve" font-family="Helvetica-Light" font-size="34.6" fill="#FEFFFF" transform="matrix(1.00, 0.00, -0.00, -1.00, 189.8, 525.0)">r</text><text xml:space="preserve" font-family="Helvetica-Light" font-size="34.6" fill="#FEFFFF" transform="matrix(1.00, 0.00, -0.00, -1.00, 200.7, 525.0)">e</text><text xml:space="preserve" font-family="Helvetica-Light" font-size="34.6" fill="#FEFFFF" transform="matrix(1.00, 0.00, -0.00, -1.00, 219.9, 525.0)"> </text><text xml:space="preserve" font-family="Helvetica-Light" font-size="34.6" fill="#FEFFFF" transform="matrix(1.00, 0.00, -0.00, -1.00, 229.5, 525.0)">i</text><text xml:space="preserve" font-family="Helvetica-Light" font-size="34.6" fill="#FEFFFF" transform="matrix(1.00, 0.00, -0.00, -1.00, 237.2, 525.0)">s</text><text xml:space="preserve" font-family="Helvetica-Light" font-size="34.6" fill="#FEFFFF" transform="matrix(1.00, 0.00, -0.00, -1.00, 254.5, 525.0)"> </text><text xml:space="preserve" font-family="Helvetica-Light" font-size="34.6" fill="#FEFFFF" transform="matrix(1.00, 0.00, -0.00, -1.00, 264.1, 525.0)">n</text><text xml:space="preserve" font-family="Helvetica-Light" font-size="34.6" fill="#FEFFFF" transform="matrix(1.00, 0.00, -0.00, -1.00, 283.3, 525.0)">o</text><text xml:space="preserve" font-family="Helvetica-Light" font-size="34.6" fill="#FEFFFF" transform="matrix(1.00, 0.00, -0.00, -1.00, 302.5, 525.0)">t</text><text xml:space="preserve" font-family="Helvetica-Light" font-size="34.6" fill="#FEFFFF" transform="matrix(1.00, 0.00, -0.00, -1.00, 312.2, 525.0)"> </text><text xml:space="preserve" font-family="Helvetica-Light" font-size="34.6" fill="#FEFFFF" transform="matrix(1.00, 0.00, -0.00, -1.00, 321.8, 525.0)">s</text><text xml:space="preserve" font-family="Helvetica-Light" font-size="34.6" fill="#FEFFFF" transform="matrix(1.00, 0.00, -0.00, -1.00, 339.1, 525.0)">i</text><text xml:space="preserve" font-family="Helvetica-Light" font-size="34.6" fill="#FEFFFF" transform="matrix(1.00, 0.00, -0.00, -1.00, 346.7, 525.0)">m</text><text xml:space="preserve" font-family="Helvetica-Light" font-size="34.6" fill="#FEFFFF" transform="matrix(1.00, 0.00, -0.00, -1.00, 375.5, 525.0)">p</text><text xml:space="preserve" font-family="Helvetica-Light" font-size="34.6" fill="#FEFFFF" transform="matrix(1.00, 0.00, -0.00, -1.00, 396.7, 525.0)">l</text><text xml:space="preserve" font-family="Helvetica-Light" font-size="34.6" fill="#FEFFFF" transform="matrix(1.00, 0.00, -0.00, -1.00, 404.3, 525.0)">y</text><text xml:space="preserve" font-family="Helvetica-Light" font-size="34.6" fill="#FEFFFF" transform="matrix(1.00, 0.00, -0.00, -1.00, 421.6, 525.0)"> </text><text xml:space="preserve" font-family="Helvetica-Light" font-size="34.6" fill="#FEFFFF" transform="matrix(1.00, 0.00, -0.00, -1.00, 431.2, 525.0)">a</text><text xml:space="preserve" font-family="Helvetica-Light" font-size="34.6" fill="#FEFFFF" transform="matrix(1.00, 0.00, -0.00, -1.00, 450.5, 525.0)"> </text><text xml:space="preserve" font-family="Helvetica-Light" font-size="34.6" fill="#FEFFFF" transform="matrix(1.00, 0.00, -0.00, -1.00, 460.1, 525.0)">f</text><text xml:space="preserve" font-family="Helvetica-Light" font-size="34.6" fill="#FEFFFF" transform="matrix(1.00, 0.00, -0.00, -1.00, 469.7, 525.0)">u</text><text xml:space="preserve" font-family="Helvetica-Light" font-size="34.6" fill="#FEFFFF" transform="matrix(1.00, 0.00, -0.00, -1.00, 488.9, 525.0)">n</text><text xml:space="preserve" font-family="Helvetica-Light" font-size="34.6" fill="#FEFFFF" transform="matrix(1.00, 0.00, -0.00, -1.00, 508.2, 525.0)">c</text><text xml:space="preserve" font-family="Helvetica-Light" font-size="34.6" fill="#FEFFFF" transform="matrix(1.00, 0.00, -0.00, -1.00, 527.4, 525.0)">t</text><text xml:space="preserve" font-family="Helvetica-Light" font-size="34.6" fill="#FEFFFF" transform="matrix(1.00, 0.00, -0.00, -1.00, 537.0, 525.0)">i</text><text xml:space="preserve" font-family="Helvetica-Light" font-size="34.6" fill="#FEFFFF" transform="matrix(1.00, 0.00, -0.00, -1.00, 544.7, 525.0)">o</text><text xml:space="preserve" font-family="Helvetica-Light" font-size="34.6" fill="#FEFFFF" transform="matrix(1.00, 0.00, -0.00, -1.00, 563.9, 525.0)">n</text><text xml:space="preserve" font-family="Helvetica-Light" font-size="34.6" fill="#FEFFFF" transform="matrix(1.00, 0.00, -0.00, -1.00, 583.1, 525.0)">a</text><text xml:space="preserve" font-family="Helvetica-Light" font-size="34.6" fill="#FEFFFF" transform="matrix(1.00, 0.00, -0.00, -1.00, 602.3, 525.0)">l</text><text xml:space="preserve" font-family="Helvetica-Light" font-size="34.6" fill="#FEFFFF" transform="matrix(1.00, 0.00, -0.00, -1.00, 610.0, 525.0)"> </text><text xml:space="preserve" font-family="Helvetica-Light" font-size="34.6" fill="#FEFFFF" transform="matrix(1.00, 0.00, -0.00, -1.00, 619.6, 525.0)">l</text><text xml:space="preserve" font-family="Helvetica-Light" font-size="34.6" fill="#FEFFFF" transform="matrix(1.00, 0.00, -0.00, -1.00, 627.3, 525.0)">a</text><text xml:space="preserve" font-family="Helvetica-Light" font-size="34.6" fill="#FEFFFF" transform="matrix(1.00, 0.00, -0.00, -1.00, 646.5, 525.0)">n</text><text xml:space="preserve" font-family="Helvetica-Light" font-size="34.6" fill="#FEFFFF" transform="matrix(1.00, 0.00, -0.00, -1.00, 665.8, 525.0)">g</text><text xml:space="preserve" font-family="Helvetica-Light" font-size="34.6" fill="#FEFFFF" transform="matrix(1.00, 0.00, -0.00, -1.00, 686.9, 525.0)">u</text><text xml:space="preserve" font-family="Helvetica-Light" font-size="34.6" fill="#FEFFFF" transform="matrix(1.00, 0.00, -0.00, -1.00, 706.1, 525.0)">a</text><text xml:space="preserve" font-family="Helvetica-Light" font-size="34.6" fill="#FEFFFF" transform="matrix(1.00, 0.00, -0.00, -1.00, 725.3, 525.0)">g</text><text xml:space="preserve" font-family="Helvetica-Light" font-size="34.6" fill="#FEFFFF" transform="matrix(1.00, 0.00, -0.00, -1.00, 746.5, 525.0)">e</text><text xml:space="preserve" font-family="Helvetica-Light" font-size="34.6" fill="#FEFFFF" transform="matrix(1.00, 0.00, -0.00, -1.00, 765.7, 525.0)"> </text><text xml:space="preserve" font-family="Helvetica-Light" font-size="25.9" fill="#FEFFFF" transform="matrix(1.00, 0.00, -0.00, -1.00, 114.0, 448.2)">•</text><text xml:space="preserve" font-family="Helvetica-Light" font-size="34.6" fill="#FEFFFF" transform="matrix(1.00, 0.00, -0.00, -1.00, 146.0, 445.0)">S</text><text xml:space="preserve" font-family="Helvetica-Light" font-size="34.6" fill="#FEFFFF" transform="matrix(1.00, 0.00, -0.00, -1.00, 167.1, 445.0)">c</text><text xml:space="preserve" font-family="Helvetica-Light" font-size="34.6" fill="#FEFFFF" transform="matrix(1.00, 0.00, -0.00, -1.00, 186.4, 445.0)">a</text><text xml:space="preserve" font-family="Helvetica-Light" font-size="34.6" fill="#FEFFFF" transform="matrix(1.00, 0.00, -0.00, -1.00, 205.6, 445.0)">l</text><text xml:space="preserve" font-family="Helvetica-Light" font-size="34.6" fill="#FEFFFF" transform="matrix(1.00, 0.00, -0.00, -1.00, 213.3, 445.0)">a</text><text xml:space="preserve" font-family="Helvetica-Light" font-size="34.6" fill="#FEFFFF" transform="matrix(1.00, 0.00, -0.00, -1.00, 232.5, 445.0)">,</text><text xml:space="preserve" font-family="Helvetica-Light" font-size="34.6" fill="#FEFFFF" transform="matrix(1.00, 0.00, -0.00, -1.00, 242.1, 445.0)"> </text><text xml:space="preserve" font-family="Helvetica-Light" font-size="34.6" fill="#FEFFFF" transform="matrix(1.00, 0.00, -0.00, -1.00, 251.7, 445.0)">H</text><text xml:space="preserve" font-family="Helvetica-Light" font-size="34.6" fill="#FEFFFF" transform="matrix(1.00, 0.00, -0.00, -1.00, 276.7, 445.0)">a</text><text xml:space="preserve" font-family="Helvetica-Light" font-size="34.6" fill="#FEFFFF" transform="matrix(1.00, 0.00, -0.00, -1.00, 295.9, 445.0)">s</text><text xml:space="preserve" font-family="Helvetica-Light" font-size="34.6" fill="#FEFFFF" transform="matrix(1.00, 0.00, -0.00, -1.00, 313.2, 445.0)">k</text><text xml:space="preserve" font-family="Helvetica-Light" font-size="34.6" fill="#FEFFFF" transform="matrix(1.00, 0.00, -0.00, -1.00, 330.5, 445.0)">e</text><text xml:space="preserve" font-family="Helvetica-Light" font-size="34.6" fill="#FEFFFF" transform="matrix(1.00, 0.00, -0.00, -1.00, 349.7, 445.0)">l</text><text xml:space="preserve" font-family="Helvetica-Light" font-size="34.6" fill="#FEFFFF" transform="matrix(1.00, 0.00, -0.00, -1.00, 357.4, 445.0)">l</text><text xml:space="preserve" font-family="Helvetica-Light" font-size="34.6" fill="#FEFFFF" transform="matrix(1.00, 0.00, -0.00, -1.00, 365.1, 445.0)">,</text><text xml:space="preserve" font-family="Helvetica-Light" font-size="34.6" fill="#FEFFFF" transform="matrix(1.00, 0.00, -0.00, -1.00, 374.7, 445.0)"> </text><text xml:space="preserve" font-family="Helvetica-Light" font-size="34.6" fill="#FEFFFF" transform="matrix(1.00, 0.00, -0.00, -1.00, 384.3, 445.0)">F</text><text xml:space="preserve" font-family="Helvetica-Light" font-size="34.6" fill="#FEFFFF" transform="matrix(1.00, 0.00, -0.00, -1.00, 403.5, 445.0)">#</text><text xml:space="preserve" font-family="Helvetica-Light" font-size="34.6" fill="#FEFFFF" transform="matrix(1.00, 0.00, -0.00, -1.00, 422.7, 445.0)">,</text><text xml:space="preserve" font-family="Helvetica-Light" font-size="34.6" fill="#FEFFFF" transform="matrix(1.00, 0.00, -0.00, -1.00, 432.4, 445.0)"> </text><text xml:space="preserve" font-family="Helvetica-Light" font-size="34.6" fill="#FEFFFF" transform="matrix(1.00, 0.00, -0.00, -1.00, 442.0, 445.0)">a</text><text xml:space="preserve" font-family="Helvetica-Light" font-size="34.6" fill="#FEFFFF" transform="matrix(1.00, 0.00, -0.00, -1.00, 461.2, 445.0)">r</text><text xml:space="preserve" font-family="Helvetica-Light" font-size="34.6" fill="#FEFFFF" transform="matrix(1.00, 0.00, -0.00, -1.00, 472.1, 445.0)">e</text><text xml:space="preserve" font-family="Helvetica-Light" font-size="34.6" fill="#FEFFFF" transform="matrix(1.00, 0.00, -0.00, -1.00, 491.3, 445.0)"> </text><text xml:space="preserve" font-family="Helvetica-Light" font-size="34.6" fill="#FEFFFF" transform="matrix(1.00, 0.00, -0.00, -1.00, 500.9, 445.0)">a</text><text xml:space="preserve" font-family="Helvetica-Light" font-size="34.6" fill="#FEFFFF" transform="matrix(1.00, 0.00, -0.00, -1.00, 520.2, 445.0)">l</text><text xml:space="preserve" font-family="Helvetica-Light" font-size="34.6" fill="#FEFFFF" transform="matrix(1.00, 0.00, -0.00, -1.00, 527.8, 445.0)">l</text><text xml:space="preserve" font-family="Helvetica-Light" font-size="34.6" fill="#FEFFFF" transform="matrix(1.00, 0.00, -0.00, -1.00, 535.5, 445.0)"> </text><text xml:space="preserve" font-family="Helvetica-Light" font-size="34.6" fill="#FEFFFF" transform="matrix(1.00, 0.00, -0.00, -1.00, 545.1, 445.0)">f</text><text xml:space="preserve" font-family="Helvetica-Light" font-size="34.6" fill="#FEFFFF" transform="matrix(1.00, 0.00, -0.00, -1.00, 554.7, 445.0)">u</text><text xml:space="preserve" font-family="Helvetica-Light" font-size="34.6" fill="#FEFFFF" transform="matrix(1.00, 0.00, -0.00, -1.00, 574.0, 445.0)">n</text><text xml:space="preserve" font-family="Helvetica-Light" font-size="34.6" fill="#FEFFFF" transform="matrix(1.00, 0.00, -0.00, -1.00, 593.2, 445.0)">c</text><text xml:space="preserve" font-family="Helvetica-Light" font-size="34.6" fill="#FEFFFF" transform="matrix(1.00, 0.00, -0.00, -1.00, 612.4, 445.0)">t</text><text xml:space="preserve" font-family="Helvetica-Light" font-size="34.6" fill="#FEFFFF" transform="matrix(1.00, 0.00, -0.00, -1.00, 622.0, 445.0)">i</text><text xml:space="preserve" font-family="Helvetica-Light" font-size="34.6" fill="#FEFFFF" transform="matrix(1.00, 0.00, -0.00, -1.00, 629.7, 445.0)">o</text><text xml:space="preserve" font-family="Helvetica-Light" font-size="34.6" fill="#FEFFFF" transform="matrix(1.00, 0.00, -0.00, -1.00, 648.9, 445.0)">n</text><text xml:space="preserve" font-family="Helvetica-Light" font-size="34.6" fill="#FEFFFF" transform="matrix(1.00, 0.00, -0.00, -1.00, 668.2, 445.0)">a</text><text xml:space="preserve" font-family="Helvetica-Light" font-size="34.6" fill="#FEFFFF" transform="matrix(1.00, 0.00, -0.00, -1.00, 687.4, 445.0)">l</text><text xml:space="preserve" font-family="Helvetica-Light" font-size="34.6" fill="#FEFFFF" transform="matrix(1.00, 0.00, -0.00, -1.00, 695.1, 445.0)"> </text><text xml:space="preserve" font-family="Helvetica-Light" font-size="25.9" fill="#FEFFFF" transform="matrix(1.00, 0.00, -0.00, -1.00, 114.0, 368.0)">•</text><text xml:space="preserve" font-family="Helvetica-Light" font-size="34.6" fill="#FEFFFF" transform="matrix(1.00, 0.00, -0.00, -1.00, 146.0, 365.0)">C</text><text xml:space="preserve" font-family="Helvetica-Light" font-size="34.6" fill="#FEFFFF" transform="matrix(1.00, 0.00, -0.00, -1.00, 171.0, 365.0)">l</text><text xml:space="preserve" font-family="Helvetica-Light" font-size="34.6" fill="#FEFFFF" transform="matrix(1.00, 0.00, -0.00, -1.00, 178.6, 365.0)">o</text><text xml:space="preserve" font-family="Helvetica-Light" font-size="34.6" fill="#FEFFFF" transform="matrix(1.00, 0.00, -0.00, -1.00, 197.9, 365.0)">j</text><text xml:space="preserve" font-family="Helvetica-Light" font-size="34.6" fill="#FEFFFF" transform="matrix(1.00, 0.00, -0.00, -1.00, 205.5, 365.0)">u</text><text xml:space="preserve" font-family="Helvetica-Light" font-size="34.6" fill="#FEFFFF" transform="matrix(1.00, 0.00, -0.00, -1.00, 224.8, 365.0)">r</text><text xml:space="preserve" font-family="Helvetica-Light" font-size="34.6" fill="#FEFFFF" transform="matrix(1.00, 0.00, -0.00, -1.00, 235.7, 365.0)">e</text><text xml:space="preserve" font-family="Helvetica-Light" font-size="34.6" fill="#FEFFFF" transform="matrix(1.00, 0.00, -0.00, -1.00, 254.9, 365.0)"> </text><text xml:space="preserve" font-family="Helvetica-Light" font-size="34.6" fill="#FEFFFF" transform="matrix(1.00, 0.00, -0.00, -1.00, 264.5, 365.0)">i</text><text xml:space="preserve" font-family="Helvetica-Light" font-size="34.6" fill="#FEFFFF" transform="matrix(1.00, 0.00, -0.00, -1.00, 272.2, 365.0)">s</text><text xml:space="preserve" font-family="Helvetica-Light" font-size="34.6" fill="#FEFFFF" transform="matrix(1.00, 0.00, -0.00, -1.00, 289.5, 365.0)"> </text><text xml:space="preserve" font-family="Helvetica-Light" font-size="34.6" fill="#FEFFFF" transform="matrix(1.00, 0.00, -0.00, -1.00, 299.1, 365.0)">a</text><text xml:space="preserve" font-family="Helvetica-Light" font-size="34.6" fill="#FEFFFF" transform="matrix(1.00, 0.00, -0.00, -1.00, 318.3, 365.0)"> </text><text xml:space="preserve" font-family="Helvetica-Light" font-size="34.6" fill="#FEFFFF" transform="matrix(1.00, 0.00, -0.00, -1.00, 327.9, 365.0)">v</text><text xml:space="preserve" font-family="Helvetica-Light" font-size="34.6" fill="#FEFFFF" transform="matrix(1.00, 0.00, -0.00, -1.00, 345.2, 365.0)">a</text><text xml:space="preserve" font-family="Helvetica-Light" font-size="34.6" fill="#FEFFFF" transform="matrix(1.00, 0.00, -0.00, -1.00, 364.4, 365.0)">l</text><text xml:space="preserve" font-family="Helvetica-Light" font-size="34.6" fill="#FEFFFF" transform="matrix(1.00, 0.00, -0.00, -1.00, 372.1, 365.0)">u</text><text xml:space="preserve" font-family="Helvetica-Light" font-size="34.6" fill="#FEFFFF" transform="matrix(1.00, 0.00, -0.00, -1.00, 391.3, 365.0)">e</text><text xml:space="preserve" font-family="Helvetica-Light" font-size="34.6" fill="#FEFFFF" transform="matrix(1.00, 0.00, -0.00, -1.00, 410.6, 365.0)">-</text><text xml:space="preserve" font-family="Helvetica-Light" font-size="34.6" fill="#FEFFFF" transform="matrix(1.00, 0.00, -0.00, -1.00, 422.1, 365.0)">o</text><text xml:space="preserve" font-family="Helvetica-Light" font-size="34.6" fill="#FEFFFF" transform="matrix(1.00, 0.00, -0.00, -1.00, 441.3, 365.0)">r</text><text xml:space="preserve" font-family="Helvetica-Light" font-size="34.6" fill="#FEFFFF" transform="matrix(1.00, 0.00, -0.00, -1.00, 452.8, 365.0)">i</text><text xml:space="preserve" font-family="Helvetica-Light" font-size="34.6" fill="#FEFFFF" transform="matrix(1.00, 0.00, -0.00, -1.00, 460.5, 365.0)">e</text><text xml:space="preserve" font-family="Helvetica-Light" font-size="34.6" fill="#FEFFFF" transform="matrix(1.00, 0.00, -0.00, -1.00, 479.7, 365.0)">n</text><text xml:space="preserve" font-family="Helvetica-Light" font-size="34.6" fill="#FEFFFF" transform="matrix(1.00, 0.00, -0.00, -1.00, 499.0, 365.0)">t</text><text xml:space="preserve" font-family="Helvetica-Light" font-size="34.6" fill="#FEFFFF" transform="matrix(1.00, 0.00, -0.00, -1.00, 508.6, 365.0)">e</text><text xml:space="preserve" font-family="Helvetica-Light" font-size="34.6" fill="#FEFFFF" transform="matrix(1.00, 0.00, -0.00, -1.00, 527.8, 365.0)">d</text><text xml:space="preserve" font-family="Helvetica-Light" font-size="34.6" fill="#FEFFFF" transform="matrix(1.00, 0.00, -0.00, -1.00, 548.9, 365.0)"> </text><text xml:space="preserve" font-family="Helvetica-Light" font-size="34.6" fill="#FEFFFF" transform="matrix(1.00, 0.00, -0.00, -1.00, 558.5, 365.0)">l</text><text xml:space="preserve" font-family="Helvetica-Light" font-size="34.6" fill="#FEFFFF" transform="matrix(1.00, 0.00, -0.00, -1.00, 566.2, 365.0)">a</text><text xml:space="preserve" font-family="Helvetica-Light" font-size="34.6" fill="#FEFFFF" transform="matrix(1.00, 0.00, -0.00, -1.00, 585.4, 365.0)">n</text><text xml:space="preserve" font-family="Helvetica-Light" font-size="34.6" fill="#FEFFFF" transform="matrix(1.00, 0.00, -0.00, -1.00, 604.7, 365.0)">g</text><text xml:space="preserve" font-family="Helvetica-Light" font-size="34.6" fill="#FEFFFF" transform="matrix(1.00, 0.00, -0.00, -1.00, 625.8, 365.0)">u</text><text xml:space="preserve" font-family="Helvetica-Light" font-size="34.6" fill="#FEFFFF" transform="matrix(1.00, 0.00, -0.00, -1.00, 645.0, 365.0)">a</text><text xml:space="preserve" font-family="Helvetica-Light" font-size="34.6" fill="#FEFFFF" transform="matrix(1.00, 0.00, -0.00, -1.00, 664.3, 365.0)">g</text><text xml:space="preserve" font-family="Helvetica-Light" font-size="34.6" fill="#FEFFFF" transform="matrix(1.00, 0.00, -0.00, -1.00, 685.4, 365.0)">e</text><text xml:space="preserve" font-family="Helvetica-Light" font-size="34.6" fill="#FEFFFF" transform="matrix(1.00, 0.00, -0.00, -1.00, 704.6, 365.0)"> </text><text xml:space="preserve" font-family="Helvetica-Light" font-size="25.9" fill="#FEFFFF" transform="matrix(1.00, 0.00, -0.00, -1.00, 79.0, 287.8)">•</text><text xml:space="preserve" font-family="Helvetica-Light" font-size="34.6" fill="#FEFFFF" transform="matrix(1.00, 0.00, -0.00, -1.00, 111.0, 284.0)">C</text><text xml:space="preserve" font-family="Helvetica-Light" font-size="34.6" fill="#FEFFFF" transform="matrix(1.00, 0.00, -0.00, -1.00, 136.0, 284.0)">l</text><text xml:space="preserve" font-family="Helvetica-Light" font-size="34.6" fill="#FEFFFF" transform="matrix(1.00, 0.00, -0.00, -1.00, 143.6, 284.0)">o</text><text xml:space="preserve" font-family="Helvetica-Light" font-size="34.6" fill="#FEFFFF" transform="matrix(1.00, 0.00, -0.00, -1.00, 162.9, 284.0)">j</text><text xml:space="preserve" font-family="Helvetica-Light" font-size="34.6" fill="#FEFFFF" transform="matrix(1.00, 0.00, -0.00, -1.00, 170.5, 284.0)">u</text><text xml:space="preserve" font-family="Helvetica-Light" font-size="34.6" fill="#FEFFFF" transform="matrix(1.00, 0.00, -0.00, -1.00, 189.8, 284.0)">r</text><text xml:space="preserve" font-family="Helvetica-Light" font-size="34.6" fill="#FEFFFF" transform="matrix(1.00, 0.00, -0.00, -1.00, 200.7, 284.0)">e</text><text xml:space="preserve" font-family="Helvetica-Light" font-size="34.6" fill="#FEFFFF" transform="matrix(1.00, 0.00, -0.00, -1.00, 219.9, 284.0)"> </text><text xml:space="preserve" font-family="Helvetica-Light" font-size="34.6" fill="#FEFFFF" transform="matrix(1.00, 0.00, -0.00, -1.00, 229.5, 284.0)">s</text><text xml:space="preserve" font-family="Helvetica-Light" font-size="34.6" fill="#FEFFFF" transform="matrix(1.00, 0.00, -0.00, -1.00, 246.8, 284.0)">u</text><text xml:space="preserve" font-family="Helvetica-Light" font-size="34.6" fill="#FEFFFF" transform="matrix(1.00, 0.00, -0.00, -1.00, 266.0, 284.0)">p</text><text xml:space="preserve" font-family="Helvetica-Light" font-size="34.6" fill="#FEFFFF" transform="matrix(1.00, 0.00, -0.00, -1.00, 287.2, 284.0)">p</text><text xml:space="preserve" font-family="Helvetica-Light" font-size="34.6" fill="#FEFFFF" transform="matrix(1.00, 0.00, -0.00, -1.00, 308.3, 284.0)">o</text><text xml:space="preserve" font-family="Helvetica-Light" font-size="34.6" fill="#FEFFFF" transform="matrix(1.00, 0.00, -0.00, -1.00, 327.5, 284.0)">r</text><text xml:space="preserve" font-family="Helvetica-Light" font-size="34.6" fill="#FEFFFF" transform="matrix(1.00, 0.00, -0.00, -1.00, 339.6, 284.0)">t</text><text xml:space="preserve" font-family="Helvetica-Light" font-size="34.6" fill="#FEFFFF" transform="matrix(1.00, 0.00, -0.00, -1.00, 349.3, 284.0)">s</text><text xml:space="preserve" font-family="Helvetica-Light" font-size="34.6" fill="#FEFFFF" transform="matrix(1.00, 0.00, -0.00, -1.00, 366.5, 284.0)"> </text><text xml:space="preserve" font-family="Helvetica-Light" font-size="34.6" fill="#FEFFFF" transform="matrix(1.00, 0.00, -0.00, -1.00, 376.2, 284.0)">a</text><text xml:space="preserve" font-family="Helvetica-Light" font-size="34.6" fill="#FEFFFF" transform="matrix(1.00, 0.00, -0.00, -1.00, 395.4, 284.0)">l</text><text xml:space="preserve" font-family="Helvetica-Light" font-size="34.6" fill="#FEFFFF" transform="matrix(1.00, 0.00, -0.00, -1.00, 403.1, 284.0)">l</text><text xml:space="preserve" font-family="Helvetica-Light" font-size="34.6" fill="#FEFFFF" transform="matrix(1.00, 0.00, -0.00, -1.00, 410.7, 284.0)"> </text><text xml:space="preserve" font-family="Helvetica-Light" font-size="34.6" fill="#FEFFFF" transform="matrix(1.00, 0.00, -0.00, -1.00, 420.4, 284.0)">o</text><text xml:space="preserve" font-family="Helvetica-Light" font-size="34.6" fill="#FEFFFF" transform="matrix(1.00, 0.00, -0.00, -1.00, 439.6, 284.0)">f</text><text xml:space="preserve" font-family="Helvetica-Light" font-size="34.6" fill="#FEFFFF" transform="matrix(1.00, 0.00, -0.00, -1.00, 449.2, 284.0)"> </text><text xml:space="preserve" font-family="Helvetica-Light" font-size="34.6" fill="#FEFFFF" transform="matrix(1.00, 0.00, -0.00, -1.00, 458.8, 284.0)">R</text><text xml:space="preserve" font-family="Helvetica-Light" font-size="34.6" fill="#FEFFFF" transform="matrix(1.00, 0.00, -0.00, -1.00, 481.9, 284.0)">i</text><text xml:space="preserve" font-family="Helvetica-Light" font-size="34.6" fill="#FEFFFF" transform="matrix(1.00, 0.00, -0.00, -1.00, 489.5, 284.0)">c</text><text xml:space="preserve" font-family="Helvetica-Light" font-size="34.6" fill="#FEFFFF" transform="matrix(1.00, 0.00, -0.00, -1.00, 508.8, 284.0)">h</text><text xml:space="preserve" font-family="Helvetica-Light" font-size="34.6" fill="#FEFFFF" transform="matrix(1.00, 0.00, -0.00, -1.00, 528.0, 284.0)">’</text><text xml:space="preserve" font-family="Helvetica-Light" font-size="34.6" fill="#FEFFFF" transform="matrix(1.00, 0.00, -0.00, -1.00, 533.1, 284.0)">s</text><text xml:space="preserve" font-family="Helvetica-Light" font-size="34.6" fill="#FEFFFF" transform="matrix(1.00, 0.00, -0.00, -1.00, 550.4, 284.0)"> </text><text xml:space="preserve" font-family="Helvetica-Light" font-size="34.6" fill="#FEFFFF" transform="matrix(1.00, 0.00, -0.00, -1.00, 560.0, 284.0)">v</text><text xml:space="preserve" font-family="Helvetica-Light" font-size="34.6" fill="#FEFFFF" transform="matrix(1.00, 0.00, -0.00, -1.00, 577.3, 284.0)">a</text><text xml:space="preserve" font-family="Helvetica-Light" font-size="34.6" fill="#FEFFFF" transform="matrix(1.00, 0.00, -0.00, -1.00, 596.5, 284.0)">l</text><text xml:space="preserve" font-family="Helvetica-Light" font-size="34.6" fill="#FEFFFF" transform="matrix(1.00, 0.00, -0.00, -1.00, 604.2, 284.0)">u</text><text xml:space="preserve" font-family="Helvetica-Light" font-size="34.6" fill="#FEFFFF" transform="matrix(1.00, 0.00, -0.00, -1.00, 623.4, 284.0)">e</text><text xml:space="preserve" font-family="Helvetica-Light" font-size="34.6" fill="#FEFFFF" transform="matrix(1.00, 0.00, -0.00, -1.00, 642.7, 284.0)"> </text><text xml:space="preserve" font-family="Helvetica-Light" font-size="34.6" fill="#FEFFFF" transform="matrix(1.00, 0.00, -0.00, -1.00, 652.3, 284.0)">p</text><text xml:space="preserve" font-family="Helvetica-Light" font-size="34.6" fill="#FEFFFF" transform="matrix(1.00, 0.00, -0.00, -1.00, 673.4, 284.0)">r</text><text xml:space="preserve" font-family="Helvetica-Light" font-size="34.6" fill="#FEFFFF" transform="matrix(1.00, 0.00, -0.00, -1.00, 684.3, 284.0)">o</text><text xml:space="preserve" font-family="Helvetica-Light" font-size="34.6" fill="#FEFFFF" transform="matrix(1.00, 0.00, -0.00, -1.00, 703.5, 284.0)">p</text><text xml:space="preserve" font-family="Helvetica-Light" font-size="34.6" fill="#FEFFFF" transform="matrix(1.00, 0.00, -0.00, -1.00, 724.7, 284.0)">o</text><text xml:space="preserve" font-family="Helvetica-Light" font-size="34.6" fill="#FEFFFF" transform="matrix(1.00, 0.00, -0.00, -1.00, 743.9, 284.0)">s</text><text xml:space="preserve" font-family="Helvetica-Light" font-size="34.6" fill="#FEFFFF" transform="matrix(1.00, 0.00, -0.00, -1.00, 761.2, 284.0)">i</text><text xml:space="preserve" font-family="Helvetica-Light" font-size="34.6" fill="#FEFFFF" transform="matrix(1.00, 0.00, -0.00, -1.00, 768.8, 284.0)">t</text><text xml:space="preserve" font-family="Helvetica-Light" font-size="34.6" fill="#FEFFFF" transform="matrix(1.00, 0.00, -0.00, -1.00, 778.5, 284.0)">i</text><text xml:space="preserve" font-family="Helvetica-Light" font-size="34.6" fill="#FEFFFF" transform="matrix(1.00, 0.00, -0.00, -1.00, 786.1, 284.0)">o</text><text xml:space="preserve" font-family="Helvetica-Light" font-size="34.6" fill="#FEFFFF" transform="matrix(1.00, 0.00, -0.00, -1.00, 805.4, 284.0)">n</text><text xml:space="preserve" font-family="Helvetica-Light" font-size="34.6" fill="#FEFFFF" transform="matrix(1.00, 0.00, -0.00, -1.00, 824.6, 284.0)">s</text><text xml:space="preserve" font-family="Helvetica-Light" font-size="34.6" fill="#FEFFFF" transform="matrix(1.00, 0.00, -0.00, -1.00, 841.9, 284.0)"> </text><text xml:space="preserve" font-family="Helvetica-Light" font-size="25.9" fill="#FEFFFF" transform="matrix(1.00, 0.00, -0.00, -1.00, 79.0, 207.6)">•</text><text xml:space="preserve" font-family="Helvetica-Light" font-size="34.6" fill="#FEFFFF" transform="matrix(1.00, 0.00, -0.00, -1.00, 111.0, 204.0)">I</text><text xml:space="preserve" font-family="Helvetica-Light" font-size="34.6" fill="#FEFFFF" transform="matrix(1.00, 0.00, -0.00, -1.00, 120.6, 204.0)"> </text><text xml:space="preserve" font-family="Helvetica-Light" font-size="34.6" fill="#FEFFFF" transform="matrix(1.00, 0.00, -0.00, -1.00, 130.2, 204.0)">a</text><text xml:space="preserve" font-family="Helvetica-Light" font-size="34.6" fill="#FEFFFF" transform="matrix(1.00, 0.00, -0.00, -1.00, 149.5, 204.0)">m</text><text xml:space="preserve" font-family="Helvetica-Light" font-size="34.6" fill="#FEFFFF" transform="matrix(1.00, 0.00, -0.00, -1.00, 178.3, 204.0)"> </text><text xml:space="preserve" font-family="Helvetica-Light" font-size="34.6" fill="#FEFFFF" transform="matrix(1.00, 0.00, -0.00, -1.00, 187.9, 204.0)">n</text><text xml:space="preserve" font-family="Helvetica-Light" font-size="34.6" fill="#FEFFFF" transform="matrix(1.00, 0.00, -0.00, -1.00, 207.1, 204.0)">o</text><text xml:space="preserve" font-family="Helvetica-Light" font-size="34.6" fill="#FEFFFF" transform="matrix(1.00, 0.00, -0.00, -1.00, 226.3, 204.0)">t</text><text xml:space="preserve" font-family="Helvetica-Light" font-size="34.6" fill="#FEFFFF" transform="matrix(1.00, 0.00, -0.00, -1.00, 235.9, 204.0)"> </text><text xml:space="preserve" font-family="Helvetica-Light" font-size="34.6" fill="#FEFFFF" transform="matrix(1.00, 0.00, -0.00, -1.00, 245.6, 204.0)">t</text><text xml:space="preserve" font-family="Helvetica-Light" font-size="34.6" fill="#FEFFFF" transform="matrix(1.00, 0.00, -0.00, -1.00, 255.2, 204.0)">e</text><text xml:space="preserve" font-family="Helvetica-Light" font-size="34.6" fill="#FEFFFF" transform="matrix(1.00, 0.00, -0.00, -1.00, 274.4, 204.0)">l</text><text xml:space="preserve" font-family="Helvetica-Light" font-size="34.6" fill="#FEFFFF" transform="matrix(1.00, 0.00, -0.00, -1.00, 282.1, 204.0)">l</text><text xml:space="preserve" font-family="Helvetica-Light" font-size="34.6" fill="#FEFFFF" transform="matrix(1.00, 0.00, -0.00, -1.00, 289.7, 204.0)">i</text><text xml:space="preserve" font-family="Helvetica-Light" font-size="34.6" fill="#FEFFFF" transform="matrix(1.00, 0.00, -0.00, -1.00, 297.4, 204.0)">n</text><text xml:space="preserve" font-family="Helvetica-Light" font-size="34.6" fill="#FEFFFF" transform="matrix(1.00, 0.00, -0.00, -1.00, 316.6, 204.0)">g</text><text xml:space="preserve" font-family="Helvetica-Light" font-size="34.6" fill="#FEFFFF" transform="matrix(1.00, 0.00, -0.00, -1.00, 337.8, 204.0)"> </text><text xml:space="preserve" font-family="Helvetica-Light" font-size="34.6" fill="#FEFFFF" transform="matrix(1.00, 0.00, -0.00, -1.00, 347.4, 204.0)">y</text><text xml:space="preserve" font-family="Helvetica-Light" font-size="34.6" fill="#FEFFFF" transform="matrix(1.00, 0.00, -0.00, -1.00, 364.7, 204.0)">o</text><text xml:space="preserve" font-family="Helvetica-Light" font-size="34.6" fill="#FEFFFF" transform="matrix(1.00, 0.00, -0.00, -1.00, 383.9, 204.0)">u</text><text xml:space="preserve" font-family="Helvetica-Light" font-size="34.6" fill="#FEFFFF" transform="matrix(1.00, 0.00, -0.00, -1.00, 403.1, 204.0)"> </text><text xml:space="preserve" font-family="Helvetica-Light" font-size="34.6" fill="#FEFFFF" transform="matrix(1.00, 0.00, -0.00, -1.00, 412.7, 204.0)">t</text><text xml:space="preserve" font-family="Helvetica-Light" font-size="34.6" fill="#FEFFFF" transform="matrix(1.00, 0.00, -0.00, -1.00, 422.4, 204.0)">o</text><text xml:space="preserve" font-family="Helvetica-Light" font-size="34.6" fill="#FEFFFF" transform="matrix(1.00, 0.00, -0.00, -1.00, 441.6, 204.0)"> </text><text xml:space="preserve" font-family="Helvetica-Light" font-size="34.6" fill="#FEFFFF" transform="matrix(1.00, 0.00, -0.00, -1.00, 451.2, 204.0)">u</text><text xml:space="preserve" font-family="Helvetica-Light" font-size="34.6" fill="#FEFFFF" transform="matrix(1.00, 0.00, -0.00, -1.00, 470.4, 204.0)">s</text><text xml:space="preserve" font-family="Helvetica-Light" font-size="34.6" fill="#FEFFFF" transform="matrix(1.00, 0.00, -0.00, -1.00, 487.7, 204.0)">e</text><text xml:space="preserve" font-family="Helvetica-Light" font-size="34.6" fill="#FEFFFF" transform="matrix(1.00, 0.00, -0.00, -1.00, 506.9, 204.0)"> </text><text xml:space="preserve" font-family="Helvetica-Light" font-size="34.6" fill="#FEFFFF" transform="matrix(1.00, 0.00, -0.00, -1.00, 516.6, 204.0)">C</text><text xml:space="preserve" font-family="Helvetica-Light" font-size="34.6" fill="#FEFFFF" transform="matrix(1.00, 0.00, -0.00, -1.00, 541.5, 204.0)">l</text><text xml:space="preserve" font-family="Helvetica-Light" font-size="34.6" fill="#FEFFFF" transform="matrix(1.00, 0.00, -0.00, -1.00, 549.2, 204.0)">o</text><text xml:space="preserve" font-family="Helvetica-Light" font-size="34.6" fill="#FEFFFF" transform="matrix(1.00, 0.00, -0.00, -1.00, 568.4, 204.0)">j</text><text xml:space="preserve" font-family="Helvetica-Light" font-size="34.6" fill="#FEFFFF" transform="matrix(1.00, 0.00, -0.00, -1.00, 576.1, 204.0)">u</text><text xml:space="preserve" font-family="Helvetica-Light" font-size="34.6" fill="#FEFFFF" transform="matrix(1.00, 0.00, -0.00, -1.00, 595.3, 204.0)">r</text><text xml:space="preserve" font-family="Helvetica-Light" font-size="34.6" fill="#FEFFFF" transform="matrix(1.00, 0.00, -0.00, -1.00, 606.2, 204.0)">e</text><text xml:space="preserve" font-family="Helvetica-Light" font-size="34.6" fill="#FEFFFF" transform="matrix(1.00, 0.00, -0.00, -1.00, 625.4, 204.0)"> </text><text xml:space="preserve" font-family="Helvetica-Light" font-size="25.9" fill="#FEFFFF" transform="matrix(1.00, 0.00, -0.00, -1.00, 79.0, 127.4)">•</text><text xml:space="preserve" font-family="Helvetica-Light" font-size="34.6" fill="#FEFFFF" transform="matrix(1.00, 0.00, -0.00, -1.00, 111.0, 124.0)">I</text><text xml:space="preserve" font-family="Helvetica-Light" font-size="34.6" fill="#FEFFFF" transform="matrix(1.00, 0.00, -0.00, -1.00, 120.6, 124.0)"> </text><text xml:space="preserve" font-family="Helvetica-Light" font-size="34.6" fill="#FEFFFF" transform="matrix(1.00, 0.00, -0.00, -1.00, 130.2, 124.0)">a</text><text xml:space="preserve" font-family="Helvetica-Light" font-size="34.6" fill="#FEFFFF" transform="matrix(1.00, 0.00, -0.00, -1.00, 149.5, 124.0)">m</text><text xml:space="preserve" font-family="Helvetica-Light" font-size="34.6" fill="#FEFFFF" transform="matrix(1.00, 0.00, -0.00, -1.00, 178.3, 124.0)"> </text><text xml:space="preserve" font-family="Helvetica-Light" font-size="34.6" fill="#FEFFFF" transform="matrix(1.00, 0.00, -0.00, -1.00, 187.9, 124.0)">t</text><text xml:space="preserve" font-family="Helvetica-Light" font-size="34.6" fill="#FEFFFF" transform="matrix(1.00, 0.00, -0.00, -1.00, 197.5, 124.0)">e</text><text xml:space="preserve" font-family="Helvetica-Light" font-size="34.6" fill="#FEFFFF" transform="matrix(1.00, 0.00, -0.00, -1.00, 216.7, 124.0)">l</text><text xml:space="preserve" font-family="Helvetica-Light" font-size="34.6" fill="#FEFFFF" transform="matrix(1.00, 0.00, -0.00, -1.00, 224.4, 124.0)">l</text><text xml:space="preserve" font-family="Helvetica-Light" font-size="34.6" fill="#FEFFFF" transform="matrix(1.00, 0.00, -0.00, -1.00, 232.1, 124.0)">i</text><text xml:space="preserve" font-family="Helvetica-Light" font-size="34.6" fill="#FEFFFF" transform="matrix(1.00, 0.00, -0.00, -1.00, 239.7, 124.0)">n</text><text xml:space="preserve" font-family="Helvetica-Light" font-size="34.6" fill="#FEFFFF" transform="matrix(1.00, 0.00, -0.00, -1.00, 259.0, 124.0)">g</text><text xml:space="preserve" font-family="Helvetica-Light" font-size="34.6" fill="#FEFFFF" transform="matrix(1.00, 0.00, -0.00, -1.00, 280.1, 124.0)"> </text><text xml:space="preserve" font-family="Helvetica-Light" font-size="34.6" fill="#FEFFFF" transform="matrix(1.00, 0.00, -0.00, -1.00, 289.7, 124.0)">y</text><text xml:space="preserve" font-family="Helvetica-Light" font-size="34.6" fill="#FEFFFF" transform="matrix(1.00, 0.00, -0.00, -1.00, 307.0, 124.0)">o</text><text xml:space="preserve" font-family="Helvetica-Light" font-size="34.6" fill="#FEFFFF" transform="matrix(1.00, 0.00, -0.00, -1.00, 326.2, 124.0)">u</text><text xml:space="preserve" font-family="Helvetica-Light" font-size="34.6" fill="#FEFFFF" transform="matrix(1.00, 0.00, -0.00, -1.00, 345.5, 124.0)"> </text><text xml:space="preserve" font-family="Helvetica-Light" font-size="34.6" fill="#FEFFFF" transform="matrix(1.00, 0.00, -0.00, -1.00, 355.1, 124.0)">t</text><text xml:space="preserve" font-family="Helvetica-Light" font-size="34.6" fill="#FEFFFF" transform="matrix(1.00, 0.00, -0.00, -1.00, 364.7, 124.0)">h</text><text xml:space="preserve" font-family="Helvetica-Light" font-size="34.6" fill="#FEFFFF" transform="matrix(1.00, 0.00, -0.00, -1.00, 383.9, 124.0)">a</text><text xml:space="preserve" font-family="Helvetica-Light" font-size="34.6" fill="#FEFFFF" transform="matrix(1.00, 0.00, -0.00, -1.00, 403.1, 124.0)">t</text><text xml:space="preserve" font-family="Helvetica-Light" font-size="34.6" fill="#FEFFFF" transform="matrix(1.00, 0.00, -0.00, -1.00, 412.7, 124.0)"> </text><text xml:space="preserve" font-family="Helvetica-Light" font-size="34.6" fill="#FEFFFF" transform="matrix(1.00, 0.00, -0.00, -1.00, 422.4, 124.0)">C</text><text xml:space="preserve" font-family="Helvetica-Light" font-size="34.6" fill="#FEFFFF" transform="matrix(1.00, 0.00, -0.00, -1.00, 447.3, 124.0)">l</text><text xml:space="preserve" font-family="Helvetica-Light" font-size="34.6" fill="#FEFFFF" transform="matrix(1.00, 0.00, -0.00, -1.00, 455.0, 124.0)">o</text><text xml:space="preserve" font-family="Helvetica-Light" font-size="34.6" fill="#FEFFFF" transform="matrix(1.00, 0.00, -0.00, -1.00, 474.2, 124.0)">j</text><text xml:space="preserve" font-family="Helvetica-Light" font-size="34.6" fill="#FEFFFF" transform="matrix(1.00, 0.00, -0.00, -1.00, 481.9, 124.0)">u</text><text xml:space="preserve" font-family="Helvetica-Light" font-size="34.6" fill="#FEFFFF" transform="matrix(1.00, 0.00, -0.00, -1.00, 501.1, 124.0)">r</text><text xml:space="preserve" font-family="Helvetica-Light" font-size="34.6" fill="#FEFFFF" transform="matrix(1.00, 0.00, -0.00, -1.00, 512.0, 124.0)">e</text><text xml:space="preserve" font-family="Helvetica-Light" font-size="34.6" fill="#FEFFFF" transform="matrix(1.00, 0.00, -0.00, -1.00, 531.3, 124.0)"> </text><text xml:space="preserve" font-family="Helvetica-Light" font-size="34.6" fill="#FEFFFF" transform="matrix(1.00, 0.00, -0.00, -1.00, 540.9, 124.0)">s</text><text xml:space="preserve" font-family="Helvetica-Light" font-size="34.6" fill="#FEFFFF" transform="matrix(1.00, 0.00, -0.00, -1.00, 558.2, 124.0)">u</text><text xml:space="preserve" font-family="Helvetica-Light" font-size="34.6" fill="#FEFFFF" transform="matrix(1.00, 0.00, -0.00, -1.00, 577.4, 124.0)">p</text><text xml:space="preserve" font-family="Helvetica-Light" font-size="34.6" fill="#FEFFFF" transform="matrix(1.00, 0.00, -0.00, -1.00, 598.5, 124.0)">p</text><text xml:space="preserve" font-family="Helvetica-Light" font-size="34.6" fill="#FEFFFF" transform="matrix(1.00, 0.00, -0.00, -1.00, 619.6, 124.0)">o</text><text xml:space="preserve" font-family="Helvetica-Light" font-size="34.6" fill="#FEFFFF" transform="matrix(1.00, 0.00, -0.00, -1.00, 638.9, 124.0)">r</text><text xml:space="preserve" font-family="Helvetica-Light" font-size="34.6" fill="#FEFFFF" transform="matrix(1.00, 0.00, -0.00, -1.00, 651.0, 124.0)">t</text><text xml:space="preserve" font-family="Helvetica-Light" font-size="34.6" fill="#FEFFFF" transform="matrix(1.00, 0.00, -0.00, -1.00, 660.6, 124.0)">s</text><text xml:space="preserve" font-family="Helvetica-Light" font-size="34.6" fill="#FEFFFF" transform="matrix(1.00, 0.00, -0.00, -1.00, 677.9, 124.0)"> </text><text xml:space="preserve" font-family="Helvetica-Light" font-size="34.6" fill="#FEFFFF" transform="matrix(1.00, 0.00, -0.00, -1.00, 687.5, 124.0)">a</text><text xml:space="preserve" font-family="Helvetica-Light" font-size="34.6" fill="#FEFFFF" transform="matrix(1.00, 0.00, -0.00, -1.00, 706.7, 124.0)">l</text><text xml:space="preserve" font-family="Helvetica-Light" font-size="34.6" fill="#FEFFFF" transform="matrix(1.00, 0.00, -0.00, -1.00, 714.4, 124.0)">l</text><text xml:space="preserve" font-family="Helvetica-Light" font-size="34.6" fill="#FEFFFF" transform="matrix(1.00, 0.00, -0.00, -1.00, 722.1, 124.0)"> </text><text xml:space="preserve" font-family="Helvetica-Light" font-size="34.6" fill="#FEFFFF" transform="matrix(1.00, 0.00, -0.00, -1.00, 731.7, 124.0)">o</text><text xml:space="preserve" font-family="Helvetica-Light" font-size="34.6" fill="#FEFFFF" transform="matrix(1.00, 0.00, -0.00, -1.00, 750.9, 124.0)">f</text><text xml:space="preserve" font-family="Helvetica-Light" font-size="34.6" fill="#FEFFFF" transform="matrix(1.00, 0.00, -0.00, -1.00, 760.6, 124.0)"> </text><text xml:space="preserve" font-family="Helvetica-Light" font-size="34.6" fill="#FEFFFF" transform="matrix(1.00, 0.00, -0.00, -1.00, 770.2, 124.0)">R</text><text xml:space="preserve" font-family="Helvetica-Light" font-size="34.6" fill="#FEFFFF" transform="matrix(1.00, 0.00, -0.00, -1.00, 793.2, 124.0)">i</text><text xml:space="preserve" font-family="Helvetica-Light" font-size="34.6" fill="#FEFFFF" transform="matrix(1.00, 0.00, -0.00, -1.00, 800.9, 124.0)">c</text><text xml:space="preserve" font-family="Helvetica-Light" font-size="34.6" fill="#FEFFFF" transform="matrix(1.00, 0.00, -0.00, -1.00, 820.1, 124.0)">h</text><text xml:space="preserve" font-family="Helvetica-Light" font-size="34.6" fill="#FEFFFF" transform="matrix(1.00, 0.00, -0.00, -1.00, 839.4, 124.0)">’</text><text xml:space="preserve" font-family="Helvetica-Light" font-size="34.6" fill="#FEFFFF" transform="matrix(1.00, 0.00, -0.00, -1.00, 844.5, 124.0)">s</text><text xml:space="preserve" font-family="Helvetica-Light" font-size="34.6" fill="#FEFFFF" transform="matrix(1.00, 0.00, -0.00, -1.00, 861.8, 124.0)"> </text><text xml:space="preserve" font-family="Helvetica-Light" font-size="34.6" fill="#FEFFFF" transform="matrix(1.00, 0.00, -0.00, -1.00, 111.0, 82.0)">a</text><text xml:space="preserve" font-family="Helvetica-Light" font-size="34.6" fill="#FEFFFF" transform="matrix(1.00, 0.00, -0.00, -1.00, 130.2, 82.0)">s</text><text xml:space="preserve" font-family="Helvetica-Light" font-size="34.6" fill="#FEFFFF" transform="matrix(1.00, 0.00, -0.00, -1.00, 147.5, 82.0)">s</text><text xml:space="preserve" font-family="Helvetica-Light" font-size="34.6" fill="#FEFFFF" transform="matrix(1.00, 0.00, -0.00, -1.00, 164.8, 82.0)">e</text><text xml:space="preserve" font-family="Helvetica-Light" font-size="34.6" fill="#FEFFFF" transform="matrix(1.00, 0.00, -0.00, -1.00, 184.0, 82.0)">r</text><text xml:space="preserve" font-family="Helvetica-Light" font-size="34.6" fill="#FEFFFF" transform="matrix(1.00, 0.00, -0.00, -1.00, 196.2, 82.0)">t</text><text xml:space="preserve" font-family="Helvetica-Light" font-size="34.6" fill="#FEFFFF" transform="matrix(1.00, 0.00, -0.00, -1.00, 205.8, 82.0)">i</text><text xml:space="preserve" font-family="Helvetica-Light" font-size="34.6" fill="#FEFFFF" transform="matrix(1.00, 0.00, -0.00, -1.00, 213.5, 82.0)">o</text><text xml:space="preserve" font-family="Helvetica-Light" font-size="34.6" fill="#FEFFFF" transform="matrix(1.00, 0.00, -0.00, -1.00, 232.7, 82.0)">n</text><text xml:space="preserve" font-family="Helvetica-Light" font-size="34.6" fill="#FEFFFF" transform="matrix(1.00, 0.00, -0.00, -1.00, 251.9, 82.0)">s</text></g></svg>