<?xml version="1.0" encoding="UTF-8" standalone="no"?><svg xmlns="http://www.w3.org/2000/svg" xmlns:xlink="http://www.w3.org/1999/xlink" clip-rule="evenodd" stroke-miterlimit="4.00" viewBox="0 0 267 80"><desc>SVG generated by Keynote</desc><defs></defs><g transform="matrix(1.00, 0.00, -0.00, -1.00, 0.0, 80.0)"><text xml:space="preserve" font-family="Helvetica-Light" font-size="17.0" fill="#000000" transform="matrix(1.00, 0.00, -0.00, -1.00, 1.0, 66.0)">M</text><text xml:space="preserve" font-family="Helvetica-Light" font-size="17.0" fill="#000000" transform="matrix(1.00, 0.00, -0.00, -1.00, 15.2, 66.0)">y</text><text xml:space="preserve" font-family="Helvetica-Light" font-size="17.0" fill="#000000" transform="matrix(1.00, 0.00, -0.00, -1.00, 23.7, 66.0)"> </text><text xml:space="preserve" font-family="Helvetica-Light" font-size="17.0" fill="#000000" transform="matrix(1.00, 0.00, -0.00, -1.00, 28.4, 66.0)">b</text><text xml:space="preserve" font-family="Helvetica-Light" font-size="17.0" fill="#000000" transform="matrix(1.00, 0.00, -0.00, -1.00, 38.8, 66.0)">a</text><text xml:space="preserve" font-family="Helvetica-Light" font-size="17.0" fill="#000000" transform="matrix(1.00, 0.00, -0.00, -1.00, 48.2, 66.0)">l</text><text xml:space="preserve" font-family="Helvetica-Light" font-size="17.0" fill="#000000" transform="matrix(1.00, 0.00, -0.00, -1.00, 52.0, 66.0)">a</text><text xml:space="preserve" font-family="Helvetica-Light" font-size="17.0" fill="#000000" transform="matrix(1.00, 0.00, -0.00, -1.00, 61.5, 66.0)">n</text><text xml:space="preserve" font-family="Helvetica-Light" font-size="17.0" fill="#000000" transform="matrix(1.00, 0.00, -0.00, -1.00, 70.9, 66.0)">c</text><text xml:space="preserve" font-family="Helvetica-Light" font-size="17.0" fill="#000000" transform="matrix(1.00, 0.00, -0.00, -1.00, 80.4, 66.0)">e</text><text xml:space="preserve" font-family="Helvetica-Light" font-size="17.0" fill="#000000" transform="matrix(1.00, 0.00, -0.00, -1.00, 89.8, 66.0)"> </text><text xml:space="preserve" font-family="Helvetica-Light" font-size="17.0" fill="#000000" transform="matrix(1.00, 0.00, -0.00, -1.00, 94.5, 66.0)">i</text><text xml:space="preserve" font-family="Helvetica-Light" font-size="17.0" fill="#000000" transform="matrix(1.00, 0.00, -0.00, -1.00, 98.3, 66.0)">s</text><text xml:space="preserve" font-family="Helvetica-Light" font-size="17.0" fill="#000000" transform="matrix(1.00, 0.00, -0.00, -1.00, 106.8, 66.0)"> </text><text xml:space="preserve" font-family="Helvetica-Light" font-size="17.0" fill="#000000" transform="matrix(1.00, 0.00, -0.00, -1.00, 111.5, 66.0)">1</text><text xml:space="preserve" font-family="Helvetica-Light" font-size="17.0" fill="#000000" transform="matrix(1.00, 0.00, -0.00, -1.00, 121.0, 66.0)">0</text><text xml:space="preserve" font-family="Helvetica-Light" font-size="17.0" fill="#000000" transform="matrix(1.00, 0.00, -0.00, -1.00, 130.4, 66.0)">0</text><text xml:space="preserve" font-family="Helvetica-Light" font-size="17.0" fill="#000000" transform="matrix(1.00, 0.00, -0.00, -1.00, 139.9, 66.0)">0</text><text xml:space="preserve" font-family="Helvetica-Light" font-size="17.0" fill="#000000" transform="matrix(1.00, 0.00, -0.00, -1.00, 149.3, 66.0)">0</text><text xml:space="preserve" font-family="Helvetica-Light" font-size="17.0" fill="#000000" transform="matrix(1.00, 0.00, -0.00, -1.00, 158.8, 66.0)">0</text><text xml:space="preserve" font-family="Helvetica-Light" font-size="17.0" fill="#000000" transform="matrix(1.00, 0.00, -0.00, -1.00, 168.2, 66.0)">0</text><text xml:space="preserve" font-family="Helvetica-Light" font-size="17.0" fill="#000000" transform="matrix(1.00, 0.00, -0.00, -1.00, 177.7, 66.0)">.</text><text xml:space="preserve" font-family="Helvetica-Light" font-size="17.0" fill="#000000" transform="matrix(1.00, 0.00, -0.00, -1.00, 182.4, 66.0)"> </text><text xml:space="preserve" font-family="Helvetica-Light" font-size="17.0" fill="#000000" transform="matrix(1.00, 0.00, -0.00, -1.00, 1.0, 46.0)">M</text><text xml:space="preserve" font-family="Helvetica-Light" font-size="17.0" fill="#000000" transform="matrix(1.00, 0.00, -0.00, -1.00, 15.2, 46.0)">y</text><text xml:space="preserve" font-family="Helvetica-Light" font-size="17.0" fill="#000000" transform="matrix(1.00, 0.00, -0.00, -1.00, 23.7, 46.0)"> </text><text xml:space="preserve" font-family="Helvetica-Light" font-size="17.0" fill="#000000" transform="matrix(1.00, 0.00, -0.00, -1.00, 28.4, 46.0)">b</text><text xml:space="preserve" font-family="Helvetica-Light" font-size="17.0" fill="#000000" transform="matrix(1.00, 0.00, -0.00, -1.00, 38.8, 46.0)">a</text><text xml:space="preserve" font-family="Helvetica-Light" font-size="17.0" fill="#000000" transform="matrix(1.00, 0.00, -0.00, -1.00, 48.2, 46.0)">l</text><text xml:space="preserve" font-family="Helvetica-Light" font-size="17.0" fill="#000000" transform="matrix(1.00, 0.00, -0.00, -1.00, 52.0, 46.0)">a</text><text xml:space="preserve" font-family="Helvetica-Light" font-size="17.0" fill="#000000" transform="matrix(1.00, 0.00, -0.00, -1.00, 61.5, 46.0)">n</text><text xml:space="preserve" font-family="Helvetica-Light" font-size="17.0" fill="#000000" transform="matrix(1.00, 0.00, -0.00, -1.00, 70.9, 46.0)">c</text><text xml:space="preserve" font-family="Helvetica-Light" font-size="17.0" fill="#000000" transform="matrix(1.00, 0.00, -0.00, -1.00, 80.4, 46.0)">e</text><text xml:space="preserve" font-family="Helvetica-Light" font-size="17.0" fill="#000000" transform="matrix(1.00, 0.00, -0.00, -1.00, 89.8, 46.0)"> </text><text xml:space="preserve" font-family="Helvetica-Light" font-size="17.0" fill="#000000" transform="matrix(1.00, 0.00, -0.00, -1.00, 94.5, 46.0)">i</text><text xml:space="preserve" font-family="Helvetica-Light" font-size="17.0" fill="#000000" transform="matrix(1.00, 0.00, -0.00, -1.00, 98.3, 46.0)">s</text><text xml:space="preserve" font-family="Helvetica-Light" font-size="17.0" fill="#000000" transform="matrix(1.00, 0.00, -0.00, -1.00, 106.8, 46.0)"> </text><text xml:space="preserve" font-family="Helvetica-Light" font-size="17.0" fill="#000000" transform="matrix(1.00, 0.00, -0.00, -1.00, 111.5, 46.0)">1</text><text xml:space="preserve" font-family="Helvetica-Light" font-size="17.0" fill="#000000" transform="matrix(1.00, 0.00, -0.00, -1.00, 121.0, 46.0)">0</text><text xml:space="preserve" font-family="Helvetica-Light" font-size="17.0" fill="#000000" transform="matrix(1.00, 0.00, -0.00, -1.00, 130.4, 46.0)">0</text><text xml:space="preserve" font-family="Helvetica-Light" font-size="17.0" fill="#000000" transform="matrix(1.00, 0.00, -0.00, -1.00, 139.9, 46.0)">0</text><text xml:space="preserve" font-family="Helvetica-Light" font-size="17.0" fill="#000000" transform="matrix(1.00, 0.00, -0.00, -1.00, 149.3, 46.0)">0</text><text xml:space="preserve" font-family="Helvetica-Light" font-size="17.0" fill="#000000" transform="matrix(1.00, 0.00, -0.00, -1.00, 158.8, 46.0)">0</text><text xml:space="preserve" font-family="Helvetica-Light" font-size="17.0" fill="#000000" transform="matrix(1.00, 0.00, -0.00, -1.00, 168.2, 46.0)">0</text><text xml:space="preserve" font-family="Helvetica-Light" font-size="17.0" fill="#000000" transform="matrix(1.00, 0.00, -0.00, -1.00, 177.7, 46.0)">.</text><text xml:space="preserve" font-family="Helvetica-Light" font-size="17.0" fill="#000000" transform="matrix(1.00, 0.00, -0.00, -1.00, 182.4, 46.0)"> </text><text xml:space="preserve" font-family="Helvetica-Light" font-size="17.0" fill="#000000" transform="matrix(1.00, 0.00, -0.00, -1.00, 1.0, 26.0)">A</text><text xml:space="preserve" font-family="Helvetica-Light" font-size="17.0" fill="#000000" transform="matrix(1.00, 0.00, -0.00, -1.00, 12.3, 26.0)">r</text><text xml:space="preserve" font-family="Helvetica-Light" font-size="17.0" fill="#000000" transform="matrix(1.00, 0.00, -0.00, -1.00, 17.7, 26.0)">e</text><text xml:space="preserve" font-family="Helvetica-Light" font-size="17.0" fill="#000000" transform="matrix(1.00, 0.00, -0.00, -1.00, 27.1, 26.0)"> </text><text xml:space="preserve" font-family="Helvetica-Light" font-size="17.0" fill="#000000" transform="matrix(1.00, 0.00, -0.00, -1.00, 31.9, 26.0)">a</text><text xml:space="preserve" font-family="Helvetica-Light" font-size="17.0" fill="#000000" transform="matrix(1.00, 0.00, -0.00, -1.00, 41.3, 26.0)"> </text><text xml:space="preserve" font-family="Helvetica-Light" font-size="17.0" fill="#000000" transform="matrix(1.00, 0.00, -0.00, -1.00, 46.0, 26.0)">a</text><text xml:space="preserve" font-family="Helvetica-Light" font-size="17.0" fill="#000000" transform="matrix(1.00, 0.00, -0.00, -1.00, 55.5, 26.0)">n</text><text xml:space="preserve" font-family="Helvetica-Light" font-size="17.0" fill="#000000" transform="matrix(1.00, 0.00, -0.00, -1.00, 65.0, 26.0)">d</text><text xml:space="preserve" font-family="Helvetica-Light" font-size="17.0" fill="#000000" transform="matrix(1.00, 0.00, -0.00, -1.00, 75.3, 26.0)"> </text><text xml:space="preserve" font-family="Helvetica-Light" font-size="17.0" fill="#000000" transform="matrix(1.00, 0.00, -0.00, -1.00, 80.1, 26.0)">b</text><text xml:space="preserve" font-family="Helvetica-Light" font-size="17.0" fill="#000000" transform="matrix(1.00, 0.00, -0.00, -1.00, 90.5, 26.0)"> </text><text xml:space="preserve" font-family="Helvetica-Light" font-size="17.0" fill="#000000" transform="matrix(1.00, 0.00, -0.00, -1.00, 95.2, 26.0)">t</text><text xml:space="preserve" font-family="Helvetica-Light" font-size="17.0" fill="#000000" transform="matrix(1.00, 0.00, -0.00, -1.00, 99.9, 26.0)">h</text><text xml:space="preserve" font-family="Helvetica-Light" font-size="17.0" fill="#000000" transform="matrix(1.00, 0.00, -0.00, -1.00, 109.4, 26.0)">e</text><text xml:space="preserve" font-family="Helvetica-Light" font-size="17.0" fill="#000000" transform="matrix(1.00, 0.00, -0.00, -1.00, 118.8, 26.0)"> </text><text xml:space="preserve" font-family="Helvetica-Light" font-size="17.0" fill="#000000" transform="matrix(1.00, 0.00, -0.00, -1.00, 123.5, 26.0)">c</text><text xml:space="preserve" font-family="Helvetica-Light" font-size="17.0" fill="#000000" transform="matrix(1.00, 0.00, -0.00, -1.00, 133.0, 26.0)">o</text><text xml:space="preserve" font-family="Helvetica-Light" font-size="17.0" fill="#000000" transform="matrix(1.00, 0.00, -0.00, -1.00, 142.4, 26.0)">m</text><text xml:space="preserve" font-family="Helvetica-Light" font-size="17.0" fill="#000000" transform="matrix(1.00, 0.00, -0.00, -1.00, 156.6, 26.0)">p</text><text xml:space="preserve" font-family="Helvetica-Light" font-size="17.0" fill="#000000" transform="matrix(1.00, 0.00, -0.00, -1.00, 167.0, 26.0)">a</text><text xml:space="preserve" font-family="Helvetica-Light" font-size="17.0" fill="#000000" transform="matrix(1.00, 0.00, -0.00, -1.00, 176.4, 26.0)">r</text><text xml:space="preserve" font-family="Helvetica-Light" font-size="17.0" fill="#000000" transform="matrix(1.00, 0.00, -0.00, -1.00, 182.1, 26.0)">a</text><text xml:space="preserve" font-family="Helvetica-Light" font-size="17.0" fill="#000000" transform="matrix(1.00, 0.00, -0.00, -1.00, 191.6, 26.0)">b</text><text xml:space="preserve" font-family="Helvetica-Light" font-size="17.0" fill="#000000" transform="matrix(1.00, 0.00, -0.00, -1.00, 201.9, 26.0)">l</text><text xml:space="preserve" font-family="Helvetica-Light" font-size="17.0" fill="#000000" transform="matrix(1.00, 0.00, -0.00, -1.00, 205.7, 26.0)">e</text><text xml:space="preserve" font-family="Helvetica-Light" font-size="17.0" fill="#000000" transform="matrix(1.00, 0.00, -0.00, -1.00, 215.2, 26.0)">?</text><text xml:space="preserve" font-family="Helvetica-Light" font-size="17.0" fill="#000000" transform="matrix(1.00, 0.00, -0.00, -1.00, 223.7, 26.0)"> </text><text xml:space="preserve" font-family="Helvetica-Light" font-size="17.0" fill="#000000" transform="matrix(1.00, 0.00, -0.00, -1.00, 228.4, 26.0)">f</text><text xml:space="preserve" font-family="Helvetica-Light" font-size="17.0" fill="#000000" transform="matrix(1.00, 0.00, -0.00, -1.00, 233.1, 26.0)">a</text><text xml:space="preserve" font-family="Helvetica-Light" font-size="17.0" fill="#000000" transform="matrix(1.00, 0.00, -0.00, -1.00, 242.6, 26.0)">l</text><text xml:space="preserve" font-family="Helvetica-Light" font-size="17.0" fill="#000000" transform="matrix(1.00, 0.00, -0.00, -1.00, 246.3, 26.0)">s</text><text xml:space="preserve" font-family="Helvetica-Light" font-size="17.0" fill="#000000" transform="matrix(1.00, 0.00, -0.00, -1.00, 254.8, 26.0)">e</text><text xml:space="preserve" font-family="Helvetica-Light" font-size="17.0" fill="#000000" transform="matrix(1.00, 0.00, -0.00, -1.00, 264.3, 26.0)"> </text><text xml:space="preserve" font-family="Helvetica-Light" font-size="17.0" fill="#000000" transform="matrix(1.00, 0.00, -0.00, -1.00, 1.0, 6.0)">M</text><text xml:space="preserve" font-family="Helvetica-Light" font-size="17.0" fill="#000000" transform="matrix(1.00, 0.00, -0.00, -1.00, 15.2, 6.0)">y</text><text xml:space="preserve" font-family="Helvetica-Light" font-size="17.0" fill="#000000" transform="matrix(1.00, 0.00, -0.00, -1.00, 23.7, 6.0)"> </text><text xml:space="preserve" font-family="Helvetica-Light" font-size="17.0" fill="#000000" transform="matrix(1.00, 0.00, -0.00, -1.00, 28.4, 6.0)">n</text><text xml:space="preserve" font-family="Helvetica-Light" font-size="17.0" fill="#000000" transform="matrix(1.00, 0.00, -0.00, -1.00, 37.8, 6.0)">e</text><text xml:space="preserve" font-family="Helvetica-Light" font-size="17.0" fill="#000000" transform="matrix(1.00, 0.00, -0.00, -1.00, 47.3, 6.0)">w</text><text xml:space="preserve" font-family="Helvetica-Light" font-size="17.0" fill="#000000" transform="matrix(1.00, 0.00, -0.00, -1.00, 59.6, 6.0)"> </text><text xml:space="preserve" font-family="Helvetica-Light" font-size="17.0" fill="#000000" transform="matrix(1.00, 0.00, -0.00, -1.00, 64.3, 6.0)">b</text><text xml:space="preserve" font-family="Helvetica-Light" font-size="17.0" fill="#000000" transform="matrix(1.00, 0.00, -0.00, -1.00, 74.7, 6.0)">a</text><text xml:space="preserve" font-family="Helvetica-Light" font-size="17.0" fill="#000000" transform="matrix(1.00, 0.00, -0.00, -1.00, 84.1, 6.0)">l</text><text xml:space="preserve" font-family="Helvetica-Light" font-size="17.0" fill="#000000" transform="matrix(1.00, 0.00, -0.00, -1.00, 87.9, 6.0)">a</text><text xml:space="preserve" font-family="Helvetica-Light" font-size="17.0" fill="#000000" transform="matrix(1.00, 0.00, -0.00, -1.00, 97.4, 6.0)">n</text><text xml:space="preserve" font-family="Helvetica-Light" font-size="17.0" fill="#000000" transform="matrix(1.00, 0.00, -0.00, -1.00, 106.8, 6.0)">c</text><text xml:space="preserve" font-family="Helvetica-Light" font-size="17.0" fill="#000000" transform="matrix(1.00, 0.00, -0.00, -1.00, 116.3, 6.0)">e</text><text xml:space="preserve" font-family="Helvetica-Light" font-size="17.0" fill="#000000" transform="matrix(1.00, 0.00, -0.00, -1.00, 125.7, 6.0)"> </text><text xml:space="preserve" font-family="Helvetica-Light" font-size="17.0" fill="#000000" transform="matrix(1.00, 0.00, -0.00, -1.00, 130.4, 6.0)">i</text><text xml:space="preserve" font-family="Helvetica-Light" font-size="17.0" fill="#000000" transform="matrix(1.00, 0.00, -0.00, -1.00, 134.2, 6.0)">s</text><text xml:space="preserve" font-family="Helvetica-Light" font-size="17.0" fill="#000000" transform="matrix(1.00, 0.00, -0.00, -1.00, 142.7, 6.0)"> </text><text xml:space="preserve" font-family="Helvetica-Light" font-size="17.0" fill="#000000" transform="matrix(1.00, 0.00, -0.00, -1.00, 147.4, 6.0)">1</text><text xml:space="preserve" font-family="Helvetica-Light" font-size="17.0" fill="#000000" transform="matrix(1.00, 0.00, -0.00, -1.00, 156.9, 6.0)">0</text><text xml:space="preserve" font-family="Helvetica-Light" font-size="17.0" fill="#000000" transform="matrix(1.00, 0.00, -0.00, -1.00, 166.3, 6.0)">0</text><text xml:space="preserve" font-family="Helvetica-Light" font-size="17.0" fill="#000000" transform="matrix(1.00, 0.00, -0.00, -1.00, 175.8, 6.0)">0</text><text xml:space="preserve" font-family="Helvetica-Light" font-size="17.0" fill="#000000" transform="matrix(1.00, 0.00, -0.00, -1.00, 185.2, 6.0)">0</text><text xml:space="preserve" font-family="Helvetica-Light" font-size="17.0" fill="#000000" transform="matrix(1.00, 0.00, -0.00, -1.00, 194.7, 6.0)">0</text><text xml:space="preserve" font-family="Helvetica-Light" font-size="17.0" fill="#000000" transform="matrix(1.00, 0.00, -0.00, -1.00, 204.1, 6.0)">1</text></g></svg>