<?xml version="1.0" encoding="UTF-8" standalone="no"?><svg xmlns="http://www.w3.org/2000/svg" xmlns:xlink="http://www.w3.org/1999/xlink" clip-rule="evenodd" stroke-miterlimit="4.00" viewBox="0 0 1024 768"><desc>SVG generated by Keynote</desc><defs></defs><g transform="matrix(1.00, 0.00, -0.00, -1.00, 0.0, 768.0)"><path d="M 0.0 768.0 L 1024.0 768.0 L 1024.0 0.0 L 0.0 0.0 Z M 0.0 768.0 " fill="#FEFFFF"></path><text xml:space="preserve" font-family="Helvetica-Light" font-size="80.0" fill="#000000" transform="matrix(1.00, 0.00, -0.00, -1.00, 259.0, 657.0)">H</text><text xml:space="preserve" font-family="Helvetica-Light" font-size="80.0" fill="#000000" transform="matrix(1.00, 0.00, -0.00, -1.00, 316.8, 657.0)">o</text><text xml:space="preserve" font-family="Helvetica-Light" font-size="80.0" fill="#000000" transform="matrix(1.00, 0.00, -0.00, -1.00, 361.2, 657.0)">w</text><text xml:space="preserve" font-family="Helvetica-Light" font-size="80.0" fill="#000000" transform="matrix(1.00, 0.00, -0.00, -1.00, 419.0, 657.0)">’</text><text xml:space="preserve" font-family="Helvetica-Light" font-size="80.0" fill="#000000" transform="matrix(1.00, 0.00, -0.00, -1.00, 436.8, 657.0)">d</text><text xml:space="preserve" font-family="Helvetica-Light" font-size="80.0" fill="#000000" transform="matrix(1.00, 0.00, -0.00, -1.00, 485.6, 657.0)"> </text><text xml:space="preserve" font-family="Helvetica-Light" font-size="80.0" fill="#000000" transform="matrix(1.00, 0.00, -0.00, -1.00, 507.9, 657.0)">w</text><text xml:space="preserve" font-family="Helvetica-Light" font-size="80.0" fill="#000000" transform="matrix(1.00, 0.00, -0.00, -1.00, 565.6, 657.0)">e</text><text xml:space="preserve" font-family="Helvetica-Light" font-size="80.0" fill="#000000" transform="matrix(1.00, 0.00, -0.00, -1.00, 610.1, 657.0)"> </text><text xml:space="preserve" font-family="Helvetica-Light" font-size="80.0" fill="#000000" transform="matrix(1.00, 0.00, -0.00, -1.00, 632.4, 657.0)">d</text><text xml:space="preserve" font-family="Helvetica-Light" font-size="80.0" fill="#000000" transform="matrix(1.00, 0.00, -0.00, -1.00, 681.2, 657.0)">o</text><text xml:space="preserve" font-family="Helvetica-Light" font-size="80.0" fill="#000000" transform="matrix(1.00, 0.00, -0.00, -1.00, 725.7, 657.0)">?</text><g><clipPath id="clip-1233"><path d="M 185.0 600.0 L 838.4 600.0 L 838.4 61.6 L 185.0 61.6 Z M 185.0 600.0 "></path></clipPath><g clip-path="url(#clip-1233)"><path d="M 185.0 600.0 L 511.7 600.0 L 511.7 561.5 L 185.0 561.5 Z M 185.0 600.0 " fill="#0264C0"></path><path d="M 511.7 600.0 L 838.4 600.0 L 838.4 561.5 L 511.7 561.5 Z M 511.7 600.0 " fill="#0264C0"></path><path d="M 185.0 561.5 L 511.7 561.5 L 511.7 523.1 L 185.0 523.1 Z M 185.0 561.5 " fill="#388CCE"></path><path d="M 511.7 561.5 L 838.4 561.5 L 838.4 523.1 L 511.7 523.1 Z M 511.7 561.5 " fill="#FEFFFF"></path><path d="M 185.0 523.1 L 511.7 523.1 L 511.7 484.6 L 185.0 484.6 Z M 185.0 523.1 " fill="#388CCE"></path><path d="M 511.7 523.1 L 838.4 523.1 L 838.4 484.6 L 511.7 484.6 Z M 511.7 523.1 " fill="#E2E5E8"></path><path d="M 185.0 484.6 L 511.7 484.6 L 511.7 446.2 L 185.0 446.2 Z M 185.0 484.6 " fill="#388CCE"></path><path d="M 511.7 484.6 L 838.4 484.6 L 838.4 446.2 L 511.7 446.2 Z M 511.7 484.6 " fill="#FEFFFF"></path><path d="M 185.0 446.2 L 511.7 446.2 L 511.7 407.7 L 185.0 407.7 Z M 185.0 446.2 " fill="#388CCE"></path><path d="M 511.7 446.2 L 838.4 446.2 L 838.4 407.7 L 511.7 407.7 Z M 511.7 446.2 " fill="#E2E5E8"></path><path d="M 185.0 407.7 L 511.7 407.7 L 511.7 369.2 L 185.0 369.2 Z M 185.0 407.7 " fill="#388CCE"></path><path d="M 511.7 407.7 L 838.4 407.7 L 838.4 369.2 L 511.7 369.2 Z M 511.7 407.7 " fill="#FEFFFF"></path><path d="M 185.0 369.2 L 511.7 369.2 L 511.7 330.8 L 185.0 330.8 Z M 185.0 369.2 " fill="#388CCE"></path><path d="M 511.7 369.2 L 838.4 369.2 L 838.4 330.8 L 511.7 330.8 Z M 511.7 369.2 " fill="#E2E5E8"></path><path d="M 185.0 330.8 L 511.7 330.8 L 511.7 292.3 L 185.0 292.3 Z M 185.0 330.8 " fill="#388CCE"></path><path d="M 511.7 330.8 L 838.4 330.8 L 838.4 292.3 L 511.7 292.3 Z M 511.7 330.8 " fill="#FEFFFF"></path><path d="M 185.0 292.3 L 511.7 292.3 L 511.7 253.9 L 185.0 253.9 Z M 185.0 292.3 " fill="#388CCE"></path><path d="M 511.7 292.3 L 838.4 292.3 L 838.4 253.9 L 511.7 253.9 Z M 511.7 292.3 " fill="#E2E5E8"></path><path d="M 185.0 253.9 L 511.7 253.9 L 511.7 215.4 L 185.0 215.4 Z M 185.0 253.9 " fill="#388CCE"></path><path d="M 511.7 253.9 L 838.4 253.9 L 838.4 215.4 L 511.7 215.4 Z M 511.7 253.9 " fill="#FEFFFF"></path><path d="M 185.0 215.4 L 511.7 215.4 L 511.7 176.9 L 185.0 176.9 Z M 185.0 215.4 " fill="#388CCE"></path><path d="M 511.7 215.4 L 838.4 215.4 L 838.4 176.9 L 511.7 176.9 Z M 511.7 215.4 " fill="#E2E5E8"></path><path d="M 185.0 176.9 L 511.7 176.9 L 511.7 138.5 L 185.0 138.5 Z M 185.0 176.9 " fill="#388CCE"></path><path d="M 511.7 176.9 L 838.4 176.9 L 838.4 138.5 L 511.7 138.5 Z M 511.7 176.9 " fill="#FEFFFF"></path><path d="M 185.0 138.5 L 511.7 138.5 L 511.7 100.0 L 185.0 100.0 Z M 185.0 138.5 " fill="#388CCE"></path><path d="M 511.7 138.5 L 838.4 138.5 L 838.4 100.0 L 511.7 100.0 Z M 511.7 138.5 " fill="#E2E5E8"></path><path d="M 185.0 100.0 L 511.7 100.0 L 511.7 61.6 L 185.0 61.6 Z M 185.0 100.0 " fill="#388CCE"></path><path d="M 511.7 100.0 L 838.4 100.0 L 838.4 61.6 L 511.7 61.6 Z M 511.7 100.0 " fill="#FEFFFF"></path></g></g><g><clipPath id="clip-1234"><path d="M 185.0 600.0 L 838.4 600.0 L 838.4 61.6 L 185.0 61.6 Z M 185.0 600.0 "></path></clipPath><g clip-path="url(#clip-1234)"><g><clipPath id="clip-1235"><path d="M 185.0 562.0 L 511.7 562.0 L 511.7 600.0 L 185.0 600.0 Z M 185.0 562.0 "></path></clipPath><g clip-path="url(#clip-1235)"><text xml:space="preserve" font-family="Helvetica-Bold" font-weight="bold" font-size="26.0" fill="#FEFFFE" transform="matrix(1.00, 0.00, -0.00, -1.00, 294.0, 571.0)">A</text><text xml:space="preserve" font-family="Helvetica-Bold" font-weight="bold" font-size="26.0" fill="#FEFFFE" transform="matrix(1.00, 0.00, -0.00, -1.00, 312.8, 571.0)">t</text><text xml:space="preserve" font-family="Helvetica-Bold" font-weight="bold" font-size="26.0" fill="#FEFFFE" transform="matrix(1.00, 0.00, -0.00, -1.00, 321.4, 571.0)">t</text><text xml:space="preserve" font-family="Helvetica-Bold" font-weight="bold" font-size="26.0" fill="#FEFFFE" transform="matrix(1.00, 0.00, -0.00, -1.00, 330.1, 571.0)">r</text><text xml:space="preserve" font-family="Helvetica-Bold" font-weight="bold" font-size="26.0" fill="#FEFFFE" transform="matrix(1.00, 0.00, -0.00, -1.00, 340.2, 571.0)">i</text><text xml:space="preserve" font-family="Helvetica-Bold" font-weight="bold" font-size="26.0" fill="#FEFFFE" transform="matrix(1.00, 0.00, -0.00, -1.00, 347.4, 571.0)">b</text><text xml:space="preserve" font-family="Helvetica-Bold" font-weight="bold" font-size="26.0" fill="#FEFFFE" transform="matrix(1.00, 0.00, -0.00, -1.00, 363.3, 571.0)">u</text><text xml:space="preserve" font-family="Helvetica-Bold" font-weight="bold" font-size="26.0" fill="#FEFFFE" transform="matrix(1.00, 0.00, -0.00, -1.00, 379.2, 571.0)">t</text><text xml:space="preserve" font-family="Helvetica-Bold" font-weight="bold" font-size="26.0" fill="#FEFFFE" transform="matrix(1.00, 0.00, -0.00, -1.00, 387.9, 571.0)">e</text></g></g></g></g><g><clipPath id="clip-1236"><path d="M 185.0 600.0 L 838.4 600.0 L 838.4 61.6 L 185.0 61.6 Z M 185.0 600.0 "></path></clipPath><g clip-path="url(#clip-1236)"><g><clipPath id="clip-1237"><path d="M 511.7 562.0 L 838.4 562.0 L 838.4 600.0 L 511.7 600.0 Z M 511.7 562.0 "></path></clipPath><g clip-path="url(#clip-1237)"><text xml:space="preserve" font-family="Helvetica-Bold" font-weight="bold" font-size="26.0" fill="#FEFFFE" transform="matrix(1.00, 0.00, -0.00, -1.00, 518.0, 571.0)">D</text><text xml:space="preserve" font-family="Helvetica-Bold" font-weight="bold" font-size="26.0" fill="#FEFFFE" transform="matrix(1.00, 0.00, -0.00, -1.00, 536.8, 571.0)">o</text><text xml:space="preserve" font-family="Helvetica-Bold" font-weight="bold" font-size="26.0" fill="#FEFFFE" transform="matrix(1.00, 0.00, -0.00, -1.00, 552.7, 571.0)">a</text><text xml:space="preserve" font-family="Helvetica-Bold" font-weight="bold" font-size="26.0" fill="#FEFFFE" transform="matrix(1.00, 0.00, -0.00, -1.00, 567.1, 571.0)">b</text><text xml:space="preserve" font-family="Helvetica-Bold" font-weight="bold" font-size="26.0" fill="#FEFFFE" transform="matrix(1.00, 0.00, -0.00, -1.00, 583.0, 571.0)">l</text><text xml:space="preserve" font-family="Helvetica-Bold" font-weight="bold" font-size="26.0" fill="#FEFFFE" transform="matrix(1.00, 0.00, -0.00, -1.00, 590.2, 571.0)">e</text><text xml:space="preserve" font-family="Helvetica-Bold" font-weight="bold" font-size="26.0" fill="#FEFFFE" transform="matrix(1.00, 0.00, -0.00, -1.00, 604.7, 571.0)"> </text><text xml:space="preserve" font-family="Helvetica-Bold" font-weight="bold" font-size="26.0" fill="#FEFFFE" transform="matrix(1.00, 0.00, -0.00, -1.00, 611.9, 571.0)">w</text><text xml:space="preserve" font-family="Helvetica-Bold" font-weight="bold" font-size="26.0" fill="#FEFFFE" transform="matrix(1.00, 0.00, -0.00, -1.00, 632.1, 571.0)">i</text><text xml:space="preserve" font-family="Helvetica-Bold" font-weight="bold" font-size="26.0" fill="#FEFFFE" transform="matrix(1.00, 0.00, -0.00, -1.00, 639.3, 571.0)">t</text><text xml:space="preserve" font-family="Helvetica-Bold" font-weight="bold" font-size="26.0" fill="#FEFFFE" transform="matrix(1.00, 0.00, -0.00, -1.00, 648.0, 571.0)">h</text><text xml:space="preserve" font-family="Helvetica-Bold" font-weight="bold" font-size="26.0" fill="#FEFFFE" transform="matrix(1.00, 0.00, -0.00, -1.00, 663.9, 571.0)"> </text><text xml:space="preserve" font-family="Helvetica-Bold" font-weight="bold" font-size="26.0" fill="#FEFFFE" transform="matrix(1.00, 0.00, -0.00, -1.00, 671.1, 571.0)">J</text><text xml:space="preserve" font-family="Helvetica-Bold" font-weight="bold" font-size="26.0" fill="#FEFFFE" transform="matrix(1.00, 0.00, -0.00, -1.00, 685.6, 571.0)">a</text><text xml:space="preserve" font-family="Helvetica-Bold" font-weight="bold" font-size="26.0" fill="#FEFFFE" transform="matrix(1.00, 0.00, -0.00, -1.00, 700.0, 571.0)">v</text><text xml:space="preserve" font-family="Helvetica-Bold" font-weight="bold" font-size="26.0" fill="#FEFFFE" transform="matrix(1.00, 0.00, -0.00, -1.00, 714.5, 571.0)">a</text><text xml:space="preserve" font-family="Helvetica-Bold" font-weight="bold" font-size="26.0" fill="#FEFFFE" transform="matrix(1.00, 0.00, -0.00, -1.00, 729.0, 571.0)"> </text><text xml:space="preserve" font-family="Helvetica-Bold" font-weight="bold" font-size="26.0" fill="#FEFFFE" transform="matrix(1.00, 0.00, -0.00, -1.00, 736.2, 571.0)">O</text><text xml:space="preserve" font-family="Helvetica-Bold" font-weight="bold" font-size="26.0" fill="#FEFFFE" transform="matrix(1.00, 0.00, -0.00, -1.00, 756.4, 571.0)">b</text><text xml:space="preserve" font-family="Helvetica-Bold" font-weight="bold" font-size="26.0" fill="#FEFFFE" transform="matrix(1.00, 0.00, -0.00, -1.00, 772.3, 571.0)">j</text><text xml:space="preserve" font-family="Helvetica-Bold" font-weight="bold" font-size="26.0" fill="#FEFFFE" transform="matrix(1.00, 0.00, -0.00, -1.00, 779.5, 571.0)">e</text><text xml:space="preserve" font-family="Helvetica-Bold" font-weight="bold" font-size="26.0" fill="#FEFFFE" transform="matrix(1.00, 0.00, -0.00, -1.00, 793.9, 571.0)">c</text><text xml:space="preserve" font-family="Helvetica-Bold" font-weight="bold" font-size="26.0" fill="#FEFFFE" transform="matrix(1.00, 0.00, -0.00, -1.00, 808.4, 571.0)">t</text><text xml:space="preserve" font-family="Helvetica-Bold" font-weight="bold" font-size="26.0" fill="#FEFFFE" transform="matrix(1.00, 0.00, -0.00, -1.00, 817.1, 571.0)">s</text></g></g></g></g><g><clipPath id="clip-1238"><path d="M 185.0 600.0 L 838.4 600.0 L 838.4 61.6 L 185.0 61.6 Z M 185.0 600.0 "></path></clipPath><g clip-path="url(#clip-1238)"><g><clipPath id="clip-1239"><path d="M 185.0 523.1 L 511.2 523.1 L 511.2 561.0 L 185.0 561.0 Z M 185.0 523.1 "></path></clipPath><g clip-path="url(#clip-1239)"><text xml:space="preserve" font-family="Helvetica-Bold" font-weight="bold" font-size="26.0" fill="#FEFFFE" transform="matrix(1.00, 0.00, -0.00, -1.00, 286.0, 532.0)">S</text><text xml:space="preserve" font-family="Helvetica-Bold" font-weight="bold" font-size="26.0" fill="#FEFFFE" transform="matrix(1.00, 0.00, -0.00, -1.00, 303.3, 532.0)">h</text><text xml:space="preserve" font-family="Helvetica-Bold" font-weight="bold" font-size="26.0" fill="#FEFFFE" transform="matrix(1.00, 0.00, -0.00, -1.00, 319.2, 532.0)">a</text><text xml:space="preserve" font-family="Helvetica-Bold" font-weight="bold" font-size="26.0" fill="#FEFFFE" transform="matrix(1.00, 0.00, -0.00, -1.00, 333.7, 532.0)">r</text><text xml:space="preserve" font-family="Helvetica-Bold" font-weight="bold" font-size="26.0" fill="#FEFFFE" transform="matrix(1.00, 0.00, -0.00, -1.00, 343.8, 532.0)">e</text><text xml:space="preserve" font-family="Helvetica-Bold" font-weight="bold" font-size="26.0" fill="#FEFFFE" transform="matrix(1.00, 0.00, -0.00, -1.00, 358.3, 532.0)">a</text><text xml:space="preserve" font-family="Helvetica-Bold" font-weight="bold" font-size="26.0" fill="#FEFFFE" transform="matrix(1.00, 0.00, -0.00, -1.00, 372.7, 532.0)">b</text><text xml:space="preserve" font-family="Helvetica-Bold" font-weight="bold" font-size="26.0" fill="#FEFFFE" transform="matrix(1.00, 0.00, -0.00, -1.00, 388.6, 532.0)">l</text><text xml:space="preserve" font-family="Helvetica-Bold" font-weight="bold" font-size="26.0" fill="#FEFFFE" transform="matrix(1.00, 0.00, -0.00, -1.00, 395.8, 532.0)">e</text></g></g></g></g><g><clipPath id="clip-1240"><path d="M 185.0 600.0 L 838.4 600.0 L 838.4 61.6 L 185.0 61.6 Z M 185.0 600.0 "></path></clipPath><g clip-path="url(#clip-1240)"><g><clipPath id="clip-1241"><path d="M 512.2 523.1 L 838.4 523.1 L 838.4 561.0 L 512.2 561.0 Z M 512.2 523.1 "></path></clipPath><g clip-path="url(#clip-1241)"><text xml:space="preserve" font-family="Helvetica-Light" font-size="26.0" fill="#000000" transform="matrix(1.00, 0.00, -0.00, -1.00, 655.0, 532.0)">Y</text><text xml:space="preserve" font-family="Helvetica-Light" font-size="26.0" fill="#000000" transform="matrix(1.00, 0.00, -0.00, -1.00, 668.5, 532.0)">e</text><text xml:space="preserve" font-family="Helvetica-Light" font-size="26.0" fill="#000000" transform="matrix(1.00, 0.00, -0.00, -1.00, 683.0, 532.0)">s</text></g></g></g></g><g><clipPath id="clip-1242"><path d="M 185.0 600.0 L 838.4 600.0 L 838.4 61.6 L 185.0 61.6 Z M 185.0 600.0 "></path></clipPath><g clip-path="url(#clip-1242)"><g><clipPath id="clip-1243"><path d="M 185.0 484.6 L 511.2 484.6 L 511.2 523.1 L 185.0 523.1 Z M 185.0 484.6 "></path></clipPath><g clip-path="url(#clip-1243)"><text xml:space="preserve" font-family="Helvetica-Bold" font-weight="bold" font-size="26.0" fill="#FEFFFE" transform="matrix(1.00, 0.00, -0.00, -1.00, 273.0, 494.0)">C</text><text xml:space="preserve" font-family="Helvetica-Bold" font-weight="bold" font-size="26.0" fill="#FEFFFE" transform="matrix(1.00, 0.00, -0.00, -1.00, 291.8, 494.0)">o</text><text xml:space="preserve" font-family="Helvetica-Bold" font-weight="bold" font-size="26.0" fill="#FEFFFE" transform="matrix(1.00, 0.00, -0.00, -1.00, 307.7, 494.0)">m</text><text xml:space="preserve" font-family="Helvetica-Bold" font-weight="bold" font-size="26.0" fill="#FEFFFE" transform="matrix(1.00, 0.00, -0.00, -1.00, 330.8, 494.0)">p</text><text xml:space="preserve" font-family="Helvetica-Bold" font-weight="bold" font-size="26.0" fill="#FEFFFE" transform="matrix(1.00, 0.00, -0.00, -1.00, 346.7, 494.0)">a</text><text xml:space="preserve" font-family="Helvetica-Bold" font-weight="bold" font-size="26.0" fill="#FEFFFE" transform="matrix(1.00, 0.00, -0.00, -1.00, 361.1, 494.0)">r</text><text xml:space="preserve" font-family="Helvetica-Bold" font-weight="bold" font-size="26.0" fill="#FEFFFE" transform="matrix(1.00, 0.00, -0.00, -1.00, 371.3, 494.0)">a</text><text xml:space="preserve" font-family="Helvetica-Bold" font-weight="bold" font-size="26.0" fill="#FEFFFE" transform="matrix(1.00, 0.00, -0.00, -1.00, 385.7, 494.0)">b</text><text xml:space="preserve" font-family="Helvetica-Bold" font-weight="bold" font-size="26.0" fill="#FEFFFE" transform="matrix(1.00, 0.00, -0.00, -1.00, 401.6, 494.0)">l</text><text xml:space="preserve" font-family="Helvetica-Bold" font-weight="bold" font-size="26.0" fill="#FEFFFE" transform="matrix(1.00, 0.00, -0.00, -1.00, 408.8, 494.0)">e</text></g></g></g></g><g><clipPath id="clip-1244"><path d="M 185.0 600.0 L 838.4 600.0 L 838.4 61.6 L 185.0 61.6 Z M 185.0 600.0 "></path></clipPath><g clip-path="url(#clip-1244)"><g><clipPath id="clip-1245"><path d="M 512.2 484.6 L 838.4 484.6 L 838.4 523.1 L 512.2 523.1 Z M 512.2 484.6 "></path></clipPath><g clip-path="url(#clip-1245)"><text xml:space="preserve" font-family="Helvetica-Light" font-size="26.0" fill="#000000" transform="matrix(1.00, 0.00, -0.00, -1.00, 655.0, 494.0)">Y</text><text xml:space="preserve" font-family="Helvetica-Light" font-size="26.0" fill="#000000" transform="matrix(1.00, 0.00, -0.00, -1.00, 668.5, 494.0)">e</text><text xml:space="preserve" font-family="Helvetica-Light" font-size="26.0" fill="#000000" transform="matrix(1.00, 0.00, -0.00, -1.00, 683.0, 494.0)">s</text></g></g></g></g><g><clipPath id="clip-1246"><path d="M 185.0 600.0 L 838.4 600.0 L 838.4 61.6 L 185.0 61.6 Z M 185.0 600.0 "></path></clipPath><g clip-path="url(#clip-1246)"><g><clipPath id="clip-1247"><path d="M 185.0 446.2 L 511.2 446.2 L 511.2 484.6 L 185.0 484.6 Z M 185.0 446.2 "></path></clipPath><g clip-path="url(#clip-1247)"><text xml:space="preserve" font-family="Helvetica-Bold" font-weight="bold" font-size="26.0" fill="#FEFFFE" transform="matrix(1.00, 0.00, -0.00, -1.00, 265.0, 456.0)">R</text><text xml:space="preserve" font-family="Helvetica-Bold" font-weight="bold" font-size="26.0" fill="#FEFFFE" transform="matrix(1.00, 0.00, -0.00, -1.00, 283.8, 456.0)">e</text><text xml:space="preserve" font-family="Helvetica-Bold" font-weight="bold" font-size="26.0" fill="#FEFFFE" transform="matrix(1.00, 0.00, -0.00, -1.00, 298.2, 456.0)">p</text><text xml:space="preserve" font-family="Helvetica-Bold" font-weight="bold" font-size="26.0" fill="#FEFFFE" transform="matrix(1.00, 0.00, -0.00, -1.00, 314.1, 456.0)">r</text><text xml:space="preserve" font-family="Helvetica-Bold" font-weight="bold" font-size="26.0" fill="#FEFFFE" transform="matrix(1.00, 0.00, -0.00, -1.00, 324.3, 456.0)">o</text><text xml:space="preserve" font-family="Helvetica-Bold" font-weight="bold" font-size="26.0" fill="#FEFFFE" transform="matrix(1.00, 0.00, -0.00, -1.00, 340.1, 456.0)">d</text><text xml:space="preserve" font-family="Helvetica-Bold" font-weight="bold" font-size="26.0" fill="#FEFFFE" transform="matrix(1.00, 0.00, -0.00, -1.00, 356.0, 456.0)">u</text><text xml:space="preserve" font-family="Helvetica-Bold" font-weight="bold" font-size="26.0" fill="#FEFFFE" transform="matrix(1.00, 0.00, -0.00, -1.00, 371.9, 456.0)">c</text><text xml:space="preserve" font-family="Helvetica-Bold" font-weight="bold" font-size="26.0" fill="#FEFFFE" transform="matrix(1.00, 0.00, -0.00, -1.00, 386.4, 456.0)">i</text><text xml:space="preserve" font-family="Helvetica-Bold" font-weight="bold" font-size="26.0" fill="#FEFFFE" transform="matrix(1.00, 0.00, -0.00, -1.00, 393.6, 456.0)">b</text><text xml:space="preserve" font-family="Helvetica-Bold" font-weight="bold" font-size="26.0" fill="#FEFFFE" transform="matrix(1.00, 0.00, -0.00, -1.00, 409.5, 456.0)">l</text><text xml:space="preserve" font-family="Helvetica-Bold" font-weight="bold" font-size="26.0" fill="#FEFFFE" transform="matrix(1.00, 0.00, -0.00, -1.00, 416.7, 456.0)">e</text></g></g></g></g><g><clipPath id="clip-1248"><path d="M 185.0 600.0 L 838.4 600.0 L 838.4 61.6 L 185.0 61.6 Z M 185.0 600.0 "></path></clipPath><g clip-path="url(#clip-1248)"><g><clipPath id="clip-1249"><path d="M 512.2 446.2 L 838.4 446.2 L 838.4 484.6 L 512.2 484.6 Z M 512.2 446.2 "></path></clipPath><g clip-path="url(#clip-1249)"><text xml:space="preserve" font-family="Helvetica-Light" font-size="26.0" fill="#000000" transform="matrix(1.00, 0.00, -0.00, -1.00, 655.0, 456.0)">Y</text><text xml:space="preserve" font-family="Helvetica-Light" font-size="26.0" fill="#000000" transform="matrix(1.00, 0.00, -0.00, -1.00, 668.5, 456.0)">e</text><text xml:space="preserve" font-family="Helvetica-Light" font-size="26.0" fill="#000000" transform="matrix(1.00, 0.00, -0.00, -1.00, 683.0, 456.0)">s</text></g></g></g></g><g><clipPath id="clip-1250"><path d="M 185.0 600.0 L 838.4 600.0 L 838.4 61.6 L 185.0 61.6 Z M 185.0 600.0 "></path></clipPath><g clip-path="url(#clip-1250)"><g><clipPath id="clip-1251"><path d="M 185.0 407.7 L 511.2 407.7 L 511.2 446.2 L 185.0 446.2 Z M 185.0 407.7 "></path></clipPath><g clip-path="url(#clip-1251)"><text xml:space="preserve" font-family="Helvetica-Bold" font-weight="bold" font-size="26.0" fill="#FEFFFE" transform="matrix(1.00, 0.00, -0.00, -1.00, 261.0, 417.0)">S</text><text xml:space="preserve" font-family="Helvetica-Bold" font-weight="bold" font-size="26.0" fill="#FEFFFE" transform="matrix(1.00, 0.00, -0.00, -1.00, 278.3, 417.0)">y</text><text xml:space="preserve" font-family="Helvetica-Bold" font-weight="bold" font-size="26.0" fill="#FEFFFE" transform="matrix(1.00, 0.00, -0.00, -1.00, 292.8, 417.0)">n</text><text xml:space="preserve" font-family="Helvetica-Bold" font-weight="bold" font-size="26.0" fill="#FEFFFE" transform="matrix(1.00, 0.00, -0.00, -1.00, 308.7, 417.0)">t</text><text xml:space="preserve" font-family="Helvetica-Bold" font-weight="bold" font-size="26.0" fill="#FEFFFE" transform="matrix(1.00, 0.00, -0.00, -1.00, 317.3, 417.0)">h</text><text xml:space="preserve" font-family="Helvetica-Bold" font-weight="bold" font-size="26.0" fill="#FEFFFE" transform="matrix(1.00, 0.00, -0.00, -1.00, 333.2, 417.0)">e</text><text xml:space="preserve" font-family="Helvetica-Bold" font-weight="bold" font-size="26.0" fill="#FEFFFE" transform="matrix(1.00, 0.00, -0.00, -1.00, 347.7, 417.0)">s</text><text xml:space="preserve" font-family="Helvetica-Bold" font-weight="bold" font-size="26.0" fill="#FEFFFE" transform="matrix(1.00, 0.00, -0.00, -1.00, 362.1, 417.0)">i</text><text xml:space="preserve" font-family="Helvetica-Bold" font-weight="bold" font-size="26.0" fill="#FEFFFE" transform="matrix(1.00, 0.00, -0.00, -1.00, 369.4, 417.0)">z</text><text xml:space="preserve" font-family="Helvetica-Bold" font-weight="bold" font-size="26.0" fill="#FEFFFE" transform="matrix(1.00, 0.00, -0.00, -1.00, 382.4, 417.0)">a</text><text xml:space="preserve" font-family="Helvetica-Bold" font-weight="bold" font-size="26.0" fill="#FEFFFE" transform="matrix(1.00, 0.00, -0.00, -1.00, 396.8, 417.0)">b</text><text xml:space="preserve" font-family="Helvetica-Bold" font-weight="bold" font-size="26.0" fill="#FEFFFE" transform="matrix(1.00, 0.00, -0.00, -1.00, 412.7, 417.0)">l</text><text xml:space="preserve" font-family="Helvetica-Bold" font-weight="bold" font-size="26.0" fill="#FEFFFE" transform="matrix(1.00, 0.00, -0.00, -1.00, 419.9, 417.0)">e</text></g></g></g></g><g><clipPath id="clip-1252"><path d="M 185.0 600.0 L 838.4 600.0 L 838.4 61.6 L 185.0 61.6 Z M 185.0 600.0 "></path></clipPath><g clip-path="url(#clip-1252)"><g><clipPath id="clip-1253"><path d="M 512.2 407.7 L 838.4 407.7 L 838.4 446.2 L 512.2 446.2 Z M 512.2 407.7 "></path></clipPath><g clip-path="url(#clip-1253)"><text xml:space="preserve" font-family="Helvetica-Light" font-size="26.0" fill="#000000" transform="matrix(1.00, 0.00, -0.00, -1.00, 659.0, 417.0)">N</text><text xml:space="preserve" font-family="Helvetica-Light" font-size="26.0" fill="#000000" transform="matrix(1.00, 0.00, -0.00, -1.00, 677.8, 417.0)">o</text></g></g></g></g><g><clipPath id="clip-1254"><path d="M 185.0 600.0 L 838.4 600.0 L 838.4 61.6 L 185.0 61.6 Z M 185.0 600.0 "></path></clipPath><g clip-path="url(#clip-1254)"><g><clipPath id="clip-1255"><path d="M 185.0 369.2 L 511.2 369.2 L 511.2 407.7 L 185.0 407.7 Z M 185.0 369.2 "></path></clipPath><g clip-path="url(#clip-1255)"><text xml:space="preserve" font-family="Helvetica-Bold" font-weight="bold" font-size="26.0" fill="#FEFFFE" transform="matrix(1.00, 0.00, -0.00, -1.00, 290.0, 379.0)">U</text><text xml:space="preserve" font-family="Helvetica-Bold" font-weight="bold" font-size="26.0" fill="#FEFFFE" transform="matrix(1.00, 0.00, -0.00, -1.00, 308.8, 379.0)">n</text><text xml:space="preserve" font-family="Helvetica-Bold" font-weight="bold" font-size="26.0" fill="#FEFFFE" transform="matrix(1.00, 0.00, -0.00, -1.00, 324.7, 379.0)">i</text><text xml:space="preserve" font-family="Helvetica-Bold" font-weight="bold" font-size="26.0" fill="#FEFFFE" transform="matrix(1.00, 0.00, -0.00, -1.00, 331.9, 379.0)">v</text><text xml:space="preserve" font-family="Helvetica-Bold" font-weight="bold" font-size="26.0" fill="#FEFFFE" transform="matrix(1.00, 0.00, -0.00, -1.00, 346.4, 379.0)">e</text><text xml:space="preserve" font-family="Helvetica-Bold" font-weight="bold" font-size="26.0" fill="#FEFFFE" transform="matrix(1.00, 0.00, -0.00, -1.00, 360.8, 379.0)">r</text><text xml:space="preserve" font-family="Helvetica-Bold" font-weight="bold" font-size="26.0" fill="#FEFFFE" transform="matrix(1.00, 0.00, -0.00, -1.00, 371.0, 379.0)">s</text><text xml:space="preserve" font-family="Helvetica-Bold" font-weight="bold" font-size="26.0" fill="#FEFFFE" transform="matrix(1.00, 0.00, -0.00, -1.00, 385.4, 379.0)">a</text><text xml:space="preserve" font-family="Helvetica-Bold" font-weight="bold" font-size="26.0" fill="#FEFFFE" transform="matrix(1.00, 0.00, -0.00, -1.00, 399.9, 379.0)">l</text></g></g></g></g><g><clipPath id="clip-1256"><path d="M 185.0 600.0 L 838.4 600.0 L 838.4 61.6 L 185.0 61.6 Z M 185.0 600.0 "></path></clipPath><g clip-path="url(#clip-1256)"><g><clipPath id="clip-1257"><path d="M 512.2 369.2 L 838.4 369.2 L 838.4 407.7 L 512.2 407.7 Z M 512.2 369.2 "></path></clipPath><g clip-path="url(#clip-1257)"><text xml:space="preserve" font-family="Helvetica-Light" font-size="26.0" fill="#000000" transform="matrix(1.00, 0.00, -0.00, -1.00, 659.0, 379.0)">N</text><text xml:space="preserve" font-family="Helvetica-Light" font-size="26.0" fill="#000000" transform="matrix(1.00, 0.00, -0.00, -1.00, 677.8, 379.0)">o</text></g></g></g></g><g><clipPath id="clip-1258"><path d="M 185.0 600.0 L 838.4 600.0 L 838.4 61.6 L 185.0 61.6 Z M 185.0 600.0 "></path></clipPath><g clip-path="url(#clip-1258)"><g><clipPath id="clip-1259"><path d="M 185.0 330.8 L 511.2 330.8 L 511.2 369.2 L 185.0 369.2 Z M 185.0 330.8 "></path></clipPath><g clip-path="url(#clip-1259)"><text xml:space="preserve" font-family="Helvetica-Bold" font-weight="bold" font-size="26.0" fill="#FEFFFE" transform="matrix(1.00, 0.00, -0.00, -1.00, 300.0, 340.0)">G</text><text xml:space="preserve" font-family="Helvetica-Bold" font-weight="bold" font-size="26.0" fill="#FEFFFE" transform="matrix(1.00, 0.00, -0.00, -1.00, 320.2, 340.0)">e</text><text xml:space="preserve" font-family="Helvetica-Bold" font-weight="bold" font-size="26.0" fill="#FEFFFE" transform="matrix(1.00, 0.00, -0.00, -1.00, 334.7, 340.0)">n</text><text xml:space="preserve" font-family="Helvetica-Bold" font-weight="bold" font-size="26.0" fill="#FEFFFE" transform="matrix(1.00, 0.00, -0.00, -1.00, 350.5, 340.0)">e</text><text xml:space="preserve" font-family="Helvetica-Bold" font-weight="bold" font-size="26.0" fill="#FEFFFE" transform="matrix(1.00, 0.00, -0.00, -1.00, 365.0, 340.0)">r</text><text xml:space="preserve" font-family="Helvetica-Bold" font-weight="bold" font-size="26.0" fill="#FEFFFE" transform="matrix(1.00, 0.00, -0.00, -1.00, 375.1, 340.0)">i</text><text xml:space="preserve" font-family="Helvetica-Bold" font-weight="bold" font-size="26.0" fill="#FEFFFE" transform="matrix(1.00, 0.00, -0.00, -1.00, 382.3, 340.0)">c</text></g></g></g></g><g><clipPath id="clip-1260"><path d="M 185.0 600.0 L 838.4 600.0 L 838.4 61.6 L 185.0 61.6 Z M 185.0 600.0 "></path></clipPath><g clip-path="url(#clip-1260)"><g><clipPath id="clip-1261"><path d="M 512.2 330.8 L 838.4 330.8 L 838.4 369.2 L 512.2 369.2 Z M 512.2 330.8 "></path></clipPath><g clip-path="url(#clip-1261)"><text xml:space="preserve" font-family="Helvetica-Light" font-size="26.0" fill="#000000" transform="matrix(1.00, 0.00, -0.00, -1.00, 659.0, 340.0)">N</text><text xml:space="preserve" font-family="Helvetica-Light" font-size="26.0" fill="#000000" transform="matrix(1.00, 0.00, -0.00, -1.00, 677.8, 340.0)">o</text></g></g></g></g><g><clipPath id="clip-1262"><path d="M 185.0 600.0 L 838.4 600.0 L 838.4 61.6 L 185.0 61.6 Z M 185.0 600.0 "></path></clipPath><g clip-path="url(#clip-1262)"><g><clipPath id="clip-1263"><path d="M 185.0 292.3 L 511.2 292.3 L 511.2 330.8 L 185.0 330.8 Z M 185.0 292.3 "></path></clipPath><g clip-path="url(#clip-1263)"><text xml:space="preserve" font-family="Helvetica-Bold" font-weight="bold" font-size="26.0" fill="#FEFFFE" transform="matrix(1.00, 0.00, -0.00, -1.00, 277.0, 302.0)">A</text><text xml:space="preserve" font-family="Helvetica-Bold" font-weight="bold" font-size="26.0" fill="#FEFFFE" transform="matrix(1.00, 0.00, -0.00, -1.00, 295.8, 302.0)">g</text><text xml:space="preserve" font-family="Helvetica-Bold" font-weight="bold" font-size="26.0" fill="#FEFFFE" transform="matrix(1.00, 0.00, -0.00, -1.00, 311.7, 302.0)">g</text><text xml:space="preserve" font-family="Helvetica-Bold" font-weight="bold" font-size="26.0" fill="#FEFFFE" transform="matrix(1.00, 0.00, -0.00, -1.00, 327.6, 302.0)">r</text><text xml:space="preserve" font-family="Helvetica-Bold" font-weight="bold" font-size="26.0" fill="#FEFFFE" transform="matrix(1.00, 0.00, -0.00, -1.00, 337.7, 302.0)">e</text><text xml:space="preserve" font-family="Helvetica-Bold" font-weight="bold" font-size="26.0" fill="#FEFFFE" transform="matrix(1.00, 0.00, -0.00, -1.00, 352.1, 302.0)">g</text><text xml:space="preserve" font-family="Helvetica-Bold" font-weight="bold" font-size="26.0" fill="#FEFFFE" transform="matrix(1.00, 0.00, -0.00, -1.00, 368.0, 302.0)">a</text><text xml:space="preserve" font-family="Helvetica-Bold" font-weight="bold" font-size="26.0" fill="#FEFFFE" transform="matrix(1.00, 0.00, -0.00, -1.00, 382.5, 302.0)">b</text><text xml:space="preserve" font-family="Helvetica-Bold" font-weight="bold" font-size="26.0" fill="#FEFFFE" transform="matrix(1.00, 0.00, -0.00, -1.00, 398.4, 302.0)">l</text><text xml:space="preserve" font-family="Helvetica-Bold" font-weight="bold" font-size="26.0" fill="#FEFFFE" transform="matrix(1.00, 0.00, -0.00, -1.00, 405.6, 302.0)">e</text></g></g></g></g><g><clipPath id="clip-1264"><path d="M 185.0 600.0 L 838.4 600.0 L 838.4 61.6 L 185.0 61.6 Z M 185.0 600.0 "></path></clipPath><g clip-path="url(#clip-1264)"><g><clipPath id="clip-1265"><path d="M 512.2 292.3 L 838.4 292.3 L 838.4 330.8 L 512.2 330.8 Z M 512.2 292.3 "></path></clipPath><g clip-path="url(#clip-1265)"><text xml:space="preserve" font-family="Helvetica-Light" font-size="26.0" fill="#000000" transform="matrix(1.00, 0.00, -0.00, -1.00, 655.0, 302.0)">Y</text><text xml:space="preserve" font-family="Helvetica-Light" font-size="26.0" fill="#000000" transform="matrix(1.00, 0.00, -0.00, -1.00, 668.5, 302.0)">e</text><text xml:space="preserve" font-family="Helvetica-Light" font-size="26.0" fill="#000000" transform="matrix(1.00, 0.00, -0.00, -1.00, 683.0, 302.0)">s</text></g></g></g></g><g><clipPath id="clip-1266"><path d="M 185.0 600.0 L 838.4 600.0 L 838.4 61.6 L 185.0 61.6 Z M 185.0 600.0 "></path></clipPath><g clip-path="url(#clip-1266)"><g><clipPath id="clip-1267"><path d="M 185.0 253.9 L 511.2 253.9 L 511.2 292.3 L 185.0 292.3 Z M 185.0 253.9 "></path></clipPath><g clip-path="url(#clip-1267)"><text xml:space="preserve" font-family="Helvetica-Bold" font-weight="bold" font-size="26.0" fill="#FEFFFE" transform="matrix(1.00, 0.00, -0.00, -1.00, 275.0, 263.0)">C</text><text xml:space="preserve" font-family="Helvetica-Bold" font-weight="bold" font-size="26.0" fill="#FEFFFE" transform="matrix(1.00, 0.00, -0.00, -1.00, 293.8, 263.0)">o</text><text xml:space="preserve" font-family="Helvetica-Bold" font-weight="bold" font-size="26.0" fill="#FEFFFE" transform="matrix(1.00, 0.00, -0.00, -1.00, 309.7, 263.0)">n</text><text xml:space="preserve" font-family="Helvetica-Bold" font-weight="bold" font-size="26.0" fill="#FEFFFE" transform="matrix(1.00, 0.00, -0.00, -1.00, 325.6, 263.0)">v</text><text xml:space="preserve" font-family="Helvetica-Bold" font-weight="bold" font-size="26.0" fill="#FEFFFE" transform="matrix(1.00, 0.00, -0.00, -1.00, 340.0, 263.0)">e</text><text xml:space="preserve" font-family="Helvetica-Bold" font-weight="bold" font-size="26.0" fill="#FEFFFE" transform="matrix(1.00, 0.00, -0.00, -1.00, 354.5, 263.0)">y</text><text xml:space="preserve" font-family="Helvetica-Bold" font-weight="bold" font-size="26.0" fill="#FEFFFE" transform="matrix(1.00, 0.00, -0.00, -1.00, 369.0, 263.0)">a</text><text xml:space="preserve" font-family="Helvetica-Bold" font-weight="bold" font-size="26.0" fill="#FEFFFE" transform="matrix(1.00, 0.00, -0.00, -1.00, 383.4, 263.0)">b</text><text xml:space="preserve" font-family="Helvetica-Bold" font-weight="bold" font-size="26.0" fill="#FEFFFE" transform="matrix(1.00, 0.00, -0.00, -1.00, 399.3, 263.0)">l</text><text xml:space="preserve" font-family="Helvetica-Bold" font-weight="bold" font-size="26.0" fill="#FEFFFE" transform="matrix(1.00, 0.00, -0.00, -1.00, 406.5, 263.0)">e</text></g></g></g></g><g><clipPath id="clip-1268"><path d="M 185.0 600.0 L 838.4 600.0 L 838.4 61.6 L 185.0 61.6 Z M 185.0 600.0 "></path></clipPath><g clip-path="url(#clip-1268)"><g><clipPath id="clip-1269"><path d="M 512.2 253.9 L 838.4 253.9 L 838.4 292.3 L 512.2 292.3 Z M 512.2 253.9 "></path></clipPath><g clip-path="url(#clip-1269)"><text xml:space="preserve" font-family="Helvetica-Light" font-size="26.0" fill="#000000" transform="matrix(1.00, 0.00, -0.00, -1.00, 655.0, 263.0)">Y</text><text xml:space="preserve" font-family="Helvetica-Light" font-size="26.0" fill="#000000" transform="matrix(1.00, 0.00, -0.00, -1.00, 668.5, 263.0)">e</text><text xml:space="preserve" font-family="Helvetica-Light" font-size="26.0" fill="#000000" transform="matrix(1.00, 0.00, -0.00, -1.00, 683.0, 263.0)">s</text></g></g></g></g><g><clipPath id="clip-1270"><path d="M 185.0 600.0 L 838.4 600.0 L 838.4 61.6 L 185.0 61.6 Z M 185.0 600.0 "></path></clipPath><g clip-path="url(#clip-1270)"><g><clipPath id="clip-1271"><path d="M 185.0 215.4 L 511.2 215.4 L 511.2 253.9 L 185.0 253.9 Z M 185.0 215.4 "></path></clipPath><g clip-path="url(#clip-1271)"><text xml:space="preserve" font-family="Helvetica-Bold" font-weight="bold" font-size="26.0" fill="#FEFFFE" transform="matrix(1.00, 0.00, -0.00, -1.00, 276.0, 225.0)">P</text><text xml:space="preserve" font-family="Helvetica-Bold" font-weight="bold" font-size="26.0" fill="#FEFFFE" transform="matrix(1.00, 0.00, -0.00, -1.00, 293.3, 225.0)">e</text><text xml:space="preserve" font-family="Helvetica-Bold" font-weight="bold" font-size="26.0" fill="#FEFFFE" transform="matrix(1.00, 0.00, -0.00, -1.00, 307.8, 225.0)">r</text><text xml:space="preserve" font-family="Helvetica-Bold" font-weight="bold" font-size="26.0" fill="#FEFFFE" transform="matrix(1.00, 0.00, -0.00, -1.00, 317.9, 225.0)">c</text><text xml:space="preserve" font-family="Helvetica-Bold" font-weight="bold" font-size="26.0" fill="#FEFFFE" transform="matrix(1.00, 0.00, -0.00, -1.00, 332.4, 225.0)">e</text><text xml:space="preserve" font-family="Helvetica-Bold" font-weight="bold" font-size="26.0" fill="#FEFFFE" transform="matrix(1.00, 0.00, -0.00, -1.00, 346.9, 225.0)">i</text><text xml:space="preserve" font-family="Helvetica-Bold" font-weight="bold" font-size="26.0" fill="#FEFFFE" transform="matrix(1.00, 0.00, -0.00, -1.00, 354.1, 225.0)">v</text><text xml:space="preserve" font-family="Helvetica-Bold" font-weight="bold" font-size="26.0" fill="#FEFFFE" transform="matrix(1.00, 0.00, -0.00, -1.00, 368.5, 225.0)">a</text><text xml:space="preserve" font-family="Helvetica-Bold" font-weight="bold" font-size="26.0" fill="#FEFFFE" transform="matrix(1.00, 0.00, -0.00, -1.00, 383.0, 225.0)">b</text><text xml:space="preserve" font-family="Helvetica-Bold" font-weight="bold" font-size="26.0" fill="#FEFFFE" transform="matrix(1.00, 0.00, -0.00, -1.00, 398.9, 225.0)">l</text><text xml:space="preserve" font-family="Helvetica-Bold" font-weight="bold" font-size="26.0" fill="#FEFFFE" transform="matrix(1.00, 0.00, -0.00, -1.00, 406.1, 225.0)">e</text></g></g></g></g><g><clipPath id="clip-1272"><path d="M 185.0 600.0 L 838.4 600.0 L 838.4 61.6 L 185.0 61.6 Z M 185.0 600.0 "></path></clipPath><g clip-path="url(#clip-1272)"><g><clipPath id="clip-1273"><path d="M 512.2 215.4 L 838.4 215.4 L 838.4 253.9 L 512.2 253.9 Z M 512.2 215.4 "></path></clipPath><g clip-path="url(#clip-1273)"><text xml:space="preserve" font-family="Helvetica-Light" font-size="26.0" fill="#000000" transform="matrix(1.00, 0.00, -0.00, -1.00, 655.0, 225.0)">Y</text><text xml:space="preserve" font-family="Helvetica-Light" font-size="26.0" fill="#000000" transform="matrix(1.00, 0.00, -0.00, -1.00, 668.5, 225.0)">e</text><text xml:space="preserve" font-family="Helvetica-Light" font-size="26.0" fill="#000000" transform="matrix(1.00, 0.00, -0.00, -1.00, 683.0, 225.0)">s</text></g></g></g></g><g><clipPath id="clip-1274"><path d="M 185.0 600.0 L 838.4 600.0 L 838.4 61.6 L 185.0 61.6 Z M 185.0 600.0 "></path></clipPath><g clip-path="url(#clip-1274)"><g><clipPath id="clip-1275"><path d="M 185.0 176.9 L 511.2 176.9 L 511.2 215.4 L 185.0 215.4 Z M 185.0 176.9 "></path></clipPath><g clip-path="url(#clip-1275)"><text xml:space="preserve" font-family="Helvetica-Bold" font-weight="bold" font-size="26.0" fill="#FEFFFE" transform="matrix(1.00, 0.00, -0.00, -1.00, 255.0, 186.0)">R</text><text xml:space="preserve" font-family="Helvetica-Bold" font-weight="bold" font-size="26.0" fill="#FEFFFE" transform="matrix(1.00, 0.00, -0.00, -1.00, 273.8, 186.0)">e</text><text xml:space="preserve" font-family="Helvetica-Bold" font-weight="bold" font-size="26.0" fill="#FEFFFE" transform="matrix(1.00, 0.00, -0.00, -1.00, 288.2, 186.0)">m</text><text xml:space="preserve" font-family="Helvetica-Bold" font-weight="bold" font-size="26.0" fill="#FEFFFE" transform="matrix(1.00, 0.00, -0.00, -1.00, 311.4, 186.0)">e</text><text xml:space="preserve" font-family="Helvetica-Bold" font-weight="bold" font-size="26.0" fill="#FEFFFE" transform="matrix(1.00, 0.00, -0.00, -1.00, 325.8, 186.0)">m</text><text xml:space="preserve" font-family="Helvetica-Bold" font-weight="bold" font-size="26.0" fill="#FEFFFE" transform="matrix(1.00, 0.00, -0.00, -1.00, 349.0, 186.0)">b</text><text xml:space="preserve" font-family="Helvetica-Bold" font-weight="bold" font-size="26.0" fill="#FEFFFE" transform="matrix(1.00, 0.00, -0.00, -1.00, 364.8, 186.0)">e</text><text xml:space="preserve" font-family="Helvetica-Bold" font-weight="bold" font-size="26.0" fill="#FEFFFE" transform="matrix(1.00, 0.00, -0.00, -1.00, 379.3, 186.0)">r</text><text xml:space="preserve" font-family="Helvetica-Bold" font-weight="bold" font-size="26.0" fill="#FEFFFE" transform="matrix(1.00, 0.00, -0.00, -1.00, 389.4, 186.0)">a</text><text xml:space="preserve" font-family="Helvetica-Bold" font-weight="bold" font-size="26.0" fill="#FEFFFE" transform="matrix(1.00, 0.00, -0.00, -1.00, 403.9, 186.0)">b</text><text xml:space="preserve" font-family="Helvetica-Bold" font-weight="bold" font-size="26.0" fill="#FEFFFE" transform="matrix(1.00, 0.00, -0.00, -1.00, 419.8, 186.0)">l</text><text xml:space="preserve" font-family="Helvetica-Bold" font-weight="bold" font-size="26.0" fill="#FEFFFE" transform="matrix(1.00, 0.00, -0.00, -1.00, 427.0, 186.0)">e</text></g></g></g></g><g><clipPath id="clip-1276"><path d="M 185.0 600.0 L 838.4 600.0 L 838.4 61.6 L 185.0 61.6 Z M 185.0 600.0 "></path></clipPath><g clip-path="url(#clip-1276)"><g><clipPath id="clip-1277"><path d="M 512.2 176.9 L 838.4 176.9 L 838.4 215.4 L 512.2 215.4 Z M 512.2 176.9 "></path></clipPath><g clip-path="url(#clip-1277)"><text xml:space="preserve" font-family="Helvetica-Light" font-size="26.0" fill="#000000" transform="matrix(1.00, 0.00, -0.00, -1.00, 655.0, 186.0)">Y</text><text xml:space="preserve" font-family="Helvetica-Light" font-size="26.0" fill="#000000" transform="matrix(1.00, 0.00, -0.00, -1.00, 668.5, 186.0)">e</text><text xml:space="preserve" font-family="Helvetica-Light" font-size="26.0" fill="#000000" transform="matrix(1.00, 0.00, -0.00, -1.00, 683.0, 186.0)">s</text></g></g></g></g><g><clipPath id="clip-1278"><path d="M 185.0 600.0 L 838.4 600.0 L 838.4 61.6 L 185.0 61.6 Z M 185.0 600.0 "></path></clipPath><g clip-path="url(#clip-1278)"><g><clipPath id="clip-1279"><path d="M 185.0 138.5 L 511.2 138.5 L 511.2 176.9 L 185.0 176.9 Z M 185.0 138.5 "></path></clipPath><g clip-path="url(#clip-1279)"><text xml:space="preserve" font-family="Helvetica-Bold" font-weight="bold" font-size="26.0" fill="#FEFFFE" transform="matrix(1.00, 0.00, -0.00, -1.00, 287.0, 148.0)">I</text><text xml:space="preserve" font-family="Helvetica-Bold" font-weight="bold" font-size="26.0" fill="#FEFFFE" transform="matrix(1.00, 0.00, -0.00, -1.00, 294.2, 148.0)">n</text><text xml:space="preserve" font-family="Helvetica-Bold" font-weight="bold" font-size="26.0" fill="#FEFFFE" transform="matrix(1.00, 0.00, -0.00, -1.00, 310.1, 148.0)">t</text><text xml:space="preserve" font-family="Helvetica-Bold" font-weight="bold" font-size="26.0" fill="#FEFFFE" transform="matrix(1.00, 0.00, -0.00, -1.00, 318.8, 148.0)">e</text><text xml:space="preserve" font-family="Helvetica-Bold" font-weight="bold" font-size="26.0" fill="#FEFFFE" transform="matrix(1.00, 0.00, -0.00, -1.00, 333.2, 148.0)">r</text><text xml:space="preserve" font-family="Helvetica-Bold" font-weight="bold" font-size="26.0" fill="#FEFFFE" transform="matrix(1.00, 0.00, -0.00, -1.00, 343.3, 148.0)">f</text><text xml:space="preserve" font-family="Helvetica-Bold" font-weight="bold" font-size="26.0" fill="#FEFFFE" transform="matrix(1.00, 0.00, -0.00, -1.00, 352.0, 148.0)">a</text><text xml:space="preserve" font-family="Helvetica-Bold" font-weight="bold" font-size="26.0" fill="#FEFFFE" transform="matrix(1.00, 0.00, -0.00, -1.00, 366.5, 148.0)">c</text><text xml:space="preserve" font-family="Helvetica-Bold" font-weight="bold" font-size="26.0" fill="#FEFFFE" transform="matrix(1.00, 0.00, -0.00, -1.00, 380.9, 148.0)">e</text><text xml:space="preserve" font-family="Helvetica-Bold" font-weight="bold" font-size="26.0" fill="#FEFFFE" transform="matrix(1.00, 0.00, -0.00, -1.00, 395.4, 148.0)">s</text></g></g></g></g><g><clipPath id="clip-1280"><path d="M 185.0 600.0 L 838.4 600.0 L 838.4 61.6 L 185.0 61.6 Z M 185.0 600.0 "></path></clipPath><g clip-path="url(#clip-1280)"><g><clipPath id="clip-1281"><path d="M 512.2 138.5 L 838.4 138.5 L 838.4 176.9 L 512.2 176.9 Z M 512.2 138.5 "></path></clipPath><g clip-path="url(#clip-1281)"><text xml:space="preserve" font-family="Helvetica-Light" font-size="26.0" fill="#000000" transform="matrix(1.00, 0.00, -0.00, -1.00, 659.0, 148.0)">N</text><text xml:space="preserve" font-family="Helvetica-Light" font-size="26.0" fill="#000000" transform="matrix(1.00, 0.00, -0.00, -1.00, 677.8, 148.0)">o</text></g></g></g></g><g><clipPath id="clip-1282"><path d="M 185.0 600.0 L 838.4 600.0 L 838.4 61.6 L 185.0 61.6 Z M 185.0 600.0 "></path></clipPath><g clip-path="url(#clip-1282)"><g><clipPath id="clip-1283"><path d="M 185.0 100.0 L 511.2 100.0 L 511.2 138.5 L 185.0 138.5 Z M 185.0 100.0 "></path></clipPath><g clip-path="url(#clip-1283)"><text xml:space="preserve" font-family="Helvetica-Bold" font-weight="bold" font-size="26.0" fill="#FEFFFE" transform="matrix(1.00, 0.00, -0.00, -1.00, 272.0, 109.0)">C</text><text xml:space="preserve" font-family="Helvetica-Bold" font-weight="bold" font-size="26.0" fill="#FEFFFE" transform="matrix(1.00, 0.00, -0.00, -1.00, 290.8, 109.0)">o</text><text xml:space="preserve" font-family="Helvetica-Bold" font-weight="bold" font-size="26.0" fill="#FEFFFE" transform="matrix(1.00, 0.00, -0.00, -1.00, 306.7, 109.0)">o</text><text xml:space="preserve" font-family="Helvetica-Bold" font-weight="bold" font-size="26.0" fill="#FEFFFE" transform="matrix(1.00, 0.00, -0.00, -1.00, 322.5, 109.0)">r</text><text xml:space="preserve" font-family="Helvetica-Bold" font-weight="bold" font-size="26.0" fill="#FEFFFE" transform="matrix(1.00, 0.00, -0.00, -1.00, 332.7, 109.0)">d</text><text xml:space="preserve" font-family="Helvetica-Bold" font-weight="bold" font-size="26.0" fill="#FEFFFE" transform="matrix(1.00, 0.00, -0.00, -1.00, 348.5, 109.0)">i</text><text xml:space="preserve" font-family="Helvetica-Bold" font-weight="bold" font-size="26.0" fill="#FEFFFE" transform="matrix(1.00, 0.00, -0.00, -1.00, 355.8, 109.0)">n</text><text xml:space="preserve" font-family="Helvetica-Bold" font-weight="bold" font-size="26.0" fill="#FEFFFE" transform="matrix(1.00, 0.00, -0.00, -1.00, 371.6, 109.0)">a</text><text xml:space="preserve" font-family="Helvetica-Bold" font-weight="bold" font-size="26.0" fill="#FEFFFE" transform="matrix(1.00, 0.00, -0.00, -1.00, 386.1, 109.0)">t</text><text xml:space="preserve" font-family="Helvetica-Bold" font-weight="bold" font-size="26.0" fill="#FEFFFE" transform="matrix(1.00, 0.00, -0.00, -1.00, 394.8, 109.0)">e</text><text xml:space="preserve" font-family="Helvetica-Bold" font-weight="bold" font-size="26.0" fill="#FEFFFE" transform="matrix(1.00, 0.00, -0.00, -1.00, 409.2, 109.0)">d</text></g></g></g></g><g><clipPath id="clip-1284"><path d="M 185.0 600.0 L 838.4 600.0 L 838.4 61.6 L 185.0 61.6 Z M 185.0 600.0 "></path></clipPath><g clip-path="url(#clip-1284)"><g><clipPath id="clip-1285"><path d="M 512.2 100.0 L 838.4 100.0 L 838.4 138.5 L 512.2 138.5 Z M 512.2 100.0 "></path></clipPath><g clip-path="url(#clip-1285)"><text xml:space="preserve" font-family="Helvetica-Light" font-size="26.0" fill="#000000" transform="matrix(1.00, 0.00, -0.00, -1.00, 655.0, 109.0)">Y</text><text xml:space="preserve" font-family="Helvetica-Light" font-size="26.0" fill="#000000" transform="matrix(1.00, 0.00, -0.00, -1.00, 668.5, 109.0)">e</text><text xml:space="preserve" font-family="Helvetica-Light" font-size="26.0" fill="#000000" transform="matrix(1.00, 0.00, -0.00, -1.00, 683.0, 109.0)">s</text></g></g></g></g><g><clipPath id="clip-1286"><path d="M 185.0 600.0 L 838.4 600.0 L 838.4 61.6 L 185.0 61.6 Z M 185.0 600.0 "></path></clipPath><g clip-path="url(#clip-1286)"><g><clipPath id="clip-1287"><path d="M 185.0 61.6 L 511.2 61.6 L 511.2 100.0 L 185.0 100.0 Z M 185.0 61.6 "></path></clipPath><g clip-path="url(#clip-1287)"><text xml:space="preserve" font-family="Helvetica-Bold" font-weight="bold" font-size="26.0" fill="#FEFFFE" transform="matrix(1.00, 0.00, -0.00, -1.00, 296.0, 71.0)">M</text><text xml:space="preserve" font-family="Helvetica-Bold" font-weight="bold" font-size="26.0" fill="#FEFFFE" transform="matrix(1.00, 0.00, -0.00, -1.00, 317.7, 71.0)">o</text><text xml:space="preserve" font-family="Helvetica-Bold" font-weight="bold" font-size="26.0" fill="#FEFFFE" transform="matrix(1.00, 0.00, -0.00, -1.00, 333.5, 71.0)">v</text><text xml:space="preserve" font-family="Helvetica-Bold" font-weight="bold" font-size="26.0" fill="#FEFFFE" transform="matrix(1.00, 0.00, -0.00, -1.00, 348.0, 71.0)">a</text><text xml:space="preserve" font-family="Helvetica-Bold" font-weight="bold" font-size="26.0" fill="#FEFFFE" transform="matrix(1.00, 0.00, -0.00, -1.00, 362.5, 71.0)">b</text><text xml:space="preserve" font-family="Helvetica-Bold" font-weight="bold" font-size="26.0" fill="#FEFFFE" transform="matrix(1.00, 0.00, -0.00, -1.00, 378.3, 71.0)">l</text><text xml:space="preserve" font-family="Helvetica-Bold" font-weight="bold" font-size="26.0" fill="#FEFFFE" transform="matrix(1.00, 0.00, -0.00, -1.00, 385.6, 71.0)">e</text></g></g></g></g><g><clipPath id="clip-1288"><path d="M 185.0 600.0 L 838.4 600.0 L 838.4 61.6 L 185.0 61.6 Z M 185.0 600.0 "></path></clipPath><g clip-path="url(#clip-1288)"><g><clipPath id="clip-1289"><path d="M 512.2 61.6 L 838.4 61.6 L 838.4 100.0 L 512.2 100.0 Z M 512.2 61.6 "></path></clipPath><g clip-path="url(#clip-1289)"><text xml:space="preserve" font-family="Helvetica-Light" font-size="26.0" fill="#000000" transform="matrix(1.00, 0.00, -0.00, -1.00, 659.0, 71.0)">N</text><text xml:space="preserve" font-family="Helvetica-Light" font-size="26.0" fill="#000000" transform="matrix(1.00, 0.00, -0.00, -1.00, 677.8, 71.0)">o</text></g></g></g></g></g></svg>