<?xml version="1.0" encoding="UTF-8" standalone="no"?><svg xmlns="http://www.w3.org/2000/svg" xmlns:xlink="http://www.w3.org/1999/xlink" clip-rule="evenodd" stroke-miterlimit="4.00" viewBox="0 0 380 73"><desc>SVG generated by Keynote</desc><defs></defs><g transform="matrix(1.00, 0.00, -0.00, -1.00, 0.0, 73.0)"><g><clipPath id="clip-264"><path d="M 0.0 44.3 L 20.1 44.3 L 20.1 63.0 L 0.0 63.0 Z M 0.0 44.3 "></path></clipPath><g clip-path="url(#clip-264)"><path d="M 19.8 51.0 C 20.0 50.7 20.1 50.4 20.1 50.1 C 20.1 49.5 19.8 49.0 19.1 48.5 C 18.4 47.9 17.7 47.7 16.9 47.7 C 15.8 47.7 14.5 48.5 13.0 50.1 C 13.0 50.1 13.0 47.7 13.0 47.7 C 13.0 47.5 13.1 47.2 13.2 46.8 C 13.4 46.5 13.4 46.3 13.4 46.1 C 13.4 45.6 13.2 45.2 12.7 44.8 C 12.1 44.4 11.6 44.3 11.1 44.3 C 10.2 44.3 9.4 44.7 8.8 45.4 C 8.6 45.7 8.5 46.3 8.6 47.4 C 8.6 48.5 8.7 49.6 8.8 50.7 C 8.2 50.3 7.1 49.7 5.6 48.9 C 5.4 48.5 4.7 48.2 3.7 47.9 C 2.9 47.8 2.1 47.9 1.2 48.3 C 0.4 48.7 0.0 49.2 0.0 49.8 C 0.0 50.0 0.0 50.1 0.1 50.3 C 0.3 50.6 0.6 50.9 1.1 51.1 C 2.0 51.3 2.4 51.5 2.5 51.5 C 2.5 51.5 6.9 53.9 6.9 53.9 C 6.9 53.9 3.8 55.5 3.8 55.5 C 3.3 55.5 2.7 55.7 2.0 56.1 C 1.8 56.4 1.7 56.6 1.7 56.9 C 1.7 57.6 2.2 58.4 3.0 59.1 C 3.9 59.8 4.8 60.1 5.7 60.1 C 6.0 60.1 6.3 60.1 6.6 60.0 C 6.9 59.9 7.2 59.6 7.4 59.2 C 7.7 58.6 8.1 58.2 8.8 57.8 C 8.8 57.8 8.9 60.6 8.9 60.6 C 8.8 61.0 8.8 61.6 8.9 62.3 C 9.2 62.8 10.0 63.0 11.3 63.0 C 12.4 63.0 13.2 62.7 13.6 62.0 C 13.8 61.8 13.8 61.1 13.7 60.1 C 13.6 59.2 13.5 58.3 13.4 57.4 C 13.4 57.4 15.0 58.2 15.0 58.2 C 15.3 58.5 16.0 58.9 16.9 59.3 C 17.5 59.4 18.1 59.1 18.7 58.6 C 19.3 58.0 19.6 57.5 19.6 56.8 C 19.6 56.6 19.6 56.3 19.4 56.1 C 19.3 55.8 19.0 55.7 18.6 55.6 C 18.1 55.5 17.7 55.4 17.6 55.2 C 17.6 55.2 15.1 53.5 15.1 53.5 C 15.1 53.5 18.3 51.8 18.3 51.8 C 18.7 51.7 19.2 51.4 19.8 51.0 Z M 19.8 51.0 " fill="#3995D6"></path></g></g><text xml:space="preserve" font-family="MarkerFelt-Thin" font-size="34.6" fill="#858585" transform="matrix(1.00, 0.00, -0.00, -1.00, 34.0, 42.0)">A</text><text xml:space="preserve" font-family="MarkerFelt-Thin" font-size="34.6" fill="#858585" transform="matrix(1.00, 0.00, -0.00, -1.00, 56.2, 42.0)">d</text><text xml:space="preserve" font-family="MarkerFelt-Thin" font-size="34.6" fill="#858585" transform="matrix(1.00, 0.00, -0.00, -1.00, 71.0, 42.0)">d</text><text xml:space="preserve" font-family="MarkerFelt-Thin" font-size="34.6" fill="#858585" transform="matrix(1.00, 0.00, -0.00, -1.00, 85.9, 42.0)"> </text><text xml:space="preserve" font-family="MarkerFelt-Thin" font-size="34.6" fill="#858585" transform="matrix(1.00, 0.00, -0.00, -1.00, 94.5, 42.0)">c</text><text xml:space="preserve" font-family="MarkerFelt-Thin" font-size="34.6" fill="#858585" transform="matrix(1.00, 0.00, -0.00, -1.00, 109.0, 42.0)">l</text><text xml:space="preserve" font-family="MarkerFelt-Thin" font-size="34.6" fill="#858585" transform="matrix(1.00, 0.00, -0.00, -1.00, 117.5, 42.0)">a</text><text xml:space="preserve" font-family="MarkerFelt-Thin" font-size="34.6" fill="#858585" transform="matrix(1.00, 0.00, -0.00, -1.00, 134.6, 42.0)">s</text><text xml:space="preserve" font-family="MarkerFelt-Thin" font-size="34.6" fill="#858585" transform="matrix(1.00, 0.00, -0.00, -1.00, 149.2, 42.0)">s</text><text xml:space="preserve" font-family="MarkerFelt-Thin" font-size="34.6" fill="#858585" transform="matrix(1.00, 0.00, -0.00, -1.00, 163.2, 42.0)">e</text><text xml:space="preserve" font-family="MarkerFelt-Thin" font-size="34.6" fill="#858585" transform="matrix(1.00, 0.00, -0.00, -1.00, 178.9, 42.0)">s</text><text xml:space="preserve" font-family="MarkerFelt-Thin" font-size="34.6" fill="#858585" transform="matrix(1.00, 0.00, -0.00, -1.00, 193.3, 42.0)">/</text><text xml:space="preserve" font-family="MarkerFelt-Thin" font-size="34.6" fill="#858585" transform="matrix(1.00, 0.00, -0.00, -1.00, 208.0, 42.0)">m</text><text xml:space="preserve" font-family="MarkerFelt-Thin" font-size="34.6" fill="#858585" transform="matrix(1.00, 0.00, -0.00, -1.00, 232.9, 42.0)">e</text><text xml:space="preserve" font-family="MarkerFelt-Thin" font-size="34.6" fill="#858585" transform="matrix(1.00, 0.00, -0.00, -1.00, 248.9, 42.0)">t</text><text xml:space="preserve" font-family="MarkerFelt-Thin" font-size="34.6" fill="#858585" transform="matrix(1.00, 0.00, -0.00, -1.00, 263.2, 42.0)">h</text><text xml:space="preserve" font-family="MarkerFelt-Thin" font-size="34.6" fill="#858585" transform="matrix(1.00, 0.00, -0.00, -1.00, 281.4, 42.0)">o</text><text xml:space="preserve" font-family="MarkerFelt-Thin" font-size="34.6" fill="#858585" transform="matrix(1.00, 0.00, -0.00, -1.00, 297.4, 42.0)">d</text><text xml:space="preserve" font-family="MarkerFelt-Thin" font-size="34.6" fill="#858585" transform="matrix(1.00, 0.00, -0.00, -1.00, 313.3, 42.0)">s</text><text xml:space="preserve" font-family="MarkerFelt-Thin" font-size="34.6" fill="#858585" transform="matrix(1.00, 0.00, -0.00, -1.00, 326.1, 42.0)"> </text><text xml:space="preserve" font-family="MarkerFelt-Thin" font-size="34.6" fill="#858585" transform="matrix(1.00, 0.00, -0.00, -1.00, 334.8, 42.0)">f</text><text xml:space="preserve" font-family="MarkerFelt-Thin" font-size="34.6" fill="#858585" transform="matrix(1.00, 0.00, -0.00, -1.00, 349.0, 42.0)">o</text><text xml:space="preserve" font-family="MarkerFelt-Thin" font-size="34.6" fill="#858585" transform="matrix(1.00, 0.00, -0.00, -1.00, 364.5, 42.0)">r</text><text xml:space="preserve" font-family="MarkerFelt-Thin" font-size="34.6" fill="#858585" transform="matrix(1.00, 0.00, -0.00, -1.00, 377.6, 42.0)"> </text><text xml:space="preserve" font-family="MarkerFelt-Thin" font-size="34.6" fill="#858585" transform="matrix(1.00, 0.00, -0.00, -1.00, 34.0, 4.0)">R</text><text xml:space="preserve" font-family="MarkerFelt-Thin" font-size="34.6" fill="#858585" transform="matrix(1.00, 0.00, -0.00, -1.00, 55.4, 4.0)">E</text><text xml:space="preserve" font-family="MarkerFelt-Thin" font-size="34.6" fill="#858585" transform="matrix(1.00, 0.00, -0.00, -1.00, 70.2, 4.0)">S</text><text xml:space="preserve" font-family="MarkerFelt-Thin" font-size="34.6" fill="#858585" transform="matrix(1.00, 0.00, -0.00, -1.00, 87.2, 4.0)">T</text><text xml:space="preserve" font-family="MarkerFelt-Thin" font-size="34.6" fill="#858585" transform="matrix(1.00, 0.00, -0.00, -1.00, 103.7, 4.0)"> </text><text xml:space="preserve" font-family="MarkerFelt-Thin" font-size="34.6" fill="#858585" transform="matrix(1.00, 0.00, -0.00, -1.00, 112.4, 4.0)">i</text><text xml:space="preserve" font-family="MarkerFelt-Thin" font-size="34.6" fill="#858585" transform="matrix(1.00, 0.00, -0.00, -1.00, 121.0, 4.0)">n</text><text xml:space="preserve" font-family="MarkerFelt-Thin" font-size="34.6" fill="#858585" transform="matrix(1.00, 0.00, -0.00, -1.00, 139.9, 4.0)">t</text><text xml:space="preserve" font-family="MarkerFelt-Thin" font-size="34.6" fill="#858585" transform="matrix(1.00, 0.00, -0.00, -1.00, 153.1, 4.0)">e</text><text xml:space="preserve" font-family="MarkerFelt-Thin" font-size="34.6" fill="#858585" transform="matrix(1.00, 0.00, -0.00, -1.00, 168.3, 4.0)">r</text><text xml:space="preserve" font-family="MarkerFelt-Thin" font-size="34.6" fill="#858585" transform="matrix(1.00, 0.00, -0.00, -1.00, 182.4, 4.0)">a</text><text xml:space="preserve" font-family="MarkerFelt-Thin" font-size="34.6" fill="#858585" transform="matrix(1.00, 0.00, -0.00, -1.00, 199.2, 4.0)">c</text><text xml:space="preserve" font-family="MarkerFelt-Thin" font-size="34.6" fill="#858585" transform="matrix(1.00, 0.00, -0.00, -1.00, 214.3, 4.0)">t</text><text xml:space="preserve" font-family="MarkerFelt-Thin" font-size="34.6" fill="#858585" transform="matrix(1.00, 0.00, -0.00, -1.00, 229.1, 4.0)">i</text><text xml:space="preserve" font-family="MarkerFelt-Thin" font-size="34.6" fill="#858585" transform="matrix(1.00, 0.00, -0.00, -1.00, 237.1, 4.0)">o</text><text xml:space="preserve" font-family="MarkerFelt-Thin" font-size="34.6" fill="#858585" transform="matrix(1.00, 0.00, -0.00, -1.00, 252.8, 4.0)">n</text><text xml:space="preserve" font-family="MarkerFelt-Thin" font-size="34.6" fill="#858585" transform="matrix(1.00, 0.00, -0.00, -1.00, 271.1, 4.0)">s</text></g></svg>