<?xml version="1.0" encoding="UTF-8" standalone="no"?><svg xmlns="http://www.w3.org/2000/svg" xmlns:xlink="http://www.w3.org/1999/xlink" clip-rule="evenodd" stroke-miterlimit="4.00" viewBox="0 0 238 39"><desc>SVG generated by Keynote</desc><defs></defs><g transform="matrix(1.00, 0.00, -0.00, -1.00, 0.0, 39.0)"><g><clipPath id="clip-260"><path d="M 0.0 11.2 L 20.1 11.2 L 20.1 30.0 L 0.0 30.0 Z M 0.0 11.2 "></path></clipPath><g clip-path="url(#clip-260)"><path d="M 19.8 17.9 C 20.0 17.6 20.1 17.3 20.1 17.0 C 20.1 16.4 19.8 15.9 19.1 15.4 C 18.4 14.9 17.7 14.6 16.9 14.6 C 15.8 14.6 14.5 15.4 13.0 17.0 C 13.0 17.0 13.0 14.6 13.0 14.6 C 13.0 14.4 13.1 14.1 13.2 13.8 C 13.4 13.4 13.4 13.2 13.4 13.0 C 13.4 12.5 13.2 12.1 12.7 11.7 C 12.1 11.4 11.6 11.2 11.1 11.2 C 10.2 11.2 9.4 11.6 8.8 12.4 C 8.6 12.6 8.5 13.3 8.6 14.3 C 8.6 15.4 8.7 16.5 8.8 17.6 C 8.2 17.2 7.1 16.6 5.6 15.8 C 5.4 15.5 4.7 15.1 3.7 14.8 C 2.9 14.7 2.1 14.8 1.2 15.2 C 0.4 15.6 0.0 16.1 0.0 16.7 C 0.0 16.9 0.0 17.0 0.1 17.2 C 0.3 17.6 0.6 17.8 1.1 18.0 C 2.0 18.2 2.4 18.4 2.5 18.4 C 2.5 18.4 6.9 20.9 6.9 20.9 C 6.9 20.9 3.8 22.4 3.8 22.4 C 3.3 22.4 2.7 22.6 2.0 23.0 C 1.8 23.3 1.7 23.5 1.7 23.8 C 1.7 24.6 2.2 25.3 3.0 26.0 C 3.9 26.7 4.8 27.1 5.7 27.1 C 6.0 27.1 6.3 27.0 6.6 26.9 C 6.9 26.8 7.2 26.6 7.4 26.1 C 7.7 25.6 8.1 25.1 8.8 24.7 C 8.8 24.7 8.9 27.5 8.9 27.5 C 8.8 27.9 8.8 28.5 8.9 29.2 C 9.2 29.7 10.0 30.0 11.3 30.0 C 12.4 30.0 13.2 29.6 13.6 28.9 C 13.8 28.7 13.8 28.0 13.7 27.0 C 13.6 26.1 13.5 25.2 13.4 24.3 C 13.4 24.3 15.0 25.1 15.0 25.1 C 15.3 25.5 16.0 25.8 16.9 26.2 C 17.5 26.3 18.1 26.0 18.7 25.5 C 19.3 25.0 19.6 24.4 19.6 23.8 C 19.6 23.5 19.6 23.2 19.4 23.0 C 19.3 22.8 19.0 22.6 18.6 22.5 C 18.1 22.4 17.7 22.3 17.6 22.2 C 17.6 22.2 15.1 20.5 15.1 20.5 C 15.1 20.5 18.3 18.7 18.3 18.7 C 18.7 18.6 19.2 18.3 19.8 17.9 Z M 19.8 17.9 " fill="#3995D6"></path></g></g><text xml:space="preserve" font-family="MarkerFelt-Thin" font-size="34.6" fill="#FF2600" transform="matrix(1.00, 0.00, -0.00, -1.00, 34.0, 9.0)">D</text><text xml:space="preserve" font-family="MarkerFelt-Thin" font-size="34.6" fill="#FF2600" transform="matrix(1.00, 0.00, -0.00, -1.00, 50.1, 9.0)">e</text><text xml:space="preserve" font-family="MarkerFelt-Thin" font-size="34.6" fill="#FF2600" transform="matrix(1.00, 0.00, -0.00, -1.00, 65.4, 9.0)">c</text><text xml:space="preserve" font-family="MarkerFelt-Thin" font-size="34.6" fill="#FF2600" transform="matrix(1.00, 0.00, -0.00, -1.00, 80.2, 9.0)">o</text><text xml:space="preserve" font-family="MarkerFelt-Thin" font-size="34.6" fill="#FF2600" transform="matrix(1.00, 0.00, -0.00, -1.00, 96.1, 9.0)">u</text><text xml:space="preserve" font-family="MarkerFelt-Thin" font-size="34.6" fill="#FF2600" transform="matrix(1.00, 0.00, -0.00, -1.00, 111.5, 9.0)">p</text><text xml:space="preserve" font-family="MarkerFelt-Thin" font-size="34.6" fill="#FF2600" transform="matrix(1.00, 0.00, -0.00, -1.00, 127.6, 9.0)">l</text><text xml:space="preserve" font-family="MarkerFelt-Thin" font-size="34.6" fill="#FF2600" transform="matrix(1.00, 0.00, -0.00, -1.00, 135.4, 9.0)">e</text><text xml:space="preserve" font-family="MarkerFelt-Thin" font-size="34.6" fill="#FF2600" transform="matrix(1.00, 0.00, -0.00, -1.00, 148.6, 9.0)"> </text><text xml:space="preserve" font-family="MarkerFelt-Thin" font-size="34.6" fill="#FF2600" transform="matrix(1.00, 0.00, -0.00, -1.00, 157.2, 9.0)">b</text><text xml:space="preserve" font-family="MarkerFelt-Thin" font-size="34.6" fill="#FF2600" transform="matrix(1.00, 0.00, -0.00, -1.00, 173.3, 9.0)">e</text><text xml:space="preserve" font-family="MarkerFelt-Thin" font-size="34.6" fill="#FF2600" transform="matrix(1.00, 0.00, -0.00, -1.00, 189.4, 9.0)">a</text><text xml:space="preserve" font-family="MarkerFelt-Thin" font-size="34.6" fill="#FF2600" transform="matrix(1.00, 0.00, -0.00, -1.00, 206.6, 9.0)">n</text><text xml:space="preserve" font-family="MarkerFelt-Thin" font-size="34.6" fill="#FF2600" transform="matrix(1.00, 0.00, -0.00, -1.00, 224.9, 9.0)">s</text></g></svg>