<?xml version="1.0" encoding="UTF-8" standalone="no"?><svg xmlns="http://www.w3.org/2000/svg" xmlns:xlink="http://www.w3.org/1999/xlink" clip-rule="evenodd" stroke-miterlimit="4.00" viewBox="0 0 397 77"><desc>SVG generated by Keynote</desc><defs></defs><g transform="matrix(1.00, 0.00, -0.00, -1.00, 0.0, 77.0)"><g><clipPath id="clip-263"><path d="M 0.0 48.7 L 20.1 48.7 L 20.1 67.5 L 0.0 67.5 Z M 0.0 48.7 "></path></clipPath><g clip-path="url(#clip-263)"><path d="M 19.8 55.5 C 20.0 55.2 20.1 54.9 20.1 54.6 C 20.1 54.0 19.8 53.4 19.1 52.9 C 18.4 52.4 17.7 52.2 16.9 52.2 C 15.8 52.2 14.5 53.0 13.0 54.6 C 13.0 54.6 13.0 52.2 13.0 52.2 C 13.0 51.9 13.1 51.6 13.2 51.3 C 13.4 51.0 13.4 50.7 13.4 50.6 C 13.4 50.1 13.2 49.6 12.7 49.3 C 12.1 48.9 11.6 48.7 11.1 48.7 C 10.2 48.7 9.4 49.1 8.8 49.9 C 8.6 50.2 8.5 50.8 8.6 51.9 C 8.6 53.0 8.7 54.1 8.8 55.2 C 8.2 54.8 7.1 54.2 5.6 53.3 C 5.4 53.0 4.7 52.7 3.7 52.3 C 2.9 52.3 2.1 52.4 1.2 52.8 C 0.4 53.2 0.0 53.7 0.0 54.3 C 0.0 54.4 0.0 54.6 0.1 54.8 C 0.3 55.1 0.6 55.4 1.1 55.5 C 2.0 55.8 2.4 56.0 2.5 56.0 C 2.5 56.0 6.9 58.4 6.9 58.4 C 6.9 58.4 3.8 60.0 3.8 60.0 C 3.3 60.0 2.7 60.2 2.0 60.6 C 1.8 60.8 1.7 61.1 1.7 61.4 C 1.7 62.1 2.2 62.9 3.0 63.6 C 3.9 64.3 4.8 64.6 5.7 64.6 C 6.0 64.6 6.3 64.6 6.6 64.5 C 6.9 64.4 7.2 64.1 7.4 63.7 C 7.7 63.1 8.1 62.7 8.8 62.3 C 8.8 62.3 8.9 65.1 8.9 65.1 C 8.8 65.5 8.8 66.1 8.9 66.8 C 9.2 67.3 10.0 67.5 11.3 67.5 C 12.4 67.5 13.2 67.2 13.6 66.5 C 13.8 66.2 13.8 65.6 13.7 64.6 C 13.6 63.7 13.5 62.8 13.4 61.8 C 13.4 61.8 15.0 62.7 15.0 62.7 C 15.3 63.0 16.0 63.4 16.9 63.8 C 17.5 63.8 18.1 63.6 18.7 63.1 C 19.3 62.5 19.6 61.9 19.6 61.3 C 19.6 61.0 19.6 60.8 19.4 60.5 C 19.3 60.3 19.0 60.2 18.6 60.1 C 18.1 60.0 17.7 59.8 17.6 59.7 C 17.6 59.7 15.1 58.0 15.1 58.0 C 15.1 58.0 18.3 56.3 18.3 56.3 C 18.7 56.2 19.2 55.9 19.8 55.5 Z M 19.8 55.5 " fill="#3995D6"></path></g></g><text xml:space="preserve" font-family="MarkerFelt-Thin" font-size="34.6" fill="#858585" transform="matrix(1.00, 0.00, -0.00, -1.00, 34.0, 47.0)">I</text><text xml:space="preserve" font-family="MarkerFelt-Thin" font-size="34.6" fill="#858585" transform="matrix(1.00, 0.00, -0.00, -1.00, 42.3, 47.0)">m</text><text xml:space="preserve" font-family="MarkerFelt-Thin" font-size="34.6" fill="#858585" transform="matrix(1.00, 0.00, -0.00, -1.00, 68.4, 47.0)">p</text><text xml:space="preserve" font-family="MarkerFelt-Thin" font-size="34.6" fill="#858585" transform="matrix(1.00, 0.00, -0.00, -1.00, 84.5, 47.0)">l</text><text xml:space="preserve" font-family="MarkerFelt-Thin" font-size="34.6" fill="#858585" transform="matrix(1.00, 0.00, -0.00, -1.00, 92.3, 47.0)">e</text><text xml:space="preserve" font-family="MarkerFelt-Thin" font-size="34.6" fill="#858585" transform="matrix(1.00, 0.00, -0.00, -1.00, 106.8, 47.0)">m</text><text xml:space="preserve" font-family="MarkerFelt-Thin" font-size="34.6" fill="#858585" transform="matrix(1.00, 0.00, -0.00, -1.00, 131.7, 47.0)">e</text><text xml:space="preserve" font-family="MarkerFelt-Thin" font-size="34.6" fill="#858585" transform="matrix(1.00, 0.00, -0.00, -1.00, 147.0, 47.0)">n</text><text xml:space="preserve" font-family="MarkerFelt-Thin" font-size="34.6" fill="#858585" transform="matrix(1.00, 0.00, -0.00, -1.00, 166.0, 47.0)">t</text><text xml:space="preserve" font-family="MarkerFelt-Thin" font-size="34.6" fill="#858585" transform="matrix(1.00, 0.00, -0.00, -1.00, 178.4, 47.0)"> </text><text xml:space="preserve" font-family="MarkerFelt-Thin" font-size="34.6" fill="#858585" transform="matrix(1.00, 0.00, -0.00, -1.00, 187.0, 47.0)">R</text><text xml:space="preserve" font-family="MarkerFelt-Thin" font-size="34.6" fill="#858585" transform="matrix(1.00, 0.00, -0.00, -1.00, 208.4, 47.0)">E</text><text xml:space="preserve" font-family="MarkerFelt-Thin" font-size="34.6" fill="#858585" transform="matrix(1.00, 0.00, -0.00, -1.00, 223.3, 47.0)">S</text><text xml:space="preserve" font-family="MarkerFelt-Thin" font-size="34.6" fill="#858585" transform="matrix(1.00, 0.00, -0.00, -1.00, 240.2, 47.0)">T</text><text xml:space="preserve" font-family="MarkerFelt-Thin" font-size="34.6" fill="#858585" transform="matrix(1.00, 0.00, -0.00, -1.00, 256.8, 47.0)"> </text><text xml:space="preserve" font-family="MarkerFelt-Thin" font-size="34.6" fill="#858585" transform="matrix(1.00, 0.00, -0.00, -1.00, 265.4, 47.0)">i</text><text xml:space="preserve" font-family="MarkerFelt-Thin" font-size="34.6" fill="#858585" transform="matrix(1.00, 0.00, -0.00, -1.00, 274.0, 47.0)">n</text><text xml:space="preserve" font-family="MarkerFelt-Thin" font-size="34.6" fill="#858585" transform="matrix(1.00, 0.00, -0.00, -1.00, 292.9, 47.0)">t</text><text xml:space="preserve" font-family="MarkerFelt-Thin" font-size="34.6" fill="#858585" transform="matrix(1.00, 0.00, -0.00, -1.00, 306.1, 47.0)">e</text><text xml:space="preserve" font-family="MarkerFelt-Thin" font-size="34.6" fill="#858585" transform="matrix(1.00, 0.00, -0.00, -1.00, 321.3, 47.0)">r</text><text xml:space="preserve" font-family="MarkerFelt-Thin" font-size="34.6" fill="#858585" transform="matrix(1.00, 0.00, -0.00, -1.00, 336.0, 47.0)">f</text><text xml:space="preserve" font-family="MarkerFelt-Thin" font-size="34.6" fill="#858585" transform="matrix(1.00, 0.00, -0.00, -1.00, 350.6, 47.0)">a</text><text xml:space="preserve" font-family="MarkerFelt-Thin" font-size="34.6" fill="#858585" transform="matrix(1.00, 0.00, -0.00, -1.00, 367.4, 47.0)">c</text><text xml:space="preserve" font-family="MarkerFelt-Thin" font-size="34.6" fill="#858585" transform="matrix(1.00, 0.00, -0.00, -1.00, 381.8, 47.0)">e</text><text xml:space="preserve" font-family="MarkerFelt-Thin" font-size="34.6" fill="#858585" transform="matrix(1.00, 0.00, -0.00, -1.00, 394.9, 47.0)"> </text><text xml:space="preserve" font-family="MarkerFelt-Thin" font-size="34.6" fill="#858585" transform="matrix(1.00, 0.00, -0.00, -1.00, 34.0, 9.0)">(</text><text xml:space="preserve" font-family="MarkerFelt-Thin" font-size="34.6" fill="#858585" transform="matrix(1.00, 0.00, -0.00, -1.00, 42.2, 9.0)">J</text><text xml:space="preserve" font-family="MarkerFelt-Thin" font-size="34.6" fill="#858585" transform="matrix(1.00, 0.00, -0.00, -1.00, 57.1, 9.0)">e</text><text xml:space="preserve" font-family="MarkerFelt-Thin" font-size="34.6" fill="#858585" transform="matrix(1.00, 0.00, -0.00, -1.00, 72.3, 9.0)">r</text><text xml:space="preserve" font-family="MarkerFelt-Thin" font-size="34.6" fill="#858585" transform="matrix(1.00, 0.00, -0.00, -1.00, 85.4, 9.0)">s</text><text xml:space="preserve" font-family="MarkerFelt-Thin" font-size="34.6" fill="#858585" transform="matrix(1.00, 0.00, -0.00, -1.00, 99.4, 9.0)">e</text><text xml:space="preserve" font-family="MarkerFelt-Thin" font-size="34.6" fill="#858585" transform="matrix(1.00, 0.00, -0.00, -1.00, 114.5, 9.0)">y</text><text xml:space="preserve" font-family="MarkerFelt-Thin" font-size="34.6" fill="#858585" transform="matrix(1.00, 0.00, -0.00, -1.00, 130.0, 9.0)">)</text></g></svg>