<?xml version="1.0" encoding="UTF-8" standalone="no"?><svg xmlns="http://www.w3.org/2000/svg" xmlns:xlink="http://www.w3.org/1999/xlink" clip-rule="evenodd" stroke-miterlimit="4.00" viewBox="0 0 374 74"><desc>SVG generated by Keynote</desc><defs></defs><g transform="matrix(1.00, 0.00, -0.00, -1.00, 0.0, 74.0)"><g><clipPath id="clip-266"><path d="M 0.0 44.6 L 21.0 44.6 L 21.0 64.1 L 0.0 64.1 Z M 0.0 44.6 "></path></clipPath><g clip-path="url(#clip-266)"><path d="M 20.7 51.6 C 20.9 51.3 21.0 51.0 21.0 50.7 C 21.0 50.0 20.6 49.5 19.9 48.9 C 19.2 48.4 18.4 48.1 17.6 48.1 C 16.4 48.1 15.1 49.0 13.6 50.7 C 13.6 50.7 13.6 48.1 13.6 48.1 C 13.6 47.9 13.6 47.6 13.8 47.3 C 13.9 46.9 14.0 46.6 14.0 46.5 C 14.0 46.0 13.7 45.5 13.2 45.1 C 12.7 44.8 12.1 44.6 11.6 44.6 C 10.6 44.6 9.8 45.0 9.1 45.8 C 8.9 46.1 8.9 46.7 8.9 47.8 C 9.0 49.0 9.0 50.1 9.1 51.3 C 8.5 50.9 7.4 50.2 5.8 49.4 C 5.6 49.0 4.9 48.7 3.8 48.3 C 3.0 48.2 2.2 48.4 1.3 48.8 C 0.4 49.2 0.0 49.7 0.0 50.4 C 0.0 50.5 0.0 50.7 0.1 50.8 C 0.3 51.2 0.6 51.5 1.2 51.6 C 2.0 51.9 2.5 52.1 2.6 52.1 C 2.6 52.1 7.2 54.7 7.2 54.7 C 7.2 54.7 3.9 56.3 3.9 56.3 C 3.5 56.3 2.8 56.5 2.0 56.9 C 1.9 57.2 1.8 57.4 1.8 57.7 C 1.8 58.5 2.2 59.3 3.2 60.0 C 4.1 60.8 5.0 61.1 6.0 61.1 C 6.3 61.1 6.6 61.1 6.9 61.0 C 7.2 60.9 7.5 60.6 7.7 60.1 C 8.0 59.6 8.5 59.1 9.1 58.7 C 9.1 58.7 9.2 61.6 9.2 61.6 C 9.1 62.0 9.1 62.6 9.2 63.4 C 9.6 63.9 10.5 64.1 11.8 64.1 C 13.0 64.1 13.8 63.8 14.2 63.1 C 14.3 62.8 14.4 62.1 14.2 61.1 C 14.2 60.1 14.1 59.2 13.9 58.2 C 13.9 58.2 15.7 59.1 15.7 59.1 C 16.0 59.5 16.6 59.8 17.6 60.3 C 18.2 60.3 18.9 60.0 19.5 59.5 C 20.1 58.9 20.5 58.3 20.5 57.7 C 20.5 57.4 20.4 57.1 20.2 56.9 C 20.1 56.6 19.8 56.5 19.4 56.4 C 18.8 56.3 18.5 56.1 18.3 56.0 C 18.3 56.0 15.8 54.2 15.8 54.2 C 15.8 54.2 19.0 52.4 19.0 52.4 C 19.5 52.3 20.0 52.0 20.7 51.6 Z M 20.7 51.6 " fill="#3995D6"></path></g></g><text xml:space="preserve" font-family="MarkerFelt-Thin" font-size="36.0" fill="#858585" transform="matrix(1.00, 0.00, -0.00, -1.00, 35.0, 43.0)">A</text><text xml:space="preserve" font-family="MarkerFelt-Thin" font-size="36.0" fill="#858585" transform="matrix(1.00, 0.00, -0.00, -1.00, 58.1, 43.0)">d</text><text xml:space="preserve" font-family="MarkerFelt-Thin" font-size="36.0" fill="#858585" transform="matrix(1.00, 0.00, -0.00, -1.00, 73.6, 43.0)">d</text><text xml:space="preserve" font-family="MarkerFelt-Thin" font-size="36.0" fill="#858585" transform="matrix(1.00, 0.00, -0.00, -1.00, 89.0, 43.0)"> </text><text xml:space="preserve" font-family="MarkerFelt-Thin" font-size="36.0" fill="#858585" transform="matrix(1.00, 0.00, -0.00, -1.00, 98.0, 43.0)">f</text><text xml:space="preserve" font-family="MarkerFelt-Thin" font-size="36.0" fill="#858585" transform="matrix(1.00, 0.00, -0.00, -1.00, 113.6, 43.0)">u</text><text xml:space="preserve" font-family="MarkerFelt-Thin" font-size="36.0" fill="#858585" transform="matrix(1.00, 0.00, -0.00, -1.00, 129.8, 43.0)">n</text><text xml:space="preserve" font-family="MarkerFelt-Thin" font-size="36.0" fill="#858585" transform="matrix(1.00, 0.00, -0.00, -1.00, 148.7, 43.0)">c</text><text xml:space="preserve" font-family="MarkerFelt-Thin" font-size="36.0" fill="#858585" transform="matrix(1.00, 0.00, -0.00, -1.00, 164.3, 43.0)">t</text><text xml:space="preserve" font-family="MarkerFelt-Thin" font-size="36.0" fill="#858585" transform="matrix(1.00, 0.00, -0.00, -1.00, 179.8, 43.0)">i</text><text xml:space="preserve" font-family="MarkerFelt-Thin" font-size="36.0" fill="#858585" transform="matrix(1.00, 0.00, -0.00, -1.00, 188.1, 43.0)">o</text><text xml:space="preserve" font-family="MarkerFelt-Thin" font-size="36.0" fill="#858585" transform="matrix(1.00, 0.00, -0.00, -1.00, 204.5, 43.0)">n</text><text xml:space="preserve" font-family="MarkerFelt-Thin" font-size="36.0" fill="#858585" transform="matrix(1.00, 0.00, -0.00, -1.00, 223.5, 43.0)">s</text><text xml:space="preserve" font-family="MarkerFelt-Thin" font-size="36.0" fill="#858585" transform="matrix(1.00, 0.00, -0.00, -1.00, 236.9, 43.0)"> </text><text xml:space="preserve" font-family="MarkerFelt-Thin" font-size="36.0" fill="#858585" transform="matrix(1.00, 0.00, -0.00, -1.00, 245.9, 43.0)">f</text><text xml:space="preserve" font-family="MarkerFelt-Thin" font-size="36.0" fill="#858585" transform="matrix(1.00, 0.00, -0.00, -1.00, 260.6, 43.0)">o</text><text xml:space="preserve" font-family="MarkerFelt-Thin" font-size="36.0" fill="#858585" transform="matrix(1.00, 0.00, -0.00, -1.00, 276.8, 43.0)">r</text><text xml:space="preserve" font-family="MarkerFelt-Thin" font-size="36.0" fill="#858585" transform="matrix(1.00, 0.00, -0.00, -1.00, 290.5, 43.0)"> </text><text xml:space="preserve" font-family="MarkerFelt-Thin" font-size="36.0" fill="#858585" transform="matrix(1.00, 0.00, -0.00, -1.00, 299.5, 43.0)">R</text><text xml:space="preserve" font-family="MarkerFelt-Thin" font-size="36.0" fill="#858585" transform="matrix(1.00, 0.00, -0.00, -1.00, 321.7, 43.0)">E</text><text xml:space="preserve" font-family="MarkerFelt-Thin" font-size="36.0" fill="#858585" transform="matrix(1.00, 0.00, -0.00, -1.00, 337.2, 43.0)">S</text><text xml:space="preserve" font-family="MarkerFelt-Thin" font-size="36.0" fill="#858585" transform="matrix(1.00, 0.00, -0.00, -1.00, 354.9, 43.0)">T</text><text xml:space="preserve" font-family="MarkerFelt-Thin" font-size="36.0" fill="#858585" transform="matrix(1.00, 0.00, -0.00, -1.00, 372.1, 43.0)"> </text><text xml:space="preserve" font-family="MarkerFelt-Thin" font-size="36.0" fill="#858585" transform="matrix(1.00, 0.00, -0.00, -1.00, 35.0, 4.0)">i</text><text xml:space="preserve" font-family="MarkerFelt-Thin" font-size="36.0" fill="#858585" transform="matrix(1.00, 0.00, -0.00, -1.00, 43.9, 4.0)">n</text><text xml:space="preserve" font-family="MarkerFelt-Thin" font-size="36.0" fill="#858585" transform="matrix(1.00, 0.00, -0.00, -1.00, 63.7, 4.0)">t</text><text xml:space="preserve" font-family="MarkerFelt-Thin" font-size="36.0" fill="#858585" transform="matrix(1.00, 0.00, -0.00, -1.00, 77.4, 4.0)">e</text><text xml:space="preserve" font-family="MarkerFelt-Thin" font-size="36.0" fill="#858585" transform="matrix(1.00, 0.00, -0.00, -1.00, 93.2, 4.0)">r</text><text xml:space="preserve" font-family="MarkerFelt-Thin" font-size="36.0" fill="#858585" transform="matrix(1.00, 0.00, -0.00, -1.00, 107.9, 4.0)">a</text><text xml:space="preserve" font-family="MarkerFelt-Thin" font-size="36.0" fill="#858585" transform="matrix(1.00, 0.00, -0.00, -1.00, 125.4, 4.0)">c</text><text xml:space="preserve" font-family="MarkerFelt-Thin" font-size="36.0" fill="#858585" transform="matrix(1.00, 0.00, -0.00, -1.00, 141.1, 4.0)">t</text><text xml:space="preserve" font-family="MarkerFelt-Thin" font-size="36.0" fill="#858585" transform="matrix(1.00, 0.00, -0.00, -1.00, 156.6, 4.0)">i</text><text xml:space="preserve" font-family="MarkerFelt-Thin" font-size="36.0" fill="#858585" transform="matrix(1.00, 0.00, -0.00, -1.00, 164.9, 4.0)">o</text><text xml:space="preserve" font-family="MarkerFelt-Thin" font-size="36.0" fill="#858585" transform="matrix(1.00, 0.00, -0.00, -1.00, 181.2, 4.0)">n</text><text xml:space="preserve" font-family="MarkerFelt-Thin" font-size="36.0" fill="#858585" transform="matrix(1.00, 0.00, -0.00, -1.00, 200.3, 4.0)">s</text></g></svg>