<?xml version="1.0" encoding="UTF-8" standalone="no"?><svg xmlns="http://www.w3.org/2000/svg" xmlns:xlink="http://www.w3.org/1999/xlink" clip-rule="evenodd" stroke-miterlimit="4.00" viewBox="0 0 1024 768"><desc>SVG generated by Keynote</desc><defs></defs><g transform="matrix(1.00, 0.00, -0.00, -1.00, 0.0, 768.0)"><path d="M 0.0 768.0 L 1024.0 768.0 L 1024.0 0.0 L 0.0 0.0 Z M 0.0 768.0 " fill="#FEFFFF"></path><text xml:space="preserve" font-family="Helvetica-Light" font-size="80.0" fill="#000000" transform="matrix(1.00, 0.00, -0.00, -1.00, 278.0, 667.0)">S</text><text xml:space="preserve" font-family="Helvetica-Light" font-size="80.0" fill="#000000" transform="matrix(1.00, 0.00, -0.00, -1.00, 326.9, 667.0)">t</text><text xml:space="preserve" font-family="Helvetica-Light" font-size="80.0" fill="#000000" transform="matrix(1.00, 0.00, -0.00, -1.00, 349.1, 667.0)">a</text><text xml:space="preserve" font-family="Helvetica-Light" font-size="80.0" fill="#000000" transform="matrix(1.00, 0.00, -0.00, -1.00, 393.6, 667.0)">r</text><text xml:space="preserve" font-family="Helvetica-Light" font-size="80.0" fill="#000000" transform="matrix(1.00, 0.00, -0.00, -1.00, 421.7, 667.0)">t</text><text xml:space="preserve" font-family="Helvetica-Light" font-size="80.0" fill="#000000" transform="matrix(1.00, 0.00, -0.00, -1.00, 443.9, 667.0)">i</text><text xml:space="preserve" font-family="Helvetica-Light" font-size="80.0" fill="#000000" transform="matrix(1.00, 0.00, -0.00, -1.00, 461.7, 667.0)">n</text><text xml:space="preserve" font-family="Helvetica-Light" font-size="80.0" fill="#000000" transform="matrix(1.00, 0.00, -0.00, -1.00, 506.2, 667.0)">g</text><text xml:space="preserve" font-family="Helvetica-Light" font-size="80.0" fill="#000000" transform="matrix(1.00, 0.00, -0.00, -1.00, 555.0, 667.0)"> </text><text xml:space="preserve" font-family="Helvetica-Light" font-size="80.0" fill="#000000" transform="matrix(1.00, 0.00, -0.00, -1.00, 577.3, 667.0)">D</text><text xml:space="preserve" font-family="Helvetica-Light" font-size="80.0" fill="#000000" transform="matrix(1.00, 0.00, -0.00, -1.00, 635.0, 667.0)">a</text><text xml:space="preserve" font-family="Helvetica-Light" font-size="80.0" fill="#000000" transform="matrix(1.00, 0.00, -0.00, -1.00, 679.5, 667.0)">t</text><text xml:space="preserve" font-family="Helvetica-Light" font-size="80.0" fill="#000000" transform="matrix(1.00, 0.00, -0.00, -1.00, 701.8, 667.0)">a</text><text xml:space="preserve" font-family="CourierNewPSMT" font-size="42.0" fill="#AAAAAA" transform="matrix(1.00, 0.00, -0.00, -1.00, 20.0, 422.0)"> </text><text xml:space="preserve" font-family="CourierNewPSMT" font-size="42.0" fill="#AAAAAA" transform="matrix(1.00, 0.00, -0.00, -1.00, 45.2, 422.0)"> </text><text xml:space="preserve" font-family="CourierNewPSMT" font-size="42.0" fill="#AAAAAA" transform="matrix(1.00, 0.00, -0.00, -1.00, 70.4, 422.0)"> </text><text xml:space="preserve" font-family="CourierNewPSMT" font-size="42.0" fill="#AAAAAA" transform="matrix(1.00, 0.00, -0.00, -1.00, 95.6, 422.0)"> </text><text xml:space="preserve" font-family="CourierNewPSMT" font-size="42.0" fill="#AAAAAA" transform="matrix(1.00, 0.00, -0.00, -1.00, 120.8, 422.0)">1</text><text xml:space="preserve" font-family="CourierNewPSMT" font-size="42.0" fill="#AAAAAA" transform="matrix(1.00, 0.00, -0.00, -1.00, 146.0, 422.0)"> </text><text xml:space="preserve" font-family="CourierNewPSMT" font-size="42.0" fill="#431479" transform="matrix(1.00, 0.00, -0.00, -1.00, 171.2, 422.0)">#</text><text xml:space="preserve" font-family="CourierNewPSMT" font-size="42.0" fill="#676767" transform="matrix(1.00, 0.00, -0.00, -1.00, 196.4, 422.0)">{</text><text xml:space="preserve" font-family="CourierNewPSMT" font-size="42.0" fill="#676767" transform="matrix(1.00, 0.00, -0.00, -1.00, 221.6, 422.0)">{</text><text xml:space="preserve" font-family="CourierNewPSMT" font-size="42.0" fill="#676767" transform="matrix(1.00, 0.00, -0.00, -1.00, 246.8, 422.0)"> </text><text xml:space="preserve" font-family="CourierNewPSMT" font-size="42.0" fill="#676767" transform="matrix(1.00, 0.00, -0.00, -1.00, 272.1, 422.0)">:</text><text xml:space="preserve" font-family="CourierNewPSMT" font-size="42.0" fill="#431479" transform="matrix(1.00, 0.00, -0.00, -1.00, 297.2, 422.0)">n</text><text xml:space="preserve" font-family="CourierNewPSMT" font-size="42.0" fill="#431479" transform="matrix(1.00, 0.00, -0.00, -1.00, 322.5, 422.0)">a</text><text xml:space="preserve" font-family="CourierNewPSMT" font-size="42.0" fill="#431479" transform="matrix(1.00, 0.00, -0.00, -1.00, 347.7, 422.0)">m</text><text xml:space="preserve" font-family="CourierNewPSMT" font-size="42.0" fill="#431479" transform="matrix(1.00, 0.00, -0.00, -1.00, 372.9, 422.0)">e</text><text xml:space="preserve" font-family="CourierNewPSMT" font-size="42.0" fill="#000000" transform="matrix(1.00, 0.00, -0.00, -1.00, 398.1, 422.0)"> </text><text xml:space="preserve" font-family="CourierNewPSMT" font-size="42.0" fill="#1A76B6" transform="matrix(1.00, 0.00, -0.00, -1.00, 423.3, 422.0)">"</text><text xml:space="preserve" font-family="CourierNewPSMT" font-size="42.0" fill="#1A76B6" transform="matrix(1.00, 0.00, -0.00, -1.00, 448.5, 422.0)">M</text><text xml:space="preserve" font-family="CourierNewPSMT" font-size="42.0" fill="#1A76B6" transform="matrix(1.00, 0.00, -0.00, -1.00, 473.7, 422.0)">a</text><text xml:space="preserve" font-family="CourierNewPSMT" font-size="42.0" fill="#1A76B6" transform="matrix(1.00, 0.00, -0.00, -1.00, 498.9, 422.0)">r</text><text xml:space="preserve" font-family="CourierNewPSMT" font-size="42.0" fill="#1A76B6" transform="matrix(1.00, 0.00, -0.00, -1.00, 524.1, 422.0)">k</text><text xml:space="preserve" font-family="CourierNewPSMT" font-size="42.0" fill="#1A76B6" transform="matrix(1.00, 0.00, -0.00, -1.00, 549.3, 422.0)">"</text><text xml:space="preserve" font-family="CourierNewPSMT" font-size="42.0" fill="#000000" transform="matrix(1.00, 0.00, -0.00, -1.00, 574.5, 422.0)"> </text><text xml:space="preserve" font-family="CourierNewPSMT" font-size="42.0" fill="#676767" transform="matrix(1.00, 0.00, -0.00, -1.00, 599.7, 422.0)">:</text><text xml:space="preserve" font-family="CourierNewPSMT" font-size="42.0" fill="#431479" transform="matrix(1.00, 0.00, -0.00, -1.00, 624.9, 422.0)">c</text><text xml:space="preserve" font-family="CourierNewPSMT" font-size="42.0" fill="#431479" transform="matrix(1.00, 0.00, -0.00, -1.00, 650.1, 422.0)">o</text><text xml:space="preserve" font-family="CourierNewPSMT" font-size="42.0" fill="#431479" transform="matrix(1.00, 0.00, -0.00, -1.00, 675.3, 422.0)">l</text><text xml:space="preserve" font-family="CourierNewPSMT" font-size="42.0" fill="#431479" transform="matrix(1.00, 0.00, -0.00, -1.00, 700.5, 422.0)">o</text><text xml:space="preserve" font-family="CourierNewPSMT" font-size="42.0" fill="#431479" transform="matrix(1.00, 0.00, -0.00, -1.00, 725.7, 422.0)">r</text><text xml:space="preserve" font-family="CourierNewPSMT" font-size="42.0" fill="#000000" transform="matrix(1.00, 0.00, -0.00, -1.00, 750.9, 422.0)"> </text><text xml:space="preserve" font-family="CourierNewPSMT" font-size="42.0" fill="#676767" transform="matrix(1.00, 0.00, -0.00, -1.00, 776.1, 422.0)">:</text><text xml:space="preserve" font-family="CourierNewPSMT" font-size="42.0" fill="#431479" transform="matrix(1.00, 0.00, -0.00, -1.00, 801.3, 422.0)">g</text><text xml:space="preserve" font-family="CourierNewPSMT" font-size="42.0" fill="#431479" transform="matrix(1.00, 0.00, -0.00, -1.00, 826.5, 422.0)">r</text><text xml:space="preserve" font-family="CourierNewPSMT" font-size="42.0" fill="#431479" transform="matrix(1.00, 0.00, -0.00, -1.00, 851.7, 422.0)">e</text><text xml:space="preserve" font-family="CourierNewPSMT" font-size="42.0" fill="#431479" transform="matrix(1.00, 0.00, -0.00, -1.00, 877.0, 422.0)">e</text><text xml:space="preserve" font-family="CourierNewPSMT" font-size="42.0" fill="#431479" transform="matrix(1.00, 0.00, -0.00, -1.00, 902.2, 422.0)">n</text><text xml:space="preserve" font-family="CourierNewPSMT" font-size="42.0" fill="#000000" transform="matrix(1.00, 0.00, -0.00, -1.00, 927.3, 422.0)"> </text><text xml:space="preserve" font-family="CourierNewPSMT" font-size="42.0" fill="#676767" transform="matrix(1.00, 0.00, -0.00, -1.00, 952.6, 422.0)">}</text><text xml:space="preserve" font-family="CourierNewPSMT" font-size="42.0" fill="#000000" transform="matrix(1.00, 0.00, -0.00, -1.00, 977.8, 422.0)"> </text><text xml:space="preserve" font-family="CourierNewPSMT" font-size="42.0" fill="#AAAAAA" transform="matrix(1.00, 0.00, -0.00, -1.00, 20.0, 374.0)"> </text><text xml:space="preserve" font-family="CourierNewPSMT" font-size="42.0" fill="#AAAAAA" transform="matrix(1.00, 0.00, -0.00, -1.00, 45.2, 374.0)"> </text><text xml:space="preserve" font-family="CourierNewPSMT" font-size="42.0" fill="#AAAAAA" transform="matrix(1.00, 0.00, -0.00, -1.00, 70.4, 374.0)"> </text><text xml:space="preserve" font-family="CourierNewPSMT" font-size="42.0" fill="#AAAAAA" transform="matrix(1.00, 0.00, -0.00, -1.00, 95.6, 374.0)"> </text><text xml:space="preserve" font-family="CourierNewPSMT" font-size="42.0" fill="#AAAAAA" transform="matrix(1.00, 0.00, -0.00, -1.00, 120.8, 374.0)">2</text><text xml:space="preserve" font-family="CourierNewPSMT" font-size="42.0" fill="#AAAAAA" transform="matrix(1.00, 0.00, -0.00, -1.00, 146.0, 374.0)"> </text><text xml:space="preserve" font-family="CourierNewPSMT" font-size="42.0" fill="#000000" transform="matrix(1.00, 0.00, -0.00, -1.00, 171.2, 374.0)"> </text><text xml:space="preserve" font-family="CourierNewPSMT" font-size="42.0" fill="#000000" transform="matrix(1.00, 0.00, -0.00, -1.00, 196.4, 374.0)"> </text><text xml:space="preserve" font-family="CourierNewPSMT" font-size="42.0" fill="#676767" transform="matrix(1.00, 0.00, -0.00, -1.00, 221.6, 374.0)">{</text><text xml:space="preserve" font-family="CourierNewPSMT" font-size="42.0" fill="#676767" transform="matrix(1.00, 0.00, -0.00, -1.00, 246.8, 374.0)"> </text><text xml:space="preserve" font-family="CourierNewPSMT" font-size="42.0" fill="#676767" transform="matrix(1.00, 0.00, -0.00, -1.00, 272.0, 374.0)">:</text><text xml:space="preserve" font-family="CourierNewPSMT" font-size="42.0" fill="#431479" transform="matrix(1.00, 0.00, -0.00, -1.00, 297.2, 374.0)">n</text><text xml:space="preserve" font-family="CourierNewPSMT" font-size="42.0" fill="#431479" transform="matrix(1.00, 0.00, -0.00, -1.00, 322.5, 374.0)">a</text><text xml:space="preserve" font-family="CourierNewPSMT" font-size="42.0" fill="#431479" transform="matrix(1.00, 0.00, -0.00, -1.00, 347.7, 374.0)">m</text><text xml:space="preserve" font-family="CourierNewPSMT" font-size="42.0" fill="#431479" transform="matrix(1.00, 0.00, -0.00, -1.00, 372.9, 374.0)">e</text><text xml:space="preserve" font-family="CourierNewPSMT" font-size="42.0" fill="#000000" transform="matrix(1.00, 0.00, -0.00, -1.00, 398.1, 374.0)"> </text><text xml:space="preserve" font-family="CourierNewPSMT" font-size="42.0" fill="#1A76B6" transform="matrix(1.00, 0.00, -0.00, -1.00, 423.3, 374.0)">"</text><text xml:space="preserve" font-family="CourierNewPSMT" font-size="42.0" fill="#1A76B6" transform="matrix(1.00, 0.00, -0.00, -1.00, 448.5, 374.0)">B</text><text xml:space="preserve" font-family="CourierNewPSMT" font-size="42.0" fill="#1A76B6" transform="matrix(1.00, 0.00, -0.00, -1.00, 473.7, 374.0)">o</text><text xml:space="preserve" font-family="CourierNewPSMT" font-size="42.0" fill="#1A76B6" transform="matrix(1.00, 0.00, -0.00, -1.00, 498.9, 374.0)">b</text><text xml:space="preserve" font-family="CourierNewPSMT" font-size="42.0" fill="#1A76B6" transform="matrix(1.00, 0.00, -0.00, -1.00, 524.1, 374.0)">"</text><text xml:space="preserve" font-family="CourierNewPSMT" font-size="42.0" fill="#000000" transform="matrix(1.00, 0.00, -0.00, -1.00, 549.3, 374.0)"> </text><text xml:space="preserve" font-family="CourierNewPSMT" font-size="42.0" fill="#676767" transform="matrix(1.00, 0.00, -0.00, -1.00, 574.5, 374.0)">:</text><text xml:space="preserve" font-family="CourierNewPSMT" font-size="42.0" fill="#431479" transform="matrix(1.00, 0.00, -0.00, -1.00, 599.7, 374.0)">c</text><text xml:space="preserve" font-family="CourierNewPSMT" font-size="42.0" fill="#431479" transform="matrix(1.00, 0.00, -0.00, -1.00, 624.9, 374.0)">o</text><text xml:space="preserve" font-family="CourierNewPSMT" font-size="42.0" fill="#431479" transform="matrix(1.00, 0.00, -0.00, -1.00, 650.1, 374.0)">l</text><text xml:space="preserve" font-family="CourierNewPSMT" font-size="42.0" fill="#431479" transform="matrix(1.00, 0.00, -0.00, -1.00, 675.3, 374.0)">o</text><text xml:space="preserve" font-family="CourierNewPSMT" font-size="42.0" fill="#431479" transform="matrix(1.00, 0.00, -0.00, -1.00, 700.5, 374.0)">r</text><text xml:space="preserve" font-family="CourierNewPSMT" font-size="42.0" fill="#000000" transform="matrix(1.00, 0.00, -0.00, -1.00, 725.7, 374.0)"> </text><text xml:space="preserve" font-family="CourierNewPSMT" font-size="42.0" fill="#676767" transform="matrix(1.00, 0.00, -0.00, -1.00, 750.9, 374.0)">:</text><text xml:space="preserve" font-family="CourierNewPSMT" font-size="42.0" fill="#431479" transform="matrix(1.00, 0.00, -0.00, -1.00, 776.1, 374.0)">y</text><text xml:space="preserve" font-family="CourierNewPSMT" font-size="42.0" fill="#431479" transform="matrix(1.00, 0.00, -0.00, -1.00, 801.3, 374.0)">e</text><text xml:space="preserve" font-family="CourierNewPSMT" font-size="42.0" fill="#431479" transform="matrix(1.00, 0.00, -0.00, -1.00, 826.5, 374.0)">l</text><text xml:space="preserve" font-family="CourierNewPSMT" font-size="42.0" fill="#431479" transform="matrix(1.00, 0.00, -0.00, -1.00, 851.7, 374.0)">l</text><text xml:space="preserve" font-family="CourierNewPSMT" font-size="42.0" fill="#431479" transform="matrix(1.00, 0.00, -0.00, -1.00, 877.0, 374.0)">o</text><text xml:space="preserve" font-family="CourierNewPSMT" font-size="42.0" fill="#431479" transform="matrix(1.00, 0.00, -0.00, -1.00, 902.2, 374.0)">w</text><text xml:space="preserve" font-family="CourierNewPSMT" font-size="42.0" fill="#000000" transform="matrix(1.00, 0.00, -0.00, -1.00, 927.3, 374.0)"> </text><text xml:space="preserve" font-family="CourierNewPSMT" font-size="42.0" fill="#676767" transform="matrix(1.00, 0.00, -0.00, -1.00, 952.6, 374.0)">}</text><text xml:space="preserve" font-family="CourierNewPSMT" font-size="42.0" fill="#000000" transform="matrix(1.00, 0.00, -0.00, -1.00, 977.8, 374.0)"> </text><text xml:space="preserve" font-family="CourierNewPSMT" font-size="42.0" fill="#AAAAAA" transform="matrix(1.00, 0.00, -0.00, -1.00, 20.0, 326.0)"> </text><text xml:space="preserve" font-family="CourierNewPSMT" font-size="42.0" fill="#AAAAAA" transform="matrix(1.00, 0.00, -0.00, -1.00, 45.2, 326.0)"> </text><text xml:space="preserve" font-family="CourierNewPSMT" font-size="42.0" fill="#AAAAAA" transform="matrix(1.00, 0.00, -0.00, -1.00, 70.4, 326.0)"> </text><text xml:space="preserve" font-family="CourierNewPSMT" font-size="42.0" fill="#AAAAAA" transform="matrix(1.00, 0.00, -0.00, -1.00, 95.6, 326.0)"> </text><text xml:space="preserve" font-family="CourierNewPSMT" font-size="42.0" fill="#AAAAAA" transform="matrix(1.00, 0.00, -0.00, -1.00, 120.8, 326.0)">3</text><text xml:space="preserve" font-family="CourierNewPSMT" font-size="42.0" fill="#AAAAAA" transform="matrix(1.00, 0.00, -0.00, -1.00, 146.0, 326.0)"> </text><text xml:space="preserve" font-family="CourierNewPSMT" font-size="42.0" fill="#000000" transform="matrix(1.00, 0.00, -0.00, -1.00, 171.2, 326.0)"> </text><text xml:space="preserve" font-family="CourierNewPSMT" font-size="42.0" fill="#000000" transform="matrix(1.00, 0.00, -0.00, -1.00, 196.4, 326.0)"> </text><text xml:space="preserve" font-family="CourierNewPSMT" font-size="42.0" fill="#676767" transform="matrix(1.00, 0.00, -0.00, -1.00, 221.6, 326.0)">{</text><text xml:space="preserve" font-family="CourierNewPSMT" font-size="42.0" fill="#676767" transform="matrix(1.00, 0.00, -0.00, -1.00, 246.8, 326.0)"> </text><text xml:space="preserve" font-family="CourierNewPSMT" font-size="42.0" fill="#676767" transform="matrix(1.00, 0.00, -0.00, -1.00, 272.0, 326.0)">:</text><text xml:space="preserve" font-family="CourierNewPSMT" font-size="42.0" fill="#431479" transform="matrix(1.00, 0.00, -0.00, -1.00, 297.2, 326.0)">n</text><text xml:space="preserve" font-family="CourierNewPSMT" font-size="42.0" fill="#431479" transform="matrix(1.00, 0.00, -0.00, -1.00, 322.5, 326.0)">a</text><text xml:space="preserve" font-family="CourierNewPSMT" font-size="42.0" fill="#431479" transform="matrix(1.00, 0.00, -0.00, -1.00, 347.7, 326.0)">m</text><text xml:space="preserve" font-family="CourierNewPSMT" font-size="42.0" fill="#431479" transform="matrix(1.00, 0.00, -0.00, -1.00, 372.9, 326.0)">e</text><text xml:space="preserve" font-family="CourierNewPSMT" font-size="42.0" fill="#000000" transform="matrix(1.00, 0.00, -0.00, -1.00, 398.1, 326.0)"> </text><text xml:space="preserve" font-family="CourierNewPSMT" font-size="42.0" fill="#1A76B6" transform="matrix(1.00, 0.00, -0.00, -1.00, 423.3, 326.0)">"</text><text xml:space="preserve" font-family="CourierNewPSMT" font-size="42.0" fill="#1A76B6" transform="matrix(1.00, 0.00, -0.00, -1.00, 448.5, 326.0)">G</text><text xml:space="preserve" font-family="CourierNewPSMT" font-size="42.0" fill="#1A76B6" transform="matrix(1.00, 0.00, -0.00, -1.00, 473.7, 326.0)">e</text><text xml:space="preserve" font-family="CourierNewPSMT" font-size="42.0" fill="#1A76B6" transform="matrix(1.00, 0.00, -0.00, -1.00, 498.9, 326.0)">n</text><text xml:space="preserve" font-family="CourierNewPSMT" font-size="42.0" fill="#1A76B6" transform="matrix(1.00, 0.00, -0.00, -1.00, 524.1, 326.0)">e</text><text xml:space="preserve" font-family="CourierNewPSMT" font-size="42.0" fill="#1A76B6" transform="matrix(1.00, 0.00, -0.00, -1.00, 549.3, 326.0)">"</text><text xml:space="preserve" font-family="CourierNewPSMT" font-size="42.0" fill="#000000" transform="matrix(1.00, 0.00, -0.00, -1.00, 574.5, 326.0)"> </text><text xml:space="preserve" font-family="CourierNewPSMT" font-size="42.0" fill="#676767" transform="matrix(1.00, 0.00, -0.00, -1.00, 599.7, 326.0)">:</text><text xml:space="preserve" font-family="CourierNewPSMT" font-size="42.0" fill="#431479" transform="matrix(1.00, 0.00, -0.00, -1.00, 624.9, 326.0)">c</text><text xml:space="preserve" font-family="CourierNewPSMT" font-size="42.0" fill="#431479" transform="matrix(1.00, 0.00, -0.00, -1.00, 650.1, 326.0)">o</text><text xml:space="preserve" font-family="CourierNewPSMT" font-size="42.0" fill="#431479" transform="matrix(1.00, 0.00, -0.00, -1.00, 675.3, 326.0)">l</text><text xml:space="preserve" font-family="CourierNewPSMT" font-size="42.0" fill="#431479" transform="matrix(1.00, 0.00, -0.00, -1.00, 700.5, 326.0)">o</text><text xml:space="preserve" font-family="CourierNewPSMT" font-size="42.0" fill="#431479" transform="matrix(1.00, 0.00, -0.00, -1.00, 725.7, 326.0)">r</text><text xml:space="preserve" font-family="CourierNewPSMT" font-size="42.0" fill="#000000" transform="matrix(1.00, 0.00, -0.00, -1.00, 750.9, 326.0)"> </text><text xml:space="preserve" font-family="CourierNewPSMT" font-size="42.0" fill="#676767" transform="matrix(1.00, 0.00, -0.00, -1.00, 776.1, 326.0)">:</text><text xml:space="preserve" font-family="CourierNewPSMT" font-size="42.0" fill="#431479" transform="matrix(1.00, 0.00, -0.00, -1.00, 801.3, 326.0)">b</text><text xml:space="preserve" font-family="CourierNewPSMT" font-size="42.0" fill="#431479" transform="matrix(1.00, 0.00, -0.00, -1.00, 826.5, 326.0)">l</text><text xml:space="preserve" font-family="CourierNewPSMT" font-size="42.0" fill="#431479" transform="matrix(1.00, 0.00, -0.00, -1.00, 851.7, 326.0)">u</text><text xml:space="preserve" font-family="CourierNewPSMT" font-size="42.0" fill="#431479" transform="matrix(1.00, 0.00, -0.00, -1.00, 877.0, 326.0)">e</text><text xml:space="preserve" font-family="CourierNewPSMT" font-size="42.0" fill="#000000" transform="matrix(1.00, 0.00, -0.00, -1.00, 902.1, 326.0)"> </text><text xml:space="preserve" font-family="CourierNewPSMT" font-size="42.0" fill="#676767" transform="matrix(1.00, 0.00, -0.00, -1.00, 927.3, 326.0)">}</text><text xml:space="preserve" font-family="CourierNewPSMT" font-size="42.0" fill="#676767" transform="matrix(1.00, 0.00, -0.00, -1.00, 952.6, 326.0)">}</text><text xml:space="preserve" font-family="CourierNewPSMT" font-size="42.0" fill="#000000" transform="matrix(1.00, 0.00, -0.00, -1.00, 977.8, 326.0)"> </text></g></svg>