<?xml version="1.0" encoding="UTF-8" standalone="no"?><svg xmlns="http://www.w3.org/2000/svg" xmlns:xlink="http://www.w3.org/1999/xlink" clip-rule="evenodd" stroke-miterlimit="4.00" viewBox="0 0 1024 768"><desc>SVG generated by Keynote</desc><defs></defs><g transform="matrix(1.00, 0.00, -0.00, -1.00, 0.0, 768.0)"><g><clipPath id="clip-149"><path d="M 0.0 768.0 L 1024.0 768.0 L 1024.0 0.0 L 0.0 0.0 Z M 0.0 768.0 "></path></clipPath><g clip-path="url(#clip-149)"><image xlink:href="../../39451CEE-E280-41CA-872D-216C9FC86FAF/assets/43DA95A1552523200D88D33196FD3A18.jpeg" width="1024.00" height="768.00" transform="matrix(1.00, 0.00, -0.00, -1.00, 0.0, 768.0)"></image></g></g><text xml:space="preserve" font-family="MarkerFelt-Thin" font-size="80.0" fill="#45A6DE" transform="matrix(1.00, 0.00, -0.00, -1.00, 110.0, 626.0)">T</text><text xml:space="preserve" font-family="MarkerFelt-Thin" font-size="80.0" fill="#45A6DE" transform="matrix(1.00, 0.00, -0.00, -1.00, 137.7, 626.0)">e</text><text xml:space="preserve" font-family="MarkerFelt-Thin" font-size="80.0" fill="#45A6DE" transform="matrix(1.00, 0.00, -0.00, -1.00, 173.0, 626.0)">c</text><text xml:space="preserve" font-family="MarkerFelt-Thin" font-size="80.0" fill="#45A6DE" transform="matrix(1.00, 0.00, -0.00, -1.00, 205.8, 626.0)">h</text><text xml:space="preserve" font-family="MarkerFelt-Thin" font-size="80.0" fill="#45A6DE" transform="matrix(1.00, 0.00, -0.00, -1.00, 246.9, 626.0)">n</text><text xml:space="preserve" font-family="MarkerFelt-Thin" font-size="80.0" fill="#45A6DE" transform="matrix(1.00, 0.00, -0.00, -1.00, 289.1, 626.0)">o</text><text xml:space="preserve" font-family="MarkerFelt-Thin" font-size="80.0" fill="#45A6DE" transform="matrix(1.00, 0.00, -0.00, -1.00, 325.4, 626.0)">l</text><text xml:space="preserve" font-family="MarkerFelt-Thin" font-size="80.0" fill="#45A6DE" transform="matrix(1.00, 0.00, -0.00, -1.00, 344.4, 626.0)">o</text><text xml:space="preserve" font-family="MarkerFelt-Thin" font-size="80.0" fill="#45A6DE" transform="matrix(1.00, 0.00, -0.00, -1.00, 381.2, 626.0)">g</text><text xml:space="preserve" font-family="MarkerFelt-Thin" font-size="80.0" fill="#45A6DE" transform="matrix(1.00, 0.00, -0.00, -1.00, 418.6, 626.0)">y</text><text xml:space="preserve" font-family="MarkerFelt-Thin" font-size="80.0" fill="#45A6DE" transform="matrix(1.00, 0.00, -0.00, -1.00, 456.2, 626.0)"> </text><text xml:space="preserve" font-family="MarkerFelt-Thin" font-size="80.0" fill="#45A6DE" transform="matrix(1.00, 0.00, -0.00, -1.00, 476.2, 626.0)">R</text><text xml:space="preserve" font-family="MarkerFelt-Thin" font-size="80.0" fill="#45A6DE" transform="matrix(1.00, 0.00, -0.00, -1.00, 524.2, 626.0)">e</text><text xml:space="preserve" font-family="MarkerFelt-Thin" font-size="80.0" fill="#45A6DE" transform="matrix(1.00, 0.00, -0.00, -1.00, 558.6, 626.0)">q</text><text xml:space="preserve" font-family="MarkerFelt-Thin" font-size="80.0" fill="#45A6DE" transform="matrix(1.00, 0.00, -0.00, -1.00, 596.1, 626.0)">u</text><text xml:space="preserve" font-family="MarkerFelt-Thin" font-size="80.0" fill="#45A6DE" transform="matrix(1.00, 0.00, -0.00, -1.00, 632.2, 626.0)">i</text><text xml:space="preserve" font-family="MarkerFelt-Thin" font-size="80.0" fill="#45A6DE" transform="matrix(1.00, 0.00, -0.00, -1.00, 652.3, 626.0)">r</text><text xml:space="preserve" font-family="MarkerFelt-Thin" font-size="80.0" fill="#45A6DE" transform="matrix(1.00, 0.00, -0.00, -1.00, 682.7, 626.0)">e</text><text xml:space="preserve" font-family="MarkerFelt-Thin" font-size="80.0" fill="#45A6DE" transform="matrix(1.00, 0.00, -0.00, -1.00, 716.3, 626.0)">m</text><text xml:space="preserve" font-family="MarkerFelt-Thin" font-size="80.0" fill="#45A6DE" transform="matrix(1.00, 0.00, -0.00, -1.00, 773.9, 626.0)">e</text><text xml:space="preserve" font-family="MarkerFelt-Thin" font-size="80.0" fill="#45A6DE" transform="matrix(1.00, 0.00, -0.00, -1.00, 809.4, 626.0)">n</text><text xml:space="preserve" font-family="MarkerFelt-Thin" font-size="80.0" fill="#45A6DE" transform="matrix(1.00, 0.00, -0.00, -1.00, 853.3, 626.0)">t</text><text xml:space="preserve" font-family="MarkerFelt-Thin" font-size="80.0" fill="#45A6DE" transform="matrix(1.00, 0.00, -0.00, -1.00, 884.8, 626.0)">s</text><g><clipPath id="clip-150"><path d="M 104.0 435.8 L 119.1 435.8 L 119.1 449.9 L 104.0 449.9 Z M 104.0 435.8 "></path></clipPath><g clip-path="url(#clip-150)"><path d="M 118.9 440.8 C 119.0 440.6 119.1 440.4 119.1 440.2 C 119.1 439.7 118.8 439.3 118.3 438.9 C 117.8 438.5 117.3 438.4 116.6 438.4 C 115.8 438.4 114.9 439.0 113.8 440.2 C 113.8 440.2 113.8 438.4 113.8 438.4 C 113.8 438.2 113.8 438.0 113.9 437.7 C 114.0 437.5 114.1 437.3 114.1 437.2 C 114.1 436.8 113.9 436.5 113.5 436.2 C 113.1 435.9 112.7 435.8 112.3 435.8 C 111.7 435.8 111.1 436.1 110.6 436.7 C 110.4 436.9 110.4 437.3 110.4 438.1 C 110.5 439.0 110.5 439.8 110.6 440.6 C 110.2 440.3 109.4 439.9 108.2 439.2 C 108.0 439.0 107.6 438.8 106.8 438.5 C 106.2 438.4 105.6 438.5 104.9 438.8 C 104.3 439.1 104.0 439.5 104.0 440.0 C 104.0 440.1 104.0 440.2 104.1 440.3 C 104.2 440.6 104.5 440.8 104.8 440.9 C 105.5 441.1 105.8 441.2 105.9 441.2 C 105.9 441.2 109.2 443.1 109.2 443.1 C 109.2 443.1 106.8 444.2 106.8 444.2 C 106.5 444.2 106.0 444.4 105.5 444.7 C 105.3 444.9 105.3 445.1 105.3 445.3 C 105.3 445.8 105.6 446.4 106.3 446.9 C 107.0 447.4 107.6 447.7 108.3 447.7 C 108.5 447.7 108.7 447.7 108.9 447.6 C 109.2 447.5 109.4 447.3 109.5 447.0 C 109.8 446.6 110.1 446.2 110.6 445.9 C 110.6 445.9 110.7 448.1 110.7 448.1 C 110.6 448.3 110.6 448.8 110.7 449.3 C 110.9 449.7 111.5 449.9 112.5 449.9 C 113.3 449.9 113.9 449.6 114.2 449.1 C 114.3 448.9 114.3 448.4 114.3 447.7 C 114.2 447.0 114.1 446.3 114.0 445.6 C 114.0 445.6 115.3 446.2 115.3 446.2 C 115.5 446.5 116.0 446.8 116.6 447.1 C 117.1 447.1 117.6 446.9 118.0 446.5 C 118.5 446.1 118.7 445.7 118.7 445.2 C 118.7 445.0 118.7 444.8 118.6 444.6 C 118.4 444.5 118.2 444.3 117.9 444.3 C 117.6 444.2 117.3 444.1 117.2 444.0 C 117.2 444.0 115.4 442.7 115.4 442.7 C 115.4 442.7 117.7 441.5 117.7 441.5 C 118.0 441.4 118.4 441.2 118.9 440.8 Z M 118.9 440.8 " fill="#3995D6"></path></g></g><text xml:space="preserve" font-family="MarkerFelt-Thin" font-size="25.9" fill="#858585" transform="matrix(1.00, 0.00, -0.00, -1.00, 129.0, 434.0)">R</text><text xml:space="preserve" font-family="MarkerFelt-Thin" font-size="25.9" fill="#858585" transform="matrix(1.00, 0.00, -0.00, -1.00, 144.8, 434.0)">u</text><text xml:space="preserve" font-family="MarkerFelt-Thin" font-size="25.9" fill="#858585" transform="matrix(1.00, 0.00, -0.00, -1.00, 156.4, 434.0)">n</text><text xml:space="preserve" font-family="MarkerFelt-Thin" font-size="25.9" fill="#858585" transform="matrix(1.00, 0.00, -0.00, -1.00, 170.2, 434.0)">s</text><text xml:space="preserve" font-family="MarkerFelt-Thin" font-size="25.9" fill="#858585" transform="matrix(1.00, 0.00, -0.00, -1.00, 179.8, 434.0)"> </text><text xml:space="preserve" font-family="MarkerFelt-Thin" font-size="25.9" fill="#858585" transform="matrix(1.00, 0.00, -0.00, -1.00, 186.3, 434.0)">o</text><text xml:space="preserve" font-family="MarkerFelt-Thin" font-size="25.9" fill="#858585" transform="matrix(1.00, 0.00, -0.00, -1.00, 198.0, 434.0)">n</text><text xml:space="preserve" font-family="MarkerFelt-Thin" font-size="25.9" fill="#858585" transform="matrix(1.00, 0.00, -0.00, -1.00, 210.7, 434.0)"> </text><text xml:space="preserve" font-family="MarkerFelt-Thin" font-size="25.9" fill="#858585" transform="matrix(1.00, 0.00, -0.00, -1.00, 217.2, 434.0)">a</text><text xml:space="preserve" font-family="MarkerFelt-Thin" font-size="25.9" fill="#858585" transform="matrix(1.00, 0.00, -0.00, -1.00, 230.3, 434.0)">l</text><text xml:space="preserve" font-family="MarkerFelt-Thin" font-size="25.9" fill="#858585" transform="matrix(1.00, 0.00, -0.00, -1.00, 236.8, 434.0)">l</text><text xml:space="preserve" font-family="MarkerFelt-Thin" font-size="25.9" fill="#858585" transform="matrix(1.00, 0.00, -0.00, -1.00, 242.0, 434.0)"> </text><text xml:space="preserve" font-family="MarkerFelt-Thin" font-size="25.9" fill="#858585" transform="matrix(1.00, 0.00, -0.00, -1.00, 248.5, 434.0)">d</text><text xml:space="preserve" font-family="MarkerFelt-Thin" font-size="25.9" fill="#858585" transform="matrix(1.00, 0.00, -0.00, -1.00, 259.6, 434.0)">e</text><text xml:space="preserve" font-family="MarkerFelt-Thin" font-size="25.9" fill="#858585" transform="matrix(1.00, 0.00, -0.00, -1.00, 271.4, 434.0)">s</text><text xml:space="preserve" font-family="MarkerFelt-Thin" font-size="25.9" fill="#858585" transform="matrix(1.00, 0.00, -0.00, -1.00, 282.0, 434.0)">k</text><text xml:space="preserve" font-family="MarkerFelt-Thin" font-size="25.9" fill="#858585" transform="matrix(1.00, 0.00, -0.00, -1.00, 296.0, 434.0)">t</text><text xml:space="preserve" font-family="MarkerFelt-Thin" font-size="25.9" fill="#858585" transform="matrix(1.00, 0.00, -0.00, -1.00, 306.4, 434.0)">o</text><text xml:space="preserve" font-family="MarkerFelt-Thin" font-size="25.9" fill="#858585" transform="matrix(1.00, 0.00, -0.00, -1.00, 317.9, 434.0)">p</text><text xml:space="preserve" font-family="MarkerFelt-Thin" font-size="25.9" fill="#858585" transform="matrix(1.00, 0.00, -0.00, -1.00, 329.1, 434.0)"> </text><text xml:space="preserve" font-family="MarkerFelt-Thin" font-size="25.9" fill="#858585" transform="matrix(1.00, 0.00, -0.00, -1.00, 335.5, 434.0)">c</text><text xml:space="preserve" font-family="MarkerFelt-Thin" font-size="25.9" fill="#858585" transform="matrix(1.00, 0.00, -0.00, -1.00, 346.6, 434.0)">o</text><text xml:space="preserve" font-family="MarkerFelt-Thin" font-size="25.9" fill="#858585" transform="matrix(1.00, 0.00, -0.00, -1.00, 357.8, 434.0)">m</text><text xml:space="preserve" font-family="MarkerFelt-Thin" font-size="25.9" fill="#858585" transform="matrix(1.00, 0.00, -0.00, -1.00, 377.4, 434.0)">p</text><text xml:space="preserve" font-family="MarkerFelt-Thin" font-size="25.9" fill="#858585" transform="matrix(1.00, 0.00, -0.00, -1.00, 389.7, 434.0)">u</text><text xml:space="preserve" font-family="MarkerFelt-Thin" font-size="25.9" fill="#858585" transform="matrix(1.00, 0.00, -0.00, -1.00, 402.1, 434.0)">t</text><text xml:space="preserve" font-family="MarkerFelt-Thin" font-size="25.9" fill="#858585" transform="matrix(1.00, 0.00, -0.00, -1.00, 412.0, 434.0)">e</text><text xml:space="preserve" font-family="MarkerFelt-Thin" font-size="25.9" fill="#858585" transform="matrix(1.00, 0.00, -0.00, -1.00, 423.4, 434.0)">r</text><text xml:space="preserve" font-family="MarkerFelt-Thin" font-size="25.9" fill="#858585" transform="matrix(1.00, 0.00, -0.00, -1.00, 433.2, 434.0)">s</text><g><clipPath id="clip-151"><path d="M 104.0 380.4 L 119.1 380.4 L 119.1 394.5 L 104.0 394.5 Z M 104.0 380.4 "></path></clipPath><g clip-path="url(#clip-151)"><path d="M 118.9 385.5 C 119.0 385.3 119.1 385.0 119.1 384.8 C 119.1 384.4 118.8 384.0 118.3 383.6 C 117.8 383.2 117.3 383.0 116.6 383.0 C 115.8 383.0 114.9 383.6 113.8 384.8 C 113.8 384.8 113.8 383.0 113.8 383.0 C 113.8 382.8 113.8 382.6 113.9 382.4 C 114.0 382.1 114.1 381.9 114.1 381.8 C 114.1 381.4 113.9 381.1 113.5 380.8 C 113.1 380.6 112.7 380.4 112.3 380.4 C 111.7 380.4 111.1 380.7 110.6 381.3 C 110.4 381.5 110.4 382.0 110.4 382.8 C 110.5 383.6 110.5 384.4 110.6 385.3 C 110.2 385.0 109.4 384.5 108.2 383.9 C 108.0 383.6 107.6 383.4 106.8 383.1 C 106.2 383.1 105.6 383.2 104.9 383.5 C 104.3 383.7 104.0 384.1 104.0 384.6 C 104.0 384.7 104.0 384.8 104.1 384.9 C 104.2 385.2 104.5 385.4 104.8 385.5 C 105.5 385.7 105.8 385.8 105.9 385.9 C 105.9 385.9 109.2 387.7 109.2 387.7 C 109.2 387.7 106.8 388.8 106.8 388.8 C 106.5 388.8 106.0 389.0 105.5 389.3 C 105.3 389.5 105.3 389.7 105.3 389.9 C 105.3 390.5 105.6 391.0 106.3 391.5 C 107.0 392.1 107.6 392.3 108.3 392.3 C 108.5 392.3 108.7 392.3 108.9 392.2 C 109.2 392.2 109.4 392.0 109.5 391.6 C 109.8 391.2 110.1 390.9 110.6 390.6 C 110.6 390.6 110.7 392.7 110.7 392.7 C 110.6 393.0 110.6 393.4 110.7 394.0 C 110.9 394.3 111.5 394.5 112.5 394.5 C 113.3 394.5 113.9 394.3 114.2 393.8 C 114.3 393.5 114.3 393.1 114.3 392.3 C 114.2 391.6 114.1 390.9 114.0 390.3 C 114.0 390.3 115.3 390.9 115.3 390.9 C 115.5 391.1 116.0 391.4 116.6 391.7 C 117.1 391.8 117.6 391.6 118.0 391.2 C 118.5 390.8 118.7 390.3 118.7 389.9 C 118.7 389.7 118.7 389.5 118.6 389.3 C 118.4 389.1 118.2 389.0 117.9 388.9 C 117.6 388.8 117.3 388.8 117.2 388.7 C 117.2 388.7 115.4 387.4 115.4 387.4 C 115.4 387.4 117.7 386.1 117.7 386.1 C 118.0 386.0 118.4 385.8 118.9 385.5 Z M 118.9 385.5 " fill="#3995D6"></path></g></g><text xml:space="preserve" font-family="MarkerFelt-Thin" font-size="25.9" fill="#858585" transform="matrix(1.00, 0.00, -0.00, -1.00, 129.0, 379.0)">E</text><text xml:space="preserve" font-family="MarkerFelt-Thin" font-size="25.9" fill="#858585" transform="matrix(1.00, 0.00, -0.00, -1.00, 140.9, 379.0)">a</text><text xml:space="preserve" font-family="MarkerFelt-Thin" font-size="25.9" fill="#858585" transform="matrix(1.00, 0.00, -0.00, -1.00, 153.7, 379.0)">s</text><text xml:space="preserve" font-family="MarkerFelt-Thin" font-size="25.9" fill="#858585" transform="matrix(1.00, 0.00, -0.00, -1.00, 164.4, 379.0)">i</text><text xml:space="preserve" font-family="MarkerFelt-Thin" font-size="25.9" fill="#858585" transform="matrix(1.00, 0.00, -0.00, -1.00, 170.8, 379.0)">l</text><text xml:space="preserve" font-family="MarkerFelt-Thin" font-size="25.9" fill="#858585" transform="matrix(1.00, 0.00, -0.00, -1.00, 177.3, 379.0)">y</text><text xml:space="preserve" font-family="MarkerFelt-Thin" font-size="25.9" fill="#858585" transform="matrix(1.00, 0.00, -0.00, -1.00, 189.5, 379.0)"> </text><text xml:space="preserve" font-family="MarkerFelt-Thin" font-size="25.9" fill="#858585" transform="matrix(1.00, 0.00, -0.00, -1.00, 196.0, 379.0)">p</text><text xml:space="preserve" font-family="MarkerFelt-Thin" font-size="25.9" fill="#858585" transform="matrix(1.00, 0.00, -0.00, -1.00, 208.3, 379.0)">a</text><text xml:space="preserve" font-family="MarkerFelt-Thin" font-size="25.9" fill="#858585" transform="matrix(1.00, 0.00, -0.00, -1.00, 220.9, 379.0)">c</text><text xml:space="preserve" font-family="MarkerFelt-Thin" font-size="25.9" fill="#858585" transform="matrix(1.00, 0.00, -0.00, -1.00, 231.7, 379.0)">k</text><text xml:space="preserve" font-family="MarkerFelt-Thin" font-size="25.9" fill="#858585" transform="matrix(1.00, 0.00, -0.00, -1.00, 246.3, 379.0)">a</text><text xml:space="preserve" font-family="MarkerFelt-Thin" font-size="25.9" fill="#858585" transform="matrix(1.00, 0.00, -0.00, -1.00, 258.7, 379.0)">g</text><text xml:space="preserve" font-family="MarkerFelt-Thin" font-size="25.9" fill="#858585" transform="matrix(1.00, 0.00, -0.00, -1.00, 270.4, 379.0)">e</text><text xml:space="preserve" font-family="MarkerFelt-Thin" font-size="25.9" fill="#858585" transform="matrix(1.00, 0.00, -0.00, -1.00, 281.9, 379.0)">d</text><text xml:space="preserve" font-family="MarkerFelt-Thin" font-size="25.9" fill="#858585" transform="matrix(1.00, 0.00, -0.00, -1.00, 293.0, 379.0)"> </text><text xml:space="preserve" font-family="MarkerFelt-Thin" font-size="25.9" fill="#858585" transform="matrix(1.00, 0.00, -0.00, -1.00, 299.5, 379.0)">f</text><text xml:space="preserve" font-family="MarkerFelt-Thin" font-size="25.9" fill="#858585" transform="matrix(1.00, 0.00, -0.00, -1.00, 310.2, 379.0)">o</text><text xml:space="preserve" font-family="MarkerFelt-Thin" font-size="25.9" fill="#858585" transform="matrix(1.00, 0.00, -0.00, -1.00, 321.8, 379.0)">r</text><text xml:space="preserve" font-family="MarkerFelt-Thin" font-size="25.9" fill="#858585" transform="matrix(1.00, 0.00, -0.00, -1.00, 331.6, 379.0)"> </text><text xml:space="preserve" font-family="MarkerFelt-Thin" font-size="25.9" fill="#858585" transform="matrix(1.00, 0.00, -0.00, -1.00, 338.1, 379.0)">r</text><text xml:space="preserve" font-family="MarkerFelt-Thin" font-size="25.9" fill="#858585" transform="matrix(1.00, 0.00, -0.00, -1.00, 348.0, 379.0)">e</text><text xml:space="preserve" font-family="MarkerFelt-Thin" font-size="25.9" fill="#858585" transform="matrix(1.00, 0.00, -0.00, -1.00, 359.5, 379.0)">d</text><text xml:space="preserve" font-family="MarkerFelt-Thin" font-size="25.9" fill="#858585" transform="matrix(1.00, 0.00, -0.00, -1.00, 371.2, 379.0)">i</text><text xml:space="preserve" font-family="MarkerFelt-Thin" font-size="25.9" fill="#858585" transform="matrix(1.00, 0.00, -0.00, -1.00, 377.3, 379.0)">s</text><text xml:space="preserve" font-family="MarkerFelt-Thin" font-size="25.9" fill="#858585" transform="matrix(1.00, 0.00, -0.00, -1.00, 388.6, 379.0)">t</text><text xml:space="preserve" font-family="MarkerFelt-Thin" font-size="25.9" fill="#858585" transform="matrix(1.00, 0.00, -0.00, -1.00, 399.8, 379.0)">r</text><text xml:space="preserve" font-family="MarkerFelt-Thin" font-size="25.9" fill="#858585" transform="matrix(1.00, 0.00, -0.00, -1.00, 411.3, 379.0)">i</text><text xml:space="preserve" font-family="MarkerFelt-Thin" font-size="25.9" fill="#858585" transform="matrix(1.00, 0.00, -0.00, -1.00, 417.5, 379.0)">b</text><text xml:space="preserve" font-family="MarkerFelt-Thin" font-size="25.9" fill="#858585" transform="matrix(1.00, 0.00, -0.00, -1.00, 429.8, 379.0)">u</text><text xml:space="preserve" font-family="MarkerFelt-Thin" font-size="25.9" fill="#858585" transform="matrix(1.00, 0.00, -0.00, -1.00, 442.2, 379.0)">t</text><text xml:space="preserve" font-family="MarkerFelt-Thin" font-size="25.9" fill="#858585" transform="matrix(1.00, 0.00, -0.00, -1.00, 453.4, 379.0)">i</text><text xml:space="preserve" font-family="MarkerFelt-Thin" font-size="25.9" fill="#858585" transform="matrix(1.00, 0.00, -0.00, -1.00, 459.4, 379.0)">o</text><text xml:space="preserve" font-family="MarkerFelt-Thin" font-size="25.9" fill="#858585" transform="matrix(1.00, 0.00, -0.00, -1.00, 471.1, 379.0)">n</text><g><clipPath id="clip-152"><path d="M 104.0 325.1 L 119.1 325.1 L 119.1 339.1 L 104.0 339.1 Z M 104.0 325.1 "></path></clipPath><g clip-path="url(#clip-152)"><path d="M 118.9 330.1 C 119.0 329.9 119.1 329.7 119.1 329.5 C 119.1 329.0 118.8 328.6 118.3 328.2 C 117.8 327.8 117.3 327.6 116.6 327.6 C 115.8 327.6 114.9 328.2 113.8 329.5 C 113.8 329.5 113.8 327.6 113.8 327.6 C 113.8 327.5 113.8 327.2 113.9 327.0 C 114.0 326.7 114.1 326.6 114.1 326.4 C 114.1 326.1 113.9 325.7 113.5 325.5 C 113.1 325.2 112.7 325.1 112.3 325.1 C 111.7 325.1 111.1 325.4 110.6 326.0 C 110.4 326.1 110.4 326.6 110.4 327.4 C 110.5 328.2 110.5 329.1 110.6 329.9 C 110.2 329.6 109.4 329.1 108.2 328.5 C 108.0 328.3 107.6 328.0 106.8 327.8 C 106.2 327.7 105.6 327.8 104.9 328.1 C 104.3 328.4 104.0 328.8 104.0 329.2 C 104.0 329.3 104.0 329.5 104.1 329.6 C 104.2 329.9 104.5 330.0 104.8 330.2 C 105.5 330.4 105.8 330.5 105.9 330.5 C 105.9 330.5 109.2 332.3 109.2 332.3 C 109.2 332.3 106.8 333.5 106.8 333.5 C 106.5 333.5 106.0 333.6 105.5 334.0 C 105.3 334.1 105.3 334.3 105.3 334.5 C 105.3 335.1 105.6 335.7 106.3 336.2 C 107.0 336.7 107.6 337.0 108.3 337.0 C 108.5 337.0 108.7 336.9 108.9 336.9 C 109.2 336.8 109.4 336.6 109.5 336.3 C 109.8 335.9 110.1 335.5 110.6 335.2 C 110.6 335.2 110.7 337.3 110.7 337.3 C 110.6 337.6 110.6 338.1 110.7 338.6 C 110.9 339.0 111.5 339.1 112.5 339.1 C 113.3 339.1 113.9 338.9 114.2 338.4 C 114.3 338.2 114.3 337.7 114.3 336.9 C 114.2 336.3 114.1 335.6 114.0 334.9 C 114.0 334.9 115.3 335.5 115.3 335.5 C 115.5 335.8 116.0 336.1 116.6 336.4 C 117.1 336.4 117.6 336.2 118.0 335.8 C 118.5 335.4 118.7 335.0 118.7 334.5 C 118.7 334.3 118.7 334.1 118.6 333.9 C 118.4 333.7 118.2 333.6 117.9 333.6 C 117.6 333.5 117.3 333.4 117.2 333.3 C 117.2 333.3 115.4 332.0 115.4 332.0 C 115.4 332.0 117.7 330.7 117.7 330.7 C 118.0 330.6 118.4 330.4 118.9 330.1 Z M 118.9 330.1 " fill="#3995D6"></path></g></g><text xml:space="preserve" font-family="MarkerFelt-Thin" font-size="25.9" fill="#858585" transform="matrix(1.00, 0.00, -0.00, -1.00, 129.0, 324.0)">W</text><text xml:space="preserve" font-family="MarkerFelt-Thin" font-size="25.9" fill="#858585" transform="matrix(1.00, 0.00, -0.00, -1.00, 151.3, 324.0)">e</text><text xml:space="preserve" font-family="MarkerFelt-Thin" font-size="25.9" fill="#858585" transform="matrix(1.00, 0.00, -0.00, -1.00, 163.3, 324.0)">a</text><text xml:space="preserve" font-family="MarkerFelt-Thin" font-size="25.9" fill="#858585" transform="matrix(1.00, 0.00, -0.00, -1.00, 176.5, 324.0)">l</text><text xml:space="preserve" font-family="MarkerFelt-Thin" font-size="25.9" fill="#858585" transform="matrix(1.00, 0.00, -0.00, -1.00, 183.3, 324.0)">t</text><text xml:space="preserve" font-family="MarkerFelt-Thin" font-size="25.9" fill="#858585" transform="matrix(1.00, 0.00, -0.00, -1.00, 194.1, 324.0)">h</text><text xml:space="preserve" font-family="MarkerFelt-Thin" font-size="25.9" fill="#858585" transform="matrix(1.00, 0.00, -0.00, -1.00, 206.2, 324.0)"> </text><text xml:space="preserve" font-family="MarkerFelt-Thin" font-size="25.9" fill="#858585" transform="matrix(1.00, 0.00, -0.00, -1.00, 212.7, 324.0)">o</text><text xml:space="preserve" font-family="MarkerFelt-Thin" font-size="25.9" fill="#858585" transform="matrix(1.00, 0.00, -0.00, -1.00, 224.5, 324.0)">f</text><text xml:space="preserve" font-family="MarkerFelt-Thin" font-size="25.9" fill="#858585" transform="matrix(1.00, 0.00, -0.00, -1.00, 233.8, 324.0)"> </text><text xml:space="preserve" font-family="MarkerFelt-Thin" font-size="25.9" fill="#858585" transform="matrix(1.00, 0.00, -0.00, -1.00, 240.3, 324.0)">e</text><text xml:space="preserve" font-family="MarkerFelt-Thin" font-size="25.9" fill="#858585" transform="matrix(1.00, 0.00, -0.00, -1.00, 252.2, 324.0)">x</text><text xml:space="preserve" font-family="MarkerFelt-Thin" font-size="25.9" fill="#858585" transform="matrix(1.00, 0.00, -0.00, -1.00, 264.2, 324.0)">i</text><text xml:space="preserve" font-family="MarkerFelt-Thin" font-size="25.9" fill="#858585" transform="matrix(1.00, 0.00, -0.00, -1.00, 270.3, 324.0)">s</text><text xml:space="preserve" font-family="MarkerFelt-Thin" font-size="25.9" fill="#858585" transform="matrix(1.00, 0.00, -0.00, -1.00, 281.5, 324.0)">t</text><text xml:space="preserve" font-family="MarkerFelt-Thin" font-size="25.9" fill="#858585" transform="matrix(1.00, 0.00, -0.00, -1.00, 292.6, 324.0)">i</text><text xml:space="preserve" font-family="MarkerFelt-Thin" font-size="25.9" fill="#858585" transform="matrix(1.00, 0.00, -0.00, -1.00, 299.1, 324.0)">n</text><text xml:space="preserve" font-family="MarkerFelt-Thin" font-size="25.9" fill="#858585" transform="matrix(1.00, 0.00, -0.00, -1.00, 312.5, 324.0)">g</text><text xml:space="preserve" font-family="MarkerFelt-Thin" font-size="25.9" fill="#858585" transform="matrix(1.00, 0.00, -0.00, -1.00, 323.4, 324.0)"> </text><text xml:space="preserve" font-family="MarkerFelt-Thin" font-size="25.9" fill="#858585" transform="matrix(1.00, 0.00, -0.00, -1.00, 329.9, 324.0)">l</text><text xml:space="preserve" font-family="MarkerFelt-Thin" font-size="25.9" fill="#858585" transform="matrix(1.00, 0.00, -0.00, -1.00, 336.0, 324.0)">i</text><text xml:space="preserve" font-family="MarkerFelt-Thin" font-size="25.9" fill="#858585" transform="matrix(1.00, 0.00, -0.00, -1.00, 342.2, 324.0)">b</text><text xml:space="preserve" font-family="MarkerFelt-Thin" font-size="25.9" fill="#858585" transform="matrix(1.00, 0.00, -0.00, -1.00, 354.2, 324.0)">r</text><text xml:space="preserve" font-family="MarkerFelt-Thin" font-size="25.9" fill="#858585" transform="matrix(1.00, 0.00, -0.00, -1.00, 364.8, 324.0)">a</text><text xml:space="preserve" font-family="MarkerFelt-Thin" font-size="25.9" fill="#858585" transform="matrix(1.00, 0.00, -0.00, -1.00, 377.8, 324.0)">r</text><text xml:space="preserve" font-family="MarkerFelt-Thin" font-size="25.9" fill="#858585" transform="matrix(1.00, 0.00, -0.00, -1.00, 389.2, 324.0)">i</text><text xml:space="preserve" font-family="MarkerFelt-Thin" font-size="25.9" fill="#858585" transform="matrix(1.00, 0.00, -0.00, -1.00, 394.9, 324.0)">e</text><text xml:space="preserve" font-family="MarkerFelt-Thin" font-size="25.9" fill="#858585" transform="matrix(1.00, 0.00, -0.00, -1.00, 406.7, 324.0)">s</text><g><clipPath id="clip-153"><path d="M 104.0 269.7 L 119.1 269.7 L 119.1 283.8 L 104.0 283.8 Z M 104.0 269.7 "></path></clipPath><g clip-path="url(#clip-153)"><path d="M 118.9 274.8 C 119.0 274.6 119.1 274.3 119.1 274.1 C 119.1 273.7 118.8 273.2 118.3 272.9 C 117.8 272.5 117.3 272.3 116.6 272.3 C 115.8 272.3 114.9 272.9 113.8 274.1 C 113.8 274.1 113.8 272.3 113.8 272.3 C 113.8 272.1 113.8 271.9 113.9 271.6 C 114.0 271.4 114.1 271.2 114.1 271.1 C 114.1 270.7 113.9 270.4 113.5 270.1 C 113.1 269.8 112.7 269.7 112.3 269.7 C 111.7 269.7 111.1 270.0 110.6 270.6 C 110.4 270.8 110.4 271.3 110.4 272.1 C 110.5 272.9 110.5 273.7 110.6 274.5 C 110.2 274.2 109.4 273.8 108.2 273.2 C 108.0 272.9 107.6 272.7 106.8 272.4 C 106.2 272.3 105.6 272.5 104.9 272.7 C 104.3 273.0 104.0 273.4 104.0 273.9 C 104.0 274.0 104.0 274.1 104.1 274.2 C 104.2 274.5 104.5 274.7 104.8 274.8 C 105.5 275.0 105.8 275.1 105.9 275.2 C 105.9 275.2 109.2 277.0 109.2 277.0 C 109.2 277.0 106.8 278.1 106.8 278.1 C 106.5 278.1 106.0 278.3 105.5 278.6 C 105.3 278.8 105.3 279.0 105.3 279.2 C 105.3 279.7 105.6 280.3 106.3 280.8 C 107.0 281.4 107.6 281.6 108.3 281.6 C 108.5 281.6 108.7 281.6 108.9 281.5 C 109.2 281.4 109.4 281.2 109.5 280.9 C 109.8 280.5 110.1 280.1 110.6 279.8 C 110.6 279.8 110.7 282.0 110.7 282.0 C 110.6 282.3 110.6 282.7 110.7 283.3 C 110.9 283.6 111.5 283.8 112.5 283.8 C 113.3 283.8 113.9 283.5 114.2 283.0 C 114.3 282.8 114.3 282.3 114.3 281.6 C 114.2 280.9 114.1 280.2 114.0 279.5 C 114.0 279.5 115.3 280.2 115.3 280.2 C 115.5 280.4 116.0 280.7 116.6 281.0 C 117.1 281.0 117.6 280.8 118.0 280.4 C 118.5 280.0 118.7 279.6 118.7 279.1 C 118.7 278.9 118.7 278.7 118.6 278.6 C 118.4 278.4 118.2 278.3 117.9 278.2 C 117.6 278.1 117.3 278.0 117.2 277.9 C 117.2 277.9 115.4 276.7 115.4 276.7 C 115.4 276.7 117.7 275.4 117.7 275.4 C 118.0 275.3 118.4 275.1 118.9 274.8 Z M 118.9 274.8 " fill="#3995D6"></path></g></g><text xml:space="preserve" font-family="MarkerFelt-Thin" font-size="25.9" fill="#858585" transform="matrix(1.00, 0.00, -0.00, -1.00, 129.0, 268.0)">O</text><text xml:space="preserve" font-family="MarkerFelt-Thin" font-size="25.9" fill="#858585" transform="matrix(1.00, 0.00, -0.00, -1.00, 143.7, 268.0)">p</text><text xml:space="preserve" font-family="MarkerFelt-Thin" font-size="25.9" fill="#858585" transform="matrix(1.00, 0.00, -0.00, -1.00, 155.8, 268.0)">e</text><text xml:space="preserve" font-family="MarkerFelt-Thin" font-size="25.9" fill="#858585" transform="matrix(1.00, 0.00, -0.00, -1.00, 167.3, 268.0)">n</text><text xml:space="preserve" font-family="MarkerFelt-Thin" font-size="25.9" fill="#858585" transform="matrix(1.00, 0.00, -0.00, -1.00, 180.0, 268.0)"> </text><text xml:space="preserve" font-family="MarkerFelt-Thin" font-size="25.9" fill="#858585" transform="matrix(1.00, 0.00, -0.00, -1.00, 186.5, 268.0)">S</text><text xml:space="preserve" font-family="MarkerFelt-Thin" font-size="25.9" fill="#858585" transform="matrix(1.00, 0.00, -0.00, -1.00, 200.3, 268.0)">o</text><text xml:space="preserve" font-family="MarkerFelt-Thin" font-size="25.9" fill="#858585" transform="matrix(1.00, 0.00, -0.00, -1.00, 212.2, 268.0)">u</text><text xml:space="preserve" font-family="MarkerFelt-Thin" font-size="25.9" fill="#858585" transform="matrix(1.00, 0.00, -0.00, -1.00, 224.0, 268.0)">r</text><text xml:space="preserve" font-family="MarkerFelt-Thin" font-size="25.9" fill="#858585" transform="matrix(1.00, 0.00, -0.00, -1.00, 233.9, 268.0)">c</text><text xml:space="preserve" font-family="MarkerFelt-Thin" font-size="25.9" fill="#858585" transform="matrix(1.00, 0.00, -0.00, -1.00, 244.7, 268.0)">e</text><g><clipPath id="clip-154"><path d="M 538.0 435.8 L 553.1 435.8 L 553.1 449.9 L 538.0 449.9 Z M 538.0 435.8 "></path></clipPath><g clip-path="url(#clip-154)"><path d="M 552.9 440.8 C 553.0 440.6 553.1 440.4 553.1 440.2 C 553.1 439.7 552.8 439.3 552.3 438.9 C 551.8 438.5 551.3 438.4 550.6 438.4 C 549.8 438.4 548.9 439.0 547.8 440.2 C 547.8 440.2 547.8 438.4 547.8 438.4 C 547.8 438.2 547.8 438.0 547.9 437.7 C 548.0 437.5 548.1 437.3 548.1 437.2 C 548.1 436.8 547.9 436.5 547.5 436.2 C 547.1 435.9 546.7 435.8 546.3 435.8 C 545.7 435.8 545.1 436.1 544.6 436.7 C 544.4 436.9 544.4 437.3 544.4 438.1 C 544.5 439.0 544.5 439.8 544.6 440.6 C 544.2 440.3 543.4 439.9 542.2 439.2 C 542.0 439.0 541.6 438.8 540.8 438.5 C 540.2 438.4 539.6 438.5 538.9 438.8 C 538.3 439.1 538.0 439.5 538.0 440.0 C 538.0 440.1 538.0 440.2 538.1 440.3 C 538.2 440.6 538.5 440.8 538.8 440.9 C 539.5 441.1 539.8 441.2 539.9 441.2 C 539.9 441.2 543.2 443.1 543.2 443.1 C 543.2 443.1 540.8 444.2 540.8 444.2 C 540.5 444.2 540.0 444.4 539.5 444.7 C 539.3 444.9 539.3 445.1 539.3 445.3 C 539.3 445.8 539.6 446.4 540.3 446.9 C 541.0 447.4 541.6 447.7 542.3 447.7 C 542.5 447.7 542.7 447.7 542.9 447.6 C 543.2 447.5 543.4 447.3 543.5 447.0 C 543.8 446.6 544.1 446.2 544.6 445.9 C 544.6 445.9 544.7 448.1 544.7 448.1 C 544.6 448.3 544.6 448.8 544.7 449.3 C 544.9 449.7 545.5 449.9 546.5 449.9 C 547.3 449.9 547.9 449.6 548.2 449.1 C 548.3 448.9 548.3 448.4 548.3 447.7 C 548.2 447.0 548.1 446.3 548.0 445.6 C 548.0 445.6 549.3 446.2 549.3 446.2 C 549.5 446.5 550.0 446.8 550.6 447.1 C 551.1 447.1 551.6 446.9 552.0 446.5 C 552.5 446.1 552.7 445.7 552.7 445.2 C 552.7 445.0 552.7 444.8 552.6 444.6 C 552.4 444.5 552.2 444.3 551.9 444.3 C 551.6 444.2 551.3 444.1 551.2 444.0 C 551.2 444.0 549.4 442.7 549.4 442.7 C 549.4 442.7 551.7 441.5 551.7 441.5 C 552.0 441.4 552.4 441.2 552.9 440.8 Z M 552.9 440.8 " fill="#3995D6"></path></g></g><text xml:space="preserve" font-family="MarkerFelt-Thin" font-size="25.9" fill="#858585" transform="matrix(1.00, 0.00, -0.00, -1.00, 563.0, 434.0)">R</text><text xml:space="preserve" font-family="MarkerFelt-Thin" font-size="25.9" fill="#858585" transform="matrix(1.00, 0.00, -0.00, -1.00, 578.8, 434.0)">u</text><text xml:space="preserve" font-family="MarkerFelt-Thin" font-size="25.9" fill="#858585" transform="matrix(1.00, 0.00, -0.00, -1.00, 590.4, 434.0)">n</text><text xml:space="preserve" font-family="MarkerFelt-Thin" font-size="25.9" fill="#858585" transform="matrix(1.00, 0.00, -0.00, -1.00, 604.2, 434.0)">s</text><text xml:space="preserve" font-family="MarkerFelt-Thin" font-size="25.9" fill="#858585" transform="matrix(1.00, 0.00, -0.00, -1.00, 613.8, 434.0)"> </text><text xml:space="preserve" font-family="MarkerFelt-Thin" font-size="25.9" fill="#858585" transform="matrix(1.00, 0.00, -0.00, -1.00, 620.3, 434.0)">o</text><text xml:space="preserve" font-family="MarkerFelt-Thin" font-size="25.9" fill="#858585" transform="matrix(1.00, 0.00, -0.00, -1.00, 632.0, 434.0)">n</text><text xml:space="preserve" font-family="MarkerFelt-Thin" font-size="25.9" fill="#858585" transform="matrix(1.00, 0.00, -0.00, -1.00, 644.7, 434.0)"> </text><text xml:space="preserve" font-family="MarkerFelt-Thin" font-size="25.9" fill="#858585" transform="matrix(1.00, 0.00, -0.00, -1.00, 651.2, 434.0)">a</text><text xml:space="preserve" font-family="MarkerFelt-Thin" font-size="25.9" fill="#858585" transform="matrix(1.00, 0.00, -0.00, -1.00, 664.3, 434.0)">l</text><text xml:space="preserve" font-family="MarkerFelt-Thin" font-size="25.9" fill="#858585" transform="matrix(1.00, 0.00, -0.00, -1.00, 670.8, 434.0)">l</text><text xml:space="preserve" font-family="MarkerFelt-Thin" font-size="25.9" fill="#858585" transform="matrix(1.00, 0.00, -0.00, -1.00, 676.0, 434.0)"> </text><text xml:space="preserve" font-family="MarkerFelt-Thin" font-size="25.9" fill="#858585" transform="matrix(1.00, 0.00, -0.00, -1.00, 682.5, 434.0)">d</text><text xml:space="preserve" font-family="MarkerFelt-Thin" font-size="25.9" fill="#858585" transform="matrix(1.00, 0.00, -0.00, -1.00, 693.6, 434.0)">e</text><text xml:space="preserve" font-family="MarkerFelt-Thin" font-size="25.9" fill="#858585" transform="matrix(1.00, 0.00, -0.00, -1.00, 705.4, 434.0)">s</text><text xml:space="preserve" font-family="MarkerFelt-Thin" font-size="25.9" fill="#858585" transform="matrix(1.00, 0.00, -0.00, -1.00, 716.0, 434.0)">k</text><text xml:space="preserve" font-family="MarkerFelt-Thin" font-size="25.9" fill="#858585" transform="matrix(1.00, 0.00, -0.00, -1.00, 730.0, 434.0)">t</text><text xml:space="preserve" font-family="MarkerFelt-Thin" font-size="25.9" fill="#858585" transform="matrix(1.00, 0.00, -0.00, -1.00, 740.4, 434.0)">o</text><text xml:space="preserve" font-family="MarkerFelt-Thin" font-size="25.9" fill="#858585" transform="matrix(1.00, 0.00, -0.00, -1.00, 751.9, 434.0)">p</text><text xml:space="preserve" font-family="MarkerFelt-Thin" font-size="25.9" fill="#858585" transform="matrix(1.00, 0.00, -0.00, -1.00, 763.1, 434.0)"> </text><text xml:space="preserve" font-family="MarkerFelt-Thin" font-size="25.9" fill="#858585" transform="matrix(1.00, 0.00, -0.00, -1.00, 769.5, 434.0)">c</text><text xml:space="preserve" font-family="MarkerFelt-Thin" font-size="25.9" fill="#858585" transform="matrix(1.00, 0.00, -0.00, -1.00, 780.6, 434.0)">o</text><text xml:space="preserve" font-family="MarkerFelt-Thin" font-size="25.9" fill="#858585" transform="matrix(1.00, 0.00, -0.00, -1.00, 791.8, 434.0)">m</text><text xml:space="preserve" font-family="MarkerFelt-Thin" font-size="25.9" fill="#858585" transform="matrix(1.00, 0.00, -0.00, -1.00, 811.4, 434.0)">p</text><text xml:space="preserve" font-family="MarkerFelt-Thin" font-size="25.9" fill="#858585" transform="matrix(1.00, 0.00, -0.00, -1.00, 823.7, 434.0)">u</text><text xml:space="preserve" font-family="MarkerFelt-Thin" font-size="25.9" fill="#858585" transform="matrix(1.00, 0.00, -0.00, -1.00, 836.1, 434.0)">t</text><text xml:space="preserve" font-family="MarkerFelt-Thin" font-size="25.9" fill="#858585" transform="matrix(1.00, 0.00, -0.00, -1.00, 846.0, 434.0)">e</text><text xml:space="preserve" font-family="MarkerFelt-Thin" font-size="25.9" fill="#858585" transform="matrix(1.00, 0.00, -0.00, -1.00, 857.4, 434.0)">r</text><text xml:space="preserve" font-family="MarkerFelt-Thin" font-size="25.9" fill="#858585" transform="matrix(1.00, 0.00, -0.00, -1.00, 867.2, 434.0)">s</text><g><clipPath id="clip-155"><path d="M 538.0 380.4 L 553.1 380.4 L 553.1 394.5 L 538.0 394.5 Z M 538.0 380.4 "></path></clipPath><g clip-path="url(#clip-155)"><path d="M 552.9 385.5 C 553.0 385.3 553.1 385.0 553.1 384.8 C 553.1 384.4 552.8 384.0 552.3 383.6 C 551.8 383.2 551.3 383.0 550.6 383.0 C 549.8 383.0 548.9 383.6 547.8 384.8 C 547.8 384.8 547.8 383.0 547.8 383.0 C 547.8 382.8 547.8 382.6 547.9 382.4 C 548.0 382.1 548.1 381.9 548.1 381.8 C 548.1 381.4 547.9 381.1 547.5 380.8 C 547.1 380.6 546.7 380.4 546.3 380.4 C 545.7 380.4 545.1 380.7 544.6 381.3 C 544.4 381.5 544.4 382.0 544.4 382.8 C 544.5 383.6 544.5 384.4 544.6 385.3 C 544.2 385.0 543.4 384.5 542.2 383.9 C 542.0 383.6 541.6 383.4 540.8 383.1 C 540.2 383.1 539.6 383.2 538.9 383.5 C 538.3 383.7 538.0 384.1 538.0 384.6 C 538.0 384.7 538.0 384.8 538.1 384.9 C 538.2 385.2 538.5 385.4 538.8 385.5 C 539.5 385.7 539.8 385.8 539.9 385.9 C 539.9 385.9 543.2 387.7 543.2 387.7 C 543.2 387.7 540.8 388.8 540.8 388.8 C 540.5 388.8 540.0 389.0 539.5 389.3 C 539.3 389.5 539.3 389.7 539.3 389.9 C 539.3 390.5 539.6 391.0 540.3 391.5 C 541.0 392.1 541.6 392.3 542.3 392.3 C 542.5 392.3 542.7 392.3 542.9 392.2 C 543.2 392.2 543.4 392.0 543.5 391.6 C 543.8 391.2 544.1 390.9 544.6 390.6 C 544.6 390.6 544.7 392.7 544.7 392.7 C 544.6 393.0 544.6 393.4 544.7 394.0 C 544.9 394.3 545.5 394.5 546.5 394.5 C 547.3 394.5 547.9 394.3 548.2 393.8 C 548.3 393.5 548.3 393.1 548.3 392.3 C 548.2 391.6 548.1 390.9 548.0 390.3 C 548.0 390.3 549.3 390.9 549.3 390.9 C 549.5 391.1 550.0 391.4 550.6 391.7 C 551.1 391.8 551.6 391.6 552.0 391.2 C 552.5 390.8 552.7 390.3 552.7 389.9 C 552.7 389.7 552.7 389.5 552.6 389.3 C 552.4 389.1 552.2 389.0 551.9 388.9 C 551.6 388.8 551.3 388.8 551.2 388.7 C 551.2 388.7 549.4 387.4 549.4 387.4 C 549.4 387.4 551.7 386.1 551.7 386.1 C 552.0 386.0 552.4 385.8 552.9 385.5 Z M 552.9 385.5 " fill="#3995D6"></path></g></g><text xml:space="preserve" font-family="MarkerFelt-Thin" font-size="25.9" fill="#858585" transform="matrix(1.00, 0.00, -0.00, -1.00, 563.0, 379.0)">E</text><text xml:space="preserve" font-family="MarkerFelt-Thin" font-size="25.9" fill="#858585" transform="matrix(1.00, 0.00, -0.00, -1.00, 574.9, 379.0)">a</text><text xml:space="preserve" font-family="MarkerFelt-Thin" font-size="25.9" fill="#858585" transform="matrix(1.00, 0.00, -0.00, -1.00, 587.7, 379.0)">s</text><text xml:space="preserve" font-family="MarkerFelt-Thin" font-size="25.9" fill="#858585" transform="matrix(1.00, 0.00, -0.00, -1.00, 598.4, 379.0)">i</text><text xml:space="preserve" font-family="MarkerFelt-Thin" font-size="25.9" fill="#858585" transform="matrix(1.00, 0.00, -0.00, -1.00, 604.8, 379.0)">l</text><text xml:space="preserve" font-family="MarkerFelt-Thin" font-size="25.9" fill="#858585" transform="matrix(1.00, 0.00, -0.00, -1.00, 611.3, 379.0)">y</text><text xml:space="preserve" font-family="MarkerFelt-Thin" font-size="25.9" fill="#858585" transform="matrix(1.00, 0.00, -0.00, -1.00, 623.5, 379.0)"> </text><text xml:space="preserve" font-family="MarkerFelt-Thin" font-size="25.9" fill="#858585" transform="matrix(1.00, 0.00, -0.00, -1.00, 630.0, 379.0)">p</text><text xml:space="preserve" font-family="MarkerFelt-Thin" font-size="25.9" fill="#858585" transform="matrix(1.00, 0.00, -0.00, -1.00, 642.3, 379.0)">a</text><text xml:space="preserve" font-family="MarkerFelt-Thin" font-size="25.9" fill="#858585" transform="matrix(1.00, 0.00, -0.00, -1.00, 654.9, 379.0)">c</text><text xml:space="preserve" font-family="MarkerFelt-Thin" font-size="25.9" fill="#858585" transform="matrix(1.00, 0.00, -0.00, -1.00, 665.7, 379.0)">k</text><text xml:space="preserve" font-family="MarkerFelt-Thin" font-size="25.9" fill="#858585" transform="matrix(1.00, 0.00, -0.00, -1.00, 680.3, 379.0)">a</text><text xml:space="preserve" font-family="MarkerFelt-Thin" font-size="25.9" fill="#858585" transform="matrix(1.00, 0.00, -0.00, -1.00, 692.7, 379.0)">g</text><text xml:space="preserve" font-family="MarkerFelt-Thin" font-size="25.9" fill="#858585" transform="matrix(1.00, 0.00, -0.00, -1.00, 704.4, 379.0)">e</text><text xml:space="preserve" font-family="MarkerFelt-Thin" font-size="25.9" fill="#858585" transform="matrix(1.00, 0.00, -0.00, -1.00, 715.9, 379.0)">d</text><text xml:space="preserve" font-family="MarkerFelt-Thin" font-size="25.9" fill="#858585" transform="matrix(1.00, 0.00, -0.00, -1.00, 727.0, 379.0)"> </text><text xml:space="preserve" font-family="MarkerFelt-Thin" font-size="25.9" fill="#858585" transform="matrix(1.00, 0.00, -0.00, -1.00, 733.5, 379.0)">f</text><text xml:space="preserve" font-family="MarkerFelt-Thin" font-size="25.9" fill="#858585" transform="matrix(1.00, 0.00, -0.00, -1.00, 744.2, 379.0)">o</text><text xml:space="preserve" font-family="MarkerFelt-Thin" font-size="25.9" fill="#858585" transform="matrix(1.00, 0.00, -0.00, -1.00, 755.8, 379.0)">r</text><text xml:space="preserve" font-family="MarkerFelt-Thin" font-size="25.9" fill="#858585" transform="matrix(1.00, 0.00, -0.00, -1.00, 765.6, 379.0)"> </text><text xml:space="preserve" font-family="MarkerFelt-Thin" font-size="25.9" fill="#858585" transform="matrix(1.00, 0.00, -0.00, -1.00, 772.1, 379.0)">r</text><text xml:space="preserve" font-family="MarkerFelt-Thin" font-size="25.9" fill="#858585" transform="matrix(1.00, 0.00, -0.00, -1.00, 782.0, 379.0)">e</text><text xml:space="preserve" font-family="MarkerFelt-Thin" font-size="25.9" fill="#858585" transform="matrix(1.00, 0.00, -0.00, -1.00, 793.5, 379.0)">d</text><text xml:space="preserve" font-family="MarkerFelt-Thin" font-size="25.9" fill="#858585" transform="matrix(1.00, 0.00, -0.00, -1.00, 805.2, 379.0)">i</text><text xml:space="preserve" font-family="MarkerFelt-Thin" font-size="25.9" fill="#858585" transform="matrix(1.00, 0.00, -0.00, -1.00, 811.3, 379.0)">s</text><text xml:space="preserve" font-family="MarkerFelt-Thin" font-size="25.9" fill="#858585" transform="matrix(1.00, 0.00, -0.00, -1.00, 822.6, 379.0)">t</text><text xml:space="preserve" font-family="MarkerFelt-Thin" font-size="25.9" fill="#858585" transform="matrix(1.00, 0.00, -0.00, -1.00, 833.8, 379.0)">r</text><text xml:space="preserve" font-family="MarkerFelt-Thin" font-size="25.9" fill="#858585" transform="matrix(1.00, 0.00, -0.00, -1.00, 845.3, 379.0)">i</text><text xml:space="preserve" font-family="MarkerFelt-Thin" font-size="25.9" fill="#858585" transform="matrix(1.00, 0.00, -0.00, -1.00, 851.5, 379.0)">b</text><text xml:space="preserve" font-family="MarkerFelt-Thin" font-size="25.9" fill="#858585" transform="matrix(1.00, 0.00, -0.00, -1.00, 863.8, 379.0)">u</text><text xml:space="preserve" font-family="MarkerFelt-Thin" font-size="25.9" fill="#858585" transform="matrix(1.00, 0.00, -0.00, -1.00, 876.2, 379.0)">t</text><text xml:space="preserve" font-family="MarkerFelt-Thin" font-size="25.9" fill="#858585" transform="matrix(1.00, 0.00, -0.00, -1.00, 887.4, 379.0)">i</text><text xml:space="preserve" font-family="MarkerFelt-Thin" font-size="25.9" fill="#858585" transform="matrix(1.00, 0.00, -0.00, -1.00, 893.4, 379.0)">o</text><text xml:space="preserve" font-family="MarkerFelt-Thin" font-size="25.9" fill="#858585" transform="matrix(1.00, 0.00, -0.00, -1.00, 905.1, 379.0)">n</text><g><clipPath id="clip-156"><path d="M 538.0 325.1 L 553.1 325.1 L 553.1 339.1 L 538.0 339.1 Z M 538.0 325.1 "></path></clipPath><g clip-path="url(#clip-156)"><path d="M 552.9 330.1 C 553.0 329.9 553.1 329.7 553.1 329.5 C 553.1 329.0 552.8 328.6 552.3 328.2 C 551.8 327.8 551.3 327.6 550.6 327.6 C 549.8 327.6 548.9 328.2 547.8 329.5 C 547.8 329.5 547.8 327.6 547.8 327.6 C 547.8 327.5 547.8 327.2 547.9 327.0 C 548.0 326.7 548.1 326.6 548.1 326.4 C 548.1 326.1 547.9 325.7 547.5 325.5 C 547.1 325.2 546.7 325.1 546.3 325.1 C 545.7 325.1 545.1 325.4 544.6 326.0 C 544.4 326.1 544.4 326.6 544.4 327.4 C 544.5 328.2 544.5 329.1 544.6 329.9 C 544.2 329.6 543.4 329.1 542.2 328.5 C 542.0 328.3 541.6 328.0 540.8 327.8 C 540.2 327.7 539.6 327.8 538.9 328.1 C 538.3 328.4 538.0 328.8 538.0 329.2 C 538.0 329.3 538.0 329.5 538.1 329.6 C 538.2 329.9 538.5 330.0 538.8 330.2 C 539.5 330.4 539.8 330.5 539.9 330.5 C 539.9 330.5 543.2 332.3 543.2 332.3 C 543.2 332.3 540.8 333.5 540.8 333.5 C 540.5 333.5 540.0 333.6 539.5 334.0 C 539.3 334.1 539.3 334.3 539.3 334.5 C 539.3 335.1 539.6 335.7 540.3 336.2 C 541.0 336.7 541.6 337.0 542.3 337.0 C 542.5 337.0 542.7 336.9 542.9 336.9 C 543.2 336.8 543.4 336.6 543.5 336.3 C 543.8 335.9 544.1 335.5 544.6 335.2 C 544.6 335.2 544.7 337.3 544.7 337.3 C 544.6 337.6 544.6 338.1 544.7 338.6 C 544.9 339.0 545.5 339.1 546.5 339.1 C 547.3 339.1 547.9 338.9 548.2 338.4 C 548.3 338.2 548.3 337.7 548.3 336.9 C 548.2 336.3 548.1 335.6 548.0 334.9 C 548.0 334.9 549.3 335.5 549.3 335.5 C 549.5 335.8 550.0 336.1 550.6 336.4 C 551.1 336.4 551.6 336.2 552.0 335.8 C 552.5 335.4 552.7 335.0 552.7 334.5 C 552.7 334.3 552.7 334.1 552.6 333.9 C 552.4 333.7 552.2 333.6 551.9 333.6 C 551.6 333.5 551.3 333.4 551.2 333.3 C 551.2 333.3 549.4 332.0 549.4 332.0 C 549.4 332.0 551.7 330.7 551.7 330.7 C 552.0 330.6 552.4 330.4 552.9 330.1 Z M 552.9 330.1 " fill="#3995D6"></path></g></g><text xml:space="preserve" font-family="MarkerFelt-Thin" font-size="25.9" fill="#858585" transform="matrix(1.00, 0.00, -0.00, -1.00, 563.0, 324.0)">W</text><text xml:space="preserve" font-family="MarkerFelt-Thin" font-size="25.9" fill="#858585" transform="matrix(1.00, 0.00, -0.00, -1.00, 585.3, 324.0)">e</text><text xml:space="preserve" font-family="MarkerFelt-Thin" font-size="25.9" fill="#858585" transform="matrix(1.00, 0.00, -0.00, -1.00, 597.3, 324.0)">a</text><text xml:space="preserve" font-family="MarkerFelt-Thin" font-size="25.9" fill="#858585" transform="matrix(1.00, 0.00, -0.00, -1.00, 610.5, 324.0)">l</text><text xml:space="preserve" font-family="MarkerFelt-Thin" font-size="25.9" fill="#858585" transform="matrix(1.00, 0.00, -0.00, -1.00, 617.3, 324.0)">t</text><text xml:space="preserve" font-family="MarkerFelt-Thin" font-size="25.9" fill="#858585" transform="matrix(1.00, 0.00, -0.00, -1.00, 628.1, 324.0)">h</text><text xml:space="preserve" font-family="MarkerFelt-Thin" font-size="25.9" fill="#858585" transform="matrix(1.00, 0.00, -0.00, -1.00, 640.2, 324.0)"> </text><text xml:space="preserve" font-family="MarkerFelt-Thin" font-size="25.9" fill="#858585" transform="matrix(1.00, 0.00, -0.00, -1.00, 646.7, 324.0)">o</text><text xml:space="preserve" font-family="MarkerFelt-Thin" font-size="25.9" fill="#858585" transform="matrix(1.00, 0.00, -0.00, -1.00, 658.5, 324.0)">f</text><text xml:space="preserve" font-family="MarkerFelt-Thin" font-size="25.9" fill="#858585" transform="matrix(1.00, 0.00, -0.00, -1.00, 667.8, 324.0)"> </text><text xml:space="preserve" font-family="MarkerFelt-Thin" font-size="25.9" fill="#858585" transform="matrix(1.00, 0.00, -0.00, -1.00, 674.3, 324.0)">e</text><text xml:space="preserve" font-family="MarkerFelt-Thin" font-size="25.9" fill="#858585" transform="matrix(1.00, 0.00, -0.00, -1.00, 686.2, 324.0)">x</text><text xml:space="preserve" font-family="MarkerFelt-Thin" font-size="25.9" fill="#858585" transform="matrix(1.00, 0.00, -0.00, -1.00, 698.2, 324.0)">i</text><text xml:space="preserve" font-family="MarkerFelt-Thin" font-size="25.9" fill="#858585" transform="matrix(1.00, 0.00, -0.00, -1.00, 704.3, 324.0)">s</text><text xml:space="preserve" font-family="MarkerFelt-Thin" font-size="25.9" fill="#858585" transform="matrix(1.00, 0.00, -0.00, -1.00, 715.5, 324.0)">t</text><text xml:space="preserve" font-family="MarkerFelt-Thin" font-size="25.9" fill="#858585" transform="matrix(1.00, 0.00, -0.00, -1.00, 726.6, 324.0)">i</text><text xml:space="preserve" font-family="MarkerFelt-Thin" font-size="25.9" fill="#858585" transform="matrix(1.00, 0.00, -0.00, -1.00, 733.1, 324.0)">n</text><text xml:space="preserve" font-family="MarkerFelt-Thin" font-size="25.9" fill="#858585" transform="matrix(1.00, 0.00, -0.00, -1.00, 746.5, 324.0)">g</text><text xml:space="preserve" font-family="MarkerFelt-Thin" font-size="25.9" fill="#858585" transform="matrix(1.00, 0.00, -0.00, -1.00, 757.4, 324.0)"> </text><text xml:space="preserve" font-family="MarkerFelt-Thin" font-size="25.9" fill="#858585" transform="matrix(1.00, 0.00, -0.00, -1.00, 763.9, 324.0)">l</text><text xml:space="preserve" font-family="MarkerFelt-Thin" font-size="25.9" fill="#858585" transform="matrix(1.00, 0.00, -0.00, -1.00, 770.0, 324.0)">i</text><text xml:space="preserve" font-family="MarkerFelt-Thin" font-size="25.9" fill="#858585" transform="matrix(1.00, 0.00, -0.00, -1.00, 776.2, 324.0)">b</text><text xml:space="preserve" font-family="MarkerFelt-Thin" font-size="25.9" fill="#858585" transform="matrix(1.00, 0.00, -0.00, -1.00, 788.2, 324.0)">r</text><text xml:space="preserve" font-family="MarkerFelt-Thin" font-size="25.9" fill="#858585" transform="matrix(1.00, 0.00, -0.00, -1.00, 798.8, 324.0)">a</text><text xml:space="preserve" font-family="MarkerFelt-Thin" font-size="25.9" fill="#858585" transform="matrix(1.00, 0.00, -0.00, -1.00, 811.8, 324.0)">r</text><text xml:space="preserve" font-family="MarkerFelt-Thin" font-size="25.9" fill="#858585" transform="matrix(1.00, 0.00, -0.00, -1.00, 823.2, 324.0)">i</text><text xml:space="preserve" font-family="MarkerFelt-Thin" font-size="25.9" fill="#858585" transform="matrix(1.00, 0.00, -0.00, -1.00, 828.9, 324.0)">e</text><text xml:space="preserve" font-family="MarkerFelt-Thin" font-size="25.9" fill="#858585" transform="matrix(1.00, 0.00, -0.00, -1.00, 840.7, 324.0)">s</text><g><clipPath id="clip-157"><path d="M 538.0 269.7 L 553.1 269.7 L 553.1 283.8 L 538.0 283.8 Z M 538.0 269.7 "></path></clipPath><g clip-path="url(#clip-157)"><path d="M 552.9 274.8 C 553.0 274.6 553.1 274.3 553.1 274.1 C 553.1 273.7 552.8 273.2 552.3 272.9 C 551.8 272.5 551.3 272.3 550.6 272.3 C 549.8 272.3 548.9 272.9 547.8 274.1 C 547.8 274.1 547.8 272.3 547.8 272.3 C 547.8 272.1 547.8 271.9 547.9 271.6 C 548.0 271.4 548.1 271.2 548.1 271.1 C 548.1 270.7 547.9 270.4 547.5 270.1 C 547.1 269.8 546.7 269.7 546.3 269.7 C 545.7 269.7 545.1 270.0 544.6 270.6 C 544.4 270.8 544.4 271.3 544.4 272.1 C 544.5 272.9 544.5 273.7 544.6 274.5 C 544.2 274.2 543.4 273.8 542.2 273.2 C 542.0 272.9 541.6 272.7 540.8 272.4 C 540.2 272.3 539.6 272.5 538.9 272.7 C 538.3 273.0 538.0 273.4 538.0 273.9 C 538.0 274.0 538.0 274.1 538.1 274.2 C 538.2 274.5 538.5 274.7 538.8 274.8 C 539.5 275.0 539.8 275.1 539.9 275.2 C 539.9 275.2 543.2 277.0 543.2 277.0 C 543.2 277.0 540.8 278.1 540.8 278.1 C 540.5 278.1 540.0 278.3 539.5 278.6 C 539.3 278.8 539.3 279.0 539.3 279.2 C 539.3 279.7 539.6 280.3 540.3 280.8 C 541.0 281.4 541.6 281.6 542.3 281.6 C 542.5 281.6 542.7 281.6 542.9 281.5 C 543.2 281.4 543.4 281.2 543.5 280.9 C 543.8 280.5 544.1 280.1 544.6 279.8 C 544.6 279.8 544.7 282.0 544.7 282.0 C 544.6 282.3 544.6 282.7 544.7 283.3 C 544.9 283.6 545.5 283.8 546.5 283.8 C 547.3 283.8 547.9 283.5 548.2 283.0 C 548.3 282.8 548.3 282.3 548.3 281.6 C 548.2 280.9 548.1 280.2 548.0 279.5 C 548.0 279.5 549.3 280.2 549.3 280.2 C 549.5 280.4 550.0 280.7 550.6 281.0 C 551.1 281.0 551.6 280.8 552.0 280.4 C 552.5 280.0 552.7 279.6 552.7 279.1 C 552.7 278.9 552.7 278.7 552.6 278.6 C 552.4 278.4 552.2 278.3 551.9 278.2 C 551.6 278.1 551.3 278.0 551.2 277.9 C 551.2 277.9 549.4 276.7 549.4 276.7 C 549.4 276.7 551.7 275.4 551.7 275.4 C 552.0 275.3 552.4 275.1 552.9 274.8 Z M 552.9 274.8 " fill="#3995D6"></path></g></g><text xml:space="preserve" font-family="MarkerFelt-Thin" font-size="25.9" fill="#858585" transform="matrix(1.00, 0.00, -0.00, -1.00, 563.0, 268.0)">O</text><text xml:space="preserve" font-family="MarkerFelt-Thin" font-size="25.9" fill="#858585" transform="matrix(1.00, 0.00, -0.00, -1.00, 577.7, 268.0)">p</text><text xml:space="preserve" font-family="MarkerFelt-Thin" font-size="25.9" fill="#858585" transform="matrix(1.00, 0.00, -0.00, -1.00, 589.8, 268.0)">e</text><text xml:space="preserve" font-family="MarkerFelt-Thin" font-size="25.9" fill="#858585" transform="matrix(1.00, 0.00, -0.00, -1.00, 601.3, 268.0)">n</text><text xml:space="preserve" font-family="MarkerFelt-Thin" font-size="25.9" fill="#858585" transform="matrix(1.00, 0.00, -0.00, -1.00, 614.0, 268.0)"> </text><text xml:space="preserve" font-family="MarkerFelt-Thin" font-size="25.9" fill="#858585" transform="matrix(1.00, 0.00, -0.00, -1.00, 620.5, 268.0)">S</text><text xml:space="preserve" font-family="MarkerFelt-Thin" font-size="25.9" fill="#858585" transform="matrix(1.00, 0.00, -0.00, -1.00, 634.3, 268.0)">o</text><text xml:space="preserve" font-family="MarkerFelt-Thin" font-size="25.9" fill="#858585" transform="matrix(1.00, 0.00, -0.00, -1.00, 646.2, 268.0)">u</text><text xml:space="preserve" font-family="MarkerFelt-Thin" font-size="25.9" fill="#858585" transform="matrix(1.00, 0.00, -0.00, -1.00, 658.0, 268.0)">r</text><text xml:space="preserve" font-family="MarkerFelt-Thin" font-size="25.9" fill="#858585" transform="matrix(1.00, 0.00, -0.00, -1.00, 667.9, 268.0)">c</text><text xml:space="preserve" font-family="MarkerFelt-Thin" font-size="25.9" fill="#858585" transform="matrix(1.00, 0.00, -0.00, -1.00, 678.7, 268.0)">e</text><image xlink:href="../../CEF7D76C-3845-403D-ABBB-795D2CDB866F/assets/BD60DD6390D6B54662324FF59D68737C.png" width="402.00" height="146.00" transform="matrix(1.00, 0.00, -0.00, -1.00, 505.9, 205.9)" opacity="0.70"></image><image xlink:href="../../910212AF-1AE5-4F51-9139-BD01718D421A/assets/84D4918814398691FE01903DE05B406B.png" width="362.00" height="106.00" transform="matrix(1.00, 0.00, -0.00, -1.00, 526.0, 196.0)"></image><text xml:space="preserve" font-family="MarkerFelt-Thin" font-size="40.0" fill="#858484" transform="matrix(1.00, 0.00, -0.00, -1.00, 247.0, 512.0)">J</text><text xml:space="preserve" font-family="MarkerFelt-Thin" font-size="40.0" fill="#858484" transform="matrix(1.00, 0.00, -0.00, -1.00, 265.1, 512.0)">o</text><text xml:space="preserve" font-family="MarkerFelt-Thin" font-size="40.0" fill="#858484" transform="matrix(1.00, 0.00, -0.00, -1.00, 283.2, 512.0)">e</text><text xml:space="preserve" font-family="MarkerFelt-Thin" font-size="40.0" fill="#858484" transform="matrix(1.00, 0.00, -0.00, -1.00, 659.0, 512.0)">J</text><text xml:space="preserve" font-family="MarkerFelt-Thin" font-size="40.0" fill="#858484" transform="matrix(1.00, 0.00, -0.00, -1.00, 676.2, 512.0)">e</text><text xml:space="preserve" font-family="MarkerFelt-Thin" font-size="40.0" fill="#858484" transform="matrix(1.00, 0.00, -0.00, -1.00, 694.0, 512.0)">n</text><text xml:space="preserve" font-family="MarkerFelt-Thin" font-size="40.0" fill="#858484" transform="matrix(1.00, 0.00, -0.00, -1.00, 715.1, 512.0)">n</text><text xml:space="preserve" font-family="MarkerFelt-Thin" font-size="40.0" fill="#858484" transform="matrix(1.00, 0.00, -0.00, -1.00, 735.9, 512.0)">y</text><image xlink:href="../../CEF7D76C-3845-403D-ABBB-795D2CDB866F/assets/A4ACE50C7FFA3EC3416EC2F1998CFD89.png" width="98.00" height="181.00" transform="matrix(1.00, 0.00, -0.00, -0.99, 224.0, 233.0)"></image></g></svg>