<?xml version="1.0" encoding="UTF-8" standalone="no"?><svg xmlns="http://www.w3.org/2000/svg" xmlns:xlink="http://www.w3.org/1999/xlink" clip-rule="evenodd" stroke-miterlimit="4.00" viewBox="0 0 1024 768"><desc>SVG generated by Keynote</desc><defs></defs><g transform="matrix(1.00, 0.00, -0.00, -1.00, 0.0, 768.0)"><path d="M 0.0 768.0 L 1024.0 768.0 L 1024.0 0.0 L 0.0 0.0 Z M 0.0 768.0 " fill="#FEFFFF"></path><text xml:space="preserve" font-family="Helvetica-Light" font-size="70.4" fill="#000000" transform="matrix(1.00, 0.00, -0.00, -1.00, 372.0, 442.0)">W</text><text xml:space="preserve" font-family="Helvetica-Light" font-size="70.4" fill="#000000" transform="matrix(1.00, 0.00, -0.00, -1.00, 432.0, 442.0)">a</text><text xml:space="preserve" font-family="Helvetica-Light" font-size="70.4" fill="#000000" transform="matrix(1.00, 0.00, -0.00, -1.00, 471.1, 442.0)">r</text><text xml:space="preserve" font-family="Helvetica-Light" font-size="70.4" fill="#000000" transform="matrix(1.00, 0.00, -0.00, -1.00, 495.8, 442.0)">n</text><text xml:space="preserve" font-family="Helvetica-Light" font-size="70.4" fill="#000000" transform="matrix(1.00, 0.00, -0.00, -1.00, 535.0, 442.0)">i</text><text xml:space="preserve" font-family="Helvetica-Light" font-size="70.4" fill="#000000" transform="matrix(1.00, 0.00, -0.00, -1.00, 550.6, 442.0)">n</text><text xml:space="preserve" font-family="Helvetica-Light" font-size="70.4" fill="#000000" transform="matrix(1.00, 0.00, -0.00, -1.00, 589.7, 442.0)">g</text><text xml:space="preserve" font-family="Helvetica-Light" font-size="70.4" fill="#000000" transform="matrix(1.00, 0.00, -0.00, -1.00, 632.8, 442.0)">:</text><text xml:space="preserve" font-family="Helvetica-Light" font-size="70.4" fill="#000000" transform="matrix(1.00, 0.00, -0.00, -1.00, 652.3, 442.0)"> </text><text xml:space="preserve" font-family="Helvetica-Light" font-size="70.4" fill="#000000" transform="matrix(1.00, 0.00, -0.00, -1.00, 119.0, 358.0)">E</text><text xml:space="preserve" font-family="Helvetica-Light" font-size="70.4" fill="#000000" transform="matrix(1.00, 0.00, -0.00, -1.00, 162.0, 358.0)">v</text><text xml:space="preserve" font-family="Helvetica-Light" font-size="70.4" fill="#000000" transform="matrix(1.00, 0.00, -0.00, -1.00, 197.2, 358.0)">e</text><text xml:space="preserve" font-family="Helvetica-Light" font-size="70.4" fill="#000000" transform="matrix(1.00, 0.00, -0.00, -1.00, 236.4, 358.0)">r</text><text xml:space="preserve" font-family="Helvetica-Light" font-size="70.4" fill="#000000" transform="matrix(1.00, 0.00, -0.00, -1.00, 261.1, 358.0)">y</text><text xml:space="preserve" font-family="Helvetica-Light" font-size="70.4" fill="#000000" transform="matrix(1.00, 0.00, -0.00, -1.00, 296.3, 358.0)">t</text><text xml:space="preserve" font-family="Helvetica-Light" font-size="70.4" fill="#000000" transform="matrix(1.00, 0.00, -0.00, -1.00, 315.8, 358.0)">h</text><text xml:space="preserve" font-family="Helvetica-Light" font-size="70.4" fill="#000000" transform="matrix(1.00, 0.00, -0.00, -1.00, 355.0, 358.0)">i</text><text xml:space="preserve" font-family="Helvetica-Light" font-size="70.4" fill="#000000" transform="matrix(1.00, 0.00, -0.00, -1.00, 370.6, 358.0)">n</text><text xml:space="preserve" font-family="Helvetica-Light" font-size="70.4" fill="#000000" transform="matrix(1.00, 0.00, -0.00, -1.00, 409.8, 358.0)">g</text><text xml:space="preserve" font-family="Helvetica-Light" font-size="70.4" fill="#000000" transform="matrix(1.00, 0.00, -0.00, -1.00, 452.8, 358.0)"> </text><text xml:space="preserve" font-family="Helvetica-Light" font-size="70.4" fill="#000000" transform="matrix(1.00, 0.00, -0.00, -1.00, 472.3, 358.0)">y</text><text xml:space="preserve" font-family="Helvetica-Light" font-size="70.4" fill="#000000" transform="matrix(1.00, 0.00, -0.00, -1.00, 507.5, 358.0)">o</text><text xml:space="preserve" font-family="Helvetica-Light" font-size="70.4" fill="#000000" transform="matrix(1.00, 0.00, -0.00, -1.00, 546.7, 358.0)">u</text><text xml:space="preserve" font-family="Helvetica-Light" font-size="70.4" fill="#000000" transform="matrix(1.00, 0.00, -0.00, -1.00, 585.8, 358.0)"> </text><text xml:space="preserve" font-family="Helvetica-Light" font-size="70.4" fill="#000000" transform="matrix(1.00, 0.00, -0.00, -1.00, 605.4, 358.0)">a</text><text xml:space="preserve" font-family="Helvetica-Light" font-size="70.4" fill="#000000" transform="matrix(1.00, 0.00, -0.00, -1.00, 644.5, 358.0)">r</text><text xml:space="preserve" font-family="Helvetica-Light" font-size="70.4" fill="#000000" transform="matrix(1.00, 0.00, -0.00, -1.00, 666.7, 358.0)">e</text><text xml:space="preserve" font-family="Helvetica-Light" font-size="70.4" fill="#000000" transform="matrix(1.00, 0.00, -0.00, -1.00, 705.9, 358.0)"> </text><text xml:space="preserve" font-family="Helvetica-Light" font-size="70.4" fill="#000000" transform="matrix(1.00, 0.00, -0.00, -1.00, 725.4, 358.0)">a</text><text xml:space="preserve" font-family="Helvetica-Light" font-size="70.4" fill="#000000" transform="matrix(1.00, 0.00, -0.00, -1.00, 764.6, 358.0)">b</text><text xml:space="preserve" font-family="Helvetica-Light" font-size="70.4" fill="#000000" transform="matrix(1.00, 0.00, -0.00, -1.00, 807.6, 358.0)">o</text><text xml:space="preserve" font-family="Helvetica-Light" font-size="70.4" fill="#000000" transform="matrix(1.00, 0.00, -0.00, -1.00, 846.7, 358.0)">u</text><text xml:space="preserve" font-family="Helvetica-Light" font-size="70.4" fill="#000000" transform="matrix(1.00, 0.00, -0.00, -1.00, 885.9, 358.0)">t</text><text xml:space="preserve" font-family="Helvetica-Light" font-size="70.4" fill="#000000" transform="matrix(1.00, 0.00, -0.00, -1.00, 905.4, 358.0)"> </text><text xml:space="preserve" font-family="Helvetica-Light" font-size="70.4" fill="#000000" transform="matrix(1.00, 0.00, -0.00, -1.00, 274.0, 274.0)">t</text><text xml:space="preserve" font-family="Helvetica-Light" font-size="70.4" fill="#000000" transform="matrix(1.00, 0.00, -0.00, -1.00, 293.6, 274.0)">o</text><text xml:space="preserve" font-family="Helvetica-Light" font-size="70.4" fill="#000000" transform="matrix(1.00, 0.00, -0.00, -1.00, 332.7, 274.0)"> </text><text xml:space="preserve" font-family="Helvetica-Light" font-size="70.4" fill="#000000" transform="matrix(1.00, 0.00, -0.00, -1.00, 352.3, 274.0)">s</text><text xml:space="preserve" font-family="Helvetica-Light" font-size="70.4" fill="#000000" transform="matrix(1.00, 0.00, -0.00, -1.00, 387.5, 274.0)">e</text><text xml:space="preserve" font-family="Helvetica-Light" font-size="70.4" fill="#000000" transform="matrix(1.00, 0.00, -0.00, -1.00, 426.6, 274.0)">e</text><text xml:space="preserve" font-family="Helvetica-Light" font-size="70.4" fill="#000000" transform="matrix(1.00, 0.00, -0.00, -1.00, 465.8, 274.0)"> </text><text xml:space="preserve" font-family="Helvetica-Light" font-size="70.4" fill="#000000" transform="matrix(1.00, 0.00, -0.00, -1.00, 485.3, 274.0)">i</text><text xml:space="preserve" font-family="Helvetica-Light" font-size="70.4" fill="#000000" transform="matrix(1.00, 0.00, -0.00, -1.00, 501.0, 274.0)">s</text><text xml:space="preserve" font-family="Helvetica-Light" font-size="70.4" fill="#000000" transform="matrix(1.00, 0.00, -0.00, -1.00, 536.2, 274.0)"> </text><text xml:space="preserve" font-family="Helvetica-Light" font-size="70.4" fill="#000000" transform="matrix(1.00, 0.00, -0.00, -1.00, 555.7, 274.0)">w</text><text xml:space="preserve" font-family="Helvetica-Light" font-size="70.4" fill="#000000" transform="matrix(1.00, 0.00, -0.00, -1.00, 606.6, 274.0)">r</text><text xml:space="preserve" font-family="Helvetica-Light" font-size="70.4" fill="#000000" transform="matrix(1.00, 0.00, -0.00, -1.00, 628.7, 274.0)">o</text><text xml:space="preserve" font-family="Helvetica-Light" font-size="70.4" fill="#000000" transform="matrix(1.00, 0.00, -0.00, -1.00, 667.9, 274.0)">n</text><text xml:space="preserve" font-family="Helvetica-Light" font-size="70.4" fill="#000000" transform="matrix(1.00, 0.00, -0.00, -1.00, 707.0, 274.0)">g</text></g></svg>