<?xml version="1.0" encoding="UTF-8" standalone="no"?><svg xmlns="http://www.w3.org/2000/svg" xmlns:xlink="http://www.w3.org/1999/xlink" clip-rule="evenodd" stroke-miterlimit="4.00" viewBox="0 0 1024 768"><desc>SVG generated by Keynote</desc><defs></defs><g transform="matrix(1.00, 0.00, -0.00, -1.00, 0.0, 768.0)"><path d="M 0.0 768.0 L 1024.0 768.0 L 1024.0 0.0 L 0.0 0.0 Z M 0.0 768.0 " fill="#FEFFFF"></path><text xml:space="preserve" font-family="Helvetica-Light" font-size="80.0" fill="#000000" transform="matrix(1.00, 0.00, -0.00, -1.00, 274.0, 645.0)">O</text><text xml:space="preserve" font-family="Helvetica-Light" font-size="80.0" fill="#000000" transform="matrix(1.00, 0.00, -0.00, -1.00, 336.2, 645.0)">b</text><text xml:space="preserve" font-family="Helvetica-Light" font-size="80.0" fill="#000000" transform="matrix(1.00, 0.00, -0.00, -1.00, 385.1, 645.0)">s</text><text xml:space="preserve" font-family="Helvetica-Light" font-size="80.0" fill="#000000" transform="matrix(1.00, 0.00, -0.00, -1.00, 425.1, 645.0)">e</text><text xml:space="preserve" font-family="Helvetica-Light" font-size="80.0" fill="#000000" transform="matrix(1.00, 0.00, -0.00, -1.00, 469.6, 645.0)">r</text><text xml:space="preserve" font-family="Helvetica-Light" font-size="80.0" fill="#000000" transform="matrix(1.00, 0.00, -0.00, -1.00, 496.2, 645.0)">v</text><text xml:space="preserve" font-family="Helvetica-Light" font-size="80.0" fill="#000000" transform="matrix(1.00, 0.00, -0.00, -1.00, 536.2, 645.0)">a</text><text xml:space="preserve" font-family="Helvetica-Light" font-size="80.0" fill="#000000" transform="matrix(1.00, 0.00, -0.00, -1.00, 580.7, 645.0)">t</text><text xml:space="preserve" font-family="Helvetica-Light" font-size="80.0" fill="#000000" transform="matrix(1.00, 0.00, -0.00, -1.00, 603.0, 645.0)">i</text><text xml:space="preserve" font-family="Helvetica-Light" font-size="80.0" fill="#000000" transform="matrix(1.00, 0.00, -0.00, -1.00, 620.7, 645.0)">o</text><text xml:space="preserve" font-family="Helvetica-Light" font-size="80.0" fill="#000000" transform="matrix(1.00, 0.00, -0.00, -1.00, 665.2, 645.0)">n</text><text xml:space="preserve" font-family="Helvetica-Light" font-size="80.0" fill="#000000" transform="matrix(1.00, 0.00, -0.00, -1.00, 709.7, 645.0)">s</text><text xml:space="preserve" font-family="Helvetica-Light" font-size="16.2" fill="#000000" transform="matrix(1.00, 0.00, -0.00, -1.00, 79.0, 575.2)">•</text><text xml:space="preserve" font-family="Helvetica-Light" font-size="21.6" fill="#000000" transform="matrix(1.00, 0.00, -0.00, -1.00, 100.0, 573.0)">U</text><text xml:space="preserve" font-family="Helvetica-Light" font-size="21.6" fill="#000000" transform="matrix(1.00, 0.00, -0.00, -1.00, 115.6, 573.0)">I</text><text xml:space="preserve" font-family="Helvetica-Light" font-size="21.6" fill="#000000" transform="matrix(1.00, 0.00, -0.00, -1.00, 121.6, 573.0)"> </text><text xml:space="preserve" font-family="Helvetica-Light" font-size="21.6" fill="#000000" transform="matrix(1.00, 0.00, -0.00, -1.00, 127.6, 573.0)">m</text><text xml:space="preserve" font-family="Helvetica-Light" font-size="21.6" fill="#000000" transform="matrix(1.00, 0.00, -0.00, -1.00, 145.6, 573.0)">a</text><text xml:space="preserve" font-family="Helvetica-Light" font-size="21.6" fill="#000000" transform="matrix(1.00, 0.00, -0.00, -1.00, 157.6, 573.0)">n</text><text xml:space="preserve" font-family="Helvetica-Light" font-size="21.6" fill="#000000" transform="matrix(1.00, 0.00, -0.00, -1.00, 169.6, 573.0)">a</text><text xml:space="preserve" font-family="Helvetica-Light" font-size="21.6" fill="#000000" transform="matrix(1.00, 0.00, -0.00, -1.00, 181.6, 573.0)">g</text><text xml:space="preserve" font-family="Helvetica-Light" font-size="21.6" fill="#000000" transform="matrix(1.00, 0.00, -0.00, -1.00, 194.8, 573.0)">e</text><text xml:space="preserve" font-family="Helvetica-Light" font-size="21.6" fill="#000000" transform="matrix(1.00, 0.00, -0.00, -1.00, 206.8, 573.0)">s</text><text xml:space="preserve" font-family="Helvetica-Light" font-size="21.6" fill="#000000" transform="matrix(1.00, 0.00, -0.00, -1.00, 217.6, 573.0)"> </text><text xml:space="preserve" font-family="Helvetica-Light" font-size="21.6" fill="#000000" transform="matrix(1.00, 0.00, -0.00, -1.00, 223.6, 573.0)">g</text><text xml:space="preserve" font-family="Helvetica-Light" font-size="21.6" fill="#000000" transform="matrix(1.00, 0.00, -0.00, -1.00, 236.8, 573.0)">l</text><text xml:space="preserve" font-family="Helvetica-Light" font-size="21.6" fill="#000000" transform="matrix(1.00, 0.00, -0.00, -1.00, 241.6, 573.0)">o</text><text xml:space="preserve" font-family="Helvetica-Light" font-size="21.6" fill="#000000" transform="matrix(1.00, 0.00, -0.00, -1.00, 253.6, 573.0)">b</text><text xml:space="preserve" font-family="Helvetica-Light" font-size="21.6" fill="#000000" transform="matrix(1.00, 0.00, -0.00, -1.00, 266.8, 573.0)">a</text><text xml:space="preserve" font-family="Helvetica-Light" font-size="21.6" fill="#000000" transform="matrix(1.00, 0.00, -0.00, -1.00, 278.8, 573.0)">l</text><text xml:space="preserve" font-family="Helvetica-Light" font-size="21.6" fill="#000000" transform="matrix(1.00, 0.00, -0.00, -1.00, 283.6, 573.0)"> </text><text xml:space="preserve" font-family="Helvetica-Light" font-size="21.6" fill="#000000" transform="matrix(1.00, 0.00, -0.00, -1.00, 289.6, 573.0)">v</text><text xml:space="preserve" font-family="Helvetica-Light" font-size="21.6" fill="#000000" transform="matrix(1.00, 0.00, -0.00, -1.00, 300.4, 573.0)">a</text><text xml:space="preserve" font-family="Helvetica-Light" font-size="21.6" fill="#000000" transform="matrix(1.00, 0.00, -0.00, -1.00, 312.5, 573.0)">l</text><text xml:space="preserve" font-family="Helvetica-Light" font-size="21.6" fill="#000000" transform="matrix(1.00, 0.00, -0.00, -1.00, 317.3, 573.0)">u</text><text xml:space="preserve" font-family="Helvetica-Light" font-size="21.6" fill="#000000" transform="matrix(1.00, 0.00, -0.00, -1.00, 329.3, 573.0)">e</text><text xml:space="preserve" font-family="Helvetica-Light" font-size="21.6" fill="#000000" transform="matrix(1.00, 0.00, -0.00, -1.00, 341.3, 573.0)"> </text><text xml:space="preserve" font-family="Helvetica-Light" font-size="21.6" fill="#000000" transform="matrix(1.00, 0.00, -0.00, -1.00, 347.3, 573.0)">u</text><text xml:space="preserve" font-family="Helvetica-Light" font-size="21.6" fill="#000000" transform="matrix(1.00, 0.00, -0.00, -1.00, 359.3, 573.0)">s</text><text xml:space="preserve" font-family="Helvetica-Light" font-size="21.6" fill="#000000" transform="matrix(1.00, 0.00, -0.00, -1.00, 370.1, 573.0)">i</text><text xml:space="preserve" font-family="Helvetica-Light" font-size="21.6" fill="#000000" transform="matrix(1.00, 0.00, -0.00, -1.00, 374.9, 573.0)">n</text><text xml:space="preserve" font-family="Helvetica-Light" font-size="21.6" fill="#000000" transform="matrix(1.00, 0.00, -0.00, -1.00, 386.9, 573.0)">g</text><text xml:space="preserve" font-family="Helvetica-Light" font-size="21.6" fill="#000000" transform="matrix(1.00, 0.00, -0.00, -1.00, 400.1, 573.0)"> </text><text xml:space="preserve" font-family="Helvetica-Light" font-size="21.6" fill="#000000" transform="matrix(1.00, 0.00, -0.00, -1.00, 406.1, 573.0)">a</text><text xml:space="preserve" font-family="Helvetica-Light" font-size="21.6" fill="#000000" transform="matrix(1.00, 0.00, -0.00, -1.00, 418.1, 573.0)">t</text><text xml:space="preserve" font-family="Helvetica-Light" font-size="21.6" fill="#000000" transform="matrix(1.00, 0.00, -0.00, -1.00, 424.1, 573.0)">o</text><text xml:space="preserve" font-family="Helvetica-Light" font-size="21.6" fill="#000000" transform="matrix(1.00, 0.00, -0.00, -1.00, 436.1, 573.0)">m</text><text xml:space="preserve" font-family="Helvetica-Light" font-size="21.6" fill="#000000" transform="matrix(1.00, 0.00, -0.00, -1.00, 454.1, 573.0)">/</text><text xml:space="preserve" font-family="Helvetica-Light" font-size="21.6" fill="#000000" transform="matrix(1.00, 0.00, -0.00, -1.00, 460.1, 573.0)">r</text><text xml:space="preserve" font-family="Helvetica-Light" font-size="21.6" fill="#000000" transform="matrix(1.00, 0.00, -0.00, -1.00, 466.9, 573.0)">e</text><text xml:space="preserve" font-family="Helvetica-Light" font-size="21.6" fill="#000000" transform="matrix(1.00, 0.00, -0.00, -1.00, 478.9, 573.0)">f</text><text xml:space="preserve" font-family="Helvetica-Light" font-size="21.6" fill="#000000" transform="matrix(1.00, 0.00, -0.00, -1.00, 484.9, 573.0)">/</text><text xml:space="preserve" font-family="Helvetica-Light" font-size="21.6" fill="#000000" transform="matrix(1.00, 0.00, -0.00, -1.00, 490.9, 573.0)">a</text><text xml:space="preserve" font-family="Helvetica-Light" font-size="21.6" fill="#000000" transform="matrix(1.00, 0.00, -0.00, -1.00, 502.9, 573.0)">g</text><text xml:space="preserve" font-family="Helvetica-Light" font-size="21.6" fill="#000000" transform="matrix(1.00, 0.00, -0.00, -1.00, 516.1, 573.0)">e</text><text xml:space="preserve" font-family="Helvetica-Light" font-size="21.6" fill="#000000" transform="matrix(1.00, 0.00, -0.00, -1.00, 528.2, 573.0)">n</text><text xml:space="preserve" font-family="Helvetica-Light" font-size="21.6" fill="#000000" transform="matrix(1.00, 0.00, -0.00, -1.00, 540.2, 573.0)">t</text><text xml:space="preserve" font-family="Helvetica-Light" font-size="21.6" fill="#000000" transform="matrix(1.00, 0.00, -0.00, -1.00, 546.2, 573.0)"> </text><text xml:space="preserve" font-family="Helvetica-Light" font-size="16.2" fill="#000000" transform="matrix(1.00, 0.00, -0.00, -1.00, 79.0, 524.0)">•</text><text xml:space="preserve" font-family="Helvetica-Light" font-size="21.6" fill="#000000" transform="matrix(1.00, 0.00, -0.00, -1.00, 100.0, 522.0)">A</text><text xml:space="preserve" font-family="Helvetica-Light" font-size="21.6" fill="#000000" transform="matrix(1.00, 0.00, -0.00, -1.00, 113.6, 522.0)">W</text><text xml:space="preserve" font-family="Helvetica-Light" font-size="21.6" fill="#000000" transform="matrix(1.00, 0.00, -0.00, -1.00, 132.8, 522.0)">T</text><text xml:space="preserve" font-family="Helvetica-Light" font-size="21.6" fill="#000000" transform="matrix(1.00, 0.00, -0.00, -1.00, 144.8, 522.0)"> </text><text xml:space="preserve" font-family="Helvetica-Light" font-size="21.6" fill="#000000" transform="matrix(1.00, 0.00, -0.00, -1.00, 150.8, 522.0)">U</text><text xml:space="preserve" font-family="Helvetica-Light" font-size="21.6" fill="#000000" transform="matrix(1.00, 0.00, -0.00, -1.00, 166.4, 522.0)">I</text><text xml:space="preserve" font-family="Helvetica-Light" font-size="21.6" fill="#000000" transform="matrix(1.00, 0.00, -0.00, -1.00, 172.4, 522.0)"> </text><text xml:space="preserve" font-family="Helvetica-Light" font-size="21.6" fill="#000000" transform="matrix(1.00, 0.00, -0.00, -1.00, 178.4, 522.0)">(</text><text xml:space="preserve" font-family="Helvetica-Light" font-size="21.6" fill="#000000" transform="matrix(1.00, 0.00, -0.00, -1.00, 185.6, 522.0)">n</text><text xml:space="preserve" font-family="Helvetica-Light" font-size="21.6" fill="#000000" transform="matrix(1.00, 0.00, -0.00, -1.00, 197.6, 522.0)">o</text><text xml:space="preserve" font-family="Helvetica-Light" font-size="21.6" fill="#000000" transform="matrix(1.00, 0.00, -0.00, -1.00, 209.6, 522.0)">t</text><text xml:space="preserve" font-family="Helvetica-Light" font-size="21.6" fill="#000000" transform="matrix(1.00, 0.00, -0.00, -1.00, 215.6, 522.0)"> </text><text xml:space="preserve" font-family="Helvetica-Light" font-size="21.6" fill="#000000" transform="matrix(1.00, 0.00, -0.00, -1.00, 221.7, 522.0)">s</text><text xml:space="preserve" font-family="Helvetica-Light" font-size="21.6" fill="#000000" transform="matrix(1.00, 0.00, -0.00, -1.00, 232.5, 522.0)">h</text><text xml:space="preserve" font-family="Helvetica-Light" font-size="21.6" fill="#000000" transform="matrix(1.00, 0.00, -0.00, -1.00, 244.5, 522.0)">o</text><text xml:space="preserve" font-family="Helvetica-Light" font-size="21.6" fill="#000000" transform="matrix(1.00, 0.00, -0.00, -1.00, 256.5, 522.0)">w</text><text xml:space="preserve" font-family="Helvetica-Light" font-size="21.6" fill="#000000" transform="matrix(1.00, 0.00, -0.00, -1.00, 272.1, 522.0)">n</text><text xml:space="preserve" font-family="Helvetica-Light" font-size="21.6" fill="#000000" transform="matrix(1.00, 0.00, -0.00, -1.00, 284.1, 522.0)">)</text><text xml:space="preserve" font-family="Helvetica-Light" font-size="21.6" fill="#000000" transform="matrix(1.00, 0.00, -0.00, -1.00, 291.3, 522.0)">:</text><text xml:space="preserve" font-family="Helvetica-Light" font-size="21.6" fill="#000000" transform="matrix(1.00, 0.00, -0.00, -1.00, 297.3, 522.0)"> </text><text xml:space="preserve" font-family="Helvetica-Light" font-size="21.6" fill="#000000" transform="matrix(1.00, 0.00, -0.00, -1.00, 303.3, 522.0)">2</text><text xml:space="preserve" font-family="Helvetica-Light" font-size="21.6" fill="#000000" transform="matrix(1.00, 0.00, -0.00, -1.00, 315.3, 522.0)">0</text><text xml:space="preserve" font-family="Helvetica-Light" font-size="21.6" fill="#000000" transform="matrix(1.00, 0.00, -0.00, -1.00, 327.3, 522.0)">8</text><text xml:space="preserve" font-family="Helvetica-Light" font-size="21.6" fill="#000000" transform="matrix(1.00, 0.00, -0.00, -1.00, 339.3, 522.0)"> </text><text xml:space="preserve" font-family="Helvetica-Light" font-size="21.6" fill="#000000" transform="matrix(1.00, 0.00, -0.00, -1.00, 345.3, 522.0)">l</text><text xml:space="preserve" font-family="Helvetica-Light" font-size="21.6" fill="#000000" transform="matrix(1.00, 0.00, -0.00, -1.00, 350.1, 522.0)">i</text><text xml:space="preserve" font-family="Helvetica-Light" font-size="21.6" fill="#000000" transform="matrix(1.00, 0.00, -0.00, -1.00, 354.9, 522.0)">n</text><text xml:space="preserve" font-family="Helvetica-Light" font-size="21.6" fill="#000000" transform="matrix(1.00, 0.00, -0.00, -1.00, 366.9, 522.0)">e</text><text xml:space="preserve" font-family="Helvetica-Light" font-size="21.6" fill="#000000" transform="matrix(1.00, 0.00, -0.00, -1.00, 378.9, 522.0)">s</text><text xml:space="preserve" font-family="Helvetica-Light" font-size="21.6" fill="#000000" transform="matrix(1.00, 0.00, -0.00, -1.00, 389.7, 522.0)"> </text><text xml:space="preserve" font-family="Helvetica-Light" font-size="16.2" fill="#000000" transform="matrix(1.00, 0.00, -0.00, -1.00, 79.0, 472.8)">•</text><text xml:space="preserve" font-family="Helvetica-Light" font-size="21.6" fill="#000000" transform="matrix(1.00, 0.00, -0.00, -1.00, 100.0, 471.0)">U</text><text xml:space="preserve" font-family="Helvetica-Light" font-size="21.6" fill="#000000" transform="matrix(1.00, 0.00, -0.00, -1.00, 115.6, 471.0)">I</text><text xml:space="preserve" font-family="Helvetica-Light" font-size="21.6" fill="#000000" transform="matrix(1.00, 0.00, -0.00, -1.00, 121.6, 471.0)"> </text><text xml:space="preserve" font-family="Helvetica-Light" font-size="21.6" fill="#000000" transform="matrix(1.00, 0.00, -0.00, -1.00, 127.6, 471.0)">i</text><text xml:space="preserve" font-family="Helvetica-Light" font-size="21.6" fill="#000000" transform="matrix(1.00, 0.00, -0.00, -1.00, 132.4, 471.0)">s</text><text xml:space="preserve" font-family="Helvetica-Light" font-size="21.6" fill="#000000" transform="matrix(1.00, 0.00, -0.00, -1.00, 143.2, 471.0)"> </text><text xml:space="preserve" font-family="Helvetica-Light" font-size="21.6" fill="#000000" transform="matrix(1.00, 0.00, -0.00, -1.00, 149.2, 471.0)">s</text><text xml:space="preserve" font-family="Helvetica-Light" font-size="21.6" fill="#000000" transform="matrix(1.00, 0.00, -0.00, -1.00, 160.0, 471.0)">i</text><text xml:space="preserve" font-family="Helvetica-Light" font-size="21.6" fill="#000000" transform="matrix(1.00, 0.00, -0.00, -1.00, 164.8, 471.0)">m</text><text xml:space="preserve" font-family="Helvetica-Light" font-size="21.6" fill="#000000" transform="matrix(1.00, 0.00, -0.00, -1.00, 182.8, 471.0)">p</text><text xml:space="preserve" font-family="Helvetica-Light" font-size="21.6" fill="#000000" transform="matrix(1.00, 0.00, -0.00, -1.00, 196.0, 471.0)">l</text><text xml:space="preserve" font-family="Helvetica-Light" font-size="21.6" fill="#000000" transform="matrix(1.00, 0.00, -0.00, -1.00, 200.8, 471.0)">e</text><text xml:space="preserve" font-family="Helvetica-Light" font-size="21.6" fill="#000000" transform="matrix(1.00, 0.00, -0.00, -1.00, 212.8, 471.0)"> </text><text xml:space="preserve" font-family="Helvetica-Light" font-size="16.2" fill="#000000" transform="matrix(1.00, 0.00, -0.00, -1.00, 114.0, 421.6)">•</text><text xml:space="preserve" font-family="Helvetica-Light" font-size="21.6" fill="#000000" transform="matrix(1.00, 0.00, -0.00, -1.00, 135.0, 419.0)">R</text><text xml:space="preserve" font-family="Helvetica-Light" font-size="21.6" fill="#000000" transform="matrix(1.00, 0.00, -0.00, -1.00, 149.4, 419.0)">e</text><text xml:space="preserve" font-family="Helvetica-Light" font-size="21.6" fill="#000000" transform="matrix(1.00, 0.00, -0.00, -1.00, 161.4, 419.0)">n</text><text xml:space="preserve" font-family="Helvetica-Light" font-size="21.6" fill="#000000" transform="matrix(1.00, 0.00, -0.00, -1.00, 173.4, 419.0)">d</text><text xml:space="preserve" font-family="Helvetica-Light" font-size="21.6" fill="#000000" transform="matrix(1.00, 0.00, -0.00, -1.00, 186.6, 419.0)">e</text><text xml:space="preserve" font-family="Helvetica-Light" font-size="21.6" fill="#000000" transform="matrix(1.00, 0.00, -0.00, -1.00, 198.6, 419.0)">r</text><text xml:space="preserve" font-family="Helvetica-Light" font-size="21.6" fill="#000000" transform="matrix(1.00, 0.00, -0.00, -1.00, 205.8, 419.0)"> </text><text xml:space="preserve" font-family="Helvetica-Light" font-size="21.6" fill="#000000" transform="matrix(1.00, 0.00, -0.00, -1.00, 211.8, 419.0)">c</text><text xml:space="preserve" font-family="Helvetica-Light" font-size="21.6" fill="#000000" transform="matrix(1.00, 0.00, -0.00, -1.00, 223.8, 419.0)">u</text><text xml:space="preserve" font-family="Helvetica-Light" font-size="21.6" fill="#000000" transform="matrix(1.00, 0.00, -0.00, -1.00, 235.9, 419.0)">r</text><text xml:space="preserve" font-family="Helvetica-Light" font-size="21.6" fill="#000000" transform="matrix(1.00, 0.00, -0.00, -1.00, 243.0, 419.0)">r</text><text xml:space="preserve" font-family="Helvetica-Light" font-size="21.6" fill="#000000" transform="matrix(1.00, 0.00, -0.00, -1.00, 249.8, 419.0)">e</text><text xml:space="preserve" font-family="Helvetica-Light" font-size="21.6" fill="#000000" transform="matrix(1.00, 0.00, -0.00, -1.00, 261.9, 419.0)">n</text><text xml:space="preserve" font-family="Helvetica-Light" font-size="21.6" fill="#000000" transform="matrix(1.00, 0.00, -0.00, -1.00, 273.9, 419.0)">t</text><text xml:space="preserve" font-family="Helvetica-Light" font-size="21.6" fill="#000000" transform="matrix(1.00, 0.00, -0.00, -1.00, 279.9, 419.0)"> </text><text xml:space="preserve" font-family="Helvetica-Light" font-size="21.6" fill="#000000" transform="matrix(1.00, 0.00, -0.00, -1.00, 285.9, 419.0)">v</text><text xml:space="preserve" font-family="Helvetica-Light" font-size="21.6" fill="#000000" transform="matrix(1.00, 0.00, -0.00, -1.00, 296.7, 419.0)">a</text><text xml:space="preserve" font-family="Helvetica-Light" font-size="21.6" fill="#000000" transform="matrix(1.00, 0.00, -0.00, -1.00, 308.7, 419.0)">l</text><text xml:space="preserve" font-family="Helvetica-Light" font-size="21.6" fill="#000000" transform="matrix(1.00, 0.00, -0.00, -1.00, 313.5, 419.0)">u</text><text xml:space="preserve" font-family="Helvetica-Light" font-size="21.6" fill="#000000" transform="matrix(1.00, 0.00, -0.00, -1.00, 325.5, 419.0)">e</text><text xml:space="preserve" font-family="Helvetica-Light" font-size="21.6" fill="#000000" transform="matrix(1.00, 0.00, -0.00, -1.00, 337.5, 419.0)"> </text><text xml:space="preserve" font-family="Helvetica-Light" font-size="16.2" fill="#000000" transform="matrix(1.00, 0.00, -0.00, -1.00, 114.0, 370.4)">•</text><text xml:space="preserve" font-family="Helvetica-Light" font-size="21.6" fill="#000000" transform="matrix(1.00, 0.00, -0.00, -1.00, 135.0, 368.0)">A</text><text xml:space="preserve" font-family="Helvetica-Light" font-size="21.6" fill="#000000" transform="matrix(1.00, 0.00, -0.00, -1.00, 149.4, 368.0)">c</text><text xml:space="preserve" font-family="Helvetica-Light" font-size="21.6" fill="#000000" transform="matrix(1.00, 0.00, -0.00, -1.00, 161.4, 368.0)">t</text><text xml:space="preserve" font-family="Helvetica-Light" font-size="21.6" fill="#000000" transform="matrix(1.00, 0.00, -0.00, -1.00, 167.4, 368.0)">i</text><text xml:space="preserve" font-family="Helvetica-Light" font-size="21.6" fill="#000000" transform="matrix(1.00, 0.00, -0.00, -1.00, 172.2, 368.0)">o</text><text xml:space="preserve" font-family="Helvetica-Light" font-size="21.6" fill="#000000" transform="matrix(1.00, 0.00, -0.00, -1.00, 184.2, 368.0)">n</text><text xml:space="preserve" font-family="Helvetica-Light" font-size="21.6" fill="#000000" transform="matrix(1.00, 0.00, -0.00, -1.00, 196.2, 368.0)">s</text><text xml:space="preserve" font-family="Helvetica-Light" font-size="21.6" fill="#000000" transform="matrix(1.00, 0.00, -0.00, -1.00, 207.0, 368.0)"> </text><text xml:space="preserve" font-family="Helvetica-Light" font-size="21.6" fill="#000000" transform="matrix(1.00, 0.00, -0.00, -1.00, 213.0, 368.0)">e</text><text xml:space="preserve" font-family="Helvetica-Light" font-size="21.6" fill="#000000" transform="matrix(1.00, 0.00, -0.00, -1.00, 225.1, 368.0)">x</text><text xml:space="preserve" font-family="Helvetica-Light" font-size="21.6" fill="#000000" transform="matrix(1.00, 0.00, -0.00, -1.00, 235.9, 368.0)">e</text><text xml:space="preserve" font-family="Helvetica-Light" font-size="21.6" fill="#000000" transform="matrix(1.00, 0.00, -0.00, -1.00, 247.9, 368.0)">c</text><text xml:space="preserve" font-family="Helvetica-Light" font-size="21.6" fill="#000000" transform="matrix(1.00, 0.00, -0.00, -1.00, 259.9, 368.0)">u</text><text xml:space="preserve" font-family="Helvetica-Light" font-size="21.6" fill="#000000" transform="matrix(1.00, 0.00, -0.00, -1.00, 271.9, 368.0)">t</text><text xml:space="preserve" font-family="Helvetica-Light" font-size="21.6" fill="#000000" transform="matrix(1.00, 0.00, -0.00, -1.00, 277.9, 368.0)">e</text><text xml:space="preserve" font-family="Helvetica-Light" font-size="21.6" fill="#000000" transform="matrix(1.00, 0.00, -0.00, -1.00, 289.9, 368.0)"> </text><text xml:space="preserve" font-family="Helvetica-Light" font-size="21.6" fill="#000000" transform="matrix(1.00, 0.00, -0.00, -1.00, 295.9, 368.0)">f</text><text xml:space="preserve" font-family="Helvetica-Light" font-size="21.6" fill="#000000" transform="matrix(1.00, 0.00, -0.00, -1.00, 301.9, 368.0)">u</text><text xml:space="preserve" font-family="Helvetica-Light" font-size="21.6" fill="#000000" transform="matrix(1.00, 0.00, -0.00, -1.00, 313.9, 368.0)">n</text><text xml:space="preserve" font-family="Helvetica-Light" font-size="21.6" fill="#000000" transform="matrix(1.00, 0.00, -0.00, -1.00, 325.9, 368.0)">c</text><text xml:space="preserve" font-family="Helvetica-Light" font-size="21.6" fill="#000000" transform="matrix(1.00, 0.00, -0.00, -1.00, 337.9, 368.0)">t</text><text xml:space="preserve" font-family="Helvetica-Light" font-size="21.6" fill="#000000" transform="matrix(1.00, 0.00, -0.00, -1.00, 343.9, 368.0)">i</text><text xml:space="preserve" font-family="Helvetica-Light" font-size="21.6" fill="#000000" transform="matrix(1.00, 0.00, -0.00, -1.00, 348.7, 368.0)">o</text><text xml:space="preserve" font-family="Helvetica-Light" font-size="21.6" fill="#000000" transform="matrix(1.00, 0.00, -0.00, -1.00, 360.7, 368.0)">n</text><text xml:space="preserve" font-family="Helvetica-Light" font-size="21.6" fill="#000000" transform="matrix(1.00, 0.00, -0.00, -1.00, 372.8, 368.0)">s</text><text xml:space="preserve" font-family="Helvetica-Light" font-size="21.6" fill="#000000" transform="matrix(1.00, 0.00, -0.00, -1.00, 383.6, 368.0)"> </text><text xml:space="preserve" font-family="Helvetica-Light" font-size="21.6" fill="#000000" transform="matrix(1.00, 0.00, -0.00, -1.00, 389.6, 368.0)">o</text><text xml:space="preserve" font-family="Helvetica-Light" font-size="21.6" fill="#000000" transform="matrix(1.00, 0.00, -0.00, -1.00, 401.6, 368.0)">n</text><text xml:space="preserve" font-family="Helvetica-Light" font-size="21.6" fill="#000000" transform="matrix(1.00, 0.00, -0.00, -1.00, 413.6, 368.0)"> </text><text xml:space="preserve" font-family="Helvetica-Light" font-size="21.6" fill="#000000" transform="matrix(1.00, 0.00, -0.00, -1.00, 419.6, 368.0)">c</text><text xml:space="preserve" font-family="Helvetica-Light" font-size="21.6" fill="#000000" transform="matrix(1.00, 0.00, -0.00, -1.00, 431.6, 368.0)">u</text><text xml:space="preserve" font-family="Helvetica-Light" font-size="21.6" fill="#000000" transform="matrix(1.00, 0.00, -0.00, -1.00, 443.6, 368.0)">r</text><text xml:space="preserve" font-family="Helvetica-Light" font-size="21.6" fill="#000000" transform="matrix(1.00, 0.00, -0.00, -1.00, 450.8, 368.0)">r</text><text xml:space="preserve" font-family="Helvetica-Light" font-size="21.6" fill="#000000" transform="matrix(1.00, 0.00, -0.00, -1.00, 457.6, 368.0)">e</text><text xml:space="preserve" font-family="Helvetica-Light" font-size="21.6" fill="#000000" transform="matrix(1.00, 0.00, -0.00, -1.00, 469.6, 368.0)">n</text><text xml:space="preserve" font-family="Helvetica-Light" font-size="21.6" fill="#000000" transform="matrix(1.00, 0.00, -0.00, -1.00, 481.6, 368.0)">t</text><text xml:space="preserve" font-family="Helvetica-Light" font-size="21.6" fill="#000000" transform="matrix(1.00, 0.00, -0.00, -1.00, 487.6, 368.0)"> </text><text xml:space="preserve" font-family="Helvetica-Light" font-size="21.6" fill="#000000" transform="matrix(1.00, 0.00, -0.00, -1.00, 493.6, 368.0)">v</text><text xml:space="preserve" font-family="Helvetica-Light" font-size="21.6" fill="#000000" transform="matrix(1.00, 0.00, -0.00, -1.00, 504.4, 368.0)">a</text><text xml:space="preserve" font-family="Helvetica-Light" font-size="21.6" fill="#000000" transform="matrix(1.00, 0.00, -0.00, -1.00, 516.4, 368.0)">l</text><text xml:space="preserve" font-family="Helvetica-Light" font-size="21.6" fill="#000000" transform="matrix(1.00, 0.00, -0.00, -1.00, 521.2, 368.0)">u</text><text xml:space="preserve" font-family="Helvetica-Light" font-size="21.6" fill="#000000" transform="matrix(1.00, 0.00, -0.00, -1.00, 533.2, 368.0)">e</text><text xml:space="preserve" font-family="Helvetica-Light" font-size="21.6" fill="#000000" transform="matrix(1.00, 0.00, -0.00, -1.00, 545.2, 368.0)"> </text><text xml:space="preserve" font-family="Helvetica-Light" font-size="16.2" fill="#000000" transform="matrix(1.00, 0.00, -0.00, -1.00, 79.0, 319.2)">•</text><text xml:space="preserve" font-family="Helvetica-Light" font-size="21.6" fill="#000000" transform="matrix(1.00, 0.00, -0.00, -1.00, 100.0, 317.0)">U</text><text xml:space="preserve" font-family="Helvetica-Light" font-size="21.6" fill="#000000" transform="matrix(1.00, 0.00, -0.00, -1.00, 115.6, 317.0)">I</text><text xml:space="preserve" font-family="Helvetica-Light" font-size="21.6" fill="#000000" transform="matrix(1.00, 0.00, -0.00, -1.00, 121.6, 317.0)"> </text><text xml:space="preserve" font-family="Helvetica-Light" font-size="21.6" fill="#000000" transform="matrix(1.00, 0.00, -0.00, -1.00, 127.6, 317.0)">a</text><text xml:space="preserve" font-family="Helvetica-Light" font-size="21.6" fill="#000000" transform="matrix(1.00, 0.00, -0.00, -1.00, 139.6, 317.0)">n</text><text xml:space="preserve" font-family="Helvetica-Light" font-size="21.6" fill="#000000" transform="matrix(1.00, 0.00, -0.00, -1.00, 151.6, 317.0)">d</text><text xml:space="preserve" font-family="Helvetica-Light" font-size="21.6" fill="#000000" transform="matrix(1.00, 0.00, -0.00, -1.00, 164.8, 317.0)"> </text><text xml:space="preserve" font-family="Helvetica-Light" font-size="21.6" fill="#000000" transform="matrix(1.00, 0.00, -0.00, -1.00, 170.8, 317.0)">r</text><text xml:space="preserve" font-family="Helvetica-Light" font-size="21.6" fill="#000000" transform="matrix(1.00, 0.00, -0.00, -1.00, 178.0, 317.0)">u</text><text xml:space="preserve" font-family="Helvetica-Light" font-size="21.6" fill="#000000" transform="matrix(1.00, 0.00, -0.00, -1.00, 190.0, 317.0)">l</text><text xml:space="preserve" font-family="Helvetica-Light" font-size="21.6" fill="#000000" transform="matrix(1.00, 0.00, -0.00, -1.00, 194.8, 317.0)">e</text><text xml:space="preserve" font-family="Helvetica-Light" font-size="21.6" fill="#000000" transform="matrix(1.00, 0.00, -0.00, -1.00, 206.8, 317.0)">s</text><text xml:space="preserve" font-family="Helvetica-Light" font-size="21.6" fill="#000000" transform="matrix(1.00, 0.00, -0.00, -1.00, 217.6, 317.0)"> </text><text xml:space="preserve" font-family="Helvetica-Light" font-size="21.6" fill="#000000" transform="matrix(1.00, 0.00, -0.00, -1.00, 223.6, 317.0)">a</text><text xml:space="preserve" font-family="Helvetica-Light" font-size="21.6" fill="#000000" transform="matrix(1.00, 0.00, -0.00, -1.00, 235.6, 317.0)">r</text><text xml:space="preserve" font-family="Helvetica-Light" font-size="21.6" fill="#000000" transform="matrix(1.00, 0.00, -0.00, -1.00, 242.5, 317.0)">e</text><text xml:space="preserve" font-family="Helvetica-Light" font-size="21.6" fill="#000000" transform="matrix(1.00, 0.00, -0.00, -1.00, 254.5, 317.0)"> </text><text xml:space="preserve" font-family="Helvetica-Light" font-size="21.6" fill="#000000" transform="matrix(1.00, 0.00, -0.00, -1.00, 260.5, 317.0)">C</text><text xml:space="preserve" font-family="Helvetica-Light" font-size="21.6" fill="#000000" transform="matrix(1.00, 0.00, -0.00, -1.00, 276.1, 317.0)">O</text><text xml:space="preserve" font-family="Helvetica-Light" font-size="21.6" fill="#000000" transform="matrix(1.00, 0.00, -0.00, -1.00, 292.9, 317.0)">M</text><text xml:space="preserve" font-family="Helvetica-Light" font-size="21.6" fill="#000000" transform="matrix(1.00, 0.00, -0.00, -1.00, 310.9, 317.0)">P</text><text xml:space="preserve" font-family="Helvetica-Light" font-size="21.6" fill="#000000" transform="matrix(1.00, 0.00, -0.00, -1.00, 324.1, 317.0)">L</text><text xml:space="preserve" font-family="Helvetica-Light" font-size="21.6" fill="#000000" transform="matrix(1.00, 0.00, -0.00, -1.00, 336.1, 317.0)">E</text><text xml:space="preserve" font-family="Helvetica-Light" font-size="21.6" fill="#000000" transform="matrix(1.00, 0.00, -0.00, -1.00, 349.3, 317.0)">T</text><text xml:space="preserve" font-family="Helvetica-Light" font-size="21.6" fill="#000000" transform="matrix(1.00, 0.00, -0.00, -1.00, 361.3, 317.0)">E</text><text xml:space="preserve" font-family="Helvetica-Light" font-size="21.6" fill="#000000" transform="matrix(1.00, 0.00, -0.00, -1.00, 374.5, 317.0)">L</text><text xml:space="preserve" font-family="Helvetica-Light" font-size="21.6" fill="#000000" transform="matrix(1.00, 0.00, -0.00, -1.00, 384.1, 317.0)">Y</text><text xml:space="preserve" font-family="Helvetica-Light" font-size="21.6" fill="#000000" transform="matrix(1.00, 0.00, -0.00, -1.00, 397.3, 317.0)"> </text><text xml:space="preserve" font-family="Helvetica-Light" font-size="21.6" fill="#000000" transform="matrix(1.00, 0.00, -0.00, -1.00, 403.3, 317.0)">d</text><text xml:space="preserve" font-family="Helvetica-Light" font-size="21.6" fill="#000000" transform="matrix(1.00, 0.00, -0.00, -1.00, 416.5, 317.0)">e</text><text xml:space="preserve" font-family="Helvetica-Light" font-size="21.6" fill="#000000" transform="matrix(1.00, 0.00, -0.00, -1.00, 428.5, 317.0)">c</text><text xml:space="preserve" font-family="Helvetica-Light" font-size="21.6" fill="#000000" transform="matrix(1.00, 0.00, -0.00, -1.00, 440.5, 317.0)">o</text><text xml:space="preserve" font-family="Helvetica-Light" font-size="21.6" fill="#000000" transform="matrix(1.00, 0.00, -0.00, -1.00, 452.5, 317.0)">u</text><text xml:space="preserve" font-family="Helvetica-Light" font-size="21.6" fill="#000000" transform="matrix(1.00, 0.00, -0.00, -1.00, 464.5, 317.0)">p</text><text xml:space="preserve" font-family="Helvetica-Light" font-size="21.6" fill="#000000" transform="matrix(1.00, 0.00, -0.00, -1.00, 477.7, 317.0)">l</text><text xml:space="preserve" font-family="Helvetica-Light" font-size="21.6" fill="#000000" transform="matrix(1.00, 0.00, -0.00, -1.00, 482.5, 317.0)">e</text><text xml:space="preserve" font-family="Helvetica-Light" font-size="21.6" fill="#000000" transform="matrix(1.00, 0.00, -0.00, -1.00, 494.5, 317.0)">d</text><text xml:space="preserve" font-family="Helvetica-Light" font-size="21.6" fill="#000000" transform="matrix(1.00, 0.00, -0.00, -1.00, 507.7, 317.0)"> </text><text xml:space="preserve" font-family="Helvetica-Light" font-size="16.2" fill="#000000" transform="matrix(1.00, 0.00, -0.00, -1.00, 79.0, 268.0)">•</text><text xml:space="preserve" font-family="Helvetica-Light" font-size="21.6" fill="#000000" transform="matrix(1.00, 0.00, -0.00, -1.00, 100.0, 266.0)">R</text><text xml:space="preserve" font-family="Helvetica-Light" font-size="21.6" fill="#000000" transform="matrix(1.00, 0.00, -0.00, -1.00, 114.4, 266.0)">u</text><text xml:space="preserve" font-family="Helvetica-Light" font-size="21.6" fill="#000000" transform="matrix(1.00, 0.00, -0.00, -1.00, 126.4, 266.0)">l</text><text xml:space="preserve" font-family="Helvetica-Light" font-size="21.6" fill="#000000" transform="matrix(1.00, 0.00, -0.00, -1.00, 131.2, 266.0)">e</text><text xml:space="preserve" font-family="Helvetica-Light" font-size="21.6" fill="#000000" transform="matrix(1.00, 0.00, -0.00, -1.00, 143.2, 266.0)">s</text><text xml:space="preserve" font-family="Helvetica-Light" font-size="21.6" fill="#000000" transform="matrix(1.00, 0.00, -0.00, -1.00, 154.0, 266.0)"> </text><text xml:space="preserve" font-family="Helvetica-Light" font-size="21.6" fill="#000000" transform="matrix(1.00, 0.00, -0.00, -1.00, 160.0, 266.0)">c</text><text xml:space="preserve" font-family="Helvetica-Light" font-size="21.6" fill="#000000" transform="matrix(1.00, 0.00, -0.00, -1.00, 172.0, 266.0)">o</text><text xml:space="preserve" font-family="Helvetica-Light" font-size="21.6" fill="#000000" transform="matrix(1.00, 0.00, -0.00, -1.00, 184.0, 266.0)">m</text><text xml:space="preserve" font-family="Helvetica-Light" font-size="21.6" fill="#000000" transform="matrix(1.00, 0.00, -0.00, -1.00, 202.0, 266.0)">p</text><text xml:space="preserve" font-family="Helvetica-Light" font-size="21.6" fill="#000000" transform="matrix(1.00, 0.00, -0.00, -1.00, 215.2, 266.0)">i</text><text xml:space="preserve" font-family="Helvetica-Light" font-size="21.6" fill="#000000" transform="matrix(1.00, 0.00, -0.00, -1.00, 220.0, 266.0)">l</text><text xml:space="preserve" font-family="Helvetica-Light" font-size="21.6" fill="#000000" transform="matrix(1.00, 0.00, -0.00, -1.00, 224.8, 266.0)">e</text><text xml:space="preserve" font-family="Helvetica-Light" font-size="21.6" fill="#000000" transform="matrix(1.00, 0.00, -0.00, -1.00, 236.8, 266.0)"> </text><text xml:space="preserve" font-family="Helvetica-Light" font-size="21.6" fill="#000000" transform="matrix(1.00, 0.00, -0.00, -1.00, 242.8, 266.0)">a</text><text xml:space="preserve" font-family="Helvetica-Light" font-size="21.6" fill="#000000" transform="matrix(1.00, 0.00, -0.00, -1.00, 254.9, 266.0)">s</text><text xml:space="preserve" font-family="Helvetica-Light" font-size="21.6" fill="#000000" transform="matrix(1.00, 0.00, -0.00, -1.00, 265.7, 266.0)"> </text><text xml:space="preserve" font-family="Helvetica-Light" font-size="21.6" fill="#000000" transform="matrix(1.00, 0.00, -0.00, -1.00, 271.7, 266.0)">C</text><text xml:space="preserve" font-family="Helvetica-Light" font-size="21.6" fill="#000000" transform="matrix(1.00, 0.00, -0.00, -1.00, 287.3, 266.0)">l</text><text xml:space="preserve" font-family="Helvetica-Light" font-size="21.6" fill="#000000" transform="matrix(1.00, 0.00, -0.00, -1.00, 292.0, 266.0)">o</text><text xml:space="preserve" font-family="Helvetica-Light" font-size="21.6" fill="#000000" transform="matrix(1.00, 0.00, -0.00, -1.00, 304.1, 266.0)">j</text><text xml:space="preserve" font-family="Helvetica-Light" font-size="21.6" fill="#000000" transform="matrix(1.00, 0.00, -0.00, -1.00, 308.9, 266.0)">u</text><text xml:space="preserve" font-family="Helvetica-Light" font-size="21.6" fill="#000000" transform="matrix(1.00, 0.00, -0.00, -1.00, 320.9, 266.0)">r</text><text xml:space="preserve" font-family="Helvetica-Light" font-size="21.6" fill="#000000" transform="matrix(1.00, 0.00, -0.00, -1.00, 327.7, 266.0)">e</text><text xml:space="preserve" font-family="Helvetica-Light" font-size="21.6" fill="#000000" transform="matrix(1.00, 0.00, -0.00, -1.00, 339.7, 266.0)">s</text><text xml:space="preserve" font-family="Helvetica-Light" font-size="21.6" fill="#000000" transform="matrix(1.00, 0.00, -0.00, -1.00, 350.5, 266.0)">c</text><text xml:space="preserve" font-family="Helvetica-Light" font-size="21.6" fill="#000000" transform="matrix(1.00, 0.00, -0.00, -1.00, 362.5, 266.0)">r</text><text xml:space="preserve" font-family="Helvetica-Light" font-size="21.6" fill="#000000" transform="matrix(1.00, 0.00, -0.00, -1.00, 369.7, 266.0)">i</text><text xml:space="preserve" font-family="Helvetica-Light" font-size="21.6" fill="#000000" transform="matrix(1.00, 0.00, -0.00, -1.00, 374.5, 266.0)">p</text><text xml:space="preserve" font-family="Helvetica-Light" font-size="21.6" fill="#000000" transform="matrix(1.00, 0.00, -0.00, -1.00, 387.7, 266.0)">t</text><text xml:space="preserve" font-family="Helvetica-Light" font-size="21.6" fill="#000000" transform="matrix(1.00, 0.00, -0.00, -1.00, 393.7, 266.0)"> </text><text xml:space="preserve" font-family="Helvetica-Light" font-size="16.2" fill="#000000" transform="matrix(1.00, 0.00, -0.00, -1.00, 79.0, 216.8)">•</text><text xml:space="preserve" font-family="Helvetica-Light" font-size="21.6" fill="#000000" transform="matrix(1.00, 0.00, -0.00, -1.00, 100.0, 215.0)">Y</text><text xml:space="preserve" font-family="Helvetica-Light" font-size="21.6" fill="#000000" transform="matrix(1.00, 0.00, -0.00, -1.00, 111.2, 215.0)">o</text><text xml:space="preserve" font-family="Helvetica-Light" font-size="21.6" fill="#000000" transform="matrix(1.00, 0.00, -0.00, -1.00, 123.2, 215.0)">u</text><text xml:space="preserve" font-family="Helvetica-Light" font-size="21.6" fill="#000000" transform="matrix(1.00, 0.00, -0.00, -1.00, 135.2, 215.0)"> </text><text xml:space="preserve" font-family="Helvetica-Light" font-size="21.6" fill="#000000" transform="matrix(1.00, 0.00, -0.00, -1.00, 141.2, 215.0)">c</text><text xml:space="preserve" font-family="Helvetica-Light" font-size="21.6" fill="#000000" transform="matrix(1.00, 0.00, -0.00, -1.00, 153.2, 215.0)">o</text><text xml:space="preserve" font-family="Helvetica-Light" font-size="21.6" fill="#000000" transform="matrix(1.00, 0.00, -0.00, -1.00, 165.3, 215.0)">u</text><text xml:space="preserve" font-family="Helvetica-Light" font-size="21.6" fill="#000000" transform="matrix(1.00, 0.00, -0.00, -1.00, 177.3, 215.0)">l</text><text xml:space="preserve" font-family="Helvetica-Light" font-size="21.6" fill="#000000" transform="matrix(1.00, 0.00, -0.00, -1.00, 182.1, 215.0)">d</text><text xml:space="preserve" font-family="Helvetica-Light" font-size="21.6" fill="#000000" transform="matrix(1.00, 0.00, -0.00, -1.00, 195.3, 215.0)"> </text><text xml:space="preserve" font-family="Helvetica-Light" font-size="21.6" fill="#000000" transform="matrix(1.00, 0.00, -0.00, -1.00, 201.3, 215.0)">e</text><text xml:space="preserve" font-family="Helvetica-Light" font-size="21.6" fill="#000000" transform="matrix(1.00, 0.00, -0.00, -1.00, 213.3, 215.0)">a</text><text xml:space="preserve" font-family="Helvetica-Light" font-size="21.6" fill="#000000" transform="matrix(1.00, 0.00, -0.00, -1.00, 225.3, 215.0)">s</text><text xml:space="preserve" font-family="Helvetica-Light" font-size="21.6" fill="#000000" transform="matrix(1.00, 0.00, -0.00, -1.00, 236.1, 215.0)">i</text><text xml:space="preserve" font-family="Helvetica-Light" font-size="21.6" fill="#000000" transform="matrix(1.00, 0.00, -0.00, -1.00, 240.9, 215.0)">l</text><text xml:space="preserve" font-family="Helvetica-Light" font-size="21.6" fill="#000000" transform="matrix(1.00, 0.00, -0.00, -1.00, 245.7, 215.0)">y</text><text xml:space="preserve" font-family="Helvetica-Light" font-size="21.6" fill="#000000" transform="matrix(1.00, 0.00, -0.00, -1.00, 256.5, 215.0)"> </text><text xml:space="preserve" font-family="Helvetica-Light" font-size="21.6" fill="#000000" transform="matrix(1.00, 0.00, -0.00, -1.00, 262.5, 215.0)">d</text><text xml:space="preserve" font-family="Helvetica-Light" font-size="21.6" fill="#000000" transform="matrix(1.00, 0.00, -0.00, -1.00, 275.7, 215.0)">e</text><text xml:space="preserve" font-family="Helvetica-Light" font-size="21.6" fill="#000000" transform="matrix(1.00, 0.00, -0.00, -1.00, 287.7, 215.0)">v</text><text xml:space="preserve" font-family="Helvetica-Light" font-size="21.6" fill="#000000" transform="matrix(1.00, 0.00, -0.00, -1.00, 298.5, 215.0)">e</text><text xml:space="preserve" font-family="Helvetica-Light" font-size="21.6" fill="#000000" transform="matrix(1.00, 0.00, -0.00, -1.00, 310.5, 215.0)">l</text><text xml:space="preserve" font-family="Helvetica-Light" font-size="21.6" fill="#000000" transform="matrix(1.00, 0.00, -0.00, -1.00, 315.3, 215.0)">o</text><text xml:space="preserve" font-family="Helvetica-Light" font-size="21.6" fill="#000000" transform="matrix(1.00, 0.00, -0.00, -1.00, 327.3, 215.0)">p</text><text xml:space="preserve" font-family="Helvetica-Light" font-size="21.6" fill="#000000" transform="matrix(1.00, 0.00, -0.00, -1.00, 340.5, 215.0)"> </text><text xml:space="preserve" font-family="Helvetica-Light" font-size="21.6" fill="#000000" transform="matrix(1.00, 0.00, -0.00, -1.00, 346.5, 215.0)">a</text><text xml:space="preserve" font-family="Helvetica-Light" font-size="21.6" fill="#000000" transform="matrix(1.00, 0.00, -0.00, -1.00, 358.5, 215.0)">l</text><text xml:space="preserve" font-family="Helvetica-Light" font-size="21.6" fill="#000000" transform="matrix(1.00, 0.00, -0.00, -1.00, 363.3, 215.0)">t</text><text xml:space="preserve" font-family="Helvetica-Light" font-size="21.6" fill="#000000" transform="matrix(1.00, 0.00, -0.00, -1.00, 369.3, 215.0)">e</text><text xml:space="preserve" font-family="Helvetica-Light" font-size="21.6" fill="#000000" transform="matrix(1.00, 0.00, -0.00, -1.00, 381.3, 215.0)">r</text><text xml:space="preserve" font-family="Helvetica-Light" font-size="21.6" fill="#000000" transform="matrix(1.00, 0.00, -0.00, -1.00, 388.9, 215.0)">n</text><text xml:space="preserve" font-family="Helvetica-Light" font-size="21.6" fill="#000000" transform="matrix(1.00, 0.00, -0.00, -1.00, 400.9, 215.0)">a</text><text xml:space="preserve" font-family="Helvetica-Light" font-size="21.6" fill="#000000" transform="matrix(1.00, 0.00, -0.00, -1.00, 412.9, 215.0)">t</text><text xml:space="preserve" font-family="Helvetica-Light" font-size="21.6" fill="#000000" transform="matrix(1.00, 0.00, -0.00, -1.00, 418.9, 215.0)">e</text><text xml:space="preserve" font-family="Helvetica-Light" font-size="21.6" fill="#000000" transform="matrix(1.00, 0.00, -0.00, -1.00, 430.9, 215.0)"> </text><text xml:space="preserve" font-family="Helvetica-Light" font-size="21.6" fill="#000000" transform="matrix(1.00, 0.00, -0.00, -1.00, 436.9, 215.0)">U</text><text xml:space="preserve" font-family="Helvetica-Light" font-size="21.6" fill="#000000" transform="matrix(1.00, 0.00, -0.00, -1.00, 452.5, 215.0)">I</text><text xml:space="preserve" font-family="Helvetica-Light" font-size="21.6" fill="#000000" transform="matrix(1.00, 0.00, -0.00, -1.00, 458.5, 215.0)">s</text><text xml:space="preserve" font-family="Helvetica-Light" font-size="21.6" fill="#000000" transform="matrix(1.00, 0.00, -0.00, -1.00, 469.3, 215.0)"> </text><text xml:space="preserve" font-family="Helvetica-Light" font-size="16.2" fill="#000000" transform="matrix(1.00, 0.00, -0.00, -1.00, 114.0, 165.6)">•</text><text xml:space="preserve" font-family="Helvetica-Light" font-size="21.6" fill="#000000" transform="matrix(1.00, 0.00, -0.00, -1.00, 135.0, 163.0)">J</text><text xml:space="preserve" font-family="Helvetica-Light" font-size="21.6" fill="#000000" transform="matrix(1.00, 0.00, -0.00, -1.00, 145.8, 163.0)">M</text><text xml:space="preserve" font-family="Helvetica-Light" font-size="21.6" fill="#000000" transform="matrix(1.00, 0.00, -0.00, -1.00, 163.8, 163.0)">o</text><text xml:space="preserve" font-family="Helvetica-Light" font-size="21.6" fill="#000000" transform="matrix(1.00, 0.00, -0.00, -1.00, 175.8, 163.0)">n</text><text xml:space="preserve" font-family="Helvetica-Light" font-size="21.6" fill="#000000" transform="matrix(1.00, 0.00, -0.00, -1.00, 187.8, 163.0)">k</text><text xml:space="preserve" font-family="Helvetica-Light" font-size="21.6" fill="#000000" transform="matrix(1.00, 0.00, -0.00, -1.00, 198.6, 163.0)">e</text><text xml:space="preserve" font-family="Helvetica-Light" font-size="21.6" fill="#000000" transform="matrix(1.00, 0.00, -0.00, -1.00, 210.6, 163.0)">y</text><text xml:space="preserve" font-family="Helvetica-Light" font-size="21.6" fill="#000000" transform="matrix(1.00, 0.00, -0.00, -1.00, 221.4, 163.0)">E</text><text xml:space="preserve" font-family="Helvetica-Light" font-size="21.6" fill="#000000" transform="matrix(1.00, 0.00, -0.00, -1.00, 234.6, 163.0)">n</text><text xml:space="preserve" font-family="Helvetica-Light" font-size="21.6" fill="#000000" transform="matrix(1.00, 0.00, -0.00, -1.00, 246.6, 163.0)">g</text><text xml:space="preserve" font-family="Helvetica-Light" font-size="21.6" fill="#000000" transform="matrix(1.00, 0.00, -0.00, -1.00, 259.8, 163.0)">i</text><text xml:space="preserve" font-family="Helvetica-Light" font-size="21.6" fill="#000000" transform="matrix(1.00, 0.00, -0.00, -1.00, 264.6, 163.0)">n</text><text xml:space="preserve" font-family="Helvetica-Light" font-size="21.6" fill="#000000" transform="matrix(1.00, 0.00, -0.00, -1.00, 276.6, 163.0)">e</text><text xml:space="preserve" font-family="Helvetica-Light" font-size="21.6" fill="#000000" transform="matrix(1.00, 0.00, -0.00, -1.00, 288.6, 163.0)"> </text><text xml:space="preserve" font-family="Helvetica-Light" font-size="16.2" fill="#000000" transform="matrix(1.00, 0.00, -0.00, -1.00, 114.0, 114.4)">•</text><text xml:space="preserve" font-family="Helvetica-Light" font-size="21.6" fill="#000000" transform="matrix(1.00, 0.00, -0.00, -1.00, 135.0, 112.0)">Q</text><text xml:space="preserve" font-family="Helvetica-Light" font-size="21.6" fill="#000000" transform="matrix(1.00, 0.00, -0.00, -1.00, 151.8, 112.0)">u</text><text xml:space="preserve" font-family="Helvetica-Light" font-size="21.6" fill="#000000" transform="matrix(1.00, 0.00, -0.00, -1.00, 163.8, 112.0)">i</text><text xml:space="preserve" font-family="Helvetica-Light" font-size="21.6" fill="#000000" transform="matrix(1.00, 0.00, -0.00, -1.00, 168.6, 112.0)">l</text><text xml:space="preserve" font-family="Helvetica-Light" font-size="21.6" fill="#000000" transform="matrix(1.00, 0.00, -0.00, -1.00, 173.4, 112.0)"> </text><text xml:space="preserve" font-family="Helvetica-Light" font-size="16.2" fill="#000000" transform="matrix(1.00, 0.00, -0.00, -1.00, 114.0, 63.2)">•</text><text xml:space="preserve" font-family="Helvetica-Light" font-size="21.6" fill="#000000" transform="matrix(1.00, 0.00, -0.00, -1.00, 135.0, 61.0)">H</text><text xml:space="preserve" font-family="Helvetica-Light" font-size="21.6" fill="#000000" transform="matrix(1.00, 0.00, -0.00, -1.00, 150.6, 61.0)">M</text><text xml:space="preserve" font-family="Helvetica-Light" font-size="21.6" fill="#000000" transform="matrix(1.00, 0.00, -0.00, -1.00, 168.6, 61.0)">T</text><text xml:space="preserve" font-family="Helvetica-Light" font-size="21.6" fill="#000000" transform="matrix(1.00, 0.00, -0.00, -1.00, 180.6, 61.0)">L</text><text xml:space="preserve" font-family="Helvetica-Light" font-size="21.6" fill="#000000" transform="matrix(1.00, 0.00, -0.00, -1.00, 192.6, 61.0)"> </text><text xml:space="preserve" font-family="Helvetica-Light" font-size="21.6" fill="#000000" transform="matrix(1.00, 0.00, -0.00, -1.00, 198.6, 61.0)">C</text><text xml:space="preserve" font-family="Helvetica-Light" font-size="21.6" fill="#000000" transform="matrix(1.00, 0.00, -0.00, -1.00, 214.2, 61.0)">a</text><text xml:space="preserve" font-family="Helvetica-Light" font-size="21.6" fill="#000000" transform="matrix(1.00, 0.00, -0.00, -1.00, 226.2, 61.0)">n</text><text xml:space="preserve" font-family="Helvetica-Light" font-size="21.6" fill="#000000" transform="matrix(1.00, 0.00, -0.00, -1.00, 238.2, 61.0)">v</text><text xml:space="preserve" font-family="Helvetica-Light" font-size="21.6" fill="#000000" transform="matrix(1.00, 0.00, -0.00, -1.00, 249.0, 61.0)">a</text><text xml:space="preserve" font-family="Helvetica-Light" font-size="21.6" fill="#000000" transform="matrix(1.00, 0.00, -0.00, -1.00, 261.0, 61.0)">s</text></g></svg>