<?xml version="1.0" encoding="UTF-8" standalone="no"?><svg xmlns="http://www.w3.org/2000/svg" xmlns:xlink="http://www.w3.org/1999/xlink" clip-rule="evenodd" stroke-miterlimit="4.00" viewBox="0 0 1024 768"><desc>SVG generated by Keynote</desc><defs></defs><g transform="matrix(1.00, 0.00, -0.00, -1.00, 0.0, 768.0)"><path d="M 0.0 768.0 L 1024.0 768.0 L 1024.0 0.0 L 0.0 0.0 Z M 0.0 768.0 " fill="#FEFFFF"></path><g><clipPath id="clip-83"><path d="M 7.0 600.0 L 1017.0 600.0 L 1017.0 144.0 L 7.0 144.0 Z M 6.9 599.8 "></path></clipPath><g clip-path="url(#clip-83)"><image xlink:href="../../AE66BD05-16AD-40FC-B808-C1EE2467F63F/assets/CC64EEA010F3C7BA5D16D7B86FD151E2.png" width="1365.00" height="631.00" transform="matrix(0.74, 0.00, -0.00, -0.74, 7.0, 606.0)"></image></g></g><image xlink:href="C8DCC4CF2445E6384A632BB9DF2B531F.png" width="4210.00" height="505.00" transform="matrix(0.24, 0.00, -0.00, -0.24, 6.9, 144.3)"></image><text xml:space="preserve" font-family="Helvetica-Light" font-size="56.0" fill="#000000" transform="matrix(1.00, 0.00, -0.00, -1.00, 54.0, 697.0)">T</text><text xml:space="preserve" font-family="Helvetica-Light" font-size="56.0" fill="#000000" transform="matrix(1.00, 0.00, -0.00, -1.00, 78.9, 697.0)">o</text><text xml:space="preserve" font-family="Helvetica-Light" font-size="56.0" fill="#000000" transform="matrix(1.00, 0.00, -0.00, -1.00, 110.1, 697.0)">p</text><text xml:space="preserve" font-family="Helvetica-Light" font-size="56.0" fill="#000000" transform="matrix(1.00, 0.00, -0.00, -1.00, 144.3, 697.0)"> </text><text xml:space="preserve" font-family="Helvetica-Light" font-size="56.0" fill="#000000" transform="matrix(1.00, 0.00, -0.00, -1.00, 159.8, 697.0)">D</text><text xml:space="preserve" font-family="Helvetica-Light" font-size="56.0" fill="#000000" transform="matrix(1.00, 0.00, -0.00, -1.00, 200.3, 697.0)">o</text><text xml:space="preserve" font-family="Helvetica-Light" font-size="56.0" fill="#000000" transform="matrix(1.00, 0.00, -0.00, -1.00, 231.4, 697.0)">w</text><text xml:space="preserve" font-family="Helvetica-Light" font-size="56.0" fill="#000000" transform="matrix(1.00, 0.00, -0.00, -1.00, 271.8, 697.0)">n</text><text xml:space="preserve" font-family="Helvetica-Light" font-size="56.0" fill="#000000" transform="matrix(1.00, 0.00, -0.00, -1.00, 303.0, 697.0)"> </text><text xml:space="preserve" font-family="Helvetica-Light" font-size="56.0" fill="#000000" transform="matrix(1.00, 0.00, -0.00, -1.00, 318.5, 697.0)">C</text><text xml:space="preserve" font-family="Helvetica-Light" font-size="56.0" fill="#000000" transform="matrix(1.00, 0.00, -0.00, -1.00, 359.0, 697.0)">a</text><text xml:space="preserve" font-family="Helvetica-Light" font-size="56.0" fill="#000000" transform="matrix(1.00, 0.00, -0.00, -1.00, 390.1, 697.0)">r</text><text xml:space="preserve" font-family="Helvetica-Light" font-size="56.0" fill="#000000" transform="matrix(1.00, 0.00, -0.00, -1.00, 409.8, 697.0)">t</text><text xml:space="preserve" font-family="Helvetica-Light" font-size="56.0" fill="#000000" transform="matrix(1.00, 0.00, -0.00, -1.00, 425.3, 697.0)">a</text><text xml:space="preserve" font-family="Helvetica-Light" font-size="56.0" fill="#000000" transform="matrix(1.00, 0.00, -0.00, -1.00, 456.5, 697.0)">g</text><text xml:space="preserve" font-family="Helvetica-Light" font-size="56.0" fill="#000000" transform="matrix(1.00, 0.00, -0.00, -1.00, 490.7, 697.0)">e</text><text xml:space="preserve" font-family="Helvetica-Light" font-size="56.0" fill="#000000" transform="matrix(1.00, 0.00, -0.00, -1.00, 521.8, 697.0)">n</text><text xml:space="preserve" font-family="Helvetica-Light" font-size="56.0" fill="#000000" transform="matrix(1.00, 0.00, -0.00, -1.00, 553.0, 697.0)">a</text><text xml:space="preserve" font-family="Helvetica-Light" font-size="56.0" fill="#000000" transform="matrix(1.00, 0.00, -0.00, -1.00, 584.1, 697.0)"> </text><text xml:space="preserve" font-family="Helvetica-Light" font-size="56.0" fill="#000000" transform="matrix(1.00, 0.00, -0.00, -1.00, 599.7, 697.0)">C</text><text xml:space="preserve" font-family="Helvetica-Light" font-size="56.0" fill="#000000" transform="matrix(1.00, 0.00, -0.00, -1.00, 640.1, 697.0)">l</text><text xml:space="preserve" font-family="Helvetica-Light" font-size="56.0" fill="#000000" transform="matrix(1.00, 0.00, -0.00, -1.00, 652.5, 697.0)">a</text><text xml:space="preserve" font-family="Helvetica-Light" font-size="56.0" fill="#000000" transform="matrix(1.00, 0.00, -0.00, -1.00, 683.7, 697.0)">s</text><text xml:space="preserve" font-family="Helvetica-Light" font-size="56.0" fill="#000000" transform="matrix(1.00, 0.00, -0.00, -1.00, 711.7, 697.0)">s</text><text xml:space="preserve" font-family="Helvetica-Light" font-size="56.0" fill="#000000" transform="matrix(1.00, 0.00, -0.00, -1.00, 739.7, 697.0)"> </text><text xml:space="preserve" font-family="Helvetica-Light" font-size="56.0" fill="#000000" transform="matrix(1.00, 0.00, -0.00, -1.00, 755.2, 697.0)">D</text><text xml:space="preserve" font-family="Helvetica-Light" font-size="56.0" fill="#000000" transform="matrix(1.00, 0.00, -0.00, -1.00, 795.7, 697.0)">i</text><text xml:space="preserve" font-family="Helvetica-Light" font-size="56.0" fill="#000000" transform="matrix(1.00, 0.00, -0.00, -1.00, 808.1, 697.0)">a</text><text xml:space="preserve" font-family="Helvetica-Light" font-size="56.0" fill="#000000" transform="matrix(1.00, 0.00, -0.00, -1.00, 839.2, 697.0)">g</text><text xml:space="preserve" font-family="Helvetica-Light" font-size="56.0" fill="#000000" transform="matrix(1.00, 0.00, -0.00, -1.00, 873.4, 697.0)">r</text><text xml:space="preserve" font-family="Helvetica-Light" font-size="56.0" fill="#000000" transform="matrix(1.00, 0.00, -0.00, -1.00, 892.1, 697.0)">a</text><text xml:space="preserve" font-family="Helvetica-Light" font-size="56.0" fill="#000000" transform="matrix(1.00, 0.00, -0.00, -1.00, 923.2, 697.0)">m</text><text xml:space="preserve" font-family="Helvetica-Light" font-size="13.0" fill="#000000" transform="matrix(1.00, 0.00, -0.00, -1.00, 109.0, 112.0)">•</text><text xml:space="preserve" font-family="Helvetica-Light" font-size="17.3" fill="#000000" transform="matrix(1.00, 0.00, -0.00, -1.00, 126.0, 111.0)">1</text><text xml:space="preserve" font-family="Helvetica-Light" font-size="17.3" fill="#000000" transform="matrix(1.00, 0.00, -0.00, -1.00, 135.6, 111.0)">7</text><text xml:space="preserve" font-family="Helvetica-Light" font-size="17.3" fill="#000000" transform="matrix(1.00, 0.00, -0.00, -1.00, 145.2, 111.0)"> </text><text xml:space="preserve" font-family="Helvetica-Light" font-size="17.3" fill="#000000" transform="matrix(1.00, 0.00, -0.00, -1.00, 150.0, 111.0)">C</text><text xml:space="preserve" font-family="Helvetica-Light" font-size="17.3" fill="#000000" transform="matrix(1.00, 0.00, -0.00, -1.00, 162.5, 111.0)">l</text><text xml:space="preserve" font-family="Helvetica-Light" font-size="17.3" fill="#000000" transform="matrix(1.00, 0.00, -0.00, -1.00, 166.3, 111.0)">a</text><text xml:space="preserve" font-family="Helvetica-Light" font-size="17.3" fill="#000000" transform="matrix(1.00, 0.00, -0.00, -1.00, 175.9, 111.0)">s</text><text xml:space="preserve" font-family="Helvetica-Light" font-size="17.3" fill="#000000" transform="matrix(1.00, 0.00, -0.00, -1.00, 184.6, 111.0)">s</text><text xml:space="preserve" font-family="Helvetica-Light" font-size="17.3" fill="#000000" transform="matrix(1.00, 0.00, -0.00, -1.00, 193.2, 111.0)">e</text><text xml:space="preserve" font-family="Helvetica-Light" font-size="17.3" fill="#000000" transform="matrix(1.00, 0.00, -0.00, -1.00, 202.8, 111.0)">s</text><text xml:space="preserve" font-family="Helvetica-Light" font-size="17.3" fill="#000000" transform="matrix(1.00, 0.00, -0.00, -1.00, 211.5, 111.0)"> </text><text xml:space="preserve" font-family="Helvetica-Light" font-size="13.0" fill="#000000" transform="matrix(1.00, 0.00, -0.00, -1.00, 109.0, 71.8)">•</text><text xml:space="preserve" font-family="Helvetica-Light" font-size="17.3" fill="#000000" transform="matrix(1.00, 0.00, -0.00, -1.00, 126.0, 71.0)">9</text><text xml:space="preserve" font-family="Helvetica-Light" font-size="17.3" fill="#000000" transform="matrix(1.00, 0.00, -0.00, -1.00, 135.6, 71.0)"> </text><text xml:space="preserve" font-family="Helvetica-Light" font-size="17.3" fill="#000000" transform="matrix(1.00, 0.00, -0.00, -1.00, 140.4, 71.0)">I</text><text xml:space="preserve" font-family="Helvetica-Light" font-size="17.3" fill="#000000" transform="matrix(1.00, 0.00, -0.00, -1.00, 145.2, 71.0)">n</text><text xml:space="preserve" font-family="Helvetica-Light" font-size="17.3" fill="#000000" transform="matrix(1.00, 0.00, -0.00, -1.00, 154.8, 71.0)">t</text><text xml:space="preserve" font-family="Helvetica-Light" font-size="17.3" fill="#000000" transform="matrix(1.00, 0.00, -0.00, -1.00, 159.6, 71.0)">e</text><text xml:space="preserve" font-family="Helvetica-Light" font-size="17.3" fill="#000000" transform="matrix(1.00, 0.00, -0.00, -1.00, 169.2, 71.0)">r</text><text xml:space="preserve" font-family="Helvetica-Light" font-size="17.3" fill="#000000" transform="matrix(1.00, 0.00, -0.00, -1.00, 175.3, 71.0)">f</text><text xml:space="preserve" font-family="Helvetica-Light" font-size="17.3" fill="#000000" transform="matrix(1.00, 0.00, -0.00, -1.00, 180.1, 71.0)">a</text><text xml:space="preserve" font-family="Helvetica-Light" font-size="17.3" fill="#000000" transform="matrix(1.00, 0.00, -0.00, -1.00, 189.7, 71.0)">c</text><text xml:space="preserve" font-family="Helvetica-Light" font-size="17.3" fill="#000000" transform="matrix(1.00, 0.00, -0.00, -1.00, 199.3, 71.0)">e</text><text xml:space="preserve" font-family="Helvetica-Light" font-size="17.3" fill="#000000" transform="matrix(1.00, 0.00, -0.00, -1.00, 208.9, 71.0)">s</text><text xml:space="preserve" font-family="Helvetica-Light" font-size="17.3" fill="#000000" transform="matrix(1.00, 0.00, -0.00, -1.00, 217.6, 71.0)"> </text><text xml:space="preserve" font-family="Helvetica-Light" font-size="13.0" fill="#000000" transform="matrix(1.00, 0.00, -0.00, -1.00, 109.0, 31.7)">•</text><text xml:space="preserve" font-family="Helvetica-Light" font-size="17.3" fill="#000000" transform="matrix(1.00, 0.00, -0.00, -1.00, 126.0, 31.0)">1</text><text xml:space="preserve" font-family="Helvetica-Light" font-size="17.3" fill="#000000" transform="matrix(1.00, 0.00, -0.00, -1.00, 135.6, 31.0)"> </text><text xml:space="preserve" font-family="Helvetica-Light" font-size="17.3" fill="#000000" transform="matrix(1.00, 0.00, -0.00, -1.00, 140.4, 31.0)">E</text><text xml:space="preserve" font-family="Helvetica-Light" font-size="17.3" fill="#000000" transform="matrix(1.00, 0.00, -0.00, -1.00, 151.0, 31.0)">n</text><text xml:space="preserve" font-family="Helvetica-Light" font-size="17.3" fill="#000000" transform="matrix(1.00, 0.00, -0.00, -1.00, 160.6, 31.0)">u</text><text xml:space="preserve" font-family="Helvetica-Light" font-size="17.3" fill="#000000" transform="matrix(1.00, 0.00, -0.00, -1.00, 170.2, 31.0)">m</text><text xml:space="preserve" font-family="Helvetica-Light" font-size="13.0" fill="#000000" transform="matrix(1.00, 0.00, -0.00, -1.00, 579.0, 112.0)">•</text><text xml:space="preserve" font-family="Helvetica-Light" font-size="17.3" fill="#000000" transform="matrix(1.00, 0.00, -0.00, -1.00, 596.0, 111.0)">N</text><text xml:space="preserve" font-family="Helvetica-Light" font-size="17.3" fill="#000000" transform="matrix(1.00, 0.00, -0.00, -1.00, 608.5, 111.0)">o</text><text xml:space="preserve" font-family="Helvetica-Light" font-size="17.3" fill="#000000" transform="matrix(1.00, 0.00, -0.00, -1.00, 618.1, 111.0)"> </text><text xml:space="preserve" font-family="Helvetica-Light" font-size="17.3" fill="#000000" transform="matrix(1.00, 0.00, -0.00, -1.00, 622.9, 111.0)">i</text><text xml:space="preserve" font-family="Helvetica-Light" font-size="17.3" fill="#000000" transform="matrix(1.00, 0.00, -0.00, -1.00, 626.7, 111.0)">m</text><text xml:space="preserve" font-family="Helvetica-Light" font-size="17.3" fill="#000000" transform="matrix(1.00, 0.00, -0.00, -1.00, 641.1, 111.0)">p</text><text xml:space="preserve" font-family="Helvetica-Light" font-size="17.3" fill="#000000" transform="matrix(1.00, 0.00, -0.00, -1.00, 651.7, 111.0)">l</text><text xml:space="preserve" font-family="Helvetica-Light" font-size="17.3" fill="#000000" transform="matrix(1.00, 0.00, -0.00, -1.00, 655.5, 111.0)">e</text><text xml:space="preserve" font-family="Helvetica-Light" font-size="17.3" fill="#000000" transform="matrix(1.00, 0.00, -0.00, -1.00, 665.1, 111.0)">m</text><text xml:space="preserve" font-family="Helvetica-Light" font-size="17.3" fill="#000000" transform="matrix(1.00, 0.00, -0.00, -1.00, 679.5, 111.0)">e</text><text xml:space="preserve" font-family="Helvetica-Light" font-size="17.3" fill="#000000" transform="matrix(1.00, 0.00, -0.00, -1.00, 689.1, 111.0)">n</text><text xml:space="preserve" font-family="Helvetica-Light" font-size="17.3" fill="#000000" transform="matrix(1.00, 0.00, -0.00, -1.00, 698.7, 111.0)">t</text><text xml:space="preserve" font-family="Helvetica-Light" font-size="17.3" fill="#000000" transform="matrix(1.00, 0.00, -0.00, -1.00, 703.5, 111.0)">a</text><text xml:space="preserve" font-family="Helvetica-Light" font-size="17.3" fill="#000000" transform="matrix(1.00, 0.00, -0.00, -1.00, 713.1, 111.0)">t</text><text xml:space="preserve" font-family="Helvetica-Light" font-size="17.3" fill="#000000" transform="matrix(1.00, 0.00, -0.00, -1.00, 717.9, 111.0)">i</text><text xml:space="preserve" font-family="Helvetica-Light" font-size="17.3" fill="#000000" transform="matrix(1.00, 0.00, -0.00, -1.00, 721.8, 111.0)">o</text><text xml:space="preserve" font-family="Helvetica-Light" font-size="17.3" fill="#000000" transform="matrix(1.00, 0.00, -0.00, -1.00, 731.4, 111.0)">n</text><text xml:space="preserve" font-family="Helvetica-Light" font-size="17.3" fill="#000000" transform="matrix(1.00, 0.00, -0.00, -1.00, 741.0, 111.0)">s</text><text xml:space="preserve" font-family="Helvetica-Light" font-size="17.3" fill="#000000" transform="matrix(1.00, 0.00, -0.00, -1.00, 749.6, 111.0)"> </text><text xml:space="preserve" font-family="Helvetica-Light" font-size="13.0" fill="#000000" transform="matrix(1.00, 0.00, -0.00, -1.00, 579.0, 71.8)">•</text><text xml:space="preserve" font-family="Helvetica-Light" font-size="17.3" fill="#000000" transform="matrix(1.00, 0.00, -0.00, -1.00, 596.0, 71.0)">O</text><text xml:space="preserve" font-family="Helvetica-Light" font-size="17.3" fill="#000000" transform="matrix(1.00, 0.00, -0.00, -1.00, 609.4, 71.0)">n</text><text xml:space="preserve" font-family="Helvetica-Light" font-size="17.3" fill="#000000" transform="matrix(1.00, 0.00, -0.00, -1.00, 619.1, 71.0)">l</text><text xml:space="preserve" font-family="Helvetica-Light" font-size="17.3" fill="#000000" transform="matrix(1.00, 0.00, -0.00, -1.00, 622.9, 71.0)">y</text><text xml:space="preserve" font-family="Helvetica-Light" font-size="17.3" fill="#000000" transform="matrix(1.00, 0.00, -0.00, -1.00, 631.5, 71.0)"> </text><text xml:space="preserve" font-family="Helvetica-Light" font-size="17.3" fill="#000000" transform="matrix(1.00, 0.00, -0.00, -1.00, 636.3, 71.0)">r</text><text xml:space="preserve" font-family="Helvetica-Light" font-size="17.3" fill="#000000" transform="matrix(1.00, 0.00, -0.00, -1.00, 641.8, 71.0)">e</text><text xml:space="preserve" font-family="Helvetica-Light" font-size="17.3" fill="#000000" transform="matrix(1.00, 0.00, -0.00, -1.00, 651.4, 71.0)">l</text><text xml:space="preserve" font-family="Helvetica-Light" font-size="17.3" fill="#000000" transform="matrix(1.00, 0.00, -0.00, -1.00, 655.2, 71.0)">a</text><text xml:space="preserve" font-family="Helvetica-Light" font-size="17.3" fill="#000000" transform="matrix(1.00, 0.00, -0.00, -1.00, 664.8, 71.0)">t</text><text xml:space="preserve" font-family="Helvetica-Light" font-size="17.3" fill="#000000" transform="matrix(1.00, 0.00, -0.00, -1.00, 669.6, 71.0)">i</text><text xml:space="preserve" font-family="Helvetica-Light" font-size="17.3" fill="#000000" transform="matrix(1.00, 0.00, -0.00, -1.00, 673.5, 71.0)">o</text><text xml:space="preserve" font-family="Helvetica-Light" font-size="17.3" fill="#000000" transform="matrix(1.00, 0.00, -0.00, -1.00, 683.1, 71.0)">n</text><text xml:space="preserve" font-family="Helvetica-Light" font-size="17.3" fill="#000000" transform="matrix(1.00, 0.00, -0.00, -1.00, 692.7, 71.0)">s</text><text xml:space="preserve" font-family="Helvetica-Light" font-size="17.3" fill="#000000" transform="matrix(1.00, 0.00, -0.00, -1.00, 701.3, 71.0)">h</text><text xml:space="preserve" font-family="Helvetica-Light" font-size="17.3" fill="#000000" transform="matrix(1.00, 0.00, -0.00, -1.00, 710.9, 71.0)">i</text><text xml:space="preserve" font-family="Helvetica-Light" font-size="17.3" fill="#000000" transform="matrix(1.00, 0.00, -0.00, -1.00, 714.8, 71.0)">p</text><text xml:space="preserve" font-family="Helvetica-Light" font-size="17.3" fill="#000000" transform="matrix(1.00, 0.00, -0.00, -1.00, 725.3, 71.0)">s</text><text xml:space="preserve" font-family="Helvetica-Light" font-size="17.3" fill="#000000" transform="matrix(1.00, 0.00, -0.00, -1.00, 734.0, 71.0)"> </text><text xml:space="preserve" font-family="Helvetica-Light" font-size="13.0" fill="#000000" transform="matrix(1.00, 0.00, -0.00, -1.00, 579.0, 31.7)">•</text><text xml:space="preserve" font-family="Helvetica-Light" font-size="17.3" fill="#000000" transform="matrix(1.00, 0.00, -0.00, -1.00, 596.0, 31.0)">2</text><text xml:space="preserve" font-family="Helvetica-Light" font-size="17.3" fill="#000000" transform="matrix(1.00, 0.00, -0.00, -1.00, 605.6, 31.0)">4</text><text xml:space="preserve" font-family="Helvetica-Light" font-size="17.3" fill="#000000" transform="matrix(1.00, 0.00, -0.00, -1.00, 615.2, 31.0)">4</text><text xml:space="preserve" font-family="Helvetica-Light" font-size="17.3" fill="#000000" transform="matrix(1.00, 0.00, -0.00, -1.00, 624.8, 31.0)"> </text><text xml:space="preserve" font-family="Helvetica-Light" font-size="17.3" fill="#000000" transform="matrix(1.00, 0.00, -0.00, -1.00, 629.6, 31.0)">L</text><text xml:space="preserve" font-family="Helvetica-Light" font-size="17.3" fill="#000000" transform="matrix(1.00, 0.00, -0.00, -1.00, 639.2, 31.0)">O</text><text xml:space="preserve" font-family="Helvetica-Light" font-size="17.3" fill="#000000" transform="matrix(1.00, 0.00, -0.00, -1.00, 652.7, 31.0)">C</text></g></svg>