<?xml version="1.0" encoding="UTF-8" standalone="no"?><svg xmlns="http://www.w3.org/2000/svg" xmlns:xlink="http://www.w3.org/1999/xlink" clip-rule="evenodd" stroke-miterlimit="4.00" viewBox="0 0 712 41"><desc>SVG generated by Keynote</desc><defs></defs><g transform="matrix(1.00, 0.00, -0.00, -1.00, 0.0, 41.0)"><text xml:space="preserve" font-family="Helvetica-Light" font-size="49.6" fill="#000000" transform="matrix(1.00, 0.00, -0.00, -1.00, -2.0, 3.0)">B</text><text xml:space="preserve" font-family="Helvetica-Light" font-size="49.6" fill="#000000" transform="matrix(1.00, 0.00, -0.00, -1.00, 31.1, 3.0)">a</text><text xml:space="preserve" font-family="Helvetica-Light" font-size="49.6" fill="#000000" transform="matrix(1.00, 0.00, -0.00, -1.00, 58.7, 3.0)">c</text><text xml:space="preserve" font-family="Helvetica-Light" font-size="49.6" fill="#000000" transform="matrix(1.00, 0.00, -0.00, -1.00, 86.2, 3.0)">k</text><text xml:space="preserve" font-family="Helvetica-Light" font-size="49.6" fill="#000000" transform="matrix(1.00, 0.00, -0.00, -1.00, 111.0, 3.0)"> </text><text xml:space="preserve" font-family="Helvetica-Light" font-size="49.6" fill="#000000" transform="matrix(1.00, 0.00, -0.00, -1.00, 124.8, 3.0)">t</text><text xml:space="preserve" font-family="Helvetica-Light" font-size="49.6" fill="#000000" transform="matrix(1.00, 0.00, -0.00, -1.00, 138.6, 3.0)">o</text><text xml:space="preserve" font-family="Helvetica-Light" font-size="49.6" fill="#000000" transform="matrix(1.00, 0.00, -0.00, -1.00, 166.2, 3.0)"> </text><text xml:space="preserve" font-family="Helvetica-Light" font-size="49.6" fill="#000000" transform="matrix(1.00, 0.00, -0.00, -1.00, 180.0, 3.0)">I</text><text xml:space="preserve" font-family="Helvetica-Light" font-size="49.6" fill="#000000" transform="matrix(1.00, 0.00, -0.00, -1.00, 193.8, 3.0)">m</text><text xml:space="preserve" font-family="Helvetica-Light" font-size="49.6" fill="#000000" transform="matrix(1.00, 0.00, -0.00, -1.00, 235.1, 3.0)">m</text><text xml:space="preserve" font-family="Helvetica-Light" font-size="49.6" fill="#000000" transform="matrix(1.00, 0.00, -0.00, -1.00, 276.4, 3.0)">u</text><text xml:space="preserve" font-family="Helvetica-Light" font-size="49.6" fill="#000000" transform="matrix(1.00, 0.00, -0.00, -1.00, 304.0, 3.0)">t</text><text xml:space="preserve" font-family="Helvetica-Light" font-size="49.6" fill="#000000" transform="matrix(1.00, 0.00, -0.00, -1.00, 317.8, 3.0)">a</text><text xml:space="preserve" font-family="Helvetica-Light" font-size="49.6" fill="#000000" transform="matrix(1.00, 0.00, -0.00, -1.00, 345.3, 3.0)">b</text><text xml:space="preserve" font-family="Helvetica-Light" font-size="49.6" fill="#000000" transform="matrix(1.00, 0.00, -0.00, -1.00, 375.7, 3.0)">l</text><text xml:space="preserve" font-family="Helvetica-Light" font-size="49.6" fill="#000000" transform="matrix(1.00, 0.00, -0.00, -1.00, 386.7, 3.0)">e</text><text xml:space="preserve" font-family="Helvetica-Light" font-size="49.6" fill="#000000" transform="matrix(1.00, 0.00, -0.00, -1.00, 414.2, 3.0)">B</text><text xml:space="preserve" font-family="Helvetica-Light" font-size="49.6" fill="#000000" transform="matrix(1.00, 0.00, -0.00, -1.00, 447.3, 3.0)">a</text><text xml:space="preserve" font-family="Helvetica-Light" font-size="49.6" fill="#000000" transform="matrix(1.00, 0.00, -0.00, -1.00, 474.9, 3.0)">n</text><text xml:space="preserve" font-family="Helvetica-Light" font-size="49.6" fill="#000000" transform="matrix(1.00, 0.00, -0.00, -1.00, 502.5, 3.0)">k</text><text xml:space="preserve" font-family="Helvetica-Light" font-size="49.6" fill="#000000" transform="matrix(1.00, 0.00, -0.00, -1.00, 527.3, 3.0)">A</text><text xml:space="preserve" font-family="Helvetica-Light" font-size="49.6" fill="#000000" transform="matrix(1.00, 0.00, -0.00, -1.00, 560.4, 3.0)">c</text><text xml:space="preserve" font-family="Helvetica-Light" font-size="49.6" fill="#000000" transform="matrix(1.00, 0.00, -0.00, -1.00, 587.9, 3.0)">c</text><text xml:space="preserve" font-family="Helvetica-Light" font-size="49.6" fill="#000000" transform="matrix(1.00, 0.00, -0.00, -1.00, 615.5, 3.0)">o</text><text xml:space="preserve" font-family="Helvetica-Light" font-size="49.6" fill="#000000" transform="matrix(1.00, 0.00, -0.00, -1.00, 643.1, 3.0)">u</text><text xml:space="preserve" font-family="Helvetica-Light" font-size="49.6" fill="#000000" transform="matrix(1.00, 0.00, -0.00, -1.00, 670.7, 3.0)">n</text><text xml:space="preserve" font-family="Helvetica-Light" font-size="49.6" fill="#000000" transform="matrix(1.00, 0.00, -0.00, -1.00, 698.3, 3.0)">t</text></g></svg>