<?xml version="1.0" encoding="UTF-8" standalone="no"?><svg xmlns="http://www.w3.org/2000/svg" xmlns:xlink="http://www.w3.org/1999/xlink" clip-rule="evenodd" stroke-miterlimit="4.00" viewBox="0 0 1024 768"><desc>SVG generated by Keynote</desc><defs></defs><g transform="matrix(1.00, 0.00, -0.00, -1.00, 0.0, 768.0)"><g><clipPath id="clip-501"><path d="M 0.0 768.0 L 1024.0 768.0 L 1024.0 0.0 L 0.0 0.0 Z M 0.0 768.0 "></path></clipPath><g clip-path="url(#clip-501)"><image xlink:href="../../39451CEE-E280-41CA-872D-216C9FC86FAF/assets/43DA95A1552523200D88D33196FD3A18.jpeg" width="1024.00" height="768.00" transform="matrix(1.00, 0.00, -0.00, -1.00, 0.0, 768.0)"></image></g></g><text xml:space="preserve" font-family="MarkerFelt-Thin" font-size="80.0" fill="#45A6DE" transform="matrix(1.00, 0.00, -0.00, -1.00, 305.0, 626.0)">I</text><text xml:space="preserve" font-family="MarkerFelt-Thin" font-size="80.0" fill="#45A6DE" transform="matrix(1.00, 0.00, -0.00, -1.00, 326.8, 626.0)">n</text><text xml:space="preserve" font-family="MarkerFelt-Thin" font-size="80.0" fill="#45A6DE" transform="matrix(1.00, 0.00, -0.00, -1.00, 366.0, 626.0)"> </text><text xml:space="preserve" font-family="MarkerFelt-Thin" font-size="80.0" fill="#45A6DE" transform="matrix(1.00, 0.00, -0.00, -1.00, 386.0, 626.0)">C</text><text xml:space="preserve" font-family="MarkerFelt-Thin" font-size="80.0" fill="#45A6DE" transform="matrix(1.00, 0.00, -0.00, -1.00, 426.4, 626.0)">o</text><text xml:space="preserve" font-family="MarkerFelt-Thin" font-size="80.0" fill="#45A6DE" transform="matrix(1.00, 0.00, -0.00, -1.00, 462.6, 626.0)">n</text><text xml:space="preserve" font-family="MarkerFelt-Thin" font-size="80.0" fill="#45A6DE" transform="matrix(1.00, 0.00, -0.00, -1.00, 504.5, 626.0)">c</text><text xml:space="preserve" font-family="MarkerFelt-Thin" font-size="80.0" fill="#45A6DE" transform="matrix(1.00, 0.00, -0.00, -1.00, 538.0, 626.0)">l</text><text xml:space="preserve" font-family="MarkerFelt-Thin" font-size="80.0" fill="#45A6DE" transform="matrix(1.00, 0.00, -0.00, -1.00, 556.7, 626.0)">u</text><text xml:space="preserve" font-family="MarkerFelt-Thin" font-size="80.0" fill="#45A6DE" transform="matrix(1.00, 0.00, -0.00, -1.00, 591.6, 626.0)">s</text><text xml:space="preserve" font-family="MarkerFelt-Thin" font-size="80.0" fill="#45A6DE" transform="matrix(1.00, 0.00, -0.00, -1.00, 624.4, 626.0)">i</text><text xml:space="preserve" font-family="MarkerFelt-Thin" font-size="80.0" fill="#45A6DE" transform="matrix(1.00, 0.00, -0.00, -1.00, 643.0, 626.0)">o</text><text xml:space="preserve" font-family="MarkerFelt-Thin" font-size="80.0" fill="#45A6DE" transform="matrix(1.00, 0.00, -0.00, -1.00, 679.2, 626.0)">n</text><g><clipPath id="clip-502"><path d="M 45.3 548.0 L 65.4 548.0 L 65.4 566.8 L 45.3 566.8 Z M 45.3 548.0 "></path></clipPath><g clip-path="url(#clip-502)"><path d="M 65.1 554.7 C 65.3 554.4 65.4 554.1 65.4 553.8 C 65.4 553.2 65.1 552.7 64.4 552.2 C 63.7 551.7 63.0 551.4 62.1 551.4 C 61.0 551.4 59.8 552.2 58.3 553.8 C 58.3 553.8 58.3 551.4 58.3 551.4 C 58.3 551.2 58.4 550.9 58.5 550.5 C 58.6 550.2 58.7 550.0 58.7 549.8 C 58.7 549.3 58.5 548.9 57.9 548.5 C 57.4 548.2 56.9 548.0 56.4 548.0 C 55.5 548.0 54.7 548.4 54.0 549.2 C 53.8 549.4 53.8 550.0 53.9 551.1 C 53.9 552.2 53.9 553.3 54.0 554.4 C 53.5 554.0 52.4 553.4 50.8 552.6 C 50.6 552.3 50.0 551.9 48.9 551.6 C 48.1 551.5 47.3 551.6 46.5 552.0 C 45.7 552.4 45.3 552.9 45.3 553.5 C 45.3 553.7 45.3 553.8 45.4 554.0 C 45.5 554.4 45.9 554.6 46.4 554.8 C 47.2 555.0 47.7 555.2 47.7 555.2 C 47.7 555.2 52.2 557.7 52.2 557.7 C 52.2 557.7 49.1 559.2 49.1 559.2 C 48.6 559.2 48.0 559.4 47.2 559.8 C 47.1 560.1 47.0 560.3 47.0 560.6 C 47.0 561.4 47.4 562.1 48.3 562.8 C 49.2 563.5 50.1 563.9 51.0 563.9 C 51.3 563.9 51.6 563.8 51.9 563.7 C 52.2 563.6 52.4 563.4 52.7 562.9 C 52.9 562.4 53.4 561.9 54.0 561.5 C 54.0 561.5 54.1 564.3 54.1 564.3 C 54.0 564.7 54.0 565.3 54.1 566.0 C 54.5 566.5 55.3 566.8 56.6 566.8 C 57.7 566.8 58.5 566.4 58.9 565.8 C 59.0 565.5 59.1 564.8 58.9 563.8 C 58.9 562.9 58.8 562.0 58.6 561.1 C 58.6 561.1 60.3 561.9 60.3 561.9 C 60.6 562.3 61.2 562.6 62.1 563.0 C 62.8 563.1 63.4 562.8 64.0 562.3 C 64.6 561.8 64.9 561.2 64.9 560.6 C 64.9 560.3 64.8 560.0 64.7 559.8 C 64.5 559.6 64.3 559.4 63.9 559.3 C 63.3 559.2 63.0 559.1 62.9 559.0 C 62.9 559.0 60.4 557.2 60.4 557.2 C 60.4 557.2 63.6 555.5 63.6 555.5 C 64.0 555.4 64.5 555.1 65.1 554.7 Z M 65.1 554.7 " fill="#3995D6"></path></g></g><text xml:space="preserve" font-family="MarkerFelt-Thin" font-size="36.8" fill="#858585" transform="matrix(1.00, 0.00, -0.00, -1.00, 85.0, 545.0)">S</text><text xml:space="preserve" font-family="MarkerFelt-Thin" font-size="36.8" fill="#858585" transform="matrix(1.00, 0.00, -0.00, -1.00, 104.6, 545.0)">o</text><text xml:space="preserve" font-family="MarkerFelt-Thin" font-size="36.8" fill="#858585" transform="matrix(1.00, 0.00, -0.00, -1.00, 120.6, 545.0)">m</text><text xml:space="preserve" font-family="MarkerFelt-Thin" font-size="36.8" fill="#858585" transform="matrix(1.00, 0.00, -0.00, -1.00, 147.1, 545.0)">e</text><text xml:space="preserve" font-family="MarkerFelt-Thin" font-size="36.8" fill="#858585" transform="matrix(1.00, 0.00, -0.00, -1.00, 161.1, 545.0)"> </text><text xml:space="preserve" font-family="MarkerFelt-Thin" font-size="36.8" fill="#858585" transform="matrix(1.00, 0.00, -0.00, -1.00, 170.3, 545.0)">o</text><text xml:space="preserve" font-family="MarkerFelt-Thin" font-size="36.8" fill="#858585" transform="matrix(1.00, 0.00, -0.00, -1.00, 187.0, 545.0)">f</text><text xml:space="preserve" font-family="MarkerFelt-Thin" font-size="36.8" fill="#858585" transform="matrix(1.00, 0.00, -0.00, -1.00, 200.2, 545.0)"> </text><text xml:space="preserve" font-family="MarkerFelt-Thin" font-size="36.8" fill="#858585" transform="matrix(1.00, 0.00, -0.00, -1.00, 209.4, 545.0)">t</text><text xml:space="preserve" font-family="MarkerFelt-Thin" font-size="36.8" fill="#858585" transform="matrix(1.00, 0.00, -0.00, -1.00, 224.7, 545.0)">h</text><text xml:space="preserve" font-family="MarkerFelt-Thin" font-size="36.8" fill="#858585" transform="matrix(1.00, 0.00, -0.00, -1.00, 243.6, 545.0)">e</text><text xml:space="preserve" font-family="MarkerFelt-Thin" font-size="36.8" fill="#858585" transform="matrix(1.00, 0.00, -0.00, -1.00, 257.6, 545.0)"> </text><text xml:space="preserve" font-family="MarkerFelt-Thin" font-size="36.8" fill="#858585" transform="matrix(1.00, 0.00, -0.00, -1.00, 266.8, 545.0)">b</text><text xml:space="preserve" font-family="MarkerFelt-Thin" font-size="36.8" fill="#858585" transform="matrix(1.00, 0.00, -0.00, -1.00, 284.0, 545.0)">e</text><text xml:space="preserve" font-family="MarkerFelt-Thin" font-size="36.8" fill="#858585" transform="matrix(1.00, 0.00, -0.00, -1.00, 300.8, 545.0)">s</text><text xml:space="preserve" font-family="MarkerFelt-Thin" font-size="36.8" fill="#858585" transform="matrix(1.00, 0.00, -0.00, -1.00, 316.7, 545.0)">t</text><text xml:space="preserve" font-family="MarkerFelt-Thin" font-size="36.8" fill="#858585" transform="matrix(1.00, 0.00, -0.00, -1.00, 330.0, 545.0)"> </text><text xml:space="preserve" font-family="MarkerFelt-Thin" font-size="36.8" fill="#858585" transform="matrix(1.00, 0.00, -0.00, -1.00, 339.2, 545.0)">r</text><text xml:space="preserve" font-family="MarkerFelt-Thin" font-size="36.8" fill="#858585" transform="matrix(1.00, 0.00, -0.00, -1.00, 353.2, 545.0)">e</text><text xml:space="preserve" font-family="MarkerFelt-Thin" font-size="36.8" fill="#858585" transform="matrix(1.00, 0.00, -0.00, -1.00, 370.2, 545.0)">a</text><text xml:space="preserve" font-family="MarkerFelt-Thin" font-size="36.8" fill="#858585" transform="matrix(1.00, 0.00, -0.00, -1.00, 388.4, 545.0)">s</text><text xml:space="preserve" font-family="MarkerFelt-Thin" font-size="36.8" fill="#858585" transform="matrix(1.00, 0.00, -0.00, -1.00, 403.7, 545.0)">o</text><text xml:space="preserve" font-family="MarkerFelt-Thin" font-size="36.8" fill="#858585" transform="matrix(1.00, 0.00, -0.00, -1.00, 420.4, 545.0)">n</text><text xml:space="preserve" font-family="MarkerFelt-Thin" font-size="36.8" fill="#858585" transform="matrix(1.00, 0.00, -0.00, -1.00, 439.9, 545.0)">s</text><text xml:space="preserve" font-family="MarkerFelt-Thin" font-size="36.8" fill="#858585" transform="matrix(1.00, 0.00, -0.00, -1.00, 453.5, 545.0)"> </text><text xml:space="preserve" font-family="MarkerFelt-Thin" font-size="36.8" fill="#858585" transform="matrix(1.00, 0.00, -0.00, -1.00, 462.7, 545.0)">t</text><text xml:space="preserve" font-family="MarkerFelt-Thin" font-size="36.8" fill="#858585" transform="matrix(1.00, 0.00, -0.00, -1.00, 477.5, 545.0)">o</text><text xml:space="preserve" font-family="MarkerFelt-Thin" font-size="36.8" fill="#858585" transform="matrix(1.00, 0.00, -0.00, -1.00, 492.6, 545.0)"> </text><text xml:space="preserve" font-family="MarkerFelt-Thin" font-size="36.8" fill="#858585" transform="matrix(1.00, 0.00, -0.00, -1.00, 501.8, 545.0)">u</text><text xml:space="preserve" font-family="MarkerFelt-Thin" font-size="36.8" fill="#858585" transform="matrix(1.00, 0.00, -0.00, -1.00, 517.8, 545.0)">s</text><text xml:space="preserve" font-family="MarkerFelt-Thin" font-size="36.8" fill="#858585" transform="matrix(1.00, 0.00, -0.00, -1.00, 532.7, 545.0)">e</text><text xml:space="preserve" font-family="MarkerFelt-Thin" font-size="36.8" fill="#858585" transform="matrix(1.00, 0.00, -0.00, -1.00, 546.7, 545.0)"> </text><text xml:space="preserve" font-family="MarkerFelt-Thin" font-size="36.8" fill="#858585" transform="matrix(1.00, 0.00, -0.00, -1.00, 555.9, 545.0)">C</text><text xml:space="preserve" font-family="MarkerFelt-Thin" font-size="36.8" fill="#858585" transform="matrix(1.00, 0.00, -0.00, -1.00, 574.0, 545.0)">l</text><text xml:space="preserve" font-family="MarkerFelt-Thin" font-size="36.8" fill="#858585" transform="matrix(1.00, 0.00, -0.00, -1.00, 582.8, 545.0)">o</text><text xml:space="preserve" font-family="MarkerFelt-Thin" font-size="36.8" fill="#858585" transform="matrix(1.00, 0.00, -0.00, -1.00, 599.2, 545.0)">j</text><text xml:space="preserve" font-family="MarkerFelt-Thin" font-size="36.8" fill="#858585" transform="matrix(1.00, 0.00, -0.00, -1.00, 608.0, 545.0)">u</text><text xml:space="preserve" font-family="MarkerFelt-Thin" font-size="36.8" fill="#858585" transform="matrix(1.00, 0.00, -0.00, -1.00, 624.7, 545.0)">r</text><text xml:space="preserve" font-family="MarkerFelt-Thin" font-size="36.8" fill="#858585" transform="matrix(1.00, 0.00, -0.00, -1.00, 638.7, 545.0)">e</text><text xml:space="preserve" font-family="MarkerFelt-Thin" font-size="36.8" fill="#858585" transform="matrix(1.00, 0.00, -0.00, -1.00, 652.7, 545.0)"> </text><text xml:space="preserve" font-family="MarkerFelt-Thin" font-size="36.8" fill="#858585" transform="matrix(1.00, 0.00, -0.00, -1.00, 661.9, 545.0)">a</text><text xml:space="preserve" font-family="MarkerFelt-Thin" font-size="36.8" fill="#858585" transform="matrix(1.00, 0.00, -0.00, -1.00, 680.4, 545.0)">r</text><text xml:space="preserve" font-family="MarkerFelt-Thin" font-size="36.8" fill="#858585" transform="matrix(1.00, 0.00, -0.00, -1.00, 694.3, 545.0)">e</text><text xml:space="preserve" font-family="MarkerFelt-Thin" font-size="36.8" fill="#858585" transform="matrix(1.00, 0.00, -0.00, -1.00, 710.7, 545.0)">n</text><text xml:space="preserve" font-family="MarkerFelt-Thin" font-size="36.8" fill="#858585" transform="matrix(1.00, 0.00, -0.00, -1.00, 726.9, 545.0)">’</text><text xml:space="preserve" font-family="MarkerFelt-Thin" font-size="36.8" fill="#858585" transform="matrix(1.00, 0.00, -0.00, -1.00, 733.8, 545.0)">t</text><text xml:space="preserve" font-family="MarkerFelt-Thin" font-size="36.8" fill="#858585" transform="matrix(1.00, 0.00, -0.00, -1.00, 747.0, 545.0)"> </text><text xml:space="preserve" font-family="MarkerFelt-Thin" font-size="36.8" fill="#858585" transform="matrix(1.00, 0.00, -0.00, -1.00, 756.2, 545.0)">c</text><text xml:space="preserve" font-family="MarkerFelt-Thin" font-size="36.8" fill="#858585" transform="matrix(1.00, 0.00, -0.00, -1.00, 771.9, 545.0)">o</text><text xml:space="preserve" font-family="MarkerFelt-Thin" font-size="36.8" fill="#858585" transform="matrix(1.00, 0.00, -0.00, -1.00, 787.9, 545.0)">m</text><text xml:space="preserve" font-family="MarkerFelt-Thin" font-size="36.8" fill="#858585" transform="matrix(1.00, 0.00, -0.00, -1.00, 815.7, 545.0)">p</text><text xml:space="preserve" font-family="MarkerFelt-Thin" font-size="36.8" fill="#858585" transform="matrix(1.00, 0.00, -0.00, -1.00, 832.8, 545.0)">e</text><text xml:space="preserve" font-family="MarkerFelt-Thin" font-size="36.8" fill="#858585" transform="matrix(1.00, 0.00, -0.00, -1.00, 849.2, 545.0)">l</text><text xml:space="preserve" font-family="MarkerFelt-Thin" font-size="36.8" fill="#858585" transform="matrix(1.00, 0.00, -0.00, -1.00, 858.4, 545.0)">l</text><text xml:space="preserve" font-family="MarkerFelt-Thin" font-size="36.8" fill="#858585" transform="matrix(1.00, 0.00, -0.00, -1.00, 867.0, 545.0)">i</text><text xml:space="preserve" font-family="MarkerFelt-Thin" font-size="36.8" fill="#858585" transform="matrix(1.00, 0.00, -0.00, -1.00, 876.1, 545.0)">n</text><text xml:space="preserve" font-family="MarkerFelt-Thin" font-size="36.8" fill="#858585" transform="matrix(1.00, 0.00, -0.00, -1.00, 895.2, 545.0)">g</text><text xml:space="preserve" font-family="MarkerFelt-Thin" font-size="36.8" fill="#858585" transform="matrix(1.00, 0.00, -0.00, -1.00, 910.7, 545.0)"> </text><g><clipPath id="clip-503"><path d="M 45.3 474.4 L 65.4 474.4 L 65.4 493.2 L 45.3 493.2 Z M 45.3 474.4 "></path></clipPath><g clip-path="url(#clip-503)"><path d="M 65.1 481.1 C 65.3 480.8 65.4 480.5 65.4 480.2 C 65.4 479.6 65.1 479.1 64.4 478.6 C 63.7 478.1 63.0 477.8 62.1 477.8 C 61.0 477.8 59.8 478.6 58.3 480.2 C 58.3 480.2 58.3 477.8 58.3 477.8 C 58.3 477.6 58.4 477.3 58.5 476.9 C 58.6 476.6 58.7 476.4 58.7 476.2 C 58.7 475.7 58.5 475.3 57.9 474.9 C 57.4 474.6 56.9 474.4 56.4 474.4 C 55.5 474.4 54.7 474.8 54.0 475.6 C 53.8 475.8 53.8 476.4 53.9 477.5 C 53.9 478.6 53.9 479.7 54.0 480.8 C 53.5 480.4 52.4 479.8 50.8 479.0 C 50.6 478.7 50.0 478.3 48.9 478.0 C 48.1 477.9 47.3 478.0 46.5 478.4 C 45.7 478.8 45.3 479.3 45.3 479.9 C 45.3 480.1 45.3 480.2 45.4 480.4 C 45.5 480.8 45.9 481.0 46.4 481.2 C 47.2 481.4 47.7 481.6 47.7 481.6 C 47.7 481.6 52.2 484.1 52.2 484.1 C 52.2 484.1 49.1 485.6 49.1 485.6 C 48.6 485.6 48.0 485.8 47.2 486.2 C 47.1 486.5 47.0 486.7 47.0 487.0 C 47.0 487.8 47.4 488.5 48.3 489.2 C 49.2 489.9 50.1 490.3 51.0 490.3 C 51.3 490.3 51.6 490.2 51.9 490.1 C 52.2 490.0 52.4 489.8 52.7 489.3 C 52.9 488.8 53.4 488.3 54.0 487.9 C 54.0 487.9 54.1 490.7 54.1 490.7 C 54.0 491.1 54.0 491.7 54.1 492.4 C 54.5 492.9 55.3 493.2 56.6 493.2 C 57.7 493.2 58.5 492.8 58.9 492.2 C 59.0 491.9 59.1 491.2 58.9 490.2 C 58.9 489.3 58.8 488.4 58.6 487.5 C 58.6 487.5 60.3 488.3 60.3 488.3 C 60.6 488.7 61.2 489.0 62.1 489.4 C 62.8 489.5 63.4 489.2 64.0 488.7 C 64.6 488.2 64.9 487.6 64.9 487.0 C 64.9 486.7 64.8 486.4 64.7 486.2 C 64.5 486.0 64.3 485.8 63.9 485.7 C 63.3 485.6 63.0 485.5 62.9 485.4 C 62.9 485.4 60.4 483.6 60.4 483.6 C 60.4 483.6 63.6 481.9 63.6 481.9 C 64.0 481.8 64.5 481.5 65.1 481.1 Z M 65.1 481.1 " fill="#3995D6"></path></g></g><text xml:space="preserve" font-family="MarkerFelt-Thin" font-size="36.8" fill="#858585" transform="matrix(1.00, 0.00, -0.00, -1.00, 85.0, 472.0)">T</text><text xml:space="preserve" font-family="MarkerFelt-Thin" font-size="36.8" fill="#858585" transform="matrix(1.00, 0.00, -0.00, -1.00, 102.7, 472.0)">h</text><text xml:space="preserve" font-family="MarkerFelt-Thin" font-size="36.8" fill="#858585" transform="matrix(1.00, 0.00, -0.00, -1.00, 121.1, 472.0)">i</text><text xml:space="preserve" font-family="MarkerFelt-Thin" font-size="36.8" fill="#858585" transform="matrix(1.00, 0.00, -0.00, -1.00, 129.7, 472.0)">s</text><text xml:space="preserve" font-family="MarkerFelt-Thin" font-size="36.8" fill="#858585" transform="matrix(1.00, 0.00, -0.00, -1.00, 143.3, 472.0)"> </text><text xml:space="preserve" font-family="MarkerFelt-Thin" font-size="36.8" fill="#858585" transform="matrix(1.00, 0.00, -0.00, -1.00, 152.5, 472.0)">t</text><text xml:space="preserve" font-family="MarkerFelt-Thin" font-size="36.8" fill="#858585" transform="matrix(1.00, 0.00, -0.00, -1.00, 167.7, 472.0)">a</text><text xml:space="preserve" font-family="MarkerFelt-Thin" font-size="36.8" fill="#858585" transform="matrix(1.00, 0.00, -0.00, -1.00, 186.3, 472.0)">l</text><text xml:space="preserve" font-family="MarkerFelt-Thin" font-size="36.8" fill="#858585" transform="matrix(1.00, 0.00, -0.00, -1.00, 195.3, 472.0)">k</text><text xml:space="preserve" font-family="MarkerFelt-Thin" font-size="36.8" fill="#858585" transform="matrix(1.00, 0.00, -0.00, -1.00, 215.3, 472.0)">s</text><text xml:space="preserve" font-family="MarkerFelt-Thin" font-size="36.8" fill="#858585" transform="matrix(1.00, 0.00, -0.00, -1.00, 228.9, 472.0)"> </text><text xml:space="preserve" font-family="MarkerFelt-Thin" font-size="36.8" fill="#858585" transform="matrix(1.00, 0.00, -0.00, -1.00, 238.1, 472.0)">p</text><text xml:space="preserve" font-family="MarkerFelt-Thin" font-size="36.8" fill="#858585" transform="matrix(1.00, 0.00, -0.00, -1.00, 255.2, 472.0)">r</text><text xml:space="preserve" font-family="MarkerFelt-Thin" font-size="36.8" fill="#858585" transform="matrix(1.00, 0.00, -0.00, -1.00, 269.1, 472.0)">e</text><text xml:space="preserve" font-family="MarkerFelt-Thin" font-size="36.8" fill="#858585" transform="matrix(1.00, 0.00, -0.00, -1.00, 285.9, 472.0)">s</text><text xml:space="preserve" font-family="MarkerFelt-Thin" font-size="36.8" fill="#858585" transform="matrix(1.00, 0.00, -0.00, -1.00, 300.8, 472.0)">e</text><text xml:space="preserve" font-family="MarkerFelt-Thin" font-size="36.8" fill="#858585" transform="matrix(1.00, 0.00, -0.00, -1.00, 317.2, 472.0)">n</text><text xml:space="preserve" font-family="MarkerFelt-Thin" font-size="36.8" fill="#858585" transform="matrix(1.00, 0.00, -0.00, -1.00, 337.3, 472.0)">t</text><text xml:space="preserve" font-family="MarkerFelt-Thin" font-size="36.8" fill="#858585" transform="matrix(1.00, 0.00, -0.00, -1.00, 351.4, 472.0)">e</text><text xml:space="preserve" font-family="MarkerFelt-Thin" font-size="36.8" fill="#858585" transform="matrix(1.00, 0.00, -0.00, -1.00, 367.7, 472.0)">d</text><text xml:space="preserve" font-family="MarkerFelt-Thin" font-size="36.8" fill="#858585" transform="matrix(1.00, 0.00, -0.00, -1.00, 383.5, 472.0)"> </text><text xml:space="preserve" font-family="MarkerFelt-Thin" font-size="36.8" fill="#858585" transform="matrix(1.00, 0.00, -0.00, -1.00, 392.7, 472.0)">a</text><text xml:space="preserve" font-family="MarkerFelt-Thin" font-size="36.8" fill="#858585" transform="matrix(1.00, 0.00, -0.00, -1.00, 409.6, 472.0)"> </text><text xml:space="preserve" font-family="MarkerFelt-Thin" font-size="36.8" fill="#858585" transform="matrix(1.00, 0.00, -0.00, -1.00, 418.8, 472.0)">(</text><text xml:space="preserve" font-family="MarkerFelt-Thin" font-size="36.8" fill="#858585" transform="matrix(1.00, 0.00, -0.00, -1.00, 429.3, 472.0)">h</text><text xml:space="preserve" font-family="MarkerFelt-Thin" font-size="36.8" fill="#858585" transform="matrix(1.00, 0.00, -0.00, -1.00, 448.6, 472.0)">o</text><text xml:space="preserve" font-family="MarkerFelt-Thin" font-size="36.8" fill="#858585" transform="matrix(1.00, 0.00, -0.00, -1.00, 464.9, 472.0)">p</text><text xml:space="preserve" font-family="MarkerFelt-Thin" font-size="36.8" fill="#858585" transform="matrix(1.00, 0.00, -0.00, -1.00, 482.1, 472.0)">e</text><text xml:space="preserve" font-family="MarkerFelt-Thin" font-size="36.8" fill="#858585" transform="matrix(1.00, 0.00, -0.00, -1.00, 498.3, 472.0)">f</text><text xml:space="preserve" font-family="MarkerFelt-Thin" font-size="36.8" fill="#858585" transform="matrix(1.00, 0.00, -0.00, -1.00, 514.2, 472.0)">u</text><text xml:space="preserve" font-family="MarkerFelt-Thin" font-size="36.8" fill="#858585" transform="matrix(1.00, 0.00, -0.00, -1.00, 530.7, 472.0)">l</text><text xml:space="preserve" font-family="MarkerFelt-Thin" font-size="36.8" fill="#858585" transform="matrix(1.00, 0.00, -0.00, -1.00, 539.9, 472.0)">l</text><text xml:space="preserve" font-family="MarkerFelt-Thin" font-size="36.8" fill="#858585" transform="matrix(1.00, 0.00, -0.00, -1.00, 549.2, 472.0)">y</text><text xml:space="preserve" font-family="MarkerFelt-Thin" font-size="36.8" fill="#858585" transform="matrix(1.00, 0.00, -0.00, -1.00, 565.7, 472.0)">)</text><text xml:space="preserve" font-family="MarkerFelt-Thin" font-size="36.8" fill="#858585" transform="matrix(1.00, 0.00, -0.00, -1.00, 575.3, 472.0)"> </text><text xml:space="preserve" font-family="MarkerFelt-Thin" font-size="36.8" fill="#858585" transform="matrix(1.00, 0.00, -0.00, -1.00, 584.5, 472.0)">c</text><text xml:space="preserve" font-family="MarkerFelt-Thin" font-size="36.8" fill="#858585" transform="matrix(1.00, 0.00, -0.00, -1.00, 600.2, 472.0)">o</text><text xml:space="preserve" font-family="MarkerFelt-Thin" font-size="36.8" fill="#858585" transform="matrix(1.00, 0.00, -0.00, -1.00, 616.2, 472.0)">m</text><text xml:space="preserve" font-family="MarkerFelt-Thin" font-size="36.8" fill="#858585" transform="matrix(1.00, 0.00, -0.00, -1.00, 643.9, 472.0)">p</text><text xml:space="preserve" font-family="MarkerFelt-Thin" font-size="36.8" fill="#858585" transform="matrix(1.00, 0.00, -0.00, -1.00, 661.1, 472.0)">e</text><text xml:space="preserve" font-family="MarkerFelt-Thin" font-size="36.8" fill="#858585" transform="matrix(1.00, 0.00, -0.00, -1.00, 677.4, 472.0)">l</text><text xml:space="preserve" font-family="MarkerFelt-Thin" font-size="36.8" fill="#858585" transform="matrix(1.00, 0.00, -0.00, -1.00, 686.6, 472.0)">l</text><text xml:space="preserve" font-family="MarkerFelt-Thin" font-size="36.8" fill="#858585" transform="matrix(1.00, 0.00, -0.00, -1.00, 695.2, 472.0)">i</text><text xml:space="preserve" font-family="MarkerFelt-Thin" font-size="36.8" fill="#858585" transform="matrix(1.00, 0.00, -0.00, -1.00, 704.3, 472.0)">n</text><text xml:space="preserve" font-family="MarkerFelt-Thin" font-size="36.8" fill="#858585" transform="matrix(1.00, 0.00, -0.00, -1.00, 723.5, 472.0)">g</text><text xml:space="preserve" font-family="MarkerFelt-Thin" font-size="36.8" fill="#858585" transform="matrix(1.00, 0.00, -0.00, -1.00, 738.9, 472.0)"> </text><text xml:space="preserve" font-family="MarkerFelt-Thin" font-size="36.8" fill="#858585" transform="matrix(1.00, 0.00, -0.00, -1.00, 748.1, 472.0)">n</text><text xml:space="preserve" font-family="MarkerFelt-Thin" font-size="36.8" fill="#858585" transform="matrix(1.00, 0.00, -0.00, -1.00, 768.3, 472.0)">a</text><text xml:space="preserve" font-family="MarkerFelt-Thin" font-size="36.8" fill="#858585" transform="matrix(1.00, 0.00, -0.00, -1.00, 786.8, 472.0)">r</text><text xml:space="preserve" font-family="MarkerFelt-Thin" font-size="36.8" fill="#858585" transform="matrix(1.00, 0.00, -0.00, -1.00, 803.2, 472.0)">r</text><text xml:space="preserve" font-family="MarkerFelt-Thin" font-size="36.8" fill="#858585" transform="matrix(1.00, 0.00, -0.00, -1.00, 818.2, 472.0)">a</text><text xml:space="preserve" font-family="MarkerFelt-Thin" font-size="36.8" fill="#858585" transform="matrix(1.00, 0.00, -0.00, -1.00, 836.2, 472.0)">t</text><text xml:space="preserve" font-family="MarkerFelt-Thin" font-size="36.8" fill="#858585" transform="matrix(1.00, 0.00, -0.00, -1.00, 852.0, 472.0)">i</text><text xml:space="preserve" font-family="MarkerFelt-Thin" font-size="36.8" fill="#858585" transform="matrix(1.00, 0.00, -0.00, -1.00, 862.6, 472.0)">v</text><text xml:space="preserve" font-family="MarkerFelt-Thin" font-size="36.8" fill="#858585" transform="matrix(1.00, 0.00, -0.00, -1.00, 879.5, 472.0)">e</text><text xml:space="preserve" font-family="MarkerFelt-Thin" font-size="36.8" fill="#858585" transform="matrix(1.00, 0.00, -0.00, -1.00, 893.5, 472.0)"> </text><text xml:space="preserve" font-family="MarkerFelt-Thin" font-size="36.8" fill="#858585" transform="matrix(1.00, 0.00, -0.00, -1.00, 902.7, 472.0)">o</text><text xml:space="preserve" font-family="MarkerFelt-Thin" font-size="36.8" fill="#858585" transform="matrix(1.00, 0.00, -0.00, -1.00, 919.4, 472.0)">n</text><text xml:space="preserve" font-family="MarkerFelt-Thin" font-size="36.8" fill="#858585" transform="matrix(1.00, 0.00, -0.00, -1.00, 937.4, 472.0)"> </text><text xml:space="preserve" font-family="MarkerFelt-Thin" font-size="36.8" fill="#858585" transform="matrix(1.00, 0.00, -0.00, -1.00, 85.0, 432.0)">w</text><text xml:space="preserve" font-family="MarkerFelt-Thin" font-size="36.8" fill="#858585" transform="matrix(1.00, 0.00, -0.00, -1.00, 113.0, 432.0)">h</text><text xml:space="preserve" font-family="MarkerFelt-Thin" font-size="36.8" fill="#858585" transform="matrix(1.00, 0.00, -0.00, -1.00, 131.5, 432.0)">y</text><text xml:space="preserve" font-family="MarkerFelt-Thin" font-size="36.8" fill="#858585" transform="matrix(1.00, 0.00, -0.00, -1.00, 148.8, 432.0)"> </text><text xml:space="preserve" font-family="MarkerFelt-Thin" font-size="36.8" fill="#858585" transform="matrix(1.00, 0.00, -0.00, -1.00, 158.0, 432.0)">y</text><text xml:space="preserve" font-family="MarkerFelt-Thin" font-size="36.8" fill="#858585" transform="matrix(1.00, 0.00, -0.00, -1.00, 176.2, 432.0)">o</text><text xml:space="preserve" font-family="MarkerFelt-Thin" font-size="36.8" fill="#858585" transform="matrix(1.00, 0.00, -0.00, -1.00, 193.1, 432.0)">u</text><text xml:space="preserve" font-family="MarkerFelt-Thin" font-size="36.8" fill="#858585" transform="matrix(1.00, 0.00, -0.00, -1.00, 208.2, 432.0)"> </text><text xml:space="preserve" font-family="MarkerFelt-Thin" font-size="36.8" fill="#858585" transform="matrix(1.00, 0.00, -0.00, -1.00, 217.4, 432.0)">m</text><text xml:space="preserve" font-family="MarkerFelt-Thin" font-size="36.8" fill="#858585" transform="matrix(1.00, 0.00, -0.00, -1.00, 245.3, 432.0)">i</text><text xml:space="preserve" font-family="MarkerFelt-Thin" font-size="36.8" fill="#858585" transform="matrix(1.00, 0.00, -0.00, -1.00, 253.6, 432.0)">g</text><text xml:space="preserve" font-family="MarkerFelt-Thin" font-size="36.8" fill="#858585" transform="matrix(1.00, 0.00, -0.00, -1.00, 269.9, 432.0)">h</text><text xml:space="preserve" font-family="MarkerFelt-Thin" font-size="36.8" fill="#858585" transform="matrix(1.00, 0.00, -0.00, -1.00, 289.3, 432.0)">t</text><text xml:space="preserve" font-family="MarkerFelt-Thin" font-size="36.8" fill="#858585" transform="matrix(1.00, 0.00, -0.00, -1.00, 302.6, 432.0)"> </text><text xml:space="preserve" font-family="MarkerFelt-Thin" font-size="36.8" fill="#858585" transform="matrix(1.00, 0.00, -0.00, -1.00, 311.8, 432.0)">w</text><text xml:space="preserve" font-family="MarkerFelt-Thin" font-size="36.8" fill="#858585" transform="matrix(1.00, 0.00, -0.00, -1.00, 338.3, 432.0)">a</text><text xml:space="preserve" font-family="MarkerFelt-Thin" font-size="36.8" fill="#858585" transform="matrix(1.00, 0.00, -0.00, -1.00, 356.6, 432.0)">n</text><text xml:space="preserve" font-family="MarkerFelt-Thin" font-size="36.8" fill="#858585" transform="matrix(1.00, 0.00, -0.00, -1.00, 376.8, 432.0)">t</text><text xml:space="preserve" font-family="MarkerFelt-Thin" font-size="36.8" fill="#858585" transform="matrix(1.00, 0.00, -0.00, -1.00, 390.0, 432.0)"> </text><text xml:space="preserve" font-family="MarkerFelt-Thin" font-size="36.8" fill="#858585" transform="matrix(1.00, 0.00, -0.00, -1.00, 399.2, 432.0)">t</text><text xml:space="preserve" font-family="MarkerFelt-Thin" font-size="36.8" fill="#858585" transform="matrix(1.00, 0.00, -0.00, -1.00, 414.0, 432.0)">o</text><text xml:space="preserve" font-family="MarkerFelt-Thin" font-size="36.8" fill="#858585" transform="matrix(1.00, 0.00, -0.00, -1.00, 429.1, 432.0)"> </text><text xml:space="preserve" font-family="MarkerFelt-Thin" font-size="36.8" fill="#858585" transform="matrix(1.00, 0.00, -0.00, -1.00, 438.3, 432.0)">c</text><text xml:space="preserve" font-family="MarkerFelt-Thin" font-size="36.8" fill="#858585" transform="matrix(1.00, 0.00, -0.00, -1.00, 454.0, 432.0)">o</text><text xml:space="preserve" font-family="MarkerFelt-Thin" font-size="36.8" fill="#858585" transform="matrix(1.00, 0.00, -0.00, -1.00, 470.7, 432.0)">n</text><text xml:space="preserve" font-family="MarkerFelt-Thin" font-size="36.8" fill="#858585" transform="matrix(1.00, 0.00, -0.00, -1.00, 490.2, 432.0)">s</text><text xml:space="preserve" font-family="MarkerFelt-Thin" font-size="36.8" fill="#858585" transform="matrix(1.00, 0.00, -0.00, -1.00, 505.3, 432.0)">i</text><text xml:space="preserve" font-family="MarkerFelt-Thin" font-size="36.8" fill="#858585" transform="matrix(1.00, 0.00, -0.00, -1.00, 513.5, 432.0)">d</text><text xml:space="preserve" font-family="MarkerFelt-Thin" font-size="36.8" fill="#858585" transform="matrix(1.00, 0.00, -0.00, -1.00, 529.3, 432.0)">e</text><text xml:space="preserve" font-family="MarkerFelt-Thin" font-size="36.8" fill="#858585" transform="matrix(1.00, 0.00, -0.00, -1.00, 545.5, 432.0)">r</text><text xml:space="preserve" font-family="MarkerFelt-Thin" font-size="36.8" fill="#858585" transform="matrix(1.00, 0.00, -0.00, -1.00, 559.5, 432.0)"> </text><text xml:space="preserve" font-family="MarkerFelt-Thin" font-size="36.8" fill="#858585" transform="matrix(1.00, 0.00, -0.00, -1.00, 568.7, 432.0)">C</text><text xml:space="preserve" font-family="MarkerFelt-Thin" font-size="36.8" fill="#858585" transform="matrix(1.00, 0.00, -0.00, -1.00, 586.8, 432.0)">l</text><text xml:space="preserve" font-family="MarkerFelt-Thin" font-size="36.8" fill="#858585" transform="matrix(1.00, 0.00, -0.00, -1.00, 595.6, 432.0)">o</text><text xml:space="preserve" font-family="MarkerFelt-Thin" font-size="36.8" fill="#858585" transform="matrix(1.00, 0.00, -0.00, -1.00, 612.0, 432.0)">j</text><text xml:space="preserve" font-family="MarkerFelt-Thin" font-size="36.8" fill="#858585" transform="matrix(1.00, 0.00, -0.00, -1.00, 620.7, 432.0)">u</text><text xml:space="preserve" font-family="MarkerFelt-Thin" font-size="36.8" fill="#858585" transform="matrix(1.00, 0.00, -0.00, -1.00, 637.5, 432.0)">r</text><text xml:space="preserve" font-family="MarkerFelt-Thin" font-size="36.8" fill="#858585" transform="matrix(1.00, 0.00, -0.00, -1.00, 651.5, 432.0)">e</text><text xml:space="preserve" font-family="MarkerFelt-Thin" font-size="36.8" fill="#858585" transform="matrix(1.00, 0.00, -0.00, -1.00, 665.5, 432.0)"> </text><g><clipPath id="clip-504"><path d="M 45.3 360.8 L 65.4 360.8 L 65.4 379.6 L 45.3 379.6 Z M 45.3 360.8 "></path></clipPath><g clip-path="url(#clip-504)"><path d="M 65.1 367.5 C 65.3 367.2 65.4 366.9 65.4 366.6 C 65.4 366.0 65.1 365.5 64.4 365.0 C 63.7 364.5 63.0 364.2 62.1 364.2 C 61.0 364.2 59.8 365.0 58.3 366.6 C 58.3 366.6 58.3 364.2 58.3 364.2 C 58.3 364.0 58.4 363.7 58.5 363.3 C 58.6 363.0 58.7 362.8 58.7 362.6 C 58.7 362.1 58.5 361.7 57.9 361.3 C 57.4 361.0 56.9 360.8 56.4 360.8 C 55.5 360.8 54.7 361.2 54.0 362.0 C 53.8 362.2 53.8 362.8 53.9 363.9 C 53.9 365.0 53.9 366.1 54.0 367.2 C 53.5 366.8 52.4 366.2 50.8 365.4 C 50.6 365.1 50.0 364.7 48.9 364.4 C 48.1 364.3 47.3 364.4 46.5 364.8 C 45.7 365.2 45.3 365.7 45.3 366.3 C 45.3 366.5 45.3 366.6 45.4 366.8 C 45.5 367.2 45.9 367.4 46.4 367.6 C 47.2 367.8 47.7 368.0 47.7 368.0 C 47.7 368.0 52.2 370.5 52.2 370.5 C 52.2 370.5 49.1 372.0 49.1 372.0 C 48.6 372.0 48.0 372.2 47.2 372.6 C 47.1 372.9 47.0 373.1 47.0 373.4 C 47.0 374.2 47.4 374.9 48.3 375.6 C 49.2 376.3 50.1 376.7 51.0 376.7 C 51.3 376.7 51.6 376.6 51.9 376.5 C 52.2 376.4 52.4 376.2 52.7 375.7 C 52.9 375.2 53.4 374.7 54.0 374.3 C 54.0 374.3 54.1 377.1 54.1 377.1 C 54.0 377.5 54.0 378.1 54.1 378.8 C 54.5 379.3 55.3 379.6 56.6 379.6 C 57.7 379.6 58.5 379.2 58.9 378.6 C 59.0 378.3 59.1 377.6 58.9 376.6 C 58.9 375.7 58.8 374.8 58.6 373.9 C 58.6 373.9 60.3 374.7 60.3 374.7 C 60.6 375.1 61.2 375.4 62.1 375.8 C 62.8 375.9 63.4 375.6 64.0 375.1 C 64.6 374.6 64.9 374.0 64.9 373.4 C 64.9 373.1 64.8 372.8 64.7 372.6 C 64.5 372.4 64.3 372.2 63.9 372.1 C 63.3 372.0 63.0 371.9 62.9 371.8 C 62.9 371.8 60.4 370.0 60.4 370.0 C 60.4 370.0 63.6 368.3 63.6 368.3 C 64.0 368.2 64.5 367.9 65.1 367.5 Z M 65.1 367.5 " fill="#3995D6"></path></g></g><text xml:space="preserve" font-family="MarkerFelt-Thin" font-size="36.8" fill="#858585" transform="matrix(1.00, 0.00, -0.00, -1.00, 85.0, 358.0)">I</text><text xml:space="preserve" font-family="MarkerFelt-Thin" font-size="36.8" fill="#858585" transform="matrix(1.00, 0.00, -0.00, -1.00, 95.9, 358.0)">t</text><text xml:space="preserve" font-family="MarkerFelt-Thin" font-size="36.8" fill="#858585" transform="matrix(1.00, 0.00, -0.00, -1.00, 109.1, 358.0)"> </text><text xml:space="preserve" font-family="MarkerFelt-Thin" font-size="36.8" fill="#858585" transform="matrix(1.00, 0.00, -0.00, -1.00, 118.3, 358.0)">s</text><text xml:space="preserve" font-family="MarkerFelt-Thin" font-size="36.8" fill="#858585" transform="matrix(1.00, 0.00, -0.00, -1.00, 133.0, 358.0)">h</text><text xml:space="preserve" font-family="MarkerFelt-Thin" font-size="36.8" fill="#858585" transform="matrix(1.00, 0.00, -0.00, -1.00, 151.7, 358.0)">r</text><text xml:space="preserve" font-family="MarkerFelt-Thin" font-size="36.8" fill="#858585" transform="matrix(1.00, 0.00, -0.00, -1.00, 167.9, 358.0)">i</text><text xml:space="preserve" font-family="MarkerFelt-Thin" font-size="36.8" fill="#858585" transform="matrix(1.00, 0.00, -0.00, -1.00, 177.0, 358.0)">n</text><text xml:space="preserve" font-family="MarkerFelt-Thin" font-size="36.8" fill="#858585" transform="matrix(1.00, 0.00, -0.00, -1.00, 196.6, 358.0)">k</text><text xml:space="preserve" font-family="MarkerFelt-Thin" font-size="36.8" fill="#858585" transform="matrix(1.00, 0.00, -0.00, -1.00, 216.7, 358.0)">s</text><text xml:space="preserve" font-family="MarkerFelt-Thin" font-size="36.8" fill="#858585" transform="matrix(1.00, 0.00, -0.00, -1.00, 230.3, 358.0)"> </text><text xml:space="preserve" font-family="MarkerFelt-Thin" font-size="36.8" fill="#858585" transform="matrix(1.00, 0.00, -0.00, -1.00, 239.5, 358.0)">t</text><text xml:space="preserve" font-family="MarkerFelt-Thin" font-size="36.8" fill="#858585" transform="matrix(1.00, 0.00, -0.00, -1.00, 254.8, 358.0)">h</text><text xml:space="preserve" font-family="MarkerFelt-Thin" font-size="36.8" fill="#858585" transform="matrix(1.00, 0.00, -0.00, -1.00, 273.7, 358.0)">e</text><text xml:space="preserve" font-family="MarkerFelt-Thin" font-size="36.8" fill="#858585" transform="matrix(1.00, 0.00, -0.00, -1.00, 287.7, 358.0)"> </text><text xml:space="preserve" font-family="MarkerFelt-Thin" font-size="36.8" fill="#858585" transform="matrix(1.00, 0.00, -0.00, -1.00, 296.9, 358.0)">i</text><text xml:space="preserve" font-family="MarkerFelt-Thin" font-size="36.8" fill="#858585" transform="matrix(1.00, 0.00, -0.00, -1.00, 306.1, 358.0)">r</text><text xml:space="preserve" font-family="MarkerFelt-Thin" font-size="36.8" fill="#858585" transform="matrix(1.00, 0.00, -0.00, -1.00, 321.1, 358.0)">o</text><text xml:space="preserve" font-family="MarkerFelt-Thin" font-size="36.8" fill="#858585" transform="matrix(1.00, 0.00, -0.00, -1.00, 337.7, 358.0)">n</text><text xml:space="preserve" font-family="MarkerFelt-Thin" font-size="36.8" fill="#858585" transform="matrix(1.00, 0.00, -0.00, -1.00, 355.8, 358.0)"> </text><text xml:space="preserve" font-family="MarkerFelt-Thin" font-size="36.8" fill="#858585" transform="matrix(1.00, 0.00, -0.00, -1.00, 365.0, 358.0)">t</text><text xml:space="preserve" font-family="MarkerFelt-Thin" font-size="36.8" fill="#858585" transform="matrix(1.00, 0.00, -0.00, -1.00, 381.0, 358.0)">r</text><text xml:space="preserve" font-family="MarkerFelt-Thin" font-size="36.8" fill="#858585" transform="matrix(1.00, 0.00, -0.00, -1.00, 397.2, 358.0)">i</text><text xml:space="preserve" font-family="MarkerFelt-Thin" font-size="36.8" fill="#858585" transform="matrix(1.00, 0.00, -0.00, -1.00, 406.2, 358.0)">a</text><text xml:space="preserve" font-family="MarkerFelt-Thin" font-size="36.8" fill="#858585" transform="matrix(1.00, 0.00, -0.00, -1.00, 424.6, 358.0)">n</text><text xml:space="preserve" font-family="MarkerFelt-Thin" font-size="36.8" fill="#858585" transform="matrix(1.00, 0.00, -0.00, -1.00, 443.7, 358.0)">g</text><text xml:space="preserve" font-family="MarkerFelt-Thin" font-size="36.8" fill="#858585" transform="matrix(1.00, 0.00, -0.00, -1.00, 460.8, 358.0)">l</text><text xml:space="preserve" font-family="MarkerFelt-Thin" font-size="36.8" fill="#858585" transform="matrix(1.00, 0.00, -0.00, -1.00, 469.1, 358.0)">e</text><text xml:space="preserve" font-family="MarkerFelt-Thin" font-size="36.8" fill="#858585" transform="matrix(1.00, 0.00, -0.00, -1.00, 483.1, 358.0)"> </text><g><clipPath id="clip-505"><path d="M 95.3 287.2 L 115.4 287.2 L 115.4 306.0 L 95.3 306.0 Z M 95.3 287.2 "></path></clipPath><g clip-path="url(#clip-505)"><path d="M 115.1 293.9 C 115.3 293.6 115.4 293.3 115.4 293.0 C 115.4 292.4 115.1 291.9 114.4 291.4 C 113.7 290.9 113.0 290.6 112.1 290.6 C 111.0 290.6 109.8 291.4 108.3 293.0 C 108.3 293.0 108.3 290.6 108.3 290.6 C 108.3 290.4 108.4 290.1 108.5 289.7 C 108.6 289.4 108.7 289.2 108.7 289.0 C 108.7 288.5 108.5 288.1 107.9 287.7 C 107.4 287.4 106.9 287.2 106.4 287.2 C 105.5 287.2 104.7 287.6 104.0 288.4 C 103.8 288.6 103.8 289.2 103.9 290.3 C 103.9 291.4 103.9 292.5 104.0 293.6 C 103.5 293.2 102.4 292.6 100.8 291.8 C 100.6 291.5 100.0 291.1 98.9 290.8 C 98.1 290.7 97.3 290.8 96.5 291.2 C 95.7 291.6 95.3 292.1 95.3 292.7 C 95.3 292.9 95.3 293.0 95.4 293.2 C 95.5 293.6 95.9 293.8 96.4 294.0 C 97.2 294.2 97.7 294.4 97.7 294.4 C 97.7 294.4 102.2 296.9 102.2 296.9 C 102.2 296.9 99.1 298.4 99.1 298.4 C 98.6 298.4 98.0 298.6 97.2 299.0 C 97.1 299.3 97.0 299.5 97.0 299.8 C 97.0 300.6 97.4 301.3 98.3 302.0 C 99.2 302.7 100.1 303.1 101.0 303.1 C 101.3 303.1 101.6 303.0 101.9 302.9 C 102.2 302.8 102.4 302.6 102.7 302.1 C 102.9 301.6 103.4 301.1 104.0 300.7 C 104.0 300.7 104.1 303.5 104.1 303.5 C 104.0 303.9 104.0 304.5 104.1 305.2 C 104.5 305.7 105.3 306.0 106.6 306.0 C 107.7 306.0 108.5 305.6 108.9 305.0 C 109.0 304.7 109.1 304.0 108.9 303.0 C 108.9 302.1 108.8 301.2 108.6 300.3 C 108.6 300.3 110.3 301.1 110.3 301.1 C 110.6 301.5 111.2 301.8 112.1 302.2 C 112.8 302.3 113.4 302.0 114.0 301.5 C 114.6 301.0 114.9 300.4 114.9 299.8 C 114.9 299.5 114.8 299.2 114.7 299.0 C 114.5 298.8 114.3 298.6 113.9 298.5 C 113.3 298.4 113.0 298.3 112.9 298.2 C 112.9 298.2 110.4 296.4 110.4 296.4 C 110.4 296.4 113.6 294.7 113.6 294.7 C 114.0 294.6 114.5 294.3 115.1 293.9 Z M 115.1 293.9 " fill="#3995D6"></path></g></g><text xml:space="preserve" font-family="MarkerFelt-Thin" font-size="36.8" fill="#858585" transform="matrix(1.00, 0.00, -0.00, -1.00, 135.0, 285.0)">R</text><text xml:space="preserve" font-family="MarkerFelt-Thin" font-size="36.8" fill="#858585" transform="matrix(1.00, 0.00, -0.00, -1.00, 157.1, 285.0)">e</text><text xml:space="preserve" font-family="MarkerFelt-Thin" font-size="36.8" fill="#858585" transform="matrix(1.00, 0.00, -0.00, -1.00, 173.4, 285.0)">d</text><text xml:space="preserve" font-family="MarkerFelt-Thin" font-size="36.8" fill="#858585" transform="matrix(1.00, 0.00, -0.00, -1.00, 190.1, 285.0)">u</text><text xml:space="preserve" font-family="MarkerFelt-Thin" font-size="36.8" fill="#858585" transform="matrix(1.00, 0.00, -0.00, -1.00, 206.3, 285.0)">c</text><text xml:space="preserve" font-family="MarkerFelt-Thin" font-size="36.8" fill="#858585" transform="matrix(1.00, 0.00, -0.00, -1.00, 221.6, 285.0)">e</text><text xml:space="preserve" font-family="MarkerFelt-Thin" font-size="36.8" fill="#858585" transform="matrix(1.00, 0.00, -0.00, -1.00, 238.4, 285.0)">s</text><text xml:space="preserve" font-family="MarkerFelt-Thin" font-size="36.8" fill="#858585" transform="matrix(1.00, 0.00, -0.00, -1.00, 252.0, 285.0)"> </text><text xml:space="preserve" font-family="MarkerFelt-Thin" font-size="36.8" fill="#858585" transform="matrix(1.00, 0.00, -0.00, -1.00, 261.2, 285.0)">c</text><text xml:space="preserve" font-family="MarkerFelt-Thin" font-size="36.8" fill="#858585" transform="matrix(1.00, 0.00, -0.00, -1.00, 276.9, 285.0)">o</text><text xml:space="preserve" font-family="MarkerFelt-Thin" font-size="36.8" fill="#858585" transform="matrix(1.00, 0.00, -0.00, -1.00, 293.6, 285.0)">s</text><text xml:space="preserve" font-family="MarkerFelt-Thin" font-size="36.8" fill="#858585" transform="matrix(1.00, 0.00, -0.00, -1.00, 309.6, 285.0)">t</text><text xml:space="preserve" font-family="MarkerFelt-Thin" font-size="36.8" fill="#858585" transform="matrix(1.00, 0.00, -0.00, -1.00, 322.8, 285.0)"> </text><g><clipPath id="clip-506"><path d="M 95.3 213.6 L 115.4 213.6 L 115.4 232.4 L 95.3 232.4 Z M 95.3 213.6 "></path></clipPath><g clip-path="url(#clip-506)"><path d="M 115.1 220.3 C 115.3 220.0 115.4 219.7 115.4 219.4 C 115.4 218.8 115.1 218.3 114.4 217.8 C 113.7 217.3 113.0 217.0 112.1 217.0 C 111.0 217.0 109.8 217.8 108.3 219.4 C 108.3 219.4 108.3 217.0 108.3 217.0 C 108.3 216.8 108.4 216.5 108.5 216.1 C 108.6 215.8 108.7 215.6 108.7 215.4 C 108.7 214.9 108.5 214.5 107.9 214.1 C 107.4 213.8 106.9 213.6 106.4 213.6 C 105.5 213.6 104.7 214.0 104.0 214.8 C 103.8 215.0 103.8 215.6 103.9 216.7 C 103.9 217.8 103.9 218.9 104.0 220.0 C 103.5 219.6 102.4 219.0 100.8 218.2 C 100.6 217.9 100.0 217.5 98.9 217.2 C 98.1 217.1 97.3 217.2 96.5 217.6 C 95.7 218.0 95.3 218.5 95.3 219.1 C 95.3 219.3 95.3 219.4 95.4 219.6 C 95.5 220.0 95.9 220.2 96.4 220.4 C 97.2 220.6 97.7 220.8 97.7 220.8 C 97.7 220.8 102.2 223.3 102.2 223.3 C 102.2 223.3 99.1 224.8 99.1 224.8 C 98.6 224.8 98.0 225.0 97.2 225.4 C 97.1 225.7 97.0 225.9 97.0 226.2 C 97.0 227.0 97.4 227.7 98.3 228.4 C 99.2 229.1 100.1 229.5 101.0 229.5 C 101.3 229.5 101.6 229.4 101.9 229.3 C 102.2 229.2 102.4 229.0 102.7 228.5 C 102.9 228.0 103.4 227.5 104.0 227.1 C 104.0 227.1 104.1 229.9 104.1 229.9 C 104.0 230.3 104.0 230.9 104.1 231.6 C 104.5 232.1 105.3 232.4 106.6 232.4 C 107.7 232.4 108.5 232.0 108.9 231.4 C 109.0 231.1 109.1 230.4 108.9 229.4 C 108.9 228.5 108.8 227.6 108.6 226.7 C 108.6 226.7 110.3 227.5 110.3 227.5 C 110.6 227.9 111.2 228.2 112.1 228.6 C 112.8 228.7 113.4 228.4 114.0 227.9 C 114.6 227.4 114.9 226.8 114.9 226.2 C 114.9 225.9 114.8 225.6 114.7 225.4 C 114.5 225.2 114.3 225.0 113.9 224.9 C 113.3 224.8 113.0 224.7 112.9 224.6 C 112.9 224.6 110.4 222.8 110.4 222.8 C 110.4 222.8 113.6 221.1 113.6 221.1 C 114.0 221.0 114.5 220.7 115.1 220.3 Z M 115.1 220.3 " fill="#3995D6"></path></g></g><text xml:space="preserve" font-family="MarkerFelt-Thin" font-size="36.8" fill="#858585" transform="matrix(1.00, 0.00, -0.00, -1.00, 135.0, 211.0)">R</text><text xml:space="preserve" font-family="MarkerFelt-Thin" font-size="36.8" fill="#858585" transform="matrix(1.00, 0.00, -0.00, -1.00, 157.1, 211.0)">e</text><text xml:space="preserve" font-family="MarkerFelt-Thin" font-size="36.8" fill="#858585" transform="matrix(1.00, 0.00, -0.00, -1.00, 173.4, 211.0)">d</text><text xml:space="preserve" font-family="MarkerFelt-Thin" font-size="36.8" fill="#858585" transform="matrix(1.00, 0.00, -0.00, -1.00, 190.1, 211.0)">u</text><text xml:space="preserve" font-family="MarkerFelt-Thin" font-size="36.8" fill="#858585" transform="matrix(1.00, 0.00, -0.00, -1.00, 206.3, 211.0)">c</text><text xml:space="preserve" font-family="MarkerFelt-Thin" font-size="36.8" fill="#858585" transform="matrix(1.00, 0.00, -0.00, -1.00, 221.6, 211.0)">e</text><text xml:space="preserve" font-family="MarkerFelt-Thin" font-size="36.8" fill="#858585" transform="matrix(1.00, 0.00, -0.00, -1.00, 238.4, 211.0)">s</text><text xml:space="preserve" font-family="MarkerFelt-Thin" font-size="36.8" fill="#858585" transform="matrix(1.00, 0.00, -0.00, -1.00, 252.0, 211.0)"> </text><text xml:space="preserve" font-family="MarkerFelt-Thin" font-size="36.8" fill="#858585" transform="matrix(1.00, 0.00, -0.00, -1.00, 261.2, 211.0)">t</text><text xml:space="preserve" font-family="MarkerFelt-Thin" font-size="36.8" fill="#858585" transform="matrix(1.00, 0.00, -0.00, -1.00, 277.0, 211.0)">i</text><text xml:space="preserve" font-family="MarkerFelt-Thin" font-size="36.8" fill="#858585" transform="matrix(1.00, 0.00, -0.00, -1.00, 285.7, 211.0)">m</text><text xml:space="preserve" font-family="MarkerFelt-Thin" font-size="36.8" fill="#858585" transform="matrix(1.00, 0.00, -0.00, -1.00, 312.2, 211.0)">e</text><text xml:space="preserve" font-family="MarkerFelt-Thin" font-size="36.8" fill="#858585" transform="matrix(1.00, 0.00, -0.00, -1.00, 326.1, 211.0)"> </text><text xml:space="preserve" font-family="MarkerFelt-Thin" font-size="36.8" fill="#858585" transform="matrix(1.00, 0.00, -0.00, -1.00, 335.3, 211.0)">t</text><text xml:space="preserve" font-family="MarkerFelt-Thin" font-size="36.8" fill="#858585" transform="matrix(1.00, 0.00, -0.00, -1.00, 350.1, 211.0)">o</text><text xml:space="preserve" font-family="MarkerFelt-Thin" font-size="36.8" fill="#858585" transform="matrix(1.00, 0.00, -0.00, -1.00, 365.2, 211.0)"> </text><text xml:space="preserve" font-family="MarkerFelt-Thin" font-size="36.8" fill="#858585" transform="matrix(1.00, 0.00, -0.00, -1.00, 374.4, 211.0)">m</text><text xml:space="preserve" font-family="MarkerFelt-Thin" font-size="36.8" fill="#858585" transform="matrix(1.00, 0.00, -0.00, -1.00, 402.8, 211.0)">a</text><text xml:space="preserve" font-family="MarkerFelt-Thin" font-size="36.8" fill="#858585" transform="matrix(1.00, 0.00, -0.00, -1.00, 421.2, 211.0)">r</text><text xml:space="preserve" font-family="MarkerFelt-Thin" font-size="36.8" fill="#858585" transform="matrix(1.00, 0.00, -0.00, -1.00, 437.2, 211.0)">k</text><text xml:space="preserve" font-family="MarkerFelt-Thin" font-size="36.8" fill="#858585" transform="matrix(1.00, 0.00, -0.00, -1.00, 456.5, 211.0)">e</text><text xml:space="preserve" font-family="MarkerFelt-Thin" font-size="36.8" fill="#858585" transform="matrix(1.00, 0.00, -0.00, -1.00, 473.5, 211.0)">t</text><text xml:space="preserve" font-family="MarkerFelt-Thin" font-size="36.8" fill="#858585" transform="matrix(1.00, 0.00, -0.00, -1.00, 486.8, 211.0)"> </text><g><clipPath id="clip-507"><path d="M 95.3 140.0 L 115.4 140.0 L 115.4 158.8 L 95.3 158.8 Z M 95.3 140.0 "></path></clipPath><g clip-path="url(#clip-507)"><path d="M 115.1 146.7 C 115.3 146.4 115.4 146.1 115.4 145.8 C 115.4 145.2 115.1 144.7 114.4 144.2 C 113.7 143.7 113.0 143.4 112.1 143.4 C 111.0 143.4 109.8 144.2 108.3 145.8 C 108.3 145.8 108.3 143.4 108.3 143.4 C 108.3 143.2 108.4 142.9 108.5 142.5 C 108.6 142.2 108.7 142.0 108.7 141.8 C 108.7 141.3 108.5 140.9 107.9 140.5 C 107.4 140.2 106.9 140.0 106.4 140.0 C 105.5 140.0 104.7 140.4 104.0 141.2 C 103.8 141.4 103.8 142.0 103.9 143.1 C 103.9 144.2 103.9 145.3 104.0 146.4 C 103.5 146.0 102.4 145.4 100.8 144.6 C 100.6 144.3 100.0 143.9 98.9 143.6 C 98.1 143.5 97.3 143.6 96.5 144.0 C 95.7 144.4 95.3 144.9 95.3 145.5 C 95.3 145.7 95.3 145.8 95.4 146.0 C 95.5 146.4 95.9 146.6 96.4 146.8 C 97.2 147.0 97.7 147.2 97.7 147.2 C 97.7 147.2 102.2 149.7 102.2 149.7 C 102.2 149.7 99.1 151.2 99.1 151.2 C 98.6 151.2 98.0 151.4 97.2 151.8 C 97.1 152.1 97.0 152.3 97.0 152.6 C 97.0 153.4 97.4 154.1 98.3 154.8 C 99.2 155.5 100.1 155.9 101.0 155.9 C 101.3 155.9 101.6 155.8 101.9 155.7 C 102.2 155.6 102.4 155.4 102.7 154.9 C 102.9 154.4 103.4 153.9 104.0 153.5 C 104.0 153.5 104.1 156.3 104.1 156.3 C 104.0 156.7 104.0 157.3 104.1 158.0 C 104.5 158.5 105.3 158.8 106.6 158.8 C 107.7 158.8 108.5 158.4 108.9 157.8 C 109.0 157.5 109.1 156.8 108.9 155.8 C 108.9 154.9 108.8 154.0 108.6 153.1 C 108.6 153.1 110.3 153.9 110.3 153.9 C 110.6 154.3 111.2 154.6 112.1 155.0 C 112.8 155.1 113.4 154.8 114.0 154.3 C 114.6 153.8 114.9 153.2 114.9 152.6 C 114.9 152.3 114.8 152.0 114.7 151.8 C 114.5 151.6 114.3 151.4 113.9 151.3 C 113.3 151.2 113.0 151.1 112.9 151.0 C 112.9 151.0 110.4 149.2 110.4 149.2 C 110.4 149.2 113.6 147.5 113.6 147.5 C 114.0 147.4 114.5 147.1 115.1 146.7 Z M 115.1 146.7 " fill="#3995D6"></path></g></g><text xml:space="preserve" font-family="MarkerFelt-Thin" font-size="36.8" fill="#858585" transform="matrix(1.00, 0.00, -0.00, -1.00, 135.0, 137.0)">F</text><text xml:space="preserve" font-family="MarkerFelt-Thin" font-size="36.8" fill="#858585" transform="matrix(1.00, 0.00, -0.00, -1.00, 150.5, 137.0)">a</text><text xml:space="preserve" font-family="MarkerFelt-Thin" font-size="36.8" fill="#858585" transform="matrix(1.00, 0.00, -0.00, -1.00, 168.3, 137.0)">c</text><text xml:space="preserve" font-family="MarkerFelt-Thin" font-size="36.8" fill="#858585" transform="matrix(1.00, 0.00, -0.00, -1.00, 183.8, 137.0)">i</text><text xml:space="preserve" font-family="MarkerFelt-Thin" font-size="36.8" fill="#858585" transform="matrix(1.00, 0.00, -0.00, -1.00, 193.0, 137.0)">l</text><text xml:space="preserve" font-family="MarkerFelt-Thin" font-size="36.8" fill="#858585" transform="matrix(1.00, 0.00, -0.00, -1.00, 201.6, 137.0)">i</text><text xml:space="preserve" font-family="MarkerFelt-Thin" font-size="36.8" fill="#858585" transform="matrix(1.00, 0.00, -0.00, -1.00, 211.4, 137.0)">t</text><text xml:space="preserve" font-family="MarkerFelt-Thin" font-size="36.8" fill="#858585" transform="matrix(1.00, 0.00, -0.00, -1.00, 226.5, 137.0)">a</text><text xml:space="preserve" font-family="MarkerFelt-Thin" font-size="36.8" fill="#858585" transform="matrix(1.00, 0.00, -0.00, -1.00, 244.5, 137.0)">t</text><text xml:space="preserve" font-family="MarkerFelt-Thin" font-size="36.8" fill="#858585" transform="matrix(1.00, 0.00, -0.00, -1.00, 258.5, 137.0)">e</text><text xml:space="preserve" font-family="MarkerFelt-Thin" font-size="36.8" fill="#858585" transform="matrix(1.00, 0.00, -0.00, -1.00, 275.3, 137.0)">s</text><text xml:space="preserve" font-family="MarkerFelt-Thin" font-size="36.8" fill="#858585" transform="matrix(1.00, 0.00, -0.00, -1.00, 288.9, 137.0)"> </text><text xml:space="preserve" font-family="MarkerFelt-Thin" font-size="36.8" fill="#858585" transform="matrix(1.00, 0.00, -0.00, -1.00, 298.1, 137.0)">a</text><text xml:space="preserve" font-family="MarkerFelt-Thin" font-size="36.8" fill="#858585" transform="matrix(1.00, 0.00, -0.00, -1.00, 316.1, 137.0)">d</text><text xml:space="preserve" font-family="MarkerFelt-Thin" font-size="36.8" fill="#858585" transform="matrix(1.00, 0.00, -0.00, -1.00, 331.9, 137.0)">d</text><text xml:space="preserve" font-family="MarkerFelt-Thin" font-size="36.8" fill="#858585" transform="matrix(1.00, 0.00, -0.00, -1.00, 348.6, 137.0)">i</text><text xml:space="preserve" font-family="MarkerFelt-Thin" font-size="36.8" fill="#858585" transform="matrix(1.00, 0.00, -0.00, -1.00, 358.4, 137.0)">t</text><text xml:space="preserve" font-family="MarkerFelt-Thin" font-size="36.8" fill="#858585" transform="matrix(1.00, 0.00, -0.00, -1.00, 374.2, 137.0)">i</text><text xml:space="preserve" font-family="MarkerFelt-Thin" font-size="36.8" fill="#858585" transform="matrix(1.00, 0.00, -0.00, -1.00, 382.7, 137.0)">o</text><text xml:space="preserve" font-family="MarkerFelt-Thin" font-size="36.8" fill="#858585" transform="matrix(1.00, 0.00, -0.00, -1.00, 399.4, 137.0)">n</text><text xml:space="preserve" font-family="MarkerFelt-Thin" font-size="36.8" fill="#858585" transform="matrix(1.00, 0.00, -0.00, -1.00, 417.4, 137.0)"> </text><text xml:space="preserve" font-family="MarkerFelt-Thin" font-size="36.8" fill="#858585" transform="matrix(1.00, 0.00, -0.00, -1.00, 426.6, 137.0)">o</text><text xml:space="preserve" font-family="MarkerFelt-Thin" font-size="36.8" fill="#858585" transform="matrix(1.00, 0.00, -0.00, -1.00, 443.3, 137.0)">f</text><text xml:space="preserve" font-family="MarkerFelt-Thin" font-size="36.8" fill="#858585" transform="matrix(1.00, 0.00, -0.00, -1.00, 456.6, 137.0)"> </text><text xml:space="preserve" font-family="MarkerFelt-Thin" font-size="36.8" fill="#858585" transform="matrix(1.00, 0.00, -0.00, -1.00, 465.8, 137.0)">f</text><text xml:space="preserve" font-family="MarkerFelt-Thin" font-size="36.8" fill="#858585" transform="matrix(1.00, 0.00, -0.00, -1.00, 480.2, 137.0)">e</text><text xml:space="preserve" font-family="MarkerFelt-Thin" font-size="36.8" fill="#858585" transform="matrix(1.00, 0.00, -0.00, -1.00, 497.3, 137.0)">a</text><text xml:space="preserve" font-family="MarkerFelt-Thin" font-size="36.8" fill="#858585" transform="matrix(1.00, 0.00, -0.00, -1.00, 515.3, 137.0)">t</text><text xml:space="preserve" font-family="MarkerFelt-Thin" font-size="36.8" fill="#858585" transform="matrix(1.00, 0.00, -0.00, -1.00, 531.0, 137.0)">u</text><text xml:space="preserve" font-family="MarkerFelt-Thin" font-size="36.8" fill="#858585" transform="matrix(1.00, 0.00, -0.00, -1.00, 547.8, 137.0)">r</text><text xml:space="preserve" font-family="MarkerFelt-Thin" font-size="36.8" fill="#858585" transform="matrix(1.00, 0.00, -0.00, -1.00, 561.8, 137.0)">e</text><text xml:space="preserve" font-family="MarkerFelt-Thin" font-size="36.8" fill="#858585" transform="matrix(1.00, 0.00, -0.00, -1.00, 578.6, 137.0)">s</text><text xml:space="preserve" font-family="MarkerFelt-Thin" font-size="36.8" fill="#858585" transform="matrix(1.00, 0.00, -0.00, -1.00, 592.2, 137.0)"> </text><g><clipPath id="clip-508"><path d="M 45.3 66.4 L 65.4 66.4 L 65.4 85.2 L 45.3 85.2 Z M 45.3 66.4 "></path></clipPath><g clip-path="url(#clip-508)"><path d="M 65.1 73.1 C 65.3 72.8 65.4 72.5 65.4 72.2 C 65.4 71.6 65.1 71.1 64.4 70.6 C 63.7 70.1 63.0 69.8 62.1 69.8 C 61.0 69.8 59.8 70.6 58.3 72.2 C 58.3 72.2 58.3 69.8 58.3 69.8 C 58.3 69.6 58.4 69.3 58.5 68.9 C 58.6 68.6 58.7 68.4 58.7 68.2 C 58.7 67.7 58.5 67.3 57.9 66.9 C 57.4 66.6 56.9 66.4 56.4 66.4 C 55.5 66.4 54.7 66.8 54.0 67.6 C 53.8 67.8 53.8 68.4 53.9 69.5 C 53.9 70.6 53.9 71.7 54.0 72.8 C 53.5 72.4 52.4 71.8 50.8 71.0 C 50.6 70.7 50.0 70.3 48.9 70.0 C 48.1 69.9 47.3 70.0 46.5 70.4 C 45.7 70.8 45.3 71.3 45.3 71.9 C 45.3 72.1 45.3 72.2 45.4 72.4 C 45.5 72.8 45.9 73.0 46.4 73.2 C 47.2 73.4 47.7 73.6 47.7 73.6 C 47.7 73.6 52.2 76.1 52.2 76.1 C 52.2 76.1 49.1 77.6 49.1 77.6 C 48.6 77.6 48.0 77.8 47.2 78.2 C 47.1 78.5 47.0 78.7 47.0 79.0 C 47.0 79.8 47.4 80.5 48.3 81.2 C 49.2 81.9 50.1 82.3 51.0 82.3 C 51.3 82.3 51.6 82.2 51.9 82.1 C 52.2 82.0 52.4 81.8 52.7 81.3 C 52.9 80.8 53.4 80.3 54.0 79.9 C 54.0 79.9 54.1 82.7 54.1 82.7 C 54.0 83.1 54.0 83.7 54.1 84.4 C 54.5 84.9 55.3 85.2 56.6 85.2 C 57.7 85.2 58.5 84.8 58.9 84.2 C 59.0 83.9 59.1 83.2 58.9 82.2 C 58.9 81.3 58.8 80.4 58.6 79.5 C 58.6 79.5 60.3 80.3 60.3 80.3 C 60.6 80.7 61.2 81.0 62.1 81.4 C 62.8 81.5 63.4 81.2 64.0 80.7 C 64.6 80.2 64.9 79.6 64.9 79.0 C 64.9 78.7 64.8 78.4 64.7 78.2 C 64.5 78.0 64.3 77.8 63.9 77.7 C 63.3 77.6 63.0 77.5 62.9 77.4 C 62.9 77.4 60.4 75.6 60.4 75.6 C 60.4 75.6 63.6 73.9 63.6 73.9 C 64.0 73.8 64.5 73.5 65.1 73.1 Z M 65.1 73.1 " fill="#3995D6"></path></g></g><text xml:space="preserve" font-family="MarkerFelt-Thin" font-size="36.8" fill="#858585" transform="matrix(1.00, 0.00, -0.00, -1.00, 85.0, 64.0)">O</text><text xml:space="preserve" font-family="MarkerFelt-Thin" font-size="36.8" fill="#858585" transform="matrix(1.00, 0.00, -0.00, -1.00, 106.0, 64.0)">n</text><text xml:space="preserve" font-family="MarkerFelt-Thin" font-size="36.8" fill="#858585" transform="matrix(1.00, 0.00, -0.00, -1.00, 125.0, 64.0)">e</text><text xml:space="preserve" font-family="MarkerFelt-Thin" font-size="36.8" fill="#858585" transform="matrix(1.00, 0.00, -0.00, -1.00, 139.0, 64.0)"> </text><text xml:space="preserve" font-family="MarkerFelt-Thin" font-size="36.8" fill="#858585" transform="matrix(1.00, 0.00, -0.00, -1.00, 148.2, 64.0)">i</text><text xml:space="preserve" font-family="MarkerFelt-Thin" font-size="36.8" fill="#858585" transform="matrix(1.00, 0.00, -0.00, -1.00, 157.3, 64.0)">n</text><text xml:space="preserve" font-family="MarkerFelt-Thin" font-size="36.8" fill="#858585" transform="matrix(1.00, 0.00, -0.00, -1.00, 177.5, 64.0)">t</text><text xml:space="preserve" font-family="MarkerFelt-Thin" font-size="36.8" fill="#858585" transform="matrix(1.00, 0.00, -0.00, -1.00, 191.5, 64.0)">e</text><text xml:space="preserve" font-family="MarkerFelt-Thin" font-size="36.8" fill="#858585" transform="matrix(1.00, 0.00, -0.00, -1.00, 207.7, 64.0)">g</text><text xml:space="preserve" font-family="MarkerFelt-Thin" font-size="36.8" fill="#858585" transform="matrix(1.00, 0.00, -0.00, -1.00, 224.4, 64.0)">r</text><text xml:space="preserve" font-family="MarkerFelt-Thin" font-size="36.8" fill="#858585" transform="matrix(1.00, 0.00, -0.00, -1.00, 239.4, 64.0)">a</text><text xml:space="preserve" font-family="MarkerFelt-Thin" font-size="36.8" fill="#858585" transform="matrix(1.00, 0.00, -0.00, -1.00, 257.4, 64.0)">t</text><text xml:space="preserve" font-family="MarkerFelt-Thin" font-size="36.8" fill="#858585" transform="matrix(1.00, 0.00, -0.00, -1.00, 271.4, 64.0)">e</text><text xml:space="preserve" font-family="MarkerFelt-Thin" font-size="36.8" fill="#858585" transform="matrix(1.00, 0.00, -0.00, -1.00, 287.7, 64.0)">d</text><text xml:space="preserve" font-family="MarkerFelt-Thin" font-size="36.8" fill="#858585" transform="matrix(1.00, 0.00, -0.00, -1.00, 303.6, 64.0)"> </text><text xml:space="preserve" font-family="MarkerFelt-Thin" font-size="36.8" fill="#858585" transform="matrix(1.00, 0.00, -0.00, -1.00, 312.8, 64.0)">t</text><text xml:space="preserve" font-family="MarkerFelt-Thin" font-size="36.8" fill="#858585" transform="matrix(1.00, 0.00, -0.00, -1.00, 326.8, 64.0)">e</text><text xml:space="preserve" font-family="MarkerFelt-Thin" font-size="36.8" fill="#858585" transform="matrix(1.00, 0.00, -0.00, -1.00, 343.0, 64.0)">c</text><text xml:space="preserve" font-family="MarkerFelt-Thin" font-size="36.8" fill="#858585" transform="matrix(1.00, 0.00, -0.00, -1.00, 358.1, 64.0)">h</text><text xml:space="preserve" font-family="MarkerFelt-Thin" font-size="36.8" fill="#858585" transform="matrix(1.00, 0.00, -0.00, -1.00, 377.0, 64.0)">n</text><text xml:space="preserve" font-family="MarkerFelt-Thin" font-size="36.8" fill="#858585" transform="matrix(1.00, 0.00, -0.00, -1.00, 396.4, 64.0)">o</text><text xml:space="preserve" font-family="MarkerFelt-Thin" font-size="36.8" fill="#858585" transform="matrix(1.00, 0.00, -0.00, -1.00, 413.1, 64.0)">l</text><text xml:space="preserve" font-family="MarkerFelt-Thin" font-size="36.8" fill="#858585" transform="matrix(1.00, 0.00, -0.00, -1.00, 421.9, 64.0)">o</text><text xml:space="preserve" font-family="MarkerFelt-Thin" font-size="36.8" fill="#858585" transform="matrix(1.00, 0.00, -0.00, -1.00, 438.8, 64.0)">g</text><text xml:space="preserve" font-family="MarkerFelt-Thin" font-size="36.8" fill="#858585" transform="matrix(1.00, 0.00, -0.00, -1.00, 456.0, 64.0)">y</text><text xml:space="preserve" font-family="MarkerFelt-Thin" font-size="36.8" fill="#858585" transform="matrix(1.00, 0.00, -0.00, -1.00, 473.3, 64.0)"> </text><text xml:space="preserve" font-family="MarkerFelt-Thin" font-size="36.8" fill="#858585" transform="matrix(1.00, 0.00, -0.00, -1.00, 482.5, 64.0)">s</text><text xml:space="preserve" font-family="MarkerFelt-Thin" font-size="36.8" fill="#858585" transform="matrix(1.00, 0.00, -0.00, -1.00, 498.5, 64.0)">t</text><text xml:space="preserve" font-family="MarkerFelt-Thin" font-size="36.8" fill="#858585" transform="matrix(1.00, 0.00, -0.00, -1.00, 513.6, 64.0)">a</text><text xml:space="preserve" font-family="MarkerFelt-Thin" font-size="36.8" fill="#858585" transform="matrix(1.00, 0.00, -0.00, -1.00, 531.5, 64.0)">c</text><text xml:space="preserve" font-family="MarkerFelt-Thin" font-size="36.8" fill="#858585" transform="matrix(1.00, 0.00, -0.00, -1.00, 546.9, 64.0)">k</text><text xml:space="preserve" font-family="MarkerFelt-Thin" font-size="36.8" fill="#858585" transform="matrix(1.00, 0.00, -0.00, -1.00, 564.6, 64.0)"> </text><text xml:space="preserve" font-family="MarkerFelt-Thin" font-size="36.8" fill="#858585" transform="matrix(1.00, 0.00, -0.00, -1.00, 573.8, 64.0)">c</text><text xml:space="preserve" font-family="MarkerFelt-Thin" font-size="36.8" fill="#858585" transform="matrix(1.00, 0.00, -0.00, -1.00, 589.1, 64.0)">r</text><text xml:space="preserve" font-family="MarkerFelt-Thin" font-size="36.8" fill="#858585" transform="matrix(1.00, 0.00, -0.00, -1.00, 604.1, 64.0)">a</text><text xml:space="preserve" font-family="MarkerFelt-Thin" font-size="36.8" fill="#858585" transform="matrix(1.00, 0.00, -0.00, -1.00, 622.1, 64.0)">d</text><text xml:space="preserve" font-family="MarkerFelt-Thin" font-size="36.8" fill="#858585" transform="matrix(1.00, 0.00, -0.00, -1.00, 639.4, 64.0)">l</text><text xml:space="preserve" font-family="MarkerFelt-Thin" font-size="36.8" fill="#858585" transform="matrix(1.00, 0.00, -0.00, -1.00, 647.7, 64.0)">e</text><text xml:space="preserve" font-family="MarkerFelt-Thin" font-size="36.8" fill="#858585" transform="matrix(1.00, 0.00, -0.00, -1.00, 661.7, 64.0)"> </text><text xml:space="preserve" font-family="MarkerFelt-Thin" font-size="36.8" fill="#858585" transform="matrix(1.00, 0.00, -0.00, -1.00, 670.9, 64.0)">t</text><text xml:space="preserve" font-family="MarkerFelt-Thin" font-size="36.8" fill="#858585" transform="matrix(1.00, 0.00, -0.00, -1.00, 685.7, 64.0)">o</text><text xml:space="preserve" font-family="MarkerFelt-Thin" font-size="36.8" fill="#858585" transform="matrix(1.00, 0.00, -0.00, -1.00, 700.8, 64.0)"> </text><text xml:space="preserve" font-family="MarkerFelt-Thin" font-size="36.8" fill="#858585" transform="matrix(1.00, 0.00, -0.00, -1.00, 710.0, 64.0)">g</text><text xml:space="preserve" font-family="MarkerFelt-Thin" font-size="36.8" fill="#858585" transform="matrix(1.00, 0.00, -0.00, -1.00, 726.6, 64.0)">r</text><text xml:space="preserve" font-family="MarkerFelt-Thin" font-size="36.8" fill="#858585" transform="matrix(1.00, 0.00, -0.00, -1.00, 741.7, 64.0)">a</text><text xml:space="preserve" font-family="MarkerFelt-Thin" font-size="36.8" fill="#858585" transform="matrix(1.00, 0.00, -0.00, -1.00, 759.4, 64.0)">v</text><text xml:space="preserve" font-family="MarkerFelt-Thin" font-size="36.8" fill="#858585" transform="matrix(1.00, 0.00, -0.00, -1.00, 776.4, 64.0)">e</text></g></svg>