<?xml version="1.0" encoding="UTF-8" standalone="no"?><svg xmlns="http://www.w3.org/2000/svg" xmlns:xlink="http://www.w3.org/1999/xlink" clip-rule="evenodd" stroke-miterlimit="4.00" viewBox="0 0 1024 768"><desc>SVG generated by Keynote</desc><defs></defs><g transform="matrix(1.00, 0.00, -0.00, -1.00, 0.0, 768.0)"><g><clipPath id="clip-494"><path d="M 0.0 768.0 L 1024.0 768.0 L 1024.0 0.0 L 0.0 0.0 Z M 0.0 768.0 "></path></clipPath><g clip-path="url(#clip-494)"><image xlink:href="../../39451CEE-E280-41CA-872D-216C9FC86FAF/assets/43DA95A1552523200D88D33196FD3A18.jpeg" width="1024.00" height="768.00" transform="matrix(1.00, 0.00, -0.00, -1.00, 0.0, 768.0)"></image></g></g><text xml:space="preserve" font-family="MarkerFelt-Thin" font-size="80.0" fill="#45A6DE" transform="matrix(1.00, 0.00, -0.00, -1.00, 298.0, 626.0)">O</text><text xml:space="preserve" font-family="MarkerFelt-Thin" font-size="80.0" fill="#45A6DE" transform="matrix(1.00, 0.00, -0.00, -1.00, 342.8, 626.0)">b</text><text xml:space="preserve" font-family="MarkerFelt-Thin" font-size="80.0" fill="#45A6DE" transform="matrix(1.00, 0.00, -0.00, -1.00, 380.6, 626.0)">s</text><text xml:space="preserve" font-family="MarkerFelt-Thin" font-size="80.0" fill="#45A6DE" transform="matrix(1.00, 0.00, -0.00, -1.00, 413.0, 626.0)">e</text><text xml:space="preserve" font-family="MarkerFelt-Thin" font-size="80.0" fill="#45A6DE" transform="matrix(1.00, 0.00, -0.00, -1.00, 448.2, 626.0)">r</text><text xml:space="preserve" font-family="MarkerFelt-Thin" font-size="80.0" fill="#45A6DE" transform="matrix(1.00, 0.00, -0.00, -1.00, 486.6, 626.0)">v</text><text xml:space="preserve" font-family="MarkerFelt-Thin" font-size="80.0" fill="#45A6DE" transform="matrix(1.00, 0.00, -0.00, -1.00, 526.0, 626.0)">a</text><text xml:space="preserve" font-family="MarkerFelt-Thin" font-size="80.0" fill="#45A6DE" transform="matrix(1.00, 0.00, -0.00, -1.00, 565.1, 626.0)">t</text><text xml:space="preserve" font-family="MarkerFelt-Thin" font-size="80.0" fill="#45A6DE" transform="matrix(1.00, 0.00, -0.00, -1.00, 599.4, 626.0)">i</text><text xml:space="preserve" font-family="MarkerFelt-Thin" font-size="80.0" fill="#45A6DE" transform="matrix(1.00, 0.00, -0.00, -1.00, 618.0, 626.0)">o</text><text xml:space="preserve" font-family="MarkerFelt-Thin" font-size="80.0" fill="#45A6DE" transform="matrix(1.00, 0.00, -0.00, -1.00, 654.2, 626.0)">n</text><text xml:space="preserve" font-family="MarkerFelt-Thin" font-size="80.0" fill="#45A6DE" transform="matrix(1.00, 0.00, -0.00, -1.00, 696.6, 626.0)">s</text><text xml:space="preserve" font-family="MarkerFelt-Thin" font-size="40.0" fill="#858484" transform="matrix(1.00, 0.00, -0.00, -1.00, 240.0, 492.0)">J</text><text xml:space="preserve" font-family="MarkerFelt-Thin" font-size="40.0" fill="#858484" transform="matrix(1.00, 0.00, -0.00, -1.00, 258.1, 492.0)">o</text><text xml:space="preserve" font-family="MarkerFelt-Thin" font-size="40.0" fill="#858484" transform="matrix(1.00, 0.00, -0.00, -1.00, 276.2, 492.0)">e</text><text xml:space="preserve" font-family="MarkerFelt-Thin" font-size="40.0" fill="#858484" transform="matrix(1.00, 0.00, -0.00, -1.00, 652.0, 492.0)">J</text><text xml:space="preserve" font-family="MarkerFelt-Thin" font-size="40.0" fill="#858484" transform="matrix(1.00, 0.00, -0.00, -1.00, 669.2, 492.0)">e</text><text xml:space="preserve" font-family="MarkerFelt-Thin" font-size="40.0" fill="#858484" transform="matrix(1.00, 0.00, -0.00, -1.00, 687.0, 492.0)">n</text><text xml:space="preserve" font-family="MarkerFelt-Thin" font-size="40.0" fill="#858484" transform="matrix(1.00, 0.00, -0.00, -1.00, 708.1, 492.0)">n</text><text xml:space="preserve" font-family="MarkerFelt-Thin" font-size="40.0" fill="#858484" transform="matrix(1.00, 0.00, -0.00, -1.00, 728.9, 492.0)">y</text><g><clipPath id="clip-495"><path d="M 96.7 407.8 L 117.7 407.8 L 117.7 427.4 L 96.7 427.4 Z M 96.7 407.8 "></path></clipPath><g clip-path="url(#clip-495)"><path d="M 117.4 414.9 C 117.6 414.6 117.7 414.3 117.7 413.9 C 117.7 413.3 117.3 412.7 116.6 412.2 C 116.0 411.7 115.2 411.4 114.3 411.4 C 113.2 411.4 111.8 412.2 110.3 413.9 C 110.3 413.9 110.3 411.4 110.3 411.4 C 110.3 411.2 110.4 410.9 110.5 410.5 C 110.7 410.2 110.7 409.9 110.7 409.8 C 110.7 409.2 110.5 408.8 109.9 408.4 C 109.4 408.0 108.9 407.8 108.3 407.8 C 107.4 407.8 106.6 408.3 105.9 409.1 C 105.7 409.3 105.6 410.0 105.7 411.1 C 105.7 412.3 105.8 413.4 105.9 414.5 C 105.3 414.1 104.2 413.5 102.5 412.6 C 102.3 412.3 101.7 412.0 100.6 411.6 C 99.7 411.5 98.9 411.7 98.0 412.1 C 97.2 412.4 96.7 413.0 96.7 413.6 C 96.7 413.8 96.8 414.0 96.9 414.1 C 97.0 414.5 97.4 414.8 97.9 414.9 C 98.8 415.2 99.2 415.4 99.3 415.4 C 99.3 415.4 104.0 417.9 104.0 417.9 C 104.0 417.9 100.7 419.5 100.7 419.5 C 100.2 419.5 99.6 419.8 98.8 420.2 C 98.6 420.4 98.5 420.7 98.5 421.0 C 98.5 421.8 99.0 422.5 99.9 423.3 C 100.8 424.0 101.8 424.4 102.7 424.4 C 103.0 424.4 103.3 424.3 103.6 424.2 C 103.9 424.1 104.2 423.9 104.4 423.4 C 104.7 422.8 105.2 422.3 105.9 421.9 C 105.9 421.9 106.0 424.9 106.0 424.9 C 105.9 425.3 105.9 425.9 106.0 426.7 C 106.4 427.1 107.2 427.4 108.5 427.4 C 109.7 427.4 110.5 427.0 110.9 426.4 C 111.1 426.1 111.1 425.4 111.0 424.3 C 110.9 423.4 110.8 422.4 110.7 421.5 C 110.7 421.5 112.4 422.4 112.4 422.4 C 112.7 422.7 113.4 423.1 114.3 423.5 C 115.0 423.6 115.6 423.3 116.2 422.8 C 116.9 422.2 117.2 421.6 117.2 420.9 C 117.2 420.7 117.1 420.4 117.0 420.1 C 116.8 419.9 116.5 419.7 116.1 419.7 C 115.6 419.5 115.2 419.4 115.0 419.3 C 115.0 419.3 112.5 417.5 112.5 417.5 C 112.5 417.5 115.8 415.7 115.8 415.7 C 116.2 415.6 116.7 415.3 117.4 414.9 Z M 117.4 414.9 " fill="#3995D6"></path></g></g><text xml:space="preserve" font-family="MarkerFelt-Thin" font-size="36.0" fill="#858585" transform="matrix(1.00, 0.00, -0.00, -1.00, 132.0, 406.0)">3</text><text xml:space="preserve" font-family="MarkerFelt-Thin" font-size="36.0" fill="#858585" transform="matrix(1.00, 0.00, -0.00, -1.00, 152.5, 406.0)"> </text><text xml:space="preserve" font-family="MarkerFelt-Thin" font-size="36.0" fill="#858585" transform="matrix(1.00, 0.00, -0.00, -1.00, 161.5, 406.0)">a</text><text xml:space="preserve" font-family="MarkerFelt-Thin" font-size="36.0" fill="#858585" transform="matrix(1.00, 0.00, -0.00, -1.00, 179.8, 406.0)">l</text><text xml:space="preserve" font-family="MarkerFelt-Thin" font-size="36.0" fill="#858585" transform="matrix(1.00, 0.00, -0.00, -1.00, 188.1, 406.0)">g</text><text xml:space="preserve" font-family="MarkerFelt-Thin" font-size="36.0" fill="#858585" transform="matrix(1.00, 0.00, -0.00, -1.00, 204.8, 406.0)">o</text><text xml:space="preserve" font-family="MarkerFelt-Thin" font-size="36.0" fill="#858585" transform="matrix(1.00, 0.00, -0.00, -1.00, 220.9, 406.0)">r</text><text xml:space="preserve" font-family="MarkerFelt-Thin" font-size="36.0" fill="#858585" transform="matrix(1.00, 0.00, -0.00, -1.00, 236.8, 406.0)">i</text><text xml:space="preserve" font-family="MarkerFelt-Thin" font-size="36.0" fill="#858585" transform="matrix(1.00, 0.00, -0.00, -1.00, 246.4, 406.0)">t</text><text xml:space="preserve" font-family="MarkerFelt-Thin" font-size="36.0" fill="#858585" transform="matrix(1.00, 0.00, -0.00, -1.00, 261.3, 406.0)">h</text><text xml:space="preserve" font-family="MarkerFelt-Thin" font-size="36.0" fill="#858585" transform="matrix(1.00, 0.00, -0.00, -1.00, 279.1, 406.0)">m</text><text xml:space="preserve" font-family="MarkerFelt-Thin" font-size="36.0" fill="#858585" transform="matrix(1.00, 0.00, -0.00, -1.00, 306.3, 406.0)">i</text><text xml:space="preserve" font-family="MarkerFelt-Thin" font-size="36.0" fill="#858585" transform="matrix(1.00, 0.00, -0.00, -1.00, 314.5, 406.0)">c</text><text xml:space="preserve" font-family="MarkerFelt-Thin" font-size="36.0" fill="#858585" transform="matrix(1.00, 0.00, -0.00, -1.00, 328.2, 406.0)"> </text><text xml:space="preserve" font-family="MarkerFelt-Thin" font-size="36.0" fill="#858585" transform="matrix(1.00, 0.00, -0.00, -1.00, 132.0, 367.0)">i</text><text xml:space="preserve" font-family="MarkerFelt-Thin" font-size="36.0" fill="#858585" transform="matrix(1.00, 0.00, -0.00, -1.00, 140.5, 367.0)">m</text><text xml:space="preserve" font-family="MarkerFelt-Thin" font-size="36.0" fill="#858585" transform="matrix(1.00, 0.00, -0.00, -1.00, 167.6, 367.0)">p</text><text xml:space="preserve" font-family="MarkerFelt-Thin" font-size="36.0" fill="#858585" transform="matrix(1.00, 0.00, -0.00, -1.00, 184.4, 367.0)">l</text><text xml:space="preserve" font-family="MarkerFelt-Thin" font-size="36.0" fill="#858585" transform="matrix(1.00, 0.00, -0.00, -1.00, 192.6, 367.0)">e</text><text xml:space="preserve" font-family="MarkerFelt-Thin" font-size="36.0" fill="#858585" transform="matrix(1.00, 0.00, -0.00, -1.00, 207.7, 367.0)">m</text><text xml:space="preserve" font-family="MarkerFelt-Thin" font-size="36.0" fill="#858585" transform="matrix(1.00, 0.00, -0.00, -1.00, 233.6, 367.0)">e</text><text xml:space="preserve" font-family="MarkerFelt-Thin" font-size="36.0" fill="#858585" transform="matrix(1.00, 0.00, -0.00, -1.00, 249.6, 367.0)">n</text><text xml:space="preserve" font-family="MarkerFelt-Thin" font-size="36.0" fill="#858585" transform="matrix(1.00, 0.00, -0.00, -1.00, 269.3, 367.0)">t</text><text xml:space="preserve" font-family="MarkerFelt-Thin" font-size="36.0" fill="#858585" transform="matrix(1.00, 0.00, -0.00, -1.00, 284.1, 367.0)">a</text><text xml:space="preserve" font-family="MarkerFelt-Thin" font-size="36.0" fill="#858585" transform="matrix(1.00, 0.00, -0.00, -1.00, 301.7, 367.0)">t</text><text xml:space="preserve" font-family="MarkerFelt-Thin" font-size="36.0" fill="#858585" transform="matrix(1.00, 0.00, -0.00, -1.00, 317.2, 367.0)">i</text><text xml:space="preserve" font-family="MarkerFelt-Thin" font-size="36.0" fill="#858585" transform="matrix(1.00, 0.00, -0.00, -1.00, 325.5, 367.0)">o</text><text xml:space="preserve" font-family="MarkerFelt-Thin" font-size="36.0" fill="#858585" transform="matrix(1.00, 0.00, -0.00, -1.00, 341.8, 367.0)">n</text><text xml:space="preserve" font-family="MarkerFelt-Thin" font-size="36.0" fill="#858585" transform="matrix(1.00, 0.00, -0.00, -1.00, 360.9, 367.0)">s</text><g><clipPath id="clip-496"><path d="M 96.7 291.8 L 117.7 291.8 L 117.7 311.4 L 96.7 311.4 Z M 96.7 291.8 "></path></clipPath><g clip-path="url(#clip-496)"><path d="M 117.4 298.9 C 117.6 298.6 117.7 298.3 117.7 297.9 C 117.7 297.3 117.3 296.7 116.6 296.2 C 116.0 295.7 115.2 295.4 114.3 295.4 C 113.2 295.4 111.8 296.2 110.3 297.9 C 110.3 297.9 110.3 295.4 110.3 295.4 C 110.3 295.2 110.4 294.9 110.5 294.5 C 110.7 294.2 110.7 293.9 110.7 293.8 C 110.7 293.2 110.5 292.8 109.9 292.4 C 109.4 292.0 108.9 291.8 108.3 291.8 C 107.4 291.8 106.6 292.3 105.9 293.1 C 105.7 293.3 105.6 294.0 105.7 295.1 C 105.7 296.3 105.8 297.4 105.9 298.5 C 105.3 298.1 104.2 297.5 102.5 296.6 C 102.3 296.3 101.7 296.0 100.6 295.6 C 99.7 295.5 98.9 295.7 98.0 296.1 C 97.2 296.4 96.7 297.0 96.7 297.6 C 96.7 297.8 96.8 298.0 96.9 298.1 C 97.0 298.5 97.4 298.8 97.9 298.9 C 98.8 299.2 99.2 299.4 99.3 299.4 C 99.3 299.4 104.0 301.9 104.0 301.9 C 104.0 301.9 100.7 303.5 100.7 303.5 C 100.2 303.5 99.6 303.8 98.8 304.2 C 98.6 304.4 98.5 304.7 98.5 305.0 C 98.5 305.8 99.0 306.5 99.9 307.3 C 100.8 308.0 101.8 308.4 102.7 308.4 C 103.0 308.4 103.3 308.3 103.6 308.2 C 103.9 308.1 104.2 307.9 104.4 307.4 C 104.7 306.8 105.2 306.3 105.9 305.9 C 105.9 305.9 106.0 308.9 106.0 308.9 C 105.9 309.3 105.9 309.9 106.0 310.7 C 106.4 311.1 107.2 311.4 108.5 311.4 C 109.7 311.4 110.5 311.0 110.9 310.4 C 111.1 310.1 111.1 309.4 111.0 308.3 C 110.9 307.4 110.8 306.4 110.7 305.5 C 110.7 305.5 112.4 306.4 112.4 306.4 C 112.7 306.7 113.4 307.1 114.3 307.5 C 115.0 307.6 115.6 307.3 116.2 306.8 C 116.9 306.2 117.2 305.6 117.2 304.9 C 117.2 304.7 117.1 304.4 117.0 304.1 C 116.8 303.9 116.5 303.7 116.1 303.7 C 115.6 303.5 115.2 303.4 115.0 303.3 C 115.0 303.3 112.5 301.5 112.5 301.5 C 112.5 301.5 115.8 299.7 115.8 299.7 C 116.2 299.6 116.7 299.3 117.4 298.9 Z M 117.4 298.9 " fill="#3995D6"></path></g></g><text xml:space="preserve" font-family="MarkerFelt-Thin" font-size="36.0" fill="#858585" transform="matrix(1.00, 0.00, -0.00, -1.00, 132.0, 290.0)">2</text><text xml:space="preserve" font-family="MarkerFelt-Thin" font-size="36.0" fill="#858585" transform="matrix(1.00, 0.00, -0.00, -1.00, 152.5, 290.0)"> </text><text xml:space="preserve" font-family="MarkerFelt-Thin" font-size="36.0" fill="#858585" transform="matrix(1.00, 0.00, -0.00, -1.00, 161.5, 290.0)">i</text><text xml:space="preserve" font-family="MarkerFelt-Thin" font-size="36.0" fill="#858585" transform="matrix(1.00, 0.00, -0.00, -1.00, 170.4, 290.0)">n</text><text xml:space="preserve" font-family="MarkerFelt-Thin" font-size="36.0" fill="#858585" transform="matrix(1.00, 0.00, -0.00, -1.00, 188.1, 290.0)"> </text><text xml:space="preserve" font-family="MarkerFelt-Thin" font-size="36.0" fill="#858585" transform="matrix(1.00, 0.00, -0.00, -1.00, 197.1, 290.0)">p</text><text xml:space="preserve" font-family="MarkerFelt-Thin" font-size="36.0" fill="#858585" transform="matrix(1.00, 0.00, -0.00, -1.00, 213.9, 290.0)">e</text><text xml:space="preserve" font-family="MarkerFelt-Thin" font-size="36.0" fill="#858585" transform="matrix(1.00, 0.00, -0.00, -1.00, 229.7, 290.0)">r</text><text xml:space="preserve" font-family="MarkerFelt-Thin" font-size="36.0" fill="#858585" transform="matrix(1.00, 0.00, -0.00, -1.00, 245.3, 290.0)">m</text><text xml:space="preserve" font-family="MarkerFelt-Thin" font-size="36.0" fill="#858585" transform="matrix(1.00, 0.00, -0.00, -1.00, 273.0, 290.0)">a</text><text xml:space="preserve" font-family="MarkerFelt-Thin" font-size="36.0" fill="#858585" transform="matrix(1.00, 0.00, -0.00, -1.00, 290.9, 290.0)">n</text><text xml:space="preserve" font-family="MarkerFelt-Thin" font-size="36.0" fill="#858585" transform="matrix(1.00, 0.00, -0.00, -1.00, 309.6, 290.0)">e</text><text xml:space="preserve" font-family="MarkerFelt-Thin" font-size="36.0" fill="#858585" transform="matrix(1.00, 0.00, -0.00, -1.00, 325.5, 290.0)">n</text><text xml:space="preserve" font-family="MarkerFelt-Thin" font-size="36.0" fill="#858585" transform="matrix(1.00, 0.00, -0.00, -1.00, 345.3, 290.0)">t</text><text xml:space="preserve" font-family="MarkerFelt-Thin" font-size="36.0" fill="#858585" transform="matrix(1.00, 0.00, -0.00, -1.00, 358.2, 290.0)"> </text><text xml:space="preserve" font-family="MarkerFelt-Thin" font-size="36.0" fill="#858585" transform="matrix(1.00, 0.00, -0.00, -1.00, 132.0, 251.0)">m</text><text xml:space="preserve" font-family="MarkerFelt-Thin" font-size="36.0" fill="#858585" transform="matrix(1.00, 0.00, -0.00, -1.00, 159.7, 251.0)">a</text><text xml:space="preserve" font-family="MarkerFelt-Thin" font-size="36.0" fill="#858585" transform="matrix(1.00, 0.00, -0.00, -1.00, 177.7, 251.0)">i</text><text xml:space="preserve" font-family="MarkerFelt-Thin" font-size="36.0" fill="#858585" transform="matrix(1.00, 0.00, -0.00, -1.00, 186.6, 251.0)">n</text><text xml:space="preserve" font-family="MarkerFelt-Thin" font-size="36.0" fill="#858585" transform="matrix(1.00, 0.00, -0.00, -1.00, 206.3, 251.0)">t</text><text xml:space="preserve" font-family="MarkerFelt-Thin" font-size="36.0" fill="#858585" transform="matrix(1.00, 0.00, -0.00, -1.00, 220.1, 251.0)">e</text><text xml:space="preserve" font-family="MarkerFelt-Thin" font-size="36.0" fill="#858585" transform="matrix(1.00, 0.00, -0.00, -1.00, 236.0, 251.0)">n</text><text xml:space="preserve" font-family="MarkerFelt-Thin" font-size="36.0" fill="#858585" transform="matrix(1.00, 0.00, -0.00, -1.00, 255.8, 251.0)">a</text><text xml:space="preserve" font-family="MarkerFelt-Thin" font-size="36.0" fill="#858585" transform="matrix(1.00, 0.00, -0.00, -1.00, 273.8, 251.0)">n</text><text xml:space="preserve" font-family="MarkerFelt-Thin" font-size="36.0" fill="#858585" transform="matrix(1.00, 0.00, -0.00, -1.00, 292.6, 251.0)">c</text><text xml:space="preserve" font-family="MarkerFelt-Thin" font-size="36.0" fill="#858585" transform="matrix(1.00, 0.00, -0.00, -1.00, 307.6, 251.0)">e</text><g><clipPath id="clip-497"><path d="M 96.7 175.8 L 117.7 175.8 L 117.7 195.4 L 96.7 195.4 Z M 96.7 175.8 "></path></clipPath><g clip-path="url(#clip-497)"><path d="M 117.4 182.9 C 117.6 182.6 117.7 182.3 117.7 181.9 C 117.7 181.3 117.3 180.7 116.6 180.2 C 116.0 179.7 115.2 179.4 114.3 179.4 C 113.2 179.4 111.8 180.2 110.3 181.9 C 110.3 181.9 110.3 179.4 110.3 179.4 C 110.3 179.2 110.4 178.9 110.5 178.5 C 110.7 178.2 110.7 177.9 110.7 177.8 C 110.7 177.2 110.5 176.8 109.9 176.4 C 109.4 176.0 108.9 175.8 108.3 175.8 C 107.4 175.8 106.6 176.3 105.9 177.1 C 105.7 177.3 105.6 178.0 105.7 179.1 C 105.7 180.3 105.8 181.4 105.9 182.5 C 105.3 182.1 104.2 181.5 102.5 180.6 C 102.3 180.3 101.7 180.0 100.6 179.6 C 99.7 179.5 98.9 179.7 98.0 180.1 C 97.2 180.4 96.7 181.0 96.7 181.6 C 96.7 181.8 96.8 182.0 96.9 182.1 C 97.0 182.5 97.4 182.8 97.9 182.9 C 98.8 183.2 99.2 183.4 99.3 183.4 C 99.3 183.4 104.0 185.9 104.0 185.9 C 104.0 185.9 100.7 187.5 100.7 187.5 C 100.2 187.5 99.6 187.8 98.8 188.2 C 98.6 188.4 98.5 188.7 98.5 189.0 C 98.5 189.8 99.0 190.5 99.9 191.3 C 100.8 192.0 101.8 192.4 102.7 192.4 C 103.0 192.4 103.3 192.3 103.6 192.2 C 103.9 192.1 104.2 191.9 104.4 191.4 C 104.7 190.8 105.2 190.3 105.9 189.9 C 105.9 189.9 106.0 192.9 106.0 192.9 C 105.9 193.3 105.9 193.9 106.0 194.7 C 106.4 195.1 107.2 195.4 108.5 195.4 C 109.7 195.4 110.5 195.0 110.9 194.4 C 111.1 194.1 111.1 193.4 111.0 192.3 C 110.9 191.4 110.8 190.4 110.7 189.5 C 110.7 189.5 112.4 190.4 112.4 190.4 C 112.7 190.7 113.4 191.1 114.3 191.5 C 115.0 191.6 115.6 191.3 116.2 190.8 C 116.9 190.2 117.2 189.6 117.2 188.9 C 117.2 188.7 117.1 188.4 117.0 188.1 C 116.8 187.9 116.5 187.7 116.1 187.7 C 115.6 187.5 115.2 187.4 115.0 187.3 C 115.0 187.3 112.5 185.5 112.5 185.5 C 112.5 185.5 115.8 183.7 115.8 183.7 C 116.2 183.6 116.7 183.3 117.4 182.9 Z M 117.4 182.9 " fill="#3995D6"></path></g></g><text xml:space="preserve" font-family="MarkerFelt-Thin" font-size="36.0" fill="#858585" transform="matrix(1.00, 0.00, -0.00, -1.00, 132.0, 174.0)">M</text><text xml:space="preserve" font-family="MarkerFelt-Thin" font-size="36.0" fill="#858585" transform="matrix(1.00, 0.00, -0.00, -1.00, 167.1, 174.0)">a</text><text xml:space="preserve" font-family="MarkerFelt-Thin" font-size="36.0" fill="#858585" transform="matrix(1.00, 0.00, -0.00, -1.00, 185.1, 174.0)">n</text><text xml:space="preserve" font-family="MarkerFelt-Thin" font-size="36.0" fill="#858585" transform="matrix(1.00, 0.00, -0.00, -1.00, 203.8, 174.0)">y</text><text xml:space="preserve" font-family="MarkerFelt-Thin" font-size="36.0" fill="#858585" transform="matrix(1.00, 0.00, -0.00, -1.00, 220.7, 174.0)"> </text><text xml:space="preserve" font-family="MarkerFelt-Thin" font-size="36.0" fill="#858585" transform="matrix(1.00, 0.00, -0.00, -1.00, 229.7, 174.0)">t</text><text xml:space="preserve" font-family="MarkerFelt-Thin" font-size="36.0" fill="#858585" transform="matrix(1.00, 0.00, -0.00, -1.00, 244.2, 174.0)">o</text><text xml:space="preserve" font-family="MarkerFelt-Thin" font-size="36.0" fill="#858585" transform="matrix(1.00, 0.00, -0.00, -1.00, 260.9, 174.0)">o</text><text xml:space="preserve" font-family="MarkerFelt-Thin" font-size="36.0" fill="#858585" transform="matrix(1.00, 0.00, -0.00, -1.00, 277.2, 174.0)">l</text><text xml:space="preserve" font-family="MarkerFelt-Thin" font-size="36.0" fill="#858585" transform="matrix(1.00, 0.00, -0.00, -1.00, 285.8, 174.0)">s</text><g><clipPath id="clip-498"><path d="M 530.7 407.8 L 551.7 407.8 L 551.7 427.4 L 530.7 427.4 Z M 530.7 407.8 "></path></clipPath><g clip-path="url(#clip-498)"><path d="M 551.4 414.9 C 551.6 414.6 551.7 414.3 551.7 413.9 C 551.7 413.3 551.3 412.7 550.6 412.2 C 550.0 411.7 549.2 411.4 548.3 411.4 C 547.2 411.4 545.8 412.2 544.3 413.9 C 544.3 413.9 544.3 411.4 544.3 411.4 C 544.3 411.2 544.4 410.9 544.5 410.5 C 544.7 410.2 544.7 409.9 544.7 409.8 C 544.7 409.2 544.5 408.8 543.9 408.4 C 543.4 408.0 542.9 407.8 542.3 407.8 C 541.4 407.8 540.6 408.3 539.9 409.1 C 539.7 409.3 539.6 410.0 539.7 411.1 C 539.7 412.3 539.8 413.4 539.9 414.5 C 539.3 414.1 538.2 413.5 536.5 412.6 C 536.3 412.3 535.7 412.0 534.6 411.6 C 533.7 411.5 532.9 411.7 532.0 412.1 C 531.2 412.4 530.7 413.0 530.7 413.6 C 530.7 413.8 530.8 414.0 530.9 414.1 C 531.0 414.5 531.4 414.8 531.9 414.9 C 532.8 415.2 533.2 415.4 533.3 415.4 C 533.3 415.4 538.0 417.9 538.0 417.9 C 538.0 417.9 534.7 419.5 534.7 419.5 C 534.2 419.5 533.6 419.8 532.8 420.2 C 532.6 420.4 532.5 420.7 532.5 421.0 C 532.5 421.8 533.0 422.5 533.9 423.3 C 534.8 424.0 535.8 424.4 536.7 424.4 C 537.0 424.4 537.3 424.3 537.6 424.2 C 537.9 424.1 538.2 423.9 538.4 423.4 C 538.7 422.8 539.2 422.3 539.9 421.9 C 539.9 421.9 540.0 424.9 540.0 424.9 C 539.9 425.3 539.9 425.9 540.0 426.7 C 540.4 427.1 541.2 427.4 542.5 427.4 C 543.7 427.4 544.5 427.0 544.9 426.4 C 545.1 426.1 545.1 425.4 545.0 424.3 C 544.9 423.4 544.8 422.4 544.7 421.5 C 544.7 421.5 546.4 422.4 546.4 422.4 C 546.7 422.7 547.4 423.1 548.3 423.5 C 549.0 423.6 549.6 423.3 550.2 422.8 C 550.9 422.2 551.2 421.6 551.2 420.9 C 551.2 420.7 551.1 420.4 551.0 420.1 C 550.8 419.9 550.5 419.7 550.1 419.7 C 549.6 419.5 549.2 419.4 549.0 419.3 C 549.0 419.3 546.5 417.5 546.5 417.5 C 546.5 417.5 549.8 415.7 549.8 415.7 C 550.2 415.6 550.7 415.3 551.4 414.9 Z M 551.4 414.9 " fill="#3995D6"></path></g></g><text xml:space="preserve" font-family="MarkerFelt-Thin" font-size="36.0" fill="#858585" transform="matrix(1.00, 0.00, -0.00, -1.00, 566.0, 406.0)">1</text><text xml:space="preserve" font-family="MarkerFelt-Thin" font-size="36.0" fill="#858585" transform="matrix(1.00, 0.00, -0.00, -1.00, 586.5, 406.0)"> </text><text xml:space="preserve" font-family="MarkerFelt-Thin" font-size="36.0" fill="#858585" transform="matrix(1.00, 0.00, -0.00, -1.00, 595.5, 406.0)">a</text><text xml:space="preserve" font-family="MarkerFelt-Thin" font-size="36.0" fill="#858585" transform="matrix(1.00, 0.00, -0.00, -1.00, 613.8, 406.0)">l</text><text xml:space="preserve" font-family="MarkerFelt-Thin" font-size="36.0" fill="#858585" transform="matrix(1.00, 0.00, -0.00, -1.00, 622.1, 406.0)">g</text><text xml:space="preserve" font-family="MarkerFelt-Thin" font-size="36.0" fill="#858585" transform="matrix(1.00, 0.00, -0.00, -1.00, 638.8, 406.0)">o</text><text xml:space="preserve" font-family="MarkerFelt-Thin" font-size="36.0" fill="#858585" transform="matrix(1.00, 0.00, -0.00, -1.00, 654.9, 406.0)">r</text><text xml:space="preserve" font-family="MarkerFelt-Thin" font-size="36.0" fill="#858585" transform="matrix(1.00, 0.00, -0.00, -1.00, 670.8, 406.0)">i</text><text xml:space="preserve" font-family="MarkerFelt-Thin" font-size="36.0" fill="#858585" transform="matrix(1.00, 0.00, -0.00, -1.00, 680.4, 406.0)">t</text><text xml:space="preserve" font-family="MarkerFelt-Thin" font-size="36.0" fill="#858585" transform="matrix(1.00, 0.00, -0.00, -1.00, 695.3, 406.0)">h</text><text xml:space="preserve" font-family="MarkerFelt-Thin" font-size="36.0" fill="#858585" transform="matrix(1.00, 0.00, -0.00, -1.00, 713.1, 406.0)">m</text><text xml:space="preserve" font-family="MarkerFelt-Thin" font-size="36.0" fill="#858585" transform="matrix(1.00, 0.00, -0.00, -1.00, 740.3, 406.0)">i</text><text xml:space="preserve" font-family="MarkerFelt-Thin" font-size="36.0" fill="#858585" transform="matrix(1.00, 0.00, -0.00, -1.00, 748.5, 406.0)">c</text><text xml:space="preserve" font-family="MarkerFelt-Thin" font-size="36.0" fill="#858585" transform="matrix(1.00, 0.00, -0.00, -1.00, 762.2, 406.0)"> </text><text xml:space="preserve" font-family="MarkerFelt-Thin" font-size="36.0" fill="#858585" transform="matrix(1.00, 0.00, -0.00, -1.00, 566.0, 367.0)">i</text><text xml:space="preserve" font-family="MarkerFelt-Thin" font-size="36.0" fill="#858585" transform="matrix(1.00, 0.00, -0.00, -1.00, 574.5, 367.0)">m</text><text xml:space="preserve" font-family="MarkerFelt-Thin" font-size="36.0" fill="#858585" transform="matrix(1.00, 0.00, -0.00, -1.00, 601.6, 367.0)">p</text><text xml:space="preserve" font-family="MarkerFelt-Thin" font-size="36.0" fill="#858585" transform="matrix(1.00, 0.00, -0.00, -1.00, 618.4, 367.0)">l</text><text xml:space="preserve" font-family="MarkerFelt-Thin" font-size="36.0" fill="#858585" transform="matrix(1.00, 0.00, -0.00, -1.00, 626.6, 367.0)">e</text><text xml:space="preserve" font-family="MarkerFelt-Thin" font-size="36.0" fill="#858585" transform="matrix(1.00, 0.00, -0.00, -1.00, 641.7, 367.0)">m</text><text xml:space="preserve" font-family="MarkerFelt-Thin" font-size="36.0" fill="#858585" transform="matrix(1.00, 0.00, -0.00, -1.00, 667.6, 367.0)">e</text><text xml:space="preserve" font-family="MarkerFelt-Thin" font-size="36.0" fill="#858585" transform="matrix(1.00, 0.00, -0.00, -1.00, 683.6, 367.0)">n</text><text xml:space="preserve" font-family="MarkerFelt-Thin" font-size="36.0" fill="#858585" transform="matrix(1.00, 0.00, -0.00, -1.00, 703.3, 367.0)">t</text><text xml:space="preserve" font-family="MarkerFelt-Thin" font-size="36.0" fill="#858585" transform="matrix(1.00, 0.00, -0.00, -1.00, 718.1, 367.0)">a</text><text xml:space="preserve" font-family="MarkerFelt-Thin" font-size="36.0" fill="#858585" transform="matrix(1.00, 0.00, -0.00, -1.00, 735.7, 367.0)">t</text><text xml:space="preserve" font-family="MarkerFelt-Thin" font-size="36.0" fill="#858585" transform="matrix(1.00, 0.00, -0.00, -1.00, 751.2, 367.0)">i</text><text xml:space="preserve" font-family="MarkerFelt-Thin" font-size="36.0" fill="#858585" transform="matrix(1.00, 0.00, -0.00, -1.00, 759.5, 367.0)">o</text><text xml:space="preserve" font-family="MarkerFelt-Thin" font-size="36.0" fill="#858585" transform="matrix(1.00, 0.00, -0.00, -1.00, 775.8, 367.0)">n</text><g><clipPath id="clip-499"><path d="M 530.7 291.8 L 551.7 291.8 L 551.7 311.4 L 530.7 311.4 Z M 530.7 291.8 "></path></clipPath><g clip-path="url(#clip-499)"><path d="M 551.4 298.9 C 551.6 298.6 551.7 298.3 551.7 297.9 C 551.7 297.3 551.3 296.7 550.6 296.2 C 550.0 295.7 549.2 295.4 548.3 295.4 C 547.2 295.4 545.8 296.2 544.3 297.9 C 544.3 297.9 544.3 295.4 544.3 295.4 C 544.3 295.2 544.4 294.9 544.5 294.5 C 544.7 294.2 544.7 293.9 544.7 293.8 C 544.7 293.2 544.5 292.8 543.9 292.4 C 543.4 292.0 542.9 291.8 542.3 291.8 C 541.4 291.8 540.6 292.3 539.9 293.1 C 539.7 293.3 539.6 294.0 539.7 295.1 C 539.7 296.3 539.8 297.4 539.9 298.5 C 539.3 298.1 538.2 297.5 536.5 296.6 C 536.3 296.3 535.7 296.0 534.6 295.6 C 533.7 295.5 532.9 295.7 532.0 296.1 C 531.2 296.4 530.7 297.0 530.7 297.6 C 530.7 297.8 530.8 298.0 530.9 298.1 C 531.0 298.5 531.4 298.8 531.9 298.9 C 532.8 299.2 533.2 299.4 533.3 299.4 C 533.3 299.4 538.0 301.9 538.0 301.9 C 538.0 301.9 534.7 303.5 534.7 303.5 C 534.2 303.5 533.6 303.8 532.8 304.2 C 532.6 304.4 532.5 304.7 532.5 305.0 C 532.5 305.8 533.0 306.5 533.9 307.3 C 534.8 308.0 535.8 308.4 536.7 308.4 C 537.0 308.4 537.3 308.3 537.6 308.2 C 537.9 308.1 538.2 307.9 538.4 307.4 C 538.7 306.8 539.2 306.3 539.9 305.9 C 539.9 305.9 540.0 308.9 540.0 308.9 C 539.9 309.3 539.9 309.9 540.0 310.7 C 540.4 311.1 541.2 311.4 542.5 311.4 C 543.7 311.4 544.5 311.0 544.9 310.4 C 545.1 310.1 545.1 309.4 545.0 308.3 C 544.9 307.4 544.8 306.4 544.7 305.5 C 544.7 305.5 546.4 306.4 546.4 306.4 C 546.7 306.7 547.4 307.1 548.3 307.5 C 549.0 307.6 549.6 307.3 550.2 306.8 C 550.9 306.2 551.2 305.6 551.2 304.9 C 551.2 304.7 551.1 304.4 551.0 304.1 C 550.8 303.9 550.5 303.7 550.1 303.7 C 549.6 303.5 549.2 303.4 549.0 303.3 C 549.0 303.3 546.5 301.5 546.5 301.5 C 546.5 301.5 549.8 299.7 549.8 299.7 C 550.2 299.6 550.7 299.3 551.4 298.9 Z M 551.4 298.9 " fill="#3995D6"></path></g></g><text xml:space="preserve" font-family="MarkerFelt-Thin" font-size="36.0" fill="#858585" transform="matrix(1.00, 0.00, -0.00, -1.00, 566.0, 290.0)">1</text><text xml:space="preserve" font-family="MarkerFelt-Thin" font-size="36.0" fill="#858585" transform="matrix(1.00, 0.00, -0.00, -1.00, 586.5, 290.0)"> </text><text xml:space="preserve" font-family="MarkerFelt-Thin" font-size="36.0" fill="#858585" transform="matrix(1.00, 0.00, -0.00, -1.00, 595.5, 290.0)">i</text><text xml:space="preserve" font-family="MarkerFelt-Thin" font-size="36.0" fill="#858585" transform="matrix(1.00, 0.00, -0.00, -1.00, 604.4, 290.0)">n</text><text xml:space="preserve" font-family="MarkerFelt-Thin" font-size="36.0" fill="#858585" transform="matrix(1.00, 0.00, -0.00, -1.00, 622.1, 290.0)"> </text><text xml:space="preserve" font-family="MarkerFelt-Thin" font-size="36.0" fill="#858585" transform="matrix(1.00, 0.00, -0.00, -1.00, 631.1, 290.0)">p</text><text xml:space="preserve" font-family="MarkerFelt-Thin" font-size="36.0" fill="#858585" transform="matrix(1.00, 0.00, -0.00, -1.00, 647.9, 290.0)">e</text><text xml:space="preserve" font-family="MarkerFelt-Thin" font-size="36.0" fill="#858585" transform="matrix(1.00, 0.00, -0.00, -1.00, 663.7, 290.0)">r</text><text xml:space="preserve" font-family="MarkerFelt-Thin" font-size="36.0" fill="#858585" transform="matrix(1.00, 0.00, -0.00, -1.00, 679.3, 290.0)">m</text><text xml:space="preserve" font-family="MarkerFelt-Thin" font-size="36.0" fill="#858585" transform="matrix(1.00, 0.00, -0.00, -1.00, 707.0, 290.0)">a</text><text xml:space="preserve" font-family="MarkerFelt-Thin" font-size="36.0" fill="#858585" transform="matrix(1.00, 0.00, -0.00, -1.00, 724.9, 290.0)">n</text><text xml:space="preserve" font-family="MarkerFelt-Thin" font-size="36.0" fill="#858585" transform="matrix(1.00, 0.00, -0.00, -1.00, 743.6, 290.0)">e</text><text xml:space="preserve" font-family="MarkerFelt-Thin" font-size="36.0" fill="#858585" transform="matrix(1.00, 0.00, -0.00, -1.00, 759.5, 290.0)">n</text><text xml:space="preserve" font-family="MarkerFelt-Thin" font-size="36.0" fill="#858585" transform="matrix(1.00, 0.00, -0.00, -1.00, 779.3, 290.0)">t</text><text xml:space="preserve" font-family="MarkerFelt-Thin" font-size="36.0" fill="#858585" transform="matrix(1.00, 0.00, -0.00, -1.00, 792.2, 290.0)"> </text><text xml:space="preserve" font-family="MarkerFelt-Thin" font-size="36.0" fill="#858585" transform="matrix(1.00, 0.00, -0.00, -1.00, 566.0, 251.0)">m</text><text xml:space="preserve" font-family="MarkerFelt-Thin" font-size="36.0" fill="#858585" transform="matrix(1.00, 0.00, -0.00, -1.00, 593.7, 251.0)">a</text><text xml:space="preserve" font-family="MarkerFelt-Thin" font-size="36.0" fill="#858585" transform="matrix(1.00, 0.00, -0.00, -1.00, 611.7, 251.0)">i</text><text xml:space="preserve" font-family="MarkerFelt-Thin" font-size="36.0" fill="#858585" transform="matrix(1.00, 0.00, -0.00, -1.00, 620.6, 251.0)">n</text><text xml:space="preserve" font-family="MarkerFelt-Thin" font-size="36.0" fill="#858585" transform="matrix(1.00, 0.00, -0.00, -1.00, 640.3, 251.0)">t</text><text xml:space="preserve" font-family="MarkerFelt-Thin" font-size="36.0" fill="#858585" transform="matrix(1.00, 0.00, -0.00, -1.00, 654.1, 251.0)">e</text><text xml:space="preserve" font-family="MarkerFelt-Thin" font-size="36.0" fill="#858585" transform="matrix(1.00, 0.00, -0.00, -1.00, 670.0, 251.0)">n</text><text xml:space="preserve" font-family="MarkerFelt-Thin" font-size="36.0" fill="#858585" transform="matrix(1.00, 0.00, -0.00, -1.00, 689.8, 251.0)">a</text><text xml:space="preserve" font-family="MarkerFelt-Thin" font-size="36.0" fill="#858585" transform="matrix(1.00, 0.00, -0.00, -1.00, 707.8, 251.0)">n</text><text xml:space="preserve" font-family="MarkerFelt-Thin" font-size="36.0" fill="#858585" transform="matrix(1.00, 0.00, -0.00, -1.00, 726.6, 251.0)">c</text><text xml:space="preserve" font-family="MarkerFelt-Thin" font-size="36.0" fill="#858585" transform="matrix(1.00, 0.00, -0.00, -1.00, 741.6, 251.0)">e</text><g><clipPath id="clip-500"><path d="M 530.7 175.8 L 551.7 175.8 L 551.7 195.4 L 530.7 195.4 Z M 530.7 175.8 "></path></clipPath><g clip-path="url(#clip-500)"><path d="M 551.4 182.9 C 551.6 182.6 551.7 182.3 551.7 181.9 C 551.7 181.3 551.3 180.7 550.6 180.2 C 550.0 179.7 549.2 179.4 548.3 179.4 C 547.2 179.4 545.8 180.2 544.3 181.9 C 544.3 181.9 544.3 179.4 544.3 179.4 C 544.3 179.2 544.4 178.9 544.5 178.5 C 544.7 178.2 544.7 177.9 544.7 177.8 C 544.7 177.2 544.5 176.8 543.9 176.4 C 543.4 176.0 542.9 175.8 542.3 175.8 C 541.4 175.8 540.6 176.3 539.9 177.1 C 539.7 177.3 539.6 178.0 539.7 179.1 C 539.7 180.3 539.8 181.4 539.9 182.5 C 539.3 182.1 538.2 181.5 536.5 180.6 C 536.3 180.3 535.7 180.0 534.6 179.6 C 533.7 179.5 532.9 179.7 532.0 180.1 C 531.2 180.4 530.7 181.0 530.7 181.6 C 530.7 181.8 530.8 182.0 530.9 182.1 C 531.0 182.5 531.4 182.8 531.9 182.9 C 532.8 183.2 533.2 183.4 533.3 183.4 C 533.3 183.4 538.0 185.9 538.0 185.9 C 538.0 185.9 534.7 187.5 534.7 187.5 C 534.2 187.5 533.6 187.8 532.8 188.2 C 532.6 188.4 532.5 188.7 532.5 189.0 C 532.5 189.8 533.0 190.5 533.9 191.3 C 534.8 192.0 535.8 192.4 536.7 192.4 C 537.0 192.4 537.3 192.3 537.6 192.2 C 537.9 192.1 538.2 191.9 538.4 191.4 C 538.7 190.8 539.2 190.3 539.9 189.9 C 539.9 189.9 540.0 192.9 540.0 192.9 C 539.9 193.3 539.9 193.9 540.0 194.7 C 540.4 195.1 541.2 195.4 542.5 195.4 C 543.7 195.4 544.5 195.0 544.9 194.4 C 545.1 194.1 545.1 193.4 545.0 192.3 C 544.9 191.4 544.8 190.4 544.7 189.5 C 544.7 189.5 546.4 190.4 546.4 190.4 C 546.7 190.7 547.4 191.1 548.3 191.5 C 549.0 191.6 549.6 191.3 550.2 190.8 C 550.9 190.2 551.2 189.6 551.2 188.9 C 551.2 188.7 551.1 188.4 551.0 188.1 C 550.8 187.9 550.5 187.7 550.1 187.7 C 549.6 187.5 549.2 187.4 549.0 187.3 C 549.0 187.3 546.5 185.5 546.5 185.5 C 546.5 185.5 549.8 183.7 549.8 183.7 C 550.2 183.6 550.7 183.3 551.4 182.9 Z M 551.4 182.9 " fill="#3995D6"></path></g></g><text xml:space="preserve" font-family="MarkerFelt-Thin" font-size="36.0" fill="#858585" transform="matrix(1.00, 0.00, -0.00, -1.00, 566.0, 174.0)">F</text><text xml:space="preserve" font-family="MarkerFelt-Thin" font-size="36.0" fill="#858585" transform="matrix(1.00, 0.00, -0.00, -1.00, 581.1, 174.0)">e</text><text xml:space="preserve" font-family="MarkerFelt-Thin" font-size="36.0" fill="#858585" transform="matrix(1.00, 0.00, -0.00, -1.00, 597.7, 174.0)">w</text><text xml:space="preserve" font-family="MarkerFelt-Thin" font-size="36.0" fill="#858585" transform="matrix(1.00, 0.00, -0.00, -1.00, 623.6, 174.0)"> </text><text xml:space="preserve" font-family="MarkerFelt-Thin" font-size="36.0" fill="#858585" transform="matrix(1.00, 0.00, -0.00, -1.00, 632.6, 174.0)">t</text><text xml:space="preserve" font-family="MarkerFelt-Thin" font-size="36.0" fill="#858585" transform="matrix(1.00, 0.00, -0.00, -1.00, 647.1, 174.0)">o</text><text xml:space="preserve" font-family="MarkerFelt-Thin" font-size="36.0" fill="#858585" transform="matrix(1.00, 0.00, -0.00, -1.00, 663.8, 174.0)">o</text><text xml:space="preserve" font-family="MarkerFelt-Thin" font-size="36.0" fill="#858585" transform="matrix(1.00, 0.00, -0.00, -1.00, 680.1, 174.0)">l</text><text xml:space="preserve" font-family="MarkerFelt-Thin" font-size="36.0" fill="#858585" transform="matrix(1.00, 0.00, -0.00, -1.00, 688.7, 174.0)">s</text></g></svg>