<?xml version="1.0" encoding="UTF-8" standalone="no"?><svg xmlns="http://www.w3.org/2000/svg" xmlns:xlink="http://www.w3.org/1999/xlink" clip-rule="evenodd" stroke-miterlimit="4.00" viewBox="0 0 173 35"><desc>SVG generated by Keynote</desc><defs></defs><g transform="matrix(1.00, 0.00, -0.00, -1.00, 0.0, 35.0)"><g><clipPath id="clip-493"><path d="M 0.7 4.8 L 21.7 4.8 L 21.7 24.4 L 0.7 24.4 Z M 0.7 4.8 "></path></clipPath><g clip-path="url(#clip-493)"><path d="M 21.4 11.9 C 21.6 11.6 21.7 11.3 21.7 10.9 C 21.7 10.3 21.3 9.7 20.6 9.2 C 20.0 8.7 19.2 8.4 18.3 8.4 C 17.2 8.4 15.8 9.2 14.3 10.9 C 14.3 10.9 14.3 8.4 14.3 8.4 C 14.3 8.2 14.4 7.9 14.5 7.5 C 14.7 7.2 14.7 6.9 14.7 6.8 C 14.7 6.2 14.5 5.8 13.9 5.4 C 13.4 5.0 12.9 4.8 12.3 4.8 C 11.4 4.8 10.6 5.3 9.9 6.1 C 9.7 6.3 9.6 7.0 9.7 8.1 C 9.7 9.3 9.8 10.4 9.9 11.5 C 9.3 11.1 8.2 10.5 6.5 9.6 C 6.3 9.3 5.7 9.0 4.6 8.6 C 3.7 8.5 2.9 8.7 2.0 9.1 C 1.2 9.4 0.7 10.0 0.7 10.6 C 0.7 10.8 0.8 11.0 0.9 11.1 C 1.0 11.5 1.4 11.8 1.9 11.9 C 2.8 12.2 3.2 12.4 3.3 12.4 C 3.3 12.4 8.0 14.9 8.0 14.9 C 8.0 14.9 4.7 16.5 4.7 16.5 C 4.2 16.5 3.6 16.8 2.8 17.2 C 2.6 17.4 2.5 17.7 2.5 18.0 C 2.5 18.8 3.0 19.5 3.9 20.3 C 4.8 21.0 5.8 21.4 6.7 21.4 C 7.0 21.4 7.3 21.3 7.6 21.2 C 7.9 21.1 8.2 20.9 8.4 20.4 C 8.7 19.8 9.2 19.3 9.9 18.9 C 9.9 18.9 10.0 21.9 10.0 21.9 C 9.9 22.3 9.9 22.9 10.0 23.7 C 10.4 24.1 11.2 24.4 12.5 24.4 C 13.7 24.4 14.5 24.0 14.9 23.4 C 15.1 23.1 15.1 22.4 15.0 21.3 C 14.9 20.4 14.8 19.4 14.7 18.5 C 14.7 18.5 16.4 19.4 16.4 19.4 C 16.7 19.7 17.4 20.1 18.3 20.5 C 19.0 20.6 19.6 20.3 20.2 19.8 C 20.9 19.2 21.2 18.6 21.2 17.9 C 21.2 17.7 21.1 17.4 21.0 17.1 C 20.8 16.9 20.5 16.7 20.1 16.7 C 19.6 16.5 19.2 16.4 19.0 16.3 C 19.0 16.3 16.5 14.5 16.5 14.5 C 16.5 14.5 19.8 12.7 19.8 12.7 C 20.2 12.6 20.7 12.3 21.4 11.9 Z M 21.4 11.9 " fill="#3995D6"></path></g></g><text xml:space="preserve" font-family="MarkerFelt-Thin" font-size="36.0" fill="#858585" transform="matrix(1.00, 0.00, -0.00, -1.00, 36.0, 3.0)">F</text><text xml:space="preserve" font-family="MarkerFelt-Thin" font-size="36.0" fill="#858585" transform="matrix(1.00, 0.00, -0.00, -1.00, 51.1, 3.0)">e</text><text xml:space="preserve" font-family="MarkerFelt-Thin" font-size="36.0" fill="#858585" transform="matrix(1.00, 0.00, -0.00, -1.00, 67.7, 3.0)">w</text><text xml:space="preserve" font-family="MarkerFelt-Thin" font-size="36.0" fill="#858585" transform="matrix(1.00, 0.00, -0.00, -1.00, 93.6, 3.0)"> </text><text xml:space="preserve" font-family="MarkerFelt-Thin" font-size="36.0" fill="#858585" transform="matrix(1.00, 0.00, -0.00, -1.00, 102.6, 3.0)">t</text><text xml:space="preserve" font-family="MarkerFelt-Thin" font-size="36.0" fill="#858585" transform="matrix(1.00, 0.00, -0.00, -1.00, 117.1, 3.0)">o</text><text xml:space="preserve" font-family="MarkerFelt-Thin" font-size="36.0" fill="#858585" transform="matrix(1.00, 0.00, -0.00, -1.00, 133.8, 3.0)">o</text><text xml:space="preserve" font-family="MarkerFelt-Thin" font-size="36.0" fill="#858585" transform="matrix(1.00, 0.00, -0.00, -1.00, 150.1, 3.0)">l</text><text xml:space="preserve" font-family="MarkerFelt-Thin" font-size="36.0" fill="#858585" transform="matrix(1.00, 0.00, -0.00, -1.00, 158.7, 3.0)">s</text></g></svg>