<?xml version="1.0" encoding="UTF-8" standalone="no"?><svg xmlns="http://www.w3.org/2000/svg" xmlns:xlink="http://www.w3.org/1999/xlink" clip-rule="evenodd" stroke-miterlimit="4.00" viewBox="0 0 265 80"><desc>SVG generated by Keynote</desc><defs></defs><g transform="matrix(1.00, 0.00, -0.00, -1.00, 0.0, 80.0)"><g><clipPath id="clip-491"><path d="M 0.7 49.8 L 21.7 49.8 L 21.7 69.4 L 0.7 69.4 Z M 0.7 49.8 "></path></clipPath><g clip-path="url(#clip-491)"><path d="M 21.4 56.9 C 21.6 56.6 21.7 56.3 21.7 55.9 C 21.7 55.3 21.3 54.7 20.6 54.2 C 20.0 53.7 19.2 53.4 18.3 53.4 C 17.2 53.4 15.8 54.2 14.3 55.9 C 14.3 55.9 14.3 53.4 14.3 53.4 C 14.3 53.2 14.4 52.9 14.5 52.5 C 14.7 52.2 14.7 51.9 14.7 51.8 C 14.7 51.2 14.5 50.8 13.9 50.4 C 13.4 50.0 12.9 49.8 12.3 49.8 C 11.4 49.8 10.6 50.3 9.9 51.1 C 9.7 51.3 9.6 52.0 9.7 53.1 C 9.7 54.3 9.8 55.4 9.9 56.5 C 9.3 56.1 8.2 55.5 6.5 54.6 C 6.3 54.3 5.7 54.0 4.6 53.6 C 3.7 53.5 2.9 53.7 2.0 54.1 C 1.2 54.4 0.7 55.0 0.7 55.6 C 0.7 55.8 0.8 56.0 0.9 56.1 C 1.0 56.5 1.4 56.8 1.9 56.9 C 2.8 57.2 3.2 57.4 3.3 57.4 C 3.3 57.4 8.0 59.9 8.0 59.9 C 8.0 59.9 4.7 61.5 4.7 61.5 C 4.2 61.5 3.6 61.8 2.8 62.2 C 2.6 62.4 2.5 62.7 2.5 63.0 C 2.5 63.8 3.0 64.5 3.9 65.3 C 4.8 66.0 5.8 66.4 6.7 66.4 C 7.0 66.4 7.3 66.3 7.6 66.2 C 7.9 66.1 8.2 65.9 8.4 65.4 C 8.7 64.8 9.2 64.3 9.9 63.9 C 9.9 63.9 10.0 66.9 10.0 66.9 C 9.9 67.3 9.9 67.9 10.0 68.7 C 10.4 69.1 11.2 69.4 12.5 69.4 C 13.7 69.4 14.5 69.0 14.9 68.4 C 15.1 68.1 15.1 67.4 15.0 66.3 C 14.9 65.4 14.8 64.4 14.7 63.5 C 14.7 63.5 16.4 64.4 16.4 64.4 C 16.7 64.7 17.4 65.1 18.3 65.5 C 19.0 65.6 19.6 65.3 20.2 64.8 C 20.9 64.2 21.2 63.6 21.2 62.9 C 21.2 62.7 21.1 62.4 21.0 62.1 C 20.8 61.9 20.5 61.7 20.1 61.7 C 19.6 61.5 19.2 61.4 19.0 61.3 C 19.0 61.3 16.5 59.5 16.5 59.5 C 16.5 59.5 19.8 57.7 19.8 57.7 C 20.2 57.6 20.7 57.3 21.4 56.9 Z M 21.4 56.9 " fill="#3995D6"></path></g></g><text xml:space="preserve" font-family="MarkerFelt-Thin" font-size="36.0" fill="#858585" transform="matrix(1.00, 0.00, -0.00, -1.00, 36.0, 48.0)">1</text><text xml:space="preserve" font-family="MarkerFelt-Thin" font-size="36.0" fill="#858585" transform="matrix(1.00, 0.00, -0.00, -1.00, 56.5, 48.0)"> </text><text xml:space="preserve" font-family="MarkerFelt-Thin" font-size="36.0" fill="#858585" transform="matrix(1.00, 0.00, -0.00, -1.00, 65.5, 48.0)">a</text><text xml:space="preserve" font-family="MarkerFelt-Thin" font-size="36.0" fill="#858585" transform="matrix(1.00, 0.00, -0.00, -1.00, 83.8, 48.0)">l</text><text xml:space="preserve" font-family="MarkerFelt-Thin" font-size="36.0" fill="#858585" transform="matrix(1.00, 0.00, -0.00, -1.00, 92.1, 48.0)">g</text><text xml:space="preserve" font-family="MarkerFelt-Thin" font-size="36.0" fill="#858585" transform="matrix(1.00, 0.00, -0.00, -1.00, 108.8, 48.0)">o</text><text xml:space="preserve" font-family="MarkerFelt-Thin" font-size="36.0" fill="#858585" transform="matrix(1.00, 0.00, -0.00, -1.00, 124.9, 48.0)">r</text><text xml:space="preserve" font-family="MarkerFelt-Thin" font-size="36.0" fill="#858585" transform="matrix(1.00, 0.00, -0.00, -1.00, 140.8, 48.0)">i</text><text xml:space="preserve" font-family="MarkerFelt-Thin" font-size="36.0" fill="#858585" transform="matrix(1.00, 0.00, -0.00, -1.00, 150.4, 48.0)">t</text><text xml:space="preserve" font-family="MarkerFelt-Thin" font-size="36.0" fill="#858585" transform="matrix(1.00, 0.00, -0.00, -1.00, 165.3, 48.0)">h</text><text xml:space="preserve" font-family="MarkerFelt-Thin" font-size="36.0" fill="#858585" transform="matrix(1.00, 0.00, -0.00, -1.00, 183.1, 48.0)">m</text><text xml:space="preserve" font-family="MarkerFelt-Thin" font-size="36.0" fill="#858585" transform="matrix(1.00, 0.00, -0.00, -1.00, 210.3, 48.0)">i</text><text xml:space="preserve" font-family="MarkerFelt-Thin" font-size="36.0" fill="#858585" transform="matrix(1.00, 0.00, -0.00, -1.00, 218.5, 48.0)">c</text><text xml:space="preserve" font-family="MarkerFelt-Thin" font-size="36.0" fill="#858585" transform="matrix(1.00, 0.00, -0.00, -1.00, 232.2, 48.0)"> </text><text xml:space="preserve" font-family="MarkerFelt-Thin" font-size="36.0" fill="#858585" transform="matrix(1.00, 0.00, -0.00, -1.00, 36.0, 9.0)">i</text><text xml:space="preserve" font-family="MarkerFelt-Thin" font-size="36.0" fill="#858585" transform="matrix(1.00, 0.00, -0.00, -1.00, 44.5, 9.0)">m</text><text xml:space="preserve" font-family="MarkerFelt-Thin" font-size="36.0" fill="#858585" transform="matrix(1.00, 0.00, -0.00, -1.00, 71.6, 9.0)">p</text><text xml:space="preserve" font-family="MarkerFelt-Thin" font-size="36.0" fill="#858585" transform="matrix(1.00, 0.00, -0.00, -1.00, 88.4, 9.0)">l</text><text xml:space="preserve" font-family="MarkerFelt-Thin" font-size="36.0" fill="#858585" transform="matrix(1.00, 0.00, -0.00, -1.00, 96.6, 9.0)">e</text><text xml:space="preserve" font-family="MarkerFelt-Thin" font-size="36.0" fill="#858585" transform="matrix(1.00, 0.00, -0.00, -1.00, 111.7, 9.0)">m</text><text xml:space="preserve" font-family="MarkerFelt-Thin" font-size="36.0" fill="#858585" transform="matrix(1.00, 0.00, -0.00, -1.00, 137.6, 9.0)">e</text><text xml:space="preserve" font-family="MarkerFelt-Thin" font-size="36.0" fill="#858585" transform="matrix(1.00, 0.00, -0.00, -1.00, 153.6, 9.0)">n</text><text xml:space="preserve" font-family="MarkerFelt-Thin" font-size="36.0" fill="#858585" transform="matrix(1.00, 0.00, -0.00, -1.00, 173.3, 9.0)">t</text><text xml:space="preserve" font-family="MarkerFelt-Thin" font-size="36.0" fill="#858585" transform="matrix(1.00, 0.00, -0.00, -1.00, 188.1, 9.0)">a</text><text xml:space="preserve" font-family="MarkerFelt-Thin" font-size="36.0" fill="#858585" transform="matrix(1.00, 0.00, -0.00, -1.00, 205.7, 9.0)">t</text><text xml:space="preserve" font-family="MarkerFelt-Thin" font-size="36.0" fill="#858585" transform="matrix(1.00, 0.00, -0.00, -1.00, 221.2, 9.0)">i</text><text xml:space="preserve" font-family="MarkerFelt-Thin" font-size="36.0" fill="#858585" transform="matrix(1.00, 0.00, -0.00, -1.00, 229.5, 9.0)">o</text><text xml:space="preserve" font-family="MarkerFelt-Thin" font-size="36.0" fill="#858585" transform="matrix(1.00, 0.00, -0.00, -1.00, 245.8, 9.0)">n</text></g></svg>