<?xml version="1.0" encoding="UTF-8" standalone="no"?><svg xmlns="http://www.w3.org/2000/svg" xmlns:xlink="http://www.w3.org/1999/xlink" clip-rule="evenodd" stroke-miterlimit="4.00" viewBox="0 0 204 40"><desc>SVG generated by Keynote</desc><defs></defs><g transform="matrix(1.00, 0.00, -0.00, -1.00, 0.0, 40.0)"><g><clipPath id="clip-490"><path d="M 0.7 9.8 L 21.7 9.8 L 21.7 29.4 L 0.7 29.4 Z M 0.7 9.8 "></path></clipPath><g clip-path="url(#clip-490)"><path d="M 21.4 16.9 C 21.6 16.6 21.7 16.3 21.7 15.9 C 21.7 15.3 21.3 14.7 20.6 14.2 C 20.0 13.7 19.2 13.4 18.3 13.4 C 17.2 13.4 15.8 14.2 14.3 15.9 C 14.3 15.9 14.3 13.4 14.3 13.4 C 14.3 13.2 14.4 12.9 14.5 12.5 C 14.7 12.2 14.7 11.9 14.7 11.8 C 14.7 11.2 14.5 10.8 13.9 10.4 C 13.4 10.0 12.9 9.8 12.3 9.8 C 11.4 9.8 10.6 10.3 9.9 11.1 C 9.7 11.3 9.6 12.0 9.7 13.1 C 9.7 14.3 9.8 15.4 9.9 16.5 C 9.3 16.1 8.2 15.5 6.5 14.6 C 6.3 14.3 5.7 14.0 4.6 13.6 C 3.7 13.5 2.9 13.7 2.0 14.1 C 1.2 14.4 0.7 15.0 0.7 15.6 C 0.7 15.8 0.8 16.0 0.9 16.1 C 1.0 16.5 1.4 16.8 1.9 16.9 C 2.8 17.2 3.2 17.4 3.3 17.4 C 3.3 17.4 8.0 19.9 8.0 19.9 C 8.0 19.9 4.7 21.5 4.7 21.5 C 4.2 21.5 3.6 21.8 2.8 22.2 C 2.6 22.4 2.5 22.7 2.5 23.0 C 2.5 23.8 3.0 24.5 3.9 25.3 C 4.8 26.0 5.8 26.4 6.7 26.4 C 7.0 26.4 7.3 26.3 7.6 26.2 C 7.9 26.1 8.2 25.9 8.4 25.4 C 8.7 24.8 9.2 24.3 9.9 23.9 C 9.9 23.9 10.0 26.9 10.0 26.9 C 9.9 27.3 9.9 27.9 10.0 28.7 C 10.4 29.1 11.2 29.4 12.5 29.4 C 13.7 29.4 14.5 29.0 14.9 28.4 C 15.1 28.1 15.1 27.4 15.0 26.3 C 14.9 25.4 14.8 24.4 14.7 23.5 C 14.7 23.5 16.4 24.4 16.4 24.4 C 16.7 24.7 17.4 25.1 18.3 25.5 C 19.0 25.6 19.6 25.3 20.2 24.8 C 20.9 24.2 21.2 23.6 21.2 22.9 C 21.2 22.7 21.1 22.4 21.0 22.1 C 20.8 21.9 20.5 21.7 20.1 21.7 C 19.6 21.5 19.2 21.4 19.0 21.3 C 19.0 21.3 16.5 19.5 16.5 19.5 C 16.5 19.5 19.8 17.7 19.8 17.7 C 20.2 17.6 20.7 17.3 21.4 16.9 Z M 21.4 16.9 " fill="#3995D6"></path></g></g><text xml:space="preserve" font-family="MarkerFelt-Thin" font-size="36.0" fill="#858585" transform="matrix(1.00, 0.00, -0.00, -1.00, 36.0, 8.0)">M</text><text xml:space="preserve" font-family="MarkerFelt-Thin" font-size="36.0" fill="#858585" transform="matrix(1.00, 0.00, -0.00, -1.00, 71.1, 8.0)">a</text><text xml:space="preserve" font-family="MarkerFelt-Thin" font-size="36.0" fill="#858585" transform="matrix(1.00, 0.00, -0.00, -1.00, 89.1, 8.0)">n</text><text xml:space="preserve" font-family="MarkerFelt-Thin" font-size="36.0" fill="#858585" transform="matrix(1.00, 0.00, -0.00, -1.00, 107.8, 8.0)">y</text><text xml:space="preserve" font-family="MarkerFelt-Thin" font-size="36.0" fill="#858585" transform="matrix(1.00, 0.00, -0.00, -1.00, 124.7, 8.0)"> </text><text xml:space="preserve" font-family="MarkerFelt-Thin" font-size="36.0" fill="#858585" transform="matrix(1.00, 0.00, -0.00, -1.00, 133.7, 8.0)">t</text><text xml:space="preserve" font-family="MarkerFelt-Thin" font-size="36.0" fill="#858585" transform="matrix(1.00, 0.00, -0.00, -1.00, 148.2, 8.0)">o</text><text xml:space="preserve" font-family="MarkerFelt-Thin" font-size="36.0" fill="#858585" transform="matrix(1.00, 0.00, -0.00, -1.00, 164.9, 8.0)">o</text><text xml:space="preserve" font-family="MarkerFelt-Thin" font-size="36.0" fill="#858585" transform="matrix(1.00, 0.00, -0.00, -1.00, 181.2, 8.0)">l</text><text xml:space="preserve" font-family="MarkerFelt-Thin" font-size="36.0" fill="#858585" transform="matrix(1.00, 0.00, -0.00, -1.00, 189.8, 8.0)">s</text></g></svg>