<?xml version="1.0" encoding="UTF-8" standalone="no"?><svg xmlns="http://www.w3.org/2000/svg" xmlns:xlink="http://www.w3.org/1999/xlink" clip-rule="evenodd" stroke-miterlimit="4.00" viewBox="0 0 1024 768"><desc>SVG generated by Keynote</desc><defs></defs><g transform="matrix(1.00, 0.00, -0.00, -1.00, 0.0, 768.0)"><path d="M 0.0 768.0 L 1024.0 768.0 L 1024.0 0.0 L 0.0 0.0 Z M 0.0 768.0 " fill="#FEFFFF"></path><text xml:space="preserve" font-family="Helvetica-Light" font-size="80.0" fill="#000000" transform="matrix(1.00, 0.00, -0.00, -1.00, 91.0, 618.0)">I</text><text xml:space="preserve" font-family="Helvetica-Light" font-size="80.0" fill="#000000" transform="matrix(1.00, 0.00, -0.00, -1.00, 113.2, 618.0)">n</text><text xml:space="preserve" font-family="Helvetica-Light" font-size="80.0" fill="#000000" transform="matrix(1.00, 0.00, -0.00, -1.00, 157.7, 618.0)">t</text><text xml:space="preserve" font-family="Helvetica-Light" font-size="80.0" fill="#000000" transform="matrix(1.00, 0.00, -0.00, -1.00, 180.0, 618.0)">e</text><text xml:space="preserve" font-family="Helvetica-Light" font-size="80.0" fill="#000000" transform="matrix(1.00, 0.00, -0.00, -1.00, 224.4, 618.0)">r</text><text xml:space="preserve" font-family="Helvetica-Light" font-size="80.0" fill="#000000" transform="matrix(1.00, 0.00, -0.00, -1.00, 252.5, 618.0)">f</text><text xml:space="preserve" font-family="Helvetica-Light" font-size="80.0" fill="#000000" transform="matrix(1.00, 0.00, -0.00, -1.00, 274.8, 618.0)">a</text><text xml:space="preserve" font-family="Helvetica-Light" font-size="80.0" fill="#000000" transform="matrix(1.00, 0.00, -0.00, -1.00, 319.2, 618.0)">c</text><text xml:space="preserve" font-family="Helvetica-Light" font-size="80.0" fill="#000000" transform="matrix(1.00, 0.00, -0.00, -1.00, 363.7, 618.0)">e</text><text xml:space="preserve" font-family="Helvetica-Light" font-size="80.0" fill="#000000" transform="matrix(1.00, 0.00, -0.00, -1.00, 408.2, 618.0)"> </text><text xml:space="preserve" font-family="Helvetica-Light" font-size="80.0" fill="#000000" transform="matrix(1.00, 0.00, -0.00, -1.00, 430.4, 618.0)">I</text><text xml:space="preserve" font-family="Helvetica-Light" font-size="80.0" fill="#000000" transform="matrix(1.00, 0.00, -0.00, -1.00, 452.7, 618.0)">B</text><text xml:space="preserve" font-family="Helvetica-Light" font-size="80.0" fill="#000000" transform="matrix(1.00, 0.00, -0.00, -1.00, 506.0, 618.0)">a</text><text xml:space="preserve" font-family="Helvetica-Light" font-size="80.0" fill="#000000" transform="matrix(1.00, 0.00, -0.00, -1.00, 550.5, 618.0)">n</text><text xml:space="preserve" font-family="Helvetica-Light" font-size="80.0" fill="#000000" transform="matrix(1.00, 0.00, -0.00, -1.00, 595.0, 618.0)">k</text><text xml:space="preserve" font-family="Helvetica-Light" font-size="80.0" fill="#000000" transform="matrix(1.00, 0.00, -0.00, -1.00, 635.0, 618.0)">A</text><text xml:space="preserve" font-family="Helvetica-Light" font-size="80.0" fill="#000000" transform="matrix(1.00, 0.00, -0.00, -1.00, 688.4, 618.0)">c</text><text xml:space="preserve" font-family="Helvetica-Light" font-size="80.0" fill="#000000" transform="matrix(1.00, 0.00, -0.00, -1.00, 732.8, 618.0)">c</text><text xml:space="preserve" font-family="Helvetica-Light" font-size="80.0" fill="#000000" transform="matrix(1.00, 0.00, -0.00, -1.00, 777.3, 618.0)">o</text><text xml:space="preserve" font-family="Helvetica-Light" font-size="80.0" fill="#000000" transform="matrix(1.00, 0.00, -0.00, -1.00, 821.8, 618.0)">u</text><text xml:space="preserve" font-family="Helvetica-Light" font-size="80.0" fill="#000000" transform="matrix(1.00, 0.00, -0.00, -1.00, 866.3, 618.0)">n</text><text xml:space="preserve" font-family="Helvetica-Light" font-size="80.0" fill="#000000" transform="matrix(1.00, 0.00, -0.00, -1.00, 910.8, 618.0)">t</text><text xml:space="preserve" font-family="CourierNewPSMT" font-size="29.0" fill="#999999" transform="matrix(1.00, 0.00, -0.00, -1.00, 181.0, 475.0)"> </text><text xml:space="preserve" font-family="CourierNewPSMT" font-size="29.0" fill="#999999" transform="matrix(1.00, 0.00, -0.00, -1.00, 198.4, 475.0)"> </text><text xml:space="preserve" font-family="CourierNewPSMT" font-size="29.0" fill="#999999" transform="matrix(1.00, 0.00, -0.00, -1.00, 215.8, 475.0)"> </text><text xml:space="preserve" font-family="CourierNewPSMT" font-size="29.0" fill="#999999" transform="matrix(1.00, 0.00, -0.00, -1.00, 233.2, 475.0)"> </text><text xml:space="preserve" font-family="CourierNewPSMT" font-size="29.0" fill="#999999" transform="matrix(1.00, 0.00, -0.00, -1.00, 250.6, 475.0)">1</text><text xml:space="preserve" font-family="CourierNewPSMT" font-size="29.0" fill="#999999" transform="matrix(1.00, 0.00, -0.00, -1.00, 268.0, 475.0)"> </text><text xml:space="preserve" font-family="CourierNewPSMT" font-size="29.0" fill="#B53D36" transform="matrix(1.00, 0.00, -0.00, -1.00, 285.4, 475.0)">p</text><text xml:space="preserve" font-family="CourierNewPSMT" font-size="29.0" fill="#B53D36" transform="matrix(1.00, 0.00, -0.00, -1.00, 302.8, 475.0)">a</text><text xml:space="preserve" font-family="CourierNewPSMT" font-size="29.0" fill="#B53D36" transform="matrix(1.00, 0.00, -0.00, -1.00, 320.2, 475.0)">c</text><text xml:space="preserve" font-family="CourierNewPSMT" font-size="29.0" fill="#B53D36" transform="matrix(1.00, 0.00, -0.00, -1.00, 337.6, 475.0)">k</text><text xml:space="preserve" font-family="CourierNewPSMT" font-size="29.0" fill="#B53D36" transform="matrix(1.00, 0.00, -0.00, -1.00, 355.0, 475.0)">a</text><text xml:space="preserve" font-family="CourierNewPSMT" font-size="29.0" fill="#B53D36" transform="matrix(1.00, 0.00, -0.00, -1.00, 372.4, 475.0)">g</text><text xml:space="preserve" font-family="CourierNewPSMT" font-size="29.0" fill="#B53D36" transform="matrix(1.00, 0.00, -0.00, -1.00, 389.9, 475.0)">e</text><text xml:space="preserve" font-family="CourierNewPSMT" font-size="29.0" fill="#000000" transform="matrix(1.00, 0.00, -0.00, -1.00, 407.2, 475.0)"> </text><text xml:space="preserve" font-family="CourierNewPSMT" font-size="29.0" fill="#000000" transform="matrix(1.00, 0.00, -0.00, -1.00, 424.6, 475.0)">v</text><text xml:space="preserve" font-family="CourierNewPSMT" font-size="29.0" fill="#000000" transform="matrix(1.00, 0.00, -0.00, -1.00, 442.0, 475.0)">a</text><text xml:space="preserve" font-family="CourierNewPSMT" font-size="29.0" fill="#000000" transform="matrix(1.00, 0.00, -0.00, -1.00, 459.5, 475.0)">l</text><text xml:space="preserve" font-family="CourierNewPSMT" font-size="29.0" fill="#000000" transform="matrix(1.00, 0.00, -0.00, -1.00, 476.9, 475.0)">u</text><text xml:space="preserve" font-family="CourierNewPSMT" font-size="29.0" fill="#000000" transform="matrix(1.00, 0.00, -0.00, -1.00, 494.3, 475.0)">e</text><text xml:space="preserve" font-family="CourierNewPSMT" font-size="29.0" fill="#000000" transform="matrix(1.00, 0.00, -0.00, -1.00, 511.7, 475.0)">s</text><text xml:space="preserve" font-family="CourierNewPSMT" font-size="29.0" fill="#000000" transform="matrix(1.00, 0.00, -0.00, -1.00, 529.1, 475.0)">.</text><text xml:space="preserve" font-family="CourierNewPSMT" font-size="29.0" fill="#000000" transform="matrix(1.00, 0.00, -0.00, -1.00, 546.5, 475.0)">e</text><text xml:space="preserve" font-family="CourierNewPSMT" font-size="29.0" fill="#000000" transform="matrix(1.00, 0.00, -0.00, -1.00, 563.9, 475.0)">x</text><text xml:space="preserve" font-family="CourierNewPSMT" font-size="29.0" fill="#000000" transform="matrix(1.00, 0.00, -0.00, -1.00, 581.3, 475.0)">a</text><text xml:space="preserve" font-family="CourierNewPSMT" font-size="29.0" fill="#000000" transform="matrix(1.00, 0.00, -0.00, -1.00, 598.7, 475.0)">m</text><text xml:space="preserve" font-family="CourierNewPSMT" font-size="29.0" fill="#000000" transform="matrix(1.00, 0.00, -0.00, -1.00, 616.1, 475.0)">p</text><text xml:space="preserve" font-family="CourierNewPSMT" font-size="29.0" fill="#000000" transform="matrix(1.00, 0.00, -0.00, -1.00, 633.5, 475.0)">l</text><text xml:space="preserve" font-family="CourierNewPSMT" font-size="29.0" fill="#000000" transform="matrix(1.00, 0.00, -0.00, -1.00, 650.9, 475.0)">e</text><text xml:space="preserve" font-family="CourierNewPSMT" font-size="29.0" fill="#000000" transform="matrix(1.00, 0.00, -0.00, -1.00, 668.3, 475.0)">s</text><text xml:space="preserve" font-family="CourierNewPSMT" font-size="29.0" fill="#000000" transform="matrix(1.00, 0.00, -0.00, -1.00, 685.7, 475.0)">;</text><text xml:space="preserve" font-family="CourierNewPSMT" font-size="29.0" fill="#000000" transform="matrix(1.00, 0.00, -0.00, -1.00, 703.1, 475.0)"> </text><text xml:space="preserve" font-family="CourierNewPSMT" font-size="29.0" fill="#999999" transform="matrix(1.00, 0.00, -0.00, -1.00, 181.0, 442.0)"> </text><text xml:space="preserve" font-family="CourierNewPSMT" font-size="29.0" fill="#999999" transform="matrix(1.00, 0.00, -0.00, -1.00, 198.4, 442.0)"> </text><text xml:space="preserve" font-family="CourierNewPSMT" font-size="29.0" fill="#999999" transform="matrix(1.00, 0.00, -0.00, -1.00, 215.8, 442.0)"> </text><text xml:space="preserve" font-family="CourierNewPSMT" font-size="29.0" fill="#999999" transform="matrix(1.00, 0.00, -0.00, -1.00, 233.2, 442.0)"> </text><text xml:space="preserve" font-family="CourierNewPSMT" font-size="29.0" fill="#999999" transform="matrix(1.00, 0.00, -0.00, -1.00, 250.6, 442.0)">2</text><text xml:space="preserve" font-family="CourierNewPSMT" font-size="29.0" fill="#999999" transform="matrix(1.00, 0.00, -0.00, -1.00, 268.0, 442.0)"> </text><text xml:space="preserve" font-family="CourierNewPSMT" font-size="29.0" fill="#000000" transform="matrix(1.00, 0.00, -0.00, -1.00, 285.4, 442.0)"> </text><text xml:space="preserve" font-family="CourierNewPSMT" font-size="29.0" fill="#999999" transform="matrix(1.00, 0.00, -0.00, -1.00, 181.0, 409.0)"> </text><text xml:space="preserve" font-family="CourierNewPSMT" font-size="29.0" fill="#999999" transform="matrix(1.00, 0.00, -0.00, -1.00, 198.4, 409.0)"> </text><text xml:space="preserve" font-family="CourierNewPSMT" font-size="29.0" fill="#999999" transform="matrix(1.00, 0.00, -0.00, -1.00, 215.8, 409.0)"> </text><text xml:space="preserve" font-family="CourierNewPSMT" font-size="29.0" fill="#999999" transform="matrix(1.00, 0.00, -0.00, -1.00, 233.2, 409.0)"> </text><text xml:space="preserve" font-family="CourierNewPSMT" font-size="29.0" fill="#999999" transform="matrix(1.00, 0.00, -0.00, -1.00, 250.6, 409.0)">3</text><text xml:space="preserve" font-family="CourierNewPSMT" font-size="29.0" fill="#999999" transform="matrix(1.00, 0.00, -0.00, -1.00, 268.0, 409.0)"> </text><text xml:space="preserve" font-family="CourierNewPSMT" font-size="29.0" fill="#B53D36" transform="matrix(1.00, 0.00, -0.00, -1.00, 285.4, 409.0)">p</text><text xml:space="preserve" font-family="CourierNewPSMT" font-size="29.0" fill="#B53D36" transform="matrix(1.00, 0.00, -0.00, -1.00, 302.8, 409.0)">u</text><text xml:space="preserve" font-family="CourierNewPSMT" font-size="29.0" fill="#B53D36" transform="matrix(1.00, 0.00, -0.00, -1.00, 320.2, 409.0)">b</text><text xml:space="preserve" font-family="CourierNewPSMT" font-size="29.0" fill="#B53D36" transform="matrix(1.00, 0.00, -0.00, -1.00, 337.6, 409.0)">l</text><text xml:space="preserve" font-family="CourierNewPSMT" font-size="29.0" fill="#B53D36" transform="matrix(1.00, 0.00, -0.00, -1.00, 355.0, 409.0)">i</text><text xml:space="preserve" font-family="CourierNewPSMT" font-size="29.0" fill="#B53D36" transform="matrix(1.00, 0.00, -0.00, -1.00, 372.4, 409.0)">c</text><text xml:space="preserve" font-family="CourierNewPSMT" font-size="29.0" fill="#B53D36" transform="matrix(1.00, 0.00, -0.00, -1.00, 389.9, 409.0)"> </text><text xml:space="preserve" font-family="CourierNewPSMT" font-size="29.0" fill="#B53D36" transform="matrix(1.00, 0.00, -0.00, -1.00, 407.3, 409.0)">i</text><text xml:space="preserve" font-family="CourierNewPSMT" font-size="29.0" fill="#B53D36" transform="matrix(1.00, 0.00, -0.00, -1.00, 424.7, 409.0)">n</text><text xml:space="preserve" font-family="CourierNewPSMT" font-size="29.0" fill="#B53D36" transform="matrix(1.00, 0.00, -0.00, -1.00, 442.1, 409.0)">t</text><text xml:space="preserve" font-family="CourierNewPSMT" font-size="29.0" fill="#B53D36" transform="matrix(1.00, 0.00, -0.00, -1.00, 459.5, 409.0)">e</text><text xml:space="preserve" font-family="CourierNewPSMT" font-size="29.0" fill="#B53D36" transform="matrix(1.00, 0.00, -0.00, -1.00, 476.9, 409.0)">r</text><text xml:space="preserve" font-family="CourierNewPSMT" font-size="29.0" fill="#B53D36" transform="matrix(1.00, 0.00, -0.00, -1.00, 494.3, 409.0)">f</text><text xml:space="preserve" font-family="CourierNewPSMT" font-size="29.0" fill="#B53D36" transform="matrix(1.00, 0.00, -0.00, -1.00, 511.7, 409.0)">a</text><text xml:space="preserve" font-family="CourierNewPSMT" font-size="29.0" fill="#B53D36" transform="matrix(1.00, 0.00, -0.00, -1.00, 529.1, 409.0)">c</text><text xml:space="preserve" font-family="CourierNewPSMT" font-size="29.0" fill="#B53D36" transform="matrix(1.00, 0.00, -0.00, -1.00, 546.5, 409.0)">e</text><text xml:space="preserve" font-family="CourierNewPSMT" font-size="29.0" fill="#000000" transform="matrix(1.00, 0.00, -0.00, -1.00, 563.9, 409.0)"> </text><text xml:space="preserve" font-family="CourierNewPSMT" font-size="29.0" fill="#000000" transform="matrix(1.00, 0.00, -0.00, -1.00, 581.3, 409.0)">I</text><text xml:space="preserve" font-family="CourierNewPSMT" font-size="29.0" fill="#000000" transform="matrix(1.00, 0.00, -0.00, -1.00, 598.7, 409.0)">B</text><text xml:space="preserve" font-family="CourierNewPSMT" font-size="29.0" fill="#000000" transform="matrix(1.00, 0.00, -0.00, -1.00, 616.1, 409.0)">a</text><text xml:space="preserve" font-family="CourierNewPSMT" font-size="29.0" fill="#000000" transform="matrix(1.00, 0.00, -0.00, -1.00, 633.5, 409.0)">n</text><text xml:space="preserve" font-family="CourierNewPSMT" font-size="29.0" fill="#000000" transform="matrix(1.00, 0.00, -0.00, -1.00, 650.9, 409.0)">k</text><text xml:space="preserve" font-family="CourierNewPSMT" font-size="29.0" fill="#000000" transform="matrix(1.00, 0.00, -0.00, -1.00, 668.3, 409.0)">A</text><text xml:space="preserve" font-family="CourierNewPSMT" font-size="29.0" fill="#000000" transform="matrix(1.00, 0.00, -0.00, -1.00, 685.7, 409.0)">c</text><text xml:space="preserve" font-family="CourierNewPSMT" font-size="29.0" fill="#000000" transform="matrix(1.00, 0.00, -0.00, -1.00, 703.1, 409.0)">c</text><text xml:space="preserve" font-family="CourierNewPSMT" font-size="29.0" fill="#000000" transform="matrix(1.00, 0.00, -0.00, -1.00, 720.5, 409.0)">o</text><text xml:space="preserve" font-family="CourierNewPSMT" font-size="29.0" fill="#000000" transform="matrix(1.00, 0.00, -0.00, -1.00, 737.9, 409.0)">u</text><text xml:space="preserve" font-family="CourierNewPSMT" font-size="29.0" fill="#000000" transform="matrix(1.00, 0.00, -0.00, -1.00, 755.3, 409.0)">n</text><text xml:space="preserve" font-family="CourierNewPSMT" font-size="29.0" fill="#000000" transform="matrix(1.00, 0.00, -0.00, -1.00, 772.7, 409.0)">t</text><text xml:space="preserve" font-family="CourierNewPSMT" font-size="29.0" fill="#000000" transform="matrix(1.00, 0.00, -0.00, -1.00, 790.1, 409.0)"> </text><text xml:space="preserve" font-family="CourierNewPSMT" font-size="29.0" fill="#000000" transform="matrix(1.00, 0.00, -0.00, -1.00, 807.5, 409.0)">{</text><text xml:space="preserve" font-family="CourierNewPSMT" font-size="29.0" fill="#000000" transform="matrix(1.00, 0.00, -0.00, -1.00, 824.9, 409.0)"> </text><text xml:space="preserve" font-family="CourierNewPSMT" font-size="29.0" fill="#999999" transform="matrix(1.00, 0.00, -0.00, -1.00, 181.0, 376.0)"> </text><text xml:space="preserve" font-family="CourierNewPSMT" font-size="29.0" fill="#999999" transform="matrix(1.00, 0.00, -0.00, -1.00, 198.4, 376.0)"> </text><text xml:space="preserve" font-family="CourierNewPSMT" font-size="29.0" fill="#999999" transform="matrix(1.00, 0.00, -0.00, -1.00, 215.8, 376.0)"> </text><text xml:space="preserve" font-family="CourierNewPSMT" font-size="29.0" fill="#999999" transform="matrix(1.00, 0.00, -0.00, -1.00, 233.2, 376.0)"> </text><text xml:space="preserve" font-family="CourierNewPSMT" font-size="29.0" fill="#999999" transform="matrix(1.00, 0.00, -0.00, -1.00, 250.6, 376.0)">4</text><text xml:space="preserve" font-family="CourierNewPSMT" font-size="29.0" fill="#999999" transform="matrix(1.00, 0.00, -0.00, -1.00, 268.0, 376.0)"> </text><text xml:space="preserve" font-family="CourierNewPSMT" font-size="29.0" fill="#000000" transform="matrix(1.00, 0.00, -0.00, -1.00, 285.4, 376.0)"> </text><text xml:space="preserve" font-family="CourierNewPSMT" font-size="29.0" fill="#000000" transform="matrix(1.00, 0.00, -0.00, -1.00, 302.8, 376.0)"> </text><text xml:space="preserve" font-family="CourierNewPSMT" font-size="29.0" fill="#000000" transform="matrix(1.00, 0.00, -0.00, -1.00, 320.2, 376.0)"> </text><text xml:space="preserve" font-family="CourierNewPSMT" font-size="29.0" fill="#000000" transform="matrix(1.00, 0.00, -0.00, -1.00, 337.6, 376.0)"> </text><text xml:space="preserve" font-family="CourierNewPSMT" font-size="29.0" fill="#000000" transform="matrix(1.00, 0.00, -0.00, -1.00, 355.0, 376.0)">S</text><text xml:space="preserve" font-family="CourierNewPSMT" font-size="29.0" fill="#000000" transform="matrix(1.00, 0.00, -0.00, -1.00, 372.4, 376.0)">t</text><text xml:space="preserve" font-family="CourierNewPSMT" font-size="29.0" fill="#000000" transform="matrix(1.00, 0.00, -0.00, -1.00, 389.9, 376.0)">r</text><text xml:space="preserve" font-family="CourierNewPSMT" font-size="29.0" fill="#000000" transform="matrix(1.00, 0.00, -0.00, -1.00, 407.3, 376.0)">i</text><text xml:space="preserve" font-family="CourierNewPSMT" font-size="29.0" fill="#000000" transform="matrix(1.00, 0.00, -0.00, -1.00, 424.7, 376.0)">n</text><text xml:space="preserve" font-family="CourierNewPSMT" font-size="29.0" fill="#000000" transform="matrix(1.00, 0.00, -0.00, -1.00, 442.1, 376.0)">g</text><text xml:space="preserve" font-family="CourierNewPSMT" font-size="29.0" fill="#000000" transform="matrix(1.00, 0.00, -0.00, -1.00, 459.5, 376.0)"> </text><text xml:space="preserve" font-family="CourierNewPS-BoldMT" font-weight="bold" font-size="29.0" fill="#000000" transform="matrix(1.00, 0.00, -0.00, -1.00, 476.8, 376.0)">g</text><text xml:space="preserve" font-family="CourierNewPS-BoldMT" font-weight="bold" font-size="29.0" fill="#000000" transform="matrix(1.00, 0.00, -0.00, -1.00, 494.3, 376.0)">e</text><text xml:space="preserve" font-family="CourierNewPS-BoldMT" font-weight="bold" font-size="29.0" fill="#000000" transform="matrix(1.00, 0.00, -0.00, -1.00, 511.7, 376.0)">t</text><text xml:space="preserve" font-family="CourierNewPS-BoldMT" font-weight="bold" font-size="29.0" fill="#000000" transform="matrix(1.00, 0.00, -0.00, -1.00, 529.1, 376.0)">O</text><text xml:space="preserve" font-family="CourierNewPS-BoldMT" font-weight="bold" font-size="29.0" fill="#000000" transform="matrix(1.00, 0.00, -0.00, -1.00, 546.5, 376.0)">w</text><text xml:space="preserve" font-family="CourierNewPS-BoldMT" font-weight="bold" font-size="29.0" fill="#000000" transform="matrix(1.00, 0.00, -0.00, -1.00, 563.9, 376.0)">n</text><text xml:space="preserve" font-family="CourierNewPS-BoldMT" font-weight="bold" font-size="29.0" fill="#000000" transform="matrix(1.00, 0.00, -0.00, -1.00, 581.3, 376.0)">e</text><text xml:space="preserve" font-family="CourierNewPS-BoldMT" font-weight="bold" font-size="29.0" fill="#000000" transform="matrix(1.00, 0.00, -0.00, -1.00, 598.7, 376.0)">r</text><text xml:space="preserve" font-family="CourierNewPSMT" font-size="29.0" fill="#000000" transform="matrix(1.00, 0.00, -0.00, -1.00, 616.1, 376.0)">(</text><text xml:space="preserve" font-family="CourierNewPSMT" font-size="29.0" fill="#000000" transform="matrix(1.00, 0.00, -0.00, -1.00, 633.5, 376.0)">)</text><text xml:space="preserve" font-family="CourierNewPSMT" font-size="29.0" fill="#000000" transform="matrix(1.00, 0.00, -0.00, -1.00, 650.9, 376.0)">;</text><text xml:space="preserve" font-family="CourierNewPSMT" font-size="29.0" fill="#000000" transform="matrix(1.00, 0.00, -0.00, -1.00, 668.3, 376.0)"> </text><text xml:space="preserve" font-family="CourierNewPSMT" font-size="29.0" fill="#999999" transform="matrix(1.00, 0.00, -0.00, -1.00, 181.0, 343.0)"> </text><text xml:space="preserve" font-family="CourierNewPSMT" font-size="29.0" fill="#999999" transform="matrix(1.00, 0.00, -0.00, -1.00, 198.4, 343.0)"> </text><text xml:space="preserve" font-family="CourierNewPSMT" font-size="29.0" fill="#999999" transform="matrix(1.00, 0.00, -0.00, -1.00, 215.8, 343.0)"> </text><text xml:space="preserve" font-family="CourierNewPSMT" font-size="29.0" fill="#999999" transform="matrix(1.00, 0.00, -0.00, -1.00, 233.2, 343.0)"> </text><text xml:space="preserve" font-family="CourierNewPSMT" font-size="29.0" fill="#999999" transform="matrix(1.00, 0.00, -0.00, -1.00, 250.6, 343.0)">5</text><text xml:space="preserve" font-family="CourierNewPSMT" font-size="29.0" fill="#999999" transform="matrix(1.00, 0.00, -0.00, -1.00, 268.0, 343.0)"> </text><text xml:space="preserve" font-family="CourierNewPSMT" font-size="29.0" fill="#000000" transform="matrix(1.00, 0.00, -0.00, -1.00, 285.4, 343.0)"> </text><text xml:space="preserve" font-family="CourierNewPSMT" font-size="29.0" fill="#000000" transform="matrix(1.00, 0.00, -0.00, -1.00, 302.8, 343.0)"> </text><text xml:space="preserve" font-family="CourierNewPSMT" font-size="29.0" fill="#000000" transform="matrix(1.00, 0.00, -0.00, -1.00, 320.2, 343.0)"> </text><text xml:space="preserve" font-family="CourierNewPSMT" font-size="29.0" fill="#000000" transform="matrix(1.00, 0.00, -0.00, -1.00, 337.6, 343.0)"> </text><text xml:space="preserve" font-family="CourierNewPSMT" font-size="29.0" fill="#0432FF" transform="matrix(1.00, 0.00, -0.00, -1.00, 355.0, 343.0)">i</text><text xml:space="preserve" font-family="CourierNewPSMT" font-size="29.0" fill="#0432FF" transform="matrix(1.00, 0.00, -0.00, -1.00, 372.4, 343.0)">n</text><text xml:space="preserve" font-family="CourierNewPSMT" font-size="29.0" fill="#0432FF" transform="matrix(1.00, 0.00, -0.00, -1.00, 389.8, 343.0)">t</text><text xml:space="preserve" font-family="CourierNewPSMT" font-size="29.0" fill="#000000" transform="matrix(1.00, 0.00, -0.00, -1.00, 407.2, 343.0)"> </text><text xml:space="preserve" font-family="CourierNewPS-BoldMT" font-weight="bold" font-size="29.0" fill="#000000" transform="matrix(1.00, 0.00, -0.00, -1.00, 424.6, 343.0)">g</text><text xml:space="preserve" font-family="CourierNewPS-BoldMT" font-weight="bold" font-size="29.0" fill="#000000" transform="matrix(1.00, 0.00, -0.00, -1.00, 442.0, 343.0)">e</text><text xml:space="preserve" font-family="CourierNewPS-BoldMT" font-weight="bold" font-size="29.0" fill="#000000" transform="matrix(1.00, 0.00, -0.00, -1.00, 459.5, 343.0)">t</text><text xml:space="preserve" font-family="CourierNewPS-BoldMT" font-weight="bold" font-size="29.0" fill="#000000" transform="matrix(1.00, 0.00, -0.00, -1.00, 476.9, 343.0)">B</text><text xml:space="preserve" font-family="CourierNewPS-BoldMT" font-weight="bold" font-size="29.0" fill="#000000" transform="matrix(1.00, 0.00, -0.00, -1.00, 494.3, 343.0)">a</text><text xml:space="preserve" font-family="CourierNewPS-BoldMT" font-weight="bold" font-size="29.0" fill="#000000" transform="matrix(1.00, 0.00, -0.00, -1.00, 511.7, 343.0)">l</text><text xml:space="preserve" font-family="CourierNewPS-BoldMT" font-weight="bold" font-size="29.0" fill="#000000" transform="matrix(1.00, 0.00, -0.00, -1.00, 529.1, 343.0)">a</text><text xml:space="preserve" font-family="CourierNewPS-BoldMT" font-weight="bold" font-size="29.0" fill="#000000" transform="matrix(1.00, 0.00, -0.00, -1.00, 546.5, 343.0)">n</text><text xml:space="preserve" font-family="CourierNewPS-BoldMT" font-weight="bold" font-size="29.0" fill="#000000" transform="matrix(1.00, 0.00, -0.00, -1.00, 563.9, 343.0)">c</text><text xml:space="preserve" font-family="CourierNewPS-BoldMT" font-weight="bold" font-size="29.0" fill="#000000" transform="matrix(1.00, 0.00, -0.00, -1.00, 581.3, 343.0)">e</text><text xml:space="preserve" font-family="CourierNewPSMT" font-size="29.0" fill="#000000" transform="matrix(1.00, 0.00, -0.00, -1.00, 598.7, 343.0)">(</text><text xml:space="preserve" font-family="CourierNewPSMT" font-size="29.0" fill="#000000" transform="matrix(1.00, 0.00, -0.00, -1.00, 616.1, 343.0)">)</text><text xml:space="preserve" font-family="CourierNewPSMT" font-size="29.0" fill="#000000" transform="matrix(1.00, 0.00, -0.00, -1.00, 633.5, 343.0)">;</text><text xml:space="preserve" font-family="CourierNewPSMT" font-size="29.0" fill="#000000" transform="matrix(1.00, 0.00, -0.00, -1.00, 650.9, 343.0)"> </text><text xml:space="preserve" font-family="CourierNewPSMT" font-size="29.0" fill="#999999" transform="matrix(1.00, 0.00, -0.00, -1.00, 181.0, 310.0)"> </text><text xml:space="preserve" font-family="CourierNewPSMT" font-size="29.0" fill="#999999" transform="matrix(1.00, 0.00, -0.00, -1.00, 198.4, 310.0)"> </text><text xml:space="preserve" font-family="CourierNewPSMT" font-size="29.0" fill="#999999" transform="matrix(1.00, 0.00, -0.00, -1.00, 215.8, 310.0)"> </text><text xml:space="preserve" font-family="CourierNewPSMT" font-size="29.0" fill="#999999" transform="matrix(1.00, 0.00, -0.00, -1.00, 233.2, 310.0)"> </text><text xml:space="preserve" font-family="CourierNewPSMT" font-size="29.0" fill="#999999" transform="matrix(1.00, 0.00, -0.00, -1.00, 250.6, 310.0)">6</text><text xml:space="preserve" font-family="CourierNewPSMT" font-size="29.0" fill="#999999" transform="matrix(1.00, 0.00, -0.00, -1.00, 268.0, 310.0)"> </text><text xml:space="preserve" font-family="CourierNewPSMT" font-size="29.0" fill="#000000" transform="matrix(1.00, 0.00, -0.00, -1.00, 285.4, 310.0)">}</text><text xml:space="preserve" font-family="CourierNewPSMT" font-size="29.0" fill="#000000" transform="matrix(1.00, 0.00, -0.00, -1.00, 302.8, 310.0)"> </text></g></svg>