<?xml version="1.0" encoding="UTF-8" standalone="no"?><svg xmlns="http://www.w3.org/2000/svg" xmlns:xlink="http://www.w3.org/1999/xlink" clip-rule="evenodd" stroke-miterlimit="4.00" viewBox="0 0 1024 768"><desc>SVG generated by Keynote</desc><defs></defs><g transform="matrix(1.00, 0.00, -0.00, -1.00, 0.0, 768.0)"><path d="M 0.0 768.0 L 1024.0 768.0 L 1024.0 0.0 L 0.0 0.0 Z M 0.0 768.0 " fill="#FEFFFF"></path><text xml:space="preserve" font-family="Helvetica-Light" font-size="66.4" fill="#000000" transform="matrix(1.00, 0.00, -0.00, -1.00, 189.0, 669.0)">G</text><text xml:space="preserve" font-family="Helvetica-Light" font-size="66.4" fill="#000000" transform="matrix(1.00, 0.00, -0.00, -1.00, 240.7, 669.0)">a</text><text xml:space="preserve" font-family="Helvetica-Light" font-size="66.4" fill="#000000" transform="matrix(1.00, 0.00, -0.00, -1.00, 277.6, 669.0)">m</text><text xml:space="preserve" font-family="Helvetica-Light" font-size="66.4" fill="#000000" transform="matrix(1.00, 0.00, -0.00, -1.00, 332.9, 669.0)">e</text><text xml:space="preserve" font-family="Helvetica-Light" font-size="66.4" fill="#000000" transform="matrix(1.00, 0.00, -0.00, -1.00, 369.8, 669.0)">s</text><text xml:space="preserve" font-family="Helvetica-Light" font-size="66.4" fill="#000000" transform="matrix(1.00, 0.00, -0.00, -1.00, 403.0, 669.0)"> </text><text xml:space="preserve" font-family="Helvetica-Light" font-size="66.4" fill="#000000" transform="matrix(1.00, 0.00, -0.00, -1.00, 421.5, 669.0)">A</text><text xml:space="preserve" font-family="Helvetica-Light" font-size="66.4" fill="#000000" transform="matrix(1.00, 0.00, -0.00, -1.00, 465.8, 669.0)">P</text><text xml:space="preserve" font-family="Helvetica-Light" font-size="66.4" fill="#000000" transform="matrix(1.00, 0.00, -0.00, -1.00, 506.3, 669.0)">I</text><text xml:space="preserve" font-family="Helvetica-Light" font-size="66.4" fill="#000000" transform="matrix(1.00, 0.00, -0.00, -1.00, 524.8, 669.0)">:</text><text xml:space="preserve" font-family="Helvetica-Light" font-size="66.4" fill="#000000" transform="matrix(1.00, 0.00, -0.00, -1.00, 543.2, 669.0)"> </text><text xml:space="preserve" font-family="Helvetica-Light" font-size="66.4" fill="#000000" transform="matrix(1.00, 0.00, -0.00, -1.00, 561.7, 669.0)">V</text><text xml:space="preserve" font-family="Helvetica-Light" font-size="66.4" fill="#000000" transform="matrix(1.00, 0.00, -0.00, -1.00, 598.6, 669.0)">e</text><text xml:space="preserve" font-family="Helvetica-Light" font-size="66.4" fill="#000000" transform="matrix(1.00, 0.00, -0.00, -1.00, 635.5, 669.0)">r</text><text xml:space="preserve" font-family="Helvetica-Light" font-size="66.4" fill="#000000" transform="matrix(1.00, 0.00, -0.00, -1.00, 657.7, 669.0)">s</text><text xml:space="preserve" font-family="Helvetica-Light" font-size="66.4" fill="#000000" transform="matrix(1.00, 0.00, -0.00, -1.00, 690.9, 669.0)">i</text><text xml:space="preserve" font-family="Helvetica-Light" font-size="66.4" fill="#000000" transform="matrix(1.00, 0.00, -0.00, -1.00, 705.6, 669.0)">o</text><text xml:space="preserve" font-family="Helvetica-Light" font-size="66.4" fill="#000000" transform="matrix(1.00, 0.00, -0.00, -1.00, 742.5, 669.0)">n</text><text xml:space="preserve" font-family="Helvetica-Light" font-size="66.4" fill="#000000" transform="matrix(1.00, 0.00, -0.00, -1.00, 779.4, 669.0)"> </text><text xml:space="preserve" font-family="Helvetica-Light" font-size="66.4" fill="#000000" transform="matrix(1.00, 0.00, -0.00, -1.00, 797.9, 669.0)">3</text><image xlink:href="9961162DBAF19676C6D7ED4440A48F4E.png" width="1366.00" height="398.00" transform="matrix(1.34, 0.00, -0.00, -1.35, -812.0, 652.0)"></image><image xlink:href="87FA3EB694E8E934BA28FA8367F7D7B3.png" width="7652.00" height="505.00" transform="matrix(0.24, 0.00, -0.00, -0.24, -811.8, 116.1)"></image><text xml:space="preserve" font-family="Helvetica-Light" font-size="36.0" fill="#000000" transform="matrix(1.00, 0.00, -0.00, -1.00, 225.0, 56.0)">W</text><text xml:space="preserve" font-family="Helvetica-Light" font-size="36.0" fill="#000000" transform="matrix(1.00, 0.00, -0.00, -1.00, 256.4, 56.0)">e</text><text xml:space="preserve" font-family="Helvetica-Light" font-size="36.0" fill="#000000" transform="matrix(1.00, 0.00, -0.00, -1.00, 276.4, 56.0)"> </text><text xml:space="preserve" font-family="Helvetica-Light" font-size="36.0" fill="#000000" transform="matrix(1.00, 0.00, -0.00, -1.00, 286.4, 56.0)">n</text><text xml:space="preserve" font-family="Helvetica-Light" font-size="36.0" fill="#000000" transform="matrix(1.00, 0.00, -0.00, -1.00, 306.4, 56.0)">e</text><text xml:space="preserve" font-family="Helvetica-Light" font-size="36.0" fill="#000000" transform="matrix(1.00, 0.00, -0.00, -1.00, 326.4, 56.0)">e</text><text xml:space="preserve" font-family="Helvetica-Light" font-size="36.0" fill="#000000" transform="matrix(1.00, 0.00, -0.00, -1.00, 346.4, 56.0)">d</text><text xml:space="preserve" font-family="Helvetica-Light" font-size="36.0" fill="#000000" transform="matrix(1.00, 0.00, -0.00, -1.00, 368.4, 56.0)"> </text><text xml:space="preserve" font-family="Helvetica-Light" font-size="36.0" fill="#000000" transform="matrix(1.00, 0.00, -0.00, -1.00, 378.4, 56.0)">t</text><text xml:space="preserve" font-family="Helvetica-Light" font-size="36.0" fill="#000000" transform="matrix(1.00, 0.00, -0.00, -1.00, 388.4, 56.0)">o</text><text xml:space="preserve" font-family="Helvetica-Light" font-size="36.0" fill="#000000" transform="matrix(1.00, 0.00, -0.00, -1.00, 408.5, 56.0)"> </text><text xml:space="preserve" font-family="Helvetica-Light" font-size="36.0" fill="#000000" transform="matrix(1.00, 0.00, -0.00, -1.00, 418.5, 56.0)">r</text><text xml:space="preserve" font-family="Helvetica-Light" font-size="36.0" fill="#000000" transform="matrix(1.00, 0.00, -0.00, -1.00, 429.8, 56.0)">e</text><text xml:space="preserve" font-family="Helvetica-Light" font-size="36.0" fill="#000000" transform="matrix(1.00, 0.00, -0.00, -1.00, 449.8, 56.0)">ﬁ</text><text xml:space="preserve" font-family="Helvetica-Light" font-size="36.0" fill="#000000" transform="matrix(1.00, 0.00, -0.00, -1.00, 467.8, 56.0)">n</text><text xml:space="preserve" font-family="Helvetica-Light" font-size="36.0" fill="#000000" transform="matrix(1.00, 0.00, -0.00, -1.00, 487.8, 56.0)">e</text><text xml:space="preserve" font-family="Helvetica-Light" font-size="36.0" fill="#000000" transform="matrix(1.00, 0.00, -0.00, -1.00, 507.9, 56.0)"> </text><text xml:space="preserve" font-family="Helvetica-Light" font-size="36.0" fill="#000000" transform="matrix(1.00, 0.00, -0.00, -1.00, 517.9, 56.0)">t</text><text xml:space="preserve" font-family="Helvetica-Light" font-size="36.0" fill="#000000" transform="matrix(1.00, 0.00, -0.00, -1.00, 527.9, 56.0)">h</text><text xml:space="preserve" font-family="Helvetica-Light" font-size="36.0" fill="#000000" transform="matrix(1.00, 0.00, -0.00, -1.00, 547.9, 56.0)">i</text><text xml:space="preserve" font-family="Helvetica-Light" font-size="36.0" fill="#000000" transform="matrix(1.00, 0.00, -0.00, -1.00, 555.9, 56.0)">s</text><text xml:space="preserve" font-family="Helvetica-Light" font-size="36.0" fill="#000000" transform="matrix(1.00, 0.00, -0.00, -1.00, 573.9, 56.0)"> </text><text xml:space="preserve" font-family="Helvetica-Light" font-size="36.0" fill="#000000" transform="matrix(1.00, 0.00, -0.00, -1.00, 583.9, 56.0)">s</text><text xml:space="preserve" font-family="Helvetica-Light" font-size="36.0" fill="#000000" transform="matrix(1.00, 0.00, -0.00, -1.00, 601.9, 56.0)">o</text><text xml:space="preserve" font-family="Helvetica-Light" font-size="36.0" fill="#000000" transform="matrix(1.00, 0.00, -0.00, -1.00, 621.9, 56.0)">m</text><text xml:space="preserve" font-family="Helvetica-Light" font-size="36.0" fill="#000000" transform="matrix(1.00, 0.00, -0.00, -1.00, 651.9, 56.0)">e</text><text xml:space="preserve" font-family="Helvetica-Light" font-size="36.0" fill="#000000" transform="matrix(1.00, 0.00, -0.00, -1.00, 671.9, 56.0)"> </text><text xml:space="preserve" font-family="Helvetica-Light" font-size="36.0" fill="#000000" transform="matrix(1.00, 0.00, -0.00, -1.00, 681.9, 56.0)">m</text><text xml:space="preserve" font-family="Helvetica-Light" font-size="36.0" fill="#000000" transform="matrix(1.00, 0.00, -0.00, -1.00, 711.9, 56.0)">o</text><text xml:space="preserve" font-family="Helvetica-Light" font-size="36.0" fill="#000000" transform="matrix(1.00, 0.00, -0.00, -1.00, 731.9, 56.0)">r</text><text xml:space="preserve" font-family="Helvetica-Light" font-size="36.0" fill="#000000" transform="matrix(1.00, 0.00, -0.00, -1.00, 743.3, 56.0)">e</text><text xml:space="preserve" font-family="Helvetica-Light" font-size="36.0" fill="#000000" transform="matrix(1.00, 0.00, -0.00, -1.00, 763.3, 56.0)">…</text></g></svg>