<?xml version="1.0" encoding="UTF-8" standalone="no"?><svg xmlns="http://www.w3.org/2000/svg" xmlns:xlink="http://www.w3.org/1999/xlink" clip-rule="evenodd" stroke-miterlimit="4.00" viewBox="0 0 416 103"><desc>SVG generated by Keynote</desc><defs></defs><g transform="matrix(1.00, 0.00, -0.00, -1.00, 0.0, 103.0)"><text xml:space="preserve" font-family="Helvetica-Light" font-size="22.0" fill="#000000" transform="matrix(1.00, 0.00, -0.00, -1.00, 2.0, 85.0)">{</text><text xml:space="preserve" font-family="Helvetica-Light" font-size="22.0" fill="#000000" transform="matrix(1.00, 0.00, -0.00, -1.00, 9.3, 85.0)">o</text><text xml:space="preserve" font-family="Helvetica-Light" font-size="22.0" fill="#000000" transform="matrix(1.00, 0.00, -0.00, -1.00, 21.6, 85.0)">w</text><text xml:space="preserve" font-family="Helvetica-Light" font-size="22.0" fill="#000000" transform="matrix(1.00, 0.00, -0.00, -1.00, 37.4, 85.0)">n</text><text xml:space="preserve" font-family="Helvetica-Light" font-size="22.0" fill="#000000" transform="matrix(1.00, 0.00, -0.00, -1.00, 49.7, 85.0)">e</text><text xml:space="preserve" font-family="Helvetica-Light" font-size="22.0" fill="#000000" transform="matrix(1.00, 0.00, -0.00, -1.00, 61.9, 85.0)">r</text><text xml:space="preserve" font-family="Helvetica-Light" font-size="22.0" fill="#000000" transform="matrix(1.00, 0.00, -0.00, -1.00, 69.2, 85.0)">=</text><text xml:space="preserve" font-family="Helvetica-Light" font-size="22.0" fill="#000000" transform="matrix(1.00, 0.00, -0.00, -1.00, 83.8, 85.0)">M</text><text xml:space="preserve" font-family="Helvetica-Light" font-size="22.0" fill="#000000" transform="matrix(1.00, 0.00, -0.00, -1.00, 102.1, 85.0)">a</text><text xml:space="preserve" font-family="Helvetica-Light" font-size="22.0" fill="#000000" transform="matrix(1.00, 0.00, -0.00, -1.00, 114.3, 85.0)">r</text><text xml:space="preserve" font-family="Helvetica-Light" font-size="22.0" fill="#000000" transform="matrix(1.00, 0.00, -0.00, -1.00, 121.6, 85.0)">k</text><text xml:space="preserve" font-family="Helvetica-Light" font-size="22.0" fill="#000000" transform="matrix(1.00, 0.00, -0.00, -1.00, 132.6, 85.0)">,</text><text xml:space="preserve" font-family="Helvetica-Light" font-size="22.0" fill="#000000" transform="matrix(1.00, 0.00, -0.00, -1.00, 138.8, 85.0)"> </text><text xml:space="preserve" font-family="Helvetica-Light" font-size="22.0" fill="#000000" transform="matrix(1.00, 0.00, -0.00, -1.00, 144.9, 85.0)">b</text><text xml:space="preserve" font-family="Helvetica-Light" font-size="22.0" fill="#000000" transform="matrix(1.00, 0.00, -0.00, -1.00, 158.3, 85.0)">a</text><text xml:space="preserve" font-family="Helvetica-Light" font-size="22.0" fill="#000000" transform="matrix(1.00, 0.00, -0.00, -1.00, 170.5, 85.0)">l</text><text xml:space="preserve" font-family="Helvetica-Light" font-size="22.0" fill="#000000" transform="matrix(1.00, 0.00, -0.00, -1.00, 175.4, 85.0)">a</text><text xml:space="preserve" font-family="Helvetica-Light" font-size="22.0" fill="#000000" transform="matrix(1.00, 0.00, -0.00, -1.00, 187.7, 85.0)">n</text><text xml:space="preserve" font-family="Helvetica-Light" font-size="22.0" fill="#000000" transform="matrix(1.00, 0.00, -0.00, -1.00, 199.9, 85.0)">c</text><text xml:space="preserve" font-family="Helvetica-Light" font-size="22.0" fill="#000000" transform="matrix(1.00, 0.00, -0.00, -1.00, 212.1, 85.0)">e</text><text xml:space="preserve" font-family="Helvetica-Light" font-size="22.0" fill="#000000" transform="matrix(1.00, 0.00, -0.00, -1.00, 224.4, 85.0)">=</text><text xml:space="preserve" font-family="Helvetica-Light" font-size="22.0" fill="#000000" transform="matrix(1.00, 0.00, -0.00, -1.00, 238.9, 85.0)">1</text><text xml:space="preserve" font-family="Helvetica-Light" font-size="22.0" fill="#000000" transform="matrix(1.00, 0.00, -0.00, -1.00, 251.1, 85.0)">0</text><text xml:space="preserve" font-family="Helvetica-Light" font-size="22.0" fill="#000000" transform="matrix(1.00, 0.00, -0.00, -1.00, 263.3, 85.0)">0</text><text xml:space="preserve" font-family="Helvetica-Light" font-size="22.0" fill="#000000" transform="matrix(1.00, 0.00, -0.00, -1.00, 275.6, 85.0)">0</text><text xml:space="preserve" font-family="Helvetica-Light" font-size="22.0" fill="#000000" transform="matrix(1.00, 0.00, -0.00, -1.00, 287.8, 85.0)">0</text><text xml:space="preserve" font-family="Helvetica-Light" font-size="22.0" fill="#000000" transform="matrix(1.00, 0.00, -0.00, -1.00, 300.0, 85.0)">0</text><text xml:space="preserve" font-family="Helvetica-Light" font-size="22.0" fill="#000000" transform="matrix(1.00, 0.00, -0.00, -1.00, 312.3, 85.0)">0</text><text xml:space="preserve" font-family="Helvetica-Light" font-size="22.0" fill="#000000" transform="matrix(1.00, 0.00, -0.00, -1.00, 324.5, 85.0)">}</text><text xml:space="preserve" font-family="Helvetica-Light" font-size="22.0" fill="#000000" transform="matrix(1.00, 0.00, -0.00, -1.00, 331.8, 85.0)"> </text><text xml:space="preserve" font-family="Helvetica-Light" font-size="22.0" fill="#000000" transform="matrix(1.00, 0.00, -0.00, -1.00, 2.0, 59.0)">{</text><text xml:space="preserve" font-family="Helvetica-Light" font-size="22.0" fill="#000000" transform="matrix(1.00, 0.00, -0.00, -1.00, 9.3, 59.0)">o</text><text xml:space="preserve" font-family="Helvetica-Light" font-size="22.0" fill="#000000" transform="matrix(1.00, 0.00, -0.00, -1.00, 21.6, 59.0)">w</text><text xml:space="preserve" font-family="Helvetica-Light" font-size="22.0" fill="#000000" transform="matrix(1.00, 0.00, -0.00, -1.00, 37.4, 59.0)">n</text><text xml:space="preserve" font-family="Helvetica-Light" font-size="22.0" fill="#000000" transform="matrix(1.00, 0.00, -0.00, -1.00, 49.7, 59.0)">e</text><text xml:space="preserve" font-family="Helvetica-Light" font-size="22.0" fill="#000000" transform="matrix(1.00, 0.00, -0.00, -1.00, 61.9, 59.0)">r</text><text xml:space="preserve" font-family="Helvetica-Light" font-size="22.0" fill="#000000" transform="matrix(1.00, 0.00, -0.00, -1.00, 69.2, 59.0)">=</text><text xml:space="preserve" font-family="Helvetica-Light" font-size="22.0" fill="#000000" transform="matrix(1.00, 0.00, -0.00, -1.00, 83.8, 59.0)">M</text><text xml:space="preserve" font-family="Helvetica-Light" font-size="22.0" fill="#000000" transform="matrix(1.00, 0.00, -0.00, -1.00, 102.1, 59.0)">a</text><text xml:space="preserve" font-family="Helvetica-Light" font-size="22.0" fill="#000000" transform="matrix(1.00, 0.00, -0.00, -1.00, 114.3, 59.0)">r</text><text xml:space="preserve" font-family="Helvetica-Light" font-size="22.0" fill="#000000" transform="matrix(1.00, 0.00, -0.00, -1.00, 121.6, 59.0)">k</text><text xml:space="preserve" font-family="Helvetica-Light" font-size="22.0" fill="#000000" transform="matrix(1.00, 0.00, -0.00, -1.00, 132.6, 59.0)">,</text><text xml:space="preserve" font-family="Helvetica-Light" font-size="22.0" fill="#000000" transform="matrix(1.00, 0.00, -0.00, -1.00, 138.8, 59.0)"> </text><text xml:space="preserve" font-family="Helvetica-Light" font-size="22.0" fill="#000000" transform="matrix(1.00, 0.00, -0.00, -1.00, 144.9, 59.0)">b</text><text xml:space="preserve" font-family="Helvetica-Light" font-size="22.0" fill="#000000" transform="matrix(1.00, 0.00, -0.00, -1.00, 158.3, 59.0)">a</text><text xml:space="preserve" font-family="Helvetica-Light" font-size="22.0" fill="#000000" transform="matrix(1.00, 0.00, -0.00, -1.00, 170.5, 59.0)">l</text><text xml:space="preserve" font-family="Helvetica-Light" font-size="22.0" fill="#000000" transform="matrix(1.00, 0.00, -0.00, -1.00, 175.4, 59.0)">a</text><text xml:space="preserve" font-family="Helvetica-Light" font-size="22.0" fill="#000000" transform="matrix(1.00, 0.00, -0.00, -1.00, 187.7, 59.0)">n</text><text xml:space="preserve" font-family="Helvetica-Light" font-size="22.0" fill="#000000" transform="matrix(1.00, 0.00, -0.00, -1.00, 199.9, 59.0)">c</text><text xml:space="preserve" font-family="Helvetica-Light" font-size="22.0" fill="#000000" transform="matrix(1.00, 0.00, -0.00, -1.00, 212.1, 59.0)">e</text><text xml:space="preserve" font-family="Helvetica-Light" font-size="22.0" fill="#000000" transform="matrix(1.00, 0.00, -0.00, -1.00, 224.4, 59.0)">=</text><text xml:space="preserve" font-family="Helvetica-Light" font-size="22.0" fill="#000000" transform="matrix(1.00, 0.00, -0.00, -1.00, 238.9, 59.0)">1</text><text xml:space="preserve" font-family="Helvetica-Light" font-size="22.0" fill="#000000" transform="matrix(1.00, 0.00, -0.00, -1.00, 251.1, 59.0)">0</text><text xml:space="preserve" font-family="Helvetica-Light" font-size="22.0" fill="#000000" transform="matrix(1.00, 0.00, -0.00, -1.00, 263.3, 59.0)">0</text><text xml:space="preserve" font-family="Helvetica-Light" font-size="22.0" fill="#000000" transform="matrix(1.00, 0.00, -0.00, -1.00, 275.6, 59.0)">0</text><text xml:space="preserve" font-family="Helvetica-Light" font-size="22.0" fill="#000000" transform="matrix(1.00, 0.00, -0.00, -1.00, 287.8, 59.0)">0</text><text xml:space="preserve" font-family="Helvetica-Light" font-size="22.0" fill="#000000" transform="matrix(1.00, 0.00, -0.00, -1.00, 300.0, 59.0)">0</text><text xml:space="preserve" font-family="Helvetica-Light" font-size="22.0" fill="#000000" transform="matrix(1.00, 0.00, -0.00, -1.00, 312.3, 59.0)">0</text><text xml:space="preserve" font-family="Helvetica-Light" font-size="22.0" fill="#000000" transform="matrix(1.00, 0.00, -0.00, -1.00, 324.5, 59.0)">}</text><text xml:space="preserve" font-family="Helvetica-Light" font-size="22.0" fill="#000000" transform="matrix(1.00, 0.00, -0.00, -1.00, 331.8, 59.0)"> </text><text xml:space="preserve" font-family="Helvetica-Light" font-size="22.0" fill="#000000" transform="matrix(1.00, 0.00, -0.00, -1.00, 2.0, 33.0)">{</text><text xml:space="preserve" font-family="Helvetica-Light" font-size="22.0" fill="#000000" transform="matrix(1.00, 0.00, -0.00, -1.00, 9.3, 33.0)">"</text><text xml:space="preserve" font-family="Helvetica-Light" font-size="22.0" fill="#000000" transform="matrix(1.00, 0.00, -0.00, -1.00, 15.4, 33.0)">o</text><text xml:space="preserve" font-family="Helvetica-Light" font-size="22.0" fill="#000000" transform="matrix(1.00, 0.00, -0.00, -1.00, 27.7, 33.0)">w</text><text xml:space="preserve" font-family="Helvetica-Light" font-size="22.0" fill="#000000" transform="matrix(1.00, 0.00, -0.00, -1.00, 43.6, 33.0)">n</text><text xml:space="preserve" font-family="Helvetica-Light" font-size="22.0" fill="#000000" transform="matrix(1.00, 0.00, -0.00, -1.00, 55.8, 33.0)">e</text><text xml:space="preserve" font-family="Helvetica-Light" font-size="22.0" fill="#000000" transform="matrix(1.00, 0.00, -0.00, -1.00, 68.0, 33.0)">r</text><text xml:space="preserve" font-family="Helvetica-Light" font-size="22.0" fill="#000000" transform="matrix(1.00, 0.00, -0.00, -1.00, 75.3, 33.0)">"</text><text xml:space="preserve" font-family="Helvetica-Light" font-size="22.0" fill="#000000" transform="matrix(1.00, 0.00, -0.00, -1.00, 81.5, 33.0)"> </text><text xml:space="preserve" font-family="Helvetica-Light" font-size="22.0" fill="#000000" transform="matrix(1.00, 0.00, -0.00, -1.00, 87.6, 33.0)">"</text><text xml:space="preserve" font-family="Helvetica-Light" font-size="22.0" fill="#000000" transform="matrix(1.00, 0.00, -0.00, -1.00, 93.7, 33.0)">M</text><text xml:space="preserve" font-family="Helvetica-Light" font-size="22.0" fill="#000000" transform="matrix(1.00, 0.00, -0.00, -1.00, 112.0, 33.0)">a</text><text xml:space="preserve" font-family="Helvetica-Light" font-size="22.0" fill="#000000" transform="matrix(1.00, 0.00, -0.00, -1.00, 124.3, 33.0)">r</text><text xml:space="preserve" font-family="Helvetica-Light" font-size="22.0" fill="#000000" transform="matrix(1.00, 0.00, -0.00, -1.00, 131.6, 33.0)">k</text><text xml:space="preserve" font-family="Helvetica-Light" font-size="22.0" fill="#000000" transform="matrix(1.00, 0.00, -0.00, -1.00, 142.6, 33.0)">"</text><text xml:space="preserve" font-family="Helvetica-Light" font-size="22.0" fill="#000000" transform="matrix(1.00, 0.00, -0.00, -1.00, 148.7, 33.0)">,</text><text xml:space="preserve" font-family="Helvetica-Light" font-size="22.0" fill="#000000" transform="matrix(1.00, 0.00, -0.00, -1.00, 154.8, 33.0)"> </text><text xml:space="preserve" font-family="Helvetica-Light" font-size="22.0" fill="#000000" transform="matrix(1.00, 0.00, -0.00, -1.00, 160.9, 33.0)">"</text><text xml:space="preserve" font-family="Helvetica-Light" font-size="22.0" fill="#000000" transform="matrix(1.00, 0.00, -0.00, -1.00, 167.0, 33.0)">b</text><text xml:space="preserve" font-family="Helvetica-Light" font-size="22.0" fill="#000000" transform="matrix(1.00, 0.00, -0.00, -1.00, 180.5, 33.0)">a</text><text xml:space="preserve" font-family="Helvetica-Light" font-size="22.0" fill="#000000" transform="matrix(1.00, 0.00, -0.00, -1.00, 192.7, 33.0)">l</text><text xml:space="preserve" font-family="Helvetica-Light" font-size="22.0" fill="#000000" transform="matrix(1.00, 0.00, -0.00, -1.00, 197.6, 33.0)">a</text><text xml:space="preserve" font-family="Helvetica-Light" font-size="22.0" fill="#000000" transform="matrix(1.00, 0.00, -0.00, -1.00, 209.8, 33.0)">n</text><text xml:space="preserve" font-family="Helvetica-Light" font-size="22.0" fill="#000000" transform="matrix(1.00, 0.00, -0.00, -1.00, 222.1, 33.0)">c</text><text xml:space="preserve" font-family="Helvetica-Light" font-size="22.0" fill="#000000" transform="matrix(1.00, 0.00, -0.00, -1.00, 234.3, 33.0)">e</text><text xml:space="preserve" font-family="Helvetica-Light" font-size="22.0" fill="#000000" transform="matrix(1.00, 0.00, -0.00, -1.00, 246.5, 33.0)">"</text><text xml:space="preserve" font-family="Helvetica-Light" font-size="22.0" fill="#000000" transform="matrix(1.00, 0.00, -0.00, -1.00, 252.6, 33.0)"> </text><text xml:space="preserve" font-family="Helvetica-Light" font-size="22.0" fill="#000000" transform="matrix(1.00, 0.00, -0.00, -1.00, 258.8, 33.0)">1</text><text xml:space="preserve" font-family="Helvetica-Light" font-size="22.0" fill="#000000" transform="matrix(1.00, 0.00, -0.00, -1.00, 271.0, 33.0)">0</text><text xml:space="preserve" font-family="Helvetica-Light" font-size="22.0" fill="#000000" transform="matrix(1.00, 0.00, -0.00, -1.00, 283.2, 33.0)">0</text><text xml:space="preserve" font-family="Helvetica-Light" font-size="22.0" fill="#000000" transform="matrix(1.00, 0.00, -0.00, -1.00, 295.5, 33.0)">0</text><text xml:space="preserve" font-family="Helvetica-Light" font-size="22.0" fill="#000000" transform="matrix(1.00, 0.00, -0.00, -1.00, 307.7, 33.0)">0</text><text xml:space="preserve" font-family="Helvetica-Light" font-size="22.0" fill="#000000" transform="matrix(1.00, 0.00, -0.00, -1.00, 319.9, 33.0)">0</text><text xml:space="preserve" font-family="Helvetica-Light" font-size="22.0" fill="#000000" transform="matrix(1.00, 0.00, -0.00, -1.00, 332.2, 33.0)">0</text><text xml:space="preserve" font-family="Helvetica-Light" font-size="22.0" fill="#000000" transform="matrix(1.00, 0.00, -0.00, -1.00, 344.4, 33.0)">}</text><text xml:space="preserve" font-family="Helvetica-Light" font-size="22.0" fill="#000000" transform="matrix(1.00, 0.00, -0.00, -1.00, 351.7, 33.0)"> </text><text xml:space="preserve" font-family="Helvetica-Light" font-size="22.0" fill="#000000" transform="matrix(1.00, 0.00, -0.00, -1.00, 2.0, 7.0)">M</text><text xml:space="preserve" font-family="Helvetica-Light" font-size="22.0" fill="#000000" transform="matrix(1.00, 0.00, -0.00, -1.00, 20.3, 7.0)">a</text><text xml:space="preserve" font-family="Helvetica-Light" font-size="22.0" fill="#000000" transform="matrix(1.00, 0.00, -0.00, -1.00, 32.6, 7.0)">p</text><text xml:space="preserve" font-family="Helvetica-Light" font-size="22.0" fill="#000000" transform="matrix(1.00, 0.00, -0.00, -1.00, 46.0, 7.0)">(</text><text xml:space="preserve" font-family="Helvetica-Light" font-size="22.0" fill="#000000" transform="matrix(1.00, 0.00, -0.00, -1.00, 53.3, 7.0)">b</text><text xml:space="preserve" font-family="Helvetica-Light" font-size="22.0" fill="#000000" transform="matrix(1.00, 0.00, -0.00, -1.00, 66.8, 7.0)">a</text><text xml:space="preserve" font-family="Helvetica-Light" font-size="22.0" fill="#000000" transform="matrix(1.00, 0.00, -0.00, -1.00, 79.0, 7.0)">l</text><text xml:space="preserve" font-family="Helvetica-Light" font-size="22.0" fill="#000000" transform="matrix(1.00, 0.00, -0.00, -1.00, 83.9, 7.0)">a</text><text xml:space="preserve" font-family="Helvetica-Light" font-size="22.0" fill="#000000" transform="matrix(1.00, 0.00, -0.00, -1.00, 96.1, 7.0)">n</text><text xml:space="preserve" font-family="Helvetica-Light" font-size="22.0" fill="#000000" transform="matrix(1.00, 0.00, -0.00, -1.00, 108.3, 7.0)">c</text><text xml:space="preserve" font-family="Helvetica-Light" font-size="22.0" fill="#000000" transform="matrix(1.00, 0.00, -0.00, -1.00, 120.6, 7.0)">e</text><text xml:space="preserve" font-family="Helvetica-Light" font-size="22.0" fill="#000000" transform="matrix(1.00, 0.00, -0.00, -1.00, 132.8, 7.0)"> </text><text xml:space="preserve" font-family="Helvetica-Light" font-size="22.0" fill="#000000" transform="matrix(1.00, 0.00, -0.00, -1.00, 138.9, 7.0)">-</text><text xml:space="preserve" font-family="Helvetica-Light" font-size="22.0" fill="#000000" transform="matrix(1.00, 0.00, -0.00, -1.00, 146.3, 7.0)">&gt;</text><text xml:space="preserve" font-family="Helvetica-Light" font-size="22.0" fill="#000000" transform="matrix(1.00, 0.00, -0.00, -1.00, 160.8, 7.0)"> </text><text xml:space="preserve" font-family="Helvetica-Light" font-size="22.0" fill="#000000" transform="matrix(1.00, 0.00, -0.00, -1.00, 166.9, 7.0)">1</text><text xml:space="preserve" font-family="Helvetica-Light" font-size="22.0" fill="#000000" transform="matrix(1.00, 0.00, -0.00, -1.00, 179.1, 7.0)">0</text><text xml:space="preserve" font-family="Helvetica-Light" font-size="22.0" fill="#000000" transform="matrix(1.00, 0.00, -0.00, -1.00, 191.4, 7.0)">0</text><text xml:space="preserve" font-family="Helvetica-Light" font-size="22.0" fill="#000000" transform="matrix(1.00, 0.00, -0.00, -1.00, 203.6, 7.0)">0</text><text xml:space="preserve" font-family="Helvetica-Light" font-size="22.0" fill="#000000" transform="matrix(1.00, 0.00, -0.00, -1.00, 215.8, 7.0)">0</text><text xml:space="preserve" font-family="Helvetica-Light" font-size="22.0" fill="#000000" transform="matrix(1.00, 0.00, -0.00, -1.00, 228.0, 7.0)">0</text><text xml:space="preserve" font-family="Helvetica-Light" font-size="22.0" fill="#000000" transform="matrix(1.00, 0.00, -0.00, -1.00, 240.3, 7.0)">0</text><text xml:space="preserve" font-family="Helvetica-Light" font-size="22.0" fill="#000000" transform="matrix(1.00, 0.00, -0.00, -1.00, 252.5, 7.0)">,</text><text xml:space="preserve" font-family="Helvetica-Light" font-size="22.0" fill="#000000" transform="matrix(1.00, 0.00, -0.00, -1.00, 258.6, 7.0)"> </text><text xml:space="preserve" font-family="Helvetica-Light" font-size="22.0" fill="#000000" transform="matrix(1.00, 0.00, -0.00, -1.00, 264.7, 7.0)">o</text><text xml:space="preserve" font-family="Helvetica-Light" font-size="22.0" fill="#000000" transform="matrix(1.00, 0.00, -0.00, -1.00, 277.0, 7.0)">w</text><text xml:space="preserve" font-family="Helvetica-Light" font-size="22.0" fill="#000000" transform="matrix(1.00, 0.00, -0.00, -1.00, 292.9, 7.0)">n</text><text xml:space="preserve" font-family="Helvetica-Light" font-size="22.0" fill="#000000" transform="matrix(1.00, 0.00, -0.00, -1.00, 305.1, 7.0)">e</text><text xml:space="preserve" font-family="Helvetica-Light" font-size="22.0" fill="#000000" transform="matrix(1.00, 0.00, -0.00, -1.00, 317.3, 7.0)">r</text><text xml:space="preserve" font-family="Helvetica-Light" font-size="22.0" fill="#000000" transform="matrix(1.00, 0.00, -0.00, -1.00, 324.7, 7.0)"> </text><text xml:space="preserve" font-family="Helvetica-Light" font-size="22.0" fill="#000000" transform="matrix(1.00, 0.00, -0.00, -1.00, 330.8, 7.0)">-</text><text xml:space="preserve" font-family="Helvetica-Light" font-size="22.0" fill="#000000" transform="matrix(1.00, 0.00, -0.00, -1.00, 338.1, 7.0)">&gt;</text><text xml:space="preserve" font-family="Helvetica-Light" font-size="22.0" fill="#000000" transform="matrix(1.00, 0.00, -0.00, -1.00, 352.6, 7.0)"> </text><text xml:space="preserve" font-family="Helvetica-Light" font-size="22.0" fill="#000000" transform="matrix(1.00, 0.00, -0.00, -1.00, 358.7, 7.0)">M</text><text xml:space="preserve" font-family="Helvetica-Light" font-size="22.0" fill="#000000" transform="matrix(1.00, 0.00, -0.00, -1.00, 377.1, 7.0)">a</text><text xml:space="preserve" font-family="Helvetica-Light" font-size="22.0" fill="#000000" transform="matrix(1.00, 0.00, -0.00, -1.00, 389.3, 7.0)">r</text><text xml:space="preserve" font-family="Helvetica-Light" font-size="22.0" fill="#000000" transform="matrix(1.00, 0.00, -0.00, -1.00, 396.6, 7.0)">k</text><text xml:space="preserve" font-family="Helvetica-Light" font-size="22.0" fill="#000000" transform="matrix(1.00, 0.00, -0.00, -1.00, 407.6, 7.0)">)</text></g></svg>