<?xml version="1.0" encoding="UTF-8" standalone="no"?><svg xmlns="http://www.w3.org/2000/svg" xmlns:xlink="http://www.w3.org/1999/xlink" clip-rule="evenodd" stroke-miterlimit="4.00" viewBox="0 0 858 58"><desc>SVG generated by Keynote</desc><defs></defs><g transform="matrix(1.00, 0.00, -0.00, -1.00, 0.0, 58.0)"><text xml:space="preserve" font-family="Helvetica-Light" font-size="72.8" fill="#000000" transform="matrix(1.00, 0.00, -0.00, -1.00, 0.0, 3.0)">A</text><text xml:space="preserve" font-family="Helvetica-Light" font-size="72.8" fill="#000000" transform="matrix(1.00, 0.00, -0.00, -1.00, 48.6, 3.0)">l</text><text xml:space="preserve" font-family="Helvetica-Light" font-size="72.8" fill="#000000" transform="matrix(1.00, 0.00, -0.00, -1.00, 64.7, 3.0)">t</text><text xml:space="preserve" font-family="Helvetica-Light" font-size="72.8" fill="#000000" transform="matrix(1.00, 0.00, -0.00, -1.00, 85.0, 3.0)">e</text><text xml:space="preserve" font-family="Helvetica-Light" font-size="72.8" fill="#000000" transform="matrix(1.00, 0.00, -0.00, -1.00, 125.4, 3.0)">r</text><text xml:space="preserve" font-family="Helvetica-Light" font-size="72.8" fill="#000000" transform="matrix(1.00, 0.00, -0.00, -1.00, 151.0, 3.0)">n</text><text xml:space="preserve" font-family="Helvetica-Light" font-size="72.8" fill="#000000" transform="matrix(1.00, 0.00, -0.00, -1.00, 191.5, 3.0)">a</text><text xml:space="preserve" font-family="Helvetica-Light" font-size="72.8" fill="#000000" transform="matrix(1.00, 0.00, -0.00, -1.00, 231.9, 3.0)">t</text><text xml:space="preserve" font-family="Helvetica-Light" font-size="72.8" fill="#000000" transform="matrix(1.00, 0.00, -0.00, -1.00, 252.2, 3.0)">e</text><text xml:space="preserve" font-family="Helvetica-Light" font-size="72.8" fill="#000000" transform="matrix(1.00, 0.00, -0.00, -1.00, 292.7, 3.0)"> </text><text xml:space="preserve" font-family="Helvetica-Light" font-size="72.8" fill="#000000" transform="matrix(1.00, 0.00, -0.00, -1.00, 312.9, 3.0)">I</text><text xml:space="preserve" font-family="Helvetica-Light" font-size="72.8" fill="#000000" transform="matrix(1.00, 0.00, -0.00, -1.00, 333.1, 3.0)">d</text><text xml:space="preserve" font-family="Helvetica-Light" font-size="72.8" fill="#000000" transform="matrix(1.00, 0.00, -0.00, -1.00, 377.6, 3.0)">e</text><text xml:space="preserve" font-family="Helvetica-Light" font-size="72.8" fill="#000000" transform="matrix(1.00, 0.00, -0.00, -1.00, 418.1, 3.0)">a</text><text xml:space="preserve" font-family="Helvetica-Light" font-size="72.8" fill="#000000" transform="matrix(1.00, 0.00, -0.00, -1.00, 458.6, 3.0)">:</text><text xml:space="preserve" font-family="Helvetica-Light" font-size="72.8" fill="#000000" transform="matrix(1.00, 0.00, -0.00, -1.00, 478.8, 3.0)"> </text><text xml:space="preserve" font-family="Helvetica-Light" font-size="72.8" fill="#000000" transform="matrix(1.00, 0.00, -0.00, -1.00, 499.0, 3.0)">C</text><text xml:space="preserve" font-family="Helvetica-Light" font-size="72.8" fill="#000000" transform="matrix(1.00, 0.00, -0.00, -1.00, 551.6, 3.0)">o</text><text xml:space="preserve" font-family="Helvetica-Light" font-size="72.8" fill="#000000" transform="matrix(1.00, 0.00, -0.00, -1.00, 592.1, 3.0)">l</text><text xml:space="preserve" font-family="Helvetica-Light" font-size="72.8" fill="#000000" transform="matrix(1.00, 0.00, -0.00, -1.00, 608.2, 3.0)">l</text><text xml:space="preserve" font-family="Helvetica-Light" font-size="72.8" fill="#000000" transform="matrix(1.00, 0.00, -0.00, -1.00, 624.4, 3.0)">e</text><text xml:space="preserve" font-family="Helvetica-Light" font-size="72.8" fill="#000000" transform="matrix(1.00, 0.00, -0.00, -1.00, 664.9, 3.0)">c</text><text xml:space="preserve" font-family="Helvetica-Light" font-size="72.8" fill="#000000" transform="matrix(1.00, 0.00, -0.00, -1.00, 705.4, 3.0)">t</text><text xml:space="preserve" font-family="Helvetica-Light" font-size="72.8" fill="#000000" transform="matrix(1.00, 0.00, -0.00, -1.00, 725.6, 3.0)">i</text><text xml:space="preserve" font-family="Helvetica-Light" font-size="72.8" fill="#000000" transform="matrix(1.00, 0.00, -0.00, -1.00, 741.8, 3.0)">o</text><text xml:space="preserve" font-family="Helvetica-Light" font-size="72.8" fill="#000000" transform="matrix(1.00, 0.00, -0.00, -1.00, 782.2, 3.0)">n</text><text xml:space="preserve" font-family="Helvetica-Light" font-size="72.8" fill="#000000" transform="matrix(1.00, 0.00, -0.00, -1.00, 822.7, 3.0)">s</text></g></svg>