<?xml version="1.0" encoding="UTF-8" standalone="no"?><svg xmlns="http://www.w3.org/2000/svg" xmlns:xlink="http://www.w3.org/1999/xlink" clip-rule="evenodd" stroke-miterlimit="4.00" viewBox="0 0 1024 768"><desc>SVG generated by Keynote</desc><defs></defs><g transform="matrix(1.00, 0.00, -0.00, -1.00, 0.0, 768.0)"><path d="M 0.0 768.0 L 1024.0 768.0 L 1024.0 0.0 L 0.0 0.0 Z M 0.0 768.0 " fill="#FEFFFF"></path><text xml:space="preserve" font-family="Helvetica-Light" font-size="80.0" fill="#000000" transform="matrix(1.00, 0.00, -0.00, -1.00, 339.0, 670.0)">A</text><text xml:space="preserve" font-family="Helvetica-Light" font-size="80.0" fill="#000000" transform="matrix(1.00, 0.00, -0.00, -1.00, 392.4, 670.0)">b</text><text xml:space="preserve" font-family="Helvetica-Light" font-size="80.0" fill="#000000" transform="matrix(1.00, 0.00, -0.00, -1.00, 441.2, 670.0)">o</text><text xml:space="preserve" font-family="Helvetica-Light" font-size="80.0" fill="#000000" transform="matrix(1.00, 0.00, -0.00, -1.00, 485.7, 670.0)">u</text><text xml:space="preserve" font-family="Helvetica-Light" font-size="80.0" fill="#000000" transform="matrix(1.00, 0.00, -0.00, -1.00, 530.2, 670.0)">t</text><text xml:space="preserve" font-family="Helvetica-Light" font-size="80.0" fill="#000000" transform="matrix(1.00, 0.00, -0.00, -1.00, 552.4, 670.0)"> </text><text xml:space="preserve" font-family="Helvetica-Light" font-size="80.0" fill="#000000" transform="matrix(1.00, 0.00, -0.00, -1.00, 574.7, 670.0)">M</text><text xml:space="preserve" font-family="Helvetica-Light" font-size="80.0" fill="#000000" transform="matrix(1.00, 0.00, -0.00, -1.00, 641.3, 670.0)">e</text><text xml:space="preserve" font-family="Helvetica-Light" font-size="21.6" fill="#000000" transform="matrix(1.00, 0.00, -0.00, -1.00, 79.0, 595.2)">•</text><text xml:space="preserve" font-family="Helvetica-Light" font-size="28.8" fill="#000000" transform="matrix(1.00, 0.00, -0.00, -1.00, 107.0, 592.0)">M</text><text xml:space="preserve" font-family="Helvetica-Light" font-size="28.8" fill="#000000" transform="matrix(1.00, 0.00, -0.00, -1.00, 131.0, 592.0)">e</text><text xml:space="preserve" font-family="Helvetica-Light" font-size="28.8" fill="#000000" transform="matrix(1.00, 0.00, -0.00, -1.00, 147.0, 592.0)">c</text><text xml:space="preserve" font-family="Helvetica-Light" font-size="28.8" fill="#000000" transform="matrix(1.00, 0.00, -0.00, -1.00, 163.0, 592.0)">h</text><text xml:space="preserve" font-family="Helvetica-Light" font-size="28.8" fill="#000000" transform="matrix(1.00, 0.00, -0.00, -1.00, 179.0, 592.0)">a</text><text xml:space="preserve" font-family="Helvetica-Light" font-size="28.8" fill="#000000" transform="matrix(1.00, 0.00, -0.00, -1.00, 195.0, 592.0)">n</text><text xml:space="preserve" font-family="Helvetica-Light" font-size="28.8" fill="#000000" transform="matrix(1.00, 0.00, -0.00, -1.00, 211.1, 592.0)">i</text><text xml:space="preserve" font-family="Helvetica-Light" font-size="28.8" fill="#000000" transform="matrix(1.00, 0.00, -0.00, -1.00, 217.4, 592.0)">c</text><text xml:space="preserve" font-family="Helvetica-Light" font-size="28.8" fill="#000000" transform="matrix(1.00, 0.00, -0.00, -1.00, 233.5, 592.0)">a</text><text xml:space="preserve" font-family="Helvetica-Light" font-size="28.8" fill="#000000" transform="matrix(1.00, 0.00, -0.00, -1.00, 249.5, 592.0)">l</text><text xml:space="preserve" font-family="Helvetica-Light" font-size="28.8" fill="#000000" transform="matrix(1.00, 0.00, -0.00, -1.00, 255.9, 592.0)"> </text><text xml:space="preserve" font-family="Helvetica-Light" font-size="28.8" fill="#000000" transform="matrix(1.00, 0.00, -0.00, -1.00, 263.9, 592.0)">E</text><text xml:space="preserve" font-family="Helvetica-Light" font-size="28.8" fill="#000000" transform="matrix(1.00, 0.00, -0.00, -1.00, 281.5, 592.0)">n</text><text xml:space="preserve" font-family="Helvetica-Light" font-size="28.8" fill="#000000" transform="matrix(1.00, 0.00, -0.00, -1.00, 297.5, 592.0)">g</text><text xml:space="preserve" font-family="Helvetica-Light" font-size="28.8" fill="#000000" transform="matrix(1.00, 0.00, -0.00, -1.00, 315.1, 592.0)">i</text><text xml:space="preserve" font-family="Helvetica-Light" font-size="28.8" fill="#000000" transform="matrix(1.00, 0.00, -0.00, -1.00, 321.5, 592.0)">n</text><text xml:space="preserve" font-family="Helvetica-Light" font-size="28.8" fill="#000000" transform="matrix(1.00, 0.00, -0.00, -1.00, 337.5, 592.0)">e</text><text xml:space="preserve" font-family="Helvetica-Light" font-size="28.8" fill="#000000" transform="matrix(1.00, 0.00, -0.00, -1.00, 353.5, 592.0)">e</text><text xml:space="preserve" font-family="Helvetica-Light" font-size="28.8" fill="#000000" transform="matrix(1.00, 0.00, -0.00, -1.00, 369.5, 592.0)">r</text><text xml:space="preserve" font-family="Helvetica-Light" font-size="28.8" fill="#000000" transform="matrix(1.00, 0.00, -0.00, -1.00, 379.1, 592.0)"> </text><text xml:space="preserve" font-family="Helvetica-Light" font-size="28.8" fill="#000000" transform="matrix(1.00, 0.00, -0.00, -1.00, 387.1, 592.0)">b</text><text xml:space="preserve" font-family="Helvetica-Light" font-size="28.8" fill="#000000" transform="matrix(1.00, 0.00, -0.00, -1.00, 404.7, 592.0)">y</text><text xml:space="preserve" font-family="Helvetica-Light" font-size="28.8" fill="#000000" transform="matrix(1.00, 0.00, -0.00, -1.00, 419.1, 592.0)"> </text><text xml:space="preserve" font-family="Helvetica-Light" font-size="28.8" fill="#000000" transform="matrix(1.00, 0.00, -0.00, -1.00, 427.1, 592.0)">t</text><text xml:space="preserve" font-family="Helvetica-Light" font-size="28.8" fill="#000000" transform="matrix(1.00, 0.00, -0.00, -1.00, 435.1, 592.0)">r</text><text xml:space="preserve" font-family="Helvetica-Light" font-size="28.8" fill="#000000" transform="matrix(1.00, 0.00, -0.00, -1.00, 444.7, 592.0)">a</text><text xml:space="preserve" font-family="Helvetica-Light" font-size="28.8" fill="#000000" transform="matrix(1.00, 0.00, -0.00, -1.00, 460.7, 592.0)">i</text><text xml:space="preserve" font-family="Helvetica-Light" font-size="28.8" fill="#000000" transform="matrix(1.00, 0.00, -0.00, -1.00, 467.1, 592.0)">n</text><text xml:space="preserve" font-family="Helvetica-Light" font-size="28.8" fill="#000000" transform="matrix(1.00, 0.00, -0.00, -1.00, 483.1, 592.0)">i</text><text xml:space="preserve" font-family="Helvetica-Light" font-size="28.8" fill="#000000" transform="matrix(1.00, 0.00, -0.00, -1.00, 489.5, 592.0)">n</text><text xml:space="preserve" font-family="Helvetica-Light" font-size="28.8" fill="#000000" transform="matrix(1.00, 0.00, -0.00, -1.00, 505.5, 592.0)">g</text><text xml:space="preserve" font-family="Helvetica-Light" font-size="28.8" fill="#000000" transform="matrix(1.00, 0.00, -0.00, -1.00, 523.1, 592.0)">,</text><text xml:space="preserve" font-family="Helvetica-Light" font-size="28.8" fill="#000000" transform="matrix(1.00, 0.00, -0.00, -1.00, 531.1, 592.0)"> </text><text xml:space="preserve" font-family="Helvetica-Light" font-size="28.8" fill="#000000" transform="matrix(1.00, 0.00, -0.00, -1.00, 539.1, 592.0)">b</text><text xml:space="preserve" font-family="Helvetica-Light" font-size="28.8" fill="#000000" transform="matrix(1.00, 0.00, -0.00, -1.00, 556.7, 592.0)">u</text><text xml:space="preserve" font-family="Helvetica-Light" font-size="28.8" fill="#000000" transform="matrix(1.00, 0.00, -0.00, -1.00, 572.8, 592.0)">t</text><text xml:space="preserve" font-family="Helvetica-Light" font-size="28.8" fill="#000000" transform="matrix(1.00, 0.00, -0.00, -1.00, 580.8, 592.0)"> </text><text xml:space="preserve" font-family="Helvetica-Light" font-size="28.8" fill="#000000" transform="matrix(1.00, 0.00, -0.00, -1.00, 588.8, 592.0)">h</text><text xml:space="preserve" font-family="Helvetica-Light" font-size="28.8" fill="#000000" transform="matrix(1.00, 0.00, -0.00, -1.00, 604.8, 592.0)">a</text><text xml:space="preserve" font-family="Helvetica-Light" font-size="28.8" fill="#000000" transform="matrix(1.00, 0.00, -0.00, -1.00, 620.8, 592.0)">v</text><text xml:space="preserve" font-family="Helvetica-Light" font-size="28.8" fill="#000000" transform="matrix(1.00, 0.00, -0.00, -1.00, 635.2, 592.0)">e</text><text xml:space="preserve" font-family="Helvetica-Light" font-size="28.8" fill="#000000" transform="matrix(1.00, 0.00, -0.00, -1.00, 651.2, 592.0)"> </text><text xml:space="preserve" font-family="Helvetica-Light" font-size="28.8" fill="#000000" transform="matrix(1.00, 0.00, -0.00, -1.00, 659.2, 592.0)">b</text><text xml:space="preserve" font-family="Helvetica-Light" font-size="28.8" fill="#000000" transform="matrix(1.00, 0.00, -0.00, -1.00, 676.8, 592.0)">e</text><text xml:space="preserve" font-family="Helvetica-Light" font-size="28.8" fill="#000000" transform="matrix(1.00, 0.00, -0.00, -1.00, 692.8, 592.0)">e</text><text xml:space="preserve" font-family="Helvetica-Light" font-size="28.8" fill="#000000" transform="matrix(1.00, 0.00, -0.00, -1.00, 708.8, 592.0)">n</text><text xml:space="preserve" font-family="Helvetica-Light" font-size="28.8" fill="#000000" transform="matrix(1.00, 0.00, -0.00, -1.00, 724.8, 592.0)"> </text><text xml:space="preserve" font-family="Helvetica-Light" font-size="28.8" fill="#000000" transform="matrix(1.00, 0.00, -0.00, -1.00, 732.9, 592.0)">p</text><text xml:space="preserve" font-family="Helvetica-Light" font-size="28.8" fill="#000000" transform="matrix(1.00, 0.00, -0.00, -1.00, 750.4, 592.0)">r</text><text xml:space="preserve" font-family="Helvetica-Light" font-size="28.8" fill="#000000" transform="matrix(1.00, 0.00, -0.00, -1.00, 759.5, 592.0)">o</text><text xml:space="preserve" font-family="Helvetica-Light" font-size="28.8" fill="#000000" transform="matrix(1.00, 0.00, -0.00, -1.00, 775.5, 592.0)">g</text><text xml:space="preserve" font-family="Helvetica-Light" font-size="28.8" fill="#000000" transform="matrix(1.00, 0.00, -0.00, -1.00, 793.1, 592.0)">r</text><text xml:space="preserve" font-family="Helvetica-Light" font-size="28.8" fill="#000000" transform="matrix(1.00, 0.00, -0.00, -1.00, 802.7, 592.0)">a</text><text xml:space="preserve" font-family="Helvetica-Light" font-size="28.8" fill="#000000" transform="matrix(1.00, 0.00, -0.00, -1.00, 818.7, 592.0)">m</text><text xml:space="preserve" font-family="Helvetica-Light" font-size="28.8" fill="#000000" transform="matrix(1.00, 0.00, -0.00, -1.00, 842.7, 592.0)">m</text><text xml:space="preserve" font-family="Helvetica-Light" font-size="28.8" fill="#000000" transform="matrix(1.00, 0.00, -0.00, -1.00, 866.7, 592.0)">i</text><text xml:space="preserve" font-family="Helvetica-Light" font-size="28.8" fill="#000000" transform="matrix(1.00, 0.00, -0.00, -1.00, 873.1, 592.0)">n</text><text xml:space="preserve" font-family="Helvetica-Light" font-size="28.8" fill="#000000" transform="matrix(1.00, 0.00, -0.00, -1.00, 889.1, 592.0)">g</text><text xml:space="preserve" font-family="Helvetica-Light" font-size="28.8" fill="#000000" transform="matrix(1.00, 0.00, -0.00, -1.00, 906.7, 592.0)"> </text><text xml:space="preserve" font-family="Helvetica-Light" font-size="28.8" fill="#000000" transform="matrix(1.00, 0.00, -0.00, -1.00, 107.0, 557.0)">m</text><text xml:space="preserve" font-family="Helvetica-Light" font-size="28.8" fill="#000000" transform="matrix(1.00, 0.00, -0.00, -1.00, 131.0, 557.0)">y</text><text xml:space="preserve" font-family="Helvetica-Light" font-size="28.8" fill="#000000" transform="matrix(1.00, 0.00, -0.00, -1.00, 145.4, 557.0)"> </text><text xml:space="preserve" font-family="Helvetica-Light" font-size="28.8" fill="#000000" transform="matrix(1.00, 0.00, -0.00, -1.00, 153.4, 557.0)">e</text><text xml:space="preserve" font-family="Helvetica-Light" font-size="28.8" fill="#000000" transform="matrix(1.00, 0.00, -0.00, -1.00, 169.4, 557.0)">n</text><text xml:space="preserve" font-family="Helvetica-Light" font-size="28.8" fill="#000000" transform="matrix(1.00, 0.00, -0.00, -1.00, 185.4, 557.0)">t</text><text xml:space="preserve" font-family="Helvetica-Light" font-size="28.8" fill="#000000" transform="matrix(1.00, 0.00, -0.00, -1.00, 193.4, 557.0)">i</text><text xml:space="preserve" font-family="Helvetica-Light" font-size="28.8" fill="#000000" transform="matrix(1.00, 0.00, -0.00, -1.00, 199.8, 557.0)">r</text><text xml:space="preserve" font-family="Helvetica-Light" font-size="28.8" fill="#000000" transform="matrix(1.00, 0.00, -0.00, -1.00, 208.9, 557.0)">e</text><text xml:space="preserve" font-family="Helvetica-Light" font-size="28.8" fill="#000000" transform="matrix(1.00, 0.00, -0.00, -1.00, 224.9, 557.0)"> </text><text xml:space="preserve" font-family="Helvetica-Light" font-size="28.8" fill="#000000" transform="matrix(1.00, 0.00, -0.00, -1.00, 232.9, 557.0)">c</text><text xml:space="preserve" font-family="Helvetica-Light" font-size="28.8" fill="#000000" transform="matrix(1.00, 0.00, -0.00, -1.00, 248.9, 557.0)">a</text><text xml:space="preserve" font-family="Helvetica-Light" font-size="28.8" fill="#000000" transform="matrix(1.00, 0.00, -0.00, -1.00, 264.9, 557.0)">r</text><text xml:space="preserve" font-family="Helvetica-Light" font-size="28.8" fill="#000000" transform="matrix(1.00, 0.00, -0.00, -1.00, 274.0, 557.0)">e</text><text xml:space="preserve" font-family="Helvetica-Light" font-size="28.8" fill="#000000" transform="matrix(1.00, 0.00, -0.00, -1.00, 290.0, 557.0)">e</text><text xml:space="preserve" font-family="Helvetica-Light" font-size="28.8" fill="#000000" transform="matrix(1.00, 0.00, -0.00, -1.00, 306.0, 557.0)">r</text><text xml:space="preserve" font-family="Helvetica-Light" font-size="28.8" fill="#000000" transform="matrix(1.00, 0.00, -0.00, -1.00, 315.6, 557.0)"> </text><text xml:space="preserve" font-family="Helvetica-Light" font-size="21.6" fill="#000000" transform="matrix(1.00, 0.00, -0.00, -1.00, 79.0, 491.6)">•</text><text xml:space="preserve" font-family="Helvetica-Light" font-size="28.8" fill="#000000" transform="matrix(1.00, 0.00, -0.00, -1.00, 107.0, 489.0)">P</text><text xml:space="preserve" font-family="Helvetica-Light" font-size="28.8" fill="#000000" transform="matrix(1.00, 0.00, -0.00, -1.00, 124.6, 489.0)">r</text><text xml:space="preserve" font-family="Helvetica-Light" font-size="28.8" fill="#000000" transform="matrix(1.00, 0.00, -0.00, -1.00, 133.7, 489.0)">o</text><text xml:space="preserve" font-family="Helvetica-Light" font-size="28.8" fill="#000000" transform="matrix(1.00, 0.00, -0.00, -1.00, 149.7, 489.0)">g</text><text xml:space="preserve" font-family="Helvetica-Light" font-size="28.8" fill="#000000" transform="matrix(1.00, 0.00, -0.00, -1.00, 167.3, 489.0)">r</text><text xml:space="preserve" font-family="Helvetica-Light" font-size="28.8" fill="#000000" transform="matrix(1.00, 0.00, -0.00, -1.00, 176.9, 489.0)">a</text><text xml:space="preserve" font-family="Helvetica-Light" font-size="28.8" fill="#000000" transform="matrix(1.00, 0.00, -0.00, -1.00, 192.9, 489.0)">m</text><text xml:space="preserve" font-family="Helvetica-Light" font-size="28.8" fill="#000000" transform="matrix(1.00, 0.00, -0.00, -1.00, 216.9, 489.0)">m</text><text xml:space="preserve" font-family="Helvetica-Light" font-size="28.8" fill="#000000" transform="matrix(1.00, 0.00, -0.00, -1.00, 240.9, 489.0)">e</text><text xml:space="preserve" font-family="Helvetica-Light" font-size="28.8" fill="#000000" transform="matrix(1.00, 0.00, -0.00, -1.00, 256.9, 489.0)">d</text><text xml:space="preserve" font-family="Helvetica-Light" font-size="28.8" fill="#000000" transform="matrix(1.00, 0.00, -0.00, -1.00, 274.5, 489.0)"> </text><text xml:space="preserve" font-family="Helvetica-Light" font-size="28.8" fill="#000000" transform="matrix(1.00, 0.00, -0.00, -1.00, 282.5, 489.0)">i</text><text xml:space="preserve" font-family="Helvetica-Light" font-size="28.8" fill="#000000" transform="matrix(1.00, 0.00, -0.00, -1.00, 288.9, 489.0)">n</text><text xml:space="preserve" font-family="Helvetica-Light" font-size="28.8" fill="#000000" transform="matrix(1.00, 0.00, -0.00, -1.00, 304.9, 489.0)"> </text><text xml:space="preserve" font-family="Helvetica-Light" font-size="28.8" fill="#000000" transform="matrix(1.00, 0.00, -0.00, -1.00, 312.9, 489.0)">a</text><text xml:space="preserve" font-family="Helvetica-Light" font-size="28.8" fill="#000000" transform="matrix(1.00, 0.00, -0.00, -1.00, 328.9, 489.0)"> </text><text xml:space="preserve" font-family="Helvetica-Light" font-size="28.8" fill="#000000" transform="matrix(1.00, 0.00, -0.00, -1.00, 336.9, 489.0)">l</text><text xml:space="preserve" font-family="Helvetica-Light" font-size="28.8" fill="#000000" transform="matrix(1.00, 0.00, -0.00, -1.00, 343.3, 489.0)">o</text><text xml:space="preserve" font-family="Helvetica-Light" font-size="28.8" fill="#000000" transform="matrix(1.00, 0.00, -0.00, -1.00, 359.3, 489.0)">t</text><text xml:space="preserve" font-family="Helvetica-Light" font-size="28.8" fill="#000000" transform="matrix(1.00, 0.00, -0.00, -1.00, 367.3, 489.0)"> </text><text xml:space="preserve" font-family="Helvetica-Light" font-size="28.8" fill="#000000" transform="matrix(1.00, 0.00, -0.00, -1.00, 375.3, 489.0)">o</text><text xml:space="preserve" font-family="Helvetica-Light" font-size="28.8" fill="#000000" transform="matrix(1.00, 0.00, -0.00, -1.00, 391.3, 489.0)">f</text><text xml:space="preserve" font-family="Helvetica-Light" font-size="28.8" fill="#000000" transform="matrix(1.00, 0.00, -0.00, -1.00, 399.3, 489.0)"> </text><text xml:space="preserve" font-family="Helvetica-Light" font-size="28.8" fill="#000000" transform="matrix(1.00, 0.00, -0.00, -1.00, 407.4, 489.0)">l</text><text xml:space="preserve" font-family="Helvetica-Light" font-size="28.8" fill="#000000" transform="matrix(1.00, 0.00, -0.00, -1.00, 413.7, 489.0)">a</text><text xml:space="preserve" font-family="Helvetica-Light" font-size="28.8" fill="#000000" transform="matrix(1.00, 0.00, -0.00, -1.00, 429.8, 489.0)">n</text><text xml:space="preserve" font-family="Helvetica-Light" font-size="28.8" fill="#000000" transform="matrix(1.00, 0.00, -0.00, -1.00, 445.8, 489.0)">g</text><text xml:space="preserve" font-family="Helvetica-Light" font-size="28.8" fill="#000000" transform="matrix(1.00, 0.00, -0.00, -1.00, 463.4, 489.0)">u</text><text xml:space="preserve" font-family="Helvetica-Light" font-size="28.8" fill="#000000" transform="matrix(1.00, 0.00, -0.00, -1.00, 479.4, 489.0)">a</text><text xml:space="preserve" font-family="Helvetica-Light" font-size="28.8" fill="#000000" transform="matrix(1.00, 0.00, -0.00, -1.00, 495.4, 489.0)">g</text><text xml:space="preserve" font-family="Helvetica-Light" font-size="28.8" fill="#000000" transform="matrix(1.00, 0.00, -0.00, -1.00, 513.0, 489.0)">e</text><text xml:space="preserve" font-family="Helvetica-Light" font-size="28.8" fill="#000000" transform="matrix(1.00, 0.00, -0.00, -1.00, 529.0, 489.0)">s</text><text xml:space="preserve" font-family="Helvetica-Light" font-size="28.8" fill="#000000" transform="matrix(1.00, 0.00, -0.00, -1.00, 543.4, 489.0)"> </text><text xml:space="preserve" font-family="Helvetica-Light" font-size="21.6" fill="#000000" transform="matrix(1.00, 0.00, -0.00, -1.00, 114.0, 423.0)">•</text><text xml:space="preserve" font-family="Helvetica-Light" font-size="28.8" fill="#000000" transform="matrix(1.00, 0.00, -0.00, -1.00, 142.0, 420.0)">A</text><text xml:space="preserve" font-family="Helvetica-Light" font-size="28.8" fill="#000000" transform="matrix(1.00, 0.00, -0.00, -1.00, 161.2, 420.0)">n</text><text xml:space="preserve" font-family="Helvetica-Light" font-size="28.8" fill="#000000" transform="matrix(1.00, 0.00, -0.00, -1.00, 177.2, 420.0)">c</text><text xml:space="preserve" font-family="Helvetica-Light" font-size="28.8" fill="#000000" transform="matrix(1.00, 0.00, -0.00, -1.00, 193.2, 420.0)">i</text><text xml:space="preserve" font-family="Helvetica-Light" font-size="28.8" fill="#000000" transform="matrix(1.00, 0.00, -0.00, -1.00, 199.6, 420.0)">e</text><text xml:space="preserve" font-family="Helvetica-Light" font-size="28.8" fill="#000000" transform="matrix(1.00, 0.00, -0.00, -1.00, 215.6, 420.0)">n</text><text xml:space="preserve" font-family="Helvetica-Light" font-size="28.8" fill="#000000" transform="matrix(1.00, 0.00, -0.00, -1.00, 231.7, 420.0)">t</text><text xml:space="preserve" font-family="Helvetica-Light" font-size="28.8" fill="#000000" transform="matrix(1.00, 0.00, -0.00, -1.00, 239.7, 420.0)"> </text><text xml:space="preserve" font-family="Helvetica-Light" font-size="28.8" fill="#000000" transform="matrix(1.00, 0.00, -0.00, -1.00, 247.7, 420.0)">h</text><text xml:space="preserve" font-family="Helvetica-Light" font-size="28.8" fill="#000000" transform="matrix(1.00, 0.00, -0.00, -1.00, 263.7, 420.0)">i</text><text xml:space="preserve" font-family="Helvetica-Light" font-size="28.8" fill="#000000" transform="matrix(1.00, 0.00, -0.00, -1.00, 270.1, 420.0)">s</text><text xml:space="preserve" font-family="Helvetica-Light" font-size="28.8" fill="#000000" transform="matrix(1.00, 0.00, -0.00, -1.00, 284.5, 420.0)">t</text><text xml:space="preserve" font-family="Helvetica-Light" font-size="28.8" fill="#000000" transform="matrix(1.00, 0.00, -0.00, -1.00, 292.5, 420.0)">o</text><text xml:space="preserve" font-family="Helvetica-Light" font-size="28.8" fill="#000000" transform="matrix(1.00, 0.00, -0.00, -1.00, 308.5, 420.0)">r</text><text xml:space="preserve" font-family="Helvetica-Light" font-size="28.8" fill="#000000" transform="matrix(1.00, 0.00, -0.00, -1.00, 318.6, 420.0)">y</text><text xml:space="preserve" font-family="Helvetica-Light" font-size="28.8" fill="#000000" transform="matrix(1.00, 0.00, -0.00, -1.00, 333.0, 420.0)">:</text><text xml:space="preserve" font-family="Helvetica-Light" font-size="28.8" fill="#000000" transform="matrix(1.00, 0.00, -0.00, -1.00, 341.0, 420.0)"> </text><text xml:space="preserve" font-family="Helvetica-Light" font-size="28.8" fill="#000000" transform="matrix(1.00, 0.00, -0.00, -1.00, 349.0, 420.0)">P</text><text xml:space="preserve" font-family="Helvetica-Light" font-size="28.8" fill="#000000" transform="matrix(1.00, 0.00, -0.00, -1.00, 366.6, 420.0)">a</text><text xml:space="preserve" font-family="Helvetica-Light" font-size="28.8" fill="#000000" transform="matrix(1.00, 0.00, -0.00, -1.00, 382.6, 420.0)">s</text><text xml:space="preserve" font-family="Helvetica-Light" font-size="28.8" fill="#000000" transform="matrix(1.00, 0.00, -0.00, -1.00, 397.0, 420.0)">c</text><text xml:space="preserve" font-family="Helvetica-Light" font-size="28.8" fill="#000000" transform="matrix(1.00, 0.00, -0.00, -1.00, 413.0, 420.0)">a</text><text xml:space="preserve" font-family="Helvetica-Light" font-size="28.8" fill="#000000" transform="matrix(1.00, 0.00, -0.00, -1.00, 429.0, 420.0)">l</text><text xml:space="preserve" font-family="Helvetica-Light" font-size="28.8" fill="#000000" transform="matrix(1.00, 0.00, -0.00, -1.00, 435.4, 420.0)">,</text><text xml:space="preserve" font-family="Helvetica-Light" font-size="28.8" fill="#000000" transform="matrix(1.00, 0.00, -0.00, -1.00, 443.4, 420.0)"> </text><text xml:space="preserve" font-family="Helvetica-Light" font-size="28.8" fill="#000000" transform="matrix(1.00, 0.00, -0.00, -1.00, 451.5, 420.0)">V</text><text xml:space="preserve" font-family="Helvetica-Light" font-size="28.8" fill="#000000" transform="matrix(1.00, 0.00, -0.00, -1.00, 468.5, 420.0)">i</text><text xml:space="preserve" font-family="Helvetica-Light" font-size="28.8" fill="#000000" transform="matrix(1.00, 0.00, -0.00, -1.00, 474.9, 420.0)">s</text><text xml:space="preserve" font-family="Helvetica-Light" font-size="28.8" fill="#000000" transform="matrix(1.00, 0.00, -0.00, -1.00, 489.3, 420.0)">u</text><text xml:space="preserve" font-family="Helvetica-Light" font-size="28.8" fill="#000000" transform="matrix(1.00, 0.00, -0.00, -1.00, 505.3, 420.0)">a</text><text xml:space="preserve" font-family="Helvetica-Light" font-size="28.8" fill="#000000" transform="matrix(1.00, 0.00, -0.00, -1.00, 521.4, 420.0)">l</text><text xml:space="preserve" font-family="Helvetica-Light" font-size="28.8" fill="#000000" transform="matrix(1.00, 0.00, -0.00, -1.00, 527.7, 420.0)"> </text><text xml:space="preserve" font-family="Helvetica-Light" font-size="28.8" fill="#000000" transform="matrix(1.00, 0.00, -0.00, -1.00, 535.8, 420.0)">B</text><text xml:space="preserve" font-family="Helvetica-Light" font-size="28.8" fill="#000000" transform="matrix(1.00, 0.00, -0.00, -1.00, 555.0, 420.0)">a</text><text xml:space="preserve" font-family="Helvetica-Light" font-size="28.8" fill="#000000" transform="matrix(1.00, 0.00, -0.00, -1.00, 571.0, 420.0)">s</text><text xml:space="preserve" font-family="Helvetica-Light" font-size="28.8" fill="#000000" transform="matrix(1.00, 0.00, -0.00, -1.00, 585.4, 420.0)">i</text><text xml:space="preserve" font-family="Helvetica-Light" font-size="28.8" fill="#000000" transform="matrix(1.00, 0.00, -0.00, -1.00, 591.8, 420.0)">c</text><text xml:space="preserve" font-family="Helvetica-Light" font-size="28.8" fill="#000000" transform="matrix(1.00, 0.00, -0.00, -1.00, 607.8, 420.0)">,</text><text xml:space="preserve" font-family="Helvetica-Light" font-size="28.8" fill="#000000" transform="matrix(1.00, 0.00, -0.00, -1.00, 615.8, 420.0)"> </text><text xml:space="preserve" font-family="Helvetica-Light" font-size="28.8" fill="#000000" transform="matrix(1.00, 0.00, -0.00, -1.00, 623.8, 420.0)">F</text><text xml:space="preserve" font-family="Helvetica-Light" font-size="28.8" fill="#000000" transform="matrix(1.00, 0.00, -0.00, -1.00, 639.8, 420.0)">o</text><text xml:space="preserve" font-family="Helvetica-Light" font-size="28.8" fill="#000000" transform="matrix(1.00, 0.00, -0.00, -1.00, 655.8, 420.0)">r</text><text xml:space="preserve" font-family="Helvetica-Light" font-size="28.8" fill="#000000" transform="matrix(1.00, 0.00, -0.00, -1.00, 665.9, 420.0)">t</text><text xml:space="preserve" font-family="Helvetica-Light" font-size="28.8" fill="#000000" transform="matrix(1.00, 0.00, -0.00, -1.00, 673.9, 420.0)">r</text><text xml:space="preserve" font-family="Helvetica-Light" font-size="28.8" fill="#000000" transform="matrix(1.00, 0.00, -0.00, -1.00, 683.5, 420.0)">a</text><text xml:space="preserve" font-family="Helvetica-Light" font-size="28.8" fill="#000000" transform="matrix(1.00, 0.00, -0.00, -1.00, 699.5, 420.0)">n</text><text xml:space="preserve" font-family="Helvetica-Light" font-size="28.8" fill="#000000" transform="matrix(1.00, 0.00, -0.00, -1.00, 715.6, 420.0)"> </text><text xml:space="preserve" font-family="Helvetica-Light" font-size="21.6" fill="#000000" transform="matrix(1.00, 0.00, -0.00, -1.00, 114.0, 354.4)">•</text><text xml:space="preserve" font-family="Helvetica-Light" font-size="28.8" fill="#000000" transform="matrix(1.00, 0.00, -0.00, -1.00, 142.0, 352.0)">C</text><text xml:space="preserve" font-family="Helvetica-Light" font-size="28.8" fill="#000000" transform="matrix(1.00, 0.00, -0.00, -1.00, 162.8, 352.0)">/</text><text xml:space="preserve" font-family="Helvetica-Light" font-size="28.8" fill="#000000" transform="matrix(1.00, 0.00, -0.00, -1.00, 170.8, 352.0)">C</text><text xml:space="preserve" font-family="Helvetica-Light" font-size="28.8" fill="#000000" transform="matrix(1.00, 0.00, -0.00, -1.00, 191.6, 352.0)">+</text><text xml:space="preserve" font-family="Helvetica-Light" font-size="28.8" fill="#000000" transform="matrix(1.00, 0.00, -0.00, -1.00, 210.6, 352.0)">+</text><text xml:space="preserve" font-family="Helvetica-Light" font-size="28.8" fill="#000000" transform="matrix(1.00, 0.00, -0.00, -1.00, 229.6, 352.0)"> </text><text xml:space="preserve" font-family="Helvetica-Light" font-size="28.8" fill="#000000" transform="matrix(1.00, 0.00, -0.00, -1.00, 237.6, 352.0)">(</text><text xml:space="preserve" font-family="Helvetica-Light" font-size="28.8" fill="#000000" transform="matrix(1.00, 0.00, -0.00, -1.00, 247.2, 352.0)">4</text><text xml:space="preserve" font-family="Helvetica-Light" font-size="28.8" fill="#000000" transform="matrix(1.00, 0.00, -0.00, -1.00, 263.2, 352.0)">+</text><text xml:space="preserve" font-family="Helvetica-Light" font-size="28.8" fill="#000000" transform="matrix(1.00, 0.00, -0.00, -1.00, 282.2, 352.0)"> </text><text xml:space="preserve" font-family="Helvetica-Light" font-size="28.8" fill="#000000" transform="matrix(1.00, 0.00, -0.00, -1.00, 290.2, 352.0)">y</text><text xml:space="preserve" font-family="Helvetica-Light" font-size="28.8" fill="#000000" transform="matrix(1.00, 0.00, -0.00, -1.00, 304.6, 352.0)">e</text><text xml:space="preserve" font-family="Helvetica-Light" font-size="28.8" fill="#000000" transform="matrix(1.00, 0.00, -0.00, -1.00, 320.6, 352.0)">a</text><text xml:space="preserve" font-family="Helvetica-Light" font-size="28.8" fill="#000000" transform="matrix(1.00, 0.00, -0.00, -1.00, 336.7, 352.0)">r</text><text xml:space="preserve" font-family="Helvetica-Light" font-size="28.8" fill="#000000" transform="matrix(1.00, 0.00, -0.00, -1.00, 346.2, 352.0)">s</text><text xml:space="preserve" font-family="Helvetica-Light" font-size="28.8" fill="#000000" transform="matrix(1.00, 0.00, -0.00, -1.00, 360.6, 352.0)">)</text><text xml:space="preserve" font-family="Helvetica-Light" font-size="28.8" fill="#000000" transform="matrix(1.00, 0.00, -0.00, -1.00, 370.2, 352.0)"> </text><text xml:space="preserve" font-family="Helvetica-Light" font-size="21.6" fill="#000000" transform="matrix(1.00, 0.00, -0.00, -1.00, 114.0, 285.8)">•</text><text xml:space="preserve" font-family="Helvetica-Light" font-size="28.8" fill="#000000" transform="matrix(1.00, 0.00, -0.00, -1.00, 142.0, 283.0)">J</text><text xml:space="preserve" font-family="Helvetica-Light" font-size="28.8" fill="#000000" transform="matrix(1.00, 0.00, -0.00, -1.00, 156.4, 283.0)">a</text><text xml:space="preserve" font-family="Helvetica-Light" font-size="28.8" fill="#000000" transform="matrix(1.00, 0.00, -0.00, -1.00, 172.4, 283.0)">v</text><text xml:space="preserve" font-family="Helvetica-Light" font-size="28.8" fill="#000000" transform="matrix(1.00, 0.00, -0.00, -1.00, 186.8, 283.0)">a</text><text xml:space="preserve" font-family="Helvetica-Light" font-size="28.8" fill="#000000" transform="matrix(1.00, 0.00, -0.00, -1.00, 202.8, 283.0)"> </text><text xml:space="preserve" font-family="Helvetica-Light" font-size="28.8" fill="#000000" transform="matrix(1.00, 0.00, -0.00, -1.00, 210.8, 283.0)">(</text><text xml:space="preserve" font-family="Helvetica-Light" font-size="28.8" fill="#000000" transform="matrix(1.00, 0.00, -0.00, -1.00, 220.4, 283.0)">1</text><text xml:space="preserve" font-family="Helvetica-Light" font-size="28.8" fill="#000000" transform="matrix(1.00, 0.00, -0.00, -1.00, 236.4, 283.0)">0</text><text xml:space="preserve" font-family="Helvetica-Light" font-size="28.8" fill="#000000" transform="matrix(1.00, 0.00, -0.00, -1.00, 252.4, 283.0)">+</text><text xml:space="preserve" font-family="Helvetica-Light" font-size="28.8" fill="#000000" transform="matrix(1.00, 0.00, -0.00, -1.00, 271.5, 283.0)"> </text><text xml:space="preserve" font-family="Helvetica-Light" font-size="28.8" fill="#000000" transform="matrix(1.00, 0.00, -0.00, -1.00, 279.5, 283.0)">y</text><text xml:space="preserve" font-family="Helvetica-Light" font-size="28.8" fill="#000000" transform="matrix(1.00, 0.00, -0.00, -1.00, 293.9, 283.0)">e</text><text xml:space="preserve" font-family="Helvetica-Light" font-size="28.8" fill="#000000" transform="matrix(1.00, 0.00, -0.00, -1.00, 309.9, 283.0)">a</text><text xml:space="preserve" font-family="Helvetica-Light" font-size="28.8" fill="#000000" transform="matrix(1.00, 0.00, -0.00, -1.00, 325.9, 283.0)">r</text><text xml:space="preserve" font-family="Helvetica-Light" font-size="28.8" fill="#000000" transform="matrix(1.00, 0.00, -0.00, -1.00, 335.5, 283.0)">s</text><text xml:space="preserve" font-family="Helvetica-Light" font-size="28.8" fill="#000000" transform="matrix(1.00, 0.00, -0.00, -1.00, 349.9, 283.0)">)</text><text xml:space="preserve" font-family="Helvetica-Light" font-size="28.8" fill="#000000" transform="matrix(1.00, 0.00, -0.00, -1.00, 359.5, 283.0)"> </text><text xml:space="preserve" font-family="Helvetica-Light" font-size="21.6" fill="#000000" transform="matrix(1.00, 0.00, -0.00, -1.00, 114.0, 217.2)">•</text><text xml:space="preserve" font-family="Helvetica-Light" font-size="28.8" fill="#000000" transform="matrix(1.00, 0.00, -0.00, -1.00, 142.0, 214.0)">S</text><text xml:space="preserve" font-family="Helvetica-Light" font-size="28.8" fill="#000000" transform="matrix(1.00, 0.00, -0.00, -1.00, 159.6, 214.0)">c</text><text xml:space="preserve" font-family="Helvetica-Light" font-size="28.8" fill="#000000" transform="matrix(1.00, 0.00, -0.00, -1.00, 175.6, 214.0)">a</text><text xml:space="preserve" font-family="Helvetica-Light" font-size="28.8" fill="#000000" transform="matrix(1.00, 0.00, -0.00, -1.00, 191.6, 214.0)">l</text><text xml:space="preserve" font-family="Helvetica-Light" font-size="28.8" fill="#000000" transform="matrix(1.00, 0.00, -0.00, -1.00, 198.0, 214.0)">a</text><text xml:space="preserve" font-family="Helvetica-Light" font-size="28.8" fill="#000000" transform="matrix(1.00, 0.00, -0.00, -1.00, 214.0, 214.0)"> </text><text xml:space="preserve" font-family="Helvetica-Light" font-size="28.8" fill="#000000" transform="matrix(1.00, 0.00, -0.00, -1.00, 222.0, 214.0)">(</text><text xml:space="preserve" font-family="Helvetica-Light" font-size="28.8" fill="#000000" transform="matrix(1.00, 0.00, -0.00, -1.00, 231.6, 214.0)">6</text><text xml:space="preserve" font-family="Helvetica-Light" font-size="28.8" fill="#000000" transform="matrix(1.00, 0.00, -0.00, -1.00, 247.6, 214.0)">+</text><text xml:space="preserve" font-family="Helvetica-Light" font-size="28.8" fill="#000000" transform="matrix(1.00, 0.00, -0.00, -1.00, 266.6, 214.0)"> </text><text xml:space="preserve" font-family="Helvetica-Light" font-size="28.8" fill="#000000" transform="matrix(1.00, 0.00, -0.00, -1.00, 274.7, 214.0)">y</text><text xml:space="preserve" font-family="Helvetica-Light" font-size="28.8" fill="#000000" transform="matrix(1.00, 0.00, -0.00, -1.00, 289.1, 214.0)">e</text><text xml:space="preserve" font-family="Helvetica-Light" font-size="28.8" fill="#000000" transform="matrix(1.00, 0.00, -0.00, -1.00, 305.1, 214.0)">a</text><text xml:space="preserve" font-family="Helvetica-Light" font-size="28.8" fill="#000000" transform="matrix(1.00, 0.00, -0.00, -1.00, 321.1, 214.0)">r</text><text xml:space="preserve" font-family="Helvetica-Light" font-size="28.8" fill="#000000" transform="matrix(1.00, 0.00, -0.00, -1.00, 330.7, 214.0)">s</text><text xml:space="preserve" font-family="Helvetica-Light" font-size="28.8" fill="#000000" transform="matrix(1.00, 0.00, -0.00, -1.00, 345.1, 214.0)">)</text><text xml:space="preserve" font-family="Helvetica-Light" font-size="28.8" fill="#000000" transform="matrix(1.00, 0.00, -0.00, -1.00, 354.7, 214.0)"> </text><text xml:space="preserve" font-family="Helvetica-Light" font-size="21.6" fill="#000000" transform="matrix(1.00, 0.00, -0.00, -1.00, 114.0, 148.6)">•</text><text xml:space="preserve" font-family="Helvetica-Light" font-size="28.8" fill="#000000" transform="matrix(1.00, 0.00, -0.00, -1.00, 142.0, 146.0)">C</text><text xml:space="preserve" font-family="Helvetica-Light" font-size="28.8" fill="#000000" transform="matrix(1.00, 0.00, -0.00, -1.00, 162.8, 146.0)">l</text><text xml:space="preserve" font-family="Helvetica-Light" font-size="28.8" fill="#000000" transform="matrix(1.00, 0.00, -0.00, -1.00, 169.2, 146.0)">o</text><text xml:space="preserve" font-family="Helvetica-Light" font-size="28.8" fill="#000000" transform="matrix(1.00, 0.00, -0.00, -1.00, 185.2, 146.0)">j</text><text xml:space="preserve" font-family="Helvetica-Light" font-size="28.8" fill="#000000" transform="matrix(1.00, 0.00, -0.00, -1.00, 191.6, 146.0)">u</text><text xml:space="preserve" font-family="Helvetica-Light" font-size="28.8" fill="#000000" transform="matrix(1.00, 0.00, -0.00, -1.00, 207.6, 146.0)">r</text><text xml:space="preserve" font-family="Helvetica-Light" font-size="28.8" fill="#000000" transform="matrix(1.00, 0.00, -0.00, -1.00, 216.7, 146.0)">e</text><text xml:space="preserve" font-family="Helvetica-Light" font-size="28.8" fill="#000000" transform="matrix(1.00, 0.00, -0.00, -1.00, 232.7, 146.0)"> </text><text xml:space="preserve" font-family="Helvetica-Light" font-size="28.8" fill="#000000" transform="matrix(1.00, 0.00, -0.00, -1.00, 240.7, 146.0)">(</text><text xml:space="preserve" font-family="Helvetica-Light" font-size="28.8" fill="#000000" transform="matrix(1.00, 0.00, -0.00, -1.00, 250.3, 146.0)">2</text><text xml:space="preserve" font-family="Helvetica-Light" font-size="28.8" fill="#000000" transform="matrix(1.00, 0.00, -0.00, -1.00, 266.3, 146.0)">+</text><text xml:space="preserve" font-family="Helvetica-Light" font-size="28.8" fill="#000000" transform="matrix(1.00, 0.00, -0.00, -1.00, 285.3, 146.0)"> </text><text xml:space="preserve" font-family="Helvetica-Light" font-size="28.8" fill="#000000" transform="matrix(1.00, 0.00, -0.00, -1.00, 293.3, 146.0)">y</text><text xml:space="preserve" font-family="Helvetica-Light" font-size="28.8" fill="#000000" transform="matrix(1.00, 0.00, -0.00, -1.00, 307.7, 146.0)">e</text><text xml:space="preserve" font-family="Helvetica-Light" font-size="28.8" fill="#000000" transform="matrix(1.00, 0.00, -0.00, -1.00, 323.7, 146.0)">a</text><text xml:space="preserve" font-family="Helvetica-Light" font-size="28.8" fill="#000000" transform="matrix(1.00, 0.00, -0.00, -1.00, 339.7, 146.0)">r</text><text xml:space="preserve" font-family="Helvetica-Light" font-size="28.8" fill="#000000" transform="matrix(1.00, 0.00, -0.00, -1.00, 349.3, 146.0)">s</text><text xml:space="preserve" font-family="Helvetica-Light" font-size="28.8" fill="#000000" transform="matrix(1.00, 0.00, -0.00, -1.00, 363.7, 146.0)">)</text><text xml:space="preserve" font-family="Helvetica-Light" font-size="28.8" fill="#000000" transform="matrix(1.00, 0.00, -0.00, -1.00, 373.3, 146.0)"> </text><text xml:space="preserve" font-family="Helvetica-Light" font-size="21.6" fill="#000000" transform="matrix(1.00, 0.00, -0.00, -1.00, 79.0, 80.0)">•</text><text xml:space="preserve" font-family="Helvetica-Light" font-size="28.8" fill="#000000" transform="matrix(1.00, 0.00, -0.00, -1.00, 107.0, 77.0)">I</text><text xml:space="preserve" font-family="Helvetica-Light" font-size="28.8" fill="#000000" transform="matrix(1.00, 0.00, -0.00, -1.00, 115.0, 77.0)"> </text><text xml:space="preserve" font-family="Helvetica-Light" font-size="28.8" fill="#000000" transform="matrix(1.00, 0.00, -0.00, -1.00, 123.0, 77.0)">a</text><text xml:space="preserve" font-family="Helvetica-Light" font-size="28.8" fill="#000000" transform="matrix(1.00, 0.00, -0.00, -1.00, 139.0, 77.0)">m</text><text xml:space="preserve" font-family="Helvetica-Light" font-size="28.8" fill="#000000" transform="matrix(1.00, 0.00, -0.00, -1.00, 163.0, 77.0)"> </text><text xml:space="preserve" font-family="Helvetica-Light" font-size="28.8" fill="#000000" transform="matrix(1.00, 0.00, -0.00, -1.00, 171.0, 77.0)">v</text><text xml:space="preserve" font-family="Helvetica-Light" font-size="28.8" fill="#000000" transform="matrix(1.00, 0.00, -0.00, -1.00, 185.4, 77.0)">e</text><text xml:space="preserve" font-family="Helvetica-Light" font-size="28.8" fill="#000000" transform="matrix(1.00, 0.00, -0.00, -1.00, 201.4, 77.0)">r</text><text xml:space="preserve" font-family="Helvetica-Light" font-size="28.8" fill="#000000" transform="matrix(1.00, 0.00, -0.00, -1.00, 211.5, 77.0)">y</text><text xml:space="preserve" font-family="Helvetica-Light" font-size="28.8" fill="#000000" transform="matrix(1.00, 0.00, -0.00, -1.00, 225.9, 77.0)"> </text><text xml:space="preserve" font-family="Helvetica-Light" font-size="28.8" fill="#000000" transform="matrix(1.00, 0.00, -0.00, -1.00, 234.0, 77.0)">f</text><text xml:space="preserve" font-family="Helvetica-Light" font-size="28.8" fill="#000000" transform="matrix(1.00, 0.00, -0.00, -1.00, 242.0, 77.0)">a</text><text xml:space="preserve" font-family="Helvetica-Light" font-size="28.8" fill="#000000" transform="matrix(1.00, 0.00, -0.00, -1.00, 258.0, 77.0)">m</text><text xml:space="preserve" font-family="Helvetica-Light" font-size="28.8" fill="#000000" transform="matrix(1.00, 0.00, -0.00, -1.00, 282.0, 77.0)">i</text><text xml:space="preserve" font-family="Helvetica-Light" font-size="28.8" fill="#000000" transform="matrix(1.00, 0.00, -0.00, -1.00, 288.4, 77.0)">l</text><text xml:space="preserve" font-family="Helvetica-Light" font-size="28.8" fill="#000000" transform="matrix(1.00, 0.00, -0.00, -1.00, 294.7, 77.0)">i</text><text xml:space="preserve" font-family="Helvetica-Light" font-size="28.8" fill="#000000" transform="matrix(1.00, 0.00, -0.00, -1.00, 301.1, 77.0)">a</text><text xml:space="preserve" font-family="Helvetica-Light" font-size="28.8" fill="#000000" transform="matrix(1.00, 0.00, -0.00, -1.00, 317.2, 77.0)">r</text><text xml:space="preserve" font-family="Helvetica-Light" font-size="28.8" fill="#000000" transform="matrix(1.00, 0.00, -0.00, -1.00, 326.7, 77.0)"> </text><text xml:space="preserve" font-family="Helvetica-Light" font-size="28.8" fill="#000000" transform="matrix(1.00, 0.00, -0.00, -1.00, 334.8, 77.0)">w</text><text xml:space="preserve" font-family="Helvetica-Light" font-size="28.8" fill="#000000" transform="matrix(1.00, 0.00, -0.00, -1.00, 355.5, 77.0)">i</text><text xml:space="preserve" font-family="Helvetica-Light" font-size="28.8" fill="#000000" transform="matrix(1.00, 0.00, -0.00, -1.00, 361.9, 77.0)">t</text><text xml:space="preserve" font-family="Helvetica-Light" font-size="28.8" fill="#000000" transform="matrix(1.00, 0.00, -0.00, -1.00, 369.9, 77.0)">h</text><text xml:space="preserve" font-family="Helvetica-Light" font-size="28.8" fill="#000000" transform="matrix(1.00, 0.00, -0.00, -1.00, 386.0, 77.0)"> </text><text xml:space="preserve" font-family="Helvetica-Light" font-size="28.8" fill="#000000" transform="matrix(1.00, 0.00, -0.00, -1.00, 394.0, 77.0)">b</text><text xml:space="preserve" font-family="Helvetica-Light" font-size="28.8" fill="#000000" transform="matrix(1.00, 0.00, -0.00, -1.00, 411.6, 77.0)">o</text><text xml:space="preserve" font-family="Helvetica-Light" font-size="28.8" fill="#000000" transform="matrix(1.00, 0.00, -0.00, -1.00, 427.6, 77.0)">t</text><text xml:space="preserve" font-family="Helvetica-Light" font-size="28.8" fill="#000000" transform="matrix(1.00, 0.00, -0.00, -1.00, 435.6, 77.0)">h</text><text xml:space="preserve" font-family="Helvetica-Light" font-size="28.8" fill="#000000" transform="matrix(1.00, 0.00, -0.00, -1.00, 451.6, 77.0)"> </text><text xml:space="preserve" font-family="Helvetica-Light" font-size="28.8" fill="#000000" transform="matrix(1.00, 0.00, -0.00, -1.00, 459.6, 77.0)">O</text><text xml:space="preserve" font-family="Helvetica-Light" font-size="28.8" fill="#000000" transform="matrix(1.00, 0.00, -0.00, -1.00, 482.0, 77.0)">O</text><text xml:space="preserve" font-family="Helvetica-Light" font-size="28.8" fill="#000000" transform="matrix(1.00, 0.00, -0.00, -1.00, 504.4, 77.0)">P</text><text xml:space="preserve" font-family="Helvetica-Light" font-size="28.8" fill="#000000" transform="matrix(1.00, 0.00, -0.00, -1.00, 522.0, 77.0)"> </text><text xml:space="preserve" font-family="Helvetica-Light" font-size="28.8" fill="#000000" transform="matrix(1.00, 0.00, -0.00, -1.00, 530.0, 77.0)">a</text><text xml:space="preserve" font-family="Helvetica-Light" font-size="28.8" fill="#000000" transform="matrix(1.00, 0.00, -0.00, -1.00, 546.0, 77.0)">n</text><text xml:space="preserve" font-family="Helvetica-Light" font-size="28.8" fill="#000000" transform="matrix(1.00, 0.00, -0.00, -1.00, 562.0, 77.0)">d</text><text xml:space="preserve" font-family="Helvetica-Light" font-size="28.8" fill="#000000" transform="matrix(1.00, 0.00, -0.00, -1.00, 579.6, 77.0)"> </text><text xml:space="preserve" font-family="Helvetica-Light" font-size="28.8" fill="#000000" transform="matrix(1.00, 0.00, -0.00, -1.00, 587.6, 77.0)">F</text><text xml:space="preserve" font-family="Helvetica-Light" font-size="28.8" fill="#000000" transform="matrix(1.00, 0.00, -0.00, -1.00, 603.7, 77.0)">P</text></g></svg>