<?xml version="1.0" encoding="UTF-8" standalone="no"?><svg xmlns="http://www.w3.org/2000/svg" xmlns:xlink="http://www.w3.org/1999/xlink" clip-rule="evenodd" stroke-miterlimit="4.00" viewBox="0 0 1024 768"><desc>SVG generated by Keynote</desc><defs></defs><g transform="matrix(1.00, 0.00, -0.00, -1.00, 0.0, 768.0)"><path d="M 0.0 768.0 L 1024.0 768.0 L 1024.0 0.0 L 0.0 0.0 Z M 0.0 768.0 " fill="#FEFFFF"></path><text xml:space="preserve" font-family="Helvetica-Light" font-size="80.0" fill="#000000" transform="matrix(1.00, 0.00, -0.00, -1.00, 339.0, 670.0)">A</text><text xml:space="preserve" font-family="Helvetica-Light" font-size="80.0" fill="#000000" transform="matrix(1.00, 0.00, -0.00, -1.00, 392.4, 670.0)">b</text><text xml:space="preserve" font-family="Helvetica-Light" font-size="80.0" fill="#000000" transform="matrix(1.00, 0.00, -0.00, -1.00, 441.2, 670.0)">o</text><text xml:space="preserve" font-family="Helvetica-Light" font-size="80.0" fill="#000000" transform="matrix(1.00, 0.00, -0.00, -1.00, 485.7, 670.0)">u</text><text xml:space="preserve" font-family="Helvetica-Light" font-size="80.0" fill="#000000" transform="matrix(1.00, 0.00, -0.00, -1.00, 530.2, 670.0)">t</text><text xml:space="preserve" font-family="Helvetica-Light" font-size="80.0" fill="#000000" transform="matrix(1.00, 0.00, -0.00, -1.00, 552.4, 670.0)"> </text><text xml:space="preserve" font-family="Helvetica-Light" font-size="80.0" fill="#000000" transform="matrix(1.00, 0.00, -0.00, -1.00, 574.7, 670.0)">M</text><text xml:space="preserve" font-family="Helvetica-Light" font-size="80.0" fill="#000000" transform="matrix(1.00, 0.00, -0.00, -1.00, 641.3, 670.0)">e</text><text xml:space="preserve" font-family="Helvetica-Light" font-size="19.4" fill="#000000" transform="matrix(1.00, 0.00, -0.00, -1.00, 79.0, 598.2)">•</text><text xml:space="preserve" font-family="Helvetica-Light" font-size="25.9" fill="#000000" transform="matrix(1.00, 0.00, -0.00, -1.00, 104.0, 596.0)">M</text><text xml:space="preserve" font-family="Helvetica-Light" font-size="25.9" fill="#000000" transform="matrix(1.00, 0.00, -0.00, -1.00, 125.6, 596.0)">e</text><text xml:space="preserve" font-family="Helvetica-Light" font-size="25.9" fill="#000000" transform="matrix(1.00, 0.00, -0.00, -1.00, 140.0, 596.0)">c</text><text xml:space="preserve" font-family="Helvetica-Light" font-size="25.9" fill="#000000" transform="matrix(1.00, 0.00, -0.00, -1.00, 154.4, 596.0)">h</text><text xml:space="preserve" font-family="Helvetica-Light" font-size="25.9" fill="#000000" transform="matrix(1.00, 0.00, -0.00, -1.00, 168.8, 596.0)">a</text><text xml:space="preserve" font-family="Helvetica-Light" font-size="25.9" fill="#000000" transform="matrix(1.00, 0.00, -0.00, -1.00, 183.2, 596.0)">n</text><text xml:space="preserve" font-family="Helvetica-Light" font-size="25.9" fill="#000000" transform="matrix(1.00, 0.00, -0.00, -1.00, 197.6, 596.0)">i</text><text xml:space="preserve" font-family="Helvetica-Light" font-size="25.9" fill="#000000" transform="matrix(1.00, 0.00, -0.00, -1.00, 203.4, 596.0)">c</text><text xml:space="preserve" font-family="Helvetica-Light" font-size="25.9" fill="#000000" transform="matrix(1.00, 0.00, -0.00, -1.00, 217.8, 596.0)">a</text><text xml:space="preserve" font-family="Helvetica-Light" font-size="25.9" fill="#000000" transform="matrix(1.00, 0.00, -0.00, -1.00, 232.2, 596.0)">l</text><text xml:space="preserve" font-family="Helvetica-Light" font-size="25.9" fill="#000000" transform="matrix(1.00, 0.00, -0.00, -1.00, 238.0, 596.0)"> </text><text xml:space="preserve" font-family="Helvetica-Light" font-size="25.9" fill="#000000" transform="matrix(1.00, 0.00, -0.00, -1.00, 245.2, 596.0)">E</text><text xml:space="preserve" font-family="Helvetica-Light" font-size="25.9" fill="#000000" transform="matrix(1.00, 0.00, -0.00, -1.00, 261.0, 596.0)">n</text><text xml:space="preserve" font-family="Helvetica-Light" font-size="25.9" fill="#000000" transform="matrix(1.00, 0.00, -0.00, -1.00, 275.4, 596.0)">g</text><text xml:space="preserve" font-family="Helvetica-Light" font-size="25.9" fill="#000000" transform="matrix(1.00, 0.00, -0.00, -1.00, 291.3, 596.0)">i</text><text xml:space="preserve" font-family="Helvetica-Light" font-size="25.9" fill="#000000" transform="matrix(1.00, 0.00, -0.00, -1.00, 297.0, 596.0)">n</text><text xml:space="preserve" font-family="Helvetica-Light" font-size="25.9" fill="#000000" transform="matrix(1.00, 0.00, -0.00, -1.00, 311.4, 596.0)">e</text><text xml:space="preserve" font-family="Helvetica-Light" font-size="25.9" fill="#000000" transform="matrix(1.00, 0.00, -0.00, -1.00, 325.8, 596.0)">e</text><text xml:space="preserve" font-family="Helvetica-Light" font-size="25.9" fill="#000000" transform="matrix(1.00, 0.00, -0.00, -1.00, 340.3, 596.0)">r</text><text xml:space="preserve" font-family="Helvetica-Light" font-size="25.9" fill="#000000" transform="matrix(1.00, 0.00, -0.00, -1.00, 348.9, 596.0)"> </text><text xml:space="preserve" font-family="Helvetica-Light" font-size="25.9" fill="#000000" transform="matrix(1.00, 0.00, -0.00, -1.00, 356.1, 596.0)">b</text><text xml:space="preserve" font-family="Helvetica-Light" font-size="25.9" fill="#000000" transform="matrix(1.00, 0.00, -0.00, -1.00, 371.9, 596.0)">y</text><text xml:space="preserve" font-family="Helvetica-Light" font-size="25.9" fill="#000000" transform="matrix(1.00, 0.00, -0.00, -1.00, 384.9, 596.0)"> </text><text xml:space="preserve" font-family="Helvetica-Light" font-size="25.9" fill="#000000" transform="matrix(1.00, 0.00, -0.00, -1.00, 392.1, 596.0)">t</text><text xml:space="preserve" font-family="Helvetica-Light" font-size="25.9" fill="#000000" transform="matrix(1.00, 0.00, -0.00, -1.00, 399.3, 596.0)">r</text><text xml:space="preserve" font-family="Helvetica-Light" font-size="25.9" fill="#000000" transform="matrix(1.00, 0.00, -0.00, -1.00, 407.9, 596.0)">a</text><text xml:space="preserve" font-family="Helvetica-Light" font-size="25.9" fill="#000000" transform="matrix(1.00, 0.00, -0.00, -1.00, 422.3, 596.0)">i</text><text xml:space="preserve" font-family="Helvetica-Light" font-size="25.9" fill="#000000" transform="matrix(1.00, 0.00, -0.00, -1.00, 428.1, 596.0)">n</text><text xml:space="preserve" font-family="Helvetica-Light" font-size="25.9" fill="#000000" transform="matrix(1.00, 0.00, -0.00, -1.00, 442.5, 596.0)">i</text><text xml:space="preserve" font-family="Helvetica-Light" font-size="25.9" fill="#000000" transform="matrix(1.00, 0.00, -0.00, -1.00, 448.3, 596.0)">n</text><text xml:space="preserve" font-family="Helvetica-Light" font-size="25.9" fill="#000000" transform="matrix(1.00, 0.00, -0.00, -1.00, 462.7, 596.0)">g</text><text xml:space="preserve" font-family="Helvetica-Light" font-size="25.9" fill="#000000" transform="matrix(1.00, 0.00, -0.00, -1.00, 478.5, 596.0)">,</text><text xml:space="preserve" font-family="Helvetica-Light" font-size="25.9" fill="#000000" transform="matrix(1.00, 0.00, -0.00, -1.00, 485.7, 596.0)"> </text><text xml:space="preserve" font-family="Helvetica-Light" font-size="25.9" fill="#000000" transform="matrix(1.00, 0.00, -0.00, -1.00, 492.9, 596.0)">b</text><text xml:space="preserve" font-family="Helvetica-Light" font-size="25.9" fill="#000000" transform="matrix(1.00, 0.00, -0.00, -1.00, 508.8, 596.0)">u</text><text xml:space="preserve" font-family="Helvetica-Light" font-size="25.9" fill="#000000" transform="matrix(1.00, 0.00, -0.00, -1.00, 523.2, 596.0)">t</text><text xml:space="preserve" font-family="Helvetica-Light" font-size="25.9" fill="#000000" transform="matrix(1.00, 0.00, -0.00, -1.00, 530.4, 596.0)"> </text><text xml:space="preserve" font-family="Helvetica-Light" font-size="25.9" fill="#000000" transform="matrix(1.00, 0.00, -0.00, -1.00, 537.6, 596.0)">h</text><text xml:space="preserve" font-family="Helvetica-Light" font-size="25.9" fill="#000000" transform="matrix(1.00, 0.00, -0.00, -1.00, 552.0, 596.0)">a</text><text xml:space="preserve" font-family="Helvetica-Light" font-size="25.9" fill="#000000" transform="matrix(1.00, 0.00, -0.00, -1.00, 566.4, 596.0)">v</text><text xml:space="preserve" font-family="Helvetica-Light" font-size="25.9" fill="#000000" transform="matrix(1.00, 0.00, -0.00, -1.00, 579.4, 596.0)">e</text><text xml:space="preserve" font-family="Helvetica-Light" font-size="25.9" fill="#000000" transform="matrix(1.00, 0.00, -0.00, -1.00, 593.8, 596.0)"> </text><text xml:space="preserve" font-family="Helvetica-Light" font-size="25.9" fill="#000000" transform="matrix(1.00, 0.00, -0.00, -1.00, 601.0, 596.0)">b</text><text xml:space="preserve" font-family="Helvetica-Light" font-size="25.9" fill="#000000" transform="matrix(1.00, 0.00, -0.00, -1.00, 616.8, 596.0)">e</text><text xml:space="preserve" font-family="Helvetica-Light" font-size="25.9" fill="#000000" transform="matrix(1.00, 0.00, -0.00, -1.00, 631.2, 596.0)">e</text><text xml:space="preserve" font-family="Helvetica-Light" font-size="25.9" fill="#000000" transform="matrix(1.00, 0.00, -0.00, -1.00, 645.7, 596.0)">n</text><text xml:space="preserve" font-family="Helvetica-Light" font-size="25.9" fill="#000000" transform="matrix(1.00, 0.00, -0.00, -1.00, 660.1, 596.0)"> </text><text xml:space="preserve" font-family="Helvetica-Light" font-size="25.9" fill="#000000" transform="matrix(1.00, 0.00, -0.00, -1.00, 667.3, 596.0)">p</text><text xml:space="preserve" font-family="Helvetica-Light" font-size="25.9" fill="#000000" transform="matrix(1.00, 0.00, -0.00, -1.00, 683.1, 596.0)">r</text><text xml:space="preserve" font-family="Helvetica-Light" font-size="25.9" fill="#000000" transform="matrix(1.00, 0.00, -0.00, -1.00, 691.3, 596.0)">o</text><text xml:space="preserve" font-family="Helvetica-Light" font-size="25.9" fill="#000000" transform="matrix(1.00, 0.00, -0.00, -1.00, 705.7, 596.0)">g</text><text xml:space="preserve" font-family="Helvetica-Light" font-size="25.9" fill="#000000" transform="matrix(1.00, 0.00, -0.00, -1.00, 721.5, 596.0)">r</text><text xml:space="preserve" font-family="Helvetica-Light" font-size="25.9" fill="#000000" transform="matrix(1.00, 0.00, -0.00, -1.00, 730.1, 596.0)">a</text><text xml:space="preserve" font-family="Helvetica-Light" font-size="25.9" fill="#000000" transform="matrix(1.00, 0.00, -0.00, -1.00, 744.6, 596.0)">m</text><text xml:space="preserve" font-family="Helvetica-Light" font-size="25.9" fill="#000000" transform="matrix(1.00, 0.00, -0.00, -1.00, 766.2, 596.0)">m</text><text xml:space="preserve" font-family="Helvetica-Light" font-size="25.9" fill="#000000" transform="matrix(1.00, 0.00, -0.00, -1.00, 787.7, 596.0)">i</text><text xml:space="preserve" font-family="Helvetica-Light" font-size="25.9" fill="#000000" transform="matrix(1.00, 0.00, -0.00, -1.00, 793.5, 596.0)">n</text><text xml:space="preserve" font-family="Helvetica-Light" font-size="25.9" fill="#000000" transform="matrix(1.00, 0.00, -0.00, -1.00, 807.9, 596.0)">g</text><text xml:space="preserve" font-family="Helvetica-Light" font-size="25.9" fill="#000000" transform="matrix(1.00, 0.00, -0.00, -1.00, 823.7, 596.0)"> </text><text xml:space="preserve" font-family="Helvetica-Light" font-size="25.9" fill="#000000" transform="matrix(1.00, 0.00, -0.00, -1.00, 831.0, 596.0)">m</text><text xml:space="preserve" font-family="Helvetica-Light" font-size="25.9" fill="#000000" transform="matrix(1.00, 0.00, -0.00, -1.00, 852.5, 596.0)">y</text><text xml:space="preserve" font-family="Helvetica-Light" font-size="25.9" fill="#000000" transform="matrix(1.00, 0.00, -0.00, -1.00, 865.5, 596.0)"> </text><text xml:space="preserve" font-family="Helvetica-Light" font-size="25.9" fill="#000000" transform="matrix(1.00, 0.00, -0.00, -1.00, 872.7, 596.0)">e</text><text xml:space="preserve" font-family="Helvetica-Light" font-size="25.9" fill="#000000" transform="matrix(1.00, 0.00, -0.00, -1.00, 887.1, 596.0)">n</text><text xml:space="preserve" font-family="Helvetica-Light" font-size="25.9" fill="#000000" transform="matrix(1.00, 0.00, -0.00, -1.00, 901.5, 596.0)">t</text><text xml:space="preserve" font-family="Helvetica-Light" font-size="25.9" fill="#000000" transform="matrix(1.00, 0.00, -0.00, -1.00, 908.7, 596.0)">i</text><text xml:space="preserve" font-family="Helvetica-Light" font-size="25.9" fill="#000000" transform="matrix(1.00, 0.00, -0.00, -1.00, 914.5, 596.0)">r</text><text xml:space="preserve" font-family="Helvetica-Light" font-size="25.9" fill="#000000" transform="matrix(1.00, 0.00, -0.00, -1.00, 922.7, 596.0)">e</text><text xml:space="preserve" font-family="Helvetica-Light" font-size="25.9" fill="#000000" transform="matrix(1.00, 0.00, -0.00, -1.00, 937.1, 596.0)"> </text><text xml:space="preserve" font-family="Helvetica-Light" font-size="25.9" fill="#000000" transform="matrix(1.00, 0.00, -0.00, -1.00, 104.0, 565.0)">c</text><text xml:space="preserve" font-family="Helvetica-Light" font-size="25.9" fill="#000000" transform="matrix(1.00, 0.00, -0.00, -1.00, 118.4, 565.0)">a</text><text xml:space="preserve" font-family="Helvetica-Light" font-size="25.9" fill="#000000" transform="matrix(1.00, 0.00, -0.00, -1.00, 132.8, 565.0)">r</text><text xml:space="preserve" font-family="Helvetica-Light" font-size="25.9" fill="#000000" transform="matrix(1.00, 0.00, -0.00, -1.00, 141.0, 565.0)">e</text><text xml:space="preserve" font-family="Helvetica-Light" font-size="25.9" fill="#000000" transform="matrix(1.00, 0.00, -0.00, -1.00, 155.4, 565.0)">e</text><text xml:space="preserve" font-family="Helvetica-Light" font-size="25.9" fill="#000000" transform="matrix(1.00, 0.00, -0.00, -1.00, 169.8, 565.0)">r</text><text xml:space="preserve" font-family="Helvetica-Light" font-size="25.9" fill="#000000" transform="matrix(1.00, 0.00, -0.00, -1.00, 178.4, 565.0)"> </text><text xml:space="preserve" font-family="Helvetica-Light" font-size="19.4" fill="#000000" transform="matrix(1.00, 0.00, -0.00, -1.00, 79.0, 505.9)">•</text><text xml:space="preserve" font-family="Helvetica-Light" font-size="25.9" fill="#000000" transform="matrix(1.00, 0.00, -0.00, -1.00, 104.0, 503.0)">P</text><text xml:space="preserve" font-family="Helvetica-Light" font-size="25.9" fill="#000000" transform="matrix(1.00, 0.00, -0.00, -1.00, 119.8, 503.0)">r</text><text xml:space="preserve" font-family="Helvetica-Light" font-size="25.9" fill="#000000" transform="matrix(1.00, 0.00, -0.00, -1.00, 128.0, 503.0)">o</text><text xml:space="preserve" font-family="Helvetica-Light" font-size="25.9" fill="#000000" transform="matrix(1.00, 0.00, -0.00, -1.00, 142.4, 503.0)">g</text><text xml:space="preserve" font-family="Helvetica-Light" font-size="25.9" fill="#000000" transform="matrix(1.00, 0.00, -0.00, -1.00, 158.3, 503.0)">r</text><text xml:space="preserve" font-family="Helvetica-Light" font-size="25.9" fill="#000000" transform="matrix(1.00, 0.00, -0.00, -1.00, 166.9, 503.0)">a</text><text xml:space="preserve" font-family="Helvetica-Light" font-size="25.9" fill="#000000" transform="matrix(1.00, 0.00, -0.00, -1.00, 181.3, 503.0)">m</text><text xml:space="preserve" font-family="Helvetica-Light" font-size="25.9" fill="#000000" transform="matrix(1.00, 0.00, -0.00, -1.00, 202.9, 503.0)">m</text><text xml:space="preserve" font-family="Helvetica-Light" font-size="25.9" fill="#000000" transform="matrix(1.00, 0.00, -0.00, -1.00, 224.5, 503.0)">e</text><text xml:space="preserve" font-family="Helvetica-Light" font-size="25.9" fill="#000000" transform="matrix(1.00, 0.00, -0.00, -1.00, 238.9, 503.0)">d</text><text xml:space="preserve" font-family="Helvetica-Light" font-size="25.9" fill="#000000" transform="matrix(1.00, 0.00, -0.00, -1.00, 254.7, 503.0)"> </text><text xml:space="preserve" font-family="Helvetica-Light" font-size="25.9" fill="#000000" transform="matrix(1.00, 0.00, -0.00, -1.00, 261.9, 503.0)">i</text><text xml:space="preserve" font-family="Helvetica-Light" font-size="25.9" fill="#000000" transform="matrix(1.00, 0.00, -0.00, -1.00, 267.7, 503.0)">n</text><text xml:space="preserve" font-family="Helvetica-Light" font-size="25.9" fill="#000000" transform="matrix(1.00, 0.00, -0.00, -1.00, 282.1, 503.0)"> </text><text xml:space="preserve" font-family="Helvetica-Light" font-size="25.9" fill="#000000" transform="matrix(1.00, 0.00, -0.00, -1.00, 289.3, 503.0)">a</text><text xml:space="preserve" font-family="Helvetica-Light" font-size="25.9" fill="#000000" transform="matrix(1.00, 0.00, -0.00, -1.00, 303.7, 503.0)"> </text><text xml:space="preserve" font-family="Helvetica-Light" font-size="25.9" fill="#000000" transform="matrix(1.00, 0.00, -0.00, -1.00, 310.9, 503.0)">l</text><text xml:space="preserve" font-family="Helvetica-Light" font-size="25.9" fill="#000000" transform="matrix(1.00, 0.00, -0.00, -1.00, 316.7, 503.0)">o</text><text xml:space="preserve" font-family="Helvetica-Light" font-size="25.9" fill="#000000" transform="matrix(1.00, 0.00, -0.00, -1.00, 331.1, 503.0)">t</text><text xml:space="preserve" font-family="Helvetica-Light" font-size="25.9" fill="#000000" transform="matrix(1.00, 0.00, -0.00, -1.00, 338.3, 503.0)"> </text><text xml:space="preserve" font-family="Helvetica-Light" font-size="25.9" fill="#000000" transform="matrix(1.00, 0.00, -0.00, -1.00, 345.5, 503.0)">o</text><text xml:space="preserve" font-family="Helvetica-Light" font-size="25.9" fill="#000000" transform="matrix(1.00, 0.00, -0.00, -1.00, 359.9, 503.0)">f</text><text xml:space="preserve" font-family="Helvetica-Light" font-size="25.9" fill="#000000" transform="matrix(1.00, 0.00, -0.00, -1.00, 367.1, 503.0)"> </text><text xml:space="preserve" font-family="Helvetica-Light" font-size="25.9" fill="#000000" transform="matrix(1.00, 0.00, -0.00, -1.00, 374.3, 503.0)">l</text><text xml:space="preserve" font-family="Helvetica-Light" font-size="25.9" fill="#000000" transform="matrix(1.00, 0.00, -0.00, -1.00, 380.1, 503.0)">a</text><text xml:space="preserve" font-family="Helvetica-Light" font-size="25.9" fill="#000000" transform="matrix(1.00, 0.00, -0.00, -1.00, 394.5, 503.0)">n</text><text xml:space="preserve" font-family="Helvetica-Light" font-size="25.9" fill="#000000" transform="matrix(1.00, 0.00, -0.00, -1.00, 408.9, 503.0)">g</text><text xml:space="preserve" font-family="Helvetica-Light" font-size="25.9" fill="#000000" transform="matrix(1.00, 0.00, -0.00, -1.00, 424.7, 503.0)">u</text><text xml:space="preserve" font-family="Helvetica-Light" font-size="25.9" fill="#000000" transform="matrix(1.00, 0.00, -0.00, -1.00, 439.1, 503.0)">a</text><text xml:space="preserve" font-family="Helvetica-Light" font-size="25.9" fill="#000000" transform="matrix(1.00, 0.00, -0.00, -1.00, 453.6, 503.0)">g</text><text xml:space="preserve" font-family="Helvetica-Light" font-size="25.9" fill="#000000" transform="matrix(1.00, 0.00, -0.00, -1.00, 469.4, 503.0)">e</text><text xml:space="preserve" font-family="Helvetica-Light" font-size="25.9" fill="#000000" transform="matrix(1.00, 0.00, -0.00, -1.00, 483.8, 503.0)">s</text><text xml:space="preserve" font-family="Helvetica-Light" font-size="25.9" fill="#000000" transform="matrix(1.00, 0.00, -0.00, -1.00, 496.8, 503.0)"> </text><text xml:space="preserve" font-family="Helvetica-Light" font-size="19.4" fill="#000000" transform="matrix(1.00, 0.00, -0.00, -1.00, 114.0, 444.7)">•</text><text xml:space="preserve" font-family="Helvetica-Light" font-size="25.9" fill="#000000" transform="matrix(1.00, 0.00, -0.00, -1.00, 139.0, 442.0)">A</text><text xml:space="preserve" font-family="Helvetica-Light" font-size="25.9" fill="#000000" transform="matrix(1.00, 0.00, -0.00, -1.00, 156.3, 442.0)">n</text><text xml:space="preserve" font-family="Helvetica-Light" font-size="25.9" fill="#000000" transform="matrix(1.00, 0.00, -0.00, -1.00, 170.7, 442.0)">c</text><text xml:space="preserve" font-family="Helvetica-Light" font-size="25.9" fill="#000000" transform="matrix(1.00, 0.00, -0.00, -1.00, 185.1, 442.0)">i</text><text xml:space="preserve" font-family="Helvetica-Light" font-size="25.9" fill="#000000" transform="matrix(1.00, 0.00, -0.00, -1.00, 190.9, 442.0)">e</text><text xml:space="preserve" font-family="Helvetica-Light" font-size="25.9" fill="#000000" transform="matrix(1.00, 0.00, -0.00, -1.00, 205.3, 442.0)">n</text><text xml:space="preserve" font-family="Helvetica-Light" font-size="25.9" fill="#000000" transform="matrix(1.00, 0.00, -0.00, -1.00, 219.7, 442.0)">t</text><text xml:space="preserve" font-family="Helvetica-Light" font-size="25.9" fill="#000000" transform="matrix(1.00, 0.00, -0.00, -1.00, 226.9, 442.0)"> </text><text xml:space="preserve" font-family="Helvetica-Light" font-size="25.9" fill="#000000" transform="matrix(1.00, 0.00, -0.00, -1.00, 234.1, 442.0)">h</text><text xml:space="preserve" font-family="Helvetica-Light" font-size="25.9" fill="#000000" transform="matrix(1.00, 0.00, -0.00, -1.00, 248.5, 442.0)">i</text><text xml:space="preserve" font-family="Helvetica-Light" font-size="25.9" fill="#000000" transform="matrix(1.00, 0.00, -0.00, -1.00, 254.3, 442.0)">s</text><text xml:space="preserve" font-family="Helvetica-Light" font-size="25.9" fill="#000000" transform="matrix(1.00, 0.00, -0.00, -1.00, 267.2, 442.0)">t</text><text xml:space="preserve" font-family="Helvetica-Light" font-size="25.9" fill="#000000" transform="matrix(1.00, 0.00, -0.00, -1.00, 274.4, 442.0)">o</text><text xml:space="preserve" font-family="Helvetica-Light" font-size="25.9" fill="#000000" transform="matrix(1.00, 0.00, -0.00, -1.00, 288.8, 442.0)">r</text><text xml:space="preserve" font-family="Helvetica-Light" font-size="25.9" fill="#000000" transform="matrix(1.00, 0.00, -0.00, -1.00, 297.9, 442.0)">y</text><text xml:space="preserve" font-family="Helvetica-Light" font-size="25.9" fill="#000000" transform="matrix(1.00, 0.00, -0.00, -1.00, 310.9, 442.0)">:</text><text xml:space="preserve" font-family="Helvetica-Light" font-size="25.9" fill="#000000" transform="matrix(1.00, 0.00, -0.00, -1.00, 318.1, 442.0)"> </text><text xml:space="preserve" font-family="Helvetica-Light" font-size="25.9" fill="#000000" transform="matrix(1.00, 0.00, -0.00, -1.00, 325.3, 442.0)">P</text><text xml:space="preserve" font-family="Helvetica-Light" font-size="25.9" fill="#000000" transform="matrix(1.00, 0.00, -0.00, -1.00, 341.2, 442.0)">a</text><text xml:space="preserve" font-family="Helvetica-Light" font-size="25.9" fill="#000000" transform="matrix(1.00, 0.00, -0.00, -1.00, 355.6, 442.0)">s</text><text xml:space="preserve" font-family="Helvetica-Light" font-size="25.9" fill="#000000" transform="matrix(1.00, 0.00, -0.00, -1.00, 368.5, 442.0)">c</text><text xml:space="preserve" font-family="Helvetica-Light" font-size="25.9" fill="#000000" transform="matrix(1.00, 0.00, -0.00, -1.00, 382.9, 442.0)">a</text><text xml:space="preserve" font-family="Helvetica-Light" font-size="25.9" fill="#000000" transform="matrix(1.00, 0.00, -0.00, -1.00, 397.3, 442.0)">l</text><text xml:space="preserve" font-family="Helvetica-Light" font-size="25.9" fill="#000000" transform="matrix(1.00, 0.00, -0.00, -1.00, 403.1, 442.0)">,</text><text xml:space="preserve" font-family="Helvetica-Light" font-size="25.9" fill="#000000" transform="matrix(1.00, 0.00, -0.00, -1.00, 410.3, 442.0)"> </text><text xml:space="preserve" font-family="Helvetica-Light" font-size="25.9" fill="#000000" transform="matrix(1.00, 0.00, -0.00, -1.00, 417.5, 442.0)">V</text><text xml:space="preserve" font-family="Helvetica-Light" font-size="25.9" fill="#000000" transform="matrix(1.00, 0.00, -0.00, -1.00, 432.9, 442.0)">i</text><text xml:space="preserve" font-family="Helvetica-Light" font-size="25.9" fill="#000000" transform="matrix(1.00, 0.00, -0.00, -1.00, 438.6, 442.0)">s</text><text xml:space="preserve" font-family="Helvetica-Light" font-size="25.9" fill="#000000" transform="matrix(1.00, 0.00, -0.00, -1.00, 451.6, 442.0)">u</text><text xml:space="preserve" font-family="Helvetica-Light" font-size="25.9" fill="#000000" transform="matrix(1.00, 0.00, -0.00, -1.00, 466.0, 442.0)">a</text><text xml:space="preserve" font-family="Helvetica-Light" font-size="25.9" fill="#000000" transform="matrix(1.00, 0.00, -0.00, -1.00, 480.4, 442.0)">l</text><text xml:space="preserve" font-family="Helvetica-Light" font-size="25.9" fill="#000000" transform="matrix(1.00, 0.00, -0.00, -1.00, 486.2, 442.0)"> </text><text xml:space="preserve" font-family="Helvetica-Light" font-size="25.9" fill="#000000" transform="matrix(1.00, 0.00, -0.00, -1.00, 493.4, 442.0)">B</text><text xml:space="preserve" font-family="Helvetica-Light" font-size="25.9" fill="#000000" transform="matrix(1.00, 0.00, -0.00, -1.00, 510.7, 442.0)">a</text><text xml:space="preserve" font-family="Helvetica-Light" font-size="25.9" fill="#000000" transform="matrix(1.00, 0.00, -0.00, -1.00, 525.1, 442.0)">s</text><text xml:space="preserve" font-family="Helvetica-Light" font-size="25.9" fill="#000000" transform="matrix(1.00, 0.00, -0.00, -1.00, 538.0, 442.0)">i</text><text xml:space="preserve" font-family="Helvetica-Light" font-size="25.9" fill="#000000" transform="matrix(1.00, 0.00, -0.00, -1.00, 543.8, 442.0)">c</text><text xml:space="preserve" font-family="Helvetica-Light" font-size="25.9" fill="#000000" transform="matrix(1.00, 0.00, -0.00, -1.00, 558.2, 442.0)">,</text><text xml:space="preserve" font-family="Helvetica-Light" font-size="25.9" fill="#000000" transform="matrix(1.00, 0.00, -0.00, -1.00, 565.4, 442.0)"> </text><text xml:space="preserve" font-family="Helvetica-Light" font-size="25.9" fill="#000000" transform="matrix(1.00, 0.00, -0.00, -1.00, 572.6, 442.0)">F</text><text xml:space="preserve" font-family="Helvetica-Light" font-size="25.9" fill="#000000" transform="matrix(1.00, 0.00, -0.00, -1.00, 587.0, 442.0)">o</text><text xml:space="preserve" font-family="Helvetica-Light" font-size="25.9" fill="#000000" transform="matrix(1.00, 0.00, -0.00, -1.00, 601.4, 442.0)">r</text><text xml:space="preserve" font-family="Helvetica-Light" font-size="25.9" fill="#000000" transform="matrix(1.00, 0.00, -0.00, -1.00, 610.5, 442.0)">t</text><text xml:space="preserve" font-family="Helvetica-Light" font-size="25.9" fill="#000000" transform="matrix(1.00, 0.00, -0.00, -1.00, 617.7, 442.0)">r</text><text xml:space="preserve" font-family="Helvetica-Light" font-size="25.9" fill="#000000" transform="matrix(1.00, 0.00, -0.00, -1.00, 626.4, 442.0)">a</text><text xml:space="preserve" font-family="Helvetica-Light" font-size="25.9" fill="#000000" transform="matrix(1.00, 0.00, -0.00, -1.00, 640.8, 442.0)">n</text><text xml:space="preserve" font-family="Helvetica-Light" font-size="25.9" fill="#000000" transform="matrix(1.00, 0.00, -0.00, -1.00, 655.2, 442.0)"> </text><text xml:space="preserve" font-family="Helvetica-Light" font-size="19.4" fill="#000000" transform="matrix(1.00, 0.00, -0.00, -1.00, 114.0, 383.4)">•</text><text xml:space="preserve" font-family="Helvetica-Light" font-size="25.9" fill="#000000" transform="matrix(1.00, 0.00, -0.00, -1.00, 139.0, 381.0)">C</text><text xml:space="preserve" font-family="Helvetica-Light" font-size="25.9" fill="#000000" transform="matrix(1.00, 0.00, -0.00, -1.00, 157.7, 381.0)">/</text><text xml:space="preserve" font-family="Helvetica-Light" font-size="25.9" fill="#000000" transform="matrix(1.00, 0.00, -0.00, -1.00, 164.9, 381.0)">C</text><text xml:space="preserve" font-family="Helvetica-Light" font-size="25.9" fill="#000000" transform="matrix(1.00, 0.00, -0.00, -1.00, 183.6, 381.0)">+</text><text xml:space="preserve" font-family="Helvetica-Light" font-size="25.9" fill="#000000" transform="matrix(1.00, 0.00, -0.00, -1.00, 200.7, 381.0)">+</text><text xml:space="preserve" font-family="Helvetica-Light" font-size="25.9" fill="#000000" transform="matrix(1.00, 0.00, -0.00, -1.00, 217.8, 381.0)"> </text><text xml:space="preserve" font-family="Helvetica-Light" font-size="25.9" fill="#000000" transform="matrix(1.00, 0.00, -0.00, -1.00, 225.1, 381.0)">(</text><text xml:space="preserve" font-family="Helvetica-Light" font-size="25.9" fill="#000000" transform="matrix(1.00, 0.00, -0.00, -1.00, 233.7, 381.0)">4</text><text xml:space="preserve" font-family="Helvetica-Light" font-size="25.9" fill="#000000" transform="matrix(1.00, 0.00, -0.00, -1.00, 248.1, 381.0)">+</text><text xml:space="preserve" font-family="Helvetica-Light" font-size="25.9" fill="#000000" transform="matrix(1.00, 0.00, -0.00, -1.00, 265.2, 381.0)"> </text><text xml:space="preserve" font-family="Helvetica-Light" font-size="25.9" fill="#000000" transform="matrix(1.00, 0.00, -0.00, -1.00, 272.4, 381.0)">y</text><text xml:space="preserve" font-family="Helvetica-Light" font-size="25.9" fill="#000000" transform="matrix(1.00, 0.00, -0.00, -1.00, 285.4, 381.0)">e</text><text xml:space="preserve" font-family="Helvetica-Light" font-size="25.9" fill="#000000" transform="matrix(1.00, 0.00, -0.00, -1.00, 299.8, 381.0)">a</text><text xml:space="preserve" font-family="Helvetica-Light" font-size="25.9" fill="#000000" transform="matrix(1.00, 0.00, -0.00, -1.00, 314.2, 381.0)">r</text><text xml:space="preserve" font-family="Helvetica-Light" font-size="25.9" fill="#000000" transform="matrix(1.00, 0.00, -0.00, -1.00, 322.8, 381.0)">s</text><text xml:space="preserve" font-family="Helvetica-Light" font-size="25.9" fill="#000000" transform="matrix(1.00, 0.00, -0.00, -1.00, 335.8, 381.0)">)</text><text xml:space="preserve" font-family="Helvetica-Light" font-size="25.9" fill="#000000" transform="matrix(1.00, 0.00, -0.00, -1.00, 344.4, 381.0)"> </text><text xml:space="preserve" font-family="Helvetica-Light" font-size="19.4" fill="#000000" transform="matrix(1.00, 0.00, -0.00, -1.00, 114.0, 322.2)">•</text><text xml:space="preserve" font-family="Helvetica-Light" font-size="25.9" fill="#000000" transform="matrix(1.00, 0.00, -0.00, -1.00, 139.0, 320.0)">J</text><text xml:space="preserve" font-family="Helvetica-Light" font-size="25.9" fill="#000000" transform="matrix(1.00, 0.00, -0.00, -1.00, 152.0, 320.0)">a</text><text xml:space="preserve" font-family="Helvetica-Light" font-size="25.9" fill="#000000" transform="matrix(1.00, 0.00, -0.00, -1.00, 166.4, 320.0)">v</text><text xml:space="preserve" font-family="Helvetica-Light" font-size="25.9" fill="#000000" transform="matrix(1.00, 0.00, -0.00, -1.00, 179.3, 320.0)">a</text><text xml:space="preserve" font-family="Helvetica-Light" font-size="25.9" fill="#000000" transform="matrix(1.00, 0.00, -0.00, -1.00, 193.7, 320.0)"> </text><text xml:space="preserve" font-family="Helvetica-Light" font-size="25.9" fill="#000000" transform="matrix(1.00, 0.00, -0.00, -1.00, 200.9, 320.0)">(</text><text xml:space="preserve" font-family="Helvetica-Light" font-size="25.9" fill="#000000" transform="matrix(1.00, 0.00, -0.00, -1.00, 209.6, 320.0)">1</text><text xml:space="preserve" font-family="Helvetica-Light" font-size="25.9" fill="#000000" transform="matrix(1.00, 0.00, -0.00, -1.00, 224.0, 320.0)">0</text><text xml:space="preserve" font-family="Helvetica-Light" font-size="25.9" fill="#000000" transform="matrix(1.00, 0.00, -0.00, -1.00, 238.4, 320.0)">+</text><text xml:space="preserve" font-family="Helvetica-Light" font-size="25.9" fill="#000000" transform="matrix(1.00, 0.00, -0.00, -1.00, 255.5, 320.0)"> </text><text xml:space="preserve" font-family="Helvetica-Light" font-size="25.9" fill="#000000" transform="matrix(1.00, 0.00, -0.00, -1.00, 262.7, 320.0)">y</text><text xml:space="preserve" font-family="Helvetica-Light" font-size="25.9" fill="#000000" transform="matrix(1.00, 0.00, -0.00, -1.00, 275.7, 320.0)">e</text><text xml:space="preserve" font-family="Helvetica-Light" font-size="25.9" fill="#000000" transform="matrix(1.00, 0.00, -0.00, -1.00, 290.1, 320.0)">a</text><text xml:space="preserve" font-family="Helvetica-Light" font-size="25.9" fill="#000000" transform="matrix(1.00, 0.00, -0.00, -1.00, 304.5, 320.0)">r</text><text xml:space="preserve" font-family="Helvetica-Light" font-size="25.9" fill="#000000" transform="matrix(1.00, 0.00, -0.00, -1.00, 313.1, 320.0)">s</text><text xml:space="preserve" font-family="Helvetica-Light" font-size="25.9" fill="#000000" transform="matrix(1.00, 0.00, -0.00, -1.00, 326.1, 320.0)">)</text><text xml:space="preserve" font-family="Helvetica-Light" font-size="25.9" fill="#000000" transform="matrix(1.00, 0.00, -0.00, -1.00, 334.7, 320.0)"> </text><text xml:space="preserve" font-family="Helvetica-Light" font-size="19.4" fill="#000000" transform="matrix(1.00, 0.00, -0.00, -1.00, 114.0, 261.0)">•</text><text xml:space="preserve" font-family="Helvetica-Light" font-size="25.9" fill="#000000" transform="matrix(1.00, 0.00, -0.00, -1.00, 139.0, 258.0)">S</text><text xml:space="preserve" font-family="Helvetica-Light" font-size="25.9" fill="#000000" transform="matrix(1.00, 0.00, -0.00, -1.00, 154.8, 258.0)">c</text><text xml:space="preserve" font-family="Helvetica-Light" font-size="25.9" fill="#000000" transform="matrix(1.00, 0.00, -0.00, -1.00, 169.2, 258.0)">a</text><text xml:space="preserve" font-family="Helvetica-Light" font-size="25.9" fill="#000000" transform="matrix(1.00, 0.00, -0.00, -1.00, 183.7, 258.0)">l</text><text xml:space="preserve" font-family="Helvetica-Light" font-size="25.9" fill="#000000" transform="matrix(1.00, 0.00, -0.00, -1.00, 189.4, 258.0)">a</text><text xml:space="preserve" font-family="Helvetica-Light" font-size="25.9" fill="#000000" transform="matrix(1.00, 0.00, -0.00, -1.00, 203.8, 258.0)"> </text><text xml:space="preserve" font-family="Helvetica-Light" font-size="25.9" fill="#000000" transform="matrix(1.00, 0.00, -0.00, -1.00, 211.0, 258.0)">(</text><text xml:space="preserve" font-family="Helvetica-Light" font-size="25.9" fill="#000000" transform="matrix(1.00, 0.00, -0.00, -1.00, 219.7, 258.0)">6</text><text xml:space="preserve" font-family="Helvetica-Light" font-size="25.9" fill="#000000" transform="matrix(1.00, 0.00, -0.00, -1.00, 234.1, 258.0)">+</text><text xml:space="preserve" font-family="Helvetica-Light" font-size="25.9" fill="#000000" transform="matrix(1.00, 0.00, -0.00, -1.00, 251.2, 258.0)"> </text><text xml:space="preserve" font-family="Helvetica-Light" font-size="25.9" fill="#000000" transform="matrix(1.00, 0.00, -0.00, -1.00, 258.4, 258.0)">y</text><text xml:space="preserve" font-family="Helvetica-Light" font-size="25.9" fill="#000000" transform="matrix(1.00, 0.00, -0.00, -1.00, 271.3, 258.0)">e</text><text xml:space="preserve" font-family="Helvetica-Light" font-size="25.9" fill="#000000" transform="matrix(1.00, 0.00, -0.00, -1.00, 285.8, 258.0)">a</text><text xml:space="preserve" font-family="Helvetica-Light" font-size="25.9" fill="#000000" transform="matrix(1.00, 0.00, -0.00, -1.00, 300.2, 258.0)">r</text><text xml:space="preserve" font-family="Helvetica-Light" font-size="25.9" fill="#000000" transform="matrix(1.00, 0.00, -0.00, -1.00, 308.8, 258.0)">s</text><text xml:space="preserve" font-family="Helvetica-Light" font-size="25.9" fill="#000000" transform="matrix(1.00, 0.00, -0.00, -1.00, 321.8, 258.0)">)</text><text xml:space="preserve" font-family="Helvetica-Light" font-size="25.9" fill="#000000" transform="matrix(1.00, 0.00, -0.00, -1.00, 330.4, 258.0)"> </text><text xml:space="preserve" font-family="Helvetica-Light" font-size="19.4" fill="#000000" transform="matrix(1.00, 0.00, -0.00, -1.00, 114.0, 199.7)">•</text><text xml:space="preserve" font-family="Helvetica-Light" font-size="25.9" fill="#000000" transform="matrix(1.00, 0.00, -0.00, -1.00, 139.0, 197.0)">C</text><text xml:space="preserve" font-family="Helvetica-Light" font-size="25.9" fill="#000000" transform="matrix(1.00, 0.00, -0.00, -1.00, 157.7, 197.0)">l</text><text xml:space="preserve" font-family="Helvetica-Light" font-size="25.9" fill="#000000" transform="matrix(1.00, 0.00, -0.00, -1.00, 163.5, 197.0)">o</text><text xml:space="preserve" font-family="Helvetica-Light" font-size="25.9" fill="#000000" transform="matrix(1.00, 0.00, -0.00, -1.00, 177.9, 197.0)">j</text><text xml:space="preserve" font-family="Helvetica-Light" font-size="25.9" fill="#000000" transform="matrix(1.00, 0.00, -0.00, -1.00, 183.6, 197.0)">u</text><text xml:space="preserve" font-family="Helvetica-Light" font-size="25.9" fill="#000000" transform="matrix(1.00, 0.00, -0.00, -1.00, 198.0, 197.0)">r</text><text xml:space="preserve" font-family="Helvetica-Light" font-size="25.9" fill="#000000" transform="matrix(1.00, 0.00, -0.00, -1.00, 206.2, 197.0)">e</text><text xml:space="preserve" font-family="Helvetica-Light" font-size="25.9" fill="#000000" transform="matrix(1.00, 0.00, -0.00, -1.00, 220.6, 197.0)"> </text><text xml:space="preserve" font-family="Helvetica-Light" font-size="25.9" fill="#000000" transform="matrix(1.00, 0.00, -0.00, -1.00, 227.8, 197.0)">(</text><text xml:space="preserve" font-family="Helvetica-Light" font-size="25.9" fill="#000000" transform="matrix(1.00, 0.00, -0.00, -1.00, 236.5, 197.0)">2</text><text xml:space="preserve" font-family="Helvetica-Light" font-size="25.9" fill="#000000" transform="matrix(1.00, 0.00, -0.00, -1.00, 250.9, 197.0)">+</text><text xml:space="preserve" font-family="Helvetica-Light" font-size="25.9" fill="#000000" transform="matrix(1.00, 0.00, -0.00, -1.00, 268.0, 197.0)"> </text><text xml:space="preserve" font-family="Helvetica-Light" font-size="25.9" fill="#000000" transform="matrix(1.00, 0.00, -0.00, -1.00, 275.2, 197.0)">y</text><text xml:space="preserve" font-family="Helvetica-Light" font-size="25.9" fill="#000000" transform="matrix(1.00, 0.00, -0.00, -1.00, 288.1, 197.0)">e</text><text xml:space="preserve" font-family="Helvetica-Light" font-size="25.9" fill="#000000" transform="matrix(1.00, 0.00, -0.00, -1.00, 302.6, 197.0)">a</text><text xml:space="preserve" font-family="Helvetica-Light" font-size="25.9" fill="#000000" transform="matrix(1.00, 0.00, -0.00, -1.00, 317.0, 197.0)">r</text><text xml:space="preserve" font-family="Helvetica-Light" font-size="25.9" fill="#000000" transform="matrix(1.00, 0.00, -0.00, -1.00, 325.6, 197.0)">s</text><text xml:space="preserve" font-family="Helvetica-Light" font-size="25.9" fill="#000000" transform="matrix(1.00, 0.00, -0.00, -1.00, 338.6, 197.0)">)</text><text xml:space="preserve" font-family="Helvetica-Light" font-size="25.9" fill="#000000" transform="matrix(1.00, 0.00, -0.00, -1.00, 347.2, 197.0)"> </text><text xml:space="preserve" font-family="Helvetica-Light" font-size="19.4" fill="#000000" transform="matrix(1.00, 0.00, -0.00, -1.00, 79.0, 138.5)">•</text><text xml:space="preserve" font-family="Helvetica-Light" font-size="25.9" fill="#000000" transform="matrix(1.00, 0.00, -0.00, -1.00, 104.0, 136.0)">I</text><text xml:space="preserve" font-family="Helvetica-Light" font-size="25.9" fill="#000000" transform="matrix(1.00, 0.00, -0.00, -1.00, 111.2, 136.0)"> </text><text xml:space="preserve" font-family="Helvetica-Light" font-size="25.9" fill="#000000" transform="matrix(1.00, 0.00, -0.00, -1.00, 118.4, 136.0)">a</text><text xml:space="preserve" font-family="Helvetica-Light" font-size="25.9" fill="#000000" transform="matrix(1.00, 0.00, -0.00, -1.00, 132.8, 136.0)">m</text><text xml:space="preserve" font-family="Helvetica-Light" font-size="25.9" fill="#000000" transform="matrix(1.00, 0.00, -0.00, -1.00, 154.4, 136.0)"> </text><text xml:space="preserve" font-family="Helvetica-Light" font-size="25.9" fill="#000000" transform="matrix(1.00, 0.00, -0.00, -1.00, 161.6, 136.0)">v</text><text xml:space="preserve" font-family="Helvetica-Light" font-size="25.9" fill="#000000" transform="matrix(1.00, 0.00, -0.00, -1.00, 174.6, 136.0)">e</text><text xml:space="preserve" font-family="Helvetica-Light" font-size="25.9" fill="#000000" transform="matrix(1.00, 0.00, -0.00, -1.00, 189.0, 136.0)">r</text><text xml:space="preserve" font-family="Helvetica-Light" font-size="25.9" fill="#000000" transform="matrix(1.00, 0.00, -0.00, -1.00, 198.1, 136.0)">y</text><text xml:space="preserve" font-family="Helvetica-Light" font-size="25.9" fill="#000000" transform="matrix(1.00, 0.00, -0.00, -1.00, 211.0, 136.0)"> </text><text xml:space="preserve" font-family="Helvetica-Light" font-size="25.9" fill="#000000" transform="matrix(1.00, 0.00, -0.00, -1.00, 218.3, 136.0)">f</text><text xml:space="preserve" font-family="Helvetica-Light" font-size="25.9" fill="#000000" transform="matrix(1.00, 0.00, -0.00, -1.00, 225.5, 136.0)">a</text><text xml:space="preserve" font-family="Helvetica-Light" font-size="25.9" fill="#000000" transform="matrix(1.00, 0.00, -0.00, -1.00, 239.9, 136.0)">m</text><text xml:space="preserve" font-family="Helvetica-Light" font-size="25.9" fill="#000000" transform="matrix(1.00, 0.00, -0.00, -1.00, 261.5, 136.0)">i</text><text xml:space="preserve" font-family="Helvetica-Light" font-size="25.9" fill="#000000" transform="matrix(1.00, 0.00, -0.00, -1.00, 267.2, 136.0)">l</text><text xml:space="preserve" font-family="Helvetica-Light" font-size="25.9" fill="#000000" transform="matrix(1.00, 0.00, -0.00, -1.00, 273.0, 136.0)">i</text><text xml:space="preserve" font-family="Helvetica-Light" font-size="25.9" fill="#000000" transform="matrix(1.00, 0.00, -0.00, -1.00, 278.7, 136.0)">a</text><text xml:space="preserve" font-family="Helvetica-Light" font-size="25.9" fill="#000000" transform="matrix(1.00, 0.00, -0.00, -1.00, 293.1, 136.0)">r</text><text xml:space="preserve" font-family="Helvetica-Light" font-size="25.9" fill="#000000" transform="matrix(1.00, 0.00, -0.00, -1.00, 301.8, 136.0)"> </text><text xml:space="preserve" font-family="Helvetica-Light" font-size="25.9" fill="#000000" transform="matrix(1.00, 0.00, -0.00, -1.00, 309.0, 136.0)">w</text><text xml:space="preserve" font-family="Helvetica-Light" font-size="25.9" fill="#000000" transform="matrix(1.00, 0.00, -0.00, -1.00, 327.7, 136.0)">i</text><text xml:space="preserve" font-family="Helvetica-Light" font-size="25.9" fill="#000000" transform="matrix(1.00, 0.00, -0.00, -1.00, 333.4, 136.0)">t</text><text xml:space="preserve" font-family="Helvetica-Light" font-size="25.9" fill="#000000" transform="matrix(1.00, 0.00, -0.00, -1.00, 340.6, 136.0)">h</text><text xml:space="preserve" font-family="Helvetica-Light" font-size="25.9" fill="#000000" transform="matrix(1.00, 0.00, -0.00, -1.00, 355.1, 136.0)"> </text><text xml:space="preserve" font-family="Helvetica-Light" font-size="25.9" fill="#000000" transform="matrix(1.00, 0.00, -0.00, -1.00, 362.3, 136.0)">O</text><text xml:space="preserve" font-family="Helvetica-Light" font-size="25.9" fill="#000000" transform="matrix(1.00, 0.00, -0.00, -1.00, 382.4, 136.0)">O</text><text xml:space="preserve" font-family="Helvetica-Light" font-size="25.9" fill="#000000" transform="matrix(1.00, 0.00, -0.00, -1.00, 402.6, 136.0)">P</text><text xml:space="preserve" font-family="Helvetica-Light" font-size="25.9" fill="#000000" transform="matrix(1.00, 0.00, -0.00, -1.00, 418.4, 136.0)"> </text><text xml:space="preserve" font-family="Helvetica-Light" font-size="19.4" fill="#000000" transform="matrix(1.00, 0.00, -0.00, -1.00, 79.0, 77.2)">•</text><text xml:space="preserve" font-family="Helvetica-Light" font-size="25.9" fill="#000000" transform="matrix(1.00, 0.00, -0.00, -1.00, 104.0, 75.0)">F</text><text xml:space="preserve" font-family="Helvetica-Light" font-size="25.9" fill="#000000" transform="matrix(1.00, 0.00, -0.00, -1.00, 118.4, 75.0)">P</text><text xml:space="preserve" font-family="Helvetica-Light" font-size="25.9" fill="#000000" transform="matrix(1.00, 0.00, -0.00, -1.00, 134.2, 75.0)"> </text><text xml:space="preserve" font-family="Helvetica-Light" font-size="25.9" fill="#000000" transform="matrix(1.00, 0.00, -0.00, -1.00, 141.5, 75.0)">i</text><text xml:space="preserve" font-family="Helvetica-Light" font-size="25.9" fill="#000000" transform="matrix(1.00, 0.00, -0.00, -1.00, 147.2, 75.0)">s</text><text xml:space="preserve" font-family="Helvetica-Light" font-size="25.9" fill="#000000" transform="matrix(1.00, 0.00, -0.00, -1.00, 160.2, 75.0)"> </text><text xml:space="preserve" font-family="Helvetica-Light" font-size="25.9" fill="#000000" transform="matrix(1.00, 0.00, -0.00, -1.00, 167.4, 75.0)">a</text><text xml:space="preserve" font-family="Helvetica-Light" font-size="25.9" fill="#000000" transform="matrix(1.00, 0.00, -0.00, -1.00, 181.8, 75.0)">w</text><text xml:space="preserve" font-family="Helvetica-Light" font-size="25.9" fill="#000000" transform="matrix(1.00, 0.00, -0.00, -1.00, 200.5, 75.0)">e</text><text xml:space="preserve" font-family="Helvetica-Light" font-size="25.9" fill="#000000" transform="matrix(1.00, 0.00, -0.00, -1.00, 214.9, 75.0)">s</text><text xml:space="preserve" font-family="Helvetica-Light" font-size="25.9" fill="#000000" transform="matrix(1.00, 0.00, -0.00, -1.00, 227.9, 75.0)">o</text><text xml:space="preserve" font-family="Helvetica-Light" font-size="25.9" fill="#000000" transform="matrix(1.00, 0.00, -0.00, -1.00, 242.3, 75.0)">m</text><text xml:space="preserve" font-family="Helvetica-Light" font-size="25.9" fill="#000000" transform="matrix(1.00, 0.00, -0.00, -1.00, 263.9, 75.0)">e</text><text xml:space="preserve" font-family="Helvetica-Light" font-size="25.9" fill="#000000" transform="matrix(1.00, 0.00, -0.00, -1.00, 278.3, 75.0)">!</text></g></svg>