<?xml version="1.0" encoding="UTF-8" standalone="no"?><svg xmlns="http://www.w3.org/2000/svg" xmlns:xlink="http://www.w3.org/1999/xlink" clip-rule="evenodd" stroke-miterlimit="4.00" viewBox="0 0 1024 768"><desc>SVG generated by Keynote</desc><defs></defs><g transform="matrix(1.00, 0.00, -0.00, -1.00, 0.0, 768.0)"><g><clipPath id="clip-291"><path d="M 0.0 768.0 L 1024.0 768.0 L 1024.0 0.0 L 0.0 0.0 Z M 0.0 768.0 "></path></clipPath><g clip-path="url(#clip-291)"><image xlink:href="../../39451CEE-E280-41CA-872D-216C9FC86FAF/assets/43DA95A1552523200D88D33196FD3A18.jpeg" width="1024.00" height="768.00" transform="matrix(1.00, 0.00, -0.00, -1.00, 0.0, 768.0)"></image></g></g><text xml:space="preserve" font-family="MarkerFelt-Thin" font-size="80.0" fill="#45A6DE" transform="matrix(1.00, 0.00, -0.00, -1.00, 256.0, 626.0)">C</text><text xml:space="preserve" font-family="MarkerFelt-Thin" font-size="80.0" fill="#45A6DE" transform="matrix(1.00, 0.00, -0.00, -1.00, 296.0, 626.0)">u</text><text xml:space="preserve" font-family="MarkerFelt-Thin" font-size="80.0" fill="#45A6DE" transform="matrix(1.00, 0.00, -0.00, -1.00, 330.8, 626.0)">m</text><text xml:space="preserve" font-family="MarkerFelt-Thin" font-size="80.0" fill="#45A6DE" transform="matrix(1.00, 0.00, -0.00, -1.00, 388.4, 626.0)">u</text><text xml:space="preserve" font-family="MarkerFelt-Thin" font-size="80.0" fill="#45A6DE" transform="matrix(1.00, 0.00, -0.00, -1.00, 424.2, 626.0)">l</text><text xml:space="preserve" font-family="MarkerFelt-Thin" font-size="80.0" fill="#45A6DE" transform="matrix(1.00, 0.00, -0.00, -1.00, 443.9, 626.0)">a</text><text xml:space="preserve" font-family="MarkerFelt-Thin" font-size="80.0" fill="#45A6DE" transform="matrix(1.00, 0.00, -0.00, -1.00, 483.0, 626.0)">t</text><text xml:space="preserve" font-family="MarkerFelt-Thin" font-size="80.0" fill="#45A6DE" transform="matrix(1.00, 0.00, -0.00, -1.00, 517.4, 626.0)">i</text><text xml:space="preserve" font-family="MarkerFelt-Thin" font-size="80.0" fill="#45A6DE" transform="matrix(1.00, 0.00, -0.00, -1.00, 540.3, 626.0)">v</text><text xml:space="preserve" font-family="MarkerFelt-Thin" font-size="80.0" fill="#45A6DE" transform="matrix(1.00, 0.00, -0.00, -1.00, 577.2, 626.0)">e</text><text xml:space="preserve" font-family="MarkerFelt-Thin" font-size="80.0" fill="#45A6DE" transform="matrix(1.00, 0.00, -0.00, -1.00, 607.6, 626.0)"> </text><text xml:space="preserve" font-family="MarkerFelt-Thin" font-size="80.0" fill="#45A6DE" transform="matrix(1.00, 0.00, -0.00, -1.00, 627.6, 626.0)">C</text><text xml:space="preserve" font-family="MarkerFelt-Thin" font-size="80.0" fill="#45A6DE" transform="matrix(1.00, 0.00, -0.00, -1.00, 667.9, 626.0)">o</text><text xml:space="preserve" font-family="MarkerFelt-Thin" font-size="80.0" fill="#45A6DE" transform="matrix(1.00, 0.00, -0.00, -1.00, 704.2, 626.0)">s</text><text xml:space="preserve" font-family="MarkerFelt-Thin" font-size="80.0" fill="#45A6DE" transform="matrix(1.00, 0.00, -0.00, -1.00, 739.0, 626.0)">t</text><path d="M 267.3 63.0 L 267.3 374.0 " fill="none" stroke="#B8B8B8" stroke-width="1.00" transform="matrix(1.00, 0.00, 0.00, -1.00, 98.2, 559.0)"></path><path d="M 448.3 63.0 L 448.3 374.0 " fill="none" stroke="#B8B8B8" stroke-width="1.00" transform="matrix(1.00, 0.00, 0.00, -1.00, 98.2, 559.0)"></path><path d="M 630.3 63.0 L 630.3 374.0 " fill="none" stroke="#B8B8B8" stroke-width="1.00" transform="matrix(1.00, 0.00, 0.00, -1.00, 98.2, 559.0)"></path><path d="M 811.3 63.0 L 811.3 374.0 " fill="none" stroke="#B8B8B8" stroke-width="1.00" transform="matrix(1.00, 0.00, 0.00, -1.00, 98.2, 559.0)"></path><g><g><clipPath id="clip-292"><path d="M 0.0 0.0 L 1024.0 0.0 L 1024.0 768.0 L 0.0 768.0 Z M 0.0 0.0 "></path></clipPath><g clip-path="url(#clip-292)"><path d="M 85.3 374.5 L 85.3 62.5 " fill="none" stroke="#858585" stroke-opacity="0.56" stroke-width="1.00" stroke-linecap="square" transform="matrix(1.00, 0.00, 0.00, -1.00, 98.2, 559.0)"></path></g></g></g><g><g><clipPath id="clip-293"><path d="M 97.2 402.8 L 164.8 402.8 L 164.8 433.8 L 97.2 433.8 Z M 97.2 402.8 "></path></clipPath><g clip-path="url(#clip-293)"><text xml:space="preserve" font-family="MarkerFelt-Thin" font-size="27.0" fill="#858585" transform="matrix(1.00, 0.00, -0.00, -1.00, 99.0, 410.0)">J</text><text xml:space="preserve" font-family="MarkerFelt-Thin" font-size="27.0" fill="#858585" transform="matrix(1.00, 0.00, -0.00, -1.00, 110.6, 410.0)">e</text><text xml:space="preserve" font-family="MarkerFelt-Thin" font-size="27.0" fill="#858585" transform="matrix(1.00, 0.00, -0.00, -1.00, 122.6, 410.0)">n</text><text xml:space="preserve" font-family="MarkerFelt-Thin" font-size="27.0" fill="#858585" transform="matrix(1.00, 0.00, -0.00, -1.00, 136.9, 410.0)">n</text><text xml:space="preserve" font-family="MarkerFelt-Thin" font-size="27.0" fill="#858585" transform="matrix(1.00, 0.00, -0.00, -1.00, 150.9, 410.0)">y</text></g></g><g><clipPath id="clip-294"><path d="M 124.0 247.1 L 164.8 247.1 L 164.8 278.1 L 124.0 278.1 Z M 124.0 247.1 "></path></clipPath><g clip-path="url(#clip-294)"><text xml:space="preserve" font-family="MarkerFelt-Thin" font-size="27.0" fill="#858585" transform="matrix(1.00, 0.00, -0.00, -1.00, 126.0, 254.0)">B</text><text xml:space="preserve" font-family="MarkerFelt-Thin" font-size="27.0" fill="#858585" transform="matrix(1.00, 0.00, -0.00, -1.00, 140.2, 254.0)">o</text><text xml:space="preserve" font-family="MarkerFelt-Thin" font-size="27.0" fill="#858585" transform="matrix(1.00, 0.00, -0.00, -1.00, 152.2, 254.0)">b</text></g></g><g><clipPath id="clip-295"><path d="M 183.9 99.6 L 909.9 99.6 L 909.9 143.1 L 183.9 143.1 Z M 183.9 99.6 "></path></clipPath><g clip-path="url(#clip-295)"><text xml:space="preserve" font-family="MarkerFelt-Thin" font-size="27.0" fill="#858585" transform="matrix(1.00, 0.00, -0.00, -1.00, 461.0, 106.0)">D</text><text xml:space="preserve" font-family="MarkerFelt-Thin" font-size="27.0" fill="#858585" transform="matrix(1.00, 0.00, -0.00, -1.00, 474.2, 106.0)">a</text><text xml:space="preserve" font-family="MarkerFelt-Thin" font-size="27.0" fill="#858585" transform="matrix(1.00, 0.00, -0.00, -1.00, 486.6, 106.0)">y</text><text xml:space="preserve" font-family="MarkerFelt-Thin" font-size="27.0" fill="#858585" transform="matrix(1.00, 0.00, -0.00, -1.00, 499.3, 106.0)">s</text><text xml:space="preserve" font-family="MarkerFelt-Thin" font-size="27.0" fill="#858585" transform="matrix(1.00, 0.00, -0.00, -1.00, 509.3, 106.0)"> </text><text xml:space="preserve" font-family="MarkerFelt-Thin" font-size="27.0" fill="#858585" transform="matrix(1.00, 0.00, -0.00, -1.00, 516.1, 106.0)">t</text><text xml:space="preserve" font-family="MarkerFelt-Thin" font-size="27.0" fill="#858585" transform="matrix(1.00, 0.00, -0.00, -1.00, 526.9, 106.0)">o</text><text xml:space="preserve" font-family="MarkerFelt-Thin" font-size="27.0" fill="#858585" transform="matrix(1.00, 0.00, -0.00, -1.00, 538.0, 106.0)"> </text><text xml:space="preserve" font-family="MarkerFelt-Thin" font-size="27.0" fill="#858585" transform="matrix(1.00, 0.00, -0.00, -1.00, 544.8, 106.0)">M</text><text xml:space="preserve" font-family="MarkerFelt-Thin" font-size="27.0" fill="#858585" transform="matrix(1.00, 0.00, -0.00, -1.00, 571.1, 106.0)">a</text><text xml:space="preserve" font-family="MarkerFelt-Thin" font-size="27.0" fill="#858585" transform="matrix(1.00, 0.00, -0.00, -1.00, 584.6, 106.0)">r</text><text xml:space="preserve" font-family="MarkerFelt-Thin" font-size="27.0" fill="#858585" transform="matrix(1.00, 0.00, -0.00, -1.00, 596.4, 106.0)">k</text><text xml:space="preserve" font-family="MarkerFelt-Thin" font-size="27.0" fill="#858585" transform="matrix(1.00, 0.00, -0.00, -1.00, 610.5, 106.0)">e</text><text xml:space="preserve" font-family="MarkerFelt-Thin" font-size="27.0" fill="#858585" transform="matrix(1.00, 0.00, -0.00, -1.00, 623.0, 106.0)">t</text></g></g><g><clipPath id="clip-296"><path d="M 174.7 142.1 L 193.1 142.1 L 193.1 173.1 L 174.7 173.1 Z M 174.7 142.1 "></path></clipPath><g clip-path="url(#clip-296)"><text xml:space="preserve" font-family="MarkerFelt-Thin" font-size="27.0" fill="#858585" transform="matrix(1.00, 0.00, -0.00, -1.00, 176.0, 149.0)">0</text></g></g><g><clipPath id="clip-297"><path d="M 356.2 142.1 L 374.6 142.1 L 374.6 173.1 L 356.2 173.1 Z M 356.2 142.1 "></path></clipPath><g clip-path="url(#clip-297)"><text xml:space="preserve" font-family="MarkerFelt-Thin" font-size="27.0" fill="#858585" transform="matrix(1.00, 0.00, -0.00, -1.00, 358.0, 149.0)">5</text></g></g><g><clipPath id="clip-298"><path d="M 530.1 142.1 L 563.8 142.1 L 563.8 173.1 L 530.1 173.1 Z M 530.1 142.1 "></path></clipPath><g clip-path="url(#clip-298)"><text xml:space="preserve" font-family="MarkerFelt-Thin" font-size="27.0" fill="#858585" transform="matrix(1.00, 0.00, -0.00, -1.00, 532.0, 149.0)">1</text><text xml:space="preserve" font-family="MarkerFelt-Thin" font-size="27.0" fill="#858585" transform="matrix(1.00, 0.00, -0.00, -1.00, 547.4, 149.0)">0</text></g></g><g><clipPath id="clip-299"><path d="M 711.6 142.1 L 745.3 142.1 L 745.3 173.1 L 711.6 173.1 Z M 711.6 142.1 "></path></clipPath><g clip-path="url(#clip-299)"><text xml:space="preserve" font-family="MarkerFelt-Thin" font-size="27.0" fill="#858585" transform="matrix(1.00, 0.00, -0.00, -1.00, 713.0, 149.0)">1</text><text xml:space="preserve" font-family="MarkerFelt-Thin" font-size="27.0" fill="#858585" transform="matrix(1.00, 0.00, -0.00, -1.00, 728.4, 149.0)">5</text></g></g><g><clipPath id="clip-300"><path d="M 893.1 142.1 L 926.8 142.1 L 926.8 173.1 L 893.1 173.1 Z M 893.1 142.1 "></path></clipPath><g clip-path="url(#clip-300)"><text xml:space="preserve" font-family="MarkerFelt-Thin" font-size="27.0" fill="#858585" transform="matrix(1.00, 0.00, -0.00, -1.00, 895.0, 149.0)">2</text><text xml:space="preserve" font-family="MarkerFelt-Thin" font-size="27.0" fill="#858585" transform="matrix(1.00, 0.00, -0.00, -1.00, 910.4, 149.0)">0</text></g></g></g><g><clipPath id="clip-301"><path d="M 183.9 184.8 L 909.9 184.8 L 909.9 496.1 L 183.9 496.1 Z M 183.9 184.8 "></path></clipPath><g clip-path="url(#clip-301)"><path d="M 474.0 444.0 L 656.0 444.0 L 656.0 392.0 L 474.0 392.0 Z M 474.0 444.0 " fill="#E7A03C"></path></g></g><g><clipPath id="clip-302"><path d="M 183.9 184.8 L 909.9 184.8 L 909.9 496.1 L 183.9 496.1 Z M 183.9 184.8 "></path></clipPath><g clip-path="url(#clip-302)"><path d="M 583.0 289.0 L 874.0 289.0 L 874.0 237.0 L 583.0 237.0 Z M 583.0 289.0 " fill="#E7A03C"></path></g></g><g><clipPath id="clip-303"><path d="M 183.9 184.8 L 909.9 184.8 L 909.9 496.1 L 183.9 496.1 Z M 183.9 184.8 "></path></clipPath><g clip-path="url(#clip-303)"><path d="M 293.0 444.0 L 474.0 444.0 L 474.0 392.0 L 293.0 392.0 Z M 293.0 444.0 " fill="#5D9548"></path></g></g><g><clipPath id="clip-304"><path d="M 183.9 184.8 L 909.9 184.8 L 909.9 496.1 L 183.9 496.1 Z M 183.9 184.8 "></path></clipPath><g clip-path="url(#clip-304)"><path d="M 293.0 289.0 L 583.0 289.0 L 583.0 237.0 L 293.0 237.0 Z M 293.0 289.0 " fill="#5D9548"></path></g></g><g><clipPath id="clip-305"><path d="M 183.9 184.8 L 909.9 184.8 L 909.9 496.1 L 183.9 496.1 Z M 183.9 184.8 "></path></clipPath><g clip-path="url(#clip-305)"><path d="M 184.0 444.0 L 293.0 444.0 L 293.0 392.0 L 184.0 392.0 Z M 184.0 444.0 " fill="#2E578B"></path></g></g><g><clipPath id="clip-306"><path d="M 183.9 184.8 L 909.9 184.8 L 909.9 496.1 L 183.9 496.1 Z M 183.9 184.8 "></path></clipPath><g clip-path="url(#clip-306)"><path d="M 184.0 289.0 L 293.0 289.0 L 293.0 237.0 L 184.0 237.0 Z M 184.0 289.0 " fill="#2E578B"></path></g></g><path d="M 222.0 556.0 L 246.0 556.0 L 246.0 533.0 L 222.0 533.0 Z M 222.0 556.0 " fill="#2E578B"></path><text xml:space="preserve" font-family="MarkerFelt-Thin" font-size="27.0" fill="#858585" transform="matrix(1.00, 0.00, -0.00, -1.00, 261.0, 536.0)">P</text><text xml:space="preserve" font-family="MarkerFelt-Thin" font-size="27.0" fill="#858585" transform="matrix(1.00, 0.00, -0.00, -1.00, 273.1, 536.0)">r</text><text xml:space="preserve" font-family="MarkerFelt-Thin" font-size="27.0" fill="#858585" transform="matrix(1.00, 0.00, -0.00, -1.00, 284.1, 536.0)">o</text><text xml:space="preserve" font-family="MarkerFelt-Thin" font-size="27.0" fill="#858585" transform="matrix(1.00, 0.00, -0.00, -1.00, 297.1, 536.0)">t</text><text xml:space="preserve" font-family="MarkerFelt-Thin" font-size="27.0" fill="#858585" transform="matrix(1.00, 0.00, -0.00, -1.00, 307.9, 536.0)">o</text><text xml:space="preserve" font-family="MarkerFelt-Thin" font-size="27.0" fill="#858585" transform="matrix(1.00, 0.00, -0.00, -1.00, 320.9, 536.0)">t</text><text xml:space="preserve" font-family="MarkerFelt-Thin" font-size="27.0" fill="#858585" transform="matrix(1.00, 0.00, -0.00, -1.00, 333.1, 536.0)">y</text><text xml:space="preserve" font-family="MarkerFelt-Thin" font-size="27.0" fill="#858585" transform="matrix(1.00, 0.00, -0.00, -1.00, 346.9, 536.0)">p</text><text xml:space="preserve" font-family="MarkerFelt-Thin" font-size="27.0" fill="#858585" transform="matrix(1.00, 0.00, -0.00, -1.00, 359.5, 536.0)">e</text><path d="M 443.0 556.0 L 466.0 556.0 L 466.0 533.0 L 443.0 533.0 Z M 443.0 556.0 " fill="#5D9548"></path><text xml:space="preserve" font-family="MarkerFelt-Thin" font-size="27.0" fill="#858585" transform="matrix(1.00, 0.00, -0.00, -1.00, 481.0, 536.0)">D</text><text xml:space="preserve" font-family="MarkerFelt-Thin" font-size="27.0" fill="#858585" transform="matrix(1.00, 0.00, -0.00, -1.00, 493.6, 536.0)">e</text><text xml:space="preserve" font-family="MarkerFelt-Thin" font-size="27.0" fill="#858585" transform="matrix(1.00, 0.00, -0.00, -1.00, 505.9, 536.0)">s</text><text xml:space="preserve" font-family="MarkerFelt-Thin" font-size="27.0" fill="#858585" transform="matrix(1.00, 0.00, -0.00, -1.00, 517.0, 536.0)">k</text><text xml:space="preserve" font-family="MarkerFelt-Thin" font-size="27.0" fill="#858585" transform="matrix(1.00, 0.00, -0.00, -1.00, 531.5, 536.0)">t</text><text xml:space="preserve" font-family="MarkerFelt-Thin" font-size="27.0" fill="#858585" transform="matrix(1.00, 0.00, -0.00, -1.00, 542.4, 536.0)">o</text><text xml:space="preserve" font-family="MarkerFelt-Thin" font-size="27.0" fill="#858585" transform="matrix(1.00, 0.00, -0.00, -1.00, 554.3, 536.0)">p</text><path d="M 639.0 556.0 L 663.0 556.0 L 663.0 533.0 L 639.0 533.0 Z M 639.0 556.0 " fill="#E7A03C"></path><text xml:space="preserve" font-family="MarkerFelt-Thin" font-size="27.0" fill="#858585" transform="matrix(1.00, 0.00, -0.00, -1.00, 678.0, 536.0)">C</text><text xml:space="preserve" font-family="MarkerFelt-Thin" font-size="27.0" fill="#858585" transform="matrix(1.00, 0.00, -0.00, -1.00, 691.3, 536.0)">l</text><text xml:space="preserve" font-family="MarkerFelt-Thin" font-size="27.0" fill="#858585" transform="matrix(1.00, 0.00, -0.00, -1.00, 697.6, 536.0)">i</text><text xml:space="preserve" font-family="MarkerFelt-Thin" font-size="27.0" fill="#858585" transform="matrix(1.00, 0.00, -0.00, -1.00, 703.6, 536.0)">e</text><text xml:space="preserve" font-family="MarkerFelt-Thin" font-size="27.0" fill="#858585" transform="matrix(1.00, 0.00, -0.00, -1.00, 715.6, 536.0)">n</text><text xml:space="preserve" font-family="MarkerFelt-Thin" font-size="27.0" fill="#858585" transform="matrix(1.00, 0.00, -0.00, -1.00, 730.4, 536.0)">t</text><text xml:space="preserve" font-family="MarkerFelt-Thin" font-size="27.0" fill="#858585" transform="matrix(1.00, 0.00, -0.00, -1.00, 738.5, 536.0)">-</text><text xml:space="preserve" font-family="MarkerFelt-Thin" font-size="27.0" fill="#858585" transform="matrix(1.00, 0.00, -0.00, -1.00, 746.8, 536.0)">S</text><text xml:space="preserve" font-family="MarkerFelt-Thin" font-size="27.0" fill="#858585" transform="matrix(1.00, 0.00, -0.00, -1.00, 760.9, 536.0)">e</text><text xml:space="preserve" font-family="MarkerFelt-Thin" font-size="27.0" fill="#858585" transform="matrix(1.00, 0.00, -0.00, -1.00, 772.8, 536.0)">r</text><text xml:space="preserve" font-family="MarkerFelt-Thin" font-size="27.0" fill="#858585" transform="matrix(1.00, 0.00, -0.00, -1.00, 785.8, 536.0)">v</text><text xml:space="preserve" font-family="MarkerFelt-Thin" font-size="27.0" fill="#858585" transform="matrix(1.00, 0.00, -0.00, -1.00, 798.2, 536.0)">e</text><text xml:space="preserve" font-family="MarkerFelt-Thin" font-size="27.0" fill="#858585" transform="matrix(1.00, 0.00, -0.00, -1.00, 810.1, 536.0)">r</text></g></svg>