<?xml version="1.0" encoding="UTF-8" standalone="no"?><svg xmlns="http://www.w3.org/2000/svg" xmlns:xlink="http://www.w3.org/1999/xlink" clip-rule="evenodd" stroke-miterlimit="4.00" viewBox="0 0 861 58"><desc>SVG generated by Keynote</desc><defs></defs><g transform="matrix(1.00, 0.00, -0.00, -1.00, 0.0, 58.0)"><text xml:space="preserve" font-family="Helvetica-Light" font-size="58.4" fill="#000000" transform="matrix(1.00, 0.00, -0.00, -1.00, -4.0, 14.0)">D</text><text xml:space="preserve" font-family="Helvetica-Light" font-size="58.4" fill="#000000" transform="matrix(1.00, 0.00, -0.00, -1.00, 38.2, 14.0)">e</text><text xml:space="preserve" font-family="Helvetica-Light" font-size="58.4" fill="#000000" transform="matrix(1.00, 0.00, -0.00, -1.00, 70.6, 14.0)">t</text><text xml:space="preserve" font-family="Helvetica-Light" font-size="58.4" fill="#000000" transform="matrix(1.00, 0.00, -0.00, -1.00, 86.9, 14.0)">e</text><text xml:space="preserve" font-family="Helvetica-Light" font-size="58.4" fill="#000000" transform="matrix(1.00, 0.00, -0.00, -1.00, 119.3, 14.0)">r</text><text xml:space="preserve" font-family="Helvetica-Light" font-size="58.4" fill="#000000" transform="matrix(1.00, 0.00, -0.00, -1.00, 139.8, 14.0)">m</text><text xml:space="preserve" font-family="Helvetica-Light" font-size="58.4" fill="#000000" transform="matrix(1.00, 0.00, -0.00, -1.00, 188.5, 14.0)">i</text><text xml:space="preserve" font-family="Helvetica-Light" font-size="58.4" fill="#000000" transform="matrix(1.00, 0.00, -0.00, -1.00, 201.5, 14.0)">n</text><text xml:space="preserve" font-family="Helvetica-Light" font-size="58.4" fill="#000000" transform="matrix(1.00, 0.00, -0.00, -1.00, 233.9, 14.0)">i</text><text xml:space="preserve" font-family="Helvetica-Light" font-size="58.4" fill="#000000" transform="matrix(1.00, 0.00, -0.00, -1.00, 246.9, 14.0)">n</text><text xml:space="preserve" font-family="Helvetica-Light" font-size="58.4" fill="#000000" transform="matrix(1.00, 0.00, -0.00, -1.00, 279.4, 14.0)">g</text><text xml:space="preserve" font-family="Helvetica-Light" font-size="58.4" fill="#000000" transform="matrix(1.00, 0.00, -0.00, -1.00, 315.0, 14.0)"> </text><text xml:space="preserve" font-family="Helvetica-Light" font-size="58.4" fill="#000000" transform="matrix(1.00, 0.00, -0.00, -1.00, 331.3, 14.0)">A</text><text xml:space="preserve" font-family="Helvetica-Light" font-size="58.4" fill="#000000" transform="matrix(1.00, 0.00, -0.00, -1.00, 369.2, 14.0)">v</text><text xml:space="preserve" font-family="Helvetica-Light" font-size="58.4" fill="#000000" transform="matrix(1.00, 0.00, -0.00, -1.00, 398.4, 14.0)">a</text><text xml:space="preserve" font-family="Helvetica-Light" font-size="58.4" fill="#000000" transform="matrix(1.00, 0.00, -0.00, -1.00, 430.8, 14.0)">i</text><text xml:space="preserve" font-family="Helvetica-Light" font-size="58.4" fill="#000000" transform="matrix(1.00, 0.00, -0.00, -1.00, 443.8, 14.0)">l</text><text xml:space="preserve" font-family="Helvetica-Light" font-size="58.4" fill="#000000" transform="matrix(1.00, 0.00, -0.00, -1.00, 456.8, 14.0)">a</text><text xml:space="preserve" font-family="Helvetica-Light" font-size="58.4" fill="#000000" transform="matrix(1.00, 0.00, -0.00, -1.00, 489.2, 14.0)">b</text><text xml:space="preserve" font-family="Helvetica-Light" font-size="58.4" fill="#000000" transform="matrix(1.00, 0.00, -0.00, -1.00, 524.9, 14.0)">l</text><text xml:space="preserve" font-family="Helvetica-Light" font-size="58.4" fill="#000000" transform="matrix(1.00, 0.00, -0.00, -1.00, 537.9, 14.0)">e</text><text xml:space="preserve" font-family="Helvetica-Light" font-size="58.4" fill="#000000" transform="matrix(1.00, 0.00, -0.00, -1.00, 570.4, 14.0)"> </text><text xml:space="preserve" font-family="Helvetica-Light" font-size="58.4" fill="#000000" transform="matrix(1.00, 0.00, -0.00, -1.00, 586.6, 14.0)">M</text><text xml:space="preserve" font-family="Helvetica-Light" font-size="58.4" fill="#000000" transform="matrix(1.00, 0.00, -0.00, -1.00, 635.2, 14.0)">o</text><text xml:space="preserve" font-family="Helvetica-Light" font-size="58.4" fill="#000000" transform="matrix(1.00, 0.00, -0.00, -1.00, 667.7, 14.0)">v</text><text xml:space="preserve" font-family="Helvetica-Light" font-size="58.4" fill="#000000" transform="matrix(1.00, 0.00, -0.00, -1.00, 696.9, 14.0)">e</text><text xml:space="preserve" font-family="Helvetica-Light" font-size="58.4" fill="#000000" transform="matrix(1.00, 0.00, -0.00, -1.00, 729.4, 14.0)">m</text><text xml:space="preserve" font-family="Helvetica-Light" font-size="58.4" fill="#000000" transform="matrix(1.00, 0.00, -0.00, -1.00, 778.0, 14.0)">e</text><text xml:space="preserve" font-family="Helvetica-Light" font-size="58.4" fill="#000000" transform="matrix(1.00, 0.00, -0.00, -1.00, 810.5, 14.0)">n</text><text xml:space="preserve" font-family="Helvetica-Light" font-size="58.4" fill="#000000" transform="matrix(1.00, 0.00, -0.00, -1.00, 843.0, 14.0)">t</text></g></svg>