<?xml version="1.0" encoding="UTF-8" standalone="no"?><svg xmlns="http://www.w3.org/2000/svg" xmlns:xlink="http://www.w3.org/1999/xlink" clip-rule="evenodd" stroke-miterlimit="4.00" viewBox="0 0 1024 768"><desc>SVG generated by Keynote</desc><defs></defs><g transform="matrix(1.00, 0.00, -0.00, -1.00, 0.0, 768.0)"><path d="M 0.0 768.0 L 1024.0 768.0 L 1024.0 0.0 L 0.0 0.0 Z M 0.0 768.0 " fill="#FEFFFF"></path><text xml:space="preserve" font-family="Helvetica-Light" font-size="76.0" fill="#000000" transform="matrix(1.00, 0.00, -0.00, -1.00, 150.0, 538.0)">P</text><text xml:space="preserve" font-family="Helvetica-Light" font-size="76.0" fill="#000000" transform="matrix(1.00, 0.00, -0.00, -1.00, 196.4, 538.0)">r</text><text xml:space="preserve" font-family="Helvetica-Light" font-size="76.0" fill="#000000" transform="matrix(1.00, 0.00, -0.00, -1.00, 220.4, 538.0)">o</text><text xml:space="preserve" font-family="Helvetica-Light" font-size="76.0" fill="#000000" transform="matrix(1.00, 0.00, -0.00, -1.00, 262.6, 538.0)">g</text><text xml:space="preserve" font-family="Helvetica-Light" font-size="76.0" fill="#000000" transform="matrix(1.00, 0.00, -0.00, -1.00, 309.1, 538.0)">r</text><text xml:space="preserve" font-family="Helvetica-Light" font-size="76.0" fill="#000000" transform="matrix(1.00, 0.00, -0.00, -1.00, 334.4, 538.0)">a</text><text xml:space="preserve" font-family="Helvetica-Light" font-size="76.0" fill="#000000" transform="matrix(1.00, 0.00, -0.00, -1.00, 376.6, 538.0)">m</text><text xml:space="preserve" font-family="Helvetica-Light" font-size="76.0" fill="#000000" transform="matrix(1.00, 0.00, -0.00, -1.00, 439.9, 538.0)">m</text><text xml:space="preserve" font-family="Helvetica-Light" font-size="76.0" fill="#000000" transform="matrix(1.00, 0.00, -0.00, -1.00, 503.2, 538.0)">i</text><text xml:space="preserve" font-family="Helvetica-Light" font-size="76.0" fill="#000000" transform="matrix(1.00, 0.00, -0.00, -1.00, 520.1, 538.0)">n</text><text xml:space="preserve" font-family="Helvetica-Light" font-size="76.0" fill="#000000" transform="matrix(1.00, 0.00, -0.00, -1.00, 562.4, 538.0)">g</text><text xml:space="preserve" font-family="Helvetica-Light" font-size="76.0" fill="#000000" transform="matrix(1.00, 0.00, -0.00, -1.00, 608.8, 538.0)"> </text><text xml:space="preserve" font-family="Helvetica-Light" font-size="76.0" fill="#000000" transform="matrix(1.00, 0.00, -0.00, -1.00, 629.9, 538.0)">G</text><text xml:space="preserve" font-family="Helvetica-Light" font-size="76.0" fill="#000000" transform="matrix(1.00, 0.00, -0.00, -1.00, 689.1, 538.0)">a</text><text xml:space="preserve" font-family="Helvetica-Light" font-size="76.0" fill="#000000" transform="matrix(1.00, 0.00, -0.00, -1.00, 731.3, 538.0)">m</text><text xml:space="preserve" font-family="Helvetica-Light" font-size="76.0" fill="#000000" transform="matrix(1.00, 0.00, -0.00, -1.00, 794.6, 538.0)">e</text><text xml:space="preserve" font-family="Helvetica-Light" font-size="76.0" fill="#000000" transform="matrix(1.00, 0.00, -0.00, -1.00, 836.9, 538.0)">s</text><text xml:space="preserve" font-family="Helvetica-Light" font-size="76.0" fill="#000000" transform="matrix(1.00, 0.00, -0.00, -1.00, 874.9, 538.0)"> </text><text xml:space="preserve" font-family="Helvetica-Light" font-size="76.0" fill="#000000" transform="matrix(1.00, 0.00, -0.00, -1.00, 139.0, 447.0)">F</text><text xml:space="preserve" font-family="Helvetica-Light" font-size="76.0" fill="#000000" transform="matrix(1.00, 0.00, -0.00, -1.00, 181.3, 447.0)">u</text><text xml:space="preserve" font-family="Helvetica-Light" font-size="76.0" fill="#000000" transform="matrix(1.00, 0.00, -0.00, -1.00, 223.5, 447.0)">n</text><text xml:space="preserve" font-family="Helvetica-Light" font-size="76.0" fill="#000000" transform="matrix(1.00, 0.00, -0.00, -1.00, 265.8, 447.0)">c</text><text xml:space="preserve" font-family="Helvetica-Light" font-size="76.0" fill="#000000" transform="matrix(1.00, 0.00, -0.00, -1.00, 308.0, 447.0)">t</text><text xml:space="preserve" font-family="Helvetica-Light" font-size="76.0" fill="#000000" transform="matrix(1.00, 0.00, -0.00, -1.00, 329.2, 447.0)">i</text><text xml:space="preserve" font-family="Helvetica-Light" font-size="76.0" fill="#000000" transform="matrix(1.00, 0.00, -0.00, -1.00, 346.0, 447.0)">o</text><text xml:space="preserve" font-family="Helvetica-Light" font-size="76.0" fill="#000000" transform="matrix(1.00, 0.00, -0.00, -1.00, 388.3, 447.0)">n</text><text xml:space="preserve" font-family="Helvetica-Light" font-size="76.0" fill="#000000" transform="matrix(1.00, 0.00, -0.00, -1.00, 430.5, 447.0)">a</text><text xml:space="preserve" font-family="Helvetica-Light" font-size="76.0" fill="#000000" transform="matrix(1.00, 0.00, -0.00, -1.00, 472.8, 447.0)">l</text><text xml:space="preserve" font-family="Helvetica-Light" font-size="76.0" fill="#000000" transform="matrix(1.00, 0.00, -0.00, -1.00, 489.7, 447.0)">l</text><text xml:space="preserve" font-family="Helvetica-Light" font-size="76.0" fill="#000000" transform="matrix(1.00, 0.00, -0.00, -1.00, 506.5, 447.0)">y</text><text xml:space="preserve" font-family="Helvetica-Light" font-size="76.0" fill="#000000" transform="matrix(1.00, 0.00, -0.00, -1.00, 544.5, 447.0)"> </text><text xml:space="preserve" font-family="Helvetica-Light" font-size="76.0" fill="#000000" transform="matrix(1.00, 0.00, -0.00, -1.00, 565.7, 447.0)">i</text><text xml:space="preserve" font-family="Helvetica-Light" font-size="76.0" fill="#000000" transform="matrix(1.00, 0.00, -0.00, -1.00, 582.5, 447.0)">n</text><text xml:space="preserve" font-family="Helvetica-Light" font-size="76.0" fill="#000000" transform="matrix(1.00, 0.00, -0.00, -1.00, 624.8, 447.0)"> </text><text xml:space="preserve" font-family="Helvetica-Light" font-size="76.0" fill="#000000" transform="matrix(1.00, 0.00, -0.00, -1.00, 645.9, 447.0)">C</text><text xml:space="preserve" font-family="Helvetica-Light" font-size="76.0" fill="#000000" transform="matrix(1.00, 0.00, -0.00, -1.00, 700.8, 447.0)">l</text><text xml:space="preserve" font-family="Helvetica-Light" font-size="76.0" fill="#000000" transform="matrix(1.00, 0.00, -0.00, -1.00, 717.7, 447.0)">o</text><text xml:space="preserve" font-family="Helvetica-Light" font-size="76.0" fill="#000000" transform="matrix(1.00, 0.00, -0.00, -1.00, 759.9, 447.0)">j</text><text xml:space="preserve" font-family="Helvetica-Light" font-size="76.0" fill="#000000" transform="matrix(1.00, 0.00, -0.00, -1.00, 776.8, 447.0)">u</text><text xml:space="preserve" font-family="Helvetica-Light" font-size="76.0" fill="#000000" transform="matrix(1.00, 0.00, -0.00, -1.00, 819.0, 447.0)">r</text><text xml:space="preserve" font-family="Helvetica-Light" font-size="76.0" fill="#000000" transform="matrix(1.00, 0.00, -0.00, -1.00, 843.0, 447.0)">e</text><text xml:space="preserve" font-family="Helvetica-Light" font-size="22.7" fill="#000000" transform="matrix(1.00, 0.00, -0.00, -1.00, 446.0, 365.0)">M</text><text xml:space="preserve" font-family="Helvetica-Light" font-size="22.7" fill="#000000" transform="matrix(1.00, 0.00, -0.00, -1.00, 464.9, 365.0)">a</text><text xml:space="preserve" font-family="Helvetica-Light" font-size="22.7" fill="#000000" transform="matrix(1.00, 0.00, -0.00, -1.00, 477.6, 365.0)">r</text><text xml:space="preserve" font-family="Helvetica-Light" font-size="22.7" fill="#000000" transform="matrix(1.00, 0.00, -0.00, -1.00, 485.1, 365.0)">k</text><text xml:space="preserve" font-family="Helvetica-Light" font-size="22.7" fill="#000000" transform="matrix(1.00, 0.00, -0.00, -1.00, 496.5, 365.0)"> </text><text xml:space="preserve" font-family="Helvetica-Light" font-size="22.7" fill="#000000" transform="matrix(1.00, 0.00, -0.00, -1.00, 502.8, 365.0)">B</text><text xml:space="preserve" font-family="Helvetica-Light" font-size="22.7" fill="#000000" transform="matrix(1.00, 0.00, -0.00, -1.00, 518.0, 365.0)">a</text><text xml:space="preserve" font-family="Helvetica-Light" font-size="22.7" fill="#000000" transform="matrix(1.00, 0.00, -0.00, -1.00, 530.6, 365.0)">s</text><text xml:space="preserve" font-family="Helvetica-Light" font-size="22.7" fill="#000000" transform="matrix(1.00, 0.00, -0.00, -1.00, 541.9, 365.0)">t</text><text xml:space="preserve" font-family="Helvetica-Light" font-size="22.7" fill="#000000" transform="matrix(1.00, 0.00, -0.00, -1.00, 548.3, 365.0)">i</text><text xml:space="preserve" font-family="Helvetica-Light" font-size="22.7" fill="#000000" transform="matrix(1.00, 0.00, -0.00, -1.00, 553.3, 365.0)">a</text><text xml:space="preserve" font-family="Helvetica-Light" font-size="22.7" fill="#000000" transform="matrix(1.00, 0.00, -0.00, -1.00, 565.9, 365.0)">n</text><text xml:space="preserve" font-family="Helvetica-Light" font-size="22.7" fill="#000000" transform="matrix(1.00, 0.00, -0.00, -1.00, 578.6, 365.0)"> </text><text xml:space="preserve" font-family="Helvetica-Light" font-size="22.7" fill="#000000" transform="matrix(1.00, 0.00, -0.00, -1.00, 435.0, 313.0)">@</text><text xml:space="preserve" font-family="Helvetica-Light" font-size="22.7" fill="#000000" transform="matrix(1.00, 0.00, -0.00, -1.00, 453.2, 313.0)">m</text><text xml:space="preserve" font-family="Helvetica-Light" font-size="22.7" fill="#000000" transform="matrix(1.00, 0.00, -0.00, -1.00, 472.1, 313.0)">a</text><text xml:space="preserve" font-family="Helvetica-Light" font-size="22.7" fill="#000000" transform="matrix(1.00, 0.00, -0.00, -1.00, 484.7, 313.0)">r</text><text xml:space="preserve" font-family="Helvetica-Light" font-size="22.7" fill="#000000" transform="matrix(1.00, 0.00, -0.00, -1.00, 492.3, 313.0)">k</text><text xml:space="preserve" font-family="Helvetica-Light" font-size="22.7" fill="#000000" transform="matrix(1.00, 0.00, -0.00, -1.00, 503.7, 313.0)">_</text><text xml:space="preserve" font-family="Helvetica-Light" font-size="22.7" fill="#000000" transform="matrix(1.00, 0.00, -0.00, -1.00, 515.0, 313.0)">b</text><text xml:space="preserve" font-family="Helvetica-Light" font-size="22.7" fill="#000000" transform="matrix(1.00, 0.00, -0.00, -1.00, 528.9, 313.0)">a</text><text xml:space="preserve" font-family="Helvetica-Light" font-size="22.7" fill="#000000" transform="matrix(1.00, 0.00, -0.00, -1.00, 541.5, 313.0)">s</text><text xml:space="preserve" font-family="Helvetica-Light" font-size="22.7" fill="#000000" transform="matrix(1.00, 0.00, -0.00, -1.00, 552.9, 313.0)">t</text><text xml:space="preserve" font-family="Helvetica-Light" font-size="22.7" fill="#000000" transform="matrix(1.00, 0.00, -0.00, -1.00, 559.2, 313.0)">i</text><text xml:space="preserve" font-family="Helvetica-Light" font-size="22.7" fill="#000000" transform="matrix(1.00, 0.00, -0.00, -1.00, 564.3, 313.0)">a</text><text xml:space="preserve" font-family="Helvetica-Light" font-size="22.7" fill="#000000" transform="matrix(1.00, 0.00, -0.00, -1.00, 576.9, 313.0)">n</text><text xml:space="preserve" font-family="Helvetica-Light" font-size="22.7" fill="#000000" transform="matrix(1.00, 0.00, -0.00, -1.00, 589.5, 313.0)"> </text><text xml:space="preserve" font-family="Helvetica-Light" font-size="22.7" fill="#000000" transform="matrix(1.00, 0.00, -0.00, -1.00, 371.0, 261.0)">h</text><text xml:space="preserve" font-family="Helvetica-Light" font-size="22.7" fill="#000000" transform="matrix(1.00, 0.00, -0.00, -1.00, 383.6, 261.0)">t</text><text xml:space="preserve" font-family="Helvetica-Light" font-size="22.7" fill="#000000" transform="matrix(1.00, 0.00, -0.00, -1.00, 389.9, 261.0)">t</text><text xml:space="preserve" font-family="Helvetica-Light" font-size="22.7" fill="#000000" transform="matrix(1.00, 0.00, -0.00, -1.00, 396.3, 261.0)">p</text><text xml:space="preserve" font-family="Helvetica-Light" font-size="22.7" fill="#000000" transform="matrix(1.00, 0.00, -0.00, -1.00, 410.1, 261.0)">:</text><text xml:space="preserve" font-family="Helvetica-Light" font-size="22.7" fill="#000000" transform="matrix(1.00, 0.00, -0.00, -1.00, 416.5, 261.0)">/</text><text xml:space="preserve" font-family="Helvetica-Light" font-size="22.7" fill="#000000" transform="matrix(1.00, 0.00, -0.00, -1.00, 422.8, 261.0)">/</text><text xml:space="preserve" font-family="Helvetica-Light" font-size="22.7" fill="#000000" transform="matrix(1.00, 0.00, -0.00, -1.00, 429.1, 261.0)">f</text><text xml:space="preserve" font-family="Helvetica-Light" font-size="22.7" fill="#000000" transform="matrix(1.00, 0.00, -0.00, -1.00, 435.4, 261.0)">n</text><text xml:space="preserve" font-family="Helvetica-Light" font-size="22.7" fill="#000000" transform="matrix(1.00, 0.00, -0.00, -1.00, 448.0, 261.0)">-</text><text xml:space="preserve" font-family="Helvetica-Light" font-size="22.7" fill="#000000" transform="matrix(1.00, 0.00, -0.00, -1.00, 455.6, 261.0)">c</text><text xml:space="preserve" font-family="Helvetica-Light" font-size="22.7" fill="#000000" transform="matrix(1.00, 0.00, -0.00, -1.00, 468.2, 261.0)">o</text><text xml:space="preserve" font-family="Helvetica-Light" font-size="22.7" fill="#000000" transform="matrix(1.00, 0.00, -0.00, -1.00, 480.9, 261.0)">d</text><text xml:space="preserve" font-family="Helvetica-Light" font-size="22.7" fill="#000000" transform="matrix(1.00, 0.00, -0.00, -1.00, 494.8, 261.0)">e</text><text xml:space="preserve" font-family="Helvetica-Light" font-size="22.7" fill="#000000" transform="matrix(1.00, 0.00, -0.00, -1.00, 507.4, 261.0)">.</text><text xml:space="preserve" font-family="Helvetica-Light" font-size="22.7" fill="#000000" transform="matrix(1.00, 0.00, -0.00, -1.00, 513.7, 261.0)">b</text><text xml:space="preserve" font-family="Helvetica-Light" font-size="22.7" fill="#000000" transform="matrix(1.00, 0.00, -0.00, -1.00, 527.6, 261.0)">l</text><text xml:space="preserve" font-family="Helvetica-Light" font-size="22.7" fill="#000000" transform="matrix(1.00, 0.00, -0.00, -1.00, 532.6, 261.0)">o</text><text xml:space="preserve" font-family="Helvetica-Light" font-size="22.7" fill="#000000" transform="matrix(1.00, 0.00, -0.00, -1.00, 545.3, 261.0)">g</text><text xml:space="preserve" font-family="Helvetica-Light" font-size="22.7" fill="#000000" transform="matrix(1.00, 0.00, -0.00, -1.00, 559.1, 261.0)">s</text><text xml:space="preserve" font-family="Helvetica-Light" font-size="22.7" fill="#000000" transform="matrix(1.00, 0.00, -0.00, -1.00, 570.5, 261.0)">p</text><text xml:space="preserve" font-family="Helvetica-Light" font-size="22.7" fill="#000000" transform="matrix(1.00, 0.00, -0.00, -1.00, 584.4, 261.0)">o</text><text xml:space="preserve" font-family="Helvetica-Light" font-size="22.7" fill="#000000" transform="matrix(1.00, 0.00, -0.00, -1.00, 597.0, 261.0)">t</text><text xml:space="preserve" font-family="Helvetica-Light" font-size="22.7" fill="#000000" transform="matrix(1.00, 0.00, -0.00, -1.00, 603.3, 261.0)">.</text><text xml:space="preserve" font-family="Helvetica-Light" font-size="22.7" fill="#000000" transform="matrix(1.00, 0.00, -0.00, -1.00, 609.7, 261.0)">c</text><text xml:space="preserve" font-family="Helvetica-Light" font-size="22.7" fill="#000000" transform="matrix(1.00, 0.00, -0.00, -1.00, 622.3, 261.0)">o</text><text xml:space="preserve" font-family="Helvetica-Light" font-size="22.7" fill="#000000" transform="matrix(1.00, 0.00, -0.00, -1.00, 634.9, 261.0)">m</text><text xml:space="preserve" font-family="Helvetica-Light" font-size="22.7" fill="#000000" transform="matrix(1.00, 0.00, -0.00, -1.00, 653.8, 261.0)"> </text><g><clipPath id="clip-224"><path d="M 369.6 258.2 L 653.4 258.2 L 653.4 261.3 L 369.6 261.3 Z M 369.6 258.2 "></path></clipPath><g clip-path="url(#clip-224)"><path d="M 270.6 130.5 L 553.4 130.5 " fill="none" stroke="#000000" stroke-width="1.14" stroke-miterlimit="0.00" transform="matrix(1.00, 0.00, 0.00, -1.00, 100.0, 390.2)"></path></g></g><text xml:space="preserve" font-family="Helvetica-Light" font-size="22.7" fill="#000000" transform="matrix(1.00, 0.00, -0.00, -1.00, 202.0, 209.0)">h</text><text xml:space="preserve" font-family="Helvetica-Light" font-size="22.7" fill="#000000" transform="matrix(1.00, 0.00, -0.00, -1.00, 214.6, 209.0)">t</text><text xml:space="preserve" font-family="Helvetica-Light" font-size="22.7" fill="#000000" transform="matrix(1.00, 0.00, -0.00, -1.00, 220.9, 209.0)">t</text><text xml:space="preserve" font-family="Helvetica-Light" font-size="22.7" fill="#000000" transform="matrix(1.00, 0.00, -0.00, -1.00, 227.3, 209.0)">p</text><text xml:space="preserve" font-family="Helvetica-Light" font-size="22.7" fill="#000000" transform="matrix(1.00, 0.00, -0.00, -1.00, 241.1, 209.0)">:</text><text xml:space="preserve" font-family="Helvetica-Light" font-size="22.7" fill="#000000" transform="matrix(1.00, 0.00, -0.00, -1.00, 247.5, 209.0)">/</text><text xml:space="preserve" font-family="Helvetica-Light" font-size="22.7" fill="#000000" transform="matrix(1.00, 0.00, -0.00, -1.00, 253.8, 209.0)">/</text><text xml:space="preserve" font-family="Helvetica-Light" font-size="22.7" fill="#000000" transform="matrix(1.00, 0.00, -0.00, -1.00, 260.1, 209.0)">m</text><text xml:space="preserve" font-family="Helvetica-Light" font-size="22.7" fill="#000000" transform="matrix(1.00, 0.00, -0.00, -1.00, 279.0, 209.0)">a</text><text xml:space="preserve" font-family="Helvetica-Light" font-size="22.7" fill="#000000" transform="matrix(1.00, 0.00, -0.00, -1.00, 291.7, 209.0)">r</text><text xml:space="preserve" font-family="Helvetica-Light" font-size="22.7" fill="#000000" transform="matrix(1.00, 0.00, -0.00, -1.00, 299.2, 209.0)">k</text><text xml:space="preserve" font-family="Helvetica-Light" font-size="22.7" fill="#000000" transform="matrix(1.00, 0.00, -0.00, -1.00, 310.6, 209.0)">b</text><text xml:space="preserve" font-family="Helvetica-Light" font-size="22.7" fill="#000000" transform="matrix(1.00, 0.00, -0.00, -1.00, 324.5, 209.0)">a</text><text xml:space="preserve" font-family="Helvetica-Light" font-size="22.7" fill="#000000" transform="matrix(1.00, 0.00, -0.00, -1.00, 337.1, 209.0)">s</text><text xml:space="preserve" font-family="Helvetica-Light" font-size="22.7" fill="#000000" transform="matrix(1.00, 0.00, -0.00, -1.00, 348.5, 209.0)">t</text><text xml:space="preserve" font-family="Helvetica-Light" font-size="22.7" fill="#000000" transform="matrix(1.00, 0.00, -0.00, -1.00, 354.8, 209.0)">i</text><text xml:space="preserve" font-family="Helvetica-Light" font-size="22.7" fill="#000000" transform="matrix(1.00, 0.00, -0.00, -1.00, 359.8, 209.0)">a</text><text xml:space="preserve" font-family="Helvetica-Light" font-size="22.7" fill="#000000" transform="matrix(1.00, 0.00, -0.00, -1.00, 372.4, 209.0)">n</text><text xml:space="preserve" font-family="Helvetica-Light" font-size="22.7" fill="#000000" transform="matrix(1.00, 0.00, -0.00, -1.00, 385.1, 209.0)">.</text><text xml:space="preserve" font-family="Helvetica-Light" font-size="22.7" fill="#000000" transform="matrix(1.00, 0.00, -0.00, -1.00, 391.4, 209.0)">g</text><text xml:space="preserve" font-family="Helvetica-Light" font-size="22.7" fill="#000000" transform="matrix(1.00, 0.00, -0.00, -1.00, 405.3, 209.0)">i</text><text xml:space="preserve" font-family="Helvetica-Light" font-size="22.7" fill="#000000" transform="matrix(1.00, 0.00, -0.00, -1.00, 410.3, 209.0)">t</text><text xml:space="preserve" font-family="Helvetica-Light" font-size="22.7" fill="#000000" transform="matrix(1.00, 0.00, -0.00, -1.00, 416.6, 209.0)">h</text><text xml:space="preserve" font-family="Helvetica-Light" font-size="22.7" fill="#000000" transform="matrix(1.00, 0.00, -0.00, -1.00, 429.3, 209.0)">u</text><text xml:space="preserve" font-family="Helvetica-Light" font-size="22.7" fill="#000000" transform="matrix(1.00, 0.00, -0.00, -1.00, 441.9, 209.0)">b</text><text xml:space="preserve" font-family="Helvetica-Light" font-size="22.7" fill="#000000" transform="matrix(1.00, 0.00, -0.00, -1.00, 455.8, 209.0)">.</text><text xml:space="preserve" font-family="Helvetica-Light" font-size="22.7" fill="#000000" transform="matrix(1.00, 0.00, -0.00, -1.00, 462.1, 209.0)">i</text><text xml:space="preserve" font-family="Helvetica-Light" font-size="22.7" fill="#000000" transform="matrix(1.00, 0.00, -0.00, -1.00, 467.1, 209.0)">o</text><text xml:space="preserve" font-family="Helvetica-Light" font-size="22.7" fill="#000000" transform="matrix(1.00, 0.00, -0.00, -1.00, 479.8, 209.0)">/</text><text xml:space="preserve" font-family="Helvetica-Light" font-size="22.7" fill="#000000" transform="matrix(1.00, 0.00, -0.00, -1.00, 486.1, 209.0)">B</text><text xml:space="preserve" font-family="Helvetica-Light" font-size="22.7" fill="#000000" transform="matrix(1.00, 0.00, -0.00, -1.00, 501.2, 209.0)">o</text><text xml:space="preserve" font-family="Helvetica-Light" font-size="22.7" fill="#000000" transform="matrix(1.00, 0.00, -0.00, -1.00, 513.9, 209.0)">i</text><text xml:space="preserve" font-family="Helvetica-Light" font-size="22.7" fill="#000000" transform="matrix(1.00, 0.00, -0.00, -1.00, 518.9, 209.0)">s</text><text xml:space="preserve" font-family="Helvetica-Light" font-size="22.7" fill="#000000" transform="matrix(1.00, 0.00, -0.00, -1.00, 530.3, 209.0)">e</text><text xml:space="preserve" font-family="Helvetica-Light" font-size="22.7" fill="#000000" transform="matrix(1.00, 0.00, -0.00, -1.00, 542.9, 209.0)">C</text><text xml:space="preserve" font-family="Helvetica-Light" font-size="22.7" fill="#000000" transform="matrix(1.00, 0.00, -0.00, -1.00, 559.3, 209.0)">o</text><text xml:space="preserve" font-family="Helvetica-Light" font-size="22.7" fill="#000000" transform="matrix(1.00, 0.00, -0.00, -1.00, 571.9, 209.0)">d</text><text xml:space="preserve" font-family="Helvetica-Light" font-size="22.7" fill="#000000" transform="matrix(1.00, 0.00, -0.00, -1.00, 585.8, 209.0)">e</text><text xml:space="preserve" font-family="Helvetica-Light" font-size="22.7" fill="#000000" transform="matrix(1.00, 0.00, -0.00, -1.00, 598.5, 209.0)">C</text><text xml:space="preserve" font-family="Helvetica-Light" font-size="22.7" fill="#000000" transform="matrix(1.00, 0.00, -0.00, -1.00, 614.9, 209.0)">a</text><text xml:space="preserve" font-family="Helvetica-Light" font-size="22.7" fill="#000000" transform="matrix(1.00, 0.00, -0.00, -1.00, 627.5, 209.0)">m</text><text xml:space="preserve" font-family="Helvetica-Light" font-size="22.7" fill="#000000" transform="matrix(1.00, 0.00, -0.00, -1.00, 646.4, 209.0)">p</text><text xml:space="preserve" font-family="Helvetica-Light" font-size="22.7" fill="#000000" transform="matrix(1.00, 0.00, -0.00, -1.00, 660.3, 209.0)">2</text><text xml:space="preserve" font-family="Helvetica-Light" font-size="22.7" fill="#000000" transform="matrix(1.00, 0.00, -0.00, -1.00, 672.9, 209.0)">0</text><text xml:space="preserve" font-family="Helvetica-Light" font-size="22.7" fill="#000000" transform="matrix(1.00, 0.00, -0.00, -1.00, 685.6, 209.0)">1</text><text xml:space="preserve" font-family="Helvetica-Light" font-size="22.7" fill="#000000" transform="matrix(1.00, 0.00, -0.00, -1.00, 698.2, 209.0)">6</text><text xml:space="preserve" font-family="Helvetica-Light" font-size="22.7" fill="#000000" transform="matrix(1.00, 0.00, -0.00, -1.00, 710.8, 209.0)">/</text><text xml:space="preserve" font-family="Helvetica-Light" font-size="22.7" fill="#000000" transform="matrix(1.00, 0.00, -0.00, -1.00, 717.2, 209.0)">i</text><text xml:space="preserve" font-family="Helvetica-Light" font-size="22.7" fill="#000000" transform="matrix(1.00, 0.00, -0.00, -1.00, 722.2, 209.0)">n</text><text xml:space="preserve" font-family="Helvetica-Light" font-size="22.7" fill="#000000" transform="matrix(1.00, 0.00, -0.00, -1.00, 734.8, 209.0)">d</text><text xml:space="preserve" font-family="Helvetica-Light" font-size="22.7" fill="#000000" transform="matrix(1.00, 0.00, -0.00, -1.00, 748.7, 209.0)">e</text><text xml:space="preserve" font-family="Helvetica-Light" font-size="22.7" fill="#000000" transform="matrix(1.00, 0.00, -0.00, -1.00, 761.3, 209.0)">x</text><text xml:space="preserve" font-family="Helvetica-Light" font-size="22.7" fill="#000000" transform="matrix(1.00, 0.00, -0.00, -1.00, 772.7, 209.0)">.</text><text xml:space="preserve" font-family="Helvetica-Light" font-size="22.7" fill="#000000" transform="matrix(1.00, 0.00, -0.00, -1.00, 779.0, 209.0)">h</text><text xml:space="preserve" font-family="Helvetica-Light" font-size="22.7" fill="#000000" transform="matrix(1.00, 0.00, -0.00, -1.00, 791.7, 209.0)">t</text><text xml:space="preserve" font-family="Helvetica-Light" font-size="22.7" fill="#000000" transform="matrix(1.00, 0.00, -0.00, -1.00, 798.0, 209.0)">m</text><text xml:space="preserve" font-family="Helvetica-Light" font-size="22.7" fill="#000000" transform="matrix(1.00, 0.00, -0.00, -1.00, 816.9, 209.0)">l</text><text xml:space="preserve" font-family="Helvetica-Light" font-size="22.7" fill="#000000" transform="matrix(1.00, 0.00, -0.00, -1.00, 821.9, 209.0)"> </text><g><clipPath id="clip-225"><path d="M 201.0 206.2 L 822.0 206.2 L 822.0 209.3 L 201.0 209.3 Z M 201.0 206.2 "></path></clipPath><g clip-path="url(#clip-225)"><path d="M 102.0 182.5 L 722.0 182.5 " fill="none" stroke="#000000" stroke-width="1.14" stroke-miterlimit="0.00" transform="matrix(1.00, 0.00, 0.00, -1.00, 100.0, 390.2)"></path></g></g><text xml:space="preserve" font-family="Helvetica-Light" font-size="22.7" fill="#000000" transform="matrix(1.00, 0.00, -0.00, -1.00, 326.0, 157.0)">h</text><text xml:space="preserve" font-family="Helvetica-Light" font-size="22.7" fill="#000000" transform="matrix(1.00, 0.00, -0.00, -1.00, 338.6, 157.0)">t</text><text xml:space="preserve" font-family="Helvetica-Light" font-size="22.7" fill="#000000" transform="matrix(1.00, 0.00, -0.00, -1.00, 344.9, 157.0)">t</text><text xml:space="preserve" font-family="Helvetica-Light" font-size="22.7" fill="#000000" transform="matrix(1.00, 0.00, -0.00, -1.00, 351.3, 157.0)">p</text><text xml:space="preserve" font-family="Helvetica-Light" font-size="22.7" fill="#000000" transform="matrix(1.00, 0.00, -0.00, -1.00, 365.1, 157.0)">s</text><text xml:space="preserve" font-family="Helvetica-Light" font-size="22.7" fill="#000000" transform="matrix(1.00, 0.00, -0.00, -1.00, 376.5, 157.0)">:</text><text xml:space="preserve" font-family="Helvetica-Light" font-size="22.7" fill="#000000" transform="matrix(1.00, 0.00, -0.00, -1.00, 382.8, 157.0)">/</text><text xml:space="preserve" font-family="Helvetica-Light" font-size="22.7" fill="#000000" transform="matrix(1.00, 0.00, -0.00, -1.00, 389.1, 157.0)">/</text><text xml:space="preserve" font-family="Helvetica-Light" font-size="22.7" fill="#000000" transform="matrix(1.00, 0.00, -0.00, -1.00, 395.5, 157.0)">g</text><text xml:space="preserve" font-family="Helvetica-Light" font-size="22.7" fill="#000000" transform="matrix(1.00, 0.00, -0.00, -1.00, 409.3, 157.0)">i</text><text xml:space="preserve" font-family="Helvetica-Light" font-size="22.7" fill="#000000" transform="matrix(1.00, 0.00, -0.00, -1.00, 414.4, 157.0)">t</text><text xml:space="preserve" font-family="Helvetica-Light" font-size="22.7" fill="#000000" transform="matrix(1.00, 0.00, -0.00, -1.00, 420.7, 157.0)">h</text><text xml:space="preserve" font-family="Helvetica-Light" font-size="22.7" fill="#000000" transform="matrix(1.00, 0.00, -0.00, -1.00, 433.3, 157.0)">u</text><text xml:space="preserve" font-family="Helvetica-Light" font-size="22.7" fill="#000000" transform="matrix(1.00, 0.00, -0.00, -1.00, 446.0, 157.0)">b</text><text xml:space="preserve" font-family="Helvetica-Light" font-size="22.7" fill="#000000" transform="matrix(1.00, 0.00, -0.00, -1.00, 459.8, 157.0)">.</text><text xml:space="preserve" font-family="Helvetica-Light" font-size="22.7" fill="#000000" transform="matrix(1.00, 0.00, -0.00, -1.00, 466.2, 157.0)">c</text><text xml:space="preserve" font-family="Helvetica-Light" font-size="22.7" fill="#000000" transform="matrix(1.00, 0.00, -0.00, -1.00, 478.8, 157.0)">o</text><text xml:space="preserve" font-family="Helvetica-Light" font-size="22.7" fill="#000000" transform="matrix(1.00, 0.00, -0.00, -1.00, 491.4, 157.0)">m</text><text xml:space="preserve" font-family="Helvetica-Light" font-size="22.7" fill="#000000" transform="matrix(1.00, 0.00, -0.00, -1.00, 510.4, 157.0)">/</text><text xml:space="preserve" font-family="Helvetica-Light" font-size="22.7" fill="#000000" transform="matrix(1.00, 0.00, -0.00, -1.00, 516.7, 157.0)">m</text><text xml:space="preserve" font-family="Helvetica-Light" font-size="22.7" fill="#000000" transform="matrix(1.00, 0.00, -0.00, -1.00, 535.6, 157.0)">a</text><text xml:space="preserve" font-family="Helvetica-Light" font-size="22.7" fill="#000000" transform="matrix(1.00, 0.00, -0.00, -1.00, 548.2, 157.0)">r</text><text xml:space="preserve" font-family="Helvetica-Light" font-size="22.7" fill="#000000" transform="matrix(1.00, 0.00, -0.00, -1.00, 555.8, 157.0)">k</text><text xml:space="preserve" font-family="Helvetica-Light" font-size="22.7" fill="#000000" transform="matrix(1.00, 0.00, -0.00, -1.00, 567.2, 157.0)">b</text><text xml:space="preserve" font-family="Helvetica-Light" font-size="22.7" fill="#000000" transform="matrix(1.00, 0.00, -0.00, -1.00, 581.0, 157.0)">a</text><text xml:space="preserve" font-family="Helvetica-Light" font-size="22.7" fill="#000000" transform="matrix(1.00, 0.00, -0.00, -1.00, 593.7, 157.0)">s</text><text xml:space="preserve" font-family="Helvetica-Light" font-size="22.7" fill="#000000" transform="matrix(1.00, 0.00, -0.00, -1.00, 605.0, 157.0)">t</text><text xml:space="preserve" font-family="Helvetica-Light" font-size="22.7" fill="#000000" transform="matrix(1.00, 0.00, -0.00, -1.00, 611.3, 157.0)">i</text><text xml:space="preserve" font-family="Helvetica-Light" font-size="22.7" fill="#000000" transform="matrix(1.00, 0.00, -0.00, -1.00, 616.4, 157.0)">a</text><text xml:space="preserve" font-family="Helvetica-Light" font-size="22.7" fill="#000000" transform="matrix(1.00, 0.00, -0.00, -1.00, 629.0, 157.0)">n</text><text xml:space="preserve" font-family="Helvetica-Light" font-size="22.7" fill="#000000" transform="matrix(1.00, 0.00, -0.00, -1.00, 641.6, 157.0)">/</text><text xml:space="preserve" font-family="Helvetica-Light" font-size="22.7" fill="#000000" transform="matrix(1.00, 0.00, -0.00, -1.00, 648.0, 157.0)">t</text><text xml:space="preserve" font-family="Helvetica-Light" font-size="22.7" fill="#000000" transform="matrix(1.00, 0.00, -0.00, -1.00, 654.3, 157.0)">e</text><text xml:space="preserve" font-family="Helvetica-Light" font-size="22.7" fill="#000000" transform="matrix(1.00, 0.00, -0.00, -1.00, 666.9, 157.0)">t</text><text xml:space="preserve" font-family="Helvetica-Light" font-size="22.7" fill="#000000" transform="matrix(1.00, 0.00, -0.00, -1.00, 673.2, 157.0)">r</text><text xml:space="preserve" font-family="Helvetica-Light" font-size="22.7" fill="#000000" transform="matrix(1.00, 0.00, -0.00, -1.00, 680.8, 157.0)">i</text><text xml:space="preserve" font-family="Helvetica-Light" font-size="22.7" fill="#000000" transform="matrix(1.00, 0.00, -0.00, -1.00, 685.8, 157.0)">s</text><text xml:space="preserve" font-family="Helvetica-Light" font-size="22.7" fill="#000000" transform="matrix(1.00, 0.00, -0.00, -1.00, 697.2, 157.0)"> </text><g><clipPath id="clip-226"><path d="M 325.4 154.2 L 697.6 154.2 L 697.6 157.3 L 325.4 157.3 Z M 325.4 154.2 "></path></clipPath><g clip-path="url(#clip-226)"><path d="M 226.4 234.5 L 597.6 234.5 " fill="none" stroke="#000000" stroke-width="1.14" stroke-miterlimit="0.00" transform="matrix(1.00, 0.00, 0.00, -1.00, 100.0, 390.2)"></path></g></g><text xml:space="preserve" font-family="Helvetica-Light" font-size="22.7" fill="#000000" transform="matrix(1.00, 0.00, -0.00, -1.00, 461.0, 105.0)">3</text><text xml:space="preserve" font-family="Helvetica-Light" font-size="22.7" fill="#000000" transform="matrix(1.00, 0.00, -0.00, -1.00, 473.6, 105.0)">/</text><text xml:space="preserve" font-family="Helvetica-Light" font-size="22.7" fill="#000000" transform="matrix(1.00, 0.00, -0.00, -1.00, 479.9, 105.0)">1</text><text xml:space="preserve" font-family="Helvetica-Light" font-size="22.7" fill="#000000" transform="matrix(1.00, 0.00, -0.00, -1.00, 492.6, 105.0)">9</text><text xml:space="preserve" font-family="Helvetica-Light" font-size="22.7" fill="#000000" transform="matrix(1.00, 0.00, -0.00, -1.00, 505.2, 105.0)">/</text><text xml:space="preserve" font-family="Helvetica-Light" font-size="22.7" fill="#000000" transform="matrix(1.00, 0.00, -0.00, -1.00, 511.5, 105.0)">2</text><text xml:space="preserve" font-family="Helvetica-Light" font-size="22.7" fill="#000000" transform="matrix(1.00, 0.00, -0.00, -1.00, 524.2, 105.0)">0</text><text xml:space="preserve" font-family="Helvetica-Light" font-size="22.7" fill="#000000" transform="matrix(1.00, 0.00, -0.00, -1.00, 536.8, 105.0)">1</text><text xml:space="preserve" font-family="Helvetica-Light" font-size="22.7" fill="#000000" transform="matrix(1.00, 0.00, -0.00, -1.00, 549.4, 105.0)">6</text><image xlink:href="C75612F7027A08BA86AAF4EA0F723516.png" width="200.00" height="52.00" transform="matrix(1.47, 0.00, -0.00, -1.46, 559.0, 728.0)"></image><image xlink:href="CA0088B105D24DE91E96F3A456F964FF.png" width="334.00" height="63.00" transform="matrix(1.00, 0.00, -0.00, -1.00, 162.0, 730.0)"></image></g></svg>