<?xml version="1.0" encoding="UTF-8" standalone="no"?><svg xmlns="http://www.w3.org/2000/svg" xmlns:xlink="http://www.w3.org/1999/xlink" clip-rule="evenodd" stroke-miterlimit="4.00" viewBox="0 0 282 35"><desc>SVG generated by Keynote</desc><defs></defs><g transform="matrix(1.00, 0.00, -0.00, -1.00, 0.0, 35.0)"><g><clipPath id="clip-350"><path d="M 0.0 10.7 L 17.2 10.7 L 17.2 26.7 L 0.0 26.7 Z M 0.0 10.7 "></path></clipPath><g clip-path="url(#clip-350)"><path d="M 16.9 16.4 C 17.1 16.2 17.2 15.9 17.2 15.6 C 17.2 15.1 16.9 14.7 16.3 14.2 C 15.8 13.8 15.1 13.6 14.4 13.6 C 13.5 13.6 12.4 14.3 11.1 15.6 C 11.1 15.6 11.1 13.6 11.1 13.6 C 11.1 13.4 11.2 13.1 11.3 12.8 C 11.4 12.6 11.5 12.4 11.5 12.2 C 11.5 11.8 11.3 11.4 10.8 11.1 C 10.4 10.8 9.9 10.7 9.5 10.7 C 8.7 10.7 8.1 11.0 7.5 11.7 C 7.3 11.9 7.3 12.4 7.3 13.3 C 7.4 14.3 7.4 15.2 7.5 16.2 C 7.0 15.8 6.1 15.3 4.8 14.6 C 4.6 14.3 4.0 14.0 3.1 13.7 C 2.5 13.7 1.8 13.8 1.1 14.1 C 0.4 14.4 0.0 14.9 0.0 15.4 C 0.0 15.5 0.0 15.7 0.1 15.8 C 0.2 16.1 0.5 16.3 1.0 16.5 C 1.7 16.7 2.1 16.8 2.1 16.9 C 2.1 16.9 5.9 18.9 5.9 18.9 C 5.9 18.9 3.2 20.2 3.2 20.2 C 2.8 20.2 2.3 20.4 1.7 20.8 C 1.5 21.0 1.5 21.2 1.5 21.4 C 1.5 22.1 1.8 22.7 2.6 23.3 C 3.4 23.9 4.1 24.2 4.9 24.2 C 5.1 24.2 5.4 24.2 5.6 24.1 C 5.9 24.0 6.1 23.8 6.3 23.4 C 6.6 22.9 6.9 22.5 7.5 22.2 C 7.5 22.2 7.6 24.6 7.6 24.6 C 7.5 25.0 7.5 25.4 7.6 26.1 C 7.9 26.5 8.6 26.7 9.7 26.7 C 10.6 26.7 11.3 26.4 11.6 25.8 C 11.8 25.6 11.8 25.0 11.7 24.2 C 11.6 23.4 11.5 22.6 11.4 21.8 C 11.4 21.8 12.8 22.6 12.8 22.6 C 13.1 22.9 13.6 23.2 14.4 23.5 C 14.9 23.5 15.5 23.3 16.0 22.9 C 16.5 22.4 16.8 21.9 16.8 21.4 C 16.8 21.2 16.7 20.9 16.6 20.7 C 16.4 20.5 16.2 20.4 15.9 20.3 C 15.4 20.2 15.1 20.1 15.0 20.0 C 15.0 20.0 12.9 18.6 12.9 18.6 C 12.9 18.6 15.6 17.1 15.6 17.1 C 16.0 17.0 16.4 16.8 16.9 16.4 Z M 16.9 16.4 " fill="#3995D6"></path></g></g><text xml:space="preserve" font-family="MarkerFelt-Thin" font-size="29.5" fill="#FF2600" transform="matrix(1.00, 0.00, -0.00, -1.00, 29.0, 9.0)">D</text><text xml:space="preserve" font-family="MarkerFelt-Thin" font-size="29.5" fill="#FF2600" transform="matrix(1.00, 0.00, -0.00, -1.00, 42.8, 9.0)">e</text><text xml:space="preserve" font-family="MarkerFelt-Thin" font-size="29.5" fill="#FF2600" transform="matrix(1.00, 0.00, -0.00, -1.00, 55.6, 9.0)">p</text><text xml:space="preserve" font-family="MarkerFelt-Thin" font-size="29.5" fill="#FF2600" transform="matrix(1.00, 0.00, -0.00, -1.00, 69.3, 9.0)">r</text><text xml:space="preserve" font-family="MarkerFelt-Thin" font-size="29.5" fill="#FF2600" transform="matrix(1.00, 0.00, -0.00, -1.00, 80.5, 9.0)">e</text><text xml:space="preserve" font-family="MarkerFelt-Thin" font-size="29.5" fill="#FF2600" transform="matrix(1.00, 0.00, -0.00, -1.00, 93.5, 9.0)">c</text><text xml:space="preserve" font-family="MarkerFelt-Thin" font-size="29.5" fill="#FF2600" transform="matrix(1.00, 0.00, -0.00, -1.00, 106.5, 9.0)">a</text><text xml:space="preserve" font-family="MarkerFelt-Thin" font-size="29.5" fill="#FF2600" transform="matrix(1.00, 0.00, -0.00, -1.00, 120.9, 9.0)">t</text><text xml:space="preserve" font-family="MarkerFelt-Thin" font-size="29.5" fill="#FF2600" transform="matrix(1.00, 0.00, -0.00, -1.00, 132.2, 9.0)">e</text><text xml:space="preserve" font-family="MarkerFelt-Thin" font-size="29.5" fill="#FF2600" transform="matrix(1.00, 0.00, -0.00, -1.00, 143.4, 9.0)"> </text><text xml:space="preserve" font-family="MarkerFelt-Thin" font-size="29.5" fill="#FF2600" transform="matrix(1.00, 0.00, -0.00, -1.00, 150.8, 9.0)">J</text><text xml:space="preserve" font-family="MarkerFelt-Thin" font-size="29.5" fill="#FF2600" transform="matrix(1.00, 0.00, -0.00, -1.00, 164.3, 9.0)">a</text><text xml:space="preserve" font-family="MarkerFelt-Thin" font-size="29.5" fill="#FF2600" transform="matrix(1.00, 0.00, -0.00, -1.00, 178.5, 9.0)">v</text><text xml:space="preserve" font-family="MarkerFelt-Thin" font-size="29.5" fill="#FF2600" transform="matrix(1.00, 0.00, -0.00, -1.00, 193.0, 9.0)">a</text><text xml:space="preserve" font-family="MarkerFelt-Thin" font-size="29.5" fill="#FF2600" transform="matrix(1.00, 0.00, -0.00, -1.00, 206.6, 9.0)"> </text><text xml:space="preserve" font-family="MarkerFelt-Thin" font-size="29.5" fill="#FF2600" transform="matrix(1.00, 0.00, -0.00, -1.00, 214.0, 9.0)">c</text><text xml:space="preserve" font-family="MarkerFelt-Thin" font-size="29.5" fill="#FF2600" transform="matrix(1.00, 0.00, -0.00, -1.00, 226.3, 9.0)">l</text><text xml:space="preserve" font-family="MarkerFelt-Thin" font-size="29.5" fill="#FF2600" transform="matrix(1.00, 0.00, -0.00, -1.00, 233.2, 9.0)">i</text><text xml:space="preserve" font-family="MarkerFelt-Thin" font-size="29.5" fill="#FF2600" transform="matrix(1.00, 0.00, -0.00, -1.00, 239.7, 9.0)">e</text><text xml:space="preserve" font-family="MarkerFelt-Thin" font-size="29.5" fill="#FF2600" transform="matrix(1.00, 0.00, -0.00, -1.00, 252.9, 9.0)">n</text><text xml:space="preserve" font-family="MarkerFelt-Thin" font-size="29.5" fill="#FF2600" transform="matrix(1.00, 0.00, -0.00, -1.00, 269.0, 9.0)">t</text></g></svg>