<?xml version="1.0" encoding="UTF-8" standalone="no"?><svg xmlns="http://www.w3.org/2000/svg" xmlns:xlink="http://www.w3.org/1999/xlink" clip-rule="evenodd" stroke-miterlimit="4.00" viewBox="0 0 241 30"><desc>SVG generated by Keynote</desc><defs></defs><g transform="matrix(1.00, 0.00, -0.00, -1.00, 0.0, 30.0)"><g><clipPath id="clip-343"><path d="M 0.0 9.0 L 14.7 9.0 L 14.7 22.7 L 0.0 22.7 Z M 0.0 9.0 "></path></clipPath><g clip-path="url(#clip-343)"><path d="M 14.5 14.0 C 14.6 13.7 14.7 13.5 14.7 13.3 C 14.7 12.9 14.4 12.5 13.9 12.1 C 13.4 11.7 12.9 11.5 12.3 11.5 C 11.5 11.5 10.6 12.1 9.5 13.3 C 9.5 13.3 9.5 11.5 9.5 11.5 C 9.5 11.4 9.5 11.2 9.6 10.9 C 9.7 10.7 9.8 10.5 9.8 10.4 C 9.8 10.0 9.6 9.7 9.2 9.4 C 8.9 9.2 8.5 9.0 8.1 9.0 C 7.4 9.0 6.9 9.3 6.4 9.9 C 6.2 10.1 6.2 10.6 6.3 11.3 C 6.3 12.1 6.3 12.9 6.4 13.7 C 6.0 13.4 5.2 13.0 4.1 12.4 C 3.9 12.2 3.5 11.9 2.7 11.7 C 2.1 11.6 1.5 11.7 0.9 12.0 C 0.3 12.3 0.0 12.6 0.0 13.1 C 0.0 13.2 0.0 13.3 0.1 13.4 C 0.2 13.7 0.4 13.9 0.8 14.0 C 1.4 14.2 1.8 14.3 1.8 14.3 C 1.8 14.3 5.0 16.1 5.0 16.1 C 5.0 16.1 2.8 17.2 2.8 17.2 C 2.4 17.2 2.0 17.4 1.4 17.7 C 1.3 17.9 1.3 18.1 1.3 18.3 C 1.3 18.8 1.6 19.3 2.2 19.8 C 2.9 20.4 3.5 20.6 4.2 20.6 C 4.4 20.6 4.6 20.6 4.8 20.5 C 5.0 20.4 5.2 20.3 5.4 19.9 C 5.6 19.5 5.9 19.2 6.4 18.9 C 6.4 18.9 6.5 21.0 6.5 21.0 C 6.4 21.3 6.4 21.7 6.5 22.2 C 6.7 22.6 7.3 22.7 8.2 22.7 C 9.1 22.7 9.6 22.5 9.9 22.0 C 10.0 21.8 10.1 21.3 10.0 20.6 C 9.9 19.9 9.8 19.3 9.8 18.6 C 9.8 18.6 11.0 19.2 11.0 19.2 C 11.2 19.5 11.6 19.7 12.3 20.0 C 12.8 20.0 13.2 19.9 13.7 19.5 C 14.1 19.1 14.3 18.7 14.3 18.2 C 14.3 18.0 14.3 17.8 14.2 17.7 C 14.0 17.5 13.8 17.4 13.5 17.3 C 13.2 17.2 12.9 17.1 12.8 17.0 C 12.8 17.0 11.0 15.8 11.0 15.8 C 11.0 15.8 13.3 14.6 13.3 14.6 C 13.6 14.5 14.0 14.3 14.5 14.0 Z M 14.5 14.0 " fill="#3995D6"></path></g></g><text xml:space="preserve" font-family="MarkerFelt-Thin" font-size="25.2" fill="#FF2600" transform="matrix(1.00, 0.00, -0.00, -1.00, 24.0, 8.0)">D</text><text xml:space="preserve" font-family="MarkerFelt-Thin" font-size="25.2" fill="#FF2600" transform="matrix(1.00, 0.00, -0.00, -1.00, 35.8, 8.0)">e</text><text xml:space="preserve" font-family="MarkerFelt-Thin" font-size="25.2" fill="#FF2600" transform="matrix(1.00, 0.00, -0.00, -1.00, 46.7, 8.0)">p</text><text xml:space="preserve" font-family="MarkerFelt-Thin" font-size="25.2" fill="#FF2600" transform="matrix(1.00, 0.00, -0.00, -1.00, 58.4, 8.0)">r</text><text xml:space="preserve" font-family="MarkerFelt-Thin" font-size="25.2" fill="#FF2600" transform="matrix(1.00, 0.00, -0.00, -1.00, 67.9, 8.0)">e</text><text xml:space="preserve" font-family="MarkerFelt-Thin" font-size="25.2" fill="#FF2600" transform="matrix(1.00, 0.00, -0.00, -1.00, 79.1, 8.0)">c</text><text xml:space="preserve" font-family="MarkerFelt-Thin" font-size="25.2" fill="#FF2600" transform="matrix(1.00, 0.00, -0.00, -1.00, 90.2, 8.0)">a</text><text xml:space="preserve" font-family="MarkerFelt-Thin" font-size="25.2" fill="#FF2600" transform="matrix(1.00, 0.00, -0.00, -1.00, 102.5, 8.0)">t</text><text xml:space="preserve" font-family="MarkerFelt-Thin" font-size="25.2" fill="#FF2600" transform="matrix(1.00, 0.00, -0.00, -1.00, 112.1, 8.0)">e</text><text xml:space="preserve" font-family="MarkerFelt-Thin" font-size="25.2" fill="#FF2600" transform="matrix(1.00, 0.00, -0.00, -1.00, 121.7, 8.0)"> </text><text xml:space="preserve" font-family="MarkerFelt-Thin" font-size="25.2" fill="#FF2600" transform="matrix(1.00, 0.00, -0.00, -1.00, 128.0, 8.0)">J</text><text xml:space="preserve" font-family="MarkerFelt-Thin" font-size="25.2" fill="#FF2600" transform="matrix(1.00, 0.00, -0.00, -1.00, 139.5, 8.0)">a</text><text xml:space="preserve" font-family="MarkerFelt-Thin" font-size="25.2" fill="#FF2600" transform="matrix(1.00, 0.00, -0.00, -1.00, 151.6, 8.0)">v</text><text xml:space="preserve" font-family="MarkerFelt-Thin" font-size="25.2" fill="#FF2600" transform="matrix(1.00, 0.00, -0.00, -1.00, 164.0, 8.0)">a</text><text xml:space="preserve" font-family="MarkerFelt-Thin" font-size="25.2" fill="#FF2600" transform="matrix(1.00, 0.00, -0.00, -1.00, 175.6, 8.0)"> </text><text xml:space="preserve" font-family="MarkerFelt-Thin" font-size="25.2" fill="#FF2600" transform="matrix(1.00, 0.00, -0.00, -1.00, 181.9, 8.0)">c</text><text xml:space="preserve" font-family="MarkerFelt-Thin" font-size="25.2" fill="#FF2600" transform="matrix(1.00, 0.00, -0.00, -1.00, 192.5, 8.0)">l</text><text xml:space="preserve" font-family="MarkerFelt-Thin" font-size="25.2" fill="#FF2600" transform="matrix(1.00, 0.00, -0.00, -1.00, 198.4, 8.0)">i</text><text xml:space="preserve" font-family="MarkerFelt-Thin" font-size="25.2" fill="#FF2600" transform="matrix(1.00, 0.00, -0.00, -1.00, 203.9, 8.0)">e</text><text xml:space="preserve" font-family="MarkerFelt-Thin" font-size="25.2" fill="#FF2600" transform="matrix(1.00, 0.00, -0.00, -1.00, 215.1, 8.0)">n</text><text xml:space="preserve" font-family="MarkerFelt-Thin" font-size="25.2" fill="#FF2600" transform="matrix(1.00, 0.00, -0.00, -1.00, 228.9, 8.0)">t</text></g></svg>