<?xml version="1.0" encoding="UTF-8" standalone="no"?><svg xmlns="http://www.w3.org/2000/svg" xmlns:xlink="http://www.w3.org/1999/xlink" clip-rule="evenodd" stroke-miterlimit="4.00" viewBox="0 0 196 34"><desc>SVG generated by Keynote</desc><defs></defs><g transform="matrix(1.00, 0.00, -0.00, -1.00, 0.0, 34.0)"><g><clipPath id="clip-352"><path d="M 0.0 9.3 L 17.2 9.3 L 17.2 25.4 L 0.0 25.4 Z M 0.0 9.3 "></path></clipPath><g clip-path="url(#clip-352)"><path d="M 16.9 15.1 C 17.1 14.8 17.2 14.6 17.2 14.3 C 17.2 13.8 16.9 13.4 16.3 12.9 C 15.8 12.5 15.1 12.3 14.4 12.3 C 13.5 12.3 12.4 12.9 11.1 14.3 C 11.1 14.3 11.1 12.3 11.1 12.3 C 11.1 12.1 11.2 11.8 11.3 11.5 C 11.4 11.2 11.5 11.0 11.5 10.9 C 11.5 10.5 11.3 10.1 10.8 9.8 C 10.4 9.5 9.9 9.3 9.5 9.3 C 8.7 9.3 8.1 9.7 7.5 10.3 C 7.3 10.5 7.3 11.1 7.3 12.0 C 7.4 12.9 7.4 13.9 7.5 14.8 C 7.0 14.5 6.1 14.0 4.8 13.3 C 4.6 13.0 4.0 12.7 3.1 12.4 C 2.5 12.3 1.8 12.5 1.1 12.8 C 0.4 13.1 0.0 13.5 0.0 14.1 C 0.0 14.2 0.0 14.3 0.1 14.5 C 0.2 14.8 0.5 15.0 1.0 15.1 C 1.7 15.4 2.1 15.5 2.1 15.5 C 2.1 15.5 5.9 17.6 5.9 17.6 C 5.9 17.6 3.2 18.9 3.2 18.9 C 2.8 18.9 2.3 19.1 1.7 19.5 C 1.5 19.7 1.5 19.9 1.5 20.1 C 1.5 20.8 1.8 21.4 2.6 22.0 C 3.4 22.6 4.1 22.9 4.9 22.9 C 5.1 22.9 5.4 22.9 5.6 22.8 C 5.9 22.7 6.1 22.5 6.3 22.1 C 6.6 21.6 6.9 21.2 7.5 20.9 C 7.5 20.9 7.6 23.3 7.6 23.3 C 7.5 23.6 7.5 24.1 7.6 24.8 C 7.9 25.2 8.6 25.4 9.7 25.4 C 10.6 25.4 11.3 25.1 11.6 24.5 C 11.8 24.3 11.8 23.7 11.7 22.8 C 11.6 22.1 11.5 21.3 11.4 20.5 C 11.4 20.5 12.8 21.2 12.8 21.2 C 13.1 21.5 13.6 21.9 14.4 22.2 C 14.9 22.2 15.5 22.0 16.0 21.6 C 16.5 21.1 16.8 20.6 16.8 20.1 C 16.8 19.8 16.7 19.6 16.6 19.4 C 16.4 19.2 16.2 19.1 15.9 19.0 C 15.4 18.9 15.1 18.8 15.0 18.7 C 15.0 18.7 12.9 17.3 12.9 17.3 C 12.9 17.3 15.6 15.8 15.6 15.8 C 16.0 15.7 16.4 15.5 16.9 15.1 Z M 16.9 15.1 " fill="#3995D6"></path></g></g><text xml:space="preserve" font-family="MarkerFelt-Thin" font-size="29.5" fill="#858585" transform="matrix(1.00, 0.00, -0.00, -1.00, 29.0, 8.0)">B</text><text xml:space="preserve" font-family="MarkerFelt-Thin" font-size="29.5" fill="#858585" transform="matrix(1.00, 0.00, -0.00, -1.00, 44.4, 8.0)">u</text><text xml:space="preserve" font-family="MarkerFelt-Thin" font-size="29.5" fill="#858585" transform="matrix(1.00, 0.00, -0.00, -1.00, 57.3, 8.0)">s</text><text xml:space="preserve" font-family="MarkerFelt-Thin" font-size="29.5" fill="#858585" transform="matrix(1.00, 0.00, -0.00, -1.00, 69.4, 8.0)">i</text><text xml:space="preserve" font-family="MarkerFelt-Thin" font-size="29.5" fill="#858585" transform="matrix(1.00, 0.00, -0.00, -1.00, 76.7, 8.0)">n</text><text xml:space="preserve" font-family="MarkerFelt-Thin" font-size="29.5" fill="#858585" transform="matrix(1.00, 0.00, -0.00, -1.00, 92.0, 8.0)">e</text><text xml:space="preserve" font-family="MarkerFelt-Thin" font-size="29.5" fill="#858585" transform="matrix(1.00, 0.00, -0.00, -1.00, 105.5, 8.0)">s</text><text xml:space="preserve" font-family="MarkerFelt-Thin" font-size="29.5" fill="#858585" transform="matrix(1.00, 0.00, -0.00, -1.00, 117.9, 8.0)">s</text><text xml:space="preserve" font-family="MarkerFelt-Thin" font-size="29.5" fill="#858585" transform="matrix(1.00, 0.00, -0.00, -1.00, 128.9, 8.0)"> </text><text xml:space="preserve" font-family="MarkerFelt-Thin" font-size="29.5" fill="#858585" transform="matrix(1.00, 0.00, -0.00, -1.00, 136.2, 8.0)">L</text><text xml:space="preserve" font-family="MarkerFelt-Thin" font-size="29.5" fill="#858585" transform="matrix(1.00, 0.00, -0.00, -1.00, 149.9, 8.0)">o</text><text xml:space="preserve" font-family="MarkerFelt-Thin" font-size="29.5" fill="#858585" transform="matrix(1.00, 0.00, -0.00, -1.00, 163.5, 8.0)">g</text><text xml:space="preserve" font-family="MarkerFelt-Thin" font-size="29.5" fill="#858585" transform="matrix(1.00, 0.00, -0.00, -1.00, 176.8, 8.0)">i</text><text xml:space="preserve" font-family="MarkerFelt-Thin" font-size="29.5" fill="#858585" transform="matrix(1.00, 0.00, -0.00, -1.00, 183.5, 8.0)">c</text></g></svg>