<?xml version="1.0" encoding="UTF-8" standalone="no"?><svg xmlns="http://www.w3.org/2000/svg" xmlns:xlink="http://www.w3.org/1999/xlink" clip-rule="evenodd" stroke-miterlimit="4.00" viewBox="0 0 387 30"><desc>SVG generated by Keynote</desc><defs></defs><g transform="matrix(1.00, 0.00, -0.00, -1.00, 0.0, 30.0)"><g><clipPath id="clip-347"><path d="M 0.0 8.6 L 14.7 8.6 L 14.7 22.3 L 0.0 22.3 Z M 0.0 8.6 "></path></clipPath><g clip-path="url(#clip-347)"><path d="M 14.5 13.6 C 14.6 13.3 14.7 13.1 14.7 12.9 C 14.7 12.5 14.4 12.1 13.9 11.7 C 13.4 11.3 12.9 11.1 12.3 11.1 C 11.5 11.1 10.6 11.7 9.5 12.9 C 9.5 12.9 9.5 11.1 9.5 11.1 C 9.5 11.0 9.5 10.8 9.6 10.5 C 9.7 10.3 9.8 10.1 9.8 10.0 C 9.8 9.6 9.6 9.3 9.2 9.0 C 8.9 8.8 8.5 8.6 8.1 8.6 C 7.4 8.6 6.9 8.9 6.4 9.5 C 6.2 9.7 6.2 10.2 6.3 10.9 C 6.3 11.7 6.3 12.5 6.4 13.3 C 6.0 13.0 5.2 12.6 4.1 12.0 C 3.9 11.8 3.5 11.5 2.7 11.3 C 2.1 11.2 1.5 11.3 0.9 11.6 C 0.3 11.9 0.0 12.2 0.0 12.7 C 0.0 12.8 0.0 12.9 0.1 13.0 C 0.2 13.3 0.4 13.5 0.8 13.6 C 1.4 13.8 1.8 13.9 1.8 13.9 C 1.8 13.9 5.0 15.7 5.0 15.7 C 5.0 15.7 2.8 16.8 2.8 16.8 C 2.4 16.8 2.0 17.0 1.4 17.3 C 1.3 17.5 1.3 17.7 1.3 17.9 C 1.3 18.4 1.6 18.9 2.2 19.4 C 2.9 20.0 3.5 20.2 4.2 20.2 C 4.4 20.2 4.6 20.2 4.8 20.1 C 5.0 20.0 5.2 19.9 5.4 19.5 C 5.6 19.1 5.9 18.8 6.4 18.5 C 6.4 18.5 6.5 20.6 6.5 20.6 C 6.4 20.9 6.4 21.3 6.5 21.8 C 6.7 22.2 7.3 22.3 8.2 22.3 C 9.1 22.3 9.6 22.1 9.9 21.6 C 10.0 21.4 10.1 20.9 10.0 20.2 C 9.9 19.5 9.8 18.9 9.8 18.2 C 9.8 18.2 11.0 18.8 11.0 18.8 C 11.2 19.1 11.6 19.3 12.3 19.6 C 12.8 19.6 13.2 19.5 13.7 19.1 C 14.1 18.7 14.3 18.3 14.3 17.8 C 14.3 17.6 14.3 17.4 14.2 17.3 C 14.0 17.1 13.8 17.0 13.5 16.9 C 13.2 16.8 12.9 16.7 12.8 16.6 C 12.8 16.6 11.0 15.4 11.0 15.4 C 11.0 15.4 13.3 14.2 13.3 14.2 C 13.6 14.1 14.0 13.9 14.5 13.6 Z M 14.5 13.6 " fill="#3995D6"></path></g></g><text xml:space="preserve" font-family="MarkerFelt-Thin" font-size="25.2" fill="#FF2600" transform="matrix(1.00, 0.00, -0.00, -1.00, 24.0, 7.0)">R</text><text xml:space="preserve" font-family="MarkerFelt-Thin" font-size="25.2" fill="#FF2600" transform="matrix(1.00, 0.00, -0.00, -1.00, 39.1, 7.0)">e</text><text xml:space="preserve" font-family="MarkerFelt-Thin" font-size="25.2" fill="#FF2600" transform="matrix(1.00, 0.00, -0.00, -1.00, 50.7, 7.0)">w</text><text xml:space="preserve" font-family="MarkerFelt-Thin" font-size="25.2" fill="#FF2600" transform="matrix(1.00, 0.00, -0.00, -1.00, 70.4, 7.0)">r</text><text xml:space="preserve" font-family="MarkerFelt-Thin" font-size="25.2" fill="#FF2600" transform="matrix(1.00, 0.00, -0.00, -1.00, 81.5, 7.0)">i</text><text xml:space="preserve" font-family="MarkerFelt-Thin" font-size="25.2" fill="#FF2600" transform="matrix(1.00, 0.00, -0.00, -1.00, 88.2, 7.0)">t</text><text xml:space="preserve" font-family="MarkerFelt-Thin" font-size="25.2" fill="#FF2600" transform="matrix(1.00, 0.00, -0.00, -1.00, 97.8, 7.0)">e</text><text xml:space="preserve" font-family="MarkerFelt-Thin" font-size="25.2" fill="#FF2600" transform="matrix(1.00, 0.00, -0.00, -1.00, 107.4, 7.0)"> </text><text xml:space="preserve" font-family="MarkerFelt-Thin" font-size="25.2" fill="#FF2600" transform="matrix(1.00, 0.00, -0.00, -1.00, 113.7, 7.0)">a</text><text xml:space="preserve" font-family="MarkerFelt-Thin" font-size="25.2" fill="#FF2600" transform="matrix(1.00, 0.00, -0.00, -1.00, 126.4, 7.0)">l</text><text xml:space="preserve" font-family="MarkerFelt-Thin" font-size="25.2" fill="#FF2600" transform="matrix(1.00, 0.00, -0.00, -1.00, 132.7, 7.0)">l</text><text xml:space="preserve" font-family="MarkerFelt-Thin" font-size="25.2" fill="#FF2600" transform="matrix(1.00, 0.00, -0.00, -1.00, 137.8, 7.0)"> </text><text xml:space="preserve" font-family="MarkerFelt-Thin" font-size="25.2" fill="#FF2600" transform="matrix(1.00, 0.00, -0.00, -1.00, 144.1, 7.0)">c</text><text xml:space="preserve" font-family="MarkerFelt-Thin" font-size="25.2" fill="#FF2600" transform="matrix(1.00, 0.00, -0.00, -1.00, 154.6, 7.0)">l</text><text xml:space="preserve" font-family="MarkerFelt-Thin" font-size="25.2" fill="#FF2600" transform="matrix(1.00, 0.00, -0.00, -1.00, 160.5, 7.0)">i</text><text xml:space="preserve" font-family="MarkerFelt-Thin" font-size="25.2" fill="#FF2600" transform="matrix(1.00, 0.00, -0.00, -1.00, 166.1, 7.0)">e</text><text xml:space="preserve" font-family="MarkerFelt-Thin" font-size="25.2" fill="#FF2600" transform="matrix(1.00, 0.00, -0.00, -1.00, 177.3, 7.0)">n</text><text xml:space="preserve" font-family="MarkerFelt-Thin" font-size="25.2" fill="#FF2600" transform="matrix(1.00, 0.00, -0.00, -1.00, 191.1, 7.0)">t</text><text xml:space="preserve" font-family="MarkerFelt-Thin" font-size="25.2" fill="#FF2600" transform="matrix(1.00, 0.00, -0.00, -1.00, 198.7, 7.0)">-</text><text xml:space="preserve" font-family="MarkerFelt-Thin" font-size="25.2" fill="#FF2600" transform="matrix(1.00, 0.00, -0.00, -1.00, 208.0, 7.0)">s</text><text xml:space="preserve" font-family="MarkerFelt-Thin" font-size="25.2" fill="#FF2600" transform="matrix(1.00, 0.00, -0.00, -1.00, 218.4, 7.0)">i</text><text xml:space="preserve" font-family="MarkerFelt-Thin" font-size="25.2" fill="#FF2600" transform="matrix(1.00, 0.00, -0.00, -1.00, 223.9, 7.0)">d</text><text xml:space="preserve" font-family="MarkerFelt-Thin" font-size="25.2" fill="#FF2600" transform="matrix(1.00, 0.00, -0.00, -1.00, 234.8, 7.0)">e</text><text xml:space="preserve" font-family="MarkerFelt-Thin" font-size="25.2" fill="#FF2600" transform="matrix(1.00, 0.00, -0.00, -1.00, 244.3, 7.0)"> </text><text xml:space="preserve" font-family="MarkerFelt-Thin" font-size="25.2" fill="#FF2600" transform="matrix(1.00, 0.00, -0.00, -1.00, 250.6, 7.0)">b</text><text xml:space="preserve" font-family="MarkerFelt-Thin" font-size="25.2" fill="#FF2600" transform="matrix(1.00, 0.00, -0.00, -1.00, 262.6, 7.0)">u</text><text xml:space="preserve" font-family="MarkerFelt-Thin" font-size="25.2" fill="#FF2600" transform="matrix(1.00, 0.00, -0.00, -1.00, 273.6, 7.0)">s</text><text xml:space="preserve" font-family="MarkerFelt-Thin" font-size="25.2" fill="#FF2600" transform="matrix(1.00, 0.00, -0.00, -1.00, 283.9, 7.0)">i</text><text xml:space="preserve" font-family="MarkerFelt-Thin" font-size="25.2" fill="#FF2600" transform="matrix(1.00, 0.00, -0.00, -1.00, 290.2, 7.0)">n</text><text xml:space="preserve" font-family="MarkerFelt-Thin" font-size="25.2" fill="#FF2600" transform="matrix(1.00, 0.00, -0.00, -1.00, 303.2, 7.0)">e</text><text xml:space="preserve" font-family="MarkerFelt-Thin" font-size="25.2" fill="#FF2600" transform="matrix(1.00, 0.00, -0.00, -1.00, 314.7, 7.0)">s</text><text xml:space="preserve" font-family="MarkerFelt-Thin" font-size="25.2" fill="#FF2600" transform="matrix(1.00, 0.00, -0.00, -1.00, 325.4, 7.0)">s</text><text xml:space="preserve" font-family="MarkerFelt-Thin" font-size="25.2" fill="#FF2600" transform="matrix(1.00, 0.00, -0.00, -1.00, 334.7, 7.0)"> </text><text xml:space="preserve" font-family="MarkerFelt-Thin" font-size="25.2" fill="#FF2600" transform="matrix(1.00, 0.00, -0.00, -1.00, 341.0, 7.0)">l</text><text xml:space="preserve" font-family="MarkerFelt-Thin" font-size="25.2" fill="#FF2600" transform="matrix(1.00, 0.00, -0.00, -1.00, 347.0, 7.0)">o</text><text xml:space="preserve" font-family="MarkerFelt-Thin" font-size="25.2" fill="#FF2600" transform="matrix(1.00, 0.00, -0.00, -1.00, 358.6, 7.0)">g</text><text xml:space="preserve" font-family="MarkerFelt-Thin" font-size="25.2" fill="#FF2600" transform="matrix(1.00, 0.00, -0.00, -1.00, 370.0, 7.0)">i</text><text xml:space="preserve" font-family="MarkerFelt-Thin" font-size="25.2" fill="#FF2600" transform="matrix(1.00, 0.00, -0.00, -1.00, 375.7, 7.0)">c</text></g></svg>