<?xml version="1.0" encoding="UTF-8" standalone="no"?><svg xmlns="http://www.w3.org/2000/svg" xmlns:xlink="http://www.w3.org/1999/xlink" clip-rule="evenodd" stroke-miterlimit="4.00" viewBox="0 0 375 56"><desc>SVG generated by Keynote</desc><defs></defs><g transform="matrix(1.00, 0.00, -0.00, -1.00, 0.0, 56.0)"><g><clipPath id="clip-346"><path d="M 0.0 35.2 L 14.7 35.2 L 14.7 48.9 L 0.0 48.9 Z M 0.0 35.2 "></path></clipPath><g clip-path="url(#clip-346)"><path d="M 14.5 40.2 C 14.6 39.9 14.7 39.7 14.7 39.5 C 14.7 39.1 14.4 38.7 13.9 38.3 C 13.4 37.9 12.9 37.7 12.3 37.7 C 11.5 37.7 10.6 38.3 9.5 39.5 C 9.5 39.5 9.5 37.7 9.5 37.7 C 9.5 37.6 9.5 37.4 9.6 37.1 C 9.7 36.9 9.8 36.7 9.8 36.6 C 9.8 36.2 9.6 35.9 9.2 35.6 C 8.9 35.4 8.5 35.2 8.1 35.2 C 7.4 35.2 6.9 35.5 6.4 36.1 C 6.2 36.3 6.2 36.8 6.3 37.5 C 6.3 38.3 6.3 39.1 6.4 39.9 C 6.0 39.6 5.2 39.2 4.1 38.6 C 3.9 38.4 3.5 38.1 2.7 37.9 C 2.1 37.8 1.5 37.9 0.9 38.2 C 0.3 38.5 0.0 38.8 0.0 39.3 C 0.0 39.4 0.0 39.5 0.1 39.6 C 0.2 39.9 0.4 40.1 0.8 40.2 C 1.4 40.4 1.8 40.5 1.8 40.5 C 1.8 40.5 5.0 42.3 5.0 42.3 C 5.0 42.3 2.8 43.4 2.8 43.4 C 2.4 43.4 2.0 43.6 1.4 43.9 C 1.3 44.1 1.3 44.3 1.3 44.5 C 1.3 45.0 1.6 45.5 2.2 46.0 C 2.9 46.6 3.5 46.8 4.2 46.8 C 4.4 46.8 4.6 46.8 4.8 46.7 C 5.0 46.6 5.2 46.5 5.4 46.1 C 5.6 45.7 5.9 45.4 6.4 45.1 C 6.4 45.1 6.5 47.2 6.5 47.2 C 6.4 47.5 6.4 47.9 6.5 48.4 C 6.7 48.8 7.3 48.9 8.2 48.9 C 9.1 48.9 9.6 48.7 9.9 48.2 C 10.0 48.0 10.1 47.5 10.0 46.8 C 9.9 46.1 9.8 45.5 9.8 44.8 C 9.8 44.8 11.0 45.4 11.0 45.4 C 11.2 45.7 11.6 45.9 12.3 46.2 C 12.8 46.2 13.2 46.1 13.7 45.7 C 14.1 45.3 14.3 44.9 14.3 44.4 C 14.3 44.2 14.3 44.0 14.2 43.9 C 14.0 43.7 13.8 43.6 13.5 43.5 C 13.2 43.4 12.9 43.3 12.8 43.2 C 12.8 43.2 11.0 42.0 11.0 42.0 C 11.0 42.0 13.3 40.8 13.3 40.8 C 13.6 40.7 14.0 40.5 14.5 40.2 Z M 14.5 40.2 " fill="#3995D6"></path></g></g><text xml:space="preserve" font-family="MarkerFelt-Thin" font-size="25.2" fill="#FF2600" transform="matrix(1.00, 0.00, -0.00, -1.00, 24.0, 34.0)">D</text><text xml:space="preserve" font-family="MarkerFelt-Thin" font-size="25.2" fill="#FF2600" transform="matrix(1.00, 0.00, -0.00, -1.00, 35.8, 34.0)">e</text><text xml:space="preserve" font-family="MarkerFelt-Thin" font-size="25.2" fill="#FF2600" transform="matrix(1.00, 0.00, -0.00, -1.00, 46.7, 34.0)">p</text><text xml:space="preserve" font-family="MarkerFelt-Thin" font-size="25.2" fill="#FF2600" transform="matrix(1.00, 0.00, -0.00, -1.00, 58.4, 34.0)">r</text><text xml:space="preserve" font-family="MarkerFelt-Thin" font-size="25.2" fill="#FF2600" transform="matrix(1.00, 0.00, -0.00, -1.00, 67.9, 34.0)">e</text><text xml:space="preserve" font-family="MarkerFelt-Thin" font-size="25.2" fill="#FF2600" transform="matrix(1.00, 0.00, -0.00, -1.00, 79.1, 34.0)">c</text><text xml:space="preserve" font-family="MarkerFelt-Thin" font-size="25.2" fill="#FF2600" transform="matrix(1.00, 0.00, -0.00, -1.00, 90.2, 34.0)">a</text><text xml:space="preserve" font-family="MarkerFelt-Thin" font-size="25.2" fill="#FF2600" transform="matrix(1.00, 0.00, -0.00, -1.00, 102.5, 34.0)">t</text><text xml:space="preserve" font-family="MarkerFelt-Thin" font-size="25.2" fill="#FF2600" transform="matrix(1.00, 0.00, -0.00, -1.00, 112.1, 34.0)">e</text><text xml:space="preserve" font-family="MarkerFelt-Thin" font-size="25.2" fill="#FF2600" transform="matrix(1.00, 0.00, -0.00, -1.00, 121.7, 34.0)"> </text><text xml:space="preserve" font-family="MarkerFelt-Thin" font-size="25.2" fill="#FF2600" transform="matrix(1.00, 0.00, -0.00, -1.00, 128.0, 34.0)">J</text><text xml:space="preserve" font-family="MarkerFelt-Thin" font-size="25.2" fill="#FF2600" transform="matrix(1.00, 0.00, -0.00, -1.00, 139.5, 34.0)">a</text><text xml:space="preserve" font-family="MarkerFelt-Thin" font-size="25.2" fill="#FF2600" transform="matrix(1.00, 0.00, -0.00, -1.00, 151.6, 34.0)">v</text><text xml:space="preserve" font-family="MarkerFelt-Thin" font-size="25.2" fill="#FF2600" transform="matrix(1.00, 0.00, -0.00, -1.00, 164.0, 34.0)">a</text><text xml:space="preserve" font-family="MarkerFelt-Thin" font-size="25.2" fill="#FF2600" transform="matrix(1.00, 0.00, -0.00, -1.00, 175.6, 34.0)"> </text><text xml:space="preserve" font-family="MarkerFelt-Thin" font-size="25.2" fill="#FF2600" transform="matrix(1.00, 0.00, -0.00, -1.00, 181.9, 34.0)">c</text><text xml:space="preserve" font-family="MarkerFelt-Thin" font-size="25.2" fill="#FF2600" transform="matrix(1.00, 0.00, -0.00, -1.00, 192.5, 34.0)">l</text><text xml:space="preserve" font-family="MarkerFelt-Thin" font-size="25.2" fill="#FF2600" transform="matrix(1.00, 0.00, -0.00, -1.00, 198.4, 34.0)">i</text><text xml:space="preserve" font-family="MarkerFelt-Thin" font-size="25.2" fill="#FF2600" transform="matrix(1.00, 0.00, -0.00, -1.00, 203.9, 34.0)">e</text><text xml:space="preserve" font-family="MarkerFelt-Thin" font-size="25.2" fill="#FF2600" transform="matrix(1.00, 0.00, -0.00, -1.00, 215.1, 34.0)">n</text><text xml:space="preserve" font-family="MarkerFelt-Thin" font-size="25.2" fill="#FF2600" transform="matrix(1.00, 0.00, -0.00, -1.00, 228.9, 34.0)">t</text><text xml:space="preserve" font-family="MarkerFelt-Thin" font-size="25.2" fill="#FF2600" transform="matrix(1.00, 0.00, -0.00, -1.00, 236.5, 34.0)">-</text><text xml:space="preserve" font-family="MarkerFelt-Thin" font-size="25.2" fill="#FF2600" transform="matrix(1.00, 0.00, -0.00, -1.00, 245.8, 34.0)">s</text><text xml:space="preserve" font-family="MarkerFelt-Thin" font-size="25.2" fill="#FF2600" transform="matrix(1.00, 0.00, -0.00, -1.00, 256.2, 34.0)">i</text><text xml:space="preserve" font-family="MarkerFelt-Thin" font-size="25.2" fill="#FF2600" transform="matrix(1.00, 0.00, -0.00, -1.00, 261.8, 34.0)">d</text><text xml:space="preserve" font-family="MarkerFelt-Thin" font-size="25.2" fill="#FF2600" transform="matrix(1.00, 0.00, -0.00, -1.00, 272.6, 34.0)">e</text><text xml:space="preserve" font-family="MarkerFelt-Thin" font-size="25.2" fill="#FF2600" transform="matrix(1.00, 0.00, -0.00, -1.00, 282.2, 34.0)"> </text><text xml:space="preserve" font-family="MarkerFelt-Thin" font-size="25.2" fill="#FF2600" transform="matrix(1.00, 0.00, -0.00, -1.00, 288.5, 34.0)">b</text><text xml:space="preserve" font-family="MarkerFelt-Thin" font-size="25.2" fill="#FF2600" transform="matrix(1.00, 0.00, -0.00, -1.00, 300.4, 34.0)">u</text><text xml:space="preserve" font-family="MarkerFelt-Thin" font-size="25.2" fill="#FF2600" transform="matrix(1.00, 0.00, -0.00, -1.00, 311.4, 34.0)">s</text><text xml:space="preserve" font-family="MarkerFelt-Thin" font-size="25.2" fill="#FF2600" transform="matrix(1.00, 0.00, -0.00, -1.00, 321.8, 34.0)">i</text><text xml:space="preserve" font-family="MarkerFelt-Thin" font-size="25.2" fill="#FF2600" transform="matrix(1.00, 0.00, -0.00, -1.00, 328.0, 34.0)">n</text><text xml:space="preserve" font-family="MarkerFelt-Thin" font-size="25.2" fill="#FF2600" transform="matrix(1.00, 0.00, -0.00, -1.00, 341.0, 34.0)">e</text><text xml:space="preserve" font-family="MarkerFelt-Thin" font-size="25.2" fill="#FF2600" transform="matrix(1.00, 0.00, -0.00, -1.00, 352.5, 34.0)">s</text><text xml:space="preserve" font-family="MarkerFelt-Thin" font-size="25.2" fill="#FF2600" transform="matrix(1.00, 0.00, -0.00, -1.00, 363.2, 34.0)">s</text><text xml:space="preserve" font-family="MarkerFelt-Thin" font-size="25.2" fill="#FF2600" transform="matrix(1.00, 0.00, -0.00, -1.00, 372.5, 34.0)"> </text><text xml:space="preserve" font-family="MarkerFelt-Thin" font-size="25.2" fill="#FF2600" transform="matrix(1.00, 0.00, -0.00, -1.00, 24.0, 7.0)">l</text><text xml:space="preserve" font-family="MarkerFelt-Thin" font-size="25.2" fill="#FF2600" transform="matrix(1.00, 0.00, -0.00, -1.00, 30.0, 7.0)">o</text><text xml:space="preserve" font-family="MarkerFelt-Thin" font-size="25.2" fill="#FF2600" transform="matrix(1.00, 0.00, -0.00, -1.00, 41.6, 7.0)">g</text><text xml:space="preserve" font-family="MarkerFelt-Thin" font-size="25.2" fill="#FF2600" transform="matrix(1.00, 0.00, -0.00, -1.00, 53.0, 7.0)">i</text><text xml:space="preserve" font-family="MarkerFelt-Thin" font-size="25.2" fill="#FF2600" transform="matrix(1.00, 0.00, -0.00, -1.00, 58.7, 7.0)">c</text></g></svg>