<?xml version="1.0" encoding="UTF-8" standalone="no"?><svg xmlns="http://www.w3.org/2000/svg" xmlns:xlink="http://www.w3.org/1999/xlink" clip-rule="evenodd" stroke-miterlimit="4.00" viewBox="0 0 257 35"><desc>SVG generated by Keynote</desc><defs></defs><g transform="matrix(1.00, 0.00, -0.00, -1.00, 0.0, 35.0)"><g><clipPath id="clip-349"><path d="M 0.0 9.8 L 17.2 9.8 L 17.2 25.8 L 0.0 25.8 Z M 0.0 9.8 "></path></clipPath><g clip-path="url(#clip-349)"><path d="M 16.9 15.6 C 17.1 15.3 17.2 15.1 17.2 14.8 C 17.2 14.3 16.9 13.8 16.3 13.4 C 15.8 13.0 15.1 12.7 14.4 12.7 C 13.5 12.7 12.4 13.4 11.1 14.8 C 11.1 14.8 11.1 12.7 11.1 12.7 C 11.1 12.5 11.2 12.3 11.3 12.0 C 11.4 11.7 11.5 11.5 11.5 11.4 C 11.5 10.9 11.3 10.6 10.8 10.3 C 10.4 10.0 9.9 9.8 9.5 9.8 C 8.7 9.8 8.1 10.2 7.5 10.8 C 7.3 11.0 7.3 11.6 7.3 12.5 C 7.4 13.4 7.4 14.4 7.5 15.3 C 7.0 15.0 6.1 14.5 4.8 13.7 C 4.6 13.5 4.0 13.2 3.1 12.9 C 2.5 12.8 1.8 12.9 1.1 13.3 C 0.4 13.6 0.0 14.0 0.0 14.6 C 0.0 14.7 0.0 14.8 0.1 15.0 C 0.2 15.3 0.5 15.5 1.0 15.6 C 1.7 15.9 2.1 16.0 2.1 16.0 C 2.1 16.0 5.9 18.1 5.9 18.1 C 5.9 18.1 3.2 19.4 3.2 19.4 C 2.8 19.4 2.3 19.6 1.7 19.9 C 1.5 20.1 1.5 20.4 1.5 20.6 C 1.5 21.2 1.8 21.9 2.6 22.5 C 3.4 23.1 4.1 23.4 4.9 23.4 C 5.1 23.4 5.4 23.3 5.6 23.3 C 5.9 23.2 6.1 22.9 6.3 22.6 C 6.6 22.1 6.9 21.7 7.5 21.4 C 7.5 21.4 7.6 23.8 7.6 23.8 C 7.5 24.1 7.5 24.6 7.6 25.2 C 7.9 25.6 8.6 25.8 9.7 25.8 C 10.6 25.8 11.3 25.6 11.6 25.0 C 11.8 24.8 11.8 24.2 11.7 23.3 C 11.6 22.6 11.5 21.8 11.4 21.0 C 11.4 21.0 12.8 21.7 12.8 21.7 C 13.1 22.0 13.6 22.3 14.4 22.7 C 14.9 22.7 15.5 22.5 16.0 22.0 C 16.5 21.6 16.8 21.1 16.8 20.6 C 16.8 20.3 16.7 20.1 16.6 19.9 C 16.4 19.7 16.2 19.6 15.9 19.5 C 15.4 19.4 15.1 19.3 15.0 19.2 C 15.0 19.2 12.9 17.7 12.9 17.7 C 12.9 17.7 15.6 16.3 15.6 16.3 C 16.0 16.2 16.4 15.9 16.9 15.6 Z M 16.9 15.6 " fill="#3995D6"></path></g></g><text xml:space="preserve" font-family="MarkerFelt-Thin" font-size="29.5" fill="#FF2600" transform="matrix(1.00, 0.00, -0.00, -1.00, 29.0, 8.0)">P</text><text xml:space="preserve" font-family="MarkerFelt-Thin" font-size="29.5" fill="#FF2600" transform="matrix(1.00, 0.00, -0.00, -1.00, 42.3, 8.0)">r</text><text xml:space="preserve" font-family="MarkerFelt-Thin" font-size="29.5" fill="#FF2600" transform="matrix(1.00, 0.00, -0.00, -1.00, 53.5, 8.0)">e</text><text xml:space="preserve" font-family="MarkerFelt-Thin" font-size="29.5" fill="#FF2600" transform="matrix(1.00, 0.00, -0.00, -1.00, 67.0, 8.0)">s</text><text xml:space="preserve" font-family="MarkerFelt-Thin" font-size="29.5" fill="#FF2600" transform="matrix(1.00, 0.00, -0.00, -1.00, 78.9, 8.0)">e</text><text xml:space="preserve" font-family="MarkerFelt-Thin" font-size="29.5" fill="#FF2600" transform="matrix(1.00, 0.00, -0.00, -1.00, 92.0, 8.0)">n</text><text xml:space="preserve" font-family="MarkerFelt-Thin" font-size="29.5" fill="#FF2600" transform="matrix(1.00, 0.00, -0.00, -1.00, 108.2, 8.0)">t</text><text xml:space="preserve" font-family="MarkerFelt-Thin" font-size="29.5" fill="#FF2600" transform="matrix(1.00, 0.00, -0.00, -1.00, 120.4, 8.0)">a</text><text xml:space="preserve" font-family="MarkerFelt-Thin" font-size="29.5" fill="#FF2600" transform="matrix(1.00, 0.00, -0.00, -1.00, 134.8, 8.0)">t</text><text xml:space="preserve" font-family="MarkerFelt-Thin" font-size="29.5" fill="#FF2600" transform="matrix(1.00, 0.00, -0.00, -1.00, 147.5, 8.0)">i</text><text xml:space="preserve" font-family="MarkerFelt-Thin" font-size="29.5" fill="#FF2600" transform="matrix(1.00, 0.00, -0.00, -1.00, 154.3, 8.0)">o</text><text xml:space="preserve" font-family="MarkerFelt-Thin" font-size="29.5" fill="#FF2600" transform="matrix(1.00, 0.00, -0.00, -1.00, 167.7, 8.0)">n</text><text xml:space="preserve" font-family="MarkerFelt-Thin" font-size="29.5" fill="#FF2600" transform="matrix(1.00, 0.00, -0.00, -1.00, 182.1, 8.0)"> </text><text xml:space="preserve" font-family="MarkerFelt-Thin" font-size="29.5" fill="#FF2600" transform="matrix(1.00, 0.00, -0.00, -1.00, 189.5, 8.0)">L</text><text xml:space="preserve" font-family="MarkerFelt-Thin" font-size="29.5" fill="#FF2600" transform="matrix(1.00, 0.00, -0.00, -1.00, 203.7, 8.0)">a</text><text xml:space="preserve" font-family="MarkerFelt-Thin" font-size="29.5" fill="#FF2600" transform="matrix(1.00, 0.00, -0.00, -1.00, 217.3, 8.0)">y</text><text xml:space="preserve" font-family="MarkerFelt-Thin" font-size="29.5" fill="#FF2600" transform="matrix(1.00, 0.00, -0.00, -1.00, 231.2, 8.0)">e</text><text xml:space="preserve" font-family="MarkerFelt-Thin" font-size="29.5" fill="#FF2600" transform="matrix(1.00, 0.00, -0.00, -1.00, 244.2, 8.0)">r</text></g></svg>