<?xml version="1.0" encoding="UTF-8" standalone="no"?><svg xmlns="http://www.w3.org/2000/svg" xmlns:xlink="http://www.w3.org/1999/xlink" clip-rule="evenodd" stroke-miterlimit="4.00" viewBox="0 0 1024 768"><desc>SVG generated by Keynote</desc><defs></defs><g transform="matrix(1.00, 0.00, -0.00, -1.00, 0.0, 768.0)"><g><clipPath id="clip-355"><path d="M 0.0 768.0 L 1024.0 768.0 L 1024.0 0.0 L 0.0 0.0 Z M 0.0 768.0 "></path></clipPath><g clip-path="url(#clip-355)"><image xlink:href="../../39451CEE-E280-41CA-872D-216C9FC86FAF/assets/43DA95A1552523200D88D33196FD3A18.jpeg" width="1024.00" height="768.00" transform="matrix(1.00, 0.00, -0.00, -1.00, 0.0, 768.0)"></image></g></g><text xml:space="preserve" font-family="MarkerFelt-Thin" font-size="80.0" fill="#45A6DE" transform="matrix(1.00, 0.00, -0.00, -1.00, 322.0, 626.0)">W</text><text xml:space="preserve" font-family="MarkerFelt-Thin" font-size="80.0" fill="#45A6DE" transform="matrix(1.00, 0.00, -0.00, -1.00, 392.2, 626.0)">o</text><text xml:space="preserve" font-family="MarkerFelt-Thin" font-size="80.0" fill="#45A6DE" transform="matrix(1.00, 0.00, -0.00, -1.00, 428.1, 626.0)">r</text><text xml:space="preserve" font-family="MarkerFelt-Thin" font-size="80.0" fill="#45A6DE" transform="matrix(1.00, 0.00, -0.00, -1.00, 463.0, 626.0)">k</text><text xml:space="preserve" font-family="MarkerFelt-Thin" font-size="80.0" fill="#45A6DE" transform="matrix(1.00, 0.00, -0.00, -1.00, 501.4, 626.0)"> </text><text xml:space="preserve" font-family="MarkerFelt-Thin" font-size="80.0" fill="#45A6DE" transform="matrix(1.00, 0.00, -0.00, -1.00, 521.4, 626.0)">S</text><text xml:space="preserve" font-family="MarkerFelt-Thin" font-size="80.0" fill="#45A6DE" transform="matrix(1.00, 0.00, -0.00, -1.00, 563.8, 626.0)">c</text><text xml:space="preserve" font-family="MarkerFelt-Thin" font-size="80.0" fill="#45A6DE" transform="matrix(1.00, 0.00, -0.00, -1.00, 598.0, 626.0)">o</text><text xml:space="preserve" font-family="MarkerFelt-Thin" font-size="80.0" fill="#45A6DE" transform="matrix(1.00, 0.00, -0.00, -1.00, 633.4, 626.0)">p</text><text xml:space="preserve" font-family="MarkerFelt-Thin" font-size="80.0" fill="#45A6DE" transform="matrix(1.00, 0.00, -0.00, -1.00, 670.8, 626.0)">e</text><text xml:space="preserve" font-family="MarkerFelt-Thin" font-size="40.0" fill="#858484" transform="matrix(1.00, 0.00, -0.00, -1.00, 227.0, 537.0)">J</text><text xml:space="preserve" font-family="MarkerFelt-Thin" font-size="40.0" fill="#858484" transform="matrix(1.00, 0.00, -0.00, -1.00, 245.1, 537.0)">o</text><text xml:space="preserve" font-family="MarkerFelt-Thin" font-size="40.0" fill="#858484" transform="matrix(1.00, 0.00, -0.00, -1.00, 263.2, 537.0)">e</text><text xml:space="preserve" font-family="MarkerFelt-Thin" font-size="40.0" fill="#858484" transform="matrix(1.00, 0.00, -0.00, -1.00, 639.0, 537.0)">J</text><text xml:space="preserve" font-family="MarkerFelt-Thin" font-size="40.0" fill="#858484" transform="matrix(1.00, 0.00, -0.00, -1.00, 656.2, 537.0)">e</text><text xml:space="preserve" font-family="MarkerFelt-Thin" font-size="40.0" fill="#858484" transform="matrix(1.00, 0.00, -0.00, -1.00, 674.0, 537.0)">n</text><text xml:space="preserve" font-family="MarkerFelt-Thin" font-size="40.0" fill="#858484" transform="matrix(1.00, 0.00, -0.00, -1.00, 695.1, 537.0)">n</text><text xml:space="preserve" font-family="MarkerFelt-Thin" font-size="40.0" fill="#858484" transform="matrix(1.00, 0.00, -0.00, -1.00, 715.9, 537.0)">y</text><g><clipPath id="clip-356"><path d="M 84.0 461.6 L 98.7 461.6 L 98.7 475.3 L 84.0 475.3 Z M 84.0 461.6 "></path></clipPath><g clip-path="url(#clip-356)"><path d="M 98.5 466.6 C 98.6 466.3 98.7 466.1 98.7 465.9 C 98.7 465.5 98.4 465.1 97.9 464.7 C 97.4 464.3 96.9 464.1 96.3 464.1 C 95.5 464.1 94.6 464.7 93.5 465.9 C 93.5 465.9 93.5 464.1 93.5 464.1 C 93.5 464.0 93.5 463.8 93.6 463.5 C 93.7 463.3 93.8 463.1 93.8 463.0 C 93.8 462.6 93.6 462.3 93.2 462.0 C 92.9 461.8 92.5 461.6 92.1 461.6 C 91.4 461.6 90.9 461.9 90.4 462.5 C 90.2 462.7 90.2 463.2 90.3 463.9 C 90.3 464.7 90.3 465.5 90.4 466.3 C 90.0 466.0 89.2 465.6 88.1 465.0 C 87.9 464.8 87.5 464.5 86.7 464.3 C 86.1 464.2 85.5 464.3 84.9 464.6 C 84.3 464.9 84.0 465.2 84.0 465.7 C 84.0 465.8 84.0 465.9 84.1 466.0 C 84.2 466.3 84.4 466.5 84.8 466.6 C 85.4 466.8 85.8 466.9 85.8 466.9 C 85.8 466.9 89.0 468.7 89.0 468.7 C 89.0 468.7 86.8 469.8 86.8 469.8 C 86.4 469.8 86.0 470.0 85.4 470.3 C 85.3 470.5 85.3 470.7 85.3 470.9 C 85.3 471.4 85.6 471.9 86.2 472.4 C 86.9 473.0 87.5 473.2 88.2 473.2 C 88.4 473.2 88.6 473.2 88.8 473.1 C 89.0 473.0 89.2 472.9 89.4 472.5 C 89.6 472.1 89.9 471.8 90.4 471.5 C 90.4 471.5 90.5 473.6 90.5 473.6 C 90.4 473.9 90.4 474.3 90.5 474.8 C 90.7 475.2 91.3 475.3 92.2 475.3 C 93.1 475.3 93.6 475.1 93.9 474.6 C 94.0 474.4 94.1 473.9 94.0 473.2 C 93.9 472.5 93.8 471.9 93.8 471.2 C 93.8 471.2 95.0 471.8 95.0 471.8 C 95.2 472.1 95.6 472.3 96.3 472.6 C 96.8 472.6 97.2 472.5 97.7 472.1 C 98.1 471.7 98.3 471.3 98.3 470.8 C 98.3 470.6 98.3 470.4 98.2 470.3 C 98.0 470.1 97.8 470.0 97.5 469.9 C 97.2 469.8 96.9 469.7 96.8 469.6 C 96.8 469.6 95.0 468.4 95.0 468.4 C 95.0 468.4 97.3 467.2 97.3 467.2 C 97.6 467.1 98.0 466.9 98.5 466.6 Z M 98.5 466.6 " fill="#3995D6"></path></g></g><text xml:space="preserve" font-family="MarkerFelt-Thin" font-size="25.2" fill="#FF2600" transform="matrix(1.00, 0.00, -0.00, -1.00, 108.0, 460.0)">P</text><text xml:space="preserve" font-family="MarkerFelt-Thin" font-size="25.2" fill="#FF2600" transform="matrix(1.00, 0.00, -0.00, -1.00, 119.3, 460.0)">r</text><text xml:space="preserve" font-family="MarkerFelt-Thin" font-size="25.2" fill="#FF2600" transform="matrix(1.00, 0.00, -0.00, -1.00, 128.9, 460.0)">e</text><text xml:space="preserve" font-family="MarkerFelt-Thin" font-size="25.2" fill="#FF2600" transform="matrix(1.00, 0.00, -0.00, -1.00, 140.4, 460.0)">s</text><text xml:space="preserve" font-family="MarkerFelt-Thin" font-size="25.2" fill="#FF2600" transform="matrix(1.00, 0.00, -0.00, -1.00, 150.6, 460.0)">e</text><text xml:space="preserve" font-family="MarkerFelt-Thin" font-size="25.2" fill="#FF2600" transform="matrix(1.00, 0.00, -0.00, -1.00, 161.8, 460.0)">n</text><text xml:space="preserve" font-family="MarkerFelt-Thin" font-size="25.2" fill="#FF2600" transform="matrix(1.00, 0.00, -0.00, -1.00, 175.6, 460.0)">t</text><text xml:space="preserve" font-family="MarkerFelt-Thin" font-size="25.2" fill="#FF2600" transform="matrix(1.00, 0.00, -0.00, -1.00, 186.0, 460.0)">a</text><text xml:space="preserve" font-family="MarkerFelt-Thin" font-size="25.2" fill="#FF2600" transform="matrix(1.00, 0.00, -0.00, -1.00, 198.3, 460.0)">t</text><text xml:space="preserve" font-family="MarkerFelt-Thin" font-size="25.2" fill="#FF2600" transform="matrix(1.00, 0.00, -0.00, -1.00, 209.1, 460.0)">i</text><text xml:space="preserve" font-family="MarkerFelt-Thin" font-size="25.2" fill="#FF2600" transform="matrix(1.00, 0.00, -0.00, -1.00, 215.0, 460.0)">o</text><text xml:space="preserve" font-family="MarkerFelt-Thin" font-size="25.2" fill="#FF2600" transform="matrix(1.00, 0.00, -0.00, -1.00, 226.4, 460.0)">n</text><text xml:space="preserve" font-family="MarkerFelt-Thin" font-size="25.2" fill="#FF2600" transform="matrix(1.00, 0.00, -0.00, -1.00, 238.7, 460.0)"> </text><text xml:space="preserve" font-family="MarkerFelt-Thin" font-size="25.2" fill="#FF2600" transform="matrix(1.00, 0.00, -0.00, -1.00, 245.0, 460.0)">L</text><text xml:space="preserve" font-family="MarkerFelt-Thin" font-size="25.2" fill="#FF2600" transform="matrix(1.00, 0.00, -0.00, -1.00, 257.2, 460.0)">a</text><text xml:space="preserve" font-family="MarkerFelt-Thin" font-size="25.2" fill="#FF2600" transform="matrix(1.00, 0.00, -0.00, -1.00, 268.8, 460.0)">y</text><text xml:space="preserve" font-family="MarkerFelt-Thin" font-size="25.2" fill="#FF2600" transform="matrix(1.00, 0.00, -0.00, -1.00, 280.6, 460.0)">e</text><text xml:space="preserve" font-family="MarkerFelt-Thin" font-size="25.2" fill="#FF2600" transform="matrix(1.00, 0.00, -0.00, -1.00, 291.7, 460.0)">r</text><g><clipPath id="clip-357"><path d="M 119.0 408.0 L 133.7 408.0 L 133.7 421.7 L 119.0 421.7 Z M 119.0 408.0 "></path></clipPath><g clip-path="url(#clip-357)"><path d="M 133.5 413.0 C 133.6 412.7 133.7 412.5 133.7 412.3 C 133.7 411.9 133.4 411.5 132.9 411.1 C 132.4 410.7 131.9 410.5 131.3 410.5 C 130.5 410.5 129.6 411.1 128.5 412.3 C 128.5 412.3 128.5 410.5 128.5 410.5 C 128.5 410.4 128.5 410.2 128.6 409.9 C 128.7 409.7 128.8 409.5 128.8 409.4 C 128.8 409.0 128.6 408.7 128.2 408.4 C 127.9 408.2 127.5 408.0 127.1 408.0 C 126.4 408.0 125.9 408.3 125.4 408.9 C 125.2 409.1 125.2 409.6 125.3 410.3 C 125.3 411.1 125.3 411.9 125.4 412.7 C 125.0 412.4 124.2 412.0 123.1 411.4 C 122.9 411.2 122.5 410.9 121.7 410.7 C 121.1 410.6 120.5 410.7 119.9 411.0 C 119.3 411.3 119.0 411.6 119.0 412.1 C 119.0 412.2 119.0 412.3 119.1 412.4 C 119.2 412.7 119.4 412.9 119.8 413.0 C 120.4 413.2 120.8 413.3 120.8 413.3 C 120.8 413.3 124.0 415.1 124.0 415.1 C 124.0 415.1 121.8 416.2 121.8 416.2 C 121.4 416.2 121.0 416.4 120.4 416.7 C 120.3 416.9 120.3 417.1 120.3 417.3 C 120.3 417.8 120.6 418.3 121.2 418.8 C 121.9 419.4 122.5 419.6 123.2 419.6 C 123.4 419.6 123.6 419.6 123.8 419.5 C 124.0 419.4 124.2 419.3 124.4 418.9 C 124.6 418.5 124.9 418.2 125.4 417.9 C 125.4 417.9 125.5 420.0 125.5 420.0 C 125.4 420.3 125.4 420.7 125.5 421.2 C 125.7 421.6 126.3 421.7 127.2 421.7 C 128.1 421.7 128.6 421.5 128.9 421.0 C 129.0 420.8 129.1 420.3 129.0 419.6 C 128.9 418.9 128.8 418.3 128.8 417.6 C 128.8 417.6 130.0 418.2 130.0 418.2 C 130.2 418.5 130.6 418.7 131.3 419.0 C 131.8 419.0 132.2 418.9 132.7 418.5 C 133.1 418.1 133.3 417.7 133.3 417.2 C 133.3 417.0 133.3 416.8 133.2 416.7 C 133.0 416.5 132.8 416.4 132.5 416.3 C 132.2 416.2 131.9 416.1 131.8 416.0 C 131.8 416.0 130.0 414.8 130.0 414.8 C 130.0 414.8 132.3 413.6 132.3 413.6 C 132.6 413.5 133.0 413.3 133.5 413.0 Z M 133.5 413.0 " fill="#3995D6"></path></g></g><text xml:space="preserve" font-family="MarkerFelt-Thin" font-size="25.2" fill="#FF2600" transform="matrix(1.00, 0.00, -0.00, -1.00, 143.0, 407.0)">D</text><text xml:space="preserve" font-family="MarkerFelt-Thin" font-size="25.2" fill="#FF2600" transform="matrix(1.00, 0.00, -0.00, -1.00, 154.8, 407.0)">e</text><text xml:space="preserve" font-family="MarkerFelt-Thin" font-size="25.2" fill="#FF2600" transform="matrix(1.00, 0.00, -0.00, -1.00, 165.7, 407.0)">p</text><text xml:space="preserve" font-family="MarkerFelt-Thin" font-size="25.2" fill="#FF2600" transform="matrix(1.00, 0.00, -0.00, -1.00, 177.4, 407.0)">r</text><text xml:space="preserve" font-family="MarkerFelt-Thin" font-size="25.2" fill="#FF2600" transform="matrix(1.00, 0.00, -0.00, -1.00, 186.9, 407.0)">e</text><text xml:space="preserve" font-family="MarkerFelt-Thin" font-size="25.2" fill="#FF2600" transform="matrix(1.00, 0.00, -0.00, -1.00, 198.1, 407.0)">c</text><text xml:space="preserve" font-family="MarkerFelt-Thin" font-size="25.2" fill="#FF2600" transform="matrix(1.00, 0.00, -0.00, -1.00, 209.2, 407.0)">a</text><text xml:space="preserve" font-family="MarkerFelt-Thin" font-size="25.2" fill="#FF2600" transform="matrix(1.00, 0.00, -0.00, -1.00, 221.5, 407.0)">t</text><text xml:space="preserve" font-family="MarkerFelt-Thin" font-size="25.2" fill="#FF2600" transform="matrix(1.00, 0.00, -0.00, -1.00, 231.1, 407.0)">e</text><text xml:space="preserve" font-family="MarkerFelt-Thin" font-size="25.2" fill="#FF2600" transform="matrix(1.00, 0.00, -0.00, -1.00, 240.7, 407.0)"> </text><text xml:space="preserve" font-family="MarkerFelt-Thin" font-size="25.2" fill="#FF2600" transform="matrix(1.00, 0.00, -0.00, -1.00, 247.0, 407.0)">J</text><text xml:space="preserve" font-family="MarkerFelt-Thin" font-size="25.2" fill="#FF2600" transform="matrix(1.00, 0.00, -0.00, -1.00, 258.5, 407.0)">a</text><text xml:space="preserve" font-family="MarkerFelt-Thin" font-size="25.2" fill="#FF2600" transform="matrix(1.00, 0.00, -0.00, -1.00, 270.6, 407.0)">v</text><text xml:space="preserve" font-family="MarkerFelt-Thin" font-size="25.2" fill="#FF2600" transform="matrix(1.00, 0.00, -0.00, -1.00, 283.0, 407.0)">a</text><text xml:space="preserve" font-family="MarkerFelt-Thin" font-size="25.2" fill="#FF2600" transform="matrix(1.00, 0.00, -0.00, -1.00, 294.6, 407.0)"> </text><text xml:space="preserve" font-family="MarkerFelt-Thin" font-size="25.2" fill="#FF2600" transform="matrix(1.00, 0.00, -0.00, -1.00, 300.9, 407.0)">c</text><text xml:space="preserve" font-family="MarkerFelt-Thin" font-size="25.2" fill="#FF2600" transform="matrix(1.00, 0.00, -0.00, -1.00, 311.5, 407.0)">l</text><text xml:space="preserve" font-family="MarkerFelt-Thin" font-size="25.2" fill="#FF2600" transform="matrix(1.00, 0.00, -0.00, -1.00, 317.4, 407.0)">i</text><text xml:space="preserve" font-family="MarkerFelt-Thin" font-size="25.2" fill="#FF2600" transform="matrix(1.00, 0.00, -0.00, -1.00, 322.9, 407.0)">e</text><text xml:space="preserve" font-family="MarkerFelt-Thin" font-size="25.2" fill="#FF2600" transform="matrix(1.00, 0.00, -0.00, -1.00, 334.1, 407.0)">n</text><text xml:space="preserve" font-family="MarkerFelt-Thin" font-size="25.2" fill="#FF2600" transform="matrix(1.00, 0.00, -0.00, -1.00, 347.9, 407.0)">t</text><g><clipPath id="clip-358"><path d="M 119.0 354.4 L 133.7 354.4 L 133.7 368.1 L 119.0 368.1 Z M 119.0 354.4 "></path></clipPath><g clip-path="url(#clip-358)"><path d="M 133.5 359.4 C 133.6 359.1 133.7 358.9 133.7 358.7 C 133.7 358.3 133.4 357.9 132.9 357.5 C 132.4 357.1 131.9 356.9 131.3 356.9 C 130.5 356.9 129.6 357.5 128.5 358.7 C 128.5 358.7 128.5 356.9 128.5 356.9 C 128.5 356.8 128.5 356.6 128.6 356.3 C 128.7 356.1 128.8 355.9 128.8 355.8 C 128.8 355.4 128.6 355.1 128.2 354.8 C 127.9 354.6 127.5 354.4 127.1 354.4 C 126.4 354.4 125.9 354.7 125.4 355.3 C 125.2 355.5 125.2 356.0 125.3 356.7 C 125.3 357.5 125.3 358.3 125.4 359.1 C 125.0 358.8 124.2 358.4 123.1 357.8 C 122.9 357.6 122.5 357.3 121.7 357.1 C 121.1 357.0 120.5 357.1 119.9 357.4 C 119.3 357.7 119.0 358.0 119.0 358.5 C 119.0 358.6 119.0 358.7 119.1 358.8 C 119.2 359.1 119.4 359.3 119.8 359.4 C 120.4 359.6 120.8 359.7 120.8 359.7 C 120.8 359.7 124.0 361.5 124.0 361.5 C 124.0 361.5 121.8 362.6 121.8 362.6 C 121.4 362.6 121.0 362.8 120.4 363.1 C 120.3 363.3 120.3 363.5 120.3 363.7 C 120.3 364.2 120.6 364.7 121.2 365.2 C 121.9 365.8 122.5 366.0 123.2 366.0 C 123.4 366.0 123.6 366.0 123.8 365.9 C 124.0 365.8 124.2 365.7 124.4 365.3 C 124.6 364.9 124.9 364.6 125.4 364.3 C 125.4 364.3 125.5 366.4 125.5 366.4 C 125.4 366.7 125.4 367.1 125.5 367.6 C 125.7 368.0 126.3 368.1 127.2 368.1 C 128.1 368.1 128.6 367.9 128.9 367.4 C 129.0 367.2 129.1 366.7 129.0 366.0 C 128.9 365.3 128.8 364.7 128.8 364.0 C 128.8 364.0 130.0 364.6 130.0 364.6 C 130.2 364.9 130.6 365.1 131.3 365.4 C 131.8 365.4 132.2 365.3 132.7 364.9 C 133.1 364.5 133.3 364.1 133.3 363.6 C 133.3 363.4 133.3 363.2 133.2 363.1 C 133.0 362.9 132.8 362.8 132.5 362.7 C 132.2 362.6 131.9 362.5 131.8 362.4 C 131.8 362.4 130.0 361.2 130.0 361.2 C 130.0 361.2 132.3 360.0 132.3 360.0 C 132.6 359.9 133.0 359.7 133.5 359.4 Z M 133.5 359.4 " fill="#3995D6"></path></g></g><text xml:space="preserve" font-family="MarkerFelt-Thin" font-size="25.2" fill="#FF2600" transform="matrix(1.00, 0.00, -0.00, -1.00, 143.0, 353.0)">W</text><text xml:space="preserve" font-family="MarkerFelt-Thin" font-size="25.2" fill="#FF2600" transform="matrix(1.00, 0.00, -0.00, -1.00, 166.0, 353.0)">r</text><text xml:space="preserve" font-family="MarkerFelt-Thin" font-size="25.2" fill="#FF2600" transform="matrix(1.00, 0.00, -0.00, -1.00, 177.1, 353.0)">i</text><text xml:space="preserve" font-family="MarkerFelt-Thin" font-size="25.2" fill="#FF2600" transform="matrix(1.00, 0.00, -0.00, -1.00, 183.8, 353.0)">t</text><text xml:space="preserve" font-family="MarkerFelt-Thin" font-size="25.2" fill="#FF2600" transform="matrix(1.00, 0.00, -0.00, -1.00, 193.4, 353.0)">e</text><text xml:space="preserve" font-family="MarkerFelt-Thin" font-size="25.2" fill="#FF2600" transform="matrix(1.00, 0.00, -0.00, -1.00, 203.0, 353.0)"> </text><text xml:space="preserve" font-family="MarkerFelt-Thin" font-size="25.2" fill="#FF2600" transform="matrix(1.00, 0.00, -0.00, -1.00, 209.3, 353.0)">w</text><text xml:space="preserve" font-family="MarkerFelt-Thin" font-size="25.2" fill="#FF2600" transform="matrix(1.00, 0.00, -0.00, -1.00, 227.4, 353.0)">e</text><text xml:space="preserve" font-family="MarkerFelt-Thin" font-size="25.2" fill="#FF2600" transform="matrix(1.00, 0.00, -0.00, -1.00, 238.4, 353.0)">b</text><text xml:space="preserve" font-family="MarkerFelt-Thin" font-size="25.2" fill="#FF2600" transform="matrix(1.00, 0.00, -0.00, -1.00, 249.2, 353.0)"> </text><text xml:space="preserve" font-family="MarkerFelt-Thin" font-size="25.2" fill="#FF2600" transform="matrix(1.00, 0.00, -0.00, -1.00, 255.5, 353.0)">c</text><text xml:space="preserve" font-family="MarkerFelt-Thin" font-size="25.2" fill="#FF2600" transform="matrix(1.00, 0.00, -0.00, -1.00, 266.1, 353.0)">l</text><text xml:space="preserve" font-family="MarkerFelt-Thin" font-size="25.2" fill="#FF2600" transform="matrix(1.00, 0.00, -0.00, -1.00, 272.0, 353.0)">i</text><text xml:space="preserve" font-family="MarkerFelt-Thin" font-size="25.2" fill="#FF2600" transform="matrix(1.00, 0.00, -0.00, -1.00, 277.5, 353.0)">e</text><text xml:space="preserve" font-family="MarkerFelt-Thin" font-size="25.2" fill="#FF2600" transform="matrix(1.00, 0.00, -0.00, -1.00, 288.7, 353.0)">n</text><text xml:space="preserve" font-family="MarkerFelt-Thin" font-size="25.2" fill="#FF2600" transform="matrix(1.00, 0.00, -0.00, -1.00, 302.5, 353.0)">t</text><g><clipPath id="clip-359"><path d="M 84.0 300.8 L 98.7 300.8 L 98.7 314.5 L 84.0 314.5 Z M 84.0 300.8 "></path></clipPath><g clip-path="url(#clip-359)"><path d="M 98.5 305.8 C 98.6 305.5 98.7 305.3 98.7 305.1 C 98.7 304.7 98.4 304.3 97.9 303.9 C 97.4 303.5 96.9 303.3 96.3 303.3 C 95.5 303.3 94.6 303.9 93.5 305.1 C 93.5 305.1 93.5 303.3 93.5 303.3 C 93.5 303.2 93.5 303.0 93.6 302.7 C 93.7 302.5 93.8 302.3 93.8 302.2 C 93.8 301.8 93.6 301.5 93.2 301.2 C 92.9 301.0 92.5 300.8 92.1 300.8 C 91.4 300.8 90.9 301.1 90.4 301.7 C 90.2 301.9 90.2 302.4 90.3 303.1 C 90.3 303.9 90.3 304.7 90.4 305.5 C 90.0 305.2 89.2 304.8 88.1 304.2 C 87.9 304.0 87.5 303.7 86.7 303.5 C 86.1 303.4 85.5 303.5 84.9 303.8 C 84.3 304.1 84.0 304.4 84.0 304.9 C 84.0 305.0 84.0 305.1 84.1 305.2 C 84.2 305.5 84.4 305.7 84.8 305.8 C 85.4 306.0 85.8 306.1 85.8 306.1 C 85.8 306.1 89.0 307.9 89.0 307.9 C 89.0 307.9 86.8 309.0 86.8 309.0 C 86.4 309.0 86.0 309.2 85.4 309.5 C 85.3 309.7 85.3 309.9 85.3 310.1 C 85.3 310.6 85.6 311.1 86.2 311.6 C 86.9 312.2 87.5 312.4 88.2 312.4 C 88.4 312.4 88.6 312.4 88.8 312.3 C 89.0 312.2 89.2 312.1 89.4 311.7 C 89.6 311.3 89.9 311.0 90.4 310.7 C 90.4 310.7 90.5 312.8 90.5 312.8 C 90.4 313.1 90.4 313.5 90.5 314.0 C 90.7 314.4 91.3 314.5 92.2 314.5 C 93.1 314.5 93.6 314.3 93.9 313.8 C 94.0 313.6 94.1 313.1 94.0 312.4 C 93.9 311.7 93.8 311.1 93.8 310.4 C 93.8 310.4 95.0 311.0 95.0 311.0 C 95.2 311.3 95.6 311.5 96.3 311.8 C 96.8 311.8 97.2 311.7 97.7 311.3 C 98.1 310.9 98.3 310.5 98.3 310.0 C 98.3 309.8 98.3 309.6 98.2 309.5 C 98.0 309.3 97.8 309.2 97.5 309.1 C 97.2 309.0 96.9 308.9 96.8 308.8 C 96.8 308.8 95.0 307.6 95.0 307.6 C 95.0 307.6 97.3 306.4 97.3 306.4 C 97.6 306.3 98.0 306.1 98.5 305.8 Z M 98.5 305.8 " fill="#3995D6"></path></g></g><text xml:space="preserve" font-family="MarkerFelt-Thin" font-size="25.2" fill="#FF2600" transform="matrix(1.00, 0.00, -0.00, -1.00, 108.0, 299.0)">B</text><text xml:space="preserve" font-family="MarkerFelt-Thin" font-size="25.2" fill="#FF2600" transform="matrix(1.00, 0.00, -0.00, -1.00, 121.2, 299.0)">u</text><text xml:space="preserve" font-family="MarkerFelt-Thin" font-size="25.2" fill="#FF2600" transform="matrix(1.00, 0.00, -0.00, -1.00, 132.1, 299.0)">s</text><text xml:space="preserve" font-family="MarkerFelt-Thin" font-size="25.2" fill="#FF2600" transform="matrix(1.00, 0.00, -0.00, -1.00, 142.5, 299.0)">i</text><text xml:space="preserve" font-family="MarkerFelt-Thin" font-size="25.2" fill="#FF2600" transform="matrix(1.00, 0.00, -0.00, -1.00, 148.7, 299.0)">n</text><text xml:space="preserve" font-family="MarkerFelt-Thin" font-size="25.2" fill="#FF2600" transform="matrix(1.00, 0.00, -0.00, -1.00, 161.8, 299.0)">e</text><text xml:space="preserve" font-family="MarkerFelt-Thin" font-size="25.2" fill="#FF2600" transform="matrix(1.00, 0.00, -0.00, -1.00, 173.3, 299.0)">s</text><text xml:space="preserve" font-family="MarkerFelt-Thin" font-size="25.2" fill="#FF2600" transform="matrix(1.00, 0.00, -0.00, -1.00, 183.9, 299.0)">s</text><text xml:space="preserve" font-family="MarkerFelt-Thin" font-size="25.2" fill="#FF2600" transform="matrix(1.00, 0.00, -0.00, -1.00, 193.3, 299.0)"> </text><text xml:space="preserve" font-family="MarkerFelt-Thin" font-size="25.2" fill="#FF2600" transform="matrix(1.00, 0.00, -0.00, -1.00, 199.6, 299.0)">L</text><text xml:space="preserve" font-family="MarkerFelt-Thin" font-size="25.2" fill="#FF2600" transform="matrix(1.00, 0.00, -0.00, -1.00, 211.2, 299.0)">o</text><text xml:space="preserve" font-family="MarkerFelt-Thin" font-size="25.2" fill="#FF2600" transform="matrix(1.00, 0.00, -0.00, -1.00, 222.8, 299.0)">g</text><text xml:space="preserve" font-family="MarkerFelt-Thin" font-size="25.2" fill="#FF2600" transform="matrix(1.00, 0.00, -0.00, -1.00, 234.2, 299.0)">i</text><text xml:space="preserve" font-family="MarkerFelt-Thin" font-size="25.2" fill="#FF2600" transform="matrix(1.00, 0.00, -0.00, -1.00, 239.9, 299.0)">c</text><g><clipPath id="clip-360"><path d="M 119.0 247.2 L 133.7 247.2 L 133.7 260.9 L 119.0 260.9 Z M 119.0 247.2 "></path></clipPath><g clip-path="url(#clip-360)"><path d="M 133.5 252.2 C 133.6 251.9 133.7 251.7 133.7 251.5 C 133.7 251.1 133.4 250.7 132.9 250.3 C 132.4 249.9 131.9 249.7 131.3 249.7 C 130.5 249.7 129.6 250.3 128.5 251.5 C 128.5 251.5 128.5 249.7 128.5 249.7 C 128.5 249.6 128.5 249.4 128.6 249.1 C 128.7 248.9 128.8 248.7 128.8 248.6 C 128.8 248.2 128.6 247.9 128.2 247.6 C 127.9 247.4 127.5 247.2 127.1 247.2 C 126.4 247.2 125.9 247.5 125.4 248.1 C 125.2 248.3 125.2 248.8 125.3 249.5 C 125.3 250.3 125.3 251.1 125.4 251.9 C 125.0 251.6 124.2 251.2 123.1 250.6 C 122.9 250.4 122.5 250.1 121.7 249.9 C 121.1 249.8 120.5 249.9 119.9 250.2 C 119.3 250.5 119.0 250.8 119.0 251.3 C 119.0 251.4 119.0 251.5 119.1 251.6 C 119.2 251.9 119.4 252.1 119.8 252.2 C 120.4 252.4 120.8 252.5 120.8 252.5 C 120.8 252.5 124.0 254.3 124.0 254.3 C 124.0 254.3 121.8 255.4 121.8 255.4 C 121.4 255.4 121.0 255.6 120.4 255.9 C 120.3 256.1 120.3 256.3 120.3 256.5 C 120.3 257.0 120.6 257.5 121.2 258.0 C 121.9 258.6 122.5 258.8 123.2 258.8 C 123.4 258.8 123.6 258.8 123.8 258.7 C 124.0 258.6 124.2 258.5 124.4 258.1 C 124.6 257.7 124.9 257.4 125.4 257.1 C 125.4 257.1 125.5 259.2 125.5 259.2 C 125.4 259.5 125.4 259.9 125.5 260.4 C 125.7 260.8 126.3 260.9 127.2 260.9 C 128.1 260.9 128.6 260.7 128.9 260.2 C 129.0 260.0 129.1 259.5 129.0 258.8 C 128.9 258.1 128.8 257.5 128.8 256.8 C 128.8 256.8 130.0 257.4 130.0 257.4 C 130.2 257.7 130.6 257.9 131.3 258.2 C 131.8 258.2 132.2 258.1 132.7 257.7 C 133.1 257.3 133.3 256.9 133.3 256.4 C 133.3 256.2 133.3 256.0 133.2 255.9 C 133.0 255.7 132.8 255.6 132.5 255.5 C 132.2 255.4 131.9 255.3 131.8 255.2 C 131.8 255.2 130.0 254.0 130.0 254.0 C 130.0 254.0 132.3 252.8 132.3 252.8 C 132.6 252.7 133.0 252.5 133.5 252.2 Z M 133.5 252.2 " fill="#3995D6"></path></g></g><text xml:space="preserve" font-family="MarkerFelt-Thin" font-size="25.2" fill="#FF2600" transform="matrix(1.00, 0.00, -0.00, -1.00, 143.0, 246.0)">D</text><text xml:space="preserve" font-family="MarkerFelt-Thin" font-size="25.2" fill="#FF2600" transform="matrix(1.00, 0.00, -0.00, -1.00, 154.8, 246.0)">e</text><text xml:space="preserve" font-family="MarkerFelt-Thin" font-size="25.2" fill="#FF2600" transform="matrix(1.00, 0.00, -0.00, -1.00, 165.7, 246.0)">p</text><text xml:space="preserve" font-family="MarkerFelt-Thin" font-size="25.2" fill="#FF2600" transform="matrix(1.00, 0.00, -0.00, -1.00, 177.4, 246.0)">r</text><text xml:space="preserve" font-family="MarkerFelt-Thin" font-size="25.2" fill="#FF2600" transform="matrix(1.00, 0.00, -0.00, -1.00, 186.9, 246.0)">e</text><text xml:space="preserve" font-family="MarkerFelt-Thin" font-size="25.2" fill="#FF2600" transform="matrix(1.00, 0.00, -0.00, -1.00, 198.1, 246.0)">c</text><text xml:space="preserve" font-family="MarkerFelt-Thin" font-size="25.2" fill="#FF2600" transform="matrix(1.00, 0.00, -0.00, -1.00, 209.2, 246.0)">a</text><text xml:space="preserve" font-family="MarkerFelt-Thin" font-size="25.2" fill="#FF2600" transform="matrix(1.00, 0.00, -0.00, -1.00, 221.5, 246.0)">t</text><text xml:space="preserve" font-family="MarkerFelt-Thin" font-size="25.2" fill="#FF2600" transform="matrix(1.00, 0.00, -0.00, -1.00, 231.1, 246.0)">e</text><text xml:space="preserve" font-family="MarkerFelt-Thin" font-size="25.2" fill="#FF2600" transform="matrix(1.00, 0.00, -0.00, -1.00, 240.7, 246.0)"> </text><text xml:space="preserve" font-family="MarkerFelt-Thin" font-size="25.2" fill="#FF2600" transform="matrix(1.00, 0.00, -0.00, -1.00, 247.0, 246.0)">J</text><text xml:space="preserve" font-family="MarkerFelt-Thin" font-size="25.2" fill="#FF2600" transform="matrix(1.00, 0.00, -0.00, -1.00, 258.5, 246.0)">a</text><text xml:space="preserve" font-family="MarkerFelt-Thin" font-size="25.2" fill="#FF2600" transform="matrix(1.00, 0.00, -0.00, -1.00, 270.6, 246.0)">v</text><text xml:space="preserve" font-family="MarkerFelt-Thin" font-size="25.2" fill="#FF2600" transform="matrix(1.00, 0.00, -0.00, -1.00, 283.0, 246.0)">a</text><text xml:space="preserve" font-family="MarkerFelt-Thin" font-size="25.2" fill="#FF2600" transform="matrix(1.00, 0.00, -0.00, -1.00, 294.6, 246.0)"> </text><text xml:space="preserve" font-family="MarkerFelt-Thin" font-size="25.2" fill="#FF2600" transform="matrix(1.00, 0.00, -0.00, -1.00, 300.9, 246.0)">c</text><text xml:space="preserve" font-family="MarkerFelt-Thin" font-size="25.2" fill="#FF2600" transform="matrix(1.00, 0.00, -0.00, -1.00, 311.5, 246.0)">l</text><text xml:space="preserve" font-family="MarkerFelt-Thin" font-size="25.2" fill="#FF2600" transform="matrix(1.00, 0.00, -0.00, -1.00, 317.4, 246.0)">i</text><text xml:space="preserve" font-family="MarkerFelt-Thin" font-size="25.2" fill="#FF2600" transform="matrix(1.00, 0.00, -0.00, -1.00, 322.9, 246.0)">e</text><text xml:space="preserve" font-family="MarkerFelt-Thin" font-size="25.2" fill="#FF2600" transform="matrix(1.00, 0.00, -0.00, -1.00, 334.1, 246.0)">n</text><text xml:space="preserve" font-family="MarkerFelt-Thin" font-size="25.2" fill="#FF2600" transform="matrix(1.00, 0.00, -0.00, -1.00, 347.9, 246.0)">t</text><text xml:space="preserve" font-family="MarkerFelt-Thin" font-size="25.2" fill="#FF2600" transform="matrix(1.00, 0.00, -0.00, -1.00, 355.5, 246.0)">-</text><text xml:space="preserve" font-family="MarkerFelt-Thin" font-size="25.2" fill="#FF2600" transform="matrix(1.00, 0.00, -0.00, -1.00, 364.8, 246.0)">s</text><text xml:space="preserve" font-family="MarkerFelt-Thin" font-size="25.2" fill="#FF2600" transform="matrix(1.00, 0.00, -0.00, -1.00, 375.2, 246.0)">i</text><text xml:space="preserve" font-family="MarkerFelt-Thin" font-size="25.2" fill="#FF2600" transform="matrix(1.00, 0.00, -0.00, -1.00, 380.8, 246.0)">d</text><text xml:space="preserve" font-family="MarkerFelt-Thin" font-size="25.2" fill="#FF2600" transform="matrix(1.00, 0.00, -0.00, -1.00, 391.6, 246.0)">e</text><text xml:space="preserve" font-family="MarkerFelt-Thin" font-size="25.2" fill="#FF2600" transform="matrix(1.00, 0.00, -0.00, -1.00, 401.2, 246.0)"> </text><text xml:space="preserve" font-family="MarkerFelt-Thin" font-size="25.2" fill="#FF2600" transform="matrix(1.00, 0.00, -0.00, -1.00, 407.5, 246.0)">b</text><text xml:space="preserve" font-family="MarkerFelt-Thin" font-size="25.2" fill="#FF2600" transform="matrix(1.00, 0.00, -0.00, -1.00, 419.4, 246.0)">u</text><text xml:space="preserve" font-family="MarkerFelt-Thin" font-size="25.2" fill="#FF2600" transform="matrix(1.00, 0.00, -0.00, -1.00, 430.4, 246.0)">s</text><text xml:space="preserve" font-family="MarkerFelt-Thin" font-size="25.2" fill="#FF2600" transform="matrix(1.00, 0.00, -0.00, -1.00, 440.8, 246.0)">i</text><text xml:space="preserve" font-family="MarkerFelt-Thin" font-size="25.2" fill="#FF2600" transform="matrix(1.00, 0.00, -0.00, -1.00, 447.0, 246.0)">n</text><text xml:space="preserve" font-family="MarkerFelt-Thin" font-size="25.2" fill="#FF2600" transform="matrix(1.00, 0.00, -0.00, -1.00, 460.0, 246.0)">e</text><text xml:space="preserve" font-family="MarkerFelt-Thin" font-size="25.2" fill="#FF2600" transform="matrix(1.00, 0.00, -0.00, -1.00, 471.5, 246.0)">s</text><text xml:space="preserve" font-family="MarkerFelt-Thin" font-size="25.2" fill="#FF2600" transform="matrix(1.00, 0.00, -0.00, -1.00, 482.2, 246.0)">s</text><text xml:space="preserve" font-family="MarkerFelt-Thin" font-size="25.2" fill="#FF2600" transform="matrix(1.00, 0.00, -0.00, -1.00, 491.5, 246.0)"> </text><text xml:space="preserve" font-family="MarkerFelt-Thin" font-size="25.2" fill="#FF2600" transform="matrix(1.00, 0.00, -0.00, -1.00, 143.0, 219.0)">l</text><text xml:space="preserve" font-family="MarkerFelt-Thin" font-size="25.2" fill="#FF2600" transform="matrix(1.00, 0.00, -0.00, -1.00, 149.0, 219.0)">o</text><text xml:space="preserve" font-family="MarkerFelt-Thin" font-size="25.2" fill="#FF2600" transform="matrix(1.00, 0.00, -0.00, -1.00, 160.6, 219.0)">g</text><text xml:space="preserve" font-family="MarkerFelt-Thin" font-size="25.2" fill="#FF2600" transform="matrix(1.00, 0.00, -0.00, -1.00, 172.0, 219.0)">i</text><text xml:space="preserve" font-family="MarkerFelt-Thin" font-size="25.2" fill="#FF2600" transform="matrix(1.00, 0.00, -0.00, -1.00, 177.7, 219.0)">c</text><g><clipPath id="clip-361"><path d="M 119.0 166.6 L 133.7 166.6 L 133.7 180.3 L 119.0 180.3 Z M 119.0 166.6 "></path></clipPath><g clip-path="url(#clip-361)"><path d="M 133.5 171.6 C 133.6 171.3 133.7 171.1 133.7 170.9 C 133.7 170.5 133.4 170.1 132.9 169.7 C 132.4 169.3 131.9 169.1 131.3 169.1 C 130.5 169.1 129.6 169.7 128.5 170.9 C 128.5 170.9 128.5 169.1 128.5 169.1 C 128.5 169.0 128.5 168.8 128.6 168.5 C 128.7 168.3 128.8 168.1 128.8 168.0 C 128.8 167.6 128.6 167.3 128.2 167.0 C 127.9 166.8 127.5 166.6 127.1 166.6 C 126.4 166.6 125.9 166.9 125.4 167.5 C 125.2 167.7 125.2 168.2 125.3 168.9 C 125.3 169.7 125.3 170.5 125.4 171.3 C 125.0 171.0 124.2 170.6 123.1 170.0 C 122.9 169.8 122.5 169.5 121.7 169.3 C 121.1 169.2 120.5 169.3 119.9 169.6 C 119.3 169.9 119.0 170.2 119.0 170.7 C 119.0 170.8 119.0 170.9 119.1 171.0 C 119.2 171.3 119.4 171.5 119.8 171.6 C 120.4 171.8 120.8 171.9 120.8 171.9 C 120.8 171.9 124.0 173.7 124.0 173.7 C 124.0 173.7 121.8 174.8 121.8 174.8 C 121.4 174.8 121.0 175.0 120.4 175.3 C 120.3 175.5 120.3 175.7 120.3 175.9 C 120.3 176.4 120.6 176.9 121.2 177.4 C 121.9 178.0 122.5 178.2 123.2 178.2 C 123.4 178.2 123.6 178.2 123.8 178.1 C 124.0 178.0 124.2 177.9 124.4 177.5 C 124.6 177.1 124.9 176.8 125.4 176.5 C 125.4 176.5 125.5 178.6 125.5 178.6 C 125.4 178.9 125.4 179.3 125.5 179.8 C 125.7 180.2 126.3 180.3 127.2 180.3 C 128.1 180.3 128.6 180.1 128.9 179.6 C 129.0 179.4 129.1 178.9 129.0 178.2 C 128.9 177.5 128.8 176.9 128.8 176.2 C 128.8 176.2 130.0 176.8 130.0 176.8 C 130.2 177.1 130.6 177.3 131.3 177.6 C 131.8 177.6 132.2 177.5 132.7 177.1 C 133.1 176.7 133.3 176.3 133.3 175.8 C 133.3 175.6 133.3 175.4 133.2 175.3 C 133.0 175.1 132.8 175.0 132.5 174.9 C 132.2 174.8 131.9 174.7 131.8 174.6 C 131.8 174.6 130.0 173.4 130.0 173.4 C 130.0 173.4 132.3 172.2 132.3 172.2 C 132.6 172.1 133.0 171.9 133.5 171.6 Z M 133.5 171.6 " fill="#3995D6"></path></g></g><text xml:space="preserve" font-family="MarkerFelt-Thin" font-size="25.2" fill="#FF2600" transform="matrix(1.00, 0.00, -0.00, -1.00, 143.0, 165.0)">R</text><text xml:space="preserve" font-family="MarkerFelt-Thin" font-size="25.2" fill="#FF2600" transform="matrix(1.00, 0.00, -0.00, -1.00, 158.1, 165.0)">e</text><text xml:space="preserve" font-family="MarkerFelt-Thin" font-size="25.2" fill="#FF2600" transform="matrix(1.00, 0.00, -0.00, -1.00, 169.7, 165.0)">w</text><text xml:space="preserve" font-family="MarkerFelt-Thin" font-size="25.2" fill="#FF2600" transform="matrix(1.00, 0.00, -0.00, -1.00, 189.4, 165.0)">r</text><text xml:space="preserve" font-family="MarkerFelt-Thin" font-size="25.2" fill="#FF2600" transform="matrix(1.00, 0.00, -0.00, -1.00, 200.5, 165.0)">i</text><text xml:space="preserve" font-family="MarkerFelt-Thin" font-size="25.2" fill="#FF2600" transform="matrix(1.00, 0.00, -0.00, -1.00, 207.2, 165.0)">t</text><text xml:space="preserve" font-family="MarkerFelt-Thin" font-size="25.2" fill="#FF2600" transform="matrix(1.00, 0.00, -0.00, -1.00, 216.8, 165.0)">e</text><text xml:space="preserve" font-family="MarkerFelt-Thin" font-size="25.2" fill="#FF2600" transform="matrix(1.00, 0.00, -0.00, -1.00, 226.4, 165.0)"> </text><text xml:space="preserve" font-family="MarkerFelt-Thin" font-size="25.2" fill="#FF2600" transform="matrix(1.00, 0.00, -0.00, -1.00, 232.7, 165.0)">a</text><text xml:space="preserve" font-family="MarkerFelt-Thin" font-size="25.2" fill="#FF2600" transform="matrix(1.00, 0.00, -0.00, -1.00, 245.4, 165.0)">l</text><text xml:space="preserve" font-family="MarkerFelt-Thin" font-size="25.2" fill="#FF2600" transform="matrix(1.00, 0.00, -0.00, -1.00, 251.7, 165.0)">l</text><text xml:space="preserve" font-family="MarkerFelt-Thin" font-size="25.2" fill="#FF2600" transform="matrix(1.00, 0.00, -0.00, -1.00, 256.8, 165.0)"> </text><text xml:space="preserve" font-family="MarkerFelt-Thin" font-size="25.2" fill="#FF2600" transform="matrix(1.00, 0.00, -0.00, -1.00, 263.1, 165.0)">c</text><text xml:space="preserve" font-family="MarkerFelt-Thin" font-size="25.2" fill="#FF2600" transform="matrix(1.00, 0.00, -0.00, -1.00, 273.6, 165.0)">l</text><text xml:space="preserve" font-family="MarkerFelt-Thin" font-size="25.2" fill="#FF2600" transform="matrix(1.00, 0.00, -0.00, -1.00, 279.5, 165.0)">i</text><text xml:space="preserve" font-family="MarkerFelt-Thin" font-size="25.2" fill="#FF2600" transform="matrix(1.00, 0.00, -0.00, -1.00, 285.1, 165.0)">e</text><text xml:space="preserve" font-family="MarkerFelt-Thin" font-size="25.2" fill="#FF2600" transform="matrix(1.00, 0.00, -0.00, -1.00, 296.3, 165.0)">n</text><text xml:space="preserve" font-family="MarkerFelt-Thin" font-size="25.2" fill="#FF2600" transform="matrix(1.00, 0.00, -0.00, -1.00, 310.1, 165.0)">t</text><text xml:space="preserve" font-family="MarkerFelt-Thin" font-size="25.2" fill="#FF2600" transform="matrix(1.00, 0.00, -0.00, -1.00, 317.7, 165.0)">-</text><text xml:space="preserve" font-family="MarkerFelt-Thin" font-size="25.2" fill="#FF2600" transform="matrix(1.00, 0.00, -0.00, -1.00, 327.0, 165.0)">s</text><text xml:space="preserve" font-family="MarkerFelt-Thin" font-size="25.2" fill="#FF2600" transform="matrix(1.00, 0.00, -0.00, -1.00, 337.4, 165.0)">i</text><text xml:space="preserve" font-family="MarkerFelt-Thin" font-size="25.2" fill="#FF2600" transform="matrix(1.00, 0.00, -0.00, -1.00, 342.9, 165.0)">d</text><text xml:space="preserve" font-family="MarkerFelt-Thin" font-size="25.2" fill="#FF2600" transform="matrix(1.00, 0.00, -0.00, -1.00, 353.8, 165.0)">e</text><text xml:space="preserve" font-family="MarkerFelt-Thin" font-size="25.2" fill="#FF2600" transform="matrix(1.00, 0.00, -0.00, -1.00, 363.3, 165.0)"> </text><text xml:space="preserve" font-family="MarkerFelt-Thin" font-size="25.2" fill="#FF2600" transform="matrix(1.00, 0.00, -0.00, -1.00, 369.6, 165.0)">b</text><text xml:space="preserve" font-family="MarkerFelt-Thin" font-size="25.2" fill="#FF2600" transform="matrix(1.00, 0.00, -0.00, -1.00, 381.6, 165.0)">u</text><text xml:space="preserve" font-family="MarkerFelt-Thin" font-size="25.2" fill="#FF2600" transform="matrix(1.00, 0.00, -0.00, -1.00, 392.6, 165.0)">s</text><text xml:space="preserve" font-family="MarkerFelt-Thin" font-size="25.2" fill="#FF2600" transform="matrix(1.00, 0.00, -0.00, -1.00, 402.9, 165.0)">i</text><text xml:space="preserve" font-family="MarkerFelt-Thin" font-size="25.2" fill="#FF2600" transform="matrix(1.00, 0.00, -0.00, -1.00, 409.2, 165.0)">n</text><text xml:space="preserve" font-family="MarkerFelt-Thin" font-size="25.2" fill="#FF2600" transform="matrix(1.00, 0.00, -0.00, -1.00, 422.2, 165.0)">e</text><text xml:space="preserve" font-family="MarkerFelt-Thin" font-size="25.2" fill="#FF2600" transform="matrix(1.00, 0.00, -0.00, -1.00, 433.7, 165.0)">s</text><text xml:space="preserve" font-family="MarkerFelt-Thin" font-size="25.2" fill="#FF2600" transform="matrix(1.00, 0.00, -0.00, -1.00, 444.4, 165.0)">s</text><text xml:space="preserve" font-family="MarkerFelt-Thin" font-size="25.2" fill="#FF2600" transform="matrix(1.00, 0.00, -0.00, -1.00, 453.7, 165.0)"> </text><text xml:space="preserve" font-family="MarkerFelt-Thin" font-size="25.2" fill="#FF2600" transform="matrix(1.00, 0.00, -0.00, -1.00, 460.0, 165.0)">l</text><text xml:space="preserve" font-family="MarkerFelt-Thin" font-size="25.2" fill="#FF2600" transform="matrix(1.00, 0.00, -0.00, -1.00, 466.0, 165.0)">o</text><text xml:space="preserve" font-family="MarkerFelt-Thin" font-size="25.2" fill="#FF2600" transform="matrix(1.00, 0.00, -0.00, -1.00, 477.6, 165.0)">g</text><text xml:space="preserve" font-family="MarkerFelt-Thin" font-size="25.2" fill="#FF2600" transform="matrix(1.00, 0.00, -0.00, -1.00, 489.0, 165.0)">i</text><text xml:space="preserve" font-family="MarkerFelt-Thin" font-size="25.2" fill="#FF2600" transform="matrix(1.00, 0.00, -0.00, -1.00, 494.7, 165.0)">c</text><g><clipPath id="clip-362"><path d="M 119.0 113.0 L 133.7 113.0 L 133.7 126.7 L 119.0 126.7 Z M 119.0 113.0 "></path></clipPath><g clip-path="url(#clip-362)"><path d="M 133.5 118.0 C 133.6 117.7 133.7 117.5 133.7 117.3 C 133.7 116.9 133.4 116.5 132.9 116.1 C 132.4 115.7 131.9 115.5 131.3 115.5 C 130.5 115.5 129.6 116.1 128.5 117.3 C 128.5 117.3 128.5 115.5 128.5 115.5 C 128.5 115.4 128.5 115.2 128.6 114.9 C 128.7 114.7 128.8 114.5 128.8 114.4 C 128.8 114.0 128.6 113.7 128.2 113.4 C 127.9 113.2 127.5 113.0 127.1 113.0 C 126.4 113.0 125.9 113.3 125.4 113.9 C 125.2 114.1 125.2 114.6 125.3 115.3 C 125.3 116.1 125.3 116.9 125.4 117.7 C 125.0 117.4 124.2 117.0 123.1 116.4 C 122.9 116.2 122.5 115.9 121.7 115.7 C 121.1 115.6 120.5 115.7 119.9 116.0 C 119.3 116.3 119.0 116.6 119.0 117.1 C 119.0 117.2 119.0 117.3 119.1 117.4 C 119.2 117.7 119.4 117.9 119.8 118.0 C 120.4 118.2 120.8 118.3 120.8 118.3 C 120.8 118.3 124.0 120.1 124.0 120.1 C 124.0 120.1 121.8 121.2 121.8 121.2 C 121.4 121.2 121.0 121.4 120.4 121.7 C 120.3 121.9 120.3 122.1 120.3 122.3 C 120.3 122.8 120.6 123.3 121.2 123.8 C 121.9 124.4 122.5 124.6 123.2 124.6 C 123.4 124.6 123.6 124.6 123.8 124.5 C 124.0 124.4 124.2 124.3 124.4 123.9 C 124.6 123.5 124.9 123.2 125.4 122.9 C 125.4 122.9 125.5 125.0 125.5 125.0 C 125.4 125.3 125.4 125.7 125.5 126.2 C 125.7 126.6 126.3 126.7 127.2 126.7 C 128.1 126.7 128.6 126.5 128.9 126.0 C 129.0 125.8 129.1 125.3 129.0 124.6 C 128.9 123.9 128.8 123.3 128.8 122.6 C 128.8 122.6 130.0 123.2 130.0 123.2 C 130.2 123.5 130.6 123.7 131.3 124.0 C 131.8 124.0 132.2 123.9 132.7 123.5 C 133.1 123.1 133.3 122.7 133.3 122.2 C 133.3 122.0 133.3 121.8 133.2 121.7 C 133.0 121.5 132.8 121.4 132.5 121.3 C 132.2 121.2 131.9 121.1 131.8 121.0 C 131.8 121.0 130.0 119.8 130.0 119.8 C 130.0 119.8 132.3 118.6 132.3 118.6 C 132.6 118.5 133.0 118.3 133.5 118.0 Z M 133.5 118.0 " fill="#3995D6"></path></g></g><text xml:space="preserve" font-family="MarkerFelt-Thin" font-size="25.2" fill="#FF2600" transform="matrix(1.00, 0.00, -0.00, -1.00, 143.0, 112.0)">M</text><text xml:space="preserve" font-family="MarkerFelt-Thin" font-size="25.2" fill="#FF2600" transform="matrix(1.00, 0.00, -0.00, -1.00, 167.6, 112.0)">a</text><text xml:space="preserve" font-family="MarkerFelt-Thin" font-size="25.2" fill="#FF2600" transform="matrix(1.00, 0.00, -0.00, -1.00, 180.2, 112.0)">i</text><text xml:space="preserve" font-family="MarkerFelt-Thin" font-size="25.2" fill="#FF2600" transform="matrix(1.00, 0.00, -0.00, -1.00, 186.4, 112.0)">n</text><text xml:space="preserve" font-family="MarkerFelt-Thin" font-size="25.2" fill="#FF2600" transform="matrix(1.00, 0.00, -0.00, -1.00, 200.2, 112.0)">t</text><text xml:space="preserve" font-family="MarkerFelt-Thin" font-size="25.2" fill="#FF2600" transform="matrix(1.00, 0.00, -0.00, -1.00, 210.6, 112.0)">a</text><text xml:space="preserve" font-family="MarkerFelt-Thin" font-size="25.2" fill="#FF2600" transform="matrix(1.00, 0.00, -0.00, -1.00, 223.2, 112.0)">i</text><text xml:space="preserve" font-family="MarkerFelt-Thin" font-size="25.2" fill="#FF2600" transform="matrix(1.00, 0.00, -0.00, -1.00, 229.4, 112.0)">n</text><text xml:space="preserve" font-family="MarkerFelt-Thin" font-size="25.2" fill="#FF2600" transform="matrix(1.00, 0.00, -0.00, -1.00, 241.8, 112.0)"> </text><text xml:space="preserve" font-family="MarkerFelt-Thin" font-size="25.2" fill="#FF2600" transform="matrix(1.00, 0.00, -0.00, -1.00, 248.1, 112.0)">d</text><text xml:space="preserve" font-family="MarkerFelt-Thin" font-size="25.2" fill="#FF2600" transform="matrix(1.00, 0.00, -0.00, -1.00, 259.5, 112.0)">u</text><text xml:space="preserve" font-family="MarkerFelt-Thin" font-size="25.2" fill="#FF2600" transform="matrix(1.00, 0.00, -0.00, -1.00, 270.8, 112.0)">a</text><text xml:space="preserve" font-family="MarkerFelt-Thin" font-size="25.2" fill="#FF2600" transform="matrix(1.00, 0.00, -0.00, -1.00, 283.6, 112.0)">l</text><text xml:space="preserve" font-family="MarkerFelt-Thin" font-size="25.2" fill="#FF2600" transform="matrix(1.00, 0.00, -0.00, -1.00, 288.6, 112.0)"> </text><text xml:space="preserve" font-family="MarkerFelt-Thin" font-size="25.2" fill="#FF2600" transform="matrix(1.00, 0.00, -0.00, -1.00, 294.9, 112.0)">i</text><text xml:space="preserve" font-family="MarkerFelt-Thin" font-size="25.2" fill="#FF2600" transform="matrix(1.00, 0.00, -0.00, -1.00, 300.9, 112.0)">m</text><text xml:space="preserve" font-family="MarkerFelt-Thin" font-size="25.2" fill="#FF2600" transform="matrix(1.00, 0.00, -0.00, -1.00, 319.9, 112.0)">p</text><text xml:space="preserve" font-family="MarkerFelt-Thin" font-size="25.2" fill="#FF2600" transform="matrix(1.00, 0.00, -0.00, -1.00, 331.6, 112.0)">l</text><text xml:space="preserve" font-family="MarkerFelt-Thin" font-size="25.2" fill="#FF2600" transform="matrix(1.00, 0.00, -0.00, -1.00, 337.3, 112.0)">e</text><text xml:space="preserve" font-family="MarkerFelt-Thin" font-size="25.2" fill="#FF2600" transform="matrix(1.00, 0.00, -0.00, -1.00, 347.9, 112.0)">m</text><text xml:space="preserve" font-family="MarkerFelt-Thin" font-size="25.2" fill="#FF2600" transform="matrix(1.00, 0.00, -0.00, -1.00, 366.0, 112.0)">e</text><text xml:space="preserve" font-family="MarkerFelt-Thin" font-size="25.2" fill="#FF2600" transform="matrix(1.00, 0.00, -0.00, -1.00, 377.2, 112.0)">n</text><text xml:space="preserve" font-family="MarkerFelt-Thin" font-size="25.2" fill="#FF2600" transform="matrix(1.00, 0.00, -0.00, -1.00, 391.0, 112.0)">t</text><text xml:space="preserve" font-family="MarkerFelt-Thin" font-size="25.2" fill="#FF2600" transform="matrix(1.00, 0.00, -0.00, -1.00, 401.4, 112.0)">a</text><text xml:space="preserve" font-family="MarkerFelt-Thin" font-size="25.2" fill="#FF2600" transform="matrix(1.00, 0.00, -0.00, -1.00, 413.7, 112.0)">t</text><text xml:space="preserve" font-family="MarkerFelt-Thin" font-size="25.2" fill="#FF2600" transform="matrix(1.00, 0.00, -0.00, -1.00, 424.5, 112.0)">i</text><text xml:space="preserve" font-family="MarkerFelt-Thin" font-size="25.2" fill="#FF2600" transform="matrix(1.00, 0.00, -0.00, -1.00, 430.4, 112.0)">o</text><text xml:space="preserve" font-family="MarkerFelt-Thin" font-size="25.2" fill="#FF2600" transform="matrix(1.00, 0.00, -0.00, -1.00, 441.8, 112.0)">n</text><text xml:space="preserve" font-family="MarkerFelt-Thin" font-size="25.2" fill="#FF2600" transform="matrix(1.00, 0.00, -0.00, -1.00, 454.1, 112.0)"> </text><text xml:space="preserve" font-family="MarkerFelt-Thin" font-size="25.2" fill="#FF2600" transform="matrix(1.00, 0.00, -0.00, -1.00, 460.4, 112.0)">o</text><text xml:space="preserve" font-family="MarkerFelt-Thin" font-size="25.2" fill="#FF2600" transform="matrix(1.00, 0.00, -0.00, -1.00, 471.9, 112.0)">f</text><text xml:space="preserve" font-family="MarkerFelt-Thin" font-size="25.2" fill="#FF2600" transform="matrix(1.00, 0.00, -0.00, -1.00, 481.0, 112.0)"> </text><text xml:space="preserve" font-family="MarkerFelt-Thin" font-size="25.2" fill="#FF2600" transform="matrix(1.00, 0.00, -0.00, -1.00, 143.0, 85.0)">c</text><text xml:space="preserve" font-family="MarkerFelt-Thin" font-size="25.2" fill="#FF2600" transform="matrix(1.00, 0.00, -0.00, -1.00, 153.8, 85.0)">o</text><text xml:space="preserve" font-family="MarkerFelt-Thin" font-size="25.2" fill="#FF2600" transform="matrix(1.00, 0.00, -0.00, -1.00, 164.7, 85.0)">m</text><text xml:space="preserve" font-family="MarkerFelt-Thin" font-size="25.2" fill="#FF2600" transform="matrix(1.00, 0.00, -0.00, -1.00, 182.8, 85.0)">m</text><text xml:space="preserve" font-family="MarkerFelt-Thin" font-size="25.2" fill="#FF2600" transform="matrix(1.00, 0.00, -0.00, -1.00, 201.6, 85.0)">o</text><text xml:space="preserve" font-family="MarkerFelt-Thin" font-size="25.2" fill="#FF2600" transform="matrix(1.00, 0.00, -0.00, -1.00, 213.0, 85.0)">n</text><text xml:space="preserve" font-family="MarkerFelt-Thin" font-size="25.2" fill="#FF2600" transform="matrix(1.00, 0.00, -0.00, -1.00, 225.3, 85.0)"> </text><text xml:space="preserve" font-family="MarkerFelt-Thin" font-size="25.2" fill="#FF2600" transform="matrix(1.00, 0.00, -0.00, -1.00, 231.6, 85.0)">l</text><text xml:space="preserve" font-family="MarkerFelt-Thin" font-size="25.2" fill="#FF2600" transform="matrix(1.00, 0.00, -0.00, -1.00, 237.6, 85.0)">o</text><text xml:space="preserve" font-family="MarkerFelt-Thin" font-size="25.2" fill="#FF2600" transform="matrix(1.00, 0.00, -0.00, -1.00, 249.2, 85.0)">g</text><text xml:space="preserve" font-family="MarkerFelt-Thin" font-size="25.2" fill="#FF2600" transform="matrix(1.00, 0.00, -0.00, -1.00, 260.6, 85.0)">i</text><text xml:space="preserve" font-family="MarkerFelt-Thin" font-size="25.2" fill="#FF2600" transform="matrix(1.00, 0.00, -0.00, -1.00, 266.4, 85.0)">c</text><g><clipPath id="clip-363"><path d="M 518.0 457.8 L 535.2 457.8 L 535.2 473.8 L 518.0 473.8 Z M 518.0 457.8 "></path></clipPath><g clip-path="url(#clip-363)"><path d="M 534.9 463.6 C 535.1 463.3 535.2 463.1 535.2 462.8 C 535.2 462.3 534.9 461.8 534.3 461.4 C 533.8 461.0 533.1 460.7 532.4 460.7 C 531.5 460.7 530.4 461.4 529.1 462.8 C 529.1 462.8 529.1 460.7 529.1 460.7 C 529.1 460.5 529.2 460.3 529.3 460.0 C 529.4 459.7 529.5 459.5 529.5 459.4 C 529.5 458.9 529.3 458.6 528.8 458.3 C 528.4 458.0 527.9 457.8 527.5 457.8 C 526.7 457.8 526.1 458.2 525.5 458.8 C 525.3 459.0 525.3 459.6 525.3 460.5 C 525.4 461.4 525.4 462.4 525.5 463.3 C 525.0 463.0 524.1 462.5 522.8 461.7 C 522.6 461.5 522.0 461.2 521.1 460.9 C 520.5 460.8 519.8 460.9 519.1 461.3 C 518.4 461.6 518.0 462.0 518.0 462.6 C 518.0 462.7 518.0 462.8 518.1 463.0 C 518.2 463.3 518.5 463.5 519.0 463.6 C 519.7 463.9 520.1 464.0 520.1 464.0 C 520.1 464.0 523.9 466.1 523.9 466.1 C 523.9 466.1 521.2 467.4 521.2 467.4 C 520.8 467.4 520.3 467.6 519.7 467.9 C 519.5 468.1 519.5 468.4 519.5 468.6 C 519.5 469.2 519.8 469.9 520.6 470.5 C 521.4 471.1 522.1 471.4 522.9 471.4 C 523.1 471.4 523.4 471.3 523.6 471.3 C 523.9 471.2 524.1 470.9 524.3 470.6 C 524.6 470.1 524.9 469.7 525.5 469.4 C 525.5 469.4 525.6 471.8 525.6 471.8 C 525.5 472.1 525.5 472.6 525.6 473.2 C 525.9 473.6 526.6 473.8 527.7 473.8 C 528.6 473.8 529.3 473.6 529.6 473.0 C 529.8 472.8 529.8 472.2 529.7 471.3 C 529.6 470.6 529.5 469.8 529.4 469.0 C 529.4 469.0 530.8 469.7 530.8 469.7 C 531.1 470.0 531.6 470.3 532.4 470.7 C 532.9 470.7 533.5 470.5 534.0 470.0 C 534.5 469.6 534.8 469.1 534.8 468.6 C 534.8 468.3 534.7 468.1 534.6 467.9 C 534.4 467.7 534.2 467.6 533.9 467.5 C 533.4 467.4 533.1 467.3 533.0 467.2 C 533.0 467.2 530.9 465.7 530.9 465.7 C 530.9 465.7 533.6 464.3 533.6 464.3 C 534.0 464.2 534.4 463.9 534.9 463.6 Z M 534.9 463.6 " fill="#3995D6"></path></g></g><text xml:space="preserve" font-family="MarkerFelt-Thin" font-size="29.5" fill="#FF2600" transform="matrix(1.00, 0.00, -0.00, -1.00, 547.0, 456.0)">P</text><text xml:space="preserve" font-family="MarkerFelt-Thin" font-size="29.5" fill="#FF2600" transform="matrix(1.00, 0.00, -0.00, -1.00, 560.3, 456.0)">r</text><text xml:space="preserve" font-family="MarkerFelt-Thin" font-size="29.5" fill="#FF2600" transform="matrix(1.00, 0.00, -0.00, -1.00, 571.5, 456.0)">e</text><text xml:space="preserve" font-family="MarkerFelt-Thin" font-size="29.5" fill="#FF2600" transform="matrix(1.00, 0.00, -0.00, -1.00, 585.0, 456.0)">s</text><text xml:space="preserve" font-family="MarkerFelt-Thin" font-size="29.5" fill="#FF2600" transform="matrix(1.00, 0.00, -0.00, -1.00, 596.9, 456.0)">e</text><text xml:space="preserve" font-family="MarkerFelt-Thin" font-size="29.5" fill="#FF2600" transform="matrix(1.00, 0.00, -0.00, -1.00, 610.0, 456.0)">n</text><text xml:space="preserve" font-family="MarkerFelt-Thin" font-size="29.5" fill="#FF2600" transform="matrix(1.00, 0.00, -0.00, -1.00, 626.2, 456.0)">t</text><text xml:space="preserve" font-family="MarkerFelt-Thin" font-size="29.5" fill="#FF2600" transform="matrix(1.00, 0.00, -0.00, -1.00, 638.4, 456.0)">a</text><text xml:space="preserve" font-family="MarkerFelt-Thin" font-size="29.5" fill="#FF2600" transform="matrix(1.00, 0.00, -0.00, -1.00, 652.8, 456.0)">t</text><text xml:space="preserve" font-family="MarkerFelt-Thin" font-size="29.5" fill="#FF2600" transform="matrix(1.00, 0.00, -0.00, -1.00, 665.5, 456.0)">i</text><text xml:space="preserve" font-family="MarkerFelt-Thin" font-size="29.5" fill="#FF2600" transform="matrix(1.00, 0.00, -0.00, -1.00, 672.3, 456.0)">o</text><text xml:space="preserve" font-family="MarkerFelt-Thin" font-size="29.5" fill="#FF2600" transform="matrix(1.00, 0.00, -0.00, -1.00, 685.7, 456.0)">n</text><text xml:space="preserve" font-family="MarkerFelt-Thin" font-size="29.5" fill="#FF2600" transform="matrix(1.00, 0.00, -0.00, -1.00, 700.1, 456.0)"> </text><text xml:space="preserve" font-family="MarkerFelt-Thin" font-size="29.5" fill="#FF2600" transform="matrix(1.00, 0.00, -0.00, -1.00, 707.5, 456.0)">L</text><text xml:space="preserve" font-family="MarkerFelt-Thin" font-size="29.5" fill="#FF2600" transform="matrix(1.00, 0.00, -0.00, -1.00, 721.7, 456.0)">a</text><text xml:space="preserve" font-family="MarkerFelt-Thin" font-size="29.5" fill="#FF2600" transform="matrix(1.00, 0.00, -0.00, -1.00, 735.3, 456.0)">y</text><text xml:space="preserve" font-family="MarkerFelt-Thin" font-size="29.5" fill="#FF2600" transform="matrix(1.00, 0.00, -0.00, -1.00, 749.2, 456.0)">e</text><text xml:space="preserve" font-family="MarkerFelt-Thin" font-size="29.5" fill="#FF2600" transform="matrix(1.00, 0.00, -0.00, -1.00, 762.2, 456.0)">r</text><g><clipPath id="clip-364"><path d="M 553.0 394.7 L 570.2 394.7 L 570.2 410.7 L 553.0 410.7 Z M 553.0 394.7 "></path></clipPath><g clip-path="url(#clip-364)"><path d="M 569.9 400.4 C 570.1 400.2 570.2 399.9 570.2 399.6 C 570.2 399.1 569.9 398.7 569.3 398.2 C 568.8 397.8 568.1 397.6 567.4 397.6 C 566.5 397.6 565.4 398.3 564.1 399.6 C 564.1 399.6 564.1 397.6 564.1 397.6 C 564.1 397.4 564.2 397.1 564.3 396.8 C 564.4 396.6 564.5 396.4 564.5 396.2 C 564.5 395.8 564.3 395.4 563.8 395.1 C 563.4 394.8 562.9 394.7 562.5 394.7 C 561.7 394.7 561.1 395.0 560.5 395.7 C 560.3 395.9 560.3 396.4 560.3 397.3 C 560.4 398.3 560.4 399.2 560.5 400.2 C 560.0 399.8 559.1 399.3 557.8 398.6 C 557.6 398.3 557.0 398.0 556.1 397.7 C 555.5 397.7 554.8 397.8 554.1 398.1 C 553.4 398.4 553.0 398.9 553.0 399.4 C 553.0 399.5 553.0 399.7 553.1 399.8 C 553.2 400.1 553.5 400.3 554.0 400.5 C 554.7 400.7 555.1 400.8 555.1 400.9 C 555.1 400.9 558.9 402.9 558.9 402.9 C 558.9 402.9 556.2 404.2 556.2 404.2 C 555.8 404.2 555.3 404.4 554.7 404.8 C 554.5 405.0 554.5 405.2 554.5 405.4 C 554.5 406.1 554.8 406.7 555.6 407.3 C 556.4 407.9 557.1 408.2 557.9 408.2 C 558.1 408.2 558.4 408.2 558.6 408.1 C 558.9 408.0 559.1 407.8 559.3 407.4 C 559.6 406.9 559.9 406.5 560.5 406.2 C 560.5 406.2 560.6 408.6 560.6 408.6 C 560.5 409.0 560.5 409.4 560.6 410.1 C 560.9 410.5 561.6 410.7 562.7 410.7 C 563.6 410.7 564.3 410.4 564.6 409.8 C 564.8 409.6 564.8 409.0 564.7 408.2 C 564.6 407.4 564.5 406.6 564.4 405.8 C 564.4 405.8 565.8 406.6 565.8 406.6 C 566.1 406.9 566.6 407.2 567.4 407.5 C 567.9 407.5 568.5 407.3 569.0 406.9 C 569.5 406.4 569.8 405.9 569.8 405.4 C 569.8 405.2 569.7 404.9 569.6 404.7 C 569.4 404.5 569.2 404.4 568.9 404.3 C 568.4 404.2 568.1 404.1 568.0 404.0 C 568.0 404.0 565.9 402.6 565.9 402.6 C 565.9 402.6 568.6 401.1 568.6 401.1 C 569.0 401.0 569.4 400.8 569.9 400.4 Z M 569.9 400.4 " fill="#3995D6"></path></g></g><text xml:space="preserve" font-family="MarkerFelt-Thin" font-size="29.5" fill="#FF2600" transform="matrix(1.00, 0.00, -0.00, -1.00, 582.0, 393.0)">D</text><text xml:space="preserve" font-family="MarkerFelt-Thin" font-size="29.5" fill="#FF2600" transform="matrix(1.00, 0.00, -0.00, -1.00, 595.8, 393.0)">e</text><text xml:space="preserve" font-family="MarkerFelt-Thin" font-size="29.5" fill="#FF2600" transform="matrix(1.00, 0.00, -0.00, -1.00, 608.6, 393.0)">p</text><text xml:space="preserve" font-family="MarkerFelt-Thin" font-size="29.5" fill="#FF2600" transform="matrix(1.00, 0.00, -0.00, -1.00, 622.3, 393.0)">r</text><text xml:space="preserve" font-family="MarkerFelt-Thin" font-size="29.5" fill="#FF2600" transform="matrix(1.00, 0.00, -0.00, -1.00, 633.5, 393.0)">e</text><text xml:space="preserve" font-family="MarkerFelt-Thin" font-size="29.5" fill="#FF2600" transform="matrix(1.00, 0.00, -0.00, -1.00, 646.5, 393.0)">c</text><text xml:space="preserve" font-family="MarkerFelt-Thin" font-size="29.5" fill="#FF2600" transform="matrix(1.00, 0.00, -0.00, -1.00, 659.5, 393.0)">a</text><text xml:space="preserve" font-family="MarkerFelt-Thin" font-size="29.5" fill="#FF2600" transform="matrix(1.00, 0.00, -0.00, -1.00, 673.9, 393.0)">t</text><text xml:space="preserve" font-family="MarkerFelt-Thin" font-size="29.5" fill="#FF2600" transform="matrix(1.00, 0.00, -0.00, -1.00, 685.2, 393.0)">e</text><text xml:space="preserve" font-family="MarkerFelt-Thin" font-size="29.5" fill="#FF2600" transform="matrix(1.00, 0.00, -0.00, -1.00, 696.4, 393.0)"> </text><text xml:space="preserve" font-family="MarkerFelt-Thin" font-size="29.5" fill="#FF2600" transform="matrix(1.00, 0.00, -0.00, -1.00, 703.8, 393.0)">J</text><text xml:space="preserve" font-family="MarkerFelt-Thin" font-size="29.5" fill="#FF2600" transform="matrix(1.00, 0.00, -0.00, -1.00, 717.3, 393.0)">a</text><text xml:space="preserve" font-family="MarkerFelt-Thin" font-size="29.5" fill="#FF2600" transform="matrix(1.00, 0.00, -0.00, -1.00, 731.5, 393.0)">v</text><text xml:space="preserve" font-family="MarkerFelt-Thin" font-size="29.5" fill="#FF2600" transform="matrix(1.00, 0.00, -0.00, -1.00, 746.0, 393.0)">a</text><text xml:space="preserve" font-family="MarkerFelt-Thin" font-size="29.5" fill="#FF2600" transform="matrix(1.00, 0.00, -0.00, -1.00, 759.6, 393.0)"> </text><text xml:space="preserve" font-family="MarkerFelt-Thin" font-size="29.5" fill="#FF2600" transform="matrix(1.00, 0.00, -0.00, -1.00, 767.0, 393.0)">c</text><text xml:space="preserve" font-family="MarkerFelt-Thin" font-size="29.5" fill="#FF2600" transform="matrix(1.00, 0.00, -0.00, -1.00, 779.3, 393.0)">l</text><text xml:space="preserve" font-family="MarkerFelt-Thin" font-size="29.5" fill="#FF2600" transform="matrix(1.00, 0.00, -0.00, -1.00, 786.2, 393.0)">i</text><text xml:space="preserve" font-family="MarkerFelt-Thin" font-size="29.5" fill="#FF2600" transform="matrix(1.00, 0.00, -0.00, -1.00, 792.7, 393.0)">e</text><text xml:space="preserve" font-family="MarkerFelt-Thin" font-size="29.5" fill="#FF2600" transform="matrix(1.00, 0.00, -0.00, -1.00, 805.9, 393.0)">n</text><text xml:space="preserve" font-family="MarkerFelt-Thin" font-size="29.5" fill="#FF2600" transform="matrix(1.00, 0.00, -0.00, -1.00, 822.0, 393.0)">t</text><g><clipPath id="clip-365"><path d="M 553.0 331.5 L 570.2 331.5 L 570.2 347.5 L 553.0 347.5 Z M 553.0 331.5 "></path></clipPath><g clip-path="url(#clip-365)"><path d="M 569.9 337.2 C 570.1 337.0 570.2 336.8 570.2 336.5 C 570.2 336.0 569.9 335.5 569.3 335.1 C 568.8 334.6 568.1 334.4 567.4 334.4 C 566.5 334.4 565.4 335.1 564.1 336.5 C 564.1 336.5 564.1 334.4 564.1 334.4 C 564.1 334.2 564.2 334.0 564.3 333.7 C 564.4 333.4 564.5 333.2 564.5 333.1 C 564.5 332.6 564.3 332.3 563.8 332.0 C 563.4 331.6 562.9 331.5 562.5 331.5 C 561.7 331.5 561.1 331.8 560.5 332.5 C 560.3 332.7 560.3 333.3 560.3 334.2 C 560.4 335.1 560.4 336.1 560.5 337.0 C 560.0 336.7 559.1 336.1 557.8 335.4 C 557.6 335.2 557.0 334.9 556.1 334.6 C 555.5 334.5 554.8 334.6 554.1 334.9 C 553.4 335.3 553.0 335.7 553.0 336.2 C 553.0 336.4 553.0 336.5 553.1 336.6 C 553.2 336.9 553.5 337.2 554.0 337.3 C 554.7 337.5 555.1 337.7 555.1 337.7 C 555.1 337.7 558.9 339.8 558.9 339.8 C 558.9 339.8 556.2 341.1 556.2 341.1 C 555.8 341.1 555.3 341.3 554.7 341.6 C 554.5 341.8 554.5 342.0 554.5 342.3 C 554.5 342.9 554.8 343.5 555.6 344.2 C 556.4 344.8 557.1 345.1 557.9 345.1 C 558.1 345.1 558.4 345.0 558.6 344.9 C 558.9 344.9 559.1 344.6 559.3 344.3 C 559.6 343.8 559.9 343.4 560.5 343.0 C 560.5 343.0 560.6 345.5 560.6 345.5 C 560.5 345.8 560.5 346.3 560.6 346.9 C 560.9 347.3 561.6 347.5 562.7 347.5 C 563.6 347.5 564.3 347.2 564.6 346.7 C 564.8 346.4 564.8 345.9 564.7 345.0 C 564.6 344.2 564.5 343.5 564.4 342.7 C 564.4 342.7 565.8 343.4 565.8 343.4 C 566.1 343.7 566.6 344.0 567.4 344.4 C 567.9 344.4 568.5 344.2 569.0 343.7 C 569.5 343.3 569.8 342.8 569.8 342.2 C 569.8 342.0 569.7 341.8 569.6 341.6 C 569.4 341.4 569.2 341.2 568.9 341.2 C 568.4 341.1 568.1 341.0 568.0 340.9 C 568.0 340.9 565.9 339.4 565.9 339.4 C 565.9 339.4 568.6 338.0 568.6 338.0 C 569.0 337.8 569.4 337.6 569.9 337.2 Z M 569.9 337.2 " fill="#3995D6"></path></g></g><text xml:space="preserve" font-family="MarkerFelt-Thin" font-size="29.5" fill="#FF2600" transform="matrix(1.00, 0.00, -0.00, -1.00, 582.0, 330.0)">W</text><text xml:space="preserve" font-family="MarkerFelt-Thin" font-size="29.5" fill="#FF2600" transform="matrix(1.00, 0.00, -0.00, -1.00, 609.0, 330.0)">r</text><text xml:space="preserve" font-family="MarkerFelt-Thin" font-size="29.5" fill="#FF2600" transform="matrix(1.00, 0.00, -0.00, -1.00, 622.0, 330.0)">i</text><text xml:space="preserve" font-family="MarkerFelt-Thin" font-size="29.5" fill="#FF2600" transform="matrix(1.00, 0.00, -0.00, -1.00, 629.8, 330.0)">t</text><text xml:space="preserve" font-family="MarkerFelt-Thin" font-size="29.5" fill="#FF2600" transform="matrix(1.00, 0.00, -0.00, -1.00, 641.1, 330.0)">e</text><text xml:space="preserve" font-family="MarkerFelt-Thin" font-size="29.5" fill="#FF2600" transform="matrix(1.00, 0.00, -0.00, -1.00, 652.3, 330.0)"> </text><text xml:space="preserve" font-family="MarkerFelt-Thin" font-size="29.5" fill="#FF2600" transform="matrix(1.00, 0.00, -0.00, -1.00, 659.7, 330.0)">w</text><text xml:space="preserve" font-family="MarkerFelt-Thin" font-size="29.5" fill="#FF2600" transform="matrix(1.00, 0.00, -0.00, -1.00, 680.9, 330.0)">e</text><text xml:space="preserve" font-family="MarkerFelt-Thin" font-size="29.5" fill="#FF2600" transform="matrix(1.00, 0.00, -0.00, -1.00, 693.7, 330.0)">b</text><text xml:space="preserve" font-family="MarkerFelt-Thin" font-size="29.5" fill="#FF2600" transform="matrix(1.00, 0.00, -0.00, -1.00, 706.4, 330.0)"> </text><text xml:space="preserve" font-family="MarkerFelt-Thin" font-size="29.5" fill="#FF2600" transform="matrix(1.00, 0.00, -0.00, -1.00, 713.8, 330.0)">c</text><text xml:space="preserve" font-family="MarkerFelt-Thin" font-size="29.5" fill="#FF2600" transform="matrix(1.00, 0.00, -0.00, -1.00, 726.2, 330.0)">l</text><text xml:space="preserve" font-family="MarkerFelt-Thin" font-size="29.5" fill="#FF2600" transform="matrix(1.00, 0.00, -0.00, -1.00, 733.1, 330.0)">i</text><text xml:space="preserve" font-family="MarkerFelt-Thin" font-size="29.5" fill="#FF2600" transform="matrix(1.00, 0.00, -0.00, -1.00, 739.6, 330.0)">e</text><text xml:space="preserve" font-family="MarkerFelt-Thin" font-size="29.5" fill="#FF2600" transform="matrix(1.00, 0.00, -0.00, -1.00, 752.7, 330.0)">n</text><text xml:space="preserve" font-family="MarkerFelt-Thin" font-size="29.5" fill="#FF2600" transform="matrix(1.00, 0.00, -0.00, -1.00, 768.9, 330.0)">t</text><g><clipPath id="clip-366"><path d="M 518.0 268.3 L 535.2 268.3 L 535.2 284.4 L 518.0 284.4 Z M 518.0 268.3 "></path></clipPath><g clip-path="url(#clip-366)"><path d="M 534.9 274.1 C 535.1 273.8 535.2 273.6 535.2 273.3 C 535.2 272.8 534.9 272.4 534.3 271.9 C 533.8 271.5 533.1 271.3 532.4 271.3 C 531.5 271.3 530.4 271.9 529.1 273.3 C 529.1 273.3 529.1 271.3 529.1 271.3 C 529.1 271.1 529.2 270.8 529.3 270.5 C 529.4 270.2 529.5 270.0 529.5 269.9 C 529.5 269.5 529.3 269.1 528.8 268.8 C 528.4 268.5 527.9 268.3 527.5 268.3 C 526.7 268.3 526.1 268.7 525.5 269.3 C 525.3 269.5 525.3 270.1 525.3 271.0 C 525.4 271.9 525.4 272.9 525.5 273.8 C 525.0 273.5 524.1 273.0 522.8 272.3 C 522.6 272.0 522.0 271.7 521.1 271.4 C 520.5 271.3 519.8 271.5 519.1 271.8 C 518.4 272.1 518.0 272.5 518.0 273.1 C 518.0 273.2 518.0 273.3 518.1 273.5 C 518.2 273.8 518.5 274.0 519.0 274.1 C 519.7 274.4 520.1 274.5 520.1 274.5 C 520.1 274.5 523.9 276.6 523.9 276.6 C 523.9 276.6 521.2 277.9 521.2 277.9 C 520.8 277.9 520.3 278.1 519.7 278.5 C 519.5 278.7 519.5 278.9 519.5 279.1 C 519.5 279.8 519.8 280.4 520.6 281.0 C 521.4 281.6 522.1 281.9 522.9 281.9 C 523.1 281.9 523.4 281.9 523.6 281.8 C 523.9 281.7 524.1 281.5 524.3 281.1 C 524.6 280.6 524.9 280.2 525.5 279.9 C 525.5 279.9 525.6 282.3 525.6 282.3 C 525.5 282.6 525.5 283.1 525.6 283.8 C 525.9 284.2 526.6 284.4 527.7 284.4 C 528.6 284.4 529.3 284.1 529.6 283.5 C 529.8 283.3 529.8 282.7 529.7 281.8 C 529.6 281.1 529.5 280.3 529.4 279.5 C 529.4 279.5 530.8 280.2 530.8 280.2 C 531.1 280.5 531.6 280.9 532.4 281.2 C 532.9 281.2 533.5 281.0 534.0 280.6 C 534.5 280.1 534.8 279.6 534.8 279.1 C 534.8 278.8 534.7 278.6 534.6 278.4 C 534.4 278.2 534.2 278.1 533.9 278.0 C 533.4 277.9 533.1 277.8 533.0 277.7 C 533.0 277.7 530.9 276.3 530.9 276.3 C 530.9 276.3 533.6 274.8 533.6 274.8 C 534.0 274.7 534.4 274.5 534.9 274.1 Z M 534.9 274.1 " fill="#3995D6"></path></g></g><text xml:space="preserve" font-family="MarkerFelt-Thin" font-size="29.5" fill="#858585" transform="matrix(1.00, 0.00, -0.00, -1.00, 547.0, 267.0)">B</text><text xml:space="preserve" font-family="MarkerFelt-Thin" font-size="29.5" fill="#858585" transform="matrix(1.00, 0.00, -0.00, -1.00, 562.4, 267.0)">u</text><text xml:space="preserve" font-family="MarkerFelt-Thin" font-size="29.5" fill="#858585" transform="matrix(1.00, 0.00, -0.00, -1.00, 575.3, 267.0)">s</text><text xml:space="preserve" font-family="MarkerFelt-Thin" font-size="29.5" fill="#858585" transform="matrix(1.00, 0.00, -0.00, -1.00, 587.4, 267.0)">i</text><text xml:space="preserve" font-family="MarkerFelt-Thin" font-size="29.5" fill="#858585" transform="matrix(1.00, 0.00, -0.00, -1.00, 594.7, 267.0)">n</text><text xml:space="preserve" font-family="MarkerFelt-Thin" font-size="29.5" fill="#858585" transform="matrix(1.00, 0.00, -0.00, -1.00, 610.0, 267.0)">e</text><text xml:space="preserve" font-family="MarkerFelt-Thin" font-size="29.5" fill="#858585" transform="matrix(1.00, 0.00, -0.00, -1.00, 623.5, 267.0)">s</text><text xml:space="preserve" font-family="MarkerFelt-Thin" font-size="29.5" fill="#858585" transform="matrix(1.00, 0.00, -0.00, -1.00, 635.9, 267.0)">s</text><text xml:space="preserve" font-family="MarkerFelt-Thin" font-size="29.5" fill="#858585" transform="matrix(1.00, 0.00, -0.00, -1.00, 646.9, 267.0)"> </text><text xml:space="preserve" font-family="MarkerFelt-Thin" font-size="29.5" fill="#858585" transform="matrix(1.00, 0.00, -0.00, -1.00, 654.2, 267.0)">L</text><text xml:space="preserve" font-family="MarkerFelt-Thin" font-size="29.5" fill="#858585" transform="matrix(1.00, 0.00, -0.00, -1.00, 667.9, 267.0)">o</text><text xml:space="preserve" font-family="MarkerFelt-Thin" font-size="29.5" fill="#858585" transform="matrix(1.00, 0.00, -0.00, -1.00, 681.5, 267.0)">g</text><text xml:space="preserve" font-family="MarkerFelt-Thin" font-size="29.5" fill="#858585" transform="matrix(1.00, 0.00, -0.00, -1.00, 694.8, 267.0)">i</text><text xml:space="preserve" font-family="MarkerFelt-Thin" font-size="29.5" fill="#858585" transform="matrix(1.00, 0.00, -0.00, -1.00, 701.5, 267.0)">c</text><g><clipPath id="clip-367"><path d="M 553.0 205.2 L 570.2 205.2 L 570.2 221.2 L 553.0 221.2 Z M 553.0 205.2 "></path></clipPath><g clip-path="url(#clip-367)"><path d="M 569.9 210.9 C 570.1 210.7 570.2 210.4 570.2 210.2 C 570.2 209.7 569.9 209.2 569.3 208.8 C 568.8 208.3 568.1 208.1 567.4 208.1 C 566.5 208.1 565.4 208.8 564.1 210.2 C 564.1 210.2 564.1 208.1 564.1 208.1 C 564.1 207.9 564.2 207.7 564.3 207.4 C 564.4 207.1 564.5 206.9 564.5 206.7 C 564.5 206.3 564.3 205.9 563.8 205.6 C 563.4 205.3 562.9 205.2 562.5 205.2 C 561.7 205.2 561.1 205.5 560.5 206.2 C 560.3 206.4 560.3 206.9 560.3 207.8 C 560.4 208.8 560.4 209.7 560.5 210.7 C 560.0 210.3 559.1 209.8 557.8 209.1 C 557.6 208.8 557.0 208.5 556.1 208.2 C 555.5 208.2 554.8 208.3 554.1 208.6 C 553.4 208.9 553.0 209.4 553.0 209.9 C 553.0 210.0 553.0 210.2 553.1 210.3 C 553.2 210.6 553.5 210.8 554.0 211.0 C 554.7 211.2 555.1 211.3 555.1 211.4 C 555.1 211.4 558.9 213.4 558.9 213.4 C 558.9 213.4 556.2 214.8 556.2 214.8 C 555.8 214.8 555.3 214.9 554.7 215.3 C 554.5 215.5 554.5 215.7 554.5 216.0 C 554.5 216.6 554.8 217.2 555.6 217.8 C 556.4 218.4 557.1 218.7 557.9 218.7 C 558.1 218.7 558.4 218.7 558.6 218.6 C 558.9 218.5 559.1 218.3 559.3 217.9 C 559.6 217.5 559.9 217.1 560.5 216.7 C 560.5 216.7 560.6 219.1 560.6 219.1 C 560.5 219.5 560.5 220.0 560.6 220.6 C 560.9 221.0 561.6 221.2 562.7 221.2 C 563.6 221.2 564.3 220.9 564.6 220.4 C 564.8 220.1 564.8 219.6 564.7 218.7 C 564.6 217.9 564.5 217.1 564.4 216.4 C 564.4 216.4 565.8 217.1 565.8 217.1 C 566.1 217.4 566.6 217.7 567.4 218.0 C 567.9 218.1 568.5 217.9 569.0 217.4 C 569.5 216.9 569.8 216.5 569.8 215.9 C 569.8 215.7 569.7 215.5 569.6 215.3 C 569.4 215.1 569.2 214.9 568.9 214.9 C 568.4 214.8 568.1 214.7 568.0 214.6 C 568.0 214.6 565.9 213.1 565.9 213.1 C 565.9 213.1 568.6 211.6 568.6 211.6 C 569.0 211.5 569.4 211.3 569.9 210.9 Z M 569.9 210.9 " fill="#3995D6"></path></g></g><text xml:space="preserve" font-family="MarkerFelt-Thin" font-size="29.5" fill="#858585" transform="matrix(1.00, 0.00, -0.00, -1.00, 582.0, 204.0)">R</text><text xml:space="preserve" font-family="MarkerFelt-Thin" font-size="29.5" fill="#858585" transform="matrix(1.00, 0.00, -0.00, -1.00, 599.7, 204.0)">e</text><text xml:space="preserve" font-family="MarkerFelt-Thin" font-size="29.5" fill="#858585" transform="matrix(1.00, 0.00, -0.00, -1.00, 613.4, 204.0)">t</text><text xml:space="preserve" font-family="MarkerFelt-Thin" font-size="29.5" fill="#858585" transform="matrix(1.00, 0.00, -0.00, -1.00, 625.5, 204.0)">a</text><text xml:space="preserve" font-family="MarkerFelt-Thin" font-size="29.5" fill="#858585" transform="matrix(1.00, 0.00, -0.00, -1.00, 640.3, 204.0)">i</text><text xml:space="preserve" font-family="MarkerFelt-Thin" font-size="29.5" fill="#858585" transform="matrix(1.00, 0.00, -0.00, -1.00, 647.6, 204.0)">n</text><text xml:space="preserve" font-family="MarkerFelt-Thin" font-size="29.5" fill="#858585" transform="matrix(1.00, 0.00, -0.00, -1.00, 662.1, 204.0)"> </text><text xml:space="preserve" font-family="MarkerFelt-Thin" font-size="29.5" fill="#858585" transform="matrix(1.00, 0.00, -0.00, -1.00, 669.4, 204.0)">a</text><text xml:space="preserve" font-family="MarkerFelt-Thin" font-size="29.5" fill="#858585" transform="matrix(1.00, 0.00, -0.00, -1.00, 684.4, 204.0)">l</text><text xml:space="preserve" font-family="MarkerFelt-Thin" font-size="29.5" fill="#858585" transform="matrix(1.00, 0.00, -0.00, -1.00, 691.8, 204.0)">l</text><text xml:space="preserve" font-family="MarkerFelt-Thin" font-size="29.5" fill="#858585" transform="matrix(1.00, 0.00, -0.00, -1.00, 697.7, 204.0)"> </text><text xml:space="preserve" font-family="MarkerFelt-Thin" font-size="29.5" fill="#858585" transform="matrix(1.00, 0.00, -0.00, -1.00, 705.1, 204.0)">b</text><text xml:space="preserve" font-family="MarkerFelt-Thin" font-size="29.5" fill="#858585" transform="matrix(1.00, 0.00, -0.00, -1.00, 719.1, 204.0)">u</text><text xml:space="preserve" font-family="MarkerFelt-Thin" font-size="29.5" fill="#858585" transform="matrix(1.00, 0.00, -0.00, -1.00, 731.9, 204.0)">s</text><text xml:space="preserve" font-family="MarkerFelt-Thin" font-size="29.5" fill="#858585" transform="matrix(1.00, 0.00, -0.00, -1.00, 744.1, 204.0)">i</text><text xml:space="preserve" font-family="MarkerFelt-Thin" font-size="29.5" fill="#858585" transform="matrix(1.00, 0.00, -0.00, -1.00, 751.4, 204.0)">n</text><text xml:space="preserve" font-family="MarkerFelt-Thin" font-size="29.5" fill="#858585" transform="matrix(1.00, 0.00, -0.00, -1.00, 766.6, 204.0)">e</text><text xml:space="preserve" font-family="MarkerFelt-Thin" font-size="29.5" fill="#858585" transform="matrix(1.00, 0.00, -0.00, -1.00, 780.1, 204.0)">s</text><text xml:space="preserve" font-family="MarkerFelt-Thin" font-size="29.5" fill="#858585" transform="matrix(1.00, 0.00, -0.00, -1.00, 792.6, 204.0)">s</text><text xml:space="preserve" font-family="MarkerFelt-Thin" font-size="29.5" fill="#858585" transform="matrix(1.00, 0.00, -0.00, -1.00, 803.5, 204.0)"> </text><text xml:space="preserve" font-family="MarkerFelt-Thin" font-size="29.5" fill="#858585" transform="matrix(1.00, 0.00, -0.00, -1.00, 810.9, 204.0)">l</text><text xml:space="preserve" font-family="MarkerFelt-Thin" font-size="29.5" fill="#858585" transform="matrix(1.00, 0.00, -0.00, -1.00, 817.9, 204.0)">o</text><text xml:space="preserve" font-family="MarkerFelt-Thin" font-size="29.5" fill="#858585" transform="matrix(1.00, 0.00, -0.00, -1.00, 831.5, 204.0)">g</text><text xml:space="preserve" font-family="MarkerFelt-Thin" font-size="29.5" fill="#858585" transform="matrix(1.00, 0.00, -0.00, -1.00, 844.9, 204.0)">i</text><text xml:space="preserve" font-family="MarkerFelt-Thin" font-size="29.5" fill="#858585" transform="matrix(1.00, 0.00, -0.00, -1.00, 851.6, 204.0)">c</text><g><clipPath id="clip-368"><path d="M 553.0 142.0 L 570.2 142.0 L 570.2 158.0 L 553.0 158.0 Z M 553.0 142.0 "></path></clipPath><g clip-path="url(#clip-368)"><path d="M 569.9 147.8 C 570.1 147.5 570.2 147.3 570.2 147.0 C 570.2 146.5 569.9 146.0 569.3 145.6 C 568.8 145.2 568.1 144.9 567.4 144.9 C 566.5 144.9 565.4 145.6 564.1 147.0 C 564.1 147.0 564.1 144.9 564.1 144.9 C 564.1 144.7 564.2 144.5 564.3 144.2 C 564.4 143.9 564.5 143.7 564.5 143.6 C 564.5 143.1 564.3 142.8 563.8 142.5 C 563.4 142.2 562.9 142.0 562.5 142.0 C 561.7 142.0 561.1 142.4 560.5 143.0 C 560.3 143.2 560.3 143.8 560.3 144.7 C 560.4 145.6 560.4 146.6 560.5 147.5 C 560.0 147.2 559.1 146.7 557.8 145.9 C 557.6 145.7 557.0 145.4 556.1 145.1 C 555.5 145.0 554.8 145.1 554.1 145.5 C 553.4 145.8 553.0 146.2 553.0 146.8 C 553.0 146.9 553.0 147.0 553.1 147.2 C 553.2 147.5 553.5 147.7 554.0 147.8 C 554.7 148.1 555.1 148.2 555.1 148.2 C 555.1 148.2 558.9 150.3 558.9 150.3 C 558.9 150.3 556.2 151.6 556.2 151.6 C 555.8 151.6 555.3 151.8 554.7 152.1 C 554.5 152.3 554.5 152.6 554.5 152.8 C 554.5 153.4 554.8 154.1 555.6 154.7 C 556.4 155.3 557.1 155.6 557.9 155.6 C 558.1 155.6 558.4 155.5 558.6 155.5 C 558.9 155.4 559.1 155.1 559.3 154.8 C 559.6 154.3 559.9 153.9 560.5 153.6 C 560.5 153.6 560.6 156.0 560.6 156.0 C 560.5 156.3 560.5 156.8 560.6 157.4 C 560.9 157.8 561.6 158.0 562.7 158.0 C 563.6 158.0 564.3 157.8 564.6 157.2 C 564.8 157.0 564.8 156.4 564.7 155.5 C 564.6 154.8 564.5 154.0 564.4 153.2 C 564.4 153.2 565.8 153.9 565.8 153.9 C 566.1 154.2 566.6 154.5 567.4 154.9 C 567.9 154.9 568.5 154.7 569.0 154.2 C 569.5 153.8 569.8 153.3 569.8 152.8 C 569.8 152.5 569.7 152.3 569.6 152.1 C 569.4 151.9 569.2 151.8 568.9 151.7 C 568.4 151.6 568.1 151.5 568.0 151.4 C 568.0 151.4 565.9 149.9 565.9 149.9 C 565.9 149.9 568.6 148.5 568.6 148.5 C 569.0 148.4 569.4 148.1 569.9 147.8 Z M 569.9 147.8 " fill="#3995D6"></path></g></g><text xml:space="preserve" font-family="MarkerFelt-Thin" font-size="29.5" fill="#858585" transform="matrix(1.00, 0.00, -0.00, -1.00, 582.0, 140.0)">M</text><text xml:space="preserve" font-family="MarkerFelt-Thin" font-size="29.5" fill="#858585" transform="matrix(1.00, 0.00, -0.00, -1.00, 610.8, 140.0)">a</text><text xml:space="preserve" font-family="MarkerFelt-Thin" font-size="29.5" fill="#858585" transform="matrix(1.00, 0.00, -0.00, -1.00, 625.5, 140.0)">i</text><text xml:space="preserve" font-family="MarkerFelt-Thin" font-size="29.5" fill="#858585" transform="matrix(1.00, 0.00, -0.00, -1.00, 632.9, 140.0)">n</text><text xml:space="preserve" font-family="MarkerFelt-Thin" font-size="29.5" fill="#858585" transform="matrix(1.00, 0.00, -0.00, -1.00, 649.0, 140.0)">t</text><text xml:space="preserve" font-family="MarkerFelt-Thin" font-size="29.5" fill="#858585" transform="matrix(1.00, 0.00, -0.00, -1.00, 661.2, 140.0)">a</text><text xml:space="preserve" font-family="MarkerFelt-Thin" font-size="29.5" fill="#858585" transform="matrix(1.00, 0.00, -0.00, -1.00, 675.9, 140.0)">i</text><text xml:space="preserve" font-family="MarkerFelt-Thin" font-size="29.5" fill="#858585" transform="matrix(1.00, 0.00, -0.00, -1.00, 683.3, 140.0)">n</text><text xml:space="preserve" font-family="MarkerFelt-Thin" font-size="29.5" fill="#858585" transform="matrix(1.00, 0.00, -0.00, -1.00, 697.7, 140.0)"> </text><text xml:space="preserve" font-family="MarkerFelt-Thin" font-size="29.5" fill="#858585" transform="matrix(1.00, 0.00, -0.00, -1.00, 705.1, 140.0)">s</text><text xml:space="preserve" font-family="MarkerFelt-Thin" font-size="29.5" fill="#858585" transform="matrix(1.00, 0.00, -0.00, -1.00, 717.2, 140.0)">i</text><text xml:space="preserve" font-family="MarkerFelt-Thin" font-size="29.5" fill="#858585" transform="matrix(1.00, 0.00, -0.00, -1.00, 724.6, 140.0)">n</text><text xml:space="preserve" font-family="MarkerFelt-Thin" font-size="29.5" fill="#858585" transform="matrix(1.00, 0.00, -0.00, -1.00, 739.9, 140.0)">g</text><text xml:space="preserve" font-family="MarkerFelt-Thin" font-size="29.5" fill="#858585" transform="matrix(1.00, 0.00, -0.00, -1.00, 753.6, 140.0)">l</text><text xml:space="preserve" font-family="MarkerFelt-Thin" font-size="29.5" fill="#858585" transform="matrix(1.00, 0.00, -0.00, -1.00, 760.2, 140.0)">e</text><text xml:space="preserve" font-family="MarkerFelt-Thin" font-size="29.5" fill="#858585" transform="matrix(1.00, 0.00, -0.00, -1.00, 771.5, 140.0)"> </text><text xml:space="preserve" font-family="MarkerFelt-Thin" font-size="29.5" fill="#858585" transform="matrix(1.00, 0.00, -0.00, -1.00, 582.0, 108.0)">i</text><text xml:space="preserve" font-family="MarkerFelt-Thin" font-size="29.5" fill="#858585" transform="matrix(1.00, 0.00, -0.00, -1.00, 589.0, 108.0)">m</text><text xml:space="preserve" font-family="MarkerFelt-Thin" font-size="29.5" fill="#858585" transform="matrix(1.00, 0.00, -0.00, -1.00, 611.2, 108.0)">p</text><text xml:space="preserve" font-family="MarkerFelt-Thin" font-size="29.5" fill="#858585" transform="matrix(1.00, 0.00, -0.00, -1.00, 625.0, 108.0)">l</text><text xml:space="preserve" font-family="MarkerFelt-Thin" font-size="29.5" fill="#858585" transform="matrix(1.00, 0.00, -0.00, -1.00, 631.7, 108.0)">e</text><text xml:space="preserve" font-family="MarkerFelt-Thin" font-size="29.5" fill="#858585" transform="matrix(1.00, 0.00, -0.00, -1.00, 644.1, 108.0)">m</text><text xml:space="preserve" font-family="MarkerFelt-Thin" font-size="29.5" fill="#858585" transform="matrix(1.00, 0.00, -0.00, -1.00, 665.3, 108.0)">e</text><text xml:space="preserve" font-family="MarkerFelt-Thin" font-size="29.5" fill="#858585" transform="matrix(1.00, 0.00, -0.00, -1.00, 678.4, 108.0)">n</text><text xml:space="preserve" font-family="MarkerFelt-Thin" font-size="29.5" fill="#858585" transform="matrix(1.00, 0.00, -0.00, -1.00, 694.6, 108.0)">t</text><text xml:space="preserve" font-family="MarkerFelt-Thin" font-size="29.5" fill="#858585" transform="matrix(1.00, 0.00, -0.00, -1.00, 706.8, 108.0)">a</text><text xml:space="preserve" font-family="MarkerFelt-Thin" font-size="29.5" fill="#858585" transform="matrix(1.00, 0.00, -0.00, -1.00, 721.2, 108.0)">t</text><text xml:space="preserve" font-family="MarkerFelt-Thin" font-size="29.5" fill="#858585" transform="matrix(1.00, 0.00, -0.00, -1.00, 733.9, 108.0)">i</text><text xml:space="preserve" font-family="MarkerFelt-Thin" font-size="29.5" fill="#858585" transform="matrix(1.00, 0.00, -0.00, -1.00, 740.7, 108.0)">o</text><text xml:space="preserve" font-family="MarkerFelt-Thin" font-size="29.5" fill="#858585" transform="matrix(1.00, 0.00, -0.00, -1.00, 754.1, 108.0)">n</text><text xml:space="preserve" font-family="MarkerFelt-Thin" font-size="29.5" fill="#858585" transform="matrix(1.00, 0.00, -0.00, -1.00, 768.5, 108.0)"> </text><text xml:space="preserve" font-family="MarkerFelt-Thin" font-size="29.5" fill="#858585" transform="matrix(1.00, 0.00, -0.00, -1.00, 775.9, 108.0)">o</text><text xml:space="preserve" font-family="MarkerFelt-Thin" font-size="29.5" fill="#858585" transform="matrix(1.00, 0.00, -0.00, -1.00, 789.3, 108.0)">f</text><text xml:space="preserve" font-family="MarkerFelt-Thin" font-size="29.5" fill="#858585" transform="matrix(1.00, 0.00, -0.00, -1.00, 799.9, 108.0)"> </text><text xml:space="preserve" font-family="MarkerFelt-Thin" font-size="29.5" fill="#858585" transform="matrix(1.00, 0.00, -0.00, -1.00, 807.3, 108.0)">c</text><text xml:space="preserve" font-family="MarkerFelt-Thin" font-size="29.5" fill="#858585" transform="matrix(1.00, 0.00, -0.00, -1.00, 819.9, 108.0)">o</text><text xml:space="preserve" font-family="MarkerFelt-Thin" font-size="29.5" fill="#858585" transform="matrix(1.00, 0.00, -0.00, -1.00, 832.7, 108.0)">m</text><text xml:space="preserve" font-family="MarkerFelt-Thin" font-size="29.5" fill="#858585" transform="matrix(1.00, 0.00, -0.00, -1.00, 854.0, 108.0)">m</text><text xml:space="preserve" font-family="MarkerFelt-Thin" font-size="29.5" fill="#858585" transform="matrix(1.00, 0.00, -0.00, -1.00, 875.9, 108.0)">o</text><text xml:space="preserve" font-family="MarkerFelt-Thin" font-size="29.5" fill="#858585" transform="matrix(1.00, 0.00, -0.00, -1.00, 889.3, 108.0)">n</text><text xml:space="preserve" font-family="MarkerFelt-Thin" font-size="29.5" fill="#858585" transform="matrix(1.00, 0.00, -0.00, -1.00, 903.8, 108.0)"> </text><text xml:space="preserve" font-family="MarkerFelt-Thin" font-size="29.5" fill="#858585" transform="matrix(1.00, 0.00, -0.00, -1.00, 582.0, 76.0)">l</text><text xml:space="preserve" font-family="MarkerFelt-Thin" font-size="29.5" fill="#858585" transform="matrix(1.00, 0.00, -0.00, -1.00, 589.0, 76.0)">o</text><text xml:space="preserve" font-family="MarkerFelt-Thin" font-size="29.5" fill="#858585" transform="matrix(1.00, 0.00, -0.00, -1.00, 602.6, 76.0)">g</text><text xml:space="preserve" font-family="MarkerFelt-Thin" font-size="29.5" fill="#858585" transform="matrix(1.00, 0.00, -0.00, -1.00, 616.0, 76.0)">i</text><text xml:space="preserve" font-family="MarkerFelt-Thin" font-size="29.5" fill="#858585" transform="matrix(1.00, 0.00, -0.00, -1.00, 622.7, 76.0)">c</text></g></svg>