<?xml version="1.0" encoding="UTF-8" standalone="no"?><svg xmlns="http://www.w3.org/2000/svg" xmlns:xlink="http://www.w3.org/1999/xlink" clip-rule="evenodd" stroke-miterlimit="4.00" viewBox="0 0 1024 768"><desc>SVG generated by Keynote</desc><defs></defs><g transform="matrix(1.00, 0.00, -0.00, -1.00, 0.0, 768.0)"><g><clipPath id="clip-369"><path d="M 0.0 768.0 L 1024.0 768.0 L 1024.0 0.0 L 0.0 0.0 Z M 0.0 768.0 "></path></clipPath><g clip-path="url(#clip-369)"><image xlink:href="../../39451CEE-E280-41CA-872D-216C9FC86FAF/assets/43DA95A1552523200D88D33196FD3A18.jpeg" width="1024.00" height="768.00" transform="matrix(1.00, 0.00, -0.00, -1.00, 0.0, 768.0)"></image></g></g><text xml:space="preserve" font-family="MarkerFelt-Thin" font-size="80.0" fill="#45A6DE" transform="matrix(1.00, 0.00, -0.00, -1.00, 256.0, 626.0)">C</text><text xml:space="preserve" font-family="MarkerFelt-Thin" font-size="80.0" fill="#45A6DE" transform="matrix(1.00, 0.00, -0.00, -1.00, 296.0, 626.0)">u</text><text xml:space="preserve" font-family="MarkerFelt-Thin" font-size="80.0" fill="#45A6DE" transform="matrix(1.00, 0.00, -0.00, -1.00, 330.8, 626.0)">m</text><text xml:space="preserve" font-family="MarkerFelt-Thin" font-size="80.0" fill="#45A6DE" transform="matrix(1.00, 0.00, -0.00, -1.00, 388.4, 626.0)">u</text><text xml:space="preserve" font-family="MarkerFelt-Thin" font-size="80.0" fill="#45A6DE" transform="matrix(1.00, 0.00, -0.00, -1.00, 424.2, 626.0)">l</text><text xml:space="preserve" font-family="MarkerFelt-Thin" font-size="80.0" fill="#45A6DE" transform="matrix(1.00, 0.00, -0.00, -1.00, 443.9, 626.0)">a</text><text xml:space="preserve" font-family="MarkerFelt-Thin" font-size="80.0" fill="#45A6DE" transform="matrix(1.00, 0.00, -0.00, -1.00, 483.0, 626.0)">t</text><text xml:space="preserve" font-family="MarkerFelt-Thin" font-size="80.0" fill="#45A6DE" transform="matrix(1.00, 0.00, -0.00, -1.00, 517.4, 626.0)">i</text><text xml:space="preserve" font-family="MarkerFelt-Thin" font-size="80.0" fill="#45A6DE" transform="matrix(1.00, 0.00, -0.00, -1.00, 540.3, 626.0)">v</text><text xml:space="preserve" font-family="MarkerFelt-Thin" font-size="80.0" fill="#45A6DE" transform="matrix(1.00, 0.00, -0.00, -1.00, 577.2, 626.0)">e</text><text xml:space="preserve" font-family="MarkerFelt-Thin" font-size="80.0" fill="#45A6DE" transform="matrix(1.00, 0.00, -0.00, -1.00, 607.6, 626.0)"> </text><text xml:space="preserve" font-family="MarkerFelt-Thin" font-size="80.0" fill="#45A6DE" transform="matrix(1.00, 0.00, -0.00, -1.00, 627.6, 626.0)">C</text><text xml:space="preserve" font-family="MarkerFelt-Thin" font-size="80.0" fill="#45A6DE" transform="matrix(1.00, 0.00, -0.00, -1.00, 667.9, 626.0)">o</text><text xml:space="preserve" font-family="MarkerFelt-Thin" font-size="80.0" fill="#45A6DE" transform="matrix(1.00, 0.00, -0.00, -1.00, 704.2, 626.0)">s</text><text xml:space="preserve" font-family="MarkerFelt-Thin" font-size="80.0" fill="#45A6DE" transform="matrix(1.00, 0.00, -0.00, -1.00, 739.0, 626.0)">t</text><path d="M 267.3 63.0 L 267.3 374.0 " fill="none" stroke="#B8B8B8" stroke-width="1.00" transform="matrix(1.00, 0.00, 0.00, -1.00, 98.2, 559.0)"></path><path d="M 448.3 63.0 L 448.3 374.0 " fill="none" stroke="#B8B8B8" stroke-width="1.00" transform="matrix(1.00, 0.00, 0.00, -1.00, 98.2, 559.0)"></path><path d="M 630.3 63.0 L 630.3 374.0 " fill="none" stroke="#B8B8B8" stroke-width="1.00" transform="matrix(1.00, 0.00, 0.00, -1.00, 98.2, 559.0)"></path><path d="M 811.3 63.0 L 811.3 374.0 " fill="none" stroke="#B8B8B8" stroke-width="1.00" transform="matrix(1.00, 0.00, 0.00, -1.00, 98.2, 559.0)"></path><g><g><clipPath id="clip-370"><path d="M 0.0 0.0 L 1024.0 0.0 L 1024.0 768.0 L 0.0 768.0 Z M 0.0 0.0 "></path></clipPath><g clip-path="url(#clip-370)"><path d="M 85.3 374.5 L 85.3 62.5 " fill="none" stroke="#858585" stroke-opacity="0.56" stroke-width="1.00" stroke-linecap="square" transform="matrix(1.00, 0.00, 0.00, -1.00, 98.2, 559.0)"></path></g></g></g><g><g><clipPath id="clip-371"><path d="M 97.2 402.8 L 164.8 402.8 L 164.8 433.8 L 97.2 433.8 Z M 97.2 402.8 "></path></clipPath><g clip-path="url(#clip-371)"><text xml:space="preserve" font-family="MarkerFelt-Thin" font-size="27.0" fill="#858585" transform="matrix(1.00, 0.00, -0.00, -1.00, 99.0, 410.0)">J</text><text xml:space="preserve" font-family="MarkerFelt-Thin" font-size="27.0" fill="#858585" transform="matrix(1.00, 0.00, -0.00, -1.00, 110.6, 410.0)">e</text><text xml:space="preserve" font-family="MarkerFelt-Thin" font-size="27.0" fill="#858585" transform="matrix(1.00, 0.00, -0.00, -1.00, 122.6, 410.0)">n</text><text xml:space="preserve" font-family="MarkerFelt-Thin" font-size="27.0" fill="#858585" transform="matrix(1.00, 0.00, -0.00, -1.00, 136.9, 410.0)">n</text><text xml:space="preserve" font-family="MarkerFelt-Thin" font-size="27.0" fill="#858585" transform="matrix(1.00, 0.00, -0.00, -1.00, 150.9, 410.0)">y</text></g></g><g><clipPath id="clip-372"><path d="M 124.0 247.1 L 164.8 247.1 L 164.8 278.1 L 124.0 278.1 Z M 124.0 247.1 "></path></clipPath><g clip-path="url(#clip-372)"><text xml:space="preserve" font-family="MarkerFelt-Thin" font-size="27.0" fill="#858585" transform="matrix(1.00, 0.00, -0.00, -1.00, 126.0, 254.0)">B</text><text xml:space="preserve" font-family="MarkerFelt-Thin" font-size="27.0" fill="#858585" transform="matrix(1.00, 0.00, -0.00, -1.00, 140.2, 254.0)">o</text><text xml:space="preserve" font-family="MarkerFelt-Thin" font-size="27.0" fill="#858585" transform="matrix(1.00, 0.00, -0.00, -1.00, 152.2, 254.0)">b</text></g></g><g><clipPath id="clip-373"><path d="M 183.9 99.6 L 909.9 99.6 L 909.9 143.1 L 183.9 143.1 Z M 183.9 99.6 "></path></clipPath><g clip-path="url(#clip-373)"><text xml:space="preserve" font-family="MarkerFelt-Thin" font-size="27.0" fill="#858585" transform="matrix(1.00, 0.00, -0.00, -1.00, 461.0, 106.0)">D</text><text xml:space="preserve" font-family="MarkerFelt-Thin" font-size="27.0" fill="#858585" transform="matrix(1.00, 0.00, -0.00, -1.00, 474.2, 106.0)">a</text><text xml:space="preserve" font-family="MarkerFelt-Thin" font-size="27.0" fill="#858585" transform="matrix(1.00, 0.00, -0.00, -1.00, 486.6, 106.0)">y</text><text xml:space="preserve" font-family="MarkerFelt-Thin" font-size="27.0" fill="#858585" transform="matrix(1.00, 0.00, -0.00, -1.00, 499.3, 106.0)">s</text><text xml:space="preserve" font-family="MarkerFelt-Thin" font-size="27.0" fill="#858585" transform="matrix(1.00, 0.00, -0.00, -1.00, 509.3, 106.0)"> </text><text xml:space="preserve" font-family="MarkerFelt-Thin" font-size="27.0" fill="#858585" transform="matrix(1.00, 0.00, -0.00, -1.00, 516.1, 106.0)">t</text><text xml:space="preserve" font-family="MarkerFelt-Thin" font-size="27.0" fill="#858585" transform="matrix(1.00, 0.00, -0.00, -1.00, 526.9, 106.0)">o</text><text xml:space="preserve" font-family="MarkerFelt-Thin" font-size="27.0" fill="#858585" transform="matrix(1.00, 0.00, -0.00, -1.00, 538.0, 106.0)"> </text><text xml:space="preserve" font-family="MarkerFelt-Thin" font-size="27.0" fill="#858585" transform="matrix(1.00, 0.00, -0.00, -1.00, 544.8, 106.0)">M</text><text xml:space="preserve" font-family="MarkerFelt-Thin" font-size="27.0" fill="#858585" transform="matrix(1.00, 0.00, -0.00, -1.00, 571.1, 106.0)">a</text><text xml:space="preserve" font-family="MarkerFelt-Thin" font-size="27.0" fill="#858585" transform="matrix(1.00, 0.00, -0.00, -1.00, 584.6, 106.0)">r</text><text xml:space="preserve" font-family="MarkerFelt-Thin" font-size="27.0" fill="#858585" transform="matrix(1.00, 0.00, -0.00, -1.00, 596.4, 106.0)">k</text><text xml:space="preserve" font-family="MarkerFelt-Thin" font-size="27.0" fill="#858585" transform="matrix(1.00, 0.00, -0.00, -1.00, 610.5, 106.0)">e</text><text xml:space="preserve" font-family="MarkerFelt-Thin" font-size="27.0" fill="#858585" transform="matrix(1.00, 0.00, -0.00, -1.00, 623.0, 106.0)">t</text></g></g><g><clipPath id="clip-374"><path d="M 174.7 142.1 L 193.1 142.1 L 193.1 173.1 L 174.7 173.1 Z M 174.7 142.1 "></path></clipPath><g clip-path="url(#clip-374)"><text xml:space="preserve" font-family="MarkerFelt-Thin" font-size="27.0" fill="#858585" transform="matrix(1.00, 0.00, -0.00, -1.00, 176.0, 149.0)">0</text></g></g><g><clipPath id="clip-375"><path d="M 348.5 142.1 L 382.3 142.1 L 382.3 173.1 L 348.5 173.1 Z M 348.5 142.1 "></path></clipPath><g clip-path="url(#clip-375)"><text xml:space="preserve" font-family="MarkerFelt-Thin" font-size="27.0" fill="#858585" transform="matrix(1.00, 0.00, -0.00, -1.00, 350.0, 149.0)">1</text><text xml:space="preserve" font-family="MarkerFelt-Thin" font-size="27.0" fill="#858585" transform="matrix(1.00, 0.00, -0.00, -1.00, 365.4, 149.0)">0</text></g></g><g><clipPath id="clip-376"><path d="M 530.1 142.1 L 563.8 142.1 L 563.8 173.1 L 530.1 173.1 Z M 530.1 142.1 "></path></clipPath><g clip-path="url(#clip-376)"><text xml:space="preserve" font-family="MarkerFelt-Thin" font-size="27.0" fill="#858585" transform="matrix(1.00, 0.00, -0.00, -1.00, 532.0, 149.0)">2</text><text xml:space="preserve" font-family="MarkerFelt-Thin" font-size="27.0" fill="#858585" transform="matrix(1.00, 0.00, -0.00, -1.00, 547.4, 149.0)">0</text></g></g><g><clipPath id="clip-377"><path d="M 711.6 142.1 L 745.3 142.1 L 745.3 173.1 L 711.6 173.1 Z M 711.6 142.1 "></path></clipPath><g clip-path="url(#clip-377)"><text xml:space="preserve" font-family="MarkerFelt-Thin" font-size="27.0" fill="#858585" transform="matrix(1.00, 0.00, -0.00, -1.00, 713.0, 149.0)">3</text><text xml:space="preserve" font-family="MarkerFelt-Thin" font-size="27.0" fill="#858585" transform="matrix(1.00, 0.00, -0.00, -1.00, 728.4, 149.0)">0</text></g></g><g><clipPath id="clip-378"><path d="M 893.1 142.1 L 926.8 142.1 L 926.8 173.1 L 893.1 173.1 Z M 893.1 142.1 "></path></clipPath><g clip-path="url(#clip-378)"><text xml:space="preserve" font-family="MarkerFelt-Thin" font-size="27.0" fill="#858585" transform="matrix(1.00, 0.00, -0.00, -1.00, 895.0, 149.0)">4</text><text xml:space="preserve" font-family="MarkerFelt-Thin" font-size="27.0" fill="#858585" transform="matrix(1.00, 0.00, -0.00, -1.00, 910.4, 149.0)">0</text></g></g></g><g><clipPath id="clip-379"><path d="M 183.9 184.8 L 909.9 184.8 L 909.9 496.1 L 183.9 496.1 Z M 183.9 184.8 "></path></clipPath><g clip-path="url(#clip-379)"><path d="M 420.0 444.0 L 511.0 444.0 L 511.0 392.0 L 420.0 392.0 Z M 420.0 444.0 " fill="#BC2C2F"></path></g></g><g><clipPath id="clip-380"><path d="M 183.9 184.8 L 909.9 184.8 L 909.9 496.1 L 183.9 496.1 Z M 183.9 184.8 "></path></clipPath><g clip-path="url(#clip-380)"><path d="M 529.0 289.0 L 801.0 289.0 L 801.0 237.0 L 529.0 237.0 Z M 529.0 289.0 " fill="#BC2C2F"></path></g></g><g><clipPath id="clip-381"><path d="M 183.9 184.8 L 909.9 184.8 L 909.9 496.1 L 183.9 496.1 Z M 183.9 184.8 "></path></clipPath><g clip-path="url(#clip-381)"><path d="M 329.0 444.0 L 420.0 444.0 L 420.0 392.0 L 329.0 392.0 Z M 329.0 444.0 " fill="#E7A03C"></path></g></g><g><clipPath id="clip-382"><path d="M 183.9 184.8 L 909.9 184.8 L 909.9 496.1 L 183.9 496.1 Z M 183.9 184.8 "></path></clipPath><g clip-path="url(#clip-382)"><path d="M 384.0 289.0 L 529.0 289.0 L 529.0 237.0 L 384.0 237.0 Z M 384.0 289.0 " fill="#E7A03C"></path></g></g><g><clipPath id="clip-383"><path d="M 183.9 184.8 L 909.9 184.8 L 909.9 496.1 L 183.9 496.1 Z M 183.9 184.8 "></path></clipPath><g clip-path="url(#clip-383)"><path d="M 238.0 444.0 L 329.0 444.0 L 329.0 392.0 L 238.0 392.0 Z M 238.0 444.0 " fill="#5D9548"></path></g></g><g><clipPath id="clip-384"><path d="M 183.9 184.8 L 909.9 184.8 L 909.9 496.1 L 183.9 496.1 Z M 183.9 184.8 "></path></clipPath><g clip-path="url(#clip-384)"><path d="M 238.0 289.0 L 384.0 289.0 L 384.0 237.0 L 238.0 237.0 Z M 238.0 289.0 " fill="#5D9548"></path></g></g><g><clipPath id="clip-385"><path d="M 183.9 184.8 L 909.9 184.8 L 909.9 496.1 L 183.9 496.1 Z M 183.9 184.8 "></path></clipPath><g clip-path="url(#clip-385)"><path d="M 184.0 444.0 L 238.0 444.0 L 238.0 392.0 L 184.0 392.0 Z M 184.0 444.0 " fill="#2E578B"></path></g></g><g><clipPath id="clip-386"><path d="M 183.9 184.8 L 909.9 184.8 L 909.9 496.1 L 183.9 496.1 Z M 183.9 184.8 "></path></clipPath><g clip-path="url(#clip-386)"><path d="M 184.0 289.0 L 238.0 289.0 L 238.0 237.0 L 184.0 237.0 Z M 184.0 289.0 " fill="#2E578B"></path></g></g><path d="M 193.0 556.0 L 216.0 556.0 L 216.0 533.0 L 193.0 533.0 Z M 193.0 556.0 " fill="#2E578B"></path><text xml:space="preserve" font-family="MarkerFelt-Thin" font-size="27.0" fill="#858585" transform="matrix(1.00, 0.00, -0.00, -1.00, 231.0, 536.0)">P</text><text xml:space="preserve" font-family="MarkerFelt-Thin" font-size="27.0" fill="#858585" transform="matrix(1.00, 0.00, -0.00, -1.00, 243.2, 536.0)">r</text><text xml:space="preserve" font-family="MarkerFelt-Thin" font-size="27.0" fill="#858585" transform="matrix(1.00, 0.00, -0.00, -1.00, 254.1, 536.0)">o</text><text xml:space="preserve" font-family="MarkerFelt-Thin" font-size="27.0" fill="#858585" transform="matrix(1.00, 0.00, -0.00, -1.00, 267.1, 536.0)">t</text><text xml:space="preserve" font-family="MarkerFelt-Thin" font-size="27.0" fill="#858585" transform="matrix(1.00, 0.00, -0.00, -1.00, 277.9, 536.0)">o</text><text xml:space="preserve" font-family="MarkerFelt-Thin" font-size="27.0" fill="#858585" transform="matrix(1.00, 0.00, -0.00, -1.00, 290.9, 536.0)">t</text><text xml:space="preserve" font-family="MarkerFelt-Thin" font-size="27.0" fill="#858585" transform="matrix(1.00, 0.00, -0.00, -1.00, 303.1, 536.0)">y</text><text xml:space="preserve" font-family="MarkerFelt-Thin" font-size="27.0" fill="#858585" transform="matrix(1.00, 0.00, -0.00, -1.00, 316.9, 536.0)">p</text><text xml:space="preserve" font-family="MarkerFelt-Thin" font-size="27.0" fill="#858585" transform="matrix(1.00, 0.00, -0.00, -1.00, 329.5, 536.0)">e</text><path d="M 502.0 556.0 L 525.0 556.0 L 525.0 533.0 L 502.0 533.0 Z M 502.0 556.0 " fill="#5D9548"></path><text xml:space="preserve" font-family="MarkerFelt-Thin" font-size="27.0" fill="#858585" transform="matrix(1.00, 0.00, -0.00, -1.00, 540.0, 536.0)">D</text><text xml:space="preserve" font-family="MarkerFelt-Thin" font-size="27.0" fill="#858585" transform="matrix(1.00, 0.00, -0.00, -1.00, 552.6, 536.0)">e</text><text xml:space="preserve" font-family="MarkerFelt-Thin" font-size="27.0" fill="#858585" transform="matrix(1.00, 0.00, -0.00, -1.00, 564.9, 536.0)">s</text><text xml:space="preserve" font-family="MarkerFelt-Thin" font-size="27.0" fill="#858585" transform="matrix(1.00, 0.00, -0.00, -1.00, 576.0, 536.0)">k</text><text xml:space="preserve" font-family="MarkerFelt-Thin" font-size="27.0" fill="#858585" transform="matrix(1.00, 0.00, -0.00, -1.00, 590.5, 536.0)">t</text><text xml:space="preserve" font-family="MarkerFelt-Thin" font-size="27.0" fill="#858585" transform="matrix(1.00, 0.00, -0.00, -1.00, 601.4, 536.0)">o</text><text xml:space="preserve" font-family="MarkerFelt-Thin" font-size="27.0" fill="#858585" transform="matrix(1.00, 0.00, -0.00, -1.00, 613.3, 536.0)">p</text><path d="M 669.0 556.0 L 692.0 556.0 L 692.0 533.0 L 669.0 533.0 Z M 669.0 556.0 " fill="#E7A03C"></path><text xml:space="preserve" font-family="MarkerFelt-Thin" font-size="27.0" fill="#858585" transform="matrix(1.00, 0.00, -0.00, -1.00, 707.0, 536.0)">C</text><text xml:space="preserve" font-family="MarkerFelt-Thin" font-size="27.0" fill="#858585" transform="matrix(1.00, 0.00, -0.00, -1.00, 720.3, 536.0)">l</text><text xml:space="preserve" font-family="MarkerFelt-Thin" font-size="27.0" fill="#858585" transform="matrix(1.00, 0.00, -0.00, -1.00, 726.6, 536.0)">i</text><text xml:space="preserve" font-family="MarkerFelt-Thin" font-size="27.0" fill="#858585" transform="matrix(1.00, 0.00, -0.00, -1.00, 732.6, 536.0)">e</text><text xml:space="preserve" font-family="MarkerFelt-Thin" font-size="27.0" fill="#858585" transform="matrix(1.00, 0.00, -0.00, -1.00, 744.6, 536.0)">n</text><text xml:space="preserve" font-family="MarkerFelt-Thin" font-size="27.0" fill="#858585" transform="matrix(1.00, 0.00, -0.00, -1.00, 759.4, 536.0)">t</text><text xml:space="preserve" font-family="MarkerFelt-Thin" font-size="27.0" fill="#858585" transform="matrix(1.00, 0.00, -0.00, -1.00, 767.5, 536.0)">-</text><text xml:space="preserve" font-family="MarkerFelt-Thin" font-size="27.0" fill="#858585" transform="matrix(1.00, 0.00, -0.00, -1.00, 775.8, 536.0)">S</text><text xml:space="preserve" font-family="MarkerFelt-Thin" font-size="27.0" fill="#858585" transform="matrix(1.00, 0.00, -0.00, -1.00, 789.9, 536.0)">e</text><text xml:space="preserve" font-family="MarkerFelt-Thin" font-size="27.0" fill="#858585" transform="matrix(1.00, 0.00, -0.00, -1.00, 801.8, 536.0)">r</text><text xml:space="preserve" font-family="MarkerFelt-Thin" font-size="27.0" fill="#858585" transform="matrix(1.00, 0.00, -0.00, -1.00, 814.8, 536.0)">v</text><text xml:space="preserve" font-family="MarkerFelt-Thin" font-size="27.0" fill="#858585" transform="matrix(1.00, 0.00, -0.00, -1.00, 827.2, 536.0)">e</text><text xml:space="preserve" font-family="MarkerFelt-Thin" font-size="27.0" fill="#858585" transform="matrix(1.00, 0.00, -0.00, -1.00, 839.1, 536.0)">r</text><path d="M 193.0 527.0 L 216.0 527.0 L 216.0 504.0 L 193.0 504.0 Z M 193.0 527.0 " fill="#BC2C2F"></path><text xml:space="preserve" font-family="MarkerFelt-Thin" font-size="27.0" fill="#858585" transform="matrix(1.00, 0.00, -0.00, -1.00, 231.0, 507.0)">C</text><text xml:space="preserve" font-family="MarkerFelt-Thin" font-size="27.0" fill="#858585" transform="matrix(1.00, 0.00, -0.00, -1.00, 244.3, 507.0)">l</text><text xml:space="preserve" font-family="MarkerFelt-Thin" font-size="27.0" fill="#858585" transform="matrix(1.00, 0.00, -0.00, -1.00, 250.6, 507.0)">i</text><text xml:space="preserve" font-family="MarkerFelt-Thin" font-size="27.0" fill="#858585" transform="matrix(1.00, 0.00, -0.00, -1.00, 256.6, 507.0)">e</text><text xml:space="preserve" font-family="MarkerFelt-Thin" font-size="27.0" fill="#858585" transform="matrix(1.00, 0.00, -0.00, -1.00, 268.6, 507.0)">n</text><text xml:space="preserve" font-family="MarkerFelt-Thin" font-size="27.0" fill="#858585" transform="matrix(1.00, 0.00, -0.00, -1.00, 283.4, 507.0)">t</text><text xml:space="preserve" font-family="MarkerFelt-Thin" font-size="27.0" fill="#858585" transform="matrix(1.00, 0.00, -0.00, -1.00, 291.5, 507.0)">-</text><text xml:space="preserve" font-family="MarkerFelt-Thin" font-size="27.0" fill="#858585" transform="matrix(1.00, 0.00, -0.00, -1.00, 299.8, 507.0)">S</text><text xml:space="preserve" font-family="MarkerFelt-Thin" font-size="27.0" fill="#858585" transform="matrix(1.00, 0.00, -0.00, -1.00, 313.9, 507.0)">e</text><text xml:space="preserve" font-family="MarkerFelt-Thin" font-size="27.0" fill="#858585" transform="matrix(1.00, 0.00, -0.00, -1.00, 325.8, 507.0)">r</text><text xml:space="preserve" font-family="MarkerFelt-Thin" font-size="27.0" fill="#858585" transform="matrix(1.00, 0.00, -0.00, -1.00, 338.8, 507.0)">v</text><text xml:space="preserve" font-family="MarkerFelt-Thin" font-size="27.0" fill="#858585" transform="matrix(1.00, 0.00, -0.00, -1.00, 351.2, 507.0)">e</text><text xml:space="preserve" font-family="MarkerFelt-Thin" font-size="27.0" fill="#858585" transform="matrix(1.00, 0.00, -0.00, -1.00, 363.1, 507.0)">r</text><text xml:space="preserve" font-family="MarkerFelt-Thin" font-size="27.0" fill="#858585" transform="matrix(1.00, 0.00, -0.00, -1.00, 373.3, 507.0)"> </text><text xml:space="preserve" font-family="MarkerFelt-Thin" font-size="27.0" fill="#858585" transform="matrix(1.00, 0.00, -0.00, -1.00, 380.1, 507.0)">(</text><text xml:space="preserve" font-family="MarkerFelt-Thin" font-size="27.0" fill="#858585" transform="matrix(1.00, 0.00, -0.00, -1.00, 387.1, 507.0)">H</text><text xml:space="preserve" font-family="MarkerFelt-Thin" font-size="27.0" fill="#858585" transform="matrix(1.00, 0.00, -0.00, -1.00, 400.6, 507.0)">T</text><text xml:space="preserve" font-family="MarkerFelt-Thin" font-size="27.0" fill="#858585" transform="matrix(1.00, 0.00, -0.00, -1.00, 413.6, 507.0)">M</text><text xml:space="preserve" font-family="MarkerFelt-Thin" font-size="27.0" fill="#858585" transform="matrix(1.00, 0.00, -0.00, -1.00, 438.7, 507.0)">L</text><text xml:space="preserve" font-family="MarkerFelt-Thin" font-size="27.0" fill="#858585" transform="matrix(1.00, 0.00, -0.00, -1.00, 450.8, 507.0)">)</text></g></svg>