<?xml version="1.0" encoding="UTF-8" standalone="no"?><svg xmlns="http://www.w3.org/2000/svg" xmlns:xlink="http://www.w3.org/1999/xlink" clip-rule="evenodd" stroke-miterlimit="4.00" viewBox="0 0 1024 768"><desc>SVG generated by Keynote</desc><defs></defs><g transform="matrix(1.00, 0.00, -0.00, -1.00, 0.0, 768.0)"><g><clipPath id="clip-412"><path d="M 0.0 768.0 L 1024.0 768.0 L 1024.0 0.0 L 0.0 0.0 Z M 0.0 768.0 "></path></clipPath><g clip-path="url(#clip-412)"><image xlink:href="../../39451CEE-E280-41CA-872D-216C9FC86FAF/assets/43DA95A1552523200D88D33196FD3A18.jpeg" width="1024.00" height="768.00" transform="matrix(1.00, 0.00, -0.00, -1.00, 0.0, 768.0)"></image></g></g><text xml:space="preserve" font-family="MarkerFelt-Thin" font-size="80.0" fill="#45A6DE" transform="matrix(1.00, 0.00, -0.00, -1.00, 357.0, 626.0)">T</text><text xml:space="preserve" font-family="MarkerFelt-Thin" font-size="80.0" fill="#45A6DE" transform="matrix(1.00, 0.00, -0.00, -1.00, 395.4, 626.0)">h</text><text xml:space="preserve" font-family="MarkerFelt-Thin" font-size="80.0" fill="#45A6DE" transform="matrix(1.00, 0.00, -0.00, -1.00, 436.5, 626.0)">e</text><text xml:space="preserve" font-family="MarkerFelt-Thin" font-size="80.0" fill="#45A6DE" transform="matrix(1.00, 0.00, -0.00, -1.00, 466.9, 626.0)"> </text><text xml:space="preserve" font-family="MarkerFelt-Thin" font-size="80.0" fill="#45A6DE" transform="matrix(1.00, 0.00, -0.00, -1.00, 486.9, 626.0)">S</text><text xml:space="preserve" font-family="MarkerFelt-Thin" font-size="80.0" fill="#45A6DE" transform="matrix(1.00, 0.00, -0.00, -1.00, 523.8, 626.0)">t</text><text xml:space="preserve" font-family="MarkerFelt-Thin" font-size="80.0" fill="#45A6DE" transform="matrix(1.00, 0.00, -0.00, -1.00, 556.0, 626.0)">o</text><text xml:space="preserve" font-family="MarkerFelt-Thin" font-size="80.0" fill="#45A6DE" transform="matrix(1.00, 0.00, -0.00, -1.00, 591.9, 626.0)">r</text><text xml:space="preserve" font-family="MarkerFelt-Thin" font-size="80.0" fill="#45A6DE" transform="matrix(1.00, 0.00, -0.00, -1.00, 629.0, 626.0)">y</text><g><clipPath id="clip-413"><path d="M 104.0 451.2 L 129.2 451.2 L 129.2 474.7 L 104.0 474.7 Z M 104.0 451.2 "></path></clipPath><g clip-path="url(#clip-413)"><path d="M 128.8 459.7 C 129.1 459.3 129.2 458.9 129.2 458.5 C 129.2 457.8 128.8 457.1 127.9 456.5 C 127.1 455.8 126.1 455.5 125.1 455.5 C 123.7 455.5 122.1 456.5 120.3 458.5 C 120.3 458.5 120.3 455.5 120.3 455.5 C 120.3 455.2 120.4 454.9 120.5 454.4 C 120.7 454.0 120.8 453.7 120.8 453.5 C 120.8 452.9 120.5 452.3 119.8 451.9 C 119.2 451.5 118.6 451.2 117.9 451.2 C 116.8 451.2 115.8 451.7 115.0 452.7 C 114.7 453.0 114.6 453.8 114.7 455.2 C 114.8 456.5 114.9 457.9 115.0 459.3 C 114.3 458.8 112.9 458.0 111.0 457.0 C 110.7 456.6 109.9 456.2 108.6 455.7 C 107.6 455.6 106.6 455.8 105.6 456.3 C 104.5 456.8 104.0 457.4 104.0 458.2 C 104.0 458.4 104.0 458.6 104.1 458.8 C 104.3 459.2 104.8 459.5 105.4 459.7 C 106.4 460.1 107.0 460.3 107.1 460.3 C 107.1 460.3 112.7 463.3 112.7 463.3 C 112.7 463.3 108.7 465.3 108.7 465.3 C 108.1 465.3 107.4 465.5 106.4 466.1 C 106.2 466.4 106.1 466.7 106.1 467.0 C 106.1 468.0 106.7 468.9 107.8 469.8 C 108.9 470.7 110.0 471.1 111.2 471.1 C 111.5 471.1 111.9 471.0 112.3 470.9 C 112.6 470.8 113.0 470.5 113.3 469.9 C 113.6 469.2 114.2 468.6 115.0 468.1 C 115.0 468.1 115.1 471.7 115.1 471.7 C 115.0 472.2 115.0 472.9 115.1 473.8 C 115.5 474.4 116.6 474.7 118.1 474.7 C 119.6 474.7 120.5 474.3 121.0 473.5 C 121.2 473.1 121.2 472.3 121.1 471.0 C 121.0 469.9 120.9 468.8 120.7 467.6 C 120.7 467.6 122.8 468.7 122.8 468.7 C 123.2 469.1 124.0 469.6 125.1 470.1 C 125.9 470.1 126.7 469.8 127.4 469.1 C 128.2 468.5 128.6 467.8 128.6 467.0 C 128.6 466.6 128.5 466.3 128.3 466.0 C 128.1 465.7 127.7 465.5 127.2 465.4 C 126.6 465.3 126.2 465.1 126.0 465.0 C 126.0 465.0 123.0 462.8 123.0 462.8 C 123.0 462.8 126.9 460.7 126.9 460.7 C 127.4 460.5 128.0 460.2 128.8 459.7 Z M 128.8 459.7 " fill="#3995D6"></path></g></g><text xml:space="preserve" font-family="MarkerFelt-Thin" font-size="46.0" fill="#858585" transform="matrix(1.00, 0.00, -0.00, -1.00, 154.0, 448.0)">A</text><text xml:space="preserve" font-family="MarkerFelt-Thin" font-size="46.0" fill="#858585" transform="matrix(1.00, 0.00, -0.00, -1.00, 182.5, 448.0)"> </text><text xml:space="preserve" font-family="MarkerFelt-Thin" font-size="46.0" fill="#858585" transform="matrix(1.00, 0.00, -0.00, -1.00, 194.0, 448.0)">b</text><text xml:space="preserve" font-family="MarkerFelt-Thin" font-size="46.0" fill="#858585" transform="matrix(1.00, 0.00, -0.00, -1.00, 215.8, 448.0)">u</text><text xml:space="preserve" font-family="MarkerFelt-Thin" font-size="46.0" fill="#858585" transform="matrix(1.00, 0.00, -0.00, -1.00, 236.0, 448.0)">g</text><text xml:space="preserve" font-family="MarkerFelt-Thin" font-size="46.0" fill="#858585" transform="matrix(1.00, 0.00, -0.00, -1.00, 255.3, 448.0)"> </text><text xml:space="preserve" font-family="MarkerFelt-Thin" font-size="46.0" fill="#858585" transform="matrix(1.00, 0.00, -0.00, -1.00, 266.8, 448.0)">c</text><text xml:space="preserve" font-family="MarkerFelt-Thin" font-size="46.0" fill="#858585" transform="matrix(1.00, 0.00, -0.00, -1.00, 286.4, 448.0)">o</text><text xml:space="preserve" font-family="MarkerFelt-Thin" font-size="46.0" fill="#858585" transform="matrix(1.00, 0.00, -0.00, -1.00, 306.4, 448.0)">m</text><text xml:space="preserve" font-family="MarkerFelt-Thin" font-size="46.0" fill="#858585" transform="matrix(1.00, 0.00, -0.00, -1.00, 339.5, 448.0)">e</text><text xml:space="preserve" font-family="MarkerFelt-Thin" font-size="46.0" fill="#858585" transform="matrix(1.00, 0.00, -0.00, -1.00, 360.5, 448.0)">s</text><text xml:space="preserve" font-family="MarkerFelt-Thin" font-size="46.0" fill="#858585" transform="matrix(1.00, 0.00, -0.00, -1.00, 377.5, 448.0)"> </text><text xml:space="preserve" font-family="MarkerFelt-Thin" font-size="46.0" fill="#858585" transform="matrix(1.00, 0.00, -0.00, -1.00, 389.0, 448.0)">u</text><text xml:space="preserve" font-family="MarkerFelt-Thin" font-size="46.0" fill="#858585" transform="matrix(1.00, 0.00, -0.00, -1.00, 409.6, 448.0)">p</text><text xml:space="preserve" font-family="MarkerFelt-Thin" font-size="46.0" fill="#858585" transform="matrix(1.00, 0.00, -0.00, -1.00, 429.4, 448.0)"> </text><g><clipPath id="clip-414"><path d="M 104.0 359.2 L 129.2 359.2 L 129.2 382.7 L 104.0 382.7 Z M 104.0 359.2 "></path></clipPath><g clip-path="url(#clip-414)"><path d="M 128.8 367.7 C 129.1 367.3 129.2 366.9 129.2 366.5 C 129.2 365.8 128.8 365.1 127.9 364.5 C 127.1 363.8 126.1 363.5 125.1 363.5 C 123.7 363.5 122.1 364.5 120.3 366.5 C 120.3 366.5 120.3 363.5 120.3 363.5 C 120.3 363.2 120.4 362.9 120.5 362.4 C 120.7 362.0 120.8 361.7 120.8 361.5 C 120.8 360.9 120.5 360.3 119.8 359.9 C 119.2 359.5 118.6 359.2 117.9 359.2 C 116.8 359.2 115.8 359.7 115.0 360.7 C 114.7 361.0 114.6 361.8 114.7 363.2 C 114.8 364.5 114.9 365.9 115.0 367.3 C 114.3 366.8 112.9 366.0 111.0 365.0 C 110.7 364.6 109.9 364.2 108.6 363.7 C 107.6 363.6 106.6 363.8 105.6 364.3 C 104.5 364.8 104.0 365.4 104.0 366.2 C 104.0 366.4 104.0 366.6 104.1 366.8 C 104.3 367.2 104.8 367.5 105.4 367.7 C 106.4 368.1 107.0 368.3 107.1 368.3 C 107.1 368.3 112.7 371.3 112.7 371.3 C 112.7 371.3 108.7 373.3 108.7 373.3 C 108.1 373.3 107.4 373.5 106.4 374.1 C 106.2 374.4 106.1 374.7 106.1 375.0 C 106.1 376.0 106.7 376.9 107.8 377.8 C 108.9 378.7 110.0 379.1 111.2 379.1 C 111.5 379.1 111.9 379.0 112.3 378.9 C 112.6 378.8 113.0 378.5 113.3 377.9 C 113.6 377.2 114.2 376.6 115.0 376.1 C 115.0 376.1 115.1 379.7 115.1 379.7 C 115.0 380.2 115.0 380.9 115.1 381.8 C 115.5 382.4 116.6 382.7 118.1 382.7 C 119.6 382.7 120.5 382.3 121.0 381.5 C 121.2 381.1 121.2 380.3 121.1 379.0 C 121.0 377.9 120.9 376.8 120.7 375.6 C 120.7 375.6 122.8 376.7 122.8 376.7 C 123.2 377.1 124.0 377.6 125.1 378.1 C 125.9 378.1 126.7 377.8 127.4 377.1 C 128.2 376.5 128.6 375.8 128.6 375.0 C 128.6 374.6 128.5 374.3 128.3 374.0 C 128.1 373.7 127.7 373.5 127.2 373.4 C 126.6 373.3 126.2 373.1 126.0 373.0 C 126.0 373.0 123.0 370.8 123.0 370.8 C 123.0 370.8 126.9 368.7 126.9 368.7 C 127.4 368.5 128.0 368.2 128.8 367.7 Z M 128.8 367.7 " fill="#3995D6"></path></g></g><text xml:space="preserve" font-family="MarkerFelt-Thin" font-size="46.0" fill="#858585" transform="matrix(1.00, 0.00, -0.00, -1.00, 154.0, 356.0)">T</text><text xml:space="preserve" font-family="MarkerFelt-Thin" font-size="46.0" fill="#858585" transform="matrix(1.00, 0.00, -0.00, -1.00, 176.1, 356.0)">h</text><text xml:space="preserve" font-family="MarkerFelt-Thin" font-size="46.0" fill="#858585" transform="matrix(1.00, 0.00, -0.00, -1.00, 199.7, 356.0)">e</text><text xml:space="preserve" font-family="MarkerFelt-Thin" font-size="46.0" fill="#858585" transform="matrix(1.00, 0.00, -0.00, -1.00, 217.2, 356.0)"> </text><text xml:space="preserve" font-family="MarkerFelt-Thin" font-size="46.0" fill="#858585" transform="matrix(1.00, 0.00, -0.00, -1.00, 228.7, 356.0)">o</text><text xml:space="preserve" font-family="MarkerFelt-Thin" font-size="46.0" fill="#858585" transform="matrix(1.00, 0.00, -0.00, -1.00, 249.4, 356.0)">r</text><text xml:space="preserve" font-family="MarkerFelt-Thin" font-size="46.0" fill="#858585" transform="matrix(1.00, 0.00, -0.00, -1.00, 269.6, 356.0)">i</text><text xml:space="preserve" font-family="MarkerFelt-Thin" font-size="46.0" fill="#858585" transform="matrix(1.00, 0.00, -0.00, -1.00, 280.0, 356.0)">g</text><text xml:space="preserve" font-family="MarkerFelt-Thin" font-size="46.0" fill="#858585" transform="matrix(1.00, 0.00, -0.00, -1.00, 300.9, 356.0)">i</text><text xml:space="preserve" font-family="MarkerFelt-Thin" font-size="46.0" fill="#858585" transform="matrix(1.00, 0.00, -0.00, -1.00, 312.3, 356.0)">n</text><text xml:space="preserve" font-family="MarkerFelt-Thin" font-size="46.0" fill="#858585" transform="matrix(1.00, 0.00, -0.00, -1.00, 337.5, 356.0)">a</text><text xml:space="preserve" font-family="MarkerFelt-Thin" font-size="46.0" fill="#858585" transform="matrix(1.00, 0.00, -0.00, -1.00, 360.9, 356.0)">l</text><text xml:space="preserve" font-family="MarkerFelt-Thin" font-size="46.0" fill="#858585" transform="matrix(1.00, 0.00, -0.00, -1.00, 370.1, 356.0)"> </text><text xml:space="preserve" font-family="MarkerFelt-Thin" font-size="46.0" fill="#858585" transform="matrix(1.00, 0.00, -0.00, -1.00, 381.6, 356.0)">t</text><text xml:space="preserve" font-family="MarkerFelt-Thin" font-size="46.0" fill="#858585" transform="matrix(1.00, 0.00, -0.00, -1.00, 399.1, 356.0)">e</text><text xml:space="preserve" font-family="MarkerFelt-Thin" font-size="46.0" fill="#858585" transform="matrix(1.00, 0.00, -0.00, -1.00, 420.4, 356.0)">a</text><text xml:space="preserve" font-family="MarkerFelt-Thin" font-size="46.0" fill="#858585" transform="matrix(1.00, 0.00, -0.00, -1.00, 441.6, 356.0)">m</text><text xml:space="preserve" font-family="MarkerFelt-Thin" font-size="46.0" fill="#858585" transform="matrix(1.00, 0.00, -0.00, -1.00, 474.7, 356.0)"> </text><text xml:space="preserve" font-family="MarkerFelt-Thin" font-size="46.0" fill="#858585" transform="matrix(1.00, 0.00, -0.00, -1.00, 486.2, 356.0)">h</text><text xml:space="preserve" font-family="MarkerFelt-Thin" font-size="46.0" fill="#858585" transform="matrix(1.00, 0.00, -0.00, -1.00, 510.5, 356.0)">a</text><text xml:space="preserve" font-family="MarkerFelt-Thin" font-size="46.0" fill="#858585" transform="matrix(1.00, 0.00, -0.00, -1.00, 533.3, 356.0)">s</text><text xml:space="preserve" font-family="MarkerFelt-Thin" font-size="46.0" fill="#858585" transform="matrix(1.00, 0.00, -0.00, -1.00, 550.3, 356.0)"> </text><text xml:space="preserve" font-family="MarkerFelt-Thin" font-size="46.0" fill="#858585" transform="matrix(1.00, 0.00, -0.00, -1.00, 561.8, 356.0)">m</text><text xml:space="preserve" font-family="MarkerFelt-Thin" font-size="46.0" fill="#858585" transform="matrix(1.00, 0.00, -0.00, -1.00, 596.0, 356.0)">o</text><text xml:space="preserve" font-family="MarkerFelt-Thin" font-size="46.0" fill="#858585" transform="matrix(1.00, 0.00, -0.00, -1.00, 617.1, 356.0)">v</text><text xml:space="preserve" font-family="MarkerFelt-Thin" font-size="46.0" fill="#858585" transform="matrix(1.00, 0.00, -0.00, -1.00, 638.3, 356.0)">e</text><text xml:space="preserve" font-family="MarkerFelt-Thin" font-size="46.0" fill="#858585" transform="matrix(1.00, 0.00, -0.00, -1.00, 658.7, 356.0)">d</text><text xml:space="preserve" font-family="MarkerFelt-Thin" font-size="46.0" fill="#858585" transform="matrix(1.00, 0.00, -0.00, -1.00, 678.5, 356.0)"> </text><text xml:space="preserve" font-family="MarkerFelt-Thin" font-size="46.0" fill="#858585" transform="matrix(1.00, 0.00, -0.00, -1.00, 690.0, 356.0)">o</text><text xml:space="preserve" font-family="MarkerFelt-Thin" font-size="46.0" fill="#858585" transform="matrix(1.00, 0.00, -0.00, -1.00, 710.8, 356.0)">n</text><text xml:space="preserve" font-family="MarkerFelt-Thin" font-size="46.0" fill="#858585" transform="matrix(1.00, 0.00, -0.00, -1.00, 733.4, 356.0)"> </text><g><clipPath id="clip-415"><path d="M 154.0 267.2 L 179.2 267.2 L 179.2 290.7 L 154.0 290.7 Z M 154.0 267.2 "></path></clipPath><g clip-path="url(#clip-415)"><path d="M 178.8 275.7 C 179.1 275.3 179.2 274.9 179.2 274.5 C 179.2 273.8 178.8 273.1 177.9 272.5 C 177.1 271.8 176.1 271.5 175.1 271.5 C 173.7 271.5 172.1 272.5 170.3 274.5 C 170.3 274.5 170.3 271.5 170.3 271.5 C 170.3 271.2 170.4 270.9 170.5 270.4 C 170.7 270.0 170.8 269.7 170.8 269.5 C 170.8 268.9 170.5 268.3 169.8 267.9 C 169.2 267.5 168.6 267.2 167.9 267.2 C 166.8 267.2 165.8 267.7 165.0 268.7 C 164.7 269.0 164.6 269.8 164.7 271.2 C 164.8 272.5 164.9 273.9 165.0 275.3 C 164.3 274.8 162.9 274.0 161.0 273.0 C 160.7 272.6 159.9 272.2 158.6 271.7 C 157.6 271.6 156.6 271.8 155.6 272.3 C 154.5 272.8 154.0 273.4 154.0 274.2 C 154.0 274.4 154.0 274.6 154.1 274.8 C 154.3 275.2 154.8 275.5 155.4 275.7 C 156.4 276.1 157.0 276.3 157.1 276.3 C 157.1 276.3 162.7 279.3 162.7 279.3 C 162.7 279.3 158.7 281.3 158.7 281.3 C 158.1 281.3 157.4 281.5 156.4 282.1 C 156.2 282.4 156.1 282.7 156.1 283.0 C 156.1 284.0 156.7 284.9 157.8 285.8 C 158.9 286.7 160.0 287.1 161.2 287.1 C 161.5 287.1 161.9 287.0 162.3 286.9 C 162.6 286.8 163.0 286.5 163.3 285.9 C 163.6 285.2 164.2 284.6 165.0 284.1 C 165.0 284.1 165.1 287.7 165.1 287.7 C 165.0 288.2 165.0 288.9 165.1 289.8 C 165.5 290.4 166.6 290.7 168.1 290.7 C 169.6 290.7 170.5 290.3 171.0 289.5 C 171.2 289.1 171.2 288.3 171.1 287.0 C 171.0 285.9 170.9 284.8 170.7 283.6 C 170.7 283.6 172.8 284.7 172.8 284.7 C 173.2 285.1 174.0 285.6 175.1 286.1 C 175.9 286.1 176.7 285.8 177.4 285.1 C 178.2 284.5 178.6 283.8 178.6 283.0 C 178.6 282.6 178.5 282.3 178.3 282.0 C 178.1 281.7 177.7 281.5 177.2 281.4 C 176.6 281.3 176.2 281.1 176.0 281.0 C 176.0 281.0 173.0 278.8 173.0 278.8 C 173.0 278.8 176.9 276.7 176.9 276.7 C 177.4 276.5 178.0 276.2 178.8 275.7 Z M 178.8 275.7 " fill="#3995D6"></path></g></g><text xml:space="preserve" font-family="MarkerFelt-Thin" font-size="46.0" fill="#858585" transform="matrix(1.00, 0.00, -0.00, -1.00, 204.0, 264.0)">P</text><text xml:space="preserve" font-family="MarkerFelt-Thin" font-size="46.0" fill="#858585" transform="matrix(1.00, 0.00, -0.00, -1.00, 226.5, 264.0)">h</text><text xml:space="preserve" font-family="MarkerFelt-Thin" font-size="46.0" fill="#858585" transform="matrix(1.00, 0.00, -0.00, -1.00, 249.7, 264.0)">y</text><text xml:space="preserve" font-family="MarkerFelt-Thin" font-size="46.0" fill="#858585" transform="matrix(1.00, 0.00, -0.00, -1.00, 271.3, 264.0)">s</text><text xml:space="preserve" font-family="MarkerFelt-Thin" font-size="46.0" fill="#858585" transform="matrix(1.00, 0.00, -0.00, -1.00, 290.2, 264.0)">i</text><text xml:space="preserve" font-family="MarkerFelt-Thin" font-size="46.0" fill="#858585" transform="matrix(1.00, 0.00, -0.00, -1.00, 300.6, 264.0)">c</text><text xml:space="preserve" font-family="MarkerFelt-Thin" font-size="46.0" fill="#858585" transform="matrix(1.00, 0.00, -0.00, -1.00, 320.8, 264.0)">a</text><text xml:space="preserve" font-family="MarkerFelt-Thin" font-size="46.0" fill="#858585" transform="matrix(1.00, 0.00, -0.00, -1.00, 344.2, 264.0)">l</text><text xml:space="preserve" font-family="MarkerFelt-Thin" font-size="46.0" fill="#858585" transform="matrix(1.00, 0.00, -0.00, -1.00, 355.7, 264.0)">l</text><text xml:space="preserve" font-family="MarkerFelt-Thin" font-size="46.0" fill="#858585" transform="matrix(1.00, 0.00, -0.00, -1.00, 367.3, 264.0)">y</text><text xml:space="preserve" font-family="MarkerFelt-Thin" font-size="46.0" fill="#858585" transform="matrix(1.00, 0.00, -0.00, -1.00, 388.9, 264.0)"> </text><g><clipPath id="clip-416"><path d="M 154.0 175.2 L 179.2 175.2 L 179.2 198.7 L 154.0 198.7 Z M 154.0 175.2 "></path></clipPath><g clip-path="url(#clip-416)"><path d="M 178.8 183.7 C 179.1 183.3 179.2 182.9 179.2 182.5 C 179.2 181.8 178.8 181.1 177.9 180.5 C 177.1 179.8 176.1 179.5 175.1 179.5 C 173.7 179.5 172.1 180.5 170.3 182.5 C 170.3 182.5 170.3 179.5 170.3 179.5 C 170.3 179.2 170.4 178.9 170.5 178.4 C 170.7 178.0 170.8 177.7 170.8 177.5 C 170.8 176.9 170.5 176.3 169.8 175.9 C 169.2 175.5 168.6 175.2 167.9 175.2 C 166.8 175.2 165.8 175.7 165.0 176.7 C 164.7 177.0 164.6 177.8 164.7 179.2 C 164.8 180.5 164.9 181.9 165.0 183.3 C 164.3 182.8 162.9 182.0 161.0 181.0 C 160.7 180.6 159.9 180.2 158.6 179.7 C 157.6 179.6 156.6 179.8 155.6 180.3 C 154.5 180.8 154.0 181.4 154.0 182.2 C 154.0 182.4 154.0 182.6 154.1 182.8 C 154.3 183.2 154.8 183.5 155.4 183.7 C 156.4 184.1 157.0 184.3 157.1 184.3 C 157.1 184.3 162.7 187.3 162.7 187.3 C 162.7 187.3 158.7 189.3 158.7 189.3 C 158.1 189.3 157.4 189.5 156.4 190.1 C 156.2 190.4 156.1 190.7 156.1 191.0 C 156.1 192.0 156.7 192.9 157.8 193.8 C 158.9 194.7 160.0 195.1 161.2 195.1 C 161.5 195.1 161.9 195.0 162.3 194.9 C 162.6 194.8 163.0 194.5 163.3 193.9 C 163.6 193.2 164.2 192.6 165.0 192.1 C 165.0 192.1 165.1 195.7 165.1 195.7 C 165.0 196.2 165.0 196.9 165.1 197.8 C 165.5 198.4 166.6 198.7 168.1 198.7 C 169.6 198.7 170.5 198.3 171.0 197.5 C 171.2 197.1 171.2 196.3 171.1 195.0 C 171.0 193.9 170.9 192.8 170.7 191.6 C 170.7 191.6 172.8 192.7 172.8 192.7 C 173.2 193.1 174.0 193.6 175.1 194.1 C 175.9 194.1 176.7 193.8 177.4 193.1 C 178.2 192.5 178.6 191.8 178.6 191.0 C 178.6 190.6 178.5 190.3 178.3 190.0 C 178.1 189.7 177.7 189.5 177.2 189.4 C 176.6 189.3 176.2 189.1 176.0 189.0 C 176.0 189.0 173.0 186.8 173.0 186.8 C 173.0 186.8 176.9 184.7 176.9 184.7 C 177.4 184.5 178.0 184.2 178.8 183.7 Z M 178.8 183.7 " fill="#3995D6"></path></g></g><text xml:space="preserve" font-family="MarkerFelt-Thin" font-size="46.0" fill="#858585" transform="matrix(1.00, 0.00, -0.00, -1.00, 204.0, 172.0)">I</text><text xml:space="preserve" font-family="MarkerFelt-Thin" font-size="46.0" fill="#858585" transform="matrix(1.00, 0.00, -0.00, -1.00, 216.6, 172.0)">n</text><text xml:space="preserve" font-family="MarkerFelt-Thin" font-size="46.0" fill="#858585" transform="matrix(1.00, 0.00, -0.00, -1.00, 241.8, 172.0)">t</text><text xml:space="preserve" font-family="MarkerFelt-Thin" font-size="46.0" fill="#858585" transform="matrix(1.00, 0.00, -0.00, -1.00, 259.3, 172.0)">e</text><text xml:space="preserve" font-family="MarkerFelt-Thin" font-size="46.0" fill="#858585" transform="matrix(1.00, 0.00, -0.00, -1.00, 279.7, 172.0)">l</text><text xml:space="preserve" font-family="MarkerFelt-Thin" font-size="46.0" fill="#858585" transform="matrix(1.00, 0.00, -0.00, -1.00, 291.2, 172.0)">l</text><text xml:space="preserve" font-family="MarkerFelt-Thin" font-size="46.0" fill="#858585" transform="matrix(1.00, 0.00, -0.00, -1.00, 301.6, 172.0)">e</text><text xml:space="preserve" font-family="MarkerFelt-Thin" font-size="46.0" fill="#858585" transform="matrix(1.00, 0.00, -0.00, -1.00, 321.9, 172.0)">c</text><text xml:space="preserve" font-family="MarkerFelt-Thin" font-size="46.0" fill="#858585" transform="matrix(1.00, 0.00, -0.00, -1.00, 342.0, 172.0)">t</text><text xml:space="preserve" font-family="MarkerFelt-Thin" font-size="46.0" fill="#858585" transform="matrix(1.00, 0.00, -0.00, -1.00, 361.7, 172.0)">u</text><text xml:space="preserve" font-family="MarkerFelt-Thin" font-size="46.0" fill="#858585" transform="matrix(1.00, 0.00, -0.00, -1.00, 382.2, 172.0)">a</text><text xml:space="preserve" font-family="MarkerFelt-Thin" font-size="46.0" fill="#858585" transform="matrix(1.00, 0.00, -0.00, -1.00, 405.5, 172.0)">l</text><text xml:space="preserve" font-family="MarkerFelt-Thin" font-size="46.0" fill="#858585" transform="matrix(1.00, 0.00, -0.00, -1.00, 417.0, 172.0)">l</text><text xml:space="preserve" font-family="MarkerFelt-Thin" font-size="46.0" fill="#858585" transform="matrix(1.00, 0.00, -0.00, -1.00, 428.7, 172.0)">y</text></g></svg>