<?xml version="1.0" encoding="UTF-8" standalone="no"?><svg xmlns="http://www.w3.org/2000/svg" xmlns:xlink="http://www.w3.org/1999/xlink" clip-rule="evenodd" stroke-miterlimit="4.00" viewBox="0 0 1024 768"><desc>SVG generated by Keynote</desc><defs></defs><g transform="matrix(1.00, 0.00, -0.00, -1.00, 0.0, 768.0)"><path d="M 0.0 768.0 L 1024.0 768.0 L 1024.0 0.0 L 0.0 0.0 Z M 0.0 768.0 " fill="#FEFFFF"></path><text xml:space="preserve" font-family="Helvetica-Light" font-size="80.0" fill="#000000" transform="matrix(1.00, 0.00, -0.00, -1.00, 312.0, 551.0)">Q</text><text xml:space="preserve" font-family="Helvetica-Light" font-size="80.0" fill="#000000" transform="matrix(1.00, 0.00, -0.00, -1.00, 374.2, 551.0)">u</text><text xml:space="preserve" font-family="Helvetica-Light" font-size="80.0" fill="#000000" transform="matrix(1.00, 0.00, -0.00, -1.00, 418.7, 551.0)">e</text><text xml:space="preserve" font-family="Helvetica-Light" font-size="80.0" fill="#000000" transform="matrix(1.00, 0.00, -0.00, -1.00, 463.2, 551.0)">s</text><text xml:space="preserve" font-family="Helvetica-Light" font-size="80.0" fill="#000000" transform="matrix(1.00, 0.00, -0.00, -1.00, 503.2, 551.0)">t</text><text xml:space="preserve" font-family="Helvetica-Light" font-size="80.0" fill="#000000" transform="matrix(1.00, 0.00, -0.00, -1.00, 525.4, 551.0)">i</text><text xml:space="preserve" font-family="Helvetica-Light" font-size="80.0" fill="#000000" transform="matrix(1.00, 0.00, -0.00, -1.00, 543.2, 551.0)">o</text><text xml:space="preserve" font-family="Helvetica-Light" font-size="80.0" fill="#000000" transform="matrix(1.00, 0.00, -0.00, -1.00, 587.7, 551.0)">n</text><text xml:space="preserve" font-family="Helvetica-Light" font-size="80.0" fill="#000000" transform="matrix(1.00, 0.00, -0.00, -1.00, 632.2, 551.0)">s</text><text xml:space="preserve" font-family="Helvetica-Light" font-size="80.0" fill="#000000" transform="matrix(1.00, 0.00, -0.00, -1.00, 672.2, 551.0)">?</text><text xml:space="preserve" font-family="Helvetica-Light" font-size="21.0" fill="#000000" transform="matrix(1.00, 0.00, -0.00, -1.00, 79.0, 400.8)">•</text><text xml:space="preserve" font-family="Helvetica-Light" font-size="28.0" fill="#000000" transform="matrix(1.00, 0.00, -0.00, -1.00, 114.0, 398.0)">S</text><text xml:space="preserve" font-family="Helvetica-Light" font-size="28.0" fill="#000000" transform="matrix(1.00, 0.00, -0.00, -1.00, 131.1, 398.0)">l</text><text xml:space="preserve" font-family="Helvetica-Light" font-size="28.0" fill="#000000" transform="matrix(1.00, 0.00, -0.00, -1.00, 137.3, 398.0)">i</text><text xml:space="preserve" font-family="Helvetica-Light" font-size="28.0" fill="#000000" transform="matrix(1.00, 0.00, -0.00, -1.00, 143.5, 398.0)">d</text><text xml:space="preserve" font-family="Helvetica-Light" font-size="28.0" fill="#000000" transform="matrix(1.00, 0.00, -0.00, -1.00, 160.6, 398.0)">e</text><text xml:space="preserve" font-family="Helvetica-Light" font-size="28.0" fill="#000000" transform="matrix(1.00, 0.00, -0.00, -1.00, 176.2, 398.0)">s</text><text xml:space="preserve" font-family="Helvetica-Light" font-size="28.0" fill="#000000" transform="matrix(1.00, 0.00, -0.00, -1.00, 190.2, 398.0)">:</text><text xml:space="preserve" font-family="Helvetica-Light" font-size="28.0" fill="#000000" transform="matrix(1.00, 0.00, -0.00, -1.00, 198.0, 398.0)"> </text><text xml:space="preserve" font-family="Helvetica-Light" font-size="28.0" fill="#000000" transform="matrix(1.00, 0.00, -0.00, -1.00, 205.8, 398.0)">h</text><text xml:space="preserve" font-family="Helvetica-Light" font-size="28.0" fill="#000000" transform="matrix(1.00, 0.00, -0.00, -1.00, 221.4, 398.0)">t</text><text xml:space="preserve" font-family="Helvetica-Light" font-size="28.0" fill="#000000" transform="matrix(1.00, 0.00, -0.00, -1.00, 229.1, 398.0)">t</text><text xml:space="preserve" font-family="Helvetica-Light" font-size="28.0" fill="#000000" transform="matrix(1.00, 0.00, -0.00, -1.00, 236.9, 398.0)">p</text><text xml:space="preserve" font-family="Helvetica-Light" font-size="28.0" fill="#000000" transform="matrix(1.00, 0.00, -0.00, -1.00, 254.0, 398.0)">:</text><text xml:space="preserve" font-family="Helvetica-Light" font-size="28.0" fill="#000000" transform="matrix(1.00, 0.00, -0.00, -1.00, 261.8, 398.0)">/</text><text xml:space="preserve" font-family="Helvetica-Light" font-size="28.0" fill="#000000" transform="matrix(1.00, 0.00, -0.00, -1.00, 269.6, 398.0)">/</text><text xml:space="preserve" font-family="Helvetica-Light" font-size="28.0" fill="#000000" transform="matrix(1.00, 0.00, -0.00, -1.00, 277.4, 398.0)">m</text><text xml:space="preserve" font-family="Helvetica-Light" font-size="28.0" fill="#000000" transform="matrix(1.00, 0.00, -0.00, -1.00, 300.7, 398.0)">a</text><text xml:space="preserve" font-family="Helvetica-Light" font-size="28.0" fill="#000000" transform="matrix(1.00, 0.00, -0.00, -1.00, 316.3, 398.0)">r</text><text xml:space="preserve" font-family="Helvetica-Light" font-size="28.0" fill="#000000" transform="matrix(1.00, 0.00, -0.00, -1.00, 325.6, 398.0)">k</text><text xml:space="preserve" font-family="Helvetica-Light" font-size="28.0" fill="#000000" transform="matrix(1.00, 0.00, -0.00, -1.00, 339.6, 398.0)">b</text><text xml:space="preserve" font-family="Helvetica-Light" font-size="28.0" fill="#000000" transform="matrix(1.00, 0.00, -0.00, -1.00, 356.7, 398.0)">a</text><text xml:space="preserve" font-family="Helvetica-Light" font-size="28.0" fill="#000000" transform="matrix(1.00, 0.00, -0.00, -1.00, 372.3, 398.0)">s</text><text xml:space="preserve" font-family="Helvetica-Light" font-size="28.0" fill="#000000" transform="matrix(1.00, 0.00, -0.00, -1.00, 386.3, 398.0)">t</text><text xml:space="preserve" font-family="Helvetica-Light" font-size="28.0" fill="#000000" transform="matrix(1.00, 0.00, -0.00, -1.00, 394.1, 398.0)">i</text><text xml:space="preserve" font-family="Helvetica-Light" font-size="28.0" fill="#000000" transform="matrix(1.00, 0.00, -0.00, -1.00, 400.3, 398.0)">a</text><text xml:space="preserve" font-family="Helvetica-Light" font-size="28.0" fill="#000000" transform="matrix(1.00, 0.00, -0.00, -1.00, 415.8, 398.0)">n</text><text xml:space="preserve" font-family="Helvetica-Light" font-size="28.0" fill="#000000" transform="matrix(1.00, 0.00, -0.00, -1.00, 431.4, 398.0)">.</text><text xml:space="preserve" font-family="Helvetica-Light" font-size="28.0" fill="#000000" transform="matrix(1.00, 0.00, -0.00, -1.00, 439.2, 398.0)">g</text><text xml:space="preserve" font-family="Helvetica-Light" font-size="28.0" fill="#000000" transform="matrix(1.00, 0.00, -0.00, -1.00, 456.3, 398.0)">i</text><text xml:space="preserve" font-family="Helvetica-Light" font-size="28.0" fill="#000000" transform="matrix(1.00, 0.00, -0.00, -1.00, 462.5, 398.0)">t</text><text xml:space="preserve" font-family="Helvetica-Light" font-size="28.0" fill="#000000" transform="matrix(1.00, 0.00, -0.00, -1.00, 470.3, 398.0)">h</text><text xml:space="preserve" font-family="Helvetica-Light" font-size="28.0" fill="#000000" transform="matrix(1.00, 0.00, -0.00, -1.00, 485.9, 398.0)">u</text><text xml:space="preserve" font-family="Helvetica-Light" font-size="28.0" fill="#000000" transform="matrix(1.00, 0.00, -0.00, -1.00, 501.4, 398.0)">b</text><text xml:space="preserve" font-family="Helvetica-Light" font-size="28.0" fill="#000000" transform="matrix(1.00, 0.00, -0.00, -1.00, 518.5, 398.0)">.</text><text xml:space="preserve" font-family="Helvetica-Light" font-size="28.0" fill="#000000" transform="matrix(1.00, 0.00, -0.00, -1.00, 526.3, 398.0)">i</text><text xml:space="preserve" font-family="Helvetica-Light" font-size="28.0" fill="#000000" transform="matrix(1.00, 0.00, -0.00, -1.00, 532.5, 398.0)">o</text><text xml:space="preserve" font-family="Helvetica-Light" font-size="28.0" fill="#000000" transform="matrix(1.00, 0.00, -0.00, -1.00, 548.1, 398.0)">/</text><text xml:space="preserve" font-family="Helvetica-Light" font-size="28.0" fill="#000000" transform="matrix(1.00, 0.00, -0.00, -1.00, 555.9, 398.0)">C</text><text xml:space="preserve" font-family="Helvetica-Light" font-size="28.0" fill="#000000" transform="matrix(1.00, 0.00, -0.00, -1.00, 576.1, 398.0)">o</text><text xml:space="preserve" font-family="Helvetica-Light" font-size="28.0" fill="#000000" transform="matrix(1.00, 0.00, -0.00, -1.00, 591.7, 398.0)">n</text><text xml:space="preserve" font-family="Helvetica-Light" font-size="28.0" fill="#000000" transform="matrix(1.00, 0.00, -0.00, -1.00, 607.2, 398.0)">j</text><text xml:space="preserve" font-family="Helvetica-Light" font-size="28.0" fill="#000000" transform="matrix(1.00, 0.00, -0.00, -1.00, 613.5, 398.0)">2</text><text xml:space="preserve" font-family="Helvetica-Light" font-size="28.0" fill="#000000" transform="matrix(1.00, 0.00, -0.00, -1.00, 629.0, 398.0)">0</text><text xml:space="preserve" font-family="Helvetica-Light" font-size="28.0" fill="#000000" transform="matrix(1.00, 0.00, -0.00, -1.00, 644.6, 398.0)">1</text><text xml:space="preserve" font-family="Helvetica-Light" font-size="28.0" fill="#000000" transform="matrix(1.00, 0.00, -0.00, -1.00, 660.2, 398.0)">5</text><text xml:space="preserve" font-family="Helvetica-Light" font-size="28.0" fill="#000000" transform="matrix(1.00, 0.00, -0.00, -1.00, 675.7, 398.0)">B</text><text xml:space="preserve" font-family="Helvetica-Light" font-size="28.0" fill="#000000" transform="matrix(1.00, 0.00, -0.00, -1.00, 694.4, 398.0)">o</text><text xml:space="preserve" font-family="Helvetica-Light" font-size="28.0" fill="#000000" transform="matrix(1.00, 0.00, -0.00, -1.00, 710.0, 398.0)">t</text><text xml:space="preserve" font-family="Helvetica-Light" font-size="28.0" fill="#000000" transform="matrix(1.00, 0.00, -0.00, -1.00, 717.8, 398.0)">t</text><text xml:space="preserve" font-family="Helvetica-Light" font-size="28.0" fill="#000000" transform="matrix(1.00, 0.00, -0.00, -1.00, 725.5, 398.0)">o</text><text xml:space="preserve" font-family="Helvetica-Light" font-size="28.0" fill="#000000" transform="matrix(1.00, 0.00, -0.00, -1.00, 741.1, 398.0)">m</text><text xml:space="preserve" font-family="Helvetica-Light" font-size="28.0" fill="#000000" transform="matrix(1.00, 0.00, -0.00, -1.00, 764.4, 398.0)">U</text><text xml:space="preserve" font-family="Helvetica-Light" font-size="28.0" fill="#000000" transform="matrix(1.00, 0.00, -0.00, -1.00, 784.7, 398.0)">p</text><text xml:space="preserve" font-family="Helvetica-Light" font-size="28.0" fill="#000000" transform="matrix(1.00, 0.00, -0.00, -1.00, 801.8, 398.0)">T</text><text xml:space="preserve" font-family="Helvetica-Light" font-size="28.0" fill="#000000" transform="matrix(1.00, 0.00, -0.00, -1.00, 814.2, 398.0)">o</text><text xml:space="preserve" font-family="Helvetica-Light" font-size="28.0" fill="#000000" transform="matrix(1.00, 0.00, -0.00, -1.00, 829.8, 398.0)">p</text><text xml:space="preserve" font-family="Helvetica-Light" font-size="28.0" fill="#000000" transform="matrix(1.00, 0.00, -0.00, -1.00, 846.9, 398.0)">D</text><text xml:space="preserve" font-family="Helvetica-Light" font-size="28.0" fill="#000000" transform="matrix(1.00, 0.00, -0.00, -1.00, 867.1, 398.0)">o</text><text xml:space="preserve" font-family="Helvetica-Light" font-size="28.0" fill="#000000" transform="matrix(1.00, 0.00, -0.00, -1.00, 882.7, 398.0)">w</text><text xml:space="preserve" font-family="Helvetica-Light" font-size="28.0" fill="#000000" transform="matrix(1.00, 0.00, -0.00, -1.00, 902.9, 398.0)">n</text><text xml:space="preserve" font-family="Helvetica-Light" font-size="28.0" fill="#000000" transform="matrix(1.00, 0.00, -0.00, -1.00, 918.5, 398.0)"> </text><g><clipPath id="clip-130"><path d="M 204.8 394.1 L 918.5 394.1 L 918.5 397.5 L 204.8 397.5 Z M 204.8 394.1 "></path></clipPath><g clip-path="url(#clip-130)"><path d="M 130.8 150.7 L 843.5 150.7 " fill="none" stroke="#000000" stroke-width="1.40" stroke-miterlimit="0.00" transform="matrix(1.00, 0.00, 0.00, -1.00, 75.0, 546.5)"></path></g></g><text xml:space="preserve" font-family="Helvetica-Light" font-size="21.0" fill="#000000" transform="matrix(1.00, 0.00, -0.00, -1.00, 79.0, 324.8)">•</text><text xml:space="preserve" font-family="Helvetica-Light" font-size="28.0" fill="#000000" transform="matrix(1.00, 0.00, -0.00, -1.00, 114.0, 322.0)">C</text><text xml:space="preserve" font-family="Helvetica-Light" font-size="28.0" fill="#000000" transform="matrix(1.00, 0.00, -0.00, -1.00, 134.2, 322.0)">o</text><text xml:space="preserve" font-family="Helvetica-Light" font-size="28.0" fill="#000000" transform="matrix(1.00, 0.00, -0.00, -1.00, 149.8, 322.0)">d</text><text xml:space="preserve" font-family="Helvetica-Light" font-size="28.0" fill="#000000" transform="matrix(1.00, 0.00, -0.00, -1.00, 166.9, 322.0)">e</text><text xml:space="preserve" font-family="Helvetica-Light" font-size="28.0" fill="#000000" transform="matrix(1.00, 0.00, -0.00, -1.00, 182.5, 322.0)">:</text><text xml:space="preserve" font-family="Helvetica-Light" font-size="28.0" fill="#000000" transform="matrix(1.00, 0.00, -0.00, -1.00, 190.2, 322.0)"> </text><text xml:space="preserve" font-family="Helvetica-Light" font-size="28.0" fill="#000000" transform="matrix(1.00, 0.00, -0.00, -1.00, 198.0, 322.0)">h</text><text xml:space="preserve" font-family="Helvetica-Light" font-size="28.0" fill="#000000" transform="matrix(1.00, 0.00, -0.00, -1.00, 213.6, 322.0)">t</text><text xml:space="preserve" font-family="Helvetica-Light" font-size="28.0" fill="#000000" transform="matrix(1.00, 0.00, -0.00, -1.00, 221.4, 322.0)">t</text><text xml:space="preserve" font-family="Helvetica-Light" font-size="28.0" fill="#000000" transform="matrix(1.00, 0.00, -0.00, -1.00, 229.2, 322.0)">p</text><text xml:space="preserve" font-family="Helvetica-Light" font-size="28.0" fill="#000000" transform="matrix(1.00, 0.00, -0.00, -1.00, 246.3, 322.0)">s</text><text xml:space="preserve" font-family="Helvetica-Light" font-size="28.0" fill="#000000" transform="matrix(1.00, 0.00, -0.00, -1.00, 260.3, 322.0)">:</text><text xml:space="preserve" font-family="Helvetica-Light" font-size="28.0" fill="#000000" transform="matrix(1.00, 0.00, -0.00, -1.00, 268.1, 322.0)">/</text><text xml:space="preserve" font-family="Helvetica-Light" font-size="28.0" fill="#000000" transform="matrix(1.00, 0.00, -0.00, -1.00, 275.8, 322.0)">/</text><text xml:space="preserve" font-family="Helvetica-Light" font-size="28.0" fill="#000000" transform="matrix(1.00, 0.00, -0.00, -1.00, 283.6, 322.0)">g</text><text xml:space="preserve" font-family="Helvetica-Light" font-size="28.0" fill="#000000" transform="matrix(1.00, 0.00, -0.00, -1.00, 300.7, 322.0)">i</text><text xml:space="preserve" font-family="Helvetica-Light" font-size="28.0" fill="#000000" transform="matrix(1.00, 0.00, -0.00, -1.00, 306.9, 322.0)">t</text><text xml:space="preserve" font-family="Helvetica-Light" font-size="28.0" fill="#000000" transform="matrix(1.00, 0.00, -0.00, -1.00, 314.7, 322.0)">h</text><text xml:space="preserve" font-family="Helvetica-Light" font-size="28.0" fill="#000000" transform="matrix(1.00, 0.00, -0.00, -1.00, 330.3, 322.0)">u</text><text xml:space="preserve" font-family="Helvetica-Light" font-size="28.0" fill="#000000" transform="matrix(1.00, 0.00, -0.00, -1.00, 345.9, 322.0)">b</text><text xml:space="preserve" font-family="Helvetica-Light" font-size="28.0" fill="#000000" transform="matrix(1.00, 0.00, -0.00, -1.00, 363.0, 322.0)">.</text><text xml:space="preserve" font-family="Helvetica-Light" font-size="28.0" fill="#000000" transform="matrix(1.00, 0.00, -0.00, -1.00, 370.8, 322.0)">c</text><text xml:space="preserve" font-family="Helvetica-Light" font-size="28.0" fill="#000000" transform="matrix(1.00, 0.00, -0.00, -1.00, 386.3, 322.0)">o</text><text xml:space="preserve" font-family="Helvetica-Light" font-size="28.0" fill="#000000" transform="matrix(1.00, 0.00, -0.00, -1.00, 401.9, 322.0)">m</text><text xml:space="preserve" font-family="Helvetica-Light" font-size="28.0" fill="#000000" transform="matrix(1.00, 0.00, -0.00, -1.00, 425.2, 322.0)">/</text><text xml:space="preserve" font-family="Helvetica-Light" font-size="28.0" fill="#000000" transform="matrix(1.00, 0.00, -0.00, -1.00, 433.0, 322.0)">m</text><text xml:space="preserve" font-family="Helvetica-Light" font-size="28.0" fill="#000000" transform="matrix(1.00, 0.00, -0.00, -1.00, 456.3, 322.0)">a</text><text xml:space="preserve" font-family="Helvetica-Light" font-size="28.0" fill="#000000" transform="matrix(1.00, 0.00, -0.00, -1.00, 471.9, 322.0)">r</text><text xml:space="preserve" font-family="Helvetica-Light" font-size="28.0" fill="#000000" transform="matrix(1.00, 0.00, -0.00, -1.00, 481.2, 322.0)">k</text><text xml:space="preserve" font-family="Helvetica-Light" font-size="28.0" fill="#000000" transform="matrix(1.00, 0.00, -0.00, -1.00, 495.2, 322.0)">b</text><text xml:space="preserve" font-family="Helvetica-Light" font-size="28.0" fill="#000000" transform="matrix(1.00, 0.00, -0.00, -1.00, 512.3, 322.0)">a</text><text xml:space="preserve" font-family="Helvetica-Light" font-size="28.0" fill="#000000" transform="matrix(1.00, 0.00, -0.00, -1.00, 527.9, 322.0)">s</text><text xml:space="preserve" font-family="Helvetica-Light" font-size="28.0" fill="#000000" transform="matrix(1.00, 0.00, -0.00, -1.00, 541.9, 322.0)">t</text><text xml:space="preserve" font-family="Helvetica-Light" font-size="28.0" fill="#000000" transform="matrix(1.00, 0.00, -0.00, -1.00, 549.7, 322.0)">i</text><text xml:space="preserve" font-family="Helvetica-Light" font-size="28.0" fill="#000000" transform="matrix(1.00, 0.00, -0.00, -1.00, 555.9, 322.0)">a</text><text xml:space="preserve" font-family="Helvetica-Light" font-size="28.0" fill="#000000" transform="matrix(1.00, 0.00, -0.00, -1.00, 571.5, 322.0)">n</text><text xml:space="preserve" font-family="Helvetica-Light" font-size="28.0" fill="#000000" transform="matrix(1.00, 0.00, -0.00, -1.00, 587.0, 322.0)">/</text><text xml:space="preserve" font-family="Helvetica-Light" font-size="28.0" fill="#000000" transform="matrix(1.00, 0.00, -0.00, -1.00, 594.8, 322.0)">p</text><text xml:space="preserve" font-family="Helvetica-Light" font-size="28.0" fill="#000000" transform="matrix(1.00, 0.00, -0.00, -1.00, 611.9, 322.0)">i</text><text xml:space="preserve" font-family="Helvetica-Light" font-size="28.0" fill="#000000" transform="matrix(1.00, 0.00, -0.00, -1.00, 618.1, 322.0)">r</text><text xml:space="preserve" font-family="Helvetica-Light" font-size="28.0" fill="#000000" transform="matrix(1.00, 0.00, -0.00, -1.00, 627.5, 322.0)">a</text><text xml:space="preserve" font-family="Helvetica-Light" font-size="28.0" fill="#000000" transform="matrix(1.00, 0.00, -0.00, -1.00, 643.0, 322.0)">t</text><text xml:space="preserve" font-family="Helvetica-Light" font-size="28.0" fill="#000000" transform="matrix(1.00, 0.00, -0.00, -1.00, 650.8, 322.0)">e</text><text xml:space="preserve" font-family="Helvetica-Light" font-size="28.0" fill="#000000" transform="matrix(1.00, 0.00, -0.00, -1.00, 666.4, 322.0)">s</text><text xml:space="preserve" font-family="Helvetica-Light" font-size="28.0" fill="#000000" transform="matrix(1.00, 0.00, -0.00, -1.00, 680.4, 322.0)"> </text><g><clipPath id="clip-131"><path d="M 197.0 318.1 L 680.4 318.1 L 680.4 321.5 L 197.0 321.5 Z M 197.0 318.1 "></path></clipPath><g clip-path="url(#clip-131)"><path d="M 123.0 226.7 L 605.4 226.7 " fill="none" stroke="#000000" stroke-width="1.40" stroke-miterlimit="0.00" transform="matrix(1.00, 0.00, 0.00, -1.00, 75.0, 546.5)"></path></g></g><text xml:space="preserve" font-family="Helvetica-Light" font-size="28.0" fill="#000000" transform="matrix(1.00, 0.00, -0.00, -1.00, 417.0, 212.0)">@</text><text xml:space="preserve" font-family="Helvetica-Light" font-size="28.0" fill="#000000" transform="matrix(1.00, 0.00, -0.00, -1.00, 439.4, 212.0)">m</text><text xml:space="preserve" font-family="Helvetica-Light" font-size="28.0" fill="#000000" transform="matrix(1.00, 0.00, -0.00, -1.00, 462.7, 212.0)">a</text><text xml:space="preserve" font-family="Helvetica-Light" font-size="28.0" fill="#000000" transform="matrix(1.00, 0.00, -0.00, -1.00, 478.3, 212.0)">r</text><text xml:space="preserve" font-family="Helvetica-Light" font-size="28.0" fill="#000000" transform="matrix(1.00, 0.00, -0.00, -1.00, 487.6, 212.0)">k</text><text xml:space="preserve" font-family="Helvetica-Light" font-size="28.0" fill="#000000" transform="matrix(1.00, 0.00, -0.00, -1.00, 501.6, 212.0)">_</text><text xml:space="preserve" font-family="Helvetica-Light" font-size="28.0" fill="#000000" transform="matrix(1.00, 0.00, -0.00, -1.00, 515.6, 212.0)">b</text><text xml:space="preserve" font-family="Helvetica-Light" font-size="28.0" fill="#000000" transform="matrix(1.00, 0.00, -0.00, -1.00, 532.7, 212.0)">a</text><text xml:space="preserve" font-family="Helvetica-Light" font-size="28.0" fill="#000000" transform="matrix(1.00, 0.00, -0.00, -1.00, 548.3, 212.0)">s</text><text xml:space="preserve" font-family="Helvetica-Light" font-size="28.0" fill="#000000" transform="matrix(1.00, 0.00, -0.00, -1.00, 562.3, 212.0)">t</text><text xml:space="preserve" font-family="Helvetica-Light" font-size="28.0" fill="#000000" transform="matrix(1.00, 0.00, -0.00, -1.00, 570.1, 212.0)">i</text><text xml:space="preserve" font-family="Helvetica-Light" font-size="28.0" fill="#000000" transform="matrix(1.00, 0.00, -0.00, -1.00, 576.3, 212.0)">a</text><text xml:space="preserve" font-family="Helvetica-Light" font-size="28.0" fill="#000000" transform="matrix(1.00, 0.00, -0.00, -1.00, 591.9, 212.0)">n</text><text xml:space="preserve" font-family="Helvetica-Light" font-size="28.0" fill="#000000" transform="matrix(1.00, 0.00, -0.00, -1.00, 607.4, 212.0)"> </text><text xml:space="preserve" font-family="Helvetica-Light" font-size="28.0" fill="#000000" transform="matrix(1.00, 0.00, -0.00, -1.00, 338.0, 178.0)">h</text><text xml:space="preserve" font-family="Helvetica-Light" font-size="28.0" fill="#000000" transform="matrix(1.00, 0.00, -0.00, -1.00, 353.6, 178.0)">t</text><text xml:space="preserve" font-family="Helvetica-Light" font-size="28.0" fill="#000000" transform="matrix(1.00, 0.00, -0.00, -1.00, 361.4, 178.0)">t</text><text xml:space="preserve" font-family="Helvetica-Light" font-size="28.0" fill="#000000" transform="matrix(1.00, 0.00, -0.00, -1.00, 369.1, 178.0)">p</text><text xml:space="preserve" font-family="Helvetica-Light" font-size="28.0" fill="#000000" transform="matrix(1.00, 0.00, -0.00, -1.00, 386.2, 178.0)">:</text><text xml:space="preserve" font-family="Helvetica-Light" font-size="28.0" fill="#000000" transform="matrix(1.00, 0.00, -0.00, -1.00, 394.0, 178.0)">/</text><text xml:space="preserve" font-family="Helvetica-Light" font-size="28.0" fill="#000000" transform="matrix(1.00, 0.00, -0.00, -1.00, 401.8, 178.0)">/</text><text xml:space="preserve" font-family="Helvetica-Light" font-size="28.0" fill="#000000" transform="matrix(1.00, 0.00, -0.00, -1.00, 409.6, 178.0)">f</text><text xml:space="preserve" font-family="Helvetica-Light" font-size="28.0" fill="#000000" transform="matrix(1.00, 0.00, -0.00, -1.00, 417.4, 178.0)">n</text><text xml:space="preserve" font-family="Helvetica-Light" font-size="28.0" fill="#000000" transform="matrix(1.00, 0.00, -0.00, -1.00, 432.9, 178.0)">-</text><text xml:space="preserve" font-family="Helvetica-Light" font-size="28.0" fill="#000000" transform="matrix(1.00, 0.00, -0.00, -1.00, 442.3, 178.0)">c</text><text xml:space="preserve" font-family="Helvetica-Light" font-size="28.0" fill="#000000" transform="matrix(1.00, 0.00, -0.00, -1.00, 457.8, 178.0)">o</text><text xml:space="preserve" font-family="Helvetica-Light" font-size="28.0" fill="#000000" transform="matrix(1.00, 0.00, -0.00, -1.00, 473.4, 178.0)">d</text><text xml:space="preserve" font-family="Helvetica-Light" font-size="28.0" fill="#000000" transform="matrix(1.00, 0.00, -0.00, -1.00, 490.5, 178.0)">e</text><text xml:space="preserve" font-family="Helvetica-Light" font-size="28.0" fill="#000000" transform="matrix(1.00, 0.00, -0.00, -1.00, 506.1, 178.0)">.</text><text xml:space="preserve" font-family="Helvetica-Light" font-size="28.0" fill="#000000" transform="matrix(1.00, 0.00, -0.00, -1.00, 513.9, 178.0)">b</text><text xml:space="preserve" font-family="Helvetica-Light" font-size="28.0" fill="#000000" transform="matrix(1.00, 0.00, -0.00, -1.00, 531.0, 178.0)">l</text><text xml:space="preserve" font-family="Helvetica-Light" font-size="28.0" fill="#000000" transform="matrix(1.00, 0.00, -0.00, -1.00, 537.2, 178.0)">o</text><text xml:space="preserve" font-family="Helvetica-Light" font-size="28.0" fill="#000000" transform="matrix(1.00, 0.00, -0.00, -1.00, 552.8, 178.0)">g</text><text xml:space="preserve" font-family="Helvetica-Light" font-size="28.0" fill="#000000" transform="matrix(1.00, 0.00, -0.00, -1.00, 569.9, 178.0)">s</text><text xml:space="preserve" font-family="Helvetica-Light" font-size="28.0" fill="#000000" transform="matrix(1.00, 0.00, -0.00, -1.00, 583.9, 178.0)">p</text><text xml:space="preserve" font-family="Helvetica-Light" font-size="28.0" fill="#000000" transform="matrix(1.00, 0.00, -0.00, -1.00, 601.0, 178.0)">o</text><text xml:space="preserve" font-family="Helvetica-Light" font-size="28.0" fill="#000000" transform="matrix(1.00, 0.00, -0.00, -1.00, 616.5, 178.0)">t</text><text xml:space="preserve" font-family="Helvetica-Light" font-size="28.0" fill="#000000" transform="matrix(1.00, 0.00, -0.00, -1.00, 624.3, 178.0)">.</text><text xml:space="preserve" font-family="Helvetica-Light" font-size="28.0" fill="#000000" transform="matrix(1.00, 0.00, -0.00, -1.00, 632.1, 178.0)">c</text><text xml:space="preserve" font-family="Helvetica-Light" font-size="28.0" fill="#000000" transform="matrix(1.00, 0.00, -0.00, -1.00, 647.7, 178.0)">o</text><text xml:space="preserve" font-family="Helvetica-Light" font-size="28.0" fill="#000000" transform="matrix(1.00, 0.00, -0.00, -1.00, 663.2, 178.0)">m</text><g><clipPath id="clip-132"><path d="M 336.7 174.1 L 686.3 174.1 L 686.3 177.5 L 336.7 177.5 Z M 336.7 174.1 "></path></clipPath><g clip-path="url(#clip-132)"><path d="M 262.7 370.7 L 611.3 370.7 " fill="none" stroke="#000000" stroke-width="1.40" stroke-miterlimit="0.00" transform="matrix(1.00, 0.00, 0.00, -1.00, 75.0, 546.5)"></path></g></g></g></svg>