<?xml version="1.0" encoding="UTF-8" standalone="no"?><svg xmlns="http://www.w3.org/2000/svg" xmlns:xlink="http://www.w3.org/1999/xlink" clip-rule="evenodd" stroke-miterlimit="4.00" viewBox="0 0 428 80"><desc>SVG generated by Keynote</desc><defs></defs><g transform="matrix(1.00, 0.00, -0.00, -1.00, 0.0, 80.0)"><text xml:space="preserve" font-family="MarkerFelt-Thin" font-size="95.0" fill="#45A6DE" transform="matrix(1.00, 0.00, -0.00, -1.00, -0.8, 6.0)">u</text><text xml:space="preserve" font-family="MarkerFelt-Thin" font-size="95.0" fill="#45A6DE" transform="matrix(1.00, 0.00, -0.00, -1.00, 41.9, 6.0)">n</text><text xml:space="preserve" font-family="MarkerFelt-Thin" font-size="95.0" fill="#45A6DE" transform="matrix(1.00, 0.00, -0.00, -1.00, 91.9, 6.0)">d</text><text xml:space="preserve" font-family="MarkerFelt-Thin" font-size="95.0" fill="#45A6DE" transform="matrix(1.00, 0.00, -0.00, -1.00, 132.8, 6.0)">e</text><text xml:space="preserve" font-family="MarkerFelt-Thin" font-size="95.0" fill="#45A6DE" transform="matrix(1.00, 0.00, -0.00, -1.00, 174.6, 6.0)">r</text><text xml:space="preserve" font-family="MarkerFelt-Thin" font-size="95.0" fill="#45A6DE" transform="matrix(1.00, 0.00, -0.00, -1.00, 210.7, 6.0)">s</text><text xml:space="preserve" font-family="MarkerFelt-Thin" font-size="95.0" fill="#45A6DE" transform="matrix(1.00, 0.00, -0.00, -1.00, 251.9, 6.0)">t</text><text xml:space="preserve" font-family="MarkerFelt-Thin" font-size="95.0" fill="#45A6DE" transform="matrix(1.00, 0.00, -0.00, -1.00, 291.1, 6.0)">a</text><text xml:space="preserve" font-family="MarkerFelt-Thin" font-size="95.0" fill="#45A6DE" transform="matrix(1.00, 0.00, -0.00, -1.00, 338.5, 6.0)">n</text><text xml:space="preserve" font-family="MarkerFelt-Thin" font-size="95.0" fill="#45A6DE" transform="matrix(1.00, 0.00, -0.00, -1.00, 388.5, 6.0)">d</text></g></svg>