<?xml version="1.0" encoding="UTF-8" standalone="no"?><svg xmlns="http://www.w3.org/2000/svg" xmlns:xlink="http://www.w3.org/1999/xlink" clip-rule="evenodd" stroke-miterlimit="4.00" viewBox="0 0 578 523"><desc>SVG generated by Keynote</desc><defs></defs><g transform="matrix(1.00, 0.00, -0.00, -1.00, 0.0, 523.0)"><g><clipPath id="clip-95"><path d="M 0.1 0.5 L 577.4 0.5 L 577.4 522.3 L 0.1 522.3 Z M 0.1 0.5 "></path></clipPath><g clip-path="url(#clip-95)"><path d="M 328.3 520.3 L 328.3 239.2 L 2.1 239.2 L 2.1 2.5 L 575.4 2.5 L 575.4 520.3 L 328.3 520.3 Z M 328.3 520.3 " fill="#FF2600" fill-opacity="0.15"></path><path d="M 326.3 0.0 L 326.3 281.1 L 0.0 281.1 L 0.0 517.8 L 573.3 517.8 L 573.3 0.0 L 326.3 0.0 Z M 326.3 0.0 " fill="none" stroke="#000000" stroke-width="2.00" transform="matrix(1.00, 0.00, 0.00, -1.00, 2.1, 520.3)"></path></g></g><g><clipPath id="clip-96"><path d="M 422.5 -3.5 L 543.5 -3.5 L 543.5 57.5 L 422.5 57.5 Z M 422.5 -3.5 "></path></clipPath><g clip-path="url(#clip-96)"><text xml:space="preserve" font-family="Helvetica-Light" font-size="36.0" fill="#000000" transform="matrix(1.00, 0.00, -0.00, -1.00, 432.0, 14.0)">N</text><text xml:space="preserve" font-family="Helvetica-Light" font-size="36.0" fill="#000000" transform="matrix(1.00, 0.00, -0.00, -1.00, 458.0, 14.0)">a</text><text xml:space="preserve" font-family="Helvetica-Light" font-size="36.0" fill="#000000" transform="matrix(1.00, 0.00, -0.00, -1.00, 478.0, 14.0)">t</text><text xml:space="preserve" font-family="Helvetica-Light" font-size="36.0" fill="#000000" transform="matrix(1.00, 0.00, -0.00, -1.00, 488.0, 14.0)">i</text><text xml:space="preserve" font-family="Helvetica-Light" font-size="36.0" fill="#000000" transform="matrix(1.00, 0.00, -0.00, -1.00, 496.0, 14.0)">v</text><text xml:space="preserve" font-family="Helvetica-Light" font-size="36.0" fill="#000000" transform="matrix(1.00, 0.00, -0.00, -1.00, 514.0, 14.0)">e</text></g></g></g></svg>