<?xml version="1.0" encoding="UTF-8" standalone="no"?><svg xmlns="http://www.w3.org/2000/svg" xmlns:xlink="http://www.w3.org/1999/xlink" clip-rule="evenodd" stroke-miterlimit="4.00" viewBox="0 0 601 147"><desc>SVG generated by Keynote</desc><defs></defs><g transform="matrix(1.00, 0.00, -0.00, -1.00, 0.0, 147.0)"><text xml:space="preserve" font-family="Helvetica-Light" font-size="67.2" fill="#000000" transform="matrix(1.00, 0.00, -0.00, -1.00, -2.0, 95.0)">C</text><text xml:space="preserve" font-family="Helvetica-Light" font-size="67.2" fill="#000000" transform="matrix(1.00, 0.00, -0.00, -1.00, 46.5, 95.0)">o</text><text xml:space="preserve" font-family="Helvetica-Light" font-size="67.2" fill="#000000" transform="matrix(1.00, 0.00, -0.00, -1.00, 83.9, 95.0)">m</text><text xml:space="preserve" font-family="Helvetica-Light" font-size="67.2" fill="#000000" transform="matrix(1.00, 0.00, -0.00, -1.00, 139.9, 95.0)">m</text><text xml:space="preserve" font-family="Helvetica-Light" font-size="67.2" fill="#000000" transform="matrix(1.00, 0.00, -0.00, -1.00, 195.8, 95.0)">o</text><text xml:space="preserve" font-family="Helvetica-Light" font-size="67.2" fill="#000000" transform="matrix(1.00, 0.00, -0.00, -1.00, 233.2, 95.0)">n</text><text xml:space="preserve" font-family="Helvetica-Light" font-size="67.2" fill="#000000" transform="matrix(1.00, 0.00, -0.00, -1.00, 270.6, 95.0)"> </text><text xml:space="preserve" font-family="Helvetica-Light" font-size="67.2" fill="#000000" transform="matrix(1.00, 0.00, -0.00, -1.00, 289.2, 95.0)">F</text><text xml:space="preserve" font-family="Helvetica-Light" font-size="67.2" fill="#000000" transform="matrix(1.00, 0.00, -0.00, -1.00, 326.6, 95.0)">u</text><text xml:space="preserve" font-family="Helvetica-Light" font-size="67.2" fill="#000000" transform="matrix(1.00, 0.00, -0.00, -1.00, 364.0, 95.0)">n</text><text xml:space="preserve" font-family="Helvetica-Light" font-size="67.2" fill="#000000" transform="matrix(1.00, 0.00, -0.00, -1.00, 401.3, 95.0)">c</text><text xml:space="preserve" font-family="Helvetica-Light" font-size="67.2" fill="#000000" transform="matrix(1.00, 0.00, -0.00, -1.00, 438.7, 95.0)">t</text><text xml:space="preserve" font-family="Helvetica-Light" font-size="67.2" fill="#000000" transform="matrix(1.00, 0.00, -0.00, -1.00, 457.4, 95.0)">i</text><text xml:space="preserve" font-family="Helvetica-Light" font-size="67.2" fill="#000000" transform="matrix(1.00, 0.00, -0.00, -1.00, 472.3, 95.0)">o</text><text xml:space="preserve" font-family="Helvetica-Light" font-size="67.2" fill="#000000" transform="matrix(1.00, 0.00, -0.00, -1.00, 509.7, 95.0)">n</text><text xml:space="preserve" font-family="Helvetica-Light" font-size="67.2" fill="#000000" transform="matrix(1.00, 0.00, -0.00, -1.00, 547.0, 95.0)">a</text><text xml:space="preserve" font-family="Helvetica-Light" font-size="67.2" fill="#000000" transform="matrix(1.00, 0.00, -0.00, -1.00, 584.4, 95.0)">l</text><text xml:space="preserve" font-family="Helvetica-Light" font-size="67.2" fill="#000000" transform="matrix(1.00, 0.00, -0.00, -1.00, 599.3, 95.0)"> </text><text xml:space="preserve" font-family="Helvetica-Light" font-size="67.2" fill="#000000" transform="matrix(1.00, 0.00, -0.00, -1.00, 129.0, 15.0)">L</text><text xml:space="preserve" font-family="Helvetica-Light" font-size="67.2" fill="#000000" transform="matrix(1.00, 0.00, -0.00, -1.00, 166.4, 15.0)">a</text><text xml:space="preserve" font-family="Helvetica-Light" font-size="67.2" fill="#000000" transform="matrix(1.00, 0.00, -0.00, -1.00, 203.7, 15.0)">n</text><text xml:space="preserve" font-family="Helvetica-Light" font-size="67.2" fill="#000000" transform="matrix(1.00, 0.00, -0.00, -1.00, 241.1, 15.0)">g</text><text xml:space="preserve" font-family="Helvetica-Light" font-size="67.2" fill="#000000" transform="matrix(1.00, 0.00, -0.00, -1.00, 282.1, 15.0)">u</text><text xml:space="preserve" font-family="Helvetica-Light" font-size="67.2" fill="#000000" transform="matrix(1.00, 0.00, -0.00, -1.00, 319.5, 15.0)">a</text><text xml:space="preserve" font-family="Helvetica-Light" font-size="67.2" fill="#000000" transform="matrix(1.00, 0.00, -0.00, -1.00, 356.9, 15.0)">g</text><text xml:space="preserve" font-family="Helvetica-Light" font-size="67.2" fill="#000000" transform="matrix(1.00, 0.00, -0.00, -1.00, 397.9, 15.0)">e</text><text xml:space="preserve" font-family="Helvetica-Light" font-size="67.2" fill="#000000" transform="matrix(1.00, 0.00, -0.00, -1.00, 435.3, 15.0)">s</text></g></svg>