<?xml version="1.0" encoding="UTF-8" standalone="no"?><svg xmlns="http://www.w3.org/2000/svg" xmlns:xlink="http://www.w3.org/1999/xlink" clip-rule="evenodd" stroke-miterlimit="4.00" viewBox="0 0 259 35"><desc>SVG generated by Keynote</desc><defs></defs><g transform="matrix(1.00, 0.00, -0.00, -1.00, 0.0, 35.0)"><g><clipPath id="clip-246"><path d="M 0.0 5.5 L 21.0 5.5 L 21.0 25.1 L 0.0 25.1 Z M 0.0 5.5 "></path></clipPath><g clip-path="url(#clip-246)"><path d="M 20.7 12.5 C 20.9 12.3 21.0 11.9 21.0 11.6 C 21.0 11.0 20.6 10.4 19.9 9.9 C 19.2 9.4 18.4 9.1 17.6 9.1 C 16.4 9.1 15.1 9.9 13.6 11.6 C 13.6 11.6 13.6 9.1 13.6 9.1 C 13.6 8.8 13.6 8.6 13.8 8.2 C 13.9 7.9 14.0 7.6 14.0 7.4 C 14.0 6.9 13.7 6.5 13.2 6.1 C 12.7 5.7 12.1 5.5 11.6 5.5 C 10.6 5.5 9.8 5.9 9.1 6.8 C 8.9 7.0 8.9 7.7 8.9 8.8 C 9.0 9.9 9.0 11.1 9.1 12.2 C 8.5 11.8 7.4 11.2 5.8 10.3 C 5.6 10.0 4.9 9.6 3.8 9.3 C 3.0 9.2 2.2 9.3 1.3 9.7 C 0.4 10.1 0.0 10.6 0.0 11.3 C 0.0 11.5 0.0 11.6 0.1 11.8 C 0.3 12.2 0.6 12.4 1.2 12.6 C 2.0 12.9 2.5 13.0 2.6 13.1 C 2.6 13.1 7.2 15.6 7.2 15.6 C 7.2 15.6 3.9 17.2 3.9 17.2 C 3.5 17.2 2.8 17.4 2.0 17.9 C 1.9 18.1 1.8 18.4 1.8 18.7 C 1.8 19.5 2.2 20.2 3.2 21.0 C 4.1 21.7 5.0 22.1 6.0 22.1 C 6.3 22.1 6.6 22.0 6.9 21.9 C 7.2 21.8 7.5 21.5 7.7 21.1 C 8.0 20.5 8.5 20.0 9.1 19.6 C 9.1 19.6 9.2 22.6 9.2 22.6 C 9.1 23.0 9.1 23.6 9.2 24.3 C 9.6 24.8 10.5 25.1 11.8 25.1 C 13.0 25.1 13.8 24.7 14.2 24.0 C 14.3 23.7 14.4 23.1 14.2 22.0 C 14.2 21.1 14.1 20.1 13.9 19.2 C 13.9 19.2 15.7 20.0 15.7 20.0 C 16.0 20.4 16.6 20.8 17.6 21.2 C 18.2 21.3 18.9 21.0 19.5 20.4 C 20.1 19.9 20.5 19.3 20.5 18.6 C 20.5 18.3 20.4 18.1 20.2 17.8 C 20.1 17.6 19.8 17.4 19.4 17.3 C 18.8 17.2 18.5 17.1 18.3 17.0 C 18.3 17.0 15.8 15.2 15.8 15.2 C 15.8 15.2 19.0 13.4 19.0 13.4 C 19.5 13.3 20.0 13.0 20.7 12.5 Z M 20.7 12.5 " fill="#3995D6"></path></g></g><text xml:space="preserve" font-family="MarkerFelt-Thin" font-size="36.0" fill="#858585" transform="matrix(1.00, 0.00, -0.00, -1.00, 35.0, 4.0)">C</text><text xml:space="preserve" font-family="MarkerFelt-Thin" font-size="36.0" fill="#858585" transform="matrix(1.00, 0.00, -0.00, -1.00, 52.7, 4.0)">l</text><text xml:space="preserve" font-family="MarkerFelt-Thin" font-size="36.0" fill="#858585" transform="matrix(1.00, 0.00, -0.00, -1.00, 61.2, 4.0)">i</text><text xml:space="preserve" font-family="MarkerFelt-Thin" font-size="36.0" fill="#858585" transform="matrix(1.00, 0.00, -0.00, -1.00, 69.1, 4.0)">e</text><text xml:space="preserve" font-family="MarkerFelt-Thin" font-size="36.0" fill="#858585" transform="matrix(1.00, 0.00, -0.00, -1.00, 85.1, 4.0)">n</text><text xml:space="preserve" font-family="MarkerFelt-Thin" font-size="36.0" fill="#858585" transform="matrix(1.00, 0.00, -0.00, -1.00, 104.8, 4.0)">t</text><text xml:space="preserve" font-family="MarkerFelt-Thin" font-size="36.0" fill="#858585" transform="matrix(1.00, 0.00, -0.00, -1.00, 115.7, 4.0)">-</text><text xml:space="preserve" font-family="MarkerFelt-Thin" font-size="36.0" fill="#858585" transform="matrix(1.00, 0.00, -0.00, -1.00, 129.0, 4.0)">s</text><text xml:space="preserve" font-family="MarkerFelt-Thin" font-size="36.0" fill="#858585" transform="matrix(1.00, 0.00, -0.00, -1.00, 143.8, 4.0)">i</text><text xml:space="preserve" font-family="MarkerFelt-Thin" font-size="36.0" fill="#858585" transform="matrix(1.00, 0.00, -0.00, -1.00, 151.7, 4.0)">d</text><text xml:space="preserve" font-family="MarkerFelt-Thin" font-size="36.0" fill="#858585" transform="matrix(1.00, 0.00, -0.00, -1.00, 167.2, 4.0)">e</text><text xml:space="preserve" font-family="MarkerFelt-Thin" font-size="36.0" fill="#858585" transform="matrix(1.00, 0.00, -0.00, -1.00, 180.9, 4.0)"> </text><text xml:space="preserve" font-family="MarkerFelt-Thin" font-size="36.0" fill="#858585" transform="matrix(1.00, 0.00, -0.00, -1.00, 189.9, 4.0)">J</text><text xml:space="preserve" font-family="MarkerFelt-Thin" font-size="36.0" fill="#858585" transform="matrix(1.00, 0.00, -0.00, -1.00, 206.4, 4.0)">a</text><text xml:space="preserve" font-family="MarkerFelt-Thin" font-size="36.0" fill="#858585" transform="matrix(1.00, 0.00, -0.00, -1.00, 223.7, 4.0)">v</text><text xml:space="preserve" font-family="MarkerFelt-Thin" font-size="36.0" fill="#858585" transform="matrix(1.00, 0.00, -0.00, -1.00, 241.4, 4.0)">a</text></g></svg>