<?xml version="1.0" encoding="UTF-8" standalone="no"?><svg xmlns="http://www.w3.org/2000/svg" xmlns:xlink="http://www.w3.org/1999/xlink" clip-rule="evenodd" stroke-miterlimit="4.00" viewBox="0 0 267 80"><desc>SVG generated by Keynote</desc><defs></defs><g transform="matrix(1.00, 0.00, -0.00, -1.00, 0.0, 80.0)"><text xml:space="preserve" font-family="Helvetica-Light" font-size="17.0" fill="#000000" transform="matrix(1.00, 0.00, -0.00, -1.00, 2.0, 66.0)">A</text><text xml:space="preserve" font-family="Helvetica-Light" font-size="17.0" fill="#000000" transform="matrix(1.00, 0.00, -0.00, -1.00, 13.3, 66.0)">r</text><text xml:space="preserve" font-family="Helvetica-Light" font-size="17.0" fill="#000000" transform="matrix(1.00, 0.00, -0.00, -1.00, 18.7, 66.0)">e</text><text xml:space="preserve" font-family="Helvetica-Light" font-size="17.0" fill="#000000" transform="matrix(1.00, 0.00, -0.00, -1.00, 28.1, 66.0)"> </text><text xml:space="preserve" font-family="Helvetica-Light" font-size="17.0" fill="#000000" transform="matrix(1.00, 0.00, -0.00, -1.00, 32.9, 66.0)">a</text><text xml:space="preserve" font-family="Helvetica-Light" font-size="17.0" fill="#000000" transform="matrix(1.00, 0.00, -0.00, -1.00, 42.3, 66.0)"> </text><text xml:space="preserve" font-family="Helvetica-Light" font-size="17.0" fill="#000000" transform="matrix(1.00, 0.00, -0.00, -1.00, 47.0, 66.0)">a</text><text xml:space="preserve" font-family="Helvetica-Light" font-size="17.0" fill="#000000" transform="matrix(1.00, 0.00, -0.00, -1.00, 56.5, 66.0)">n</text><text xml:space="preserve" font-family="Helvetica-Light" font-size="17.0" fill="#000000" transform="matrix(1.00, 0.00, -0.00, -1.00, 66.0, 66.0)">d</text><text xml:space="preserve" font-family="Helvetica-Light" font-size="17.0" fill="#000000" transform="matrix(1.00, 0.00, -0.00, -1.00, 76.3, 66.0)"> </text><text xml:space="preserve" font-family="Helvetica-Light" font-size="17.0" fill="#000000" transform="matrix(1.00, 0.00, -0.00, -1.00, 81.1, 66.0)">b</text><text xml:space="preserve" font-family="Helvetica-Light" font-size="17.0" fill="#000000" transform="matrix(1.00, 0.00, -0.00, -1.00, 91.5, 66.0)"> </text><text xml:space="preserve" font-family="Helvetica-Light" font-size="17.0" fill="#000000" transform="matrix(1.00, 0.00, -0.00, -1.00, 96.2, 66.0)">t</text><text xml:space="preserve" font-family="Helvetica-Light" font-size="17.0" fill="#000000" transform="matrix(1.00, 0.00, -0.00, -1.00, 100.9, 66.0)">h</text><text xml:space="preserve" font-family="Helvetica-Light" font-size="17.0" fill="#000000" transform="matrix(1.00, 0.00, -0.00, -1.00, 110.4, 66.0)">e</text><text xml:space="preserve" font-family="Helvetica-Light" font-size="17.0" fill="#000000" transform="matrix(1.00, 0.00, -0.00, -1.00, 119.8, 66.0)"> </text><text xml:space="preserve" font-family="Helvetica-Light" font-size="17.0" fill="#000000" transform="matrix(1.00, 0.00, -0.00, -1.00, 124.5, 66.0)">c</text><text xml:space="preserve" font-family="Helvetica-Light" font-size="17.0" fill="#000000" transform="matrix(1.00, 0.00, -0.00, -1.00, 134.0, 66.0)">o</text><text xml:space="preserve" font-family="Helvetica-Light" font-size="17.0" fill="#000000" transform="matrix(1.00, 0.00, -0.00, -1.00, 143.4, 66.0)">m</text><text xml:space="preserve" font-family="Helvetica-Light" font-size="17.0" fill="#000000" transform="matrix(1.00, 0.00, -0.00, -1.00, 157.6, 66.0)">p</text><text xml:space="preserve" font-family="Helvetica-Light" font-size="17.0" fill="#000000" transform="matrix(1.00, 0.00, -0.00, -1.00, 168.0, 66.0)">a</text><text xml:space="preserve" font-family="Helvetica-Light" font-size="17.0" fill="#000000" transform="matrix(1.00, 0.00, -0.00, -1.00, 177.4, 66.0)">r</text><text xml:space="preserve" font-family="Helvetica-Light" font-size="17.0" fill="#000000" transform="matrix(1.00, 0.00, -0.00, -1.00, 183.1, 66.0)">a</text><text xml:space="preserve" font-family="Helvetica-Light" font-size="17.0" fill="#000000" transform="matrix(1.00, 0.00, -0.00, -1.00, 192.6, 66.0)">b</text><text xml:space="preserve" font-family="Helvetica-Light" font-size="17.0" fill="#000000" transform="matrix(1.00, 0.00, -0.00, -1.00, 202.9, 66.0)">l</text><text xml:space="preserve" font-family="Helvetica-Light" font-size="17.0" fill="#000000" transform="matrix(1.00, 0.00, -0.00, -1.00, 206.7, 66.0)">e</text><text xml:space="preserve" font-family="Helvetica-Light" font-size="17.0" fill="#000000" transform="matrix(1.00, 0.00, -0.00, -1.00, 216.2, 66.0)">?</text><text xml:space="preserve" font-family="Helvetica-Light" font-size="17.0" fill="#000000" transform="matrix(1.00, 0.00, -0.00, -1.00, 224.7, 66.0)"> </text><text xml:space="preserve" font-family="Helvetica-Light" font-size="17.0" fill="#000000" transform="matrix(1.00, 0.00, -0.00, -1.00, 229.4, 66.0)">f</text><text xml:space="preserve" font-family="Helvetica-Light" font-size="17.0" fill="#000000" transform="matrix(1.00, 0.00, -0.00, -1.00, 234.1, 66.0)">a</text><text xml:space="preserve" font-family="Helvetica-Light" font-size="17.0" fill="#000000" transform="matrix(1.00, 0.00, -0.00, -1.00, 243.6, 66.0)">l</text><text xml:space="preserve" font-family="Helvetica-Light" font-size="17.0" fill="#000000" transform="matrix(1.00, 0.00, -0.00, -1.00, 247.3, 66.0)">s</text><text xml:space="preserve" font-family="Helvetica-Light" font-size="17.0" fill="#000000" transform="matrix(1.00, 0.00, -0.00, -1.00, 255.8, 66.0)">e</text><text xml:space="preserve" font-family="Helvetica-Light" font-size="17.0" fill="#000000" transform="matrix(1.00, 0.00, -0.00, -1.00, 265.3, 66.0)"> </text><text xml:space="preserve" font-family="Helvetica-Light" font-size="17.0" fill="#000000" transform="matrix(1.00, 0.00, -0.00, -1.00, 2.0, 46.0)">M</text><text xml:space="preserve" font-family="Helvetica-Light" font-size="17.0" fill="#000000" transform="matrix(1.00, 0.00, -0.00, -1.00, 16.2, 46.0)">y</text><text xml:space="preserve" font-family="Helvetica-Light" font-size="17.0" fill="#000000" transform="matrix(1.00, 0.00, -0.00, -1.00, 24.7, 46.0)"> </text><text xml:space="preserve" font-family="Helvetica-Light" font-size="17.0" fill="#000000" transform="matrix(1.00, 0.00, -0.00, -1.00, 29.4, 46.0)">b</text><text xml:space="preserve" font-family="Helvetica-Light" font-size="17.0" fill="#000000" transform="matrix(1.00, 0.00, -0.00, -1.00, 39.8, 46.0)">a</text><text xml:space="preserve" font-family="Helvetica-Light" font-size="17.0" fill="#000000" transform="matrix(1.00, 0.00, -0.00, -1.00, 49.2, 46.0)">l</text><text xml:space="preserve" font-family="Helvetica-Light" font-size="17.0" fill="#000000" transform="matrix(1.00, 0.00, -0.00, -1.00, 53.0, 46.0)">a</text><text xml:space="preserve" font-family="Helvetica-Light" font-size="17.0" fill="#000000" transform="matrix(1.00, 0.00, -0.00, -1.00, 62.5, 46.0)">n</text><text xml:space="preserve" font-family="Helvetica-Light" font-size="17.0" fill="#000000" transform="matrix(1.00, 0.00, -0.00, -1.00, 71.9, 46.0)">c</text><text xml:space="preserve" font-family="Helvetica-Light" font-size="17.0" fill="#000000" transform="matrix(1.00, 0.00, -0.00, -1.00, 81.4, 46.0)">e</text><text xml:space="preserve" font-family="Helvetica-Light" font-size="17.0" fill="#000000" transform="matrix(1.00, 0.00, -0.00, -1.00, 90.8, 46.0)"> </text><text xml:space="preserve" font-family="Helvetica-Light" font-size="17.0" fill="#000000" transform="matrix(1.00, 0.00, -0.00, -1.00, 95.5, 46.0)">i</text><text xml:space="preserve" font-family="Helvetica-Light" font-size="17.0" fill="#000000" transform="matrix(1.00, 0.00, -0.00, -1.00, 99.3, 46.0)">s</text><text xml:space="preserve" font-family="Helvetica-Light" font-size="17.0" fill="#000000" transform="matrix(1.00, 0.00, -0.00, -1.00, 107.8, 46.0)"> </text><text xml:space="preserve" font-family="Helvetica-Light" font-size="17.0" fill="#000000" transform="matrix(1.00, 0.00, -0.00, -1.00, 112.5, 46.0)">1</text><text xml:space="preserve" font-family="Helvetica-Light" font-size="17.0" fill="#000000" transform="matrix(1.00, 0.00, -0.00, -1.00, 122.0, 46.0)">0</text><text xml:space="preserve" font-family="Helvetica-Light" font-size="17.0" fill="#000000" transform="matrix(1.00, 0.00, -0.00, -1.00, 131.4, 46.0)">0</text><text xml:space="preserve" font-family="Helvetica-Light" font-size="17.0" fill="#000000" transform="matrix(1.00, 0.00, -0.00, -1.00, 140.9, 46.0)">0</text><text xml:space="preserve" font-family="Helvetica-Light" font-size="17.0" fill="#000000" transform="matrix(1.00, 0.00, -0.00, -1.00, 150.3, 46.0)">0</text><text xml:space="preserve" font-family="Helvetica-Light" font-size="17.0" fill="#000000" transform="matrix(1.00, 0.00, -0.00, -1.00, 159.8, 46.0)">0</text><text xml:space="preserve" font-family="Helvetica-Light" font-size="17.0" fill="#000000" transform="matrix(1.00, 0.00, -0.00, -1.00, 169.2, 46.0)">0</text><text xml:space="preserve" font-family="Helvetica-Light" font-size="17.0" fill="#000000" transform="matrix(1.00, 0.00, -0.00, -1.00, 178.7, 46.0)">.</text><text xml:space="preserve" font-family="Helvetica-Light" font-size="17.0" fill="#000000" transform="matrix(1.00, 0.00, -0.00, -1.00, 183.4, 46.0)"> </text><text xml:space="preserve" font-family="Helvetica-Light" font-size="17.0" fill="#000000" transform="matrix(1.00, 0.00, -0.00, -1.00, 2.0, 26.0)">M</text><text xml:space="preserve" font-family="Helvetica-Light" font-size="17.0" fill="#000000" transform="matrix(1.00, 0.00, -0.00, -1.00, 16.2, 26.0)">y</text><text xml:space="preserve" font-family="Helvetica-Light" font-size="17.0" fill="#000000" transform="matrix(1.00, 0.00, -0.00, -1.00, 24.7, 26.0)"> </text><text xml:space="preserve" font-family="Helvetica-Light" font-size="17.0" fill="#000000" transform="matrix(1.00, 0.00, -0.00, -1.00, 29.4, 26.0)">b</text><text xml:space="preserve" font-family="Helvetica-Light" font-size="17.0" fill="#000000" transform="matrix(1.00, 0.00, -0.00, -1.00, 39.8, 26.0)">a</text><text xml:space="preserve" font-family="Helvetica-Light" font-size="17.0" fill="#000000" transform="matrix(1.00, 0.00, -0.00, -1.00, 49.2, 26.0)">l</text><text xml:space="preserve" font-family="Helvetica-Light" font-size="17.0" fill="#000000" transform="matrix(1.00, 0.00, -0.00, -1.00, 53.0, 26.0)">a</text><text xml:space="preserve" font-family="Helvetica-Light" font-size="17.0" fill="#000000" transform="matrix(1.00, 0.00, -0.00, -1.00, 62.5, 26.0)">n</text><text xml:space="preserve" font-family="Helvetica-Light" font-size="17.0" fill="#000000" transform="matrix(1.00, 0.00, -0.00, -1.00, 71.9, 26.0)">c</text><text xml:space="preserve" font-family="Helvetica-Light" font-size="17.0" fill="#000000" transform="matrix(1.00, 0.00, -0.00, -1.00, 81.4, 26.0)">e</text><text xml:space="preserve" font-family="Helvetica-Light" font-size="17.0" fill="#000000" transform="matrix(1.00, 0.00, -0.00, -1.00, 90.8, 26.0)"> </text><text xml:space="preserve" font-family="Helvetica-Light" font-size="17.0" fill="#000000" transform="matrix(1.00, 0.00, -0.00, -1.00, 95.5, 26.0)">i</text><text xml:space="preserve" font-family="Helvetica-Light" font-size="17.0" fill="#000000" transform="matrix(1.00, 0.00, -0.00, -1.00, 99.3, 26.0)">s</text><text xml:space="preserve" font-family="Helvetica-Light" font-size="17.0" fill="#000000" transform="matrix(1.00, 0.00, -0.00, -1.00, 107.8, 26.0)"> </text><text xml:space="preserve" font-family="Helvetica-Light" font-size="17.0" fill="#000000" transform="matrix(1.00, 0.00, -0.00, -1.00, 112.5, 26.0)">1</text><text xml:space="preserve" font-family="Helvetica-Light" font-size="17.0" fill="#000000" transform="matrix(1.00, 0.00, -0.00, -1.00, 122.0, 26.0)">0</text><text xml:space="preserve" font-family="Helvetica-Light" font-size="17.0" fill="#000000" transform="matrix(1.00, 0.00, -0.00, -1.00, 131.4, 26.0)">0</text><text xml:space="preserve" font-family="Helvetica-Light" font-size="17.0" fill="#000000" transform="matrix(1.00, 0.00, -0.00, -1.00, 140.9, 26.0)">.</text><text xml:space="preserve" font-family="Helvetica-Light" font-size="17.0" fill="#000000" transform="matrix(1.00, 0.00, -0.00, -1.00, 145.6, 26.0)"> </text><text xml:space="preserve" font-family="Helvetica-Light" font-size="17.0" fill="#000000" transform="matrix(1.00, 0.00, -0.00, -1.00, 2.0, 6.0)">M</text><text xml:space="preserve" font-family="Helvetica-Light" font-size="17.0" fill="#000000" transform="matrix(1.00, 0.00, -0.00, -1.00, 16.2, 6.0)">y</text><text xml:space="preserve" font-family="Helvetica-Light" font-size="17.0" fill="#000000" transform="matrix(1.00, 0.00, -0.00, -1.00, 24.7, 6.0)"> </text><text xml:space="preserve" font-family="Helvetica-Light" font-size="17.0" fill="#000000" transform="matrix(1.00, 0.00, -0.00, -1.00, 29.4, 6.0)">n</text><text xml:space="preserve" font-family="Helvetica-Light" font-size="17.0" fill="#000000" transform="matrix(1.00, 0.00, -0.00, -1.00, 38.8, 6.0)">e</text><text xml:space="preserve" font-family="Helvetica-Light" font-size="17.0" fill="#000000" transform="matrix(1.00, 0.00, -0.00, -1.00, 48.3, 6.0)">w</text><text xml:space="preserve" font-family="Helvetica-Light" font-size="17.0" fill="#000000" transform="matrix(1.00, 0.00, -0.00, -1.00, 60.6, 6.0)"> </text><text xml:space="preserve" font-family="Helvetica-Light" font-size="17.0" fill="#000000" transform="matrix(1.00, 0.00, -0.00, -1.00, 65.3, 6.0)">b</text><text xml:space="preserve" font-family="Helvetica-Light" font-size="17.0" fill="#000000" transform="matrix(1.00, 0.00, -0.00, -1.00, 75.7, 6.0)">a</text><text xml:space="preserve" font-family="Helvetica-Light" font-size="17.0" fill="#000000" transform="matrix(1.00, 0.00, -0.00, -1.00, 85.1, 6.0)">l</text><text xml:space="preserve" font-family="Helvetica-Light" font-size="17.0" fill="#000000" transform="matrix(1.00, 0.00, -0.00, -1.00, 88.9, 6.0)">a</text><text xml:space="preserve" font-family="Helvetica-Light" font-size="17.0" fill="#000000" transform="matrix(1.00, 0.00, -0.00, -1.00, 98.4, 6.0)">n</text><text xml:space="preserve" font-family="Helvetica-Light" font-size="17.0" fill="#000000" transform="matrix(1.00, 0.00, -0.00, -1.00, 107.8, 6.0)">c</text><text xml:space="preserve" font-family="Helvetica-Light" font-size="17.0" fill="#000000" transform="matrix(1.00, 0.00, -0.00, -1.00, 117.3, 6.0)">e</text><text xml:space="preserve" font-family="Helvetica-Light" font-size="17.0" fill="#000000" transform="matrix(1.00, 0.00, -0.00, -1.00, 126.7, 6.0)"> </text><text xml:space="preserve" font-family="Helvetica-Light" font-size="17.0" fill="#000000" transform="matrix(1.00, 0.00, -0.00, -1.00, 131.4, 6.0)">i</text><text xml:space="preserve" font-family="Helvetica-Light" font-size="17.0" fill="#000000" transform="matrix(1.00, 0.00, -0.00, -1.00, 135.2, 6.0)">s</text><text xml:space="preserve" font-family="Helvetica-Light" font-size="17.0" fill="#000000" transform="matrix(1.00, 0.00, -0.00, -1.00, 143.7, 6.0)"> </text><text xml:space="preserve" font-family="Helvetica-Light" font-size="17.0" fill="#000000" transform="matrix(1.00, 0.00, -0.00, -1.00, 148.4, 6.0)">1</text><text xml:space="preserve" font-family="Helvetica-Light" font-size="17.0" fill="#000000" transform="matrix(1.00, 0.00, -0.00, -1.00, 157.9, 6.0)">0</text><text xml:space="preserve" font-family="Helvetica-Light" font-size="17.0" fill="#000000" transform="matrix(1.00, 0.00, -0.00, -1.00, 167.3, 6.0)">1</text><text xml:space="preserve" font-family="Helvetica-Light" font-size="17.0" fill="#000000" transform="matrix(1.00, 0.00, -0.00, -1.00, 176.8, 6.0)">.</text></g></svg>