<?xml version="1.0" encoding="UTF-8" standalone="no"?><svg xmlns="http://www.w3.org/2000/svg" xmlns:xlink="http://www.w3.org/1999/xlink" clip-rule="evenodd" stroke-miterlimit="4.00" viewBox="0 0 1024 768"><desc>SVG generated by Keynote</desc><defs></defs><g transform="matrix(1.00, 0.00, -0.00, -1.00, 0.0, 768.0)"><g><clipPath id="clip-119"><path d="M 0.0 768.0 L 1024.0 768.0 L 1024.0 0.0 L 0.0 0.0 Z M 0.0 768.0 "></path></clipPath><g clip-path="url(#clip-119)"><image xlink:href="../../39451CEE-E280-41CA-872D-216C9FC86FAF/assets/43DA95A1552523200D88D33196FD3A18.jpeg" width="1024.00" height="768.00" transform="matrix(1.00, 0.00, -0.00, -1.00, 0.0, 768.0)"></image></g></g><text xml:space="preserve" font-family="MarkerFelt-Thin" font-size="80.0" fill="#45A6DE" transform="matrix(1.00, 0.00, -0.00, -1.00, 256.0, 626.0)">C</text><text xml:space="preserve" font-family="MarkerFelt-Thin" font-size="80.0" fill="#45A6DE" transform="matrix(1.00, 0.00, -0.00, -1.00, 296.0, 626.0)">u</text><text xml:space="preserve" font-family="MarkerFelt-Thin" font-size="80.0" fill="#45A6DE" transform="matrix(1.00, 0.00, -0.00, -1.00, 330.8, 626.0)">m</text><text xml:space="preserve" font-family="MarkerFelt-Thin" font-size="80.0" fill="#45A6DE" transform="matrix(1.00, 0.00, -0.00, -1.00, 388.4, 626.0)">u</text><text xml:space="preserve" font-family="MarkerFelt-Thin" font-size="80.0" fill="#45A6DE" transform="matrix(1.00, 0.00, -0.00, -1.00, 424.2, 626.0)">l</text><text xml:space="preserve" font-family="MarkerFelt-Thin" font-size="80.0" fill="#45A6DE" transform="matrix(1.00, 0.00, -0.00, -1.00, 443.9, 626.0)">a</text><text xml:space="preserve" font-family="MarkerFelt-Thin" font-size="80.0" fill="#45A6DE" transform="matrix(1.00, 0.00, -0.00, -1.00, 483.0, 626.0)">t</text><text xml:space="preserve" font-family="MarkerFelt-Thin" font-size="80.0" fill="#45A6DE" transform="matrix(1.00, 0.00, -0.00, -1.00, 517.4, 626.0)">i</text><text xml:space="preserve" font-family="MarkerFelt-Thin" font-size="80.0" fill="#45A6DE" transform="matrix(1.00, 0.00, -0.00, -1.00, 540.3, 626.0)">v</text><text xml:space="preserve" font-family="MarkerFelt-Thin" font-size="80.0" fill="#45A6DE" transform="matrix(1.00, 0.00, -0.00, -1.00, 577.2, 626.0)">e</text><text xml:space="preserve" font-family="MarkerFelt-Thin" font-size="80.0" fill="#45A6DE" transform="matrix(1.00, 0.00, -0.00, -1.00, 607.6, 626.0)"> </text><text xml:space="preserve" font-family="MarkerFelt-Thin" font-size="80.0" fill="#45A6DE" transform="matrix(1.00, 0.00, -0.00, -1.00, 627.6, 626.0)">C</text><text xml:space="preserve" font-family="MarkerFelt-Thin" font-size="80.0" fill="#45A6DE" transform="matrix(1.00, 0.00, -0.00, -1.00, 667.9, 626.0)">o</text><text xml:space="preserve" font-family="MarkerFelt-Thin" font-size="80.0" fill="#45A6DE" transform="matrix(1.00, 0.00, -0.00, -1.00, 704.2, 626.0)">s</text><text xml:space="preserve" font-family="MarkerFelt-Thin" font-size="80.0" fill="#45A6DE" transform="matrix(1.00, 0.00, -0.00, -1.00, 739.0, 626.0)">t</text><path d="M 267.3 63.0 L 267.3 374.0 " fill="none" stroke="#B8B8B8" stroke-width="1.00" transform="matrix(1.00, 0.00, 0.00, -1.00, 98.2, 559.0)"></path><path d="M 448.3 63.0 L 448.3 374.0 " fill="none" stroke="#B8B8B8" stroke-width="1.00" transform="matrix(1.00, 0.00, 0.00, -1.00, 98.2, 559.0)"></path><path d="M 630.3 63.0 L 630.3 374.0 " fill="none" stroke="#B8B8B8" stroke-width="1.00" transform="matrix(1.00, 0.00, 0.00, -1.00, 98.2, 559.0)"></path><path d="M 811.3 63.0 L 811.3 374.0 " fill="none" stroke="#B8B8B8" stroke-width="1.00" transform="matrix(1.00, 0.00, 0.00, -1.00, 98.2, 559.0)"></path><g><g><clipPath id="clip-120"><path d="M 0.0 0.0 L 1024.0 0.0 L 1024.0 768.0 L 0.0 768.0 Z M 0.0 0.0 "></path></clipPath><g clip-path="url(#clip-120)"><path d="M 85.3 374.5 L 85.3 62.5 " fill="none" stroke="#858585" stroke-opacity="0.56" stroke-width="1.00" stroke-linecap="square" transform="matrix(1.00, 0.00, 0.00, -1.00, 98.2, 559.0)"></path></g></g></g><g><g><clipPath id="clip-121"><path d="M 97.2 402.8 L 164.8 402.8 L 164.8 433.8 L 97.2 433.8 Z M 97.2 402.8 "></path></clipPath><g clip-path="url(#clip-121)"><text xml:space="preserve" font-family="MarkerFelt-Thin" font-size="27.0" fill="#858585" transform="matrix(1.00, 0.00, -0.00, -1.00, 99.0, 410.0)">J</text><text xml:space="preserve" font-family="MarkerFelt-Thin" font-size="27.0" fill="#858585" transform="matrix(1.00, 0.00, -0.00, -1.00, 110.6, 410.0)">e</text><text xml:space="preserve" font-family="MarkerFelt-Thin" font-size="27.0" fill="#858585" transform="matrix(1.00, 0.00, -0.00, -1.00, 122.6, 410.0)">n</text><text xml:space="preserve" font-family="MarkerFelt-Thin" font-size="27.0" fill="#858585" transform="matrix(1.00, 0.00, -0.00, -1.00, 136.9, 410.0)">n</text><text xml:space="preserve" font-family="MarkerFelt-Thin" font-size="27.0" fill="#858585" transform="matrix(1.00, 0.00, -0.00, -1.00, 150.9, 410.0)">y</text></g></g><g><clipPath id="clip-122"><path d="M 124.0 247.1 L 164.8 247.1 L 164.8 278.1 L 124.0 278.1 Z M 124.0 247.1 "></path></clipPath><g clip-path="url(#clip-122)"><text xml:space="preserve" font-family="MarkerFelt-Thin" font-size="27.0" fill="#858585" transform="matrix(1.00, 0.00, -0.00, -1.00, 126.0, 254.0)">B</text><text xml:space="preserve" font-family="MarkerFelt-Thin" font-size="27.0" fill="#858585" transform="matrix(1.00, 0.00, -0.00, -1.00, 140.2, 254.0)">o</text><text xml:space="preserve" font-family="MarkerFelt-Thin" font-size="27.0" fill="#858585" transform="matrix(1.00, 0.00, -0.00, -1.00, 152.2, 254.0)">b</text></g></g><g><clipPath id="clip-123"><path d="M 183.9 99.6 L 909.9 99.6 L 909.9 143.1 L 183.9 143.1 Z M 183.9 99.6 "></path></clipPath><g clip-path="url(#clip-123)"><text xml:space="preserve" font-family="MarkerFelt-Thin" font-size="27.0" fill="#858585" transform="matrix(1.00, 0.00, -0.00, -1.00, 461.0, 106.0)">D</text><text xml:space="preserve" font-family="MarkerFelt-Thin" font-size="27.0" fill="#858585" transform="matrix(1.00, 0.00, -0.00, -1.00, 474.2, 106.0)">a</text><text xml:space="preserve" font-family="MarkerFelt-Thin" font-size="27.0" fill="#858585" transform="matrix(1.00, 0.00, -0.00, -1.00, 486.6, 106.0)">y</text><text xml:space="preserve" font-family="MarkerFelt-Thin" font-size="27.0" fill="#858585" transform="matrix(1.00, 0.00, -0.00, -1.00, 499.3, 106.0)">s</text><text xml:space="preserve" font-family="MarkerFelt-Thin" font-size="27.0" fill="#858585" transform="matrix(1.00, 0.00, -0.00, -1.00, 509.3, 106.0)"> </text><text xml:space="preserve" font-family="MarkerFelt-Thin" font-size="27.0" fill="#858585" transform="matrix(1.00, 0.00, -0.00, -1.00, 516.1, 106.0)">t</text><text xml:space="preserve" font-family="MarkerFelt-Thin" font-size="27.0" fill="#858585" transform="matrix(1.00, 0.00, -0.00, -1.00, 526.9, 106.0)">o</text><text xml:space="preserve" font-family="MarkerFelt-Thin" font-size="27.0" fill="#858585" transform="matrix(1.00, 0.00, -0.00, -1.00, 538.0, 106.0)"> </text><text xml:space="preserve" font-family="MarkerFelt-Thin" font-size="27.0" fill="#858585" transform="matrix(1.00, 0.00, -0.00, -1.00, 544.8, 106.0)">M</text><text xml:space="preserve" font-family="MarkerFelt-Thin" font-size="27.0" fill="#858585" transform="matrix(1.00, 0.00, -0.00, -1.00, 571.1, 106.0)">a</text><text xml:space="preserve" font-family="MarkerFelt-Thin" font-size="27.0" fill="#858585" transform="matrix(1.00, 0.00, -0.00, -1.00, 584.6, 106.0)">r</text><text xml:space="preserve" font-family="MarkerFelt-Thin" font-size="27.0" fill="#858585" transform="matrix(1.00, 0.00, -0.00, -1.00, 596.4, 106.0)">k</text><text xml:space="preserve" font-family="MarkerFelt-Thin" font-size="27.0" fill="#858585" transform="matrix(1.00, 0.00, -0.00, -1.00, 610.5, 106.0)">e</text><text xml:space="preserve" font-family="MarkerFelt-Thin" font-size="27.0" fill="#858585" transform="matrix(1.00, 0.00, -0.00, -1.00, 623.0, 106.0)">t</text></g></g><g><clipPath id="clip-124"><path d="M 174.7 142.1 L 193.1 142.1 L 193.1 173.1 L 174.7 173.1 Z M 174.7 142.1 "></path></clipPath><g clip-path="url(#clip-124)"><text xml:space="preserve" font-family="MarkerFelt-Thin" font-size="27.0" fill="#858585" transform="matrix(1.00, 0.00, -0.00, -1.00, 176.0, 149.0)">0</text></g></g><g><clipPath id="clip-125"><path d="M 339.2 142.1 L 391.7 142.1 L 391.7 173.1 L 339.2 173.1 Z M 339.2 142.1 "></path></clipPath><g clip-path="url(#clip-125)"><text xml:space="preserve" font-family="MarkerFelt-Thin" font-size="27.0" fill="#858585" transform="matrix(1.00, 0.00, -0.00, -1.00, 341.0, 149.0)">0</text><text xml:space="preserve" font-family="MarkerFelt-Thin" font-size="27.0" fill="#858585" transform="matrix(1.00, 0.00, -0.00, -1.00, 355.1, 149.0)">.</text><text xml:space="preserve" font-family="MarkerFelt-Thin" font-size="27.0" fill="#858585" transform="matrix(1.00, 0.00, -0.00, -1.00, 361.0, 149.0)">7</text><text xml:space="preserve" font-family="MarkerFelt-Thin" font-size="27.0" fill="#858585" transform="matrix(1.00, 0.00, -0.00, -1.00, 376.4, 149.0)">5</text></g></g><g><clipPath id="clip-126"><path d="M 528.4 142.1 L 565.5 142.1 L 565.5 173.1 L 528.4 173.1 Z M 528.4 142.1 "></path></clipPath><g clip-path="url(#clip-126)"><text xml:space="preserve" font-family="MarkerFelt-Thin" font-size="27.0" fill="#858585" transform="matrix(1.00, 0.00, -0.00, -1.00, 530.0, 149.0)">1</text><text xml:space="preserve" font-family="MarkerFelt-Thin" font-size="27.0" fill="#858585" transform="matrix(1.00, 0.00, -0.00, -1.00, 542.5, 149.0)">.</text><text xml:space="preserve" font-family="MarkerFelt-Thin" font-size="27.0" fill="#858585" transform="matrix(1.00, 0.00, -0.00, -1.00, 548.5, 149.0)">5</text></g></g><g><clipPath id="clip-127"><path d="M 702.2 142.1 L 754.7 142.1 L 754.7 173.1 L 702.2 173.1 Z M 702.2 142.1 "></path></clipPath><g clip-path="url(#clip-127)"><text xml:space="preserve" font-family="MarkerFelt-Thin" font-size="27.0" fill="#858585" transform="matrix(1.00, 0.00, -0.00, -1.00, 704.0, 149.0)">2</text><text xml:space="preserve" font-family="MarkerFelt-Thin" font-size="27.0" fill="#858585" transform="matrix(1.00, 0.00, -0.00, -1.00, 720.4, 149.0)">.</text><text xml:space="preserve" font-family="MarkerFelt-Thin" font-size="27.0" fill="#858585" transform="matrix(1.00, 0.00, -0.00, -1.00, 726.4, 149.0)">2</text><text xml:space="preserve" font-family="MarkerFelt-Thin" font-size="27.0" fill="#858585" transform="matrix(1.00, 0.00, -0.00, -1.00, 741.8, 149.0)">5</text></g></g><g><clipPath id="clip-128"><path d="M 900.8 142.1 L 919.1 142.1 L 919.1 173.1 L 900.8 173.1 Z M 900.8 142.1 "></path></clipPath><g clip-path="url(#clip-128)"><text xml:space="preserve" font-family="MarkerFelt-Thin" font-size="27.0" fill="#858585" transform="matrix(1.00, 0.00, -0.00, -1.00, 902.0, 149.0)">3</text></g></g></g><g><clipPath id="clip-129"><path d="M 183.9 184.8 L 909.9 184.8 L 909.9 496.1 L 183.9 496.1 Z M 183.9 184.8 "></path></clipPath><g clip-path="url(#clip-129)"><path d="M 184.0 444.0 L 909.0 444.0 L 909.0 392.0 L 184.0 392.0 Z M 184.0 444.0 " fill="#2E578B"></path></g></g><g><clipPath id="clip-130"><path d="M 183.9 184.8 L 909.9 184.8 L 909.9 496.1 L 183.9 496.1 Z M 183.9 184.8 "></path></clipPath><g clip-path="url(#clip-130)"><path d="M 184.0 289.0 L 909.0 289.0 L 909.0 237.0 L 184.0 237.0 Z M 184.0 289.0 " fill="#2E578B"></path></g></g><path d="M 448.0 556.0 L 471.0 556.0 L 471.0 533.0 L 448.0 533.0 Z M 448.0 556.0 " fill="#2E578B"></path><text xml:space="preserve" font-family="MarkerFelt-Thin" font-size="27.0" fill="#858585" transform="matrix(1.00, 0.00, -0.00, -1.00, 486.0, 536.0)">P</text><text xml:space="preserve" font-family="MarkerFelt-Thin" font-size="27.0" fill="#858585" transform="matrix(1.00, 0.00, -0.00, -1.00, 498.1, 536.0)">r</text><text xml:space="preserve" font-family="MarkerFelt-Thin" font-size="27.0" fill="#858585" transform="matrix(1.00, 0.00, -0.00, -1.00, 509.1, 536.0)">o</text><text xml:space="preserve" font-family="MarkerFelt-Thin" font-size="27.0" fill="#858585" transform="matrix(1.00, 0.00, -0.00, -1.00, 522.1, 536.0)">t</text><text xml:space="preserve" font-family="MarkerFelt-Thin" font-size="27.0" fill="#858585" transform="matrix(1.00, 0.00, -0.00, -1.00, 532.9, 536.0)">o</text><text xml:space="preserve" font-family="MarkerFelt-Thin" font-size="27.0" fill="#858585" transform="matrix(1.00, 0.00, -0.00, -1.00, 545.9, 536.0)">t</text><text xml:space="preserve" font-family="MarkerFelt-Thin" font-size="27.0" fill="#858585" transform="matrix(1.00, 0.00, -0.00, -1.00, 558.1, 536.0)">y</text><text xml:space="preserve" font-family="MarkerFelt-Thin" font-size="27.0" fill="#858585" transform="matrix(1.00, 0.00, -0.00, -1.00, 571.9, 536.0)">p</text><text xml:space="preserve" font-family="MarkerFelt-Thin" font-size="27.0" fill="#858585" transform="matrix(1.00, 0.00, -0.00, -1.00, 584.5, 536.0)">e</text></g></svg>