<?xml version="1.0" encoding="UTF-8" standalone="no"?><svg xmlns="http://www.w3.org/2000/svg" xmlns:xlink="http://www.w3.org/1999/xlink" clip-rule="evenodd" stroke-miterlimit="4.00" viewBox="0 0 1024 768"><desc>SVG generated by Keynote</desc><defs></defs><g transform="matrix(1.00, 0.00, -0.00, -1.00, 0.0, 768.0)"><path d="M 0.0 768.0 L 1024.0 768.0 L 1024.0 0.0 L 0.0 0.0 Z M 0.0 768.0 " fill="#FEFFFF"></path><text xml:space="preserve" font-family="Helvetica-Light" font-size="80.0" fill="#000000" transform="matrix(1.00, 0.00, -0.00, -1.00, 250.0, 618.0)">F</text><text xml:space="preserve" font-family="Helvetica-Light" font-size="80.0" fill="#000000" transform="matrix(1.00, 0.00, -0.00, -1.00, 294.5, 618.0)">i</text><text xml:space="preserve" font-family="Helvetica-Light" font-size="80.0" fill="#000000" transform="matrix(1.00, 0.00, -0.00, -1.00, 312.2, 618.0)">n</text><text xml:space="preserve" font-family="Helvetica-Light" font-size="80.0" fill="#000000" transform="matrix(1.00, 0.00, -0.00, -1.00, 356.7, 618.0)">a</text><text xml:space="preserve" font-family="Helvetica-Light" font-size="80.0" fill="#000000" transform="matrix(1.00, 0.00, -0.00, -1.00, 401.2, 618.0)">l</text><text xml:space="preserve" font-family="Helvetica-Light" font-size="80.0" fill="#000000" transform="matrix(1.00, 0.00, -0.00, -1.00, 419.0, 618.0)"> </text><text xml:space="preserve" font-family="Helvetica-Light" font-size="80.0" fill="#000000" transform="matrix(1.00, 0.00, -0.00, -1.00, 441.2, 618.0)">T</text><text xml:space="preserve" font-family="Helvetica-Light" font-size="80.0" fill="#000000" transform="matrix(1.00, 0.00, -0.00, -1.00, 485.7, 618.0)">h</text><text xml:space="preserve" font-family="Helvetica-Light" font-size="80.0" fill="#000000" transform="matrix(1.00, 0.00, -0.00, -1.00, 530.2, 618.0)">o</text><text xml:space="preserve" font-family="Helvetica-Light" font-size="80.0" fill="#000000" transform="matrix(1.00, 0.00, -0.00, -1.00, 574.6, 618.0)">u</text><text xml:space="preserve" font-family="Helvetica-Light" font-size="80.0" fill="#000000" transform="matrix(1.00, 0.00, -0.00, -1.00, 619.1, 618.0)">g</text><text xml:space="preserve" font-family="Helvetica-Light" font-size="80.0" fill="#000000" transform="matrix(1.00, 0.00, -0.00, -1.00, 668.0, 618.0)">h</text><text xml:space="preserve" font-family="Helvetica-Light" font-size="80.0" fill="#000000" transform="matrix(1.00, 0.00, -0.00, -1.00, 712.5, 618.0)">t</text><text xml:space="preserve" font-family="Helvetica-Light" font-size="80.0" fill="#000000" transform="matrix(1.00, 0.00, -0.00, -1.00, 734.7, 618.0)">s</text><text xml:space="preserve" font-family="Helvetica-Light" font-size="20.8" fill="#000000" transform="matrix(1.00, 0.00, -0.00, -1.00, 79.0, 547.6)">•</text><text xml:space="preserve" font-family="Helvetica-Light" font-size="27.7" fill="#000000" transform="matrix(1.00, 0.00, -0.00, -1.00, 106.0, 546.0)">I</text><text xml:space="preserve" font-family="Helvetica-Light" font-size="27.7" fill="#000000" transform="matrix(1.00, 0.00, -0.00, -1.00, 113.7, 546.0)">’</text><text xml:space="preserve" font-family="Helvetica-Light" font-size="27.7" fill="#000000" transform="matrix(1.00, 0.00, -0.00, -1.00, 119.9, 546.0)">v</text><text xml:space="preserve" font-family="Helvetica-Light" font-size="27.7" fill="#000000" transform="matrix(1.00, 0.00, -0.00, -1.00, 133.7, 546.0)">e</text><text xml:space="preserve" font-family="Helvetica-Light" font-size="27.7" fill="#000000" transform="matrix(1.00, 0.00, -0.00, -1.00, 149.1, 546.0)"> </text><text xml:space="preserve" font-family="Helvetica-Light" font-size="27.7" fill="#000000" transform="matrix(1.00, 0.00, -0.00, -1.00, 156.8, 546.0)">b</text><text xml:space="preserve" font-family="Helvetica-Light" font-size="27.7" fill="#000000" transform="matrix(1.00, 0.00, -0.00, -1.00, 173.8, 546.0)">e</text><text xml:space="preserve" font-family="Helvetica-Light" font-size="27.7" fill="#000000" transform="matrix(1.00, 0.00, -0.00, -1.00, 189.2, 546.0)">e</text><text xml:space="preserve" font-family="Helvetica-Light" font-size="27.7" fill="#000000" transform="matrix(1.00, 0.00, -0.00, -1.00, 204.6, 546.0)">n</text><text xml:space="preserve" font-family="Helvetica-Light" font-size="27.7" fill="#000000" transform="matrix(1.00, 0.00, -0.00, -1.00, 220.0, 546.0)"> </text><text xml:space="preserve" font-family="Helvetica-Light" font-size="27.7" fill="#000000" transform="matrix(1.00, 0.00, -0.00, -1.00, 227.7, 546.0)">d</text><text xml:space="preserve" font-family="Helvetica-Light" font-size="27.7" fill="#000000" transform="matrix(1.00, 0.00, -0.00, -1.00, 244.7, 546.0)">o</text><text xml:space="preserve" font-family="Helvetica-Light" font-size="27.7" fill="#000000" transform="matrix(1.00, 0.00, -0.00, -1.00, 260.1, 546.0)">i</text><text xml:space="preserve" font-family="Helvetica-Light" font-size="27.7" fill="#000000" transform="matrix(1.00, 0.00, -0.00, -1.00, 266.2, 546.0)">n</text><text xml:space="preserve" font-family="Helvetica-Light" font-size="27.7" fill="#000000" transform="matrix(1.00, 0.00, -0.00, -1.00, 281.6, 546.0)">g</text><text xml:space="preserve" font-family="Helvetica-Light" font-size="27.7" fill="#000000" transform="matrix(1.00, 0.00, -0.00, -1.00, 298.6, 546.0)"> </text><text xml:space="preserve" font-family="Helvetica-Light" font-size="27.7" fill="#000000" transform="matrix(1.00, 0.00, -0.00, -1.00, 306.3, 546.0)">O</text><text xml:space="preserve" font-family="Helvetica-Light" font-size="27.7" fill="#000000" transform="matrix(1.00, 0.00, -0.00, -1.00, 327.8, 546.0)">O</text><text xml:space="preserve" font-family="Helvetica-Light" font-size="27.7" fill="#000000" transform="matrix(1.00, 0.00, -0.00, -1.00, 349.4, 546.0)">P</text><text xml:space="preserve" font-family="Helvetica-Light" font-size="27.7" fill="#000000" transform="matrix(1.00, 0.00, -0.00, -1.00, 366.3, 546.0)"> </text><text xml:space="preserve" font-family="Helvetica-Light" font-size="27.7" fill="#000000" transform="matrix(1.00, 0.00, -0.00, -1.00, 374.1, 546.0)">f</text><text xml:space="preserve" font-family="Helvetica-Light" font-size="27.7" fill="#000000" transform="matrix(1.00, 0.00, -0.00, -1.00, 381.8, 546.0)">o</text><text xml:space="preserve" font-family="Helvetica-Light" font-size="27.7" fill="#000000" transform="matrix(1.00, 0.00, -0.00, -1.00, 397.2, 546.0)">r</text><text xml:space="preserve" font-family="Helvetica-Light" font-size="27.7" fill="#000000" transform="matrix(1.00, 0.00, -0.00, -1.00, 406.4, 546.0)"> </text><text xml:space="preserve" font-family="Helvetica-Light" font-size="27.7" fill="#000000" transform="matrix(1.00, 0.00, -0.00, -1.00, 414.1, 546.0)">w</text><text xml:space="preserve" font-family="Helvetica-Light" font-size="27.7" fill="#000000" transform="matrix(1.00, 0.00, -0.00, -1.00, 434.1, 546.0)">e</text><text xml:space="preserve" font-family="Helvetica-Light" font-size="27.7" fill="#000000" transform="matrix(1.00, 0.00, -0.00, -1.00, 449.5, 546.0)">l</text><text xml:space="preserve" font-family="Helvetica-Light" font-size="27.7" fill="#000000" transform="matrix(1.00, 0.00, -0.00, -1.00, 455.7, 546.0)">l</text><text xml:space="preserve" font-family="Helvetica-Light" font-size="27.7" fill="#000000" transform="matrix(1.00, 0.00, -0.00, -1.00, 461.8, 546.0)"> </text><text xml:space="preserve" font-family="Helvetica-Light" font-size="27.7" fill="#000000" transform="matrix(1.00, 0.00, -0.00, -1.00, 469.5, 546.0)">o</text><text xml:space="preserve" font-family="Helvetica-Light" font-size="27.7" fill="#000000" transform="matrix(1.00, 0.00, -0.00, -1.00, 485.0, 546.0)">v</text><text xml:space="preserve" font-family="Helvetica-Light" font-size="27.7" fill="#000000" transform="matrix(1.00, 0.00, -0.00, -1.00, 498.8, 546.0)">e</text><text xml:space="preserve" font-family="Helvetica-Light" font-size="27.7" fill="#000000" transform="matrix(1.00, 0.00, -0.00, -1.00, 514.2, 546.0)">r</text><text xml:space="preserve" font-family="Helvetica-Light" font-size="27.7" fill="#000000" transform="matrix(1.00, 0.00, -0.00, -1.00, 523.5, 546.0)"> </text><text xml:space="preserve" font-family="Helvetica-Light" font-size="27.7" fill="#000000" transform="matrix(1.00, 0.00, -0.00, -1.00, 531.2, 546.0)">a</text><text xml:space="preserve" font-family="Helvetica-Light" font-size="27.7" fill="#000000" transform="matrix(1.00, 0.00, -0.00, -1.00, 546.6, 546.0)"> </text><text xml:space="preserve" font-family="Helvetica-Light" font-size="27.7" fill="#000000" transform="matrix(1.00, 0.00, -0.00, -1.00, 554.3, 546.0)">d</text><text xml:space="preserve" font-family="Helvetica-Light" font-size="27.7" fill="#000000" transform="matrix(1.00, 0.00, -0.00, -1.00, 571.2, 546.0)">e</text><text xml:space="preserve" font-family="Helvetica-Light" font-size="27.7" fill="#000000" transform="matrix(1.00, 0.00, -0.00, -1.00, 586.6, 546.0)">c</text><text xml:space="preserve" font-family="Helvetica-Light" font-size="27.7" fill="#000000" transform="matrix(1.00, 0.00, -0.00, -1.00, 602.0, 546.0)">a</text><text xml:space="preserve" font-family="Helvetica-Light" font-size="27.7" fill="#000000" transform="matrix(1.00, 0.00, -0.00, -1.00, 617.5, 546.0)">d</text><text xml:space="preserve" font-family="Helvetica-Light" font-size="27.7" fill="#000000" transform="matrix(1.00, 0.00, -0.00, -1.00, 634.4, 546.0)">e</text><text xml:space="preserve" font-family="Helvetica-Light" font-size="27.7" fill="#000000" transform="matrix(1.00, 0.00, -0.00, -1.00, 649.8, 546.0)"> </text><text xml:space="preserve" font-family="Helvetica-Light" font-size="20.8" fill="#000000" transform="matrix(1.00, 0.00, -0.00, -1.00, 79.0, 483.2)">•</text><text xml:space="preserve" font-family="Helvetica-Light" font-size="27.7" fill="#000000" transform="matrix(1.00, 0.00, -0.00, -1.00, 106.0, 481.0)">I</text><text xml:space="preserve" font-family="Helvetica-Light" font-size="27.7" fill="#000000" transform="matrix(1.00, 0.00, -0.00, -1.00, 113.7, 481.0)"> </text><text xml:space="preserve" font-family="Helvetica-Light" font-size="27.7" fill="#000000" transform="matrix(1.00, 0.00, -0.00, -1.00, 121.4, 481.0)">k</text><text xml:space="preserve" font-family="Helvetica-Light" font-size="27.7" fill="#000000" transform="matrix(1.00, 0.00, -0.00, -1.00, 135.3, 481.0)">n</text><text xml:space="preserve" font-family="Helvetica-Light" font-size="27.7" fill="#000000" transform="matrix(1.00, 0.00, -0.00, -1.00, 150.7, 481.0)">o</text><text xml:space="preserve" font-family="Helvetica-Light" font-size="27.7" fill="#000000" transform="matrix(1.00, 0.00, -0.00, -1.00, 166.1, 481.0)">w</text><text xml:space="preserve" font-family="Helvetica-Light" font-size="27.7" fill="#000000" transform="matrix(1.00, 0.00, -0.00, -1.00, 186.1, 481.0)"> </text><text xml:space="preserve" font-family="Helvetica-Light" font-size="27.7" fill="#000000" transform="matrix(1.00, 0.00, -0.00, -1.00, 193.8, 481.0)">t</text><text xml:space="preserve" font-family="Helvetica-Light" font-size="27.7" fill="#000000" transform="matrix(1.00, 0.00, -0.00, -1.00, 201.5, 481.0)">h</text><text xml:space="preserve" font-family="Helvetica-Light" font-size="27.7" fill="#000000" transform="matrix(1.00, 0.00, -0.00, -1.00, 216.9, 481.0)">e</text><text xml:space="preserve" font-family="Helvetica-Light" font-size="27.7" fill="#000000" transform="matrix(1.00, 0.00, -0.00, -1.00, 232.3, 481.0)"> </text><text xml:space="preserve" font-family="Helvetica-Light" font-size="27.7" fill="#000000" transform="matrix(1.00, 0.00, -0.00, -1.00, 240.1, 481.0)">p</text><text xml:space="preserve" font-family="Helvetica-Light" font-size="27.7" fill="#000000" transform="matrix(1.00, 0.00, -0.00, -1.00, 257.0, 481.0)">i</text><text xml:space="preserve" font-family="Helvetica-Light" font-size="27.7" fill="#000000" transform="matrix(1.00, 0.00, -0.00, -1.00, 263.1, 481.0)">t</text><text xml:space="preserve" font-family="Helvetica-Light" font-size="27.7" fill="#000000" transform="matrix(1.00, 0.00, -0.00, -1.00, 270.9, 481.0)">f</text><text xml:space="preserve" font-family="Helvetica-Light" font-size="27.7" fill="#000000" transform="matrix(1.00, 0.00, -0.00, -1.00, 278.6, 481.0)">a</text><text xml:space="preserve" font-family="Helvetica-Light" font-size="27.7" fill="#000000" transform="matrix(1.00, 0.00, -0.00, -1.00, 294.0, 481.0)">l</text><text xml:space="preserve" font-family="Helvetica-Light" font-size="27.7" fill="#000000" transform="matrix(1.00, 0.00, -0.00, -1.00, 300.1, 481.0)">l</text><text xml:space="preserve" font-family="Helvetica-Light" font-size="27.7" fill="#000000" transform="matrix(1.00, 0.00, -0.00, -1.00, 306.3, 481.0)">s</text><text xml:space="preserve" font-family="Helvetica-Light" font-size="27.7" fill="#000000" transform="matrix(1.00, 0.00, -0.00, -1.00, 320.1, 481.0)"> </text><text xml:space="preserve" font-family="Helvetica-Light" font-size="27.7" fill="#000000" transform="matrix(1.00, 0.00, -0.00, -1.00, 327.8, 481.0)">a</text><text xml:space="preserve" font-family="Helvetica-Light" font-size="27.7" fill="#000000" transform="matrix(1.00, 0.00, -0.00, -1.00, 343.3, 481.0)">n</text><text xml:space="preserve" font-family="Helvetica-Light" font-size="27.7" fill="#000000" transform="matrix(1.00, 0.00, -0.00, -1.00, 358.7, 481.0)">d</text><text xml:space="preserve" font-family="Helvetica-Light" font-size="27.7" fill="#000000" transform="matrix(1.00, 0.00, -0.00, -1.00, 375.6, 481.0)"> </text><text xml:space="preserve" font-family="Helvetica-Light" font-size="27.7" fill="#000000" transform="matrix(1.00, 0.00, -0.00, -1.00, 383.3, 481.0)">f</text><text xml:space="preserve" font-family="Helvetica-Light" font-size="27.7" fill="#000000" transform="matrix(1.00, 0.00, -0.00, -1.00, 391.0, 481.0)">e</text><text xml:space="preserve" font-family="Helvetica-Light" font-size="27.7" fill="#000000" transform="matrix(1.00, 0.00, -0.00, -1.00, 406.4, 481.0)">l</text><text xml:space="preserve" font-family="Helvetica-Light" font-size="27.7" fill="#000000" transform="matrix(1.00, 0.00, -0.00, -1.00, 412.6, 481.0)">t</text><text xml:space="preserve" font-family="Helvetica-Light" font-size="27.7" fill="#000000" transform="matrix(1.00, 0.00, -0.00, -1.00, 420.3, 481.0)"> </text><text xml:space="preserve" font-family="Helvetica-Light" font-size="27.7" fill="#000000" transform="matrix(1.00, 0.00, -0.00, -1.00, 428.0, 481.0)">t</text><text xml:space="preserve" font-family="Helvetica-Light" font-size="27.7" fill="#000000" transform="matrix(1.00, 0.00, -0.00, -1.00, 435.7, 481.0)">h</text><text xml:space="preserve" font-family="Helvetica-Light" font-size="27.7" fill="#000000" transform="matrix(1.00, 0.00, -0.00, -1.00, 451.1, 481.0)">e</text><text xml:space="preserve" font-family="Helvetica-Light" font-size="27.7" fill="#000000" transform="matrix(1.00, 0.00, -0.00, -1.00, 466.5, 481.0)"> </text><text xml:space="preserve" font-family="Helvetica-Light" font-size="27.7" fill="#000000" transform="matrix(1.00, 0.00, -0.00, -1.00, 474.2, 481.0)">p</text><text xml:space="preserve" font-family="Helvetica-Light" font-size="27.7" fill="#000000" transform="matrix(1.00, 0.00, -0.00, -1.00, 491.2, 481.0)">a</text><text xml:space="preserve" font-family="Helvetica-Light" font-size="27.7" fill="#000000" transform="matrix(1.00, 0.00, -0.00, -1.00, 506.6, 481.0)">i</text><text xml:space="preserve" font-family="Helvetica-Light" font-size="27.7" fill="#000000" transform="matrix(1.00, 0.00, -0.00, -1.00, 512.7, 481.0)">n</text><text xml:space="preserve" font-family="Helvetica-Light" font-size="27.7" fill="#000000" transform="matrix(1.00, 0.00, -0.00, -1.00, 528.1, 481.0)"> </text><text xml:space="preserve" font-family="Helvetica-Light" font-size="20.8" fill="#000000" transform="matrix(1.00, 0.00, -0.00, -1.00, 79.0, 418.9)">•</text><text xml:space="preserve" font-family="Helvetica-Light" font-size="27.7" fill="#000000" transform="matrix(1.00, 0.00, -0.00, -1.00, 106.0, 417.0)">D</text><text xml:space="preserve" font-family="Helvetica-Light" font-size="27.7" fill="#000000" transform="matrix(1.00, 0.00, -0.00, -1.00, 126.0, 417.0)">e</text><text xml:space="preserve" font-family="Helvetica-Light" font-size="27.7" fill="#000000" transform="matrix(1.00, 0.00, -0.00, -1.00, 141.4, 417.0)">s</text><text xml:space="preserve" font-family="Helvetica-Light" font-size="27.7" fill="#000000" transform="matrix(1.00, 0.00, -0.00, -1.00, 155.3, 417.0)">i</text><text xml:space="preserve" font-family="Helvetica-Light" font-size="27.7" fill="#000000" transform="matrix(1.00, 0.00, -0.00, -1.00, 161.4, 417.0)">g</text><text xml:space="preserve" font-family="Helvetica-Light" font-size="27.7" fill="#000000" transform="matrix(1.00, 0.00, -0.00, -1.00, 178.4, 417.0)">n</text><text xml:space="preserve" font-family="Helvetica-Light" font-size="27.7" fill="#000000" transform="matrix(1.00, 0.00, -0.00, -1.00, 193.8, 417.0)">i</text><text xml:space="preserve" font-family="Helvetica-Light" font-size="27.7" fill="#000000" transform="matrix(1.00, 0.00, -0.00, -1.00, 199.9, 417.0)">n</text><text xml:space="preserve" font-family="Helvetica-Light" font-size="27.7" fill="#000000" transform="matrix(1.00, 0.00, -0.00, -1.00, 215.4, 417.0)">g</text><text xml:space="preserve" font-family="Helvetica-Light" font-size="27.7" fill="#000000" transform="matrix(1.00, 0.00, -0.00, -1.00, 232.3, 417.0)"> </text><text xml:space="preserve" font-family="Helvetica-Light" font-size="27.7" fill="#000000" transform="matrix(1.00, 0.00, -0.00, -1.00, 240.0, 417.0)">d</text><text xml:space="preserve" font-family="Helvetica-Light" font-size="27.7" fill="#000000" transform="matrix(1.00, 0.00, -0.00, -1.00, 256.9, 417.0)">a</text><text xml:space="preserve" font-family="Helvetica-Light" font-size="27.7" fill="#000000" transform="matrix(1.00, 0.00, -0.00, -1.00, 272.3, 417.0)">t</text><text xml:space="preserve" font-family="Helvetica-Light" font-size="27.7" fill="#000000" transform="matrix(1.00, 0.00, -0.00, -1.00, 280.1, 417.0)">a</text><text xml:space="preserve" font-family="Helvetica-Light" font-size="27.7" fill="#000000" transform="matrix(1.00, 0.00, -0.00, -1.00, 295.5, 417.0)">-</text><text xml:space="preserve" font-family="Helvetica-Light" font-size="27.7" fill="#000000" transform="matrix(1.00, 0.00, -0.00, -1.00, 304.7, 417.0)">ﬁ</text><text xml:space="preserve" font-family="Helvetica-Light" font-size="27.7" fill="#000000" transform="matrix(1.00, 0.00, -0.00, -1.00, 318.6, 417.0)">r</text><text xml:space="preserve" font-family="Helvetica-Light" font-size="27.7" fill="#000000" transform="matrix(1.00, 0.00, -0.00, -1.00, 327.8, 417.0)">s</text><text xml:space="preserve" font-family="Helvetica-Light" font-size="27.7" fill="#000000" transform="matrix(1.00, 0.00, -0.00, -1.00, 341.6, 417.0)">t</text><text xml:space="preserve" font-family="Helvetica-Light" font-size="27.7" fill="#000000" transform="matrix(1.00, 0.00, -0.00, -1.00, 349.4, 417.0)"> </text><text xml:space="preserve" font-family="Helvetica-Light" font-size="27.7" fill="#000000" transform="matrix(1.00, 0.00, -0.00, -1.00, 357.1, 417.0)">i</text><text xml:space="preserve" font-family="Helvetica-Light" font-size="27.7" fill="#000000" transform="matrix(1.00, 0.00, -0.00, -1.00, 363.2, 417.0)">s</text><text xml:space="preserve" font-family="Helvetica-Light" font-size="27.7" fill="#000000" transform="matrix(1.00, 0.00, -0.00, -1.00, 377.1, 417.0)"> </text><text xml:space="preserve" font-family="Helvetica-Light" font-size="27.7" fill="#000000" transform="matrix(1.00, 0.00, -0.00, -1.00, 384.8, 417.0)">v</text><text xml:space="preserve" font-family="Helvetica-Light" font-size="27.7" fill="#000000" transform="matrix(1.00, 0.00, -0.00, -1.00, 398.6, 417.0)">e</text><text xml:space="preserve" font-family="Helvetica-Light" font-size="27.7" fill="#000000" transform="matrix(1.00, 0.00, -0.00, -1.00, 414.1, 417.0)">r</text><text xml:space="preserve" font-family="Helvetica-Light" font-size="27.7" fill="#000000" transform="matrix(1.00, 0.00, -0.00, -1.00, 423.8, 417.0)">y</text><text xml:space="preserve" font-family="Helvetica-Light" font-size="27.7" fill="#000000" transform="matrix(1.00, 0.00, -0.00, -1.00, 437.6, 417.0)"> </text><text xml:space="preserve" font-family="Helvetica-Light" font-size="27.7" fill="#000000" transform="matrix(1.00, 0.00, -0.00, -1.00, 445.3, 417.0)">r</text><text xml:space="preserve" font-family="Helvetica-Light" font-size="27.7" fill="#000000" transform="matrix(1.00, 0.00, -0.00, -1.00, 454.1, 417.0)">e</text><text xml:space="preserve" font-family="Helvetica-Light" font-size="27.7" fill="#000000" transform="matrix(1.00, 0.00, -0.00, -1.00, 469.5, 417.0)">f</text><text xml:space="preserve" font-family="Helvetica-Light" font-size="27.7" fill="#000000" transform="matrix(1.00, 0.00, -0.00, -1.00, 477.2, 417.0)">r</text><text xml:space="preserve" font-family="Helvetica-Light" font-size="27.7" fill="#000000" transform="matrix(1.00, 0.00, -0.00, -1.00, 485.9, 417.0)">e</text><text xml:space="preserve" font-family="Helvetica-Light" font-size="27.7" fill="#000000" transform="matrix(1.00, 0.00, -0.00, -1.00, 501.3, 417.0)">s</text><text xml:space="preserve" font-family="Helvetica-Light" font-size="27.7" fill="#000000" transform="matrix(1.00, 0.00, -0.00, -1.00, 515.2, 417.0)">h</text><text xml:space="preserve" font-family="Helvetica-Light" font-size="27.7" fill="#000000" transform="matrix(1.00, 0.00, -0.00, -1.00, 530.6, 417.0)">i</text><text xml:space="preserve" font-family="Helvetica-Light" font-size="27.7" fill="#000000" transform="matrix(1.00, 0.00, -0.00, -1.00, 536.8, 417.0)">n</text><text xml:space="preserve" font-family="Helvetica-Light" font-size="27.7" fill="#000000" transform="matrix(1.00, 0.00, -0.00, -1.00, 552.2, 417.0)">g</text><text xml:space="preserve" font-family="Helvetica-Light" font-size="27.7" fill="#000000" transform="matrix(1.00, 0.00, -0.00, -1.00, 569.1, 417.0)"> </text><text xml:space="preserve" font-family="Helvetica-Light" font-size="20.8" fill="#000000" transform="matrix(1.00, 0.00, -0.00, -1.00, 79.0, 354.6)">•</text><text xml:space="preserve" font-family="Helvetica-Light" font-size="27.7" fill="#000000" transform="matrix(1.00, 0.00, -0.00, -1.00, 106.0, 353.0)">A</text><text xml:space="preserve" font-family="Helvetica-Light" font-size="27.7" fill="#000000" transform="matrix(1.00, 0.00, -0.00, -1.00, 124.5, 353.0)">d</text><text xml:space="preserve" font-family="Helvetica-Light" font-size="27.7" fill="#000000" transform="matrix(1.00, 0.00, -0.00, -1.00, 141.4, 353.0)">v</text><text xml:space="preserve" font-family="Helvetica-Light" font-size="27.7" fill="#000000" transform="matrix(1.00, 0.00, -0.00, -1.00, 155.3, 353.0)">a</text><text xml:space="preserve" font-family="Helvetica-Light" font-size="27.7" fill="#000000" transform="matrix(1.00, 0.00, -0.00, -1.00, 170.7, 353.0)">n</text><text xml:space="preserve" font-family="Helvetica-Light" font-size="27.7" fill="#000000" transform="matrix(1.00, 0.00, -0.00, -1.00, 186.1, 353.0)">t</text><text xml:space="preserve" font-family="Helvetica-Light" font-size="27.7" fill="#000000" transform="matrix(1.00, 0.00, -0.00, -1.00, 193.8, 353.0)">a</text><text xml:space="preserve" font-family="Helvetica-Light" font-size="27.7" fill="#000000" transform="matrix(1.00, 0.00, -0.00, -1.00, 209.2, 353.0)">g</text><text xml:space="preserve" font-family="Helvetica-Light" font-size="27.7" fill="#000000" transform="matrix(1.00, 0.00, -0.00, -1.00, 226.2, 353.0)">e</text><text xml:space="preserve" font-family="Helvetica-Light" font-size="27.7" fill="#000000" transform="matrix(1.00, 0.00, -0.00, -1.00, 241.6, 353.0)">s</text><text xml:space="preserve" font-family="Helvetica-Light" font-size="27.7" fill="#000000" transform="matrix(1.00, 0.00, -0.00, -1.00, 255.4, 353.0)"> </text><text xml:space="preserve" font-family="Helvetica-Light" font-size="20.8" fill="#000000" transform="matrix(1.00, 0.00, -0.00, -1.00, 114.0, 290.2)">•</text><text xml:space="preserve" font-family="Helvetica-Light" font-size="27.7" fill="#000000" transform="matrix(1.00, 0.00, -0.00, -1.00, 141.0, 288.0)">M</text><text xml:space="preserve" font-family="Helvetica-Light" font-size="27.7" fill="#000000" transform="matrix(1.00, 0.00, -0.00, -1.00, 164.1, 288.0)">u</text><text xml:space="preserve" font-family="Helvetica-Light" font-size="27.7" fill="#000000" transform="matrix(1.00, 0.00, -0.00, -1.00, 179.5, 288.0)">c</text><text xml:space="preserve" font-family="Helvetica-Light" font-size="27.7" fill="#000000" transform="matrix(1.00, 0.00, -0.00, -1.00, 194.9, 288.0)">h</text><text xml:space="preserve" font-family="Helvetica-Light" font-size="27.7" fill="#000000" transform="matrix(1.00, 0.00, -0.00, -1.00, 210.3, 288.0)"> </text><text xml:space="preserve" font-family="Helvetica-Light" font-size="27.7" fill="#000000" transform="matrix(1.00, 0.00, -0.00, -1.00, 218.0, 288.0)">l</text><text xml:space="preserve" font-family="Helvetica-Light" font-size="27.7" fill="#000000" transform="matrix(1.00, 0.00, -0.00, -1.00, 224.2, 288.0)">e</text><text xml:space="preserve" font-family="Helvetica-Light" font-size="27.7" fill="#000000" transform="matrix(1.00, 0.00, -0.00, -1.00, 239.6, 288.0)">s</text><text xml:space="preserve" font-family="Helvetica-Light" font-size="27.7" fill="#000000" transform="matrix(1.00, 0.00, -0.00, -1.00, 253.5, 288.0)">s</text><text xml:space="preserve" font-family="Helvetica-Light" font-size="27.7" fill="#000000" transform="matrix(1.00, 0.00, -0.00, -1.00, 267.3, 288.0)"> </text><text xml:space="preserve" font-family="Helvetica-Light" font-size="27.7" fill="#000000" transform="matrix(1.00, 0.00, -0.00, -1.00, 275.0, 288.0)">c</text><text xml:space="preserve" font-family="Helvetica-Light" font-size="27.7" fill="#000000" transform="matrix(1.00, 0.00, -0.00, -1.00, 290.4, 288.0)">o</text><text xml:space="preserve" font-family="Helvetica-Light" font-size="27.7" fill="#000000" transform="matrix(1.00, 0.00, -0.00, -1.00, 305.9, 288.0)">d</text><text xml:space="preserve" font-family="Helvetica-Light" font-size="27.7" fill="#000000" transform="matrix(1.00, 0.00, -0.00, -1.00, 322.8, 288.0)">e</text><text xml:space="preserve" font-family="Helvetica-Light" font-size="27.7" fill="#000000" transform="matrix(1.00, 0.00, -0.00, -1.00, 338.2, 288.0)"> </text><text xml:space="preserve" font-family="Helvetica-Light" font-size="20.8" fill="#000000" transform="matrix(1.00, 0.00, -0.00, -1.00, 114.0, 225.9)">•</text><text xml:space="preserve" font-family="Helvetica-Light" font-size="27.7" fill="#000000" transform="matrix(1.00, 0.00, -0.00, -1.00, 141.0, 224.0)">M</text><text xml:space="preserve" font-family="Helvetica-Light" font-size="27.7" fill="#000000" transform="matrix(1.00, 0.00, -0.00, -1.00, 164.1, 224.0)">u</text><text xml:space="preserve" font-family="Helvetica-Light" font-size="27.7" fill="#000000" transform="matrix(1.00, 0.00, -0.00, -1.00, 179.5, 224.0)">c</text><text xml:space="preserve" font-family="Helvetica-Light" font-size="27.7" fill="#000000" transform="matrix(1.00, 0.00, -0.00, -1.00, 194.9, 224.0)">h</text><text xml:space="preserve" font-family="Helvetica-Light" font-size="27.7" fill="#000000" transform="matrix(1.00, 0.00, -0.00, -1.00, 210.3, 224.0)"> </text><text xml:space="preserve" font-family="Helvetica-Light" font-size="27.7" fill="#000000" transform="matrix(1.00, 0.00, -0.00, -1.00, 218.0, 224.0)">s</text><text xml:space="preserve" font-family="Helvetica-Light" font-size="27.7" fill="#000000" transform="matrix(1.00, 0.00, -0.00, -1.00, 231.9, 224.0)">h</text><text xml:space="preserve" font-family="Helvetica-Light" font-size="27.7" fill="#000000" transform="matrix(1.00, 0.00, -0.00, -1.00, 247.3, 224.0)">o</text><text xml:space="preserve" font-family="Helvetica-Light" font-size="27.7" fill="#000000" transform="matrix(1.00, 0.00, -0.00, -1.00, 262.7, 224.0)">r</text><text xml:space="preserve" font-family="Helvetica-Light" font-size="27.7" fill="#000000" transform="matrix(1.00, 0.00, -0.00, -1.00, 272.4, 224.0)">t</text><text xml:space="preserve" font-family="Helvetica-Light" font-size="27.7" fill="#000000" transform="matrix(1.00, 0.00, -0.00, -1.00, 280.2, 224.0)">e</text><text xml:space="preserve" font-family="Helvetica-Light" font-size="27.7" fill="#000000" transform="matrix(1.00, 0.00, -0.00, -1.00, 295.6, 224.0)">r</text><text xml:space="preserve" font-family="Helvetica-Light" font-size="27.7" fill="#000000" transform="matrix(1.00, 0.00, -0.00, -1.00, 304.8, 224.0)"> </text><text xml:space="preserve" font-family="Helvetica-Light" font-size="27.7" fill="#000000" transform="matrix(1.00, 0.00, -0.00, -1.00, 312.5, 224.0)">d</text><text xml:space="preserve" font-family="Helvetica-Light" font-size="27.7" fill="#000000" transform="matrix(1.00, 0.00, -0.00, -1.00, 329.4, 224.0)">e</text><text xml:space="preserve" font-family="Helvetica-Light" font-size="27.7" fill="#000000" transform="matrix(1.00, 0.00, -0.00, -1.00, 344.9, 224.0)">v</text><text xml:space="preserve" font-family="Helvetica-Light" font-size="27.7" fill="#000000" transform="matrix(1.00, 0.00, -0.00, -1.00, 358.7, 224.0)">e</text><text xml:space="preserve" font-family="Helvetica-Light" font-size="27.7" fill="#000000" transform="matrix(1.00, 0.00, -0.00, -1.00, 374.1, 224.0)">l</text><text xml:space="preserve" font-family="Helvetica-Light" font-size="27.7" fill="#000000" transform="matrix(1.00, 0.00, -0.00, -1.00, 380.3, 224.0)">o</text><text xml:space="preserve" font-family="Helvetica-Light" font-size="27.7" fill="#000000" transform="matrix(1.00, 0.00, -0.00, -1.00, 395.7, 224.0)">p</text><text xml:space="preserve" font-family="Helvetica-Light" font-size="27.7" fill="#000000" transform="matrix(1.00, 0.00, -0.00, -1.00, 412.6, 224.0)">m</text><text xml:space="preserve" font-family="Helvetica-Light" font-size="27.7" fill="#000000" transform="matrix(1.00, 0.00, -0.00, -1.00, 435.7, 224.0)">e</text><text xml:space="preserve" font-family="Helvetica-Light" font-size="27.7" fill="#000000" transform="matrix(1.00, 0.00, -0.00, -1.00, 451.1, 224.0)">n</text><text xml:space="preserve" font-family="Helvetica-Light" font-size="27.7" fill="#000000" transform="matrix(1.00, 0.00, -0.00, -1.00, 466.5, 224.0)">t</text><text xml:space="preserve" font-family="Helvetica-Light" font-size="27.7" fill="#000000" transform="matrix(1.00, 0.00, -0.00, -1.00, 474.2, 224.0)"> </text><text xml:space="preserve" font-family="Helvetica-Light" font-size="27.7" fill="#000000" transform="matrix(1.00, 0.00, -0.00, -1.00, 482.0, 224.0)">t</text><text xml:space="preserve" font-family="Helvetica-Light" font-size="27.7" fill="#000000" transform="matrix(1.00, 0.00, -0.00, -1.00, 489.7, 224.0)">i</text><text xml:space="preserve" font-family="Helvetica-Light" font-size="27.7" fill="#000000" transform="matrix(1.00, 0.00, -0.00, -1.00, 495.8, 224.0)">m</text><text xml:space="preserve" font-family="Helvetica-Light" font-size="27.7" fill="#000000" transform="matrix(1.00, 0.00, -0.00, -1.00, 518.9, 224.0)">e</text><text xml:space="preserve" font-family="Helvetica-Light" font-size="27.7" fill="#000000" transform="matrix(1.00, 0.00, -0.00, -1.00, 534.3, 224.0)"> </text><text xml:space="preserve" font-family="Helvetica-Light" font-size="20.8" fill="#000000" transform="matrix(1.00, 0.00, -0.00, -1.00, 114.0, 161.5)">•</text><text xml:space="preserve" font-family="Helvetica-Light" font-size="27.7" fill="#000000" transform="matrix(1.00, 0.00, -0.00, -1.00, 141.0, 160.0)">S</text><text xml:space="preserve" font-family="Helvetica-Light" font-size="27.7" fill="#000000" transform="matrix(1.00, 0.00, -0.00, -1.00, 157.9, 160.0)">i</text><text xml:space="preserve" font-family="Helvetica-Light" font-size="27.7" fill="#000000" transform="matrix(1.00, 0.00, -0.00, -1.00, 164.1, 160.0)">m</text><text xml:space="preserve" font-family="Helvetica-Light" font-size="27.7" fill="#000000" transform="matrix(1.00, 0.00, -0.00, -1.00, 187.2, 160.0)">p</text><text xml:space="preserve" font-family="Helvetica-Light" font-size="27.7" fill="#000000" transform="matrix(1.00, 0.00, -0.00, -1.00, 204.1, 160.0)">l</text><text xml:space="preserve" font-family="Helvetica-Light" font-size="27.7" fill="#000000" transform="matrix(1.00, 0.00, -0.00, -1.00, 210.3, 160.0)">e</text><text xml:space="preserve" font-family="Helvetica-Light" font-size="27.7" fill="#000000" transform="matrix(1.00, 0.00, -0.00, -1.00, 225.7, 160.0)">r</text><text xml:space="preserve" font-family="Helvetica-Light" font-size="27.7" fill="#000000" transform="matrix(1.00, 0.00, -0.00, -1.00, 234.9, 160.0)"> </text><text xml:space="preserve" font-family="Helvetica-Light" font-size="27.7" fill="#000000" transform="matrix(1.00, 0.00, -0.00, -1.00, 242.6, 160.0)">s</text><text xml:space="preserve" font-family="Helvetica-Light" font-size="27.7" fill="#000000" transform="matrix(1.00, 0.00, -0.00, -1.00, 256.5, 160.0)">o</text><text xml:space="preserve" font-family="Helvetica-Light" font-size="27.7" fill="#000000" transform="matrix(1.00, 0.00, -0.00, -1.00, 271.9, 160.0)">l</text><text xml:space="preserve" font-family="Helvetica-Light" font-size="27.7" fill="#000000" transform="matrix(1.00, 0.00, -0.00, -1.00, 278.0, 160.0)">u</text><text xml:space="preserve" font-family="Helvetica-Light" font-size="27.7" fill="#000000" transform="matrix(1.00, 0.00, -0.00, -1.00, 293.5, 160.0)">t</text><text xml:space="preserve" font-family="Helvetica-Light" font-size="27.7" fill="#000000" transform="matrix(1.00, 0.00, -0.00, -1.00, 301.2, 160.0)">i</text><text xml:space="preserve" font-family="Helvetica-Light" font-size="27.7" fill="#000000" transform="matrix(1.00, 0.00, -0.00, -1.00, 307.3, 160.0)">o</text><text xml:space="preserve" font-family="Helvetica-Light" font-size="27.7" fill="#000000" transform="matrix(1.00, 0.00, -0.00, -1.00, 322.7, 160.0)">n</text><text xml:space="preserve" font-family="Helvetica-Light" font-size="27.7" fill="#000000" transform="matrix(1.00, 0.00, -0.00, -1.00, 338.1, 160.0)">s</text><text xml:space="preserve" font-family="Helvetica-Light" font-size="27.7" fill="#000000" transform="matrix(1.00, 0.00, -0.00, -1.00, 352.0, 160.0)"> </text><text xml:space="preserve" font-family="Helvetica-Light" font-size="27.7" fill="#000000" transform="matrix(1.00, 0.00, -0.00, -1.00, 359.7, 160.0)">t</text><text xml:space="preserve" font-family="Helvetica-Light" font-size="27.7" fill="#000000" transform="matrix(1.00, 0.00, -0.00, -1.00, 367.4, 160.0)">h</text><text xml:space="preserve" font-family="Helvetica-Light" font-size="27.7" fill="#000000" transform="matrix(1.00, 0.00, -0.00, -1.00, 382.8, 160.0)">a</text><text xml:space="preserve" font-family="Helvetica-Light" font-size="27.7" fill="#000000" transform="matrix(1.00, 0.00, -0.00, -1.00, 398.2, 160.0)">t</text><text xml:space="preserve" font-family="Helvetica-Light" font-size="27.7" fill="#000000" transform="matrix(1.00, 0.00, -0.00, -1.00, 405.9, 160.0)"> </text><text xml:space="preserve" font-family="Helvetica-Light" font-size="27.7" fill="#000000" transform="matrix(1.00, 0.00, -0.00, -1.00, 413.7, 160.0)">a</text><text xml:space="preserve" font-family="Helvetica-Light" font-size="27.7" fill="#000000" transform="matrix(1.00, 0.00, -0.00, -1.00, 429.1, 160.0)">r</text><text xml:space="preserve" font-family="Helvetica-Light" font-size="27.7" fill="#000000" transform="matrix(1.00, 0.00, -0.00, -1.00, 437.8, 160.0)">e</text><text xml:space="preserve" font-family="Helvetica-Light" font-size="27.7" fill="#000000" transform="matrix(1.00, 0.00, -0.00, -1.00, 453.2, 160.0)"> </text><text xml:space="preserve" font-family="Helvetica-Light" font-size="27.7" fill="#000000" transform="matrix(1.00, 0.00, -0.00, -1.00, 460.9, 160.0)">e</text><text xml:space="preserve" font-family="Helvetica-Light" font-size="27.7" fill="#000000" transform="matrix(1.00, 0.00, -0.00, -1.00, 476.3, 160.0)">a</text><text xml:space="preserve" font-family="Helvetica-Light" font-size="27.7" fill="#000000" transform="matrix(1.00, 0.00, -0.00, -1.00, 491.7, 160.0)">s</text><text xml:space="preserve" font-family="Helvetica-Light" font-size="27.7" fill="#000000" transform="matrix(1.00, 0.00, -0.00, -1.00, 505.6, 160.0)">i</text><text xml:space="preserve" font-family="Helvetica-Light" font-size="27.7" fill="#000000" transform="matrix(1.00, 0.00, -0.00, -1.00, 511.8, 160.0)">e</text><text xml:space="preserve" font-family="Helvetica-Light" font-size="27.7" fill="#000000" transform="matrix(1.00, 0.00, -0.00, -1.00, 527.2, 160.0)">r</text><text xml:space="preserve" font-family="Helvetica-Light" font-size="27.7" fill="#000000" transform="matrix(1.00, 0.00, -0.00, -1.00, 536.4, 160.0)"> </text><text xml:space="preserve" font-family="Helvetica-Light" font-size="27.7" fill="#000000" transform="matrix(1.00, 0.00, -0.00, -1.00, 544.1, 160.0)">t</text><text xml:space="preserve" font-family="Helvetica-Light" font-size="27.7" fill="#000000" transform="matrix(1.00, 0.00, -0.00, -1.00, 551.8, 160.0)">o</text><text xml:space="preserve" font-family="Helvetica-Light" font-size="27.7" fill="#000000" transform="matrix(1.00, 0.00, -0.00, -1.00, 567.2, 160.0)"> </text><text xml:space="preserve" font-family="Helvetica-Light" font-size="27.7" fill="#000000" transform="matrix(1.00, 0.00, -0.00, -1.00, 574.9, 160.0)">u</text><text xml:space="preserve" font-family="Helvetica-Light" font-size="27.7" fill="#000000" transform="matrix(1.00, 0.00, -0.00, -1.00, 590.3, 160.0)">n</text><text xml:space="preserve" font-family="Helvetica-Light" font-size="27.7" fill="#000000" transform="matrix(1.00, 0.00, -0.00, -1.00, 605.8, 160.0)">d</text><text xml:space="preserve" font-family="Helvetica-Light" font-size="27.7" fill="#000000" transform="matrix(1.00, 0.00, -0.00, -1.00, 622.7, 160.0)">e</text><text xml:space="preserve" font-family="Helvetica-Light" font-size="27.7" fill="#000000" transform="matrix(1.00, 0.00, -0.00, -1.00, 638.1, 160.0)">r</text><text xml:space="preserve" font-family="Helvetica-Light" font-size="27.7" fill="#000000" transform="matrix(1.00, 0.00, -0.00, -1.00, 647.3, 160.0)">s</text><text xml:space="preserve" font-family="Helvetica-Light" font-size="27.7" fill="#000000" transform="matrix(1.00, 0.00, -0.00, -1.00, 661.2, 160.0)">t</text><text xml:space="preserve" font-family="Helvetica-Light" font-size="27.7" fill="#000000" transform="matrix(1.00, 0.00, -0.00, -1.00, 668.9, 160.0)">a</text><text xml:space="preserve" font-family="Helvetica-Light" font-size="27.7" fill="#000000" transform="matrix(1.00, 0.00, -0.00, -1.00, 684.3, 160.0)">n</text><text xml:space="preserve" font-family="Helvetica-Light" font-size="27.7" fill="#000000" transform="matrix(1.00, 0.00, -0.00, -1.00, 699.7, 160.0)">d</text><text xml:space="preserve" font-family="Helvetica-Light" font-size="27.7" fill="#000000" transform="matrix(1.00, 0.00, -0.00, -1.00, 716.7, 160.0)"> </text><text xml:space="preserve" font-family="Helvetica-Light" font-size="20.8" fill="#000000" transform="matrix(1.00, 0.00, -0.00, -1.00, 79.0, 97.2)">•</text><text xml:space="preserve" font-family="Helvetica-Light" font-size="27.7" fill="#000000" transform="matrix(1.00, 0.00, -0.00, -1.00, 106.0, 95.0)">G</text><text xml:space="preserve" font-family="Helvetica-Light" font-size="27.7" fill="#000000" transform="matrix(1.00, 0.00, -0.00, -1.00, 127.6, 95.0)">i</text><text xml:space="preserve" font-family="Helvetica-Light" font-size="27.7" fill="#000000" transform="matrix(1.00, 0.00, -0.00, -1.00, 133.7, 95.0)">v</text><text xml:space="preserve" font-family="Helvetica-Light" font-size="27.7" fill="#000000" transform="matrix(1.00, 0.00, -0.00, -1.00, 147.6, 95.0)">e</text><text xml:space="preserve" font-family="Helvetica-Light" font-size="27.7" fill="#000000" transform="matrix(1.00, 0.00, -0.00, -1.00, 163.0, 95.0)"> </text><text xml:space="preserve" font-family="Helvetica-Light" font-size="27.7" fill="#000000" transform="matrix(1.00, 0.00, -0.00, -1.00, 170.7, 95.0)">i</text><text xml:space="preserve" font-family="Helvetica-Light" font-size="27.7" fill="#000000" transform="matrix(1.00, 0.00, -0.00, -1.00, 176.9, 95.0)">t</text><text xml:space="preserve" font-family="Helvetica-Light" font-size="27.7" fill="#000000" transform="matrix(1.00, 0.00, -0.00, -1.00, 184.6, 95.0)"> </text><text xml:space="preserve" font-family="Helvetica-Light" font-size="27.7" fill="#000000" transform="matrix(1.00, 0.00, -0.00, -1.00, 192.3, 95.0)">a</text><text xml:space="preserve" font-family="Helvetica-Light" font-size="27.7" fill="#000000" transform="matrix(1.00, 0.00, -0.00, -1.00, 207.7, 95.0)"> </text><text xml:space="preserve" font-family="Helvetica-Light" font-size="27.7" fill="#000000" transform="matrix(1.00, 0.00, -0.00, -1.00, 215.4, 95.0)">t</text><text xml:space="preserve" font-family="Helvetica-Light" font-size="27.7" fill="#000000" transform="matrix(1.00, 0.00, -0.00, -1.00, 223.1, 95.0)">r</text><text xml:space="preserve" font-family="Helvetica-Light" font-size="27.7" fill="#000000" transform="matrix(1.00, 0.00, -0.00, -1.00, 232.8, 95.0)">y</text><text xml:space="preserve" font-family="Helvetica-Light" font-size="27.7" fill="#000000" transform="matrix(1.00, 0.00, -0.00, -1.00, 246.7, 95.0)"> </text><text xml:space="preserve" font-family="Helvetica-Light" font-size="27.7" fill="#000000" transform="matrix(1.00, 0.00, -0.00, -1.00, 254.4, 95.0)">o</text><text xml:space="preserve" font-family="Helvetica-Light" font-size="27.7" fill="#000000" transform="matrix(1.00, 0.00, -0.00, -1.00, 269.8, 95.0)">n</text><text xml:space="preserve" font-family="Helvetica-Light" font-size="27.7" fill="#000000" transform="matrix(1.00, 0.00, -0.00, -1.00, 285.2, 95.0)"> </text><text xml:space="preserve" font-family="Helvetica-Light" font-size="27.7" fill="#000000" transform="matrix(1.00, 0.00, -0.00, -1.00, 292.9, 95.0)">y</text><text xml:space="preserve" font-family="Helvetica-Light" font-size="27.7" fill="#000000" transform="matrix(1.00, 0.00, -0.00, -1.00, 306.8, 95.0)">o</text><text xml:space="preserve" font-family="Helvetica-Light" font-size="27.7" fill="#000000" transform="matrix(1.00, 0.00, -0.00, -1.00, 322.2, 95.0)">u</text><text xml:space="preserve" font-family="Helvetica-Light" font-size="27.7" fill="#000000" transform="matrix(1.00, 0.00, -0.00, -1.00, 337.6, 95.0)">r</text><text xml:space="preserve" font-family="Helvetica-Light" font-size="27.7" fill="#000000" transform="matrix(1.00, 0.00, -0.00, -1.00, 346.8, 95.0)"> </text><text xml:space="preserve" font-family="Helvetica-Light" font-size="27.7" fill="#000000" transform="matrix(1.00, 0.00, -0.00, -1.00, 354.5, 95.0)">n</text><text xml:space="preserve" font-family="Helvetica-Light" font-size="27.7" fill="#000000" transform="matrix(1.00, 0.00, -0.00, -1.00, 369.9, 95.0)">e</text><text xml:space="preserve" font-family="Helvetica-Light" font-size="27.7" fill="#000000" transform="matrix(1.00, 0.00, -0.00, -1.00, 385.4, 95.0)">x</text><text xml:space="preserve" font-family="Helvetica-Light" font-size="27.7" fill="#000000" transform="matrix(1.00, 0.00, -0.00, -1.00, 399.2, 95.0)">t</text><text xml:space="preserve" font-family="Helvetica-Light" font-size="27.7" fill="#000000" transform="matrix(1.00, 0.00, -0.00, -1.00, 406.9, 95.0)"> </text><text xml:space="preserve" font-family="Helvetica-Light" font-size="27.7" fill="#000000" transform="matrix(1.00, 0.00, -0.00, -1.00, 414.6, 95.0)">p</text><text xml:space="preserve" font-family="Helvetica-Light" font-size="27.7" fill="#000000" transform="matrix(1.00, 0.00, -0.00, -1.00, 431.6, 95.0)">r</text><text xml:space="preserve" font-family="Helvetica-Light" font-size="27.7" fill="#000000" transform="matrix(1.00, 0.00, -0.00, -1.00, 440.3, 95.0)">o</text><text xml:space="preserve" font-family="Helvetica-Light" font-size="27.7" fill="#000000" transform="matrix(1.00, 0.00, -0.00, -1.00, 455.7, 95.0)">j</text><text xml:space="preserve" font-family="Helvetica-Light" font-size="27.7" fill="#000000" transform="matrix(1.00, 0.00, -0.00, -1.00, 461.9, 95.0)">e</text><text xml:space="preserve" font-family="Helvetica-Light" font-size="27.7" fill="#000000" transform="matrix(1.00, 0.00, -0.00, -1.00, 477.3, 95.0)">c</text><text xml:space="preserve" font-family="Helvetica-Light" font-size="27.7" fill="#000000" transform="matrix(1.00, 0.00, -0.00, -1.00, 492.7, 95.0)">t</text></g></svg>