<?xml version="1.0" encoding="UTF-8" standalone="no"?><svg xmlns="http://www.w3.org/2000/svg" xmlns:xlink="http://www.w3.org/1999/xlink" clip-rule="evenodd" stroke-miterlimit="4.00" viewBox="0 0 367 66"><desc>SVG generated by Keynote</desc><defs></defs><g transform="matrix(1.00, 0.00, -0.00, -1.00, 0.0, 66.0)"><g><clipPath id="clip-327"><path d="M 0.0 39.5 L 18.4 39.5 L 18.4 56.7 L 0.0 56.7 Z M 0.0 39.5 "></path></clipPath><g clip-path="url(#clip-327)"><path d="M 18.2 45.6 C 18.4 45.4 18.4 45.1 18.4 44.8 C 18.4 44.3 18.1 43.8 17.5 43.3 C 16.9 42.8 16.2 42.6 15.5 42.6 C 14.4 42.6 13.3 43.3 11.9 44.8 C 11.9 44.8 11.9 42.6 11.9 42.6 C 11.9 42.4 12.0 42.1 12.1 41.8 C 12.2 41.5 12.3 41.3 12.3 41.2 C 12.3 40.7 12.1 40.3 11.6 40.0 C 11.1 39.6 10.7 39.5 10.2 39.5 C 9.4 39.5 8.6 39.8 8.0 40.6 C 7.8 40.8 7.8 41.4 7.9 42.3 C 7.9 43.4 8.0 44.4 8.0 45.4 C 7.5 45.0 6.5 44.4 5.1 43.7 C 4.9 43.4 4.3 43.1 3.4 42.8 C 2.6 42.7 1.9 42.8 1.1 43.2 C 0.4 43.5 0.0 44.0 0.0 44.6 C 0.0 44.7 0.0 44.8 0.1 45.0 C 0.3 45.3 0.6 45.6 1.0 45.7 C 1.8 46.0 2.2 46.1 2.3 46.1 C 2.3 46.1 6.3 48.3 6.3 48.3 C 6.3 48.3 3.5 49.8 3.5 49.8 C 3.0 49.8 2.5 50.0 1.8 50.3 C 1.6 50.6 1.6 50.8 1.6 51.1 C 1.6 51.7 2.0 52.4 2.8 53.1 C 3.6 53.7 4.4 54.0 5.3 54.0 C 5.5 54.0 5.8 54.0 6.0 53.9 C 6.3 53.8 6.6 53.6 6.8 53.2 C 7.0 52.7 7.4 52.2 8.0 51.9 C 8.0 51.9 8.1 54.5 8.1 54.5 C 8.0 54.8 8.0 55.3 8.1 56.0 C 8.5 56.5 9.2 56.7 10.4 56.7 C 11.4 56.7 12.1 56.4 12.5 55.8 C 12.6 55.5 12.6 54.9 12.5 54.0 C 12.5 53.1 12.4 52.3 12.3 51.5 C 12.3 51.5 13.8 52.2 13.8 52.2 C 14.1 52.6 14.6 52.9 15.5 53.3 C 16.0 53.3 16.6 53.1 17.2 52.6 C 17.7 52.1 18.0 51.6 18.0 51.0 C 18.0 50.7 17.9 50.5 17.8 50.3 C 17.6 50.1 17.4 49.9 17.0 49.9 C 16.6 49.8 16.3 49.6 16.1 49.5 C 16.1 49.5 13.9 48.0 13.9 48.0 C 13.9 48.0 16.8 46.4 16.8 46.4 C 17.1 46.3 17.6 46.0 18.2 45.6 Z M 18.2 45.6 " fill="#3995D6"></path></g></g><text xml:space="preserve" font-family="MarkerFelt-Thin" font-size="31.7" fill="#858585" transform="matrix(1.00, 0.00, -0.00, -1.00, 31.0, 38.0)">U</text><text xml:space="preserve" font-family="MarkerFelt-Thin" font-size="31.7" fill="#858585" transform="matrix(1.00, 0.00, -0.00, -1.00, 48.1, 38.0)">s</text><text xml:space="preserve" font-family="MarkerFelt-Thin" font-size="31.7" fill="#858585" transform="matrix(1.00, 0.00, -0.00, -1.00, 60.9, 38.0)">e</text><text xml:space="preserve" font-family="MarkerFelt-Thin" font-size="31.7" fill="#858585" transform="matrix(1.00, 0.00, -0.00, -1.00, 75.4, 38.0)">s</text><text xml:space="preserve" font-family="MarkerFelt-Thin" font-size="31.7" fill="#858585" transform="matrix(1.00, 0.00, -0.00, -1.00, 87.1, 38.0)"> </text><text xml:space="preserve" font-family="MarkerFelt-Thin" font-size="31.7" fill="#858585" transform="matrix(1.00, 0.00, -0.00, -1.00, 95.0, 38.0)">w</text><text xml:space="preserve" font-family="MarkerFelt-Thin" font-size="31.7" fill="#858585" transform="matrix(1.00, 0.00, -0.00, -1.00, 117.8, 38.0)">e</text><text xml:space="preserve" font-family="MarkerFelt-Thin" font-size="31.7" fill="#858585" transform="matrix(1.00, 0.00, -0.00, -1.00, 132.5, 38.0)">a</text><text xml:space="preserve" font-family="MarkerFelt-Thin" font-size="31.7" fill="#858585" transform="matrix(1.00, 0.00, -0.00, -1.00, 148.6, 38.0)">l</text><text xml:space="preserve" font-family="MarkerFelt-Thin" font-size="31.7" fill="#858585" transform="matrix(1.00, 0.00, -0.00, -1.00, 157.0, 38.0)">t</text><text xml:space="preserve" font-family="MarkerFelt-Thin" font-size="31.7" fill="#858585" transform="matrix(1.00, 0.00, -0.00, -1.00, 170.1, 38.0)">h</text><text xml:space="preserve" font-family="MarkerFelt-Thin" font-size="31.7" fill="#858585" transform="matrix(1.00, 0.00, -0.00, -1.00, 185.0, 38.0)"> </text><text xml:space="preserve" font-family="MarkerFelt-Thin" font-size="31.7" fill="#858585" transform="matrix(1.00, 0.00, -0.00, -1.00, 192.9, 38.0)">o</text><text xml:space="preserve" font-family="MarkerFelt-Thin" font-size="31.7" fill="#858585" transform="matrix(1.00, 0.00, -0.00, -1.00, 207.3, 38.0)">f</text><text xml:space="preserve" font-family="MarkerFelt-Thin" font-size="31.7" fill="#858585" transform="matrix(1.00, 0.00, -0.00, -1.00, 218.7, 38.0)"> </text><text xml:space="preserve" font-family="MarkerFelt-Thin" font-size="31.7" fill="#858585" transform="matrix(1.00, 0.00, -0.00, -1.00, 226.6, 38.0)">e</text><text xml:space="preserve" font-family="MarkerFelt-Thin" font-size="31.7" fill="#858585" transform="matrix(1.00, 0.00, -0.00, -1.00, 241.2, 38.0)">x</text><text xml:space="preserve" font-family="MarkerFelt-Thin" font-size="31.7" fill="#858585" transform="matrix(1.00, 0.00, -0.00, -1.00, 255.8, 38.0)">i</text><text xml:space="preserve" font-family="MarkerFelt-Thin" font-size="31.7" fill="#858585" transform="matrix(1.00, 0.00, -0.00, -1.00, 263.2, 38.0)">s</text><text xml:space="preserve" font-family="MarkerFelt-Thin" font-size="31.7" fill="#858585" transform="matrix(1.00, 0.00, -0.00, -1.00, 277.0, 38.0)">t</text><text xml:space="preserve" font-family="MarkerFelt-Thin" font-size="31.7" fill="#858585" transform="matrix(1.00, 0.00, -0.00, -1.00, 290.6, 38.0)">i</text><text xml:space="preserve" font-family="MarkerFelt-Thin" font-size="31.7" fill="#858585" transform="matrix(1.00, 0.00, -0.00, -1.00, 298.4, 38.0)">n</text><text xml:space="preserve" font-family="MarkerFelt-Thin" font-size="31.7" fill="#858585" transform="matrix(1.00, 0.00, -0.00, -1.00, 314.9, 38.0)">g</text><text xml:space="preserve" font-family="MarkerFelt-Thin" font-size="31.7" fill="#858585" transform="matrix(1.00, 0.00, -0.00, -1.00, 328.2, 38.0)"> </text><text xml:space="preserve" font-family="MarkerFelt-Thin" font-size="31.7" fill="#858585" transform="matrix(1.00, 0.00, -0.00, -1.00, 336.1, 38.0)">J</text><text xml:space="preserve" font-family="MarkerFelt-Thin" font-size="31.7" fill="#858585" transform="matrix(1.00, 0.00, -0.00, -1.00, 349.8, 38.0)">S</text><text xml:space="preserve" font-family="MarkerFelt-Thin" font-size="31.7" fill="#858585" transform="matrix(1.00, 0.00, -0.00, -1.00, 365.3, 38.0)"> </text><text xml:space="preserve" font-family="MarkerFelt-Thin" font-size="31.7" fill="#858585" transform="matrix(1.00, 0.00, -0.00, -1.00, 31.0, 4.0)">l</text><text xml:space="preserve" font-family="MarkerFelt-Thin" font-size="31.7" fill="#858585" transform="matrix(1.00, 0.00, -0.00, -1.00, 38.4, 4.0)">i</text><text xml:space="preserve" font-family="MarkerFelt-Thin" font-size="31.7" fill="#858585" transform="matrix(1.00, 0.00, -0.00, -1.00, 46.0, 4.0)">b</text><text xml:space="preserve" font-family="MarkerFelt-Thin" font-size="31.7" fill="#858585" transform="matrix(1.00, 0.00, -0.00, -1.00, 60.7, 4.0)">r</text><text xml:space="preserve" font-family="MarkerFelt-Thin" font-size="31.7" fill="#858585" transform="matrix(1.00, 0.00, -0.00, -1.00, 73.6, 4.0)">a</text><text xml:space="preserve" font-family="MarkerFelt-Thin" font-size="31.7" fill="#858585" transform="matrix(1.00, 0.00, -0.00, -1.00, 89.5, 4.0)">r</text><text xml:space="preserve" font-family="MarkerFelt-Thin" font-size="31.7" fill="#858585" transform="matrix(1.00, 0.00, -0.00, -1.00, 103.5, 4.0)">i</text><text xml:space="preserve" font-family="MarkerFelt-Thin" font-size="31.7" fill="#858585" transform="matrix(1.00, 0.00, -0.00, -1.00, 110.4, 4.0)">e</text><text xml:space="preserve" font-family="MarkerFelt-Thin" font-size="31.7" fill="#858585" transform="matrix(1.00, 0.00, -0.00, -1.00, 124.9, 4.0)">s</text></g></svg>