<?xml version="1.0" encoding="UTF-8" standalone="no"?><svg xmlns="http://www.w3.org/2000/svg" xmlns:xlink="http://www.w3.org/1999/xlink" clip-rule="evenodd" stroke-miterlimit="4.00" viewBox="0 0 419 37"><desc>SVG generated by Keynote</desc><defs></defs><g transform="matrix(1.00, 0.00, -0.00, -1.00, 0.0, 37.0)"><g><clipPath id="clip-329"><path d="M 0.0 11.2 L 18.2 11.2 L 18.2 28.2 L 0.0 28.2 Z M 0.0 11.2 "></path></clipPath><g clip-path="url(#clip-329)"><path d="M 18.0 17.3 C 18.1 17.0 18.2 16.8 18.2 16.5 C 18.2 16.0 17.9 15.5 17.3 15.0 C 16.7 14.5 16.0 14.3 15.3 14.3 C 14.3 14.3 13.1 15.0 11.8 16.5 C 11.8 16.5 11.8 14.3 11.8 14.3 C 11.8 14.1 11.9 13.8 12.0 13.5 C 12.1 13.2 12.2 13.0 12.2 12.9 C 12.2 12.4 11.9 12.0 11.5 11.7 C 11.0 11.4 10.5 11.2 10.1 11.2 C 9.3 11.2 8.5 11.6 7.9 12.3 C 7.8 12.5 7.7 13.1 7.8 14.0 C 7.8 15.0 7.9 16.0 7.9 17.0 C 7.4 16.7 6.5 16.1 5.0 15.4 C 4.9 15.1 4.3 14.8 3.3 14.5 C 2.6 14.4 1.9 14.5 1.1 14.9 C 0.4 15.2 0.0 15.7 0.0 16.2 C 0.0 16.4 0.0 16.5 0.1 16.7 C 0.2 17.0 0.6 17.2 1.0 17.3 C 1.8 17.6 2.2 17.7 2.3 17.8 C 2.3 17.8 6.3 20.0 6.3 20.0 C 6.3 20.0 3.4 21.4 3.4 21.4 C 3.0 21.4 2.4 21.6 1.8 21.9 C 1.6 22.2 1.6 22.4 1.6 22.6 C 1.6 23.3 2.0 24.0 2.8 24.6 C 3.6 25.3 4.4 25.6 5.2 25.6 C 5.5 25.6 5.7 25.5 6.0 25.5 C 6.2 25.4 6.5 25.1 6.7 24.7 C 7.0 24.2 7.4 23.8 7.9 23.4 C 7.9 23.4 8.0 26.0 8.0 26.0 C 7.9 26.4 7.9 26.9 8.0 27.6 C 8.4 28.0 9.1 28.2 10.2 28.2 C 11.3 28.2 12.0 27.9 12.3 27.3 C 12.5 27.0 12.5 26.5 12.4 25.5 C 12.3 24.7 12.2 23.9 12.1 23.1 C 12.1 23.1 13.6 23.8 13.6 23.8 C 13.9 24.1 14.5 24.5 15.3 24.8 C 15.9 24.9 16.4 24.7 17.0 24.2 C 17.5 23.7 17.8 23.2 17.8 22.6 C 17.8 22.3 17.7 22.1 17.6 21.9 C 17.4 21.7 17.2 21.5 16.8 21.5 C 16.4 21.4 16.1 21.3 15.9 21.1 C 15.9 21.1 13.7 19.6 13.7 19.6 C 13.7 19.6 16.6 18.0 16.6 18.0 C 16.9 17.9 17.4 17.7 18.0 17.3 Z M 18.0 17.3 " fill="#3995D6"></path></g></g><text xml:space="preserve" font-family="MarkerFelt-Thin" font-size="31.3" fill="#858585" transform="matrix(1.00, 0.00, -0.00, -1.00, 30.0, 10.0)">C</text><text xml:space="preserve" font-family="MarkerFelt-Thin" font-size="31.3" fill="#858585" transform="matrix(1.00, 0.00, -0.00, -1.00, 45.4, 10.0)">l</text><text xml:space="preserve" font-family="MarkerFelt-Thin" font-size="31.3" fill="#858585" transform="matrix(1.00, 0.00, -0.00, -1.00, 52.8, 10.0)">i</text><text xml:space="preserve" font-family="MarkerFelt-Thin" font-size="31.3" fill="#858585" transform="matrix(1.00, 0.00, -0.00, -1.00, 59.7, 10.0)">e</text><text xml:space="preserve" font-family="MarkerFelt-Thin" font-size="31.3" fill="#858585" transform="matrix(1.00, 0.00, -0.00, -1.00, 73.6, 10.0)">n</text><text xml:space="preserve" font-family="MarkerFelt-Thin" font-size="31.3" fill="#858585" transform="matrix(1.00, 0.00, -0.00, -1.00, 90.7, 10.0)">t</text><text xml:space="preserve" font-family="MarkerFelt-Thin" font-size="31.3" fill="#858585" transform="matrix(1.00, 0.00, -0.00, -1.00, 100.2, 10.0)">-</text><text xml:space="preserve" font-family="MarkerFelt-Thin" font-size="31.3" fill="#858585" transform="matrix(1.00, 0.00, -0.00, -1.00, 109.8, 10.0)">S</text><text xml:space="preserve" font-family="MarkerFelt-Thin" font-size="31.3" fill="#858585" transform="matrix(1.00, 0.00, -0.00, -1.00, 126.3, 10.0)">i</text><text xml:space="preserve" font-family="MarkerFelt-Thin" font-size="31.3" fill="#858585" transform="matrix(1.00, 0.00, -0.00, -1.00, 133.2, 10.0)">d</text><text xml:space="preserve" font-family="MarkerFelt-Thin" font-size="31.3" fill="#858585" transform="matrix(1.00, 0.00, -0.00, -1.00, 146.7, 10.0)">e</text><text xml:space="preserve" font-family="MarkerFelt-Thin" font-size="31.3" fill="#858585" transform="matrix(1.00, 0.00, -0.00, -1.00, 158.6, 10.0)"> </text><text xml:space="preserve" font-family="MarkerFelt-Thin" font-size="31.3" fill="#858585" transform="matrix(1.00, 0.00, -0.00, -1.00, 166.4, 10.0)">J</text><text xml:space="preserve" font-family="MarkerFelt-Thin" font-size="31.3" fill="#858585" transform="matrix(1.00, 0.00, -0.00, -1.00, 180.7, 10.0)">a</text><text xml:space="preserve" font-family="MarkerFelt-Thin" font-size="31.3" fill="#858585" transform="matrix(1.00, 0.00, -0.00, -1.00, 195.8, 10.0)">v</text><text xml:space="preserve" font-family="MarkerFelt-Thin" font-size="31.3" fill="#858585" transform="matrix(1.00, 0.00, -0.00, -1.00, 211.2, 10.0)">a</text><text xml:space="preserve" font-family="MarkerFelt-Thin" font-size="31.3" fill="#858585" transform="matrix(1.00, 0.00, -0.00, -1.00, 225.6, 10.0)">S</text><text xml:space="preserve" font-family="MarkerFelt-Thin" font-size="31.3" fill="#858585" transform="matrix(1.00, 0.00, -0.00, -1.00, 242.3, 10.0)">c</text><text xml:space="preserve" font-family="MarkerFelt-Thin" font-size="31.3" fill="#858585" transform="matrix(1.00, 0.00, -0.00, -1.00, 255.3, 10.0)">r</text><text xml:space="preserve" font-family="MarkerFelt-Thin" font-size="31.3" fill="#858585" transform="matrix(1.00, 0.00, -0.00, -1.00, 269.1, 10.0)">i</text><text xml:space="preserve" font-family="MarkerFelt-Thin" font-size="31.3" fill="#858585" transform="matrix(1.00, 0.00, -0.00, -1.00, 276.8, 10.0)">p</text><text xml:space="preserve" font-family="MarkerFelt-Thin" font-size="31.3" fill="#858585" transform="matrix(1.00, 0.00, -0.00, -1.00, 292.3, 10.0)">t</text><text xml:space="preserve" font-family="MarkerFelt-Thin" font-size="31.3" fill="#858585" transform="matrix(1.00, 0.00, -0.00, -1.00, 303.5, 10.0)"> </text><text xml:space="preserve" font-family="MarkerFelt-Thin" font-size="31.3" fill="#858585" transform="matrix(1.00, 0.00, -0.00, -1.00, 311.4, 10.0)">R</text><text xml:space="preserve" font-family="MarkerFelt-Thin" font-size="31.3" fill="#858585" transform="matrix(1.00, 0.00, -0.00, -1.00, 330.5, 10.0)">u</text><text xml:space="preserve" font-family="MarkerFelt-Thin" font-size="31.3" fill="#858585" transform="matrix(1.00, 0.00, -0.00, -1.00, 344.5, 10.0)">n</text><text xml:space="preserve" font-family="MarkerFelt-Thin" font-size="31.3" fill="#858585" transform="matrix(1.00, 0.00, -0.00, -1.00, 361.7, 10.0)">t</text><text xml:space="preserve" font-family="MarkerFelt-Thin" font-size="31.3" fill="#858585" transform="matrix(1.00, 0.00, -0.00, -1.00, 375.1, 10.0)">i</text><text xml:space="preserve" font-family="MarkerFelt-Thin" font-size="31.3" fill="#858585" transform="matrix(1.00, 0.00, -0.00, -1.00, 382.5, 10.0)">m</text><text xml:space="preserve" font-family="MarkerFelt-Thin" font-size="31.3" fill="#858585" transform="matrix(1.00, 0.00, -0.00, -1.00, 405.1, 10.0)">e</text></g></svg>