<?xml version="1.0" encoding="UTF-8" standalone="no"?><svg xmlns="http://www.w3.org/2000/svg" xmlns:xlink="http://www.w3.org/1999/xlink" clip-rule="evenodd" stroke-miterlimit="4.00" viewBox="0 0 240 31"><desc>SVG generated by Keynote</desc><defs></defs><g transform="matrix(1.00, 0.00, -0.00, -1.00, 0.0, 31.0)"><g><clipPath id="clip-328"><path d="M 0.0 5.3 L 18.2 5.3 L 18.2 22.3 L 0.0 22.3 Z M 0.0 5.3 "></path></clipPath><g clip-path="url(#clip-328)"><path d="M 18.0 11.4 C 18.1 11.1 18.2 10.8 18.2 10.6 C 18.2 10.0 17.9 9.5 17.3 9.1 C 16.7 8.6 16.0 8.4 15.3 8.4 C 14.3 8.4 13.1 9.1 11.8 10.6 C 11.8 10.6 11.8 8.4 11.8 8.4 C 11.8 8.1 11.9 7.9 12.0 7.6 C 12.1 7.3 12.2 7.1 12.2 6.9 C 12.2 6.5 11.9 6.1 11.5 5.7 C 11.0 5.4 10.5 5.3 10.1 5.3 C 9.3 5.3 8.5 5.6 7.9 6.3 C 7.8 6.5 7.7 7.1 7.8 8.1 C 7.8 9.1 7.9 10.1 7.9 11.1 C 7.4 10.7 6.5 10.2 5.0 9.4 C 4.9 9.1 4.3 8.8 3.3 8.5 C 2.6 8.4 1.9 8.6 1.1 8.9 C 0.4 9.3 0.0 9.7 0.0 10.3 C 0.0 10.4 0.0 10.6 0.1 10.7 C 0.2 11.0 0.6 11.3 1.0 11.4 C 1.8 11.7 2.2 11.8 2.3 11.8 C 2.3 11.8 6.3 14.0 6.3 14.0 C 6.3 14.0 3.4 15.4 3.4 15.4 C 3.0 15.4 2.4 15.6 1.8 16.0 C 1.6 16.2 1.6 16.5 1.6 16.7 C 1.6 17.4 2.0 18.0 2.8 18.7 C 3.6 19.3 4.4 19.7 5.2 19.7 C 5.5 19.7 5.7 19.6 6.0 19.5 C 6.2 19.4 6.5 19.2 6.7 18.8 C 7.0 18.3 7.4 17.9 7.9 17.5 C 7.9 17.5 8.0 20.1 8.0 20.1 C 7.9 20.4 7.9 20.9 8.0 21.6 C 8.4 22.1 9.1 22.3 10.2 22.3 C 11.3 22.3 12.0 22.0 12.3 21.4 C 12.5 21.1 12.5 20.5 12.4 19.6 C 12.3 18.8 12.2 18.0 12.1 17.1 C 12.1 17.1 13.6 17.9 13.6 17.9 C 13.9 18.2 14.5 18.5 15.3 18.9 C 15.9 18.9 16.4 18.7 17.0 18.2 C 17.5 17.7 17.8 17.2 17.8 16.6 C 17.8 16.4 17.7 16.2 17.6 16.0 C 17.4 15.7 17.2 15.6 16.8 15.5 C 16.4 15.4 16.1 15.3 15.9 15.2 C 15.9 15.2 13.7 13.7 13.7 13.7 C 13.7 13.7 16.6 12.1 16.6 12.1 C 16.9 12.0 17.4 11.7 18.0 11.4 Z M 18.0 11.4 " fill="#3995D6"></path></g></g><text xml:space="preserve" font-family="MarkerFelt-Thin" font-size="31.3" fill="#858585" transform="matrix(1.00, 0.00, -0.00, -1.00, 30.0, 4.0)">S</text><text xml:space="preserve" font-family="MarkerFelt-Thin" font-size="31.3" fill="#858585" transform="matrix(1.00, 0.00, -0.00, -1.00, 46.4, 4.0)">e</text><text xml:space="preserve" font-family="MarkerFelt-Thin" font-size="31.3" fill="#858585" transform="matrix(1.00, 0.00, -0.00, -1.00, 60.2, 4.0)">r</text><text xml:space="preserve" font-family="MarkerFelt-Thin" font-size="31.3" fill="#858585" transform="matrix(1.00, 0.00, -0.00, -1.00, 75.2, 4.0)">v</text><text xml:space="preserve" font-family="MarkerFelt-Thin" font-size="31.3" fill="#858585" transform="matrix(1.00, 0.00, -0.00, -1.00, 89.6, 4.0)">e</text><text xml:space="preserve" font-family="MarkerFelt-Thin" font-size="31.3" fill="#858585" transform="matrix(1.00, 0.00, -0.00, -1.00, 103.4, 4.0)">r</text><text xml:space="preserve" font-family="MarkerFelt-Thin" font-size="31.3" fill="#858585" transform="matrix(1.00, 0.00, -0.00, -1.00, 112.5, 4.0)">-</text><text xml:space="preserve" font-family="MarkerFelt-Thin" font-size="31.3" fill="#858585" transform="matrix(1.00, 0.00, -0.00, -1.00, 124.1, 4.0)">s</text><text xml:space="preserve" font-family="MarkerFelt-Thin" font-size="31.3" fill="#858585" transform="matrix(1.00, 0.00, -0.00, -1.00, 137.0, 4.0)">i</text><text xml:space="preserve" font-family="MarkerFelt-Thin" font-size="31.3" fill="#858585" transform="matrix(1.00, 0.00, -0.00, -1.00, 143.9, 4.0)">d</text><text xml:space="preserve" font-family="MarkerFelt-Thin" font-size="31.3" fill="#858585" transform="matrix(1.00, 0.00, -0.00, -1.00, 157.4, 4.0)">e</text><text xml:space="preserve" font-family="MarkerFelt-Thin" font-size="31.3" fill="#858585" transform="matrix(1.00, 0.00, -0.00, -1.00, 169.3, 4.0)"> </text><text xml:space="preserve" font-family="MarkerFelt-Thin" font-size="31.3" fill="#858585" transform="matrix(1.00, 0.00, -0.00, -1.00, 177.1, 4.0)">J</text><text xml:space="preserve" font-family="MarkerFelt-Thin" font-size="31.3" fill="#858585" transform="matrix(1.00, 0.00, -0.00, -1.00, 192.3, 4.0)">V</text><text xml:space="preserve" font-family="MarkerFelt-Thin" font-size="31.3" fill="#858585" transform="matrix(1.00, 0.00, -0.00, -1.00, 209.2, 4.0)">M</text></g></svg>