<?xml version="1.0" encoding="UTF-8" standalone="no"?><svg xmlns="http://www.w3.org/2000/svg" xmlns:xlink="http://www.w3.org/1999/xlink" clip-rule="evenodd" stroke-miterlimit="4.00" viewBox="0 0 362 65"><desc>SVG generated by Keynote</desc><defs></defs><g transform="matrix(1.00, 0.00, -0.00, -1.00, 0.0, 65.0)"><g><clipPath id="clip-330"><path d="M 0.0 39.1 L 18.2 39.1 L 18.2 56.1 L 0.0 56.1 Z M 0.0 39.1 "></path></clipPath><g clip-path="url(#clip-330)"><path d="M 18.0 45.2 C 18.1 45.0 18.2 44.7 18.2 44.4 C 18.2 43.9 17.9 43.4 17.3 42.9 C 16.7 42.5 16.0 42.2 15.3 42.2 C 14.3 42.2 13.1 43.0 11.8 44.4 C 11.8 44.4 11.8 42.2 11.8 42.2 C 11.8 42.0 11.9 41.8 12.0 41.5 C 12.1 41.2 12.2 40.9 12.2 40.8 C 12.2 40.3 11.9 39.9 11.5 39.6 C 11.0 39.3 10.5 39.1 10.1 39.1 C 9.3 39.1 8.5 39.5 7.9 40.2 C 7.8 40.4 7.7 41.0 7.8 42.0 C 7.8 43.0 7.9 44.0 7.9 45.0 C 7.4 44.6 6.5 44.1 5.0 43.3 C 4.9 43.0 4.3 42.7 3.3 42.4 C 2.6 42.3 1.9 42.5 1.1 42.8 C 0.4 43.1 0.0 43.6 0.0 44.2 C 0.0 44.3 0.0 44.4 0.1 44.6 C 0.2 44.9 0.6 45.1 1.0 45.3 C 1.8 45.5 2.2 45.7 2.3 45.7 C 2.3 45.7 6.3 47.9 6.3 47.9 C 6.3 47.9 3.4 49.3 3.4 49.3 C 3.0 49.3 2.4 49.5 1.8 49.9 C 1.6 50.1 1.6 50.3 1.6 50.6 C 1.6 51.3 2.0 51.9 2.8 52.6 C 3.6 53.2 4.4 53.5 5.2 53.5 C 5.5 53.5 5.7 53.5 6.0 53.4 C 6.2 53.3 6.5 53.1 6.7 52.7 C 7.0 52.2 7.4 51.7 7.9 51.4 C 7.9 51.4 8.0 54.0 8.0 54.0 C 7.9 54.3 7.9 54.8 8.0 55.5 C 8.4 55.9 9.1 56.1 10.2 56.1 C 11.3 56.1 12.0 55.8 12.3 55.2 C 12.5 55.0 12.5 54.4 12.4 53.5 C 12.3 52.7 12.2 51.8 12.1 51.0 C 12.1 51.0 13.6 51.8 13.6 51.8 C 13.9 52.1 14.5 52.4 15.3 52.8 C 15.9 52.8 16.4 52.6 17.0 52.1 C 17.5 51.6 17.8 51.1 17.8 50.5 C 17.8 50.3 17.7 50.0 17.6 49.8 C 17.4 49.6 17.2 49.5 16.8 49.4 C 16.4 49.3 16.1 49.2 15.9 49.1 C 15.9 49.1 13.7 47.5 13.7 47.5 C 13.7 47.5 16.6 46.0 16.6 46.0 C 16.9 45.9 17.4 45.6 18.0 45.2 Z M 18.0 45.2 " fill="#3995D6"></path></g></g><text xml:space="preserve" font-family="MarkerFelt-Thin" font-size="31.3" fill="#858585" transform="matrix(1.00, 0.00, -0.00, -1.00, 30.0, 37.0)">U</text><text xml:space="preserve" font-family="MarkerFelt-Thin" font-size="31.3" fill="#858585" transform="matrix(1.00, 0.00, -0.00, -1.00, 46.9, 37.0)">s</text><text xml:space="preserve" font-family="MarkerFelt-Thin" font-size="31.3" fill="#858585" transform="matrix(1.00, 0.00, -0.00, -1.00, 59.6, 37.0)">e</text><text xml:space="preserve" font-family="MarkerFelt-Thin" font-size="31.3" fill="#858585" transform="matrix(1.00, 0.00, -0.00, -1.00, 73.9, 37.0)">s</text><text xml:space="preserve" font-family="MarkerFelt-Thin" font-size="31.3" fill="#858585" transform="matrix(1.00, 0.00, -0.00, -1.00, 85.5, 37.0)"> </text><text xml:space="preserve" font-family="MarkerFelt-Thin" font-size="31.3" fill="#858585" transform="matrix(1.00, 0.00, -0.00, -1.00, 93.3, 37.0)">w</text><text xml:space="preserve" font-family="MarkerFelt-Thin" font-size="31.3" fill="#858585" transform="matrix(1.00, 0.00, -0.00, -1.00, 115.8, 37.0)">e</text><text xml:space="preserve" font-family="MarkerFelt-Thin" font-size="31.3" fill="#858585" transform="matrix(1.00, 0.00, -0.00, -1.00, 130.4, 37.0)">a</text><text xml:space="preserve" font-family="MarkerFelt-Thin" font-size="31.3" fill="#858585" transform="matrix(1.00, 0.00, -0.00, -1.00, 146.3, 37.0)">l</text><text xml:space="preserve" font-family="MarkerFelt-Thin" font-size="31.3" fill="#858585" transform="matrix(1.00, 0.00, -0.00, -1.00, 154.5, 37.0)">t</text><text xml:space="preserve" font-family="MarkerFelt-Thin" font-size="31.3" fill="#858585" transform="matrix(1.00, 0.00, -0.00, -1.00, 167.5, 37.0)">h</text><text xml:space="preserve" font-family="MarkerFelt-Thin" font-size="31.3" fill="#858585" transform="matrix(1.00, 0.00, -0.00, -1.00, 182.2, 37.0)"> </text><text xml:space="preserve" font-family="MarkerFelt-Thin" font-size="31.3" fill="#858585" transform="matrix(1.00, 0.00, -0.00, -1.00, 190.1, 37.0)">o</text><text xml:space="preserve" font-family="MarkerFelt-Thin" font-size="31.3" fill="#858585" transform="matrix(1.00, 0.00, -0.00, -1.00, 204.3, 37.0)">f</text><text xml:space="preserve" font-family="MarkerFelt-Thin" font-size="31.3" fill="#858585" transform="matrix(1.00, 0.00, -0.00, -1.00, 215.6, 37.0)"> </text><text xml:space="preserve" font-family="MarkerFelt-Thin" font-size="31.3" fill="#858585" transform="matrix(1.00, 0.00, -0.00, -1.00, 223.4, 37.0)">e</text><text xml:space="preserve" font-family="MarkerFelt-Thin" font-size="31.3" fill="#858585" transform="matrix(1.00, 0.00, -0.00, -1.00, 237.8, 37.0)">x</text><text xml:space="preserve" font-family="MarkerFelt-Thin" font-size="31.3" fill="#858585" transform="matrix(1.00, 0.00, -0.00, -1.00, 252.3, 37.0)">i</text><text xml:space="preserve" font-family="MarkerFelt-Thin" font-size="31.3" fill="#858585" transform="matrix(1.00, 0.00, -0.00, -1.00, 259.6, 37.0)">s</text><text xml:space="preserve" font-family="MarkerFelt-Thin" font-size="31.3" fill="#858585" transform="matrix(1.00, 0.00, -0.00, -1.00, 273.2, 37.0)">t</text><text xml:space="preserve" font-family="MarkerFelt-Thin" font-size="31.3" fill="#858585" transform="matrix(1.00, 0.00, -0.00, -1.00, 286.6, 37.0)">i</text><text xml:space="preserve" font-family="MarkerFelt-Thin" font-size="31.3" fill="#858585" transform="matrix(1.00, 0.00, -0.00, -1.00, 294.4, 37.0)">n</text><text xml:space="preserve" font-family="MarkerFelt-Thin" font-size="31.3" fill="#858585" transform="matrix(1.00, 0.00, -0.00, -1.00, 310.7, 37.0)">g</text><text xml:space="preserve" font-family="MarkerFelt-Thin" font-size="31.3" fill="#858585" transform="matrix(1.00, 0.00, -0.00, -1.00, 323.8, 37.0)"> </text><text xml:space="preserve" font-family="MarkerFelt-Thin" font-size="31.3" fill="#858585" transform="matrix(1.00, 0.00, -0.00, -1.00, 331.7, 37.0)">J</text><text xml:space="preserve" font-family="MarkerFelt-Thin" font-size="31.3" fill="#858585" transform="matrix(1.00, 0.00, -0.00, -1.00, 345.1, 37.0)">S</text><text xml:space="preserve" font-family="MarkerFelt-Thin" font-size="31.3" fill="#858585" transform="matrix(1.00, 0.00, -0.00, -1.00, 360.5, 37.0)"> </text><text xml:space="preserve" font-family="MarkerFelt-Thin" font-size="31.3" fill="#858585" transform="matrix(1.00, 0.00, -0.00, -1.00, 30.0, 3.0)">l</text><text xml:space="preserve" font-family="MarkerFelt-Thin" font-size="31.3" fill="#858585" transform="matrix(1.00, 0.00, -0.00, -1.00, 37.3, 3.0)">i</text><text xml:space="preserve" font-family="MarkerFelt-Thin" font-size="31.3" fill="#858585" transform="matrix(1.00, 0.00, -0.00, -1.00, 44.9, 3.0)">b</text><text xml:space="preserve" font-family="MarkerFelt-Thin" font-size="31.3" fill="#858585" transform="matrix(1.00, 0.00, -0.00, -1.00, 59.3, 3.0)">r</text><text xml:space="preserve" font-family="MarkerFelt-Thin" font-size="31.3" fill="#858585" transform="matrix(1.00, 0.00, -0.00, -1.00, 72.1, 3.0)">a</text><text xml:space="preserve" font-family="MarkerFelt-Thin" font-size="31.3" fill="#858585" transform="matrix(1.00, 0.00, -0.00, -1.00, 87.8, 3.0)">r</text><text xml:space="preserve" font-family="MarkerFelt-Thin" font-size="31.3" fill="#858585" transform="matrix(1.00, 0.00, -0.00, -1.00, 101.6, 3.0)">i</text><text xml:space="preserve" font-family="MarkerFelt-Thin" font-size="31.3" fill="#858585" transform="matrix(1.00, 0.00, -0.00, -1.00, 108.5, 3.0)">e</text><text xml:space="preserve" font-family="MarkerFelt-Thin" font-size="31.3" fill="#858585" transform="matrix(1.00, 0.00, -0.00, -1.00, 122.8, 3.0)">s</text></g></svg>