<?xml version="1.0" encoding="UTF-8" standalone="no"?><svg xmlns="http://www.w3.org/2000/svg" xmlns:xlink="http://www.w3.org/1999/xlink" clip-rule="evenodd" stroke-miterlimit="4.00" viewBox="0 0 1024 768"><desc>SVG generated by Keynote</desc><defs></defs><g transform="matrix(1.00, 0.00, -0.00, -1.00, 0.0, 768.0)"><g><clipPath id="clip-331"><path d="M 0.0 768.0 L 1024.0 768.0 L 1024.0 0.0 L 0.0 0.0 Z M 0.0 768.0 "></path></clipPath><g clip-path="url(#clip-331)"><image xlink:href="../../39451CEE-E280-41CA-872D-216C9FC86FAF/assets/43DA95A1552523200D88D33196FD3A18.jpeg" width="1024.00" height="768.00" transform="matrix(1.00, 0.00, -0.00, -1.00, 0.0, 768.0)"></image></g></g><path d="M 0.0 0.0 L 486.5 0.0 L 486.5 220.1 L 0.0 220.1 Z M 0.0 0.0 " fill="none" stroke="#000000" stroke-width="5.00" transform="matrix(1.00, 0.00, 0.00, -1.00, 5.1, 232.1)"></path><g><clipPath id="clip-332"><path d="M 2.3 9.3 L 494.4 9.3 L 494.4 229.1 L 2.3 229.1 Z M 2.3 9.3 "></path></clipPath><g clip-path="url(#clip-332)"><text xml:space="preserve" font-family="MarkerFelt-Thin" font-size="36.0" fill="#000000" transform="matrix(1.00, 0.00, -0.00, -1.00, 12.0, 27.0)">N</text><text xml:space="preserve" font-family="MarkerFelt-Thin" font-size="36.0" fill="#000000" transform="matrix(1.00, 0.00, -0.00, -1.00, 34.5, 27.0)">o</text><text xml:space="preserve" font-family="MarkerFelt-Thin" font-size="36.0" fill="#000000" transform="matrix(1.00, 0.00, -0.00, -1.00, 51.8, 27.0)">t</text><text xml:space="preserve" font-family="MarkerFelt-Thin" font-size="36.0" fill="#000000" transform="matrix(1.00, 0.00, -0.00, -1.00, 64.7, 27.0)"> </text><text xml:space="preserve" font-family="MarkerFelt-Thin" font-size="36.0" fill="#000000" transform="matrix(1.00, 0.00, -0.00, -1.00, 73.7, 27.0)">a</text><text xml:space="preserve" font-family="MarkerFelt-Thin" font-size="36.0" fill="#000000" transform="matrix(1.00, 0.00, -0.00, -1.00, 91.3, 27.0)">t</text><text xml:space="preserve" font-family="MarkerFelt-Thin" font-size="36.0" fill="#000000" transform="matrix(1.00, 0.00, -0.00, -1.00, 104.3, 27.0)"> </text><text xml:space="preserve" font-family="MarkerFelt-Thin" font-size="36.0" fill="#000000" transform="matrix(1.00, 0.00, -0.00, -1.00, 113.3, 27.0)">a</text><text xml:space="preserve" font-family="MarkerFelt-Thin" font-size="36.0" fill="#000000" transform="matrix(1.00, 0.00, -0.00, -1.00, 131.6, 27.0)">l</text><text xml:space="preserve" font-family="MarkerFelt-Thin" font-size="36.0" fill="#000000" transform="matrix(1.00, 0.00, -0.00, -1.00, 140.6, 27.0)">l</text><text xml:space="preserve" font-family="MarkerFelt-Thin" font-size="36.0" fill="#000000" transform="matrix(1.00, 0.00, -0.00, -1.00, 147.8, 27.0)"> </text><text xml:space="preserve" font-family="MarkerFelt-Thin" font-size="36.0" fill="#000000" transform="matrix(1.00, 0.00, -0.00, -1.00, 156.8, 27.0)">t</text><text xml:space="preserve" font-family="MarkerFelt-Thin" font-size="36.0" fill="#000000" transform="matrix(1.00, 0.00, -0.00, -1.00, 171.7, 27.0)">h</text><text xml:space="preserve" font-family="MarkerFelt-Thin" font-size="36.0" fill="#000000" transform="matrix(1.00, 0.00, -0.00, -1.00, 190.2, 27.0)">e</text><text xml:space="preserve" font-family="MarkerFelt-Thin" font-size="36.0" fill="#000000" transform="matrix(1.00, 0.00, -0.00, -1.00, 203.9, 27.0)"> </text><text xml:space="preserve" font-family="MarkerFelt-Thin" font-size="36.0" fill="#000000" transform="matrix(1.00, 0.00, -0.00, -1.00, 212.9, 27.0)">s</text><text xml:space="preserve" font-family="MarkerFelt-Thin" font-size="36.0" fill="#000000" transform="matrix(1.00, 0.00, -0.00, -1.00, 228.4, 27.0)">a</text><text xml:space="preserve" font-family="MarkerFelt-Thin" font-size="36.0" fill="#000000" transform="matrix(1.00, 0.00, -0.00, -1.00, 244.9, 27.0)">m</text><text xml:space="preserve" font-family="MarkerFelt-Thin" font-size="36.0" fill="#000000" transform="matrix(1.00, 0.00, -0.00, -1.00, 270.8, 27.0)">e</text></g></g><path d="M 0.0 0.0 L 519.4 0.0 L 519.4 220.1 L 0.0 220.1 Z M 0.0 0.0 " fill="none" stroke="#000000" stroke-width="5.00" transform="matrix(1.00, 0.00, 0.00, -1.00, 499.3, 232.1)"></path><g><clipPath id="clip-333"><path d="M 496.5 9.3 L 1021.5 9.3 L 1021.5 229.1 L 496.5 229.1 Z M 496.5 9.3 "></path></clipPath><g clip-path="url(#clip-333)"><text xml:space="preserve" font-family="MarkerFelt-Thin" font-size="36.0" fill="#000000" transform="matrix(1.00, 0.00, -0.00, -1.00, 506.0, 27.0)">N</text><text xml:space="preserve" font-family="MarkerFelt-Thin" font-size="36.0" fill="#000000" transform="matrix(1.00, 0.00, -0.00, -1.00, 527.6, 27.0)">e</text><text xml:space="preserve" font-family="MarkerFelt-Thin" font-size="36.0" fill="#000000" transform="matrix(1.00, 0.00, -0.00, -1.00, 544.3, 27.0)">a</text><text xml:space="preserve" font-family="MarkerFelt-Thin" font-size="36.0" fill="#000000" transform="matrix(1.00, 0.00, -0.00, -1.00, 562.3, 27.0)">r</text><text xml:space="preserve" font-family="MarkerFelt-Thin" font-size="36.0" fill="#000000" transform="matrix(1.00, 0.00, -0.00, -1.00, 578.1, 27.0)">l</text><text xml:space="preserve" font-family="MarkerFelt-Thin" font-size="36.0" fill="#000000" transform="matrix(1.00, 0.00, -0.00, -1.00, 587.3, 27.0)">y</text><text xml:space="preserve" font-family="MarkerFelt-Thin" font-size="36.0" fill="#000000" transform="matrix(1.00, 0.00, -0.00, -1.00, 604.2, 27.0)"> </text><text xml:space="preserve" font-family="MarkerFelt-Thin" font-size="36.0" fill="#000000" transform="matrix(1.00, 0.00, -0.00, -1.00, 613.2, 27.0)">i</text><text xml:space="preserve" font-family="MarkerFelt-Thin" font-size="36.0" fill="#000000" transform="matrix(1.00, 0.00, -0.00, -1.00, 621.1, 27.0)">d</text><text xml:space="preserve" font-family="MarkerFelt-Thin" font-size="36.0" fill="#000000" transform="matrix(1.00, 0.00, -0.00, -1.00, 636.6, 27.0)">e</text><text xml:space="preserve" font-family="MarkerFelt-Thin" font-size="36.0" fill="#000000" transform="matrix(1.00, 0.00, -0.00, -1.00, 652.6, 27.0)">n</text><text xml:space="preserve" font-family="MarkerFelt-Thin" font-size="36.0" fill="#000000" transform="matrix(1.00, 0.00, -0.00, -1.00, 672.3, 27.0)">t</text><text xml:space="preserve" font-family="MarkerFelt-Thin" font-size="36.0" fill="#000000" transform="matrix(1.00, 0.00, -0.00, -1.00, 687.8, 27.0)">i</text><text xml:space="preserve" font-family="MarkerFelt-Thin" font-size="36.0" fill="#000000" transform="matrix(1.00, 0.00, -0.00, -1.00, 695.9, 27.0)">c</text><text xml:space="preserve" font-family="MarkerFelt-Thin" font-size="36.0" fill="#000000" transform="matrix(1.00, 0.00, -0.00, -1.00, 711.7, 27.0)">a</text><text xml:space="preserve" font-family="MarkerFelt-Thin" font-size="36.0" fill="#000000" transform="matrix(1.00, 0.00, -0.00, -1.00, 730.0, 27.0)">l</text></g></g><text xml:space="preserve" font-family="MarkerFelt-Thin" font-size="80.0" fill="#45A6DE" transform="matrix(1.00, 0.00, -0.00, -1.00, 110.0, 626.0)">T</text><text xml:space="preserve" font-family="MarkerFelt-Thin" font-size="80.0" fill="#45A6DE" transform="matrix(1.00, 0.00, -0.00, -1.00, 137.7, 626.0)">e</text><text xml:space="preserve" font-family="MarkerFelt-Thin" font-size="80.0" fill="#45A6DE" transform="matrix(1.00, 0.00, -0.00, -1.00, 173.0, 626.0)">c</text><text xml:space="preserve" font-family="MarkerFelt-Thin" font-size="80.0" fill="#45A6DE" transform="matrix(1.00, 0.00, -0.00, -1.00, 205.8, 626.0)">h</text><text xml:space="preserve" font-family="MarkerFelt-Thin" font-size="80.0" fill="#45A6DE" transform="matrix(1.00, 0.00, -0.00, -1.00, 246.9, 626.0)">n</text><text xml:space="preserve" font-family="MarkerFelt-Thin" font-size="80.0" fill="#45A6DE" transform="matrix(1.00, 0.00, -0.00, -1.00, 289.1, 626.0)">o</text><text xml:space="preserve" font-family="MarkerFelt-Thin" font-size="80.0" fill="#45A6DE" transform="matrix(1.00, 0.00, -0.00, -1.00, 325.4, 626.0)">l</text><text xml:space="preserve" font-family="MarkerFelt-Thin" font-size="80.0" fill="#45A6DE" transform="matrix(1.00, 0.00, -0.00, -1.00, 344.4, 626.0)">o</text><text xml:space="preserve" font-family="MarkerFelt-Thin" font-size="80.0" fill="#45A6DE" transform="matrix(1.00, 0.00, -0.00, -1.00, 381.2, 626.0)">g</text><text xml:space="preserve" font-family="MarkerFelt-Thin" font-size="80.0" fill="#45A6DE" transform="matrix(1.00, 0.00, -0.00, -1.00, 418.6, 626.0)">y</text><text xml:space="preserve" font-family="MarkerFelt-Thin" font-size="80.0" fill="#45A6DE" transform="matrix(1.00, 0.00, -0.00, -1.00, 456.2, 626.0)"> </text><text xml:space="preserve" font-family="MarkerFelt-Thin" font-size="80.0" fill="#45A6DE" transform="matrix(1.00, 0.00, -0.00, -1.00, 476.2, 626.0)">R</text><text xml:space="preserve" font-family="MarkerFelt-Thin" font-size="80.0" fill="#45A6DE" transform="matrix(1.00, 0.00, -0.00, -1.00, 524.2, 626.0)">e</text><text xml:space="preserve" font-family="MarkerFelt-Thin" font-size="80.0" fill="#45A6DE" transform="matrix(1.00, 0.00, -0.00, -1.00, 558.6, 626.0)">q</text><text xml:space="preserve" font-family="MarkerFelt-Thin" font-size="80.0" fill="#45A6DE" transform="matrix(1.00, 0.00, -0.00, -1.00, 596.1, 626.0)">u</text><text xml:space="preserve" font-family="MarkerFelt-Thin" font-size="80.0" fill="#45A6DE" transform="matrix(1.00, 0.00, -0.00, -1.00, 632.2, 626.0)">i</text><text xml:space="preserve" font-family="MarkerFelt-Thin" font-size="80.0" fill="#45A6DE" transform="matrix(1.00, 0.00, -0.00, -1.00, 652.3, 626.0)">r</text><text xml:space="preserve" font-family="MarkerFelt-Thin" font-size="80.0" fill="#45A6DE" transform="matrix(1.00, 0.00, -0.00, -1.00, 682.7, 626.0)">e</text><text xml:space="preserve" font-family="MarkerFelt-Thin" font-size="80.0" fill="#45A6DE" transform="matrix(1.00, 0.00, -0.00, -1.00, 716.3, 626.0)">m</text><text xml:space="preserve" font-family="MarkerFelt-Thin" font-size="80.0" fill="#45A6DE" transform="matrix(1.00, 0.00, -0.00, -1.00, 773.9, 626.0)">e</text><text xml:space="preserve" font-family="MarkerFelt-Thin" font-size="80.0" fill="#45A6DE" transform="matrix(1.00, 0.00, -0.00, -1.00, 809.4, 626.0)">n</text><text xml:space="preserve" font-family="MarkerFelt-Thin" font-size="80.0" fill="#45A6DE" transform="matrix(1.00, 0.00, -0.00, -1.00, 853.3, 626.0)">t</text><text xml:space="preserve" font-family="MarkerFelt-Thin" font-size="80.0" fill="#45A6DE" transform="matrix(1.00, 0.00, -0.00, -1.00, 884.8, 626.0)">s</text><g><clipPath id="clip-334"><path d="M 104.0 431.4 L 122.4 431.4 L 122.4 448.6 L 104.0 448.6 Z M 104.0 431.4 "></path></clipPath><g clip-path="url(#clip-334)"><path d="M 122.2 437.5 C 122.4 437.3 122.4 437.0 122.4 436.7 C 122.4 436.2 122.1 435.7 121.5 435.2 C 120.9 434.7 120.2 434.5 119.5 434.5 C 118.4 434.5 117.3 435.2 115.9 436.7 C 115.9 436.7 115.9 434.5 115.9 434.5 C 115.9 434.3 116.0 434.0 116.1 433.7 C 116.2 433.4 116.3 433.2 116.3 433.0 C 116.3 432.6 116.1 432.2 115.6 431.8 C 115.1 431.5 114.7 431.4 114.2 431.4 C 113.4 431.4 112.6 431.7 112.0 432.4 C 111.8 432.7 111.8 433.2 111.9 434.2 C 111.9 435.2 112.0 436.2 112.0 437.3 C 111.5 436.9 110.5 436.3 109.1 435.6 C 108.9 435.3 108.3 435.0 107.4 434.6 C 106.6 434.6 105.9 434.7 105.1 435.1 C 104.4 435.4 104.0 435.9 104.0 436.4 C 104.0 436.6 104.0 436.7 104.1 436.9 C 104.3 437.2 104.6 437.4 105.0 437.6 C 105.8 437.8 106.2 438.0 106.3 438.0 C 106.3 438.0 110.3 440.2 110.3 440.2 C 110.3 440.2 107.5 441.6 107.5 441.6 C 107.0 441.6 106.5 441.8 105.8 442.2 C 105.6 442.4 105.6 442.7 105.6 442.9 C 105.6 443.6 106.0 444.3 106.8 444.9 C 107.6 445.6 108.4 445.9 109.3 445.9 C 109.5 445.9 109.8 445.9 110.0 445.8 C 110.3 445.7 110.6 445.4 110.8 445.0 C 111.0 444.5 111.4 444.1 112.0 443.7 C 112.0 443.7 112.1 446.3 112.1 446.3 C 112.0 446.7 112.0 447.2 112.1 447.9 C 112.5 448.3 113.2 448.6 114.4 448.6 C 115.4 448.6 116.1 448.3 116.5 447.6 C 116.6 447.4 116.6 446.8 116.5 445.9 C 116.5 445.0 116.4 444.2 116.3 443.4 C 116.3 443.4 117.8 444.1 117.8 444.1 C 118.1 444.4 118.6 444.8 119.5 445.2 C 120.0 445.2 120.6 445.0 121.2 444.5 C 121.7 444.0 122.0 443.5 122.0 442.9 C 122.0 442.6 121.9 442.4 121.8 442.2 C 121.6 442.0 121.4 441.8 121.0 441.7 C 120.6 441.6 120.3 441.5 120.1 441.4 C 120.1 441.4 117.9 439.8 117.9 439.8 C 117.9 439.8 120.8 438.3 120.8 438.3 C 121.1 438.2 121.6 437.9 122.2 437.5 Z M 122.2 437.5 " fill="#3995D6"></path></g></g><text xml:space="preserve" font-family="MarkerFelt-Thin" font-size="31.7" fill="#858585" transform="matrix(1.00, 0.00, -0.00, -1.00, 135.0, 430.0)">S</text><text xml:space="preserve" font-family="MarkerFelt-Thin" font-size="31.7" fill="#858585" transform="matrix(1.00, 0.00, -0.00, -1.00, 151.6, 430.0)">e</text><text xml:space="preserve" font-family="MarkerFelt-Thin" font-size="31.7" fill="#858585" transform="matrix(1.00, 0.00, -0.00, -1.00, 165.5, 430.0)">r</text><text xml:space="preserve" font-family="MarkerFelt-Thin" font-size="31.7" fill="#858585" transform="matrix(1.00, 0.00, -0.00, -1.00, 180.7, 430.0)">v</text><text xml:space="preserve" font-family="MarkerFelt-Thin" font-size="31.7" fill="#858585" transform="matrix(1.00, 0.00, -0.00, -1.00, 195.3, 430.0)">e</text><text xml:space="preserve" font-family="MarkerFelt-Thin" font-size="31.7" fill="#858585" transform="matrix(1.00, 0.00, -0.00, -1.00, 209.3, 430.0)">r</text><text xml:space="preserve" font-family="MarkerFelt-Thin" font-size="31.7" fill="#858585" transform="matrix(1.00, 0.00, -0.00, -1.00, 218.5, 430.0)">-</text><text xml:space="preserve" font-family="MarkerFelt-Thin" font-size="31.7" fill="#858585" transform="matrix(1.00, 0.00, -0.00, -1.00, 230.2, 430.0)">s</text><text xml:space="preserve" font-family="MarkerFelt-Thin" font-size="31.7" fill="#858585" transform="matrix(1.00, 0.00, -0.00, -1.00, 243.2, 430.0)">i</text><text xml:space="preserve" font-family="MarkerFelt-Thin" font-size="31.7" fill="#858585" transform="matrix(1.00, 0.00, -0.00, -1.00, 250.2, 430.0)">d</text><text xml:space="preserve" font-family="MarkerFelt-Thin" font-size="31.7" fill="#858585" transform="matrix(1.00, 0.00, -0.00, -1.00, 263.8, 430.0)">e</text><text xml:space="preserve" font-family="MarkerFelt-Thin" font-size="31.7" fill="#858585" transform="matrix(1.00, 0.00, -0.00, -1.00, 275.9, 430.0)"> </text><text xml:space="preserve" font-family="MarkerFelt-Thin" font-size="31.7" fill="#858585" transform="matrix(1.00, 0.00, -0.00, -1.00, 283.8, 430.0)">J</text><text xml:space="preserve" font-family="MarkerFelt-Thin" font-size="31.7" fill="#858585" transform="matrix(1.00, 0.00, -0.00, -1.00, 299.2, 430.0)">V</text><text xml:space="preserve" font-family="MarkerFelt-Thin" font-size="31.7" fill="#858585" transform="matrix(1.00, 0.00, -0.00, -1.00, 316.3, 430.0)">M</text><g><clipPath id="clip-335"><path d="M 104.0 363.9 L 122.4 363.9 L 122.4 381.1 L 104.0 381.1 Z M 104.0 363.9 "></path></clipPath><g clip-path="url(#clip-335)"><path d="M 122.2 370.1 C 122.4 369.8 122.4 369.6 122.4 369.3 C 122.4 368.7 122.1 368.2 121.5 367.8 C 120.9 367.3 120.2 367.0 119.5 367.0 C 118.4 367.0 117.3 367.8 115.9 369.3 C 115.9 369.3 115.9 367.1 115.9 367.1 C 115.9 366.8 116.0 366.6 116.1 366.3 C 116.2 366.0 116.3 365.7 116.3 365.6 C 116.3 365.1 116.1 364.7 115.6 364.4 C 115.1 364.1 114.7 363.9 114.2 363.9 C 113.4 363.9 112.6 364.3 112.0 365.0 C 111.8 365.2 111.8 365.8 111.9 366.8 C 111.9 367.8 112.0 368.8 112.0 369.8 C 111.5 369.5 110.5 368.9 109.1 368.1 C 108.9 367.8 108.3 367.5 107.4 367.2 C 106.6 367.1 105.9 367.3 105.1 367.6 C 104.4 368.0 104.0 368.4 104.0 369.0 C 104.0 369.1 104.0 369.3 104.1 369.4 C 104.3 369.8 104.6 370.0 105.0 370.1 C 105.8 370.4 106.2 370.5 106.3 370.6 C 106.3 370.6 110.3 372.8 110.3 372.8 C 110.3 372.8 107.5 374.2 107.5 374.2 C 107.0 374.2 106.5 374.4 105.8 374.8 C 105.6 375.0 105.6 375.2 105.6 375.5 C 105.6 376.2 106.0 376.8 106.8 377.5 C 107.6 378.1 108.4 378.5 109.3 378.5 C 109.5 378.5 109.8 378.4 110.0 378.3 C 110.3 378.2 110.6 378.0 110.8 377.6 C 111.0 377.1 111.4 376.7 112.0 376.3 C 112.0 376.3 112.1 378.9 112.1 378.9 C 112.0 379.3 112.0 379.8 112.1 380.5 C 112.5 380.9 113.2 381.1 114.4 381.1 C 115.4 381.1 116.1 380.8 116.5 380.2 C 116.6 379.9 116.6 379.4 116.5 378.4 C 116.5 377.6 116.4 376.8 116.3 375.9 C 116.3 375.9 117.8 376.7 117.8 376.7 C 118.1 377.0 118.6 377.4 119.5 377.7 C 120.0 377.8 120.6 377.5 121.2 377.0 C 121.7 376.5 122.0 376.0 122.0 375.4 C 122.0 375.2 121.9 375.0 121.8 374.7 C 121.6 374.5 121.4 374.4 121.0 374.3 C 120.6 374.2 120.3 374.1 120.1 374.0 C 120.1 374.0 117.9 372.4 117.9 372.4 C 117.9 372.4 120.8 370.8 120.8 370.8 C 121.1 370.7 121.6 370.5 122.2 370.1 Z M 122.2 370.1 " fill="#3995D6"></path></g></g><text xml:space="preserve" font-family="MarkerFelt-Thin" font-size="31.7" fill="#858585" transform="matrix(1.00, 0.00, -0.00, -1.00, 135.0, 362.0)">C</text><text xml:space="preserve" font-family="MarkerFelt-Thin" font-size="31.7" fill="#858585" transform="matrix(1.00, 0.00, -0.00, -1.00, 150.6, 362.0)">l</text><text xml:space="preserve" font-family="MarkerFelt-Thin" font-size="31.7" fill="#858585" transform="matrix(1.00, 0.00, -0.00, -1.00, 158.0, 362.0)">i</text><text xml:space="preserve" font-family="MarkerFelt-Thin" font-size="31.7" fill="#858585" transform="matrix(1.00, 0.00, -0.00, -1.00, 165.0, 362.0)">e</text><text xml:space="preserve" font-family="MarkerFelt-Thin" font-size="31.7" fill="#858585" transform="matrix(1.00, 0.00, -0.00, -1.00, 179.1, 362.0)">n</text><text xml:space="preserve" font-family="MarkerFelt-Thin" font-size="31.7" fill="#858585" transform="matrix(1.00, 0.00, -0.00, -1.00, 196.4, 362.0)">t</text><text xml:space="preserve" font-family="MarkerFelt-Thin" font-size="31.7" fill="#858585" transform="matrix(1.00, 0.00, -0.00, -1.00, 206.0, 362.0)">-</text><text xml:space="preserve" font-family="MarkerFelt-Thin" font-size="31.7" fill="#858585" transform="matrix(1.00, 0.00, -0.00, -1.00, 217.7, 362.0)">s</text><text xml:space="preserve" font-family="MarkerFelt-Thin" font-size="31.7" fill="#858585" transform="matrix(1.00, 0.00, -0.00, -1.00, 230.7, 362.0)">i</text><text xml:space="preserve" font-family="MarkerFelt-Thin" font-size="31.7" fill="#858585" transform="matrix(1.00, 0.00, -0.00, -1.00, 237.7, 362.0)">d</text><text xml:space="preserve" font-family="MarkerFelt-Thin" font-size="31.7" fill="#858585" transform="matrix(1.00, 0.00, -0.00, -1.00, 251.4, 362.0)">e</text><text xml:space="preserve" font-family="MarkerFelt-Thin" font-size="31.7" fill="#858585" transform="matrix(1.00, 0.00, -0.00, -1.00, 263.4, 362.0)"> </text><text xml:space="preserve" font-family="MarkerFelt-Thin" font-size="31.7" fill="#858585" transform="matrix(1.00, 0.00, -0.00, -1.00, 271.3, 362.0)">J</text><text xml:space="preserve" font-family="MarkerFelt-Thin" font-size="31.7" fill="#858585" transform="matrix(1.00, 0.00, -0.00, -1.00, 285.8, 362.0)">a</text><text xml:space="preserve" font-family="MarkerFelt-Thin" font-size="31.7" fill="#858585" transform="matrix(1.00, 0.00, -0.00, -1.00, 301.1, 362.0)">v</text><text xml:space="preserve" font-family="MarkerFelt-Thin" font-size="31.7" fill="#858585" transform="matrix(1.00, 0.00, -0.00, -1.00, 316.7, 362.0)">a</text><text xml:space="preserve" font-family="MarkerFelt-Thin" font-size="31.7" fill="#858585" transform="matrix(1.00, 0.00, -0.00, -1.00, 331.2, 362.0)">S</text><text xml:space="preserve" font-family="MarkerFelt-Thin" font-size="31.7" fill="#858585" transform="matrix(1.00, 0.00, -0.00, -1.00, 348.0, 362.0)">c</text><text xml:space="preserve" font-family="MarkerFelt-Thin" font-size="31.7" fill="#858585" transform="matrix(1.00, 0.00, -0.00, -1.00, 361.2, 362.0)">r</text><text xml:space="preserve" font-family="MarkerFelt-Thin" font-size="31.7" fill="#858585" transform="matrix(1.00, 0.00, -0.00, -1.00, 375.2, 362.0)">i</text><text xml:space="preserve" font-family="MarkerFelt-Thin" font-size="31.7" fill="#858585" transform="matrix(1.00, 0.00, -0.00, -1.00, 383.0, 362.0)">p</text><text xml:space="preserve" font-family="MarkerFelt-Thin" font-size="31.7" fill="#858585" transform="matrix(1.00, 0.00, -0.00, -1.00, 398.6, 362.0)">t</text><text xml:space="preserve" font-family="MarkerFelt-Thin" font-size="31.7" fill="#858585" transform="matrix(1.00, 0.00, -0.00, -1.00, 410.0, 362.0)"> </text><text xml:space="preserve" font-family="MarkerFelt-Thin" font-size="31.7" fill="#858585" transform="matrix(1.00, 0.00, -0.00, -1.00, 418.0, 362.0)">R</text><text xml:space="preserve" font-family="MarkerFelt-Thin" font-size="31.7" fill="#858585" transform="matrix(1.00, 0.00, -0.00, -1.00, 437.3, 362.0)">u</text><text xml:space="preserve" font-family="MarkerFelt-Thin" font-size="31.7" fill="#858585" transform="matrix(1.00, 0.00, -0.00, -1.00, 451.5, 362.0)">n</text><text xml:space="preserve" font-family="MarkerFelt-Thin" font-size="31.7" fill="#858585" transform="matrix(1.00, 0.00, -0.00, -1.00, 468.9, 362.0)">t</text><text xml:space="preserve" font-family="MarkerFelt-Thin" font-size="31.7" fill="#858585" transform="matrix(1.00, 0.00, -0.00, -1.00, 482.5, 362.0)">i</text><text xml:space="preserve" font-family="MarkerFelt-Thin" font-size="31.7" fill="#858585" transform="matrix(1.00, 0.00, -0.00, -1.00, 489.9, 362.0)">m</text><text xml:space="preserve" font-family="MarkerFelt-Thin" font-size="31.7" fill="#858585" transform="matrix(1.00, 0.00, -0.00, -1.00, 512.8, 362.0)">e</text><g><clipPath id="clip-336"><path d="M 104.0 296.5 L 122.4 296.5 L 122.4 313.7 L 104.0 313.7 Z M 104.0 296.5 "></path></clipPath><g clip-path="url(#clip-336)"><path d="M 122.2 302.6 C 122.4 302.4 122.4 302.1 122.4 301.8 C 122.4 301.3 122.1 300.8 121.5 300.3 C 120.9 299.8 120.2 299.6 119.5 299.6 C 118.4 299.6 117.3 300.3 115.9 301.8 C 115.9 301.8 115.9 299.6 115.9 299.6 C 115.9 299.4 116.0 299.1 116.1 298.8 C 116.2 298.5 116.3 298.3 116.3 298.2 C 116.3 297.7 116.1 297.3 115.6 297.0 C 115.1 296.6 114.7 296.5 114.2 296.5 C 113.4 296.5 112.6 296.8 112.0 297.6 C 111.8 297.8 111.8 298.4 111.9 299.3 C 111.9 300.4 112.0 301.4 112.0 302.4 C 111.5 302.0 110.5 301.4 109.1 300.7 C 108.9 300.4 108.3 300.1 107.4 299.8 C 106.6 299.7 105.9 299.8 105.1 300.2 C 104.4 300.5 104.0 301.0 104.0 301.6 C 104.0 301.7 104.0 301.8 104.1 302.0 C 104.3 302.3 104.6 302.6 105.0 302.7 C 105.8 302.9 106.2 303.1 106.3 303.1 C 106.3 303.1 110.3 305.3 110.3 305.3 C 110.3 305.3 107.5 306.8 107.5 306.8 C 107.0 306.8 106.5 307.0 105.8 307.3 C 105.6 307.6 105.6 307.8 105.6 308.1 C 105.6 308.7 106.0 309.4 106.8 310.1 C 107.6 310.7 108.4 311.0 109.3 311.0 C 109.5 311.0 109.8 311.0 110.0 310.9 C 110.3 310.8 110.6 310.6 110.8 310.2 C 111.0 309.7 111.4 309.2 112.0 308.9 C 112.0 308.9 112.1 311.5 112.1 311.5 C 112.0 311.8 112.0 312.3 112.1 313.0 C 112.5 313.5 113.2 313.7 114.4 313.7 C 115.4 313.7 116.1 313.4 116.5 312.8 C 116.6 312.5 116.6 311.9 116.5 311.0 C 116.5 310.1 116.4 309.3 116.3 308.5 C 116.3 308.5 117.8 309.2 117.8 309.2 C 118.1 309.6 118.6 309.9 119.5 310.3 C 120.0 310.3 120.6 310.1 121.2 309.6 C 121.7 309.1 122.0 308.6 122.0 308.0 C 122.0 307.7 121.9 307.5 121.8 307.3 C 121.6 307.1 121.4 306.9 121.0 306.9 C 120.6 306.8 120.3 306.6 120.1 306.5 C 120.1 306.5 117.9 305.0 117.9 305.0 C 117.9 305.0 120.8 303.4 120.8 303.4 C 121.1 303.3 121.6 303.0 122.2 302.6 Z M 122.2 302.6 " fill="#3995D6"></path></g></g><text xml:space="preserve" font-family="MarkerFelt-Thin" font-size="31.7" fill="#858585" transform="matrix(1.00, 0.00, -0.00, -1.00, 135.0, 295.0)">U</text><text xml:space="preserve" font-family="MarkerFelt-Thin" font-size="31.7" fill="#858585" transform="matrix(1.00, 0.00, -0.00, -1.00, 152.1, 295.0)">s</text><text xml:space="preserve" font-family="MarkerFelt-Thin" font-size="31.7" fill="#858585" transform="matrix(1.00, 0.00, -0.00, -1.00, 164.9, 295.0)">e</text><text xml:space="preserve" font-family="MarkerFelt-Thin" font-size="31.7" fill="#858585" transform="matrix(1.00, 0.00, -0.00, -1.00, 179.4, 295.0)">s</text><text xml:space="preserve" font-family="MarkerFelt-Thin" font-size="31.7" fill="#858585" transform="matrix(1.00, 0.00, -0.00, -1.00, 191.1, 295.0)"> </text><text xml:space="preserve" font-family="MarkerFelt-Thin" font-size="31.7" fill="#858585" transform="matrix(1.00, 0.00, -0.00, -1.00, 199.0, 295.0)">w</text><text xml:space="preserve" font-family="MarkerFelt-Thin" font-size="31.7" fill="#858585" transform="matrix(1.00, 0.00, -0.00, -1.00, 221.8, 295.0)">e</text><text xml:space="preserve" font-family="MarkerFelt-Thin" font-size="31.7" fill="#858585" transform="matrix(1.00, 0.00, -0.00, -1.00, 236.5, 295.0)">a</text><text xml:space="preserve" font-family="MarkerFelt-Thin" font-size="31.7" fill="#858585" transform="matrix(1.00, 0.00, -0.00, -1.00, 252.6, 295.0)">l</text><text xml:space="preserve" font-family="MarkerFelt-Thin" font-size="31.7" fill="#858585" transform="matrix(1.00, 0.00, -0.00, -1.00, 261.0, 295.0)">t</text><text xml:space="preserve" font-family="MarkerFelt-Thin" font-size="31.7" fill="#858585" transform="matrix(1.00, 0.00, -0.00, -1.00, 274.1, 295.0)">h</text><text xml:space="preserve" font-family="MarkerFelt-Thin" font-size="31.7" fill="#858585" transform="matrix(1.00, 0.00, -0.00, -1.00, 289.0, 295.0)"> </text><text xml:space="preserve" font-family="MarkerFelt-Thin" font-size="31.7" fill="#858585" transform="matrix(1.00, 0.00, -0.00, -1.00, 296.9, 295.0)">o</text><text xml:space="preserve" font-family="MarkerFelt-Thin" font-size="31.7" fill="#858585" transform="matrix(1.00, 0.00, -0.00, -1.00, 311.3, 295.0)">f</text><text xml:space="preserve" font-family="MarkerFelt-Thin" font-size="31.7" fill="#858585" transform="matrix(1.00, 0.00, -0.00, -1.00, 322.7, 295.0)"> </text><text xml:space="preserve" font-family="MarkerFelt-Thin" font-size="31.7" fill="#858585" transform="matrix(1.00, 0.00, -0.00, -1.00, 330.6, 295.0)">e</text><text xml:space="preserve" font-family="MarkerFelt-Thin" font-size="31.7" fill="#858585" transform="matrix(1.00, 0.00, -0.00, -1.00, 345.2, 295.0)">x</text><text xml:space="preserve" font-family="MarkerFelt-Thin" font-size="31.7" fill="#858585" transform="matrix(1.00, 0.00, -0.00, -1.00, 359.8, 295.0)">i</text><text xml:space="preserve" font-family="MarkerFelt-Thin" font-size="31.7" fill="#858585" transform="matrix(1.00, 0.00, -0.00, -1.00, 367.2, 295.0)">s</text><text xml:space="preserve" font-family="MarkerFelt-Thin" font-size="31.7" fill="#858585" transform="matrix(1.00, 0.00, -0.00, -1.00, 381.0, 295.0)">t</text><text xml:space="preserve" font-family="MarkerFelt-Thin" font-size="31.7" fill="#858585" transform="matrix(1.00, 0.00, -0.00, -1.00, 394.6, 295.0)">i</text><text xml:space="preserve" font-family="MarkerFelt-Thin" font-size="31.7" fill="#858585" transform="matrix(1.00, 0.00, -0.00, -1.00, 402.4, 295.0)">n</text><text xml:space="preserve" font-family="MarkerFelt-Thin" font-size="31.7" fill="#858585" transform="matrix(1.00, 0.00, -0.00, -1.00, 418.9, 295.0)">g</text><text xml:space="preserve" font-family="MarkerFelt-Thin" font-size="31.7" fill="#858585" transform="matrix(1.00, 0.00, -0.00, -1.00, 432.2, 295.0)"> </text><text xml:space="preserve" font-family="MarkerFelt-Thin" font-size="31.7" fill="#858585" transform="matrix(1.00, 0.00, -0.00, -1.00, 440.1, 295.0)">J</text><text xml:space="preserve" font-family="MarkerFelt-Thin" font-size="31.7" fill="#858585" transform="matrix(1.00, 0.00, -0.00, -1.00, 453.8, 295.0)">S</text><text xml:space="preserve" font-family="MarkerFelt-Thin" font-size="31.7" fill="#858585" transform="matrix(1.00, 0.00, -0.00, -1.00, 469.3, 295.0)"> </text><text xml:space="preserve" font-family="MarkerFelt-Thin" font-size="31.7" fill="#858585" transform="matrix(1.00, 0.00, -0.00, -1.00, 135.0, 261.0)">l</text><text xml:space="preserve" font-family="MarkerFelt-Thin" font-size="31.7" fill="#858585" transform="matrix(1.00, 0.00, -0.00, -1.00, 142.4, 261.0)">i</text><text xml:space="preserve" font-family="MarkerFelt-Thin" font-size="31.7" fill="#858585" transform="matrix(1.00, 0.00, -0.00, -1.00, 150.0, 261.0)">b</text><text xml:space="preserve" font-family="MarkerFelt-Thin" font-size="31.7" fill="#858585" transform="matrix(1.00, 0.00, -0.00, -1.00, 164.7, 261.0)">r</text><text xml:space="preserve" font-family="MarkerFelt-Thin" font-size="31.7" fill="#858585" transform="matrix(1.00, 0.00, -0.00, -1.00, 177.6, 261.0)">a</text><text xml:space="preserve" font-family="MarkerFelt-Thin" font-size="31.7" fill="#858585" transform="matrix(1.00, 0.00, -0.00, -1.00, 193.5, 261.0)">r</text><text xml:space="preserve" font-family="MarkerFelt-Thin" font-size="31.7" fill="#858585" transform="matrix(1.00, 0.00, -0.00, -1.00, 207.5, 261.0)">i</text><text xml:space="preserve" font-family="MarkerFelt-Thin" font-size="31.7" fill="#858585" transform="matrix(1.00, 0.00, -0.00, -1.00, 214.4, 261.0)">e</text><text xml:space="preserve" font-family="MarkerFelt-Thin" font-size="31.7" fill="#858585" transform="matrix(1.00, 0.00, -0.00, -1.00, 228.9, 261.0)">s</text><g><clipPath id="clip-337"><path d="M 538.0 431.3 L 556.2 431.3 L 556.2 448.3 L 538.0 448.3 Z M 538.0 431.3 "></path></clipPath><g clip-path="url(#clip-337)"><path d="M 556.0 437.4 C 556.1 437.1 556.2 436.8 556.2 436.6 C 556.2 436.0 555.9 435.5 555.3 435.1 C 554.7 434.6 554.0 434.4 553.3 434.4 C 552.3 434.4 551.1 435.1 549.8 436.6 C 549.8 436.6 549.8 434.4 549.8 434.4 C 549.8 434.1 549.9 433.9 550.0 433.6 C 550.1 433.3 550.2 433.1 550.2 432.9 C 550.2 432.5 549.9 432.1 549.5 431.7 C 549.0 431.4 548.5 431.3 548.1 431.3 C 547.3 431.3 546.5 431.6 545.9 432.3 C 545.8 432.5 545.7 433.1 545.8 434.1 C 545.8 435.1 545.9 436.1 545.9 437.1 C 545.4 436.7 544.5 436.2 543.0 435.4 C 542.9 435.1 542.3 434.8 541.3 434.5 C 540.6 434.4 539.9 434.6 539.1 434.9 C 538.4 435.3 538.0 435.7 538.0 436.3 C 538.0 436.4 538.0 436.6 538.1 436.7 C 538.2 437.0 538.6 437.3 539.0 437.4 C 539.8 437.7 540.2 437.8 540.3 437.8 C 540.3 437.8 544.3 440.0 544.3 440.0 C 544.3 440.0 541.4 441.4 541.4 441.4 C 541.0 441.4 540.4 441.6 539.8 442.0 C 539.6 442.2 539.6 442.5 539.6 442.7 C 539.6 443.4 540.0 444.0 540.8 444.7 C 541.6 445.3 542.4 445.7 543.2 445.7 C 543.5 445.7 543.7 445.6 544.0 445.5 C 544.2 445.4 544.5 445.2 544.7 444.8 C 545.0 444.3 545.4 443.9 545.9 443.5 C 545.9 443.5 546.0 446.1 546.0 446.1 C 545.9 446.4 545.9 446.9 546.0 447.6 C 546.4 448.1 547.1 448.3 548.2 448.3 C 549.3 448.3 550.0 448.0 550.3 447.4 C 550.5 447.1 550.5 446.5 550.4 445.6 C 550.3 444.8 550.2 444.0 550.1 443.1 C 550.1 443.1 551.6 443.9 551.6 443.9 C 551.9 444.2 552.5 444.5 553.3 444.9 C 553.9 444.9 554.4 444.7 555.0 444.2 C 555.5 443.7 555.8 443.2 555.8 442.6 C 555.8 442.4 555.7 442.2 555.6 442.0 C 555.4 441.7 555.2 441.6 554.8 441.5 C 554.4 441.4 554.1 441.3 553.9 441.2 C 553.9 441.2 551.7 439.7 551.7 439.7 C 551.7 439.7 554.6 438.1 554.6 438.1 C 554.9 438.0 555.4 437.7 556.0 437.4 Z M 556.0 437.4 " fill="#3995D6"></path></g></g><text xml:space="preserve" font-family="MarkerFelt-Thin" font-size="31.3" fill="#858585" transform="matrix(1.00, 0.00, -0.00, -1.00, 568.0, 430.0)">S</text><text xml:space="preserve" font-family="MarkerFelt-Thin" font-size="31.3" fill="#858585" transform="matrix(1.00, 0.00, -0.00, -1.00, 584.4, 430.0)">e</text><text xml:space="preserve" font-family="MarkerFelt-Thin" font-size="31.3" fill="#858585" transform="matrix(1.00, 0.00, -0.00, -1.00, 598.2, 430.0)">r</text><text xml:space="preserve" font-family="MarkerFelt-Thin" font-size="31.3" fill="#858585" transform="matrix(1.00, 0.00, -0.00, -1.00, 613.2, 430.0)">v</text><text xml:space="preserve" font-family="MarkerFelt-Thin" font-size="31.3" fill="#858585" transform="matrix(1.00, 0.00, -0.00, -1.00, 627.6, 430.0)">e</text><text xml:space="preserve" font-family="MarkerFelt-Thin" font-size="31.3" fill="#858585" transform="matrix(1.00, 0.00, -0.00, -1.00, 641.4, 430.0)">r</text><text xml:space="preserve" font-family="MarkerFelt-Thin" font-size="31.3" fill="#858585" transform="matrix(1.00, 0.00, -0.00, -1.00, 650.5, 430.0)">-</text><text xml:space="preserve" font-family="MarkerFelt-Thin" font-size="31.3" fill="#858585" transform="matrix(1.00, 0.00, -0.00, -1.00, 662.1, 430.0)">s</text><text xml:space="preserve" font-family="MarkerFelt-Thin" font-size="31.3" fill="#858585" transform="matrix(1.00, 0.00, -0.00, -1.00, 675.0, 430.0)">i</text><text xml:space="preserve" font-family="MarkerFelt-Thin" font-size="31.3" fill="#858585" transform="matrix(1.00, 0.00, -0.00, -1.00, 681.9, 430.0)">d</text><text xml:space="preserve" font-family="MarkerFelt-Thin" font-size="31.3" fill="#858585" transform="matrix(1.00, 0.00, -0.00, -1.00, 695.4, 430.0)">e</text><text xml:space="preserve" font-family="MarkerFelt-Thin" font-size="31.3" fill="#858585" transform="matrix(1.00, 0.00, -0.00, -1.00, 707.3, 430.0)"> </text><text xml:space="preserve" font-family="MarkerFelt-Thin" font-size="31.3" fill="#858585" transform="matrix(1.00, 0.00, -0.00, -1.00, 715.1, 430.0)">J</text><text xml:space="preserve" font-family="MarkerFelt-Thin" font-size="31.3" fill="#858585" transform="matrix(1.00, 0.00, -0.00, -1.00, 730.3, 430.0)">V</text><text xml:space="preserve" font-family="MarkerFelt-Thin" font-size="31.3" fill="#858585" transform="matrix(1.00, 0.00, -0.00, -1.00, 747.2, 430.0)">M</text><g><clipPath id="clip-338"><path d="M 538.0 364.2 L 556.2 364.2 L 556.2 381.2 L 538.0 381.2 Z M 538.0 364.2 "></path></clipPath><g clip-path="url(#clip-338)"><path d="M 556.0 370.3 C 556.1 370.0 556.2 369.8 556.2 369.5 C 556.2 369.0 555.9 368.5 555.3 368.0 C 554.7 367.5 554.0 367.3 553.3 367.3 C 552.3 367.3 551.1 368.0 549.8 369.5 C 549.8 369.5 549.8 367.3 549.8 367.3 C 549.8 367.1 549.9 366.8 550.0 366.5 C 550.1 366.2 550.2 366.0 550.2 365.9 C 550.2 365.4 549.9 365.0 549.5 364.7 C 549.0 364.4 548.5 364.2 548.1 364.2 C 547.3 364.2 546.5 364.6 545.9 365.3 C 545.8 365.5 545.7 366.1 545.8 367.0 C 545.8 368.0 545.9 369.0 545.9 370.0 C 545.4 369.7 544.5 369.1 543.0 368.4 C 542.9 368.1 542.3 367.8 541.3 367.5 C 540.6 367.4 539.9 367.5 539.1 367.9 C 538.4 368.2 538.0 368.7 538.0 369.2 C 538.0 369.4 538.0 369.5 538.1 369.7 C 538.2 370.0 538.6 370.2 539.0 370.3 C 539.8 370.6 540.2 370.7 540.3 370.8 C 540.3 370.8 544.3 373.0 544.3 373.0 C 544.3 373.0 541.4 374.4 541.4 374.4 C 541.0 374.4 540.4 374.6 539.8 374.9 C 539.6 375.2 539.6 375.4 539.6 375.6 C 539.6 376.3 540.0 377.0 540.8 377.6 C 541.6 378.3 542.4 378.6 543.2 378.6 C 543.5 378.6 543.7 378.5 544.0 378.5 C 544.2 378.4 544.5 378.1 544.7 377.7 C 545.0 377.2 545.4 376.8 545.9 376.4 C 545.9 376.4 546.0 379.0 546.0 379.0 C 545.9 379.4 545.9 379.9 546.0 380.6 C 546.4 381.0 547.1 381.2 548.2 381.2 C 549.3 381.2 550.0 380.9 550.3 380.3 C 550.5 380.0 550.5 379.5 550.4 378.5 C 550.3 377.7 550.2 376.9 550.1 376.1 C 550.1 376.1 551.6 376.8 551.6 376.8 C 551.9 377.1 552.5 377.5 553.3 377.8 C 553.9 377.9 554.4 377.7 555.0 377.2 C 555.5 376.7 555.8 376.2 555.8 375.6 C 555.8 375.3 555.7 375.1 555.6 374.9 C 555.4 374.7 555.2 374.5 554.8 374.5 C 554.4 374.4 554.1 374.3 553.9 374.1 C 553.9 374.1 551.7 372.6 551.7 372.6 C 551.7 372.6 554.6 371.0 554.6 371.0 C 554.9 370.9 555.4 370.7 556.0 370.3 Z M 556.0 370.3 " fill="#3995D6"></path></g></g><text xml:space="preserve" font-family="MarkerFelt-Thin" font-size="31.3" fill="#858585" transform="matrix(1.00, 0.00, -0.00, -1.00, 568.0, 363.0)">C</text><text xml:space="preserve" font-family="MarkerFelt-Thin" font-size="31.3" fill="#858585" transform="matrix(1.00, 0.00, -0.00, -1.00, 583.4, 363.0)">l</text><text xml:space="preserve" font-family="MarkerFelt-Thin" font-size="31.3" fill="#858585" transform="matrix(1.00, 0.00, -0.00, -1.00, 590.8, 363.0)">i</text><text xml:space="preserve" font-family="MarkerFelt-Thin" font-size="31.3" fill="#858585" transform="matrix(1.00, 0.00, -0.00, -1.00, 597.7, 363.0)">e</text><text xml:space="preserve" font-family="MarkerFelt-Thin" font-size="31.3" fill="#858585" transform="matrix(1.00, 0.00, -0.00, -1.00, 611.6, 363.0)">n</text><text xml:space="preserve" font-family="MarkerFelt-Thin" font-size="31.3" fill="#858585" transform="matrix(1.00, 0.00, -0.00, -1.00, 628.7, 363.0)">t</text><text xml:space="preserve" font-family="MarkerFelt-Thin" font-size="31.3" fill="#858585" transform="matrix(1.00, 0.00, -0.00, -1.00, 638.2, 363.0)">-</text><text xml:space="preserve" font-family="MarkerFelt-Thin" font-size="31.3" fill="#858585" transform="matrix(1.00, 0.00, -0.00, -1.00, 647.8, 363.0)">S</text><text xml:space="preserve" font-family="MarkerFelt-Thin" font-size="31.3" fill="#858585" transform="matrix(1.00, 0.00, -0.00, -1.00, 664.3, 363.0)">i</text><text xml:space="preserve" font-family="MarkerFelt-Thin" font-size="31.3" fill="#858585" transform="matrix(1.00, 0.00, -0.00, -1.00, 671.2, 363.0)">d</text><text xml:space="preserve" font-family="MarkerFelt-Thin" font-size="31.3" fill="#858585" transform="matrix(1.00, 0.00, -0.00, -1.00, 684.7, 363.0)">e</text><text xml:space="preserve" font-family="MarkerFelt-Thin" font-size="31.3" fill="#858585" transform="matrix(1.00, 0.00, -0.00, -1.00, 696.6, 363.0)"> </text><text xml:space="preserve" font-family="MarkerFelt-Thin" font-size="31.3" fill="#858585" transform="matrix(1.00, 0.00, -0.00, -1.00, 704.4, 363.0)">J</text><text xml:space="preserve" font-family="MarkerFelt-Thin" font-size="31.3" fill="#858585" transform="matrix(1.00, 0.00, -0.00, -1.00, 718.7, 363.0)">a</text><text xml:space="preserve" font-family="MarkerFelt-Thin" font-size="31.3" fill="#858585" transform="matrix(1.00, 0.00, -0.00, -1.00, 733.8, 363.0)">v</text><text xml:space="preserve" font-family="MarkerFelt-Thin" font-size="31.3" fill="#858585" transform="matrix(1.00, 0.00, -0.00, -1.00, 749.2, 363.0)">a</text><text xml:space="preserve" font-family="MarkerFelt-Thin" font-size="31.3" fill="#858585" transform="matrix(1.00, 0.00, -0.00, -1.00, 763.6, 363.0)">S</text><text xml:space="preserve" font-family="MarkerFelt-Thin" font-size="31.3" fill="#858585" transform="matrix(1.00, 0.00, -0.00, -1.00, 780.3, 363.0)">c</text><text xml:space="preserve" font-family="MarkerFelt-Thin" font-size="31.3" fill="#858585" transform="matrix(1.00, 0.00, -0.00, -1.00, 793.3, 363.0)">r</text><text xml:space="preserve" font-family="MarkerFelt-Thin" font-size="31.3" fill="#858585" transform="matrix(1.00, 0.00, -0.00, -1.00, 807.1, 363.0)">i</text><text xml:space="preserve" font-family="MarkerFelt-Thin" font-size="31.3" fill="#858585" transform="matrix(1.00, 0.00, -0.00, -1.00, 814.8, 363.0)">p</text><text xml:space="preserve" font-family="MarkerFelt-Thin" font-size="31.3" fill="#858585" transform="matrix(1.00, 0.00, -0.00, -1.00, 830.3, 363.0)">t</text><text xml:space="preserve" font-family="MarkerFelt-Thin" font-size="31.3" fill="#858585" transform="matrix(1.00, 0.00, -0.00, -1.00, 841.5, 363.0)"> </text><text xml:space="preserve" font-family="MarkerFelt-Thin" font-size="31.3" fill="#858585" transform="matrix(1.00, 0.00, -0.00, -1.00, 849.4, 363.0)">R</text><text xml:space="preserve" font-family="MarkerFelt-Thin" font-size="31.3" fill="#858585" transform="matrix(1.00, 0.00, -0.00, -1.00, 868.5, 363.0)">u</text><text xml:space="preserve" font-family="MarkerFelt-Thin" font-size="31.3" fill="#858585" transform="matrix(1.00, 0.00, -0.00, -1.00, 882.5, 363.0)">n</text><text xml:space="preserve" font-family="MarkerFelt-Thin" font-size="31.3" fill="#858585" transform="matrix(1.00, 0.00, -0.00, -1.00, 899.7, 363.0)">t</text><text xml:space="preserve" font-family="MarkerFelt-Thin" font-size="31.3" fill="#858585" transform="matrix(1.00, 0.00, -0.00, -1.00, 913.1, 363.0)">i</text><text xml:space="preserve" font-family="MarkerFelt-Thin" font-size="31.3" fill="#858585" transform="matrix(1.00, 0.00, -0.00, -1.00, 920.5, 363.0)">m</text><text xml:space="preserve" font-family="MarkerFelt-Thin" font-size="31.3" fill="#858585" transform="matrix(1.00, 0.00, -0.00, -1.00, 943.1, 363.0)">e</text><g><clipPath id="clip-339"><path d="M 538.0 297.1 L 556.2 297.1 L 556.2 314.1 L 538.0 314.1 Z M 538.0 297.1 "></path></clipPath><g clip-path="url(#clip-339)"><path d="M 556.0 303.2 C 556.1 303.0 556.2 302.7 556.2 302.4 C 556.2 301.9 555.9 301.4 555.3 300.9 C 554.7 300.5 554.0 300.2 553.3 300.2 C 552.3 300.2 551.1 301.0 549.8 302.4 C 549.8 302.4 549.8 300.2 549.8 300.2 C 549.8 300.0 549.9 299.8 550.0 299.5 C 550.1 299.2 550.2 298.9 550.2 298.8 C 550.2 298.3 549.9 297.9 549.5 297.6 C 549.0 297.3 548.5 297.1 548.1 297.1 C 547.3 297.1 546.5 297.5 545.9 298.2 C 545.8 298.4 545.7 299.0 545.8 300.0 C 545.8 301.0 545.9 302.0 545.9 303.0 C 545.4 302.6 544.5 302.1 543.0 301.3 C 542.9 301.0 542.3 300.7 541.3 300.4 C 540.6 300.3 539.9 300.5 539.1 300.8 C 538.4 301.1 538.0 301.6 538.0 302.2 C 538.0 302.3 538.0 302.4 538.1 302.6 C 538.2 302.9 538.6 303.1 539.0 303.3 C 539.8 303.5 540.2 303.7 540.3 303.7 C 540.3 303.7 544.3 305.9 544.3 305.9 C 544.3 305.9 541.4 307.3 541.4 307.3 C 541.0 307.3 540.4 307.5 539.8 307.9 C 539.6 308.1 539.6 308.3 539.6 308.6 C 539.6 309.3 540.0 309.9 540.8 310.6 C 541.6 311.2 542.4 311.5 543.2 311.5 C 543.5 311.5 543.7 311.5 544.0 311.4 C 544.2 311.3 544.5 311.1 544.7 310.7 C 545.0 310.2 545.4 309.7 545.9 309.4 C 545.9 309.4 546.0 312.0 546.0 312.0 C 545.9 312.3 545.9 312.8 546.0 313.5 C 546.4 313.9 547.1 314.1 548.2 314.1 C 549.3 314.1 550.0 313.8 550.3 313.2 C 550.5 313.0 550.5 312.4 550.4 311.5 C 550.3 310.7 550.2 309.8 550.1 309.0 C 550.1 309.0 551.6 309.8 551.6 309.8 C 551.9 310.1 552.5 310.4 553.3 310.8 C 553.9 310.8 554.4 310.6 555.0 310.1 C 555.5 309.6 555.8 309.1 555.8 308.5 C 555.8 308.3 555.7 308.0 555.6 307.8 C 555.4 307.6 555.2 307.5 554.8 307.4 C 554.4 307.3 554.1 307.2 553.9 307.1 C 553.9 307.1 551.7 305.5 551.7 305.5 C 551.7 305.5 554.6 304.0 554.6 304.0 C 554.9 303.9 555.4 303.6 556.0 303.2 Z M 556.0 303.2 " fill="#3995D6"></path></g></g><text xml:space="preserve" font-family="MarkerFelt-Thin" font-size="31.3" fill="#858585" transform="matrix(1.00, 0.00, -0.00, -1.00, 568.0, 295.0)">U</text><text xml:space="preserve" font-family="MarkerFelt-Thin" font-size="31.3" fill="#858585" transform="matrix(1.00, 0.00, -0.00, -1.00, 584.9, 295.0)">s</text><text xml:space="preserve" font-family="MarkerFelt-Thin" font-size="31.3" fill="#858585" transform="matrix(1.00, 0.00, -0.00, -1.00, 597.6, 295.0)">e</text><text xml:space="preserve" font-family="MarkerFelt-Thin" font-size="31.3" fill="#858585" transform="matrix(1.00, 0.00, -0.00, -1.00, 611.9, 295.0)">s</text><text xml:space="preserve" font-family="MarkerFelt-Thin" font-size="31.3" fill="#858585" transform="matrix(1.00, 0.00, -0.00, -1.00, 623.5, 295.0)"> </text><text xml:space="preserve" font-family="MarkerFelt-Thin" font-size="31.3" fill="#858585" transform="matrix(1.00, 0.00, -0.00, -1.00, 631.3, 295.0)">w</text><text xml:space="preserve" font-family="MarkerFelt-Thin" font-size="31.3" fill="#858585" transform="matrix(1.00, 0.00, -0.00, -1.00, 653.8, 295.0)">e</text><text xml:space="preserve" font-family="MarkerFelt-Thin" font-size="31.3" fill="#858585" transform="matrix(1.00, 0.00, -0.00, -1.00, 668.4, 295.0)">a</text><text xml:space="preserve" font-family="MarkerFelt-Thin" font-size="31.3" fill="#858585" transform="matrix(1.00, 0.00, -0.00, -1.00, 684.3, 295.0)">l</text><text xml:space="preserve" font-family="MarkerFelt-Thin" font-size="31.3" fill="#858585" transform="matrix(1.00, 0.00, -0.00, -1.00, 692.5, 295.0)">t</text><text xml:space="preserve" font-family="MarkerFelt-Thin" font-size="31.3" fill="#858585" transform="matrix(1.00, 0.00, -0.00, -1.00, 705.5, 295.0)">h</text><text xml:space="preserve" font-family="MarkerFelt-Thin" font-size="31.3" fill="#858585" transform="matrix(1.00, 0.00, -0.00, -1.00, 720.2, 295.0)"> </text><text xml:space="preserve" font-family="MarkerFelt-Thin" font-size="31.3" fill="#858585" transform="matrix(1.00, 0.00, -0.00, -1.00, 728.1, 295.0)">o</text><text xml:space="preserve" font-family="MarkerFelt-Thin" font-size="31.3" fill="#858585" transform="matrix(1.00, 0.00, -0.00, -1.00, 742.3, 295.0)">f</text><text xml:space="preserve" font-family="MarkerFelt-Thin" font-size="31.3" fill="#858585" transform="matrix(1.00, 0.00, -0.00, -1.00, 753.6, 295.0)"> </text><text xml:space="preserve" font-family="MarkerFelt-Thin" font-size="31.3" fill="#858585" transform="matrix(1.00, 0.00, -0.00, -1.00, 761.4, 295.0)">e</text><text xml:space="preserve" font-family="MarkerFelt-Thin" font-size="31.3" fill="#858585" transform="matrix(1.00, 0.00, -0.00, -1.00, 775.8, 295.0)">x</text><text xml:space="preserve" font-family="MarkerFelt-Thin" font-size="31.3" fill="#858585" transform="matrix(1.00, 0.00, -0.00, -1.00, 790.3, 295.0)">i</text><text xml:space="preserve" font-family="MarkerFelt-Thin" font-size="31.3" fill="#858585" transform="matrix(1.00, 0.00, -0.00, -1.00, 797.6, 295.0)">s</text><text xml:space="preserve" font-family="MarkerFelt-Thin" font-size="31.3" fill="#858585" transform="matrix(1.00, 0.00, -0.00, -1.00, 811.2, 295.0)">t</text><text xml:space="preserve" font-family="MarkerFelt-Thin" font-size="31.3" fill="#858585" transform="matrix(1.00, 0.00, -0.00, -1.00, 824.6, 295.0)">i</text><text xml:space="preserve" font-family="MarkerFelt-Thin" font-size="31.3" fill="#858585" transform="matrix(1.00, 0.00, -0.00, -1.00, 832.4, 295.0)">n</text><text xml:space="preserve" font-family="MarkerFelt-Thin" font-size="31.3" fill="#858585" transform="matrix(1.00, 0.00, -0.00, -1.00, 848.7, 295.0)">g</text><text xml:space="preserve" font-family="MarkerFelt-Thin" font-size="31.3" fill="#858585" transform="matrix(1.00, 0.00, -0.00, -1.00, 861.8, 295.0)"> </text><text xml:space="preserve" font-family="MarkerFelt-Thin" font-size="31.3" fill="#858585" transform="matrix(1.00, 0.00, -0.00, -1.00, 869.7, 295.0)">J</text><text xml:space="preserve" font-family="MarkerFelt-Thin" font-size="31.3" fill="#858585" transform="matrix(1.00, 0.00, -0.00, -1.00, 883.1, 295.0)">S</text><text xml:space="preserve" font-family="MarkerFelt-Thin" font-size="31.3" fill="#858585" transform="matrix(1.00, 0.00, -0.00, -1.00, 898.5, 295.0)"> </text><text xml:space="preserve" font-family="MarkerFelt-Thin" font-size="31.3" fill="#858585" transform="matrix(1.00, 0.00, -0.00, -1.00, 568.0, 261.0)">l</text><text xml:space="preserve" font-family="MarkerFelt-Thin" font-size="31.3" fill="#858585" transform="matrix(1.00, 0.00, -0.00, -1.00, 575.3, 261.0)">i</text><text xml:space="preserve" font-family="MarkerFelt-Thin" font-size="31.3" fill="#858585" transform="matrix(1.00, 0.00, -0.00, -1.00, 582.9, 261.0)">b</text><text xml:space="preserve" font-family="MarkerFelt-Thin" font-size="31.3" fill="#858585" transform="matrix(1.00, 0.00, -0.00, -1.00, 597.3, 261.0)">r</text><text xml:space="preserve" font-family="MarkerFelt-Thin" font-size="31.3" fill="#858585" transform="matrix(1.00, 0.00, -0.00, -1.00, 610.1, 261.0)">a</text><text xml:space="preserve" font-family="MarkerFelt-Thin" font-size="31.3" fill="#858585" transform="matrix(1.00, 0.00, -0.00, -1.00, 625.8, 261.0)">r</text><text xml:space="preserve" font-family="MarkerFelt-Thin" font-size="31.3" fill="#858585" transform="matrix(1.00, 0.00, -0.00, -1.00, 639.6, 261.0)">i</text><text xml:space="preserve" font-family="MarkerFelt-Thin" font-size="31.3" fill="#858585" transform="matrix(1.00, 0.00, -0.00, -1.00, 646.5, 261.0)">e</text><text xml:space="preserve" font-family="MarkerFelt-Thin" font-size="31.3" fill="#858585" transform="matrix(1.00, 0.00, -0.00, -1.00, 660.8, 261.0)">s</text><image xlink:href="../../CEF7D76C-3845-403D-ABBB-795D2CDB866F/assets/BD60DD6390D6B54662324FF59D68737C.png" width="402.00" height="146.00" transform="matrix(1.00, 0.00, -0.00, -1.00, 503.9, 205.9)" opacity="0.70"></image><image xlink:href="../../910212AF-1AE5-4F51-9139-BD01718D421A/assets/84D4918814398691FE01903DE05B406B.png" width="362.00" height="106.00" transform="matrix(1.00, 0.00, -0.00, -1.00, 524.0, 196.0)"></image><text xml:space="preserve" font-family="MarkerFelt-Thin" font-size="40.0" fill="#858484" transform="matrix(1.00, 0.00, -0.00, -1.00, 247.0, 512.0)">J</text><text xml:space="preserve" font-family="MarkerFelt-Thin" font-size="40.0" fill="#858484" transform="matrix(1.00, 0.00, -0.00, -1.00, 265.1, 512.0)">o</text><text xml:space="preserve" font-family="MarkerFelt-Thin" font-size="40.0" fill="#858484" transform="matrix(1.00, 0.00, -0.00, -1.00, 283.2, 512.0)">e</text><text xml:space="preserve" font-family="MarkerFelt-Thin" font-size="40.0" fill="#858484" transform="matrix(1.00, 0.00, -0.00, -1.00, 659.0, 512.0)">J</text><text xml:space="preserve" font-family="MarkerFelt-Thin" font-size="40.0" fill="#858484" transform="matrix(1.00, 0.00, -0.00, -1.00, 676.2, 512.0)">e</text><text xml:space="preserve" font-family="MarkerFelt-Thin" font-size="40.0" fill="#858484" transform="matrix(1.00, 0.00, -0.00, -1.00, 694.0, 512.0)">n</text><text xml:space="preserve" font-family="MarkerFelt-Thin" font-size="40.0" fill="#858484" transform="matrix(1.00, 0.00, -0.00, -1.00, 715.1, 512.0)">n</text><text xml:space="preserve" font-family="MarkerFelt-Thin" font-size="40.0" fill="#858484" transform="matrix(1.00, 0.00, -0.00, -1.00, 735.9, 512.0)">y</text><image xlink:href="../../DD72C3A5-6A95-4AB6-ABED-190308692650/assets/216183E5F110F094EFD2B7F5C58FF64C.png" width="137.00" height="137.00" transform="matrix(0.99, 0.00, -0.00, -1.00, 247.0, 214.0)"></image><image xlink:href="../../DD72C3A5-6A95-4AB6-ABED-190308692650/assets/920A14587874688792E168A972FC75C6.png" width="118.00" height="118.00" transform="matrix(0.99, 0.00, -0.00, -1.00, 892.0, 202.0)"></image><image xlink:href="../../CEF7D76C-3845-403D-ABBB-795D2CDB866F/assets/A4ACE50C7FFA3EC3416EC2F1998CFD89.png" width="98.00" height="181.00" transform="matrix(0.77, 0.00, -0.00, -0.76, 140.0, 214.0)"></image></g></svg>