<?xml version="1.0" encoding="UTF-8" standalone="no"?><svg xmlns="http://www.w3.org/2000/svg" xmlns:xlink="http://www.w3.org/1999/xlink" clip-rule="evenodd" stroke-miterlimit="4.00" viewBox="0 0 495 228"><desc>SVG generated by Keynote</desc><defs></defs><g transform="matrix(1.00, 0.00, -0.00, -1.00, 0.0, 228.0)"><path d="M 0.0 0.0 L 486.5 0.0 L 486.5 220.1 L 0.0 220.1 Z M 0.0 0.0 " fill="none" stroke="#000000" stroke-width="5.00" transform="matrix(1.00, 0.00, 0.00, -1.00, 4.1, 224.1)"></path><g><clipPath id="clip-323"><path d="M 1.3 1.3 L 493.4 1.3 L 493.4 221.1 L 1.3 221.1 Z M 1.3 1.3 "></path></clipPath><g clip-path="url(#clip-323)"><text xml:space="preserve" font-family="MarkerFelt-Thin" font-size="36.0" fill="#000000" transform="matrix(1.00, 0.00, -0.00, -1.00, 11.0, 19.0)">N</text><text xml:space="preserve" font-family="MarkerFelt-Thin" font-size="36.0" fill="#000000" transform="matrix(1.00, 0.00, -0.00, -1.00, 33.5, 19.0)">o</text><text xml:space="preserve" font-family="MarkerFelt-Thin" font-size="36.0" fill="#000000" transform="matrix(1.00, 0.00, -0.00, -1.00, 50.8, 19.0)">t</text><text xml:space="preserve" font-family="MarkerFelt-Thin" font-size="36.0" fill="#000000" transform="matrix(1.00, 0.00, -0.00, -1.00, 63.7, 19.0)"> </text><text xml:space="preserve" font-family="MarkerFelt-Thin" font-size="36.0" fill="#000000" transform="matrix(1.00, 0.00, -0.00, -1.00, 72.7, 19.0)">a</text><text xml:space="preserve" font-family="MarkerFelt-Thin" font-size="36.0" fill="#000000" transform="matrix(1.00, 0.00, -0.00, -1.00, 90.3, 19.0)">t</text><text xml:space="preserve" font-family="MarkerFelt-Thin" font-size="36.0" fill="#000000" transform="matrix(1.00, 0.00, -0.00, -1.00, 103.3, 19.0)"> </text><text xml:space="preserve" font-family="MarkerFelt-Thin" font-size="36.0" fill="#000000" transform="matrix(1.00, 0.00, -0.00, -1.00, 112.3, 19.0)">a</text><text xml:space="preserve" font-family="MarkerFelt-Thin" font-size="36.0" fill="#000000" transform="matrix(1.00, 0.00, -0.00, -1.00, 130.6, 19.0)">l</text><text xml:space="preserve" font-family="MarkerFelt-Thin" font-size="36.0" fill="#000000" transform="matrix(1.00, 0.00, -0.00, -1.00, 139.6, 19.0)">l</text><text xml:space="preserve" font-family="MarkerFelt-Thin" font-size="36.0" fill="#000000" transform="matrix(1.00, 0.00, -0.00, -1.00, 146.8, 19.0)"> </text><text xml:space="preserve" font-family="MarkerFelt-Thin" font-size="36.0" fill="#000000" transform="matrix(1.00, 0.00, -0.00, -1.00, 155.8, 19.0)">t</text><text xml:space="preserve" font-family="MarkerFelt-Thin" font-size="36.0" fill="#000000" transform="matrix(1.00, 0.00, -0.00, -1.00, 170.7, 19.0)">h</text><text xml:space="preserve" font-family="MarkerFelt-Thin" font-size="36.0" fill="#000000" transform="matrix(1.00, 0.00, -0.00, -1.00, 189.2, 19.0)">e</text><text xml:space="preserve" font-family="MarkerFelt-Thin" font-size="36.0" fill="#000000" transform="matrix(1.00, 0.00, -0.00, -1.00, 202.9, 19.0)"> </text><text xml:space="preserve" font-family="MarkerFelt-Thin" font-size="36.0" fill="#000000" transform="matrix(1.00, 0.00, -0.00, -1.00, 211.9, 19.0)">s</text><text xml:space="preserve" font-family="MarkerFelt-Thin" font-size="36.0" fill="#000000" transform="matrix(1.00, 0.00, -0.00, -1.00, 227.4, 19.0)">a</text><text xml:space="preserve" font-family="MarkerFelt-Thin" font-size="36.0" fill="#000000" transform="matrix(1.00, 0.00, -0.00, -1.00, 243.9, 19.0)">m</text><text xml:space="preserve" font-family="MarkerFelt-Thin" font-size="36.0" fill="#000000" transform="matrix(1.00, 0.00, -0.00, -1.00, 269.8, 19.0)">e</text></g></g></g></svg>