<?xml version="1.0" encoding="UTF-8" standalone="no"?><svg xmlns="http://www.w3.org/2000/svg" xmlns:xlink="http://www.w3.org/1999/xlink" clip-rule="evenodd" stroke-miterlimit="4.00" viewBox="0 0 1024 768"><desc>SVG generated by Keynote</desc><defs></defs><g transform="matrix(1.00, 0.00, -0.00, -1.00, 0.0, 768.0)"><path d="M 0.0 768.0 L 1024.0 768.0 L 1024.0 0.0 L 0.0 0.0 Z M 0.0 768.0 " fill="#FEFFFF"></path><text xml:space="preserve" font-family="Helvetica-Light" font-size="80.0" fill="#000000" transform="matrix(1.00, 0.00, -0.00, -1.00, 274.0, 649.0)">O</text><text xml:space="preserve" font-family="Helvetica-Light" font-size="80.0" fill="#000000" transform="matrix(1.00, 0.00, -0.00, -1.00, 336.2, 649.0)">b</text><text xml:space="preserve" font-family="Helvetica-Light" font-size="80.0" fill="#000000" transform="matrix(1.00, 0.00, -0.00, -1.00, 385.1, 649.0)">s</text><text xml:space="preserve" font-family="Helvetica-Light" font-size="80.0" fill="#000000" transform="matrix(1.00, 0.00, -0.00, -1.00, 425.1, 649.0)">e</text><text xml:space="preserve" font-family="Helvetica-Light" font-size="80.0" fill="#000000" transform="matrix(1.00, 0.00, -0.00, -1.00, 469.6, 649.0)">r</text><text xml:space="preserve" font-family="Helvetica-Light" font-size="80.0" fill="#000000" transform="matrix(1.00, 0.00, -0.00, -1.00, 496.2, 649.0)">v</text><text xml:space="preserve" font-family="Helvetica-Light" font-size="80.0" fill="#000000" transform="matrix(1.00, 0.00, -0.00, -1.00, 536.2, 649.0)">a</text><text xml:space="preserve" font-family="Helvetica-Light" font-size="80.0" fill="#000000" transform="matrix(1.00, 0.00, -0.00, -1.00, 580.7, 649.0)">t</text><text xml:space="preserve" font-family="Helvetica-Light" font-size="80.0" fill="#000000" transform="matrix(1.00, 0.00, -0.00, -1.00, 603.0, 649.0)">i</text><text xml:space="preserve" font-family="Helvetica-Light" font-size="80.0" fill="#000000" transform="matrix(1.00, 0.00, -0.00, -1.00, 620.7, 649.0)">o</text><text xml:space="preserve" font-family="Helvetica-Light" font-size="80.0" fill="#000000" transform="matrix(1.00, 0.00, -0.00, -1.00, 665.2, 649.0)">n</text><text xml:space="preserve" font-family="Helvetica-Light" font-size="80.0" fill="#000000" transform="matrix(1.00, 0.00, -0.00, -1.00, 709.7, 649.0)">s</text><text xml:space="preserve" font-family="Helvetica-Light" font-size="26.7" fill="#000000" transform="matrix(1.00, 0.00, -0.00, -1.00, 79.0, 570.7)">•</text><text xml:space="preserve" font-family="Helvetica-Light" font-size="35.6" fill="#000000" transform="matrix(1.00, 0.00, -0.00, -1.00, 114.0, 568.0)">C</text><text xml:space="preserve" font-family="Helvetica-Light" font-size="35.6" fill="#000000" transform="matrix(1.00, 0.00, -0.00, -1.00, 139.7, 568.0)">o</text><text xml:space="preserve" font-family="Helvetica-Light" font-size="35.6" fill="#000000" transform="matrix(1.00, 0.00, -0.00, -1.00, 159.5, 568.0)">n</text><text xml:space="preserve" font-family="Helvetica-Light" font-size="35.6" fill="#000000" transform="matrix(1.00, 0.00, -0.00, -1.00, 179.4, 568.0)">v</text><text xml:space="preserve" font-family="Helvetica-Light" font-size="35.6" fill="#000000" transform="matrix(1.00, 0.00, -0.00, -1.00, 197.2, 568.0)">e</text><text xml:space="preserve" font-family="Helvetica-Light" font-size="35.6" fill="#000000" transform="matrix(1.00, 0.00, -0.00, -1.00, 217.0, 568.0)">y</text><text xml:space="preserve" font-family="Helvetica-Light" font-size="35.6" fill="#000000" transform="matrix(1.00, 0.00, -0.00, -1.00, 234.8, 568.0)">a</text><text xml:space="preserve" font-family="Helvetica-Light" font-size="35.6" fill="#000000" transform="matrix(1.00, 0.00, -0.00, -1.00, 254.6, 568.0)">n</text><text xml:space="preserve" font-family="Helvetica-Light" font-size="35.6" fill="#000000" transform="matrix(1.00, 0.00, -0.00, -1.00, 274.5, 568.0)">c</text><text xml:space="preserve" font-family="Helvetica-Light" font-size="35.6" fill="#000000" transform="matrix(1.00, 0.00, -0.00, -1.00, 294.3, 568.0)">e</text><text xml:space="preserve" font-family="Helvetica-Light" font-size="35.6" fill="#000000" transform="matrix(1.00, 0.00, -0.00, -1.00, 314.1, 568.0)"> </text><text xml:space="preserve" font-family="Helvetica-Light" font-size="35.6" fill="#000000" transform="matrix(1.00, 0.00, -0.00, -1.00, 324.0, 568.0)">i</text><text xml:space="preserve" font-family="Helvetica-Light" font-size="35.6" fill="#000000" transform="matrix(1.00, 0.00, -0.00, -1.00, 331.9, 568.0)">s</text><text xml:space="preserve" font-family="Helvetica-Light" font-size="35.6" fill="#000000" transform="matrix(1.00, 0.00, -0.00, -1.00, 349.7, 568.0)"> </text><text xml:space="preserve" font-family="Helvetica-Light" font-size="35.6" fill="#000000" transform="matrix(1.00, 0.00, -0.00, -1.00, 359.6, 568.0)">n</text><text xml:space="preserve" font-family="Helvetica-Light" font-size="35.6" fill="#000000" transform="matrix(1.00, 0.00, -0.00, -1.00, 379.4, 568.0)">o</text><text xml:space="preserve" font-family="Helvetica-Light" font-size="35.6" fill="#000000" transform="matrix(1.00, 0.00, -0.00, -1.00, 399.3, 568.0)">t</text><text xml:space="preserve" font-family="Helvetica-Light" font-size="35.6" fill="#000000" transform="matrix(1.00, 0.00, -0.00, -1.00, 409.2, 568.0)"> </text><text xml:space="preserve" font-family="Helvetica-Light" font-size="35.6" fill="#000000" transform="matrix(1.00, 0.00, -0.00, -1.00, 419.1, 568.0)">i</text><text xml:space="preserve" font-family="Helvetica-Light" font-size="35.6" fill="#000000" transform="matrix(1.00, 0.00, -0.00, -1.00, 427.0, 568.0)">m</text><text xml:space="preserve" font-family="Helvetica-Light" font-size="35.6" fill="#000000" transform="matrix(1.00, 0.00, -0.00, -1.00, 456.7, 568.0)">p</text><text xml:space="preserve" font-family="Helvetica-Light" font-size="35.6" fill="#000000" transform="matrix(1.00, 0.00, -0.00, -1.00, 478.5, 568.0)">l</text><text xml:space="preserve" font-family="Helvetica-Light" font-size="35.6" fill="#000000" transform="matrix(1.00, 0.00, -0.00, -1.00, 486.4, 568.0)">i</text><text xml:space="preserve" font-family="Helvetica-Light" font-size="35.6" fill="#000000" transform="matrix(1.00, 0.00, -0.00, -1.00, 494.3, 568.0)">c</text><text xml:space="preserve" font-family="Helvetica-Light" font-size="35.6" fill="#000000" transform="matrix(1.00, 0.00, -0.00, -1.00, 514.1, 568.0)">i</text><text xml:space="preserve" font-family="Helvetica-Light" font-size="35.6" fill="#000000" transform="matrix(1.00, 0.00, -0.00, -1.00, 522.0, 568.0)">t</text><text xml:space="preserve" font-family="Helvetica-Light" font-size="35.6" fill="#000000" transform="matrix(1.00, 0.00, -0.00, -1.00, 531.9, 568.0)"> </text><text xml:space="preserve" font-family="Helvetica-Light" font-size="35.6" fill="#000000" transform="matrix(1.00, 0.00, -0.00, -1.00, 541.8, 568.0)">i</text><text xml:space="preserve" font-family="Helvetica-Light" font-size="35.6" fill="#000000" transform="matrix(1.00, 0.00, -0.00, -1.00, 549.7, 568.0)">n</text><text xml:space="preserve" font-family="Helvetica-Light" font-size="35.6" fill="#000000" transform="matrix(1.00, 0.00, -0.00, -1.00, 569.6, 568.0)"> </text><text xml:space="preserve" font-family="Helvetica-Light" font-size="35.6" fill="#000000" transform="matrix(1.00, 0.00, -0.00, -1.00, 579.5, 568.0)">o</text><text xml:space="preserve" font-family="Helvetica-Light" font-size="35.6" fill="#000000" transform="matrix(1.00, 0.00, -0.00, -1.00, 599.3, 568.0)">b</text><text xml:space="preserve" font-family="Helvetica-Light" font-size="35.6" fill="#000000" transform="matrix(1.00, 0.00, -0.00, -1.00, 621.1, 568.0)">j</text><text xml:space="preserve" font-family="Helvetica-Light" font-size="35.6" fill="#000000" transform="matrix(1.00, 0.00, -0.00, -1.00, 629.0, 568.0)">e</text><text xml:space="preserve" font-family="Helvetica-Light" font-size="35.6" fill="#000000" transform="matrix(1.00, 0.00, -0.00, -1.00, 648.8, 568.0)">c</text><text xml:space="preserve" font-family="Helvetica-Light" font-size="35.6" fill="#000000" transform="matrix(1.00, 0.00, -0.00, -1.00, 668.6, 568.0)">t</text><text xml:space="preserve" font-family="Helvetica-Light" font-size="35.6" fill="#000000" transform="matrix(1.00, 0.00, -0.00, -1.00, 678.5, 568.0)">s</text><text xml:space="preserve" font-family="Helvetica-Light" font-size="35.6" fill="#000000" transform="matrix(1.00, 0.00, -0.00, -1.00, 696.3, 568.0)"> </text><text xml:space="preserve" font-family="Helvetica-Light" font-size="26.7" fill="#000000" transform="matrix(1.00, 0.00, -0.00, -1.00, 114.0, 487.1)">•</text><text xml:space="preserve" font-family="Helvetica-Light" font-size="35.6" fill="#000000" transform="matrix(1.00, 0.00, -0.00, -1.00, 149.0, 484.0)">S</text><text xml:space="preserve" font-family="Helvetica-Light" font-size="35.6" fill="#000000" transform="matrix(1.00, 0.00, -0.00, -1.00, 170.8, 484.0)">o</text><text xml:space="preserve" font-family="Helvetica-Light" font-size="35.6" fill="#000000" transform="matrix(1.00, 0.00, -0.00, -1.00, 190.6, 484.0)">m</text><text xml:space="preserve" font-family="Helvetica-Light" font-size="35.6" fill="#000000" transform="matrix(1.00, 0.00, -0.00, -1.00, 220.3, 484.0)">e</text><text xml:space="preserve" font-family="Helvetica-Light" font-size="35.6" fill="#000000" transform="matrix(1.00, 0.00, -0.00, -1.00, 240.1, 484.0)"> </text><text xml:space="preserve" font-family="Helvetica-Light" font-size="35.6" fill="#000000" transform="matrix(1.00, 0.00, -0.00, -1.00, 250.0, 484.0)">A</text><text xml:space="preserve" font-family="Helvetica-Light" font-size="35.6" fill="#000000" transform="matrix(1.00, 0.00, -0.00, -1.00, 273.8, 484.0)">P</text><text xml:space="preserve" font-family="Helvetica-Light" font-size="35.6" fill="#000000" transform="matrix(1.00, 0.00, -0.00, -1.00, 295.6, 484.0)">I</text><text xml:space="preserve" font-family="Helvetica-Light" font-size="35.6" fill="#000000" transform="matrix(1.00, 0.00, -0.00, -1.00, 305.5, 484.0)">s</text><text xml:space="preserve" font-family="Helvetica-Light" font-size="35.6" fill="#000000" transform="matrix(1.00, 0.00, -0.00, -1.00, 323.3, 484.0)">,</text><text xml:space="preserve" font-family="Helvetica-Light" font-size="35.6" fill="#000000" transform="matrix(1.00, 0.00, -0.00, -1.00, 333.2, 484.0)"> </text><text xml:space="preserve" font-family="Helvetica-Light" font-size="35.6" fill="#000000" transform="matrix(1.00, 0.00, -0.00, -1.00, 343.1, 484.0)">s</text><text xml:space="preserve" font-family="Helvetica-Light" font-size="35.6" fill="#000000" transform="matrix(1.00, 0.00, -0.00, -1.00, 360.9, 484.0)">u</text><text xml:space="preserve" font-family="Helvetica-Light" font-size="35.6" fill="#000000" transform="matrix(1.00, 0.00, -0.00, -1.00, 380.7, 484.0)">c</text><text xml:space="preserve" font-family="Helvetica-Light" font-size="35.6" fill="#000000" transform="matrix(1.00, 0.00, -0.00, -1.00, 400.5, 484.0)">h</text><text xml:space="preserve" font-family="Helvetica-Light" font-size="35.6" fill="#000000" transform="matrix(1.00, 0.00, -0.00, -1.00, 420.4, 484.0)"> </text><text xml:space="preserve" font-family="Helvetica-Light" font-size="35.6" fill="#000000" transform="matrix(1.00, 0.00, -0.00, -1.00, 430.3, 484.0)">a</text><text xml:space="preserve" font-family="Helvetica-Light" font-size="35.6" fill="#000000" transform="matrix(1.00, 0.00, -0.00, -1.00, 450.1, 484.0)">s</text><text xml:space="preserve" font-family="Helvetica-Light" font-size="35.6" fill="#000000" transform="matrix(1.00, 0.00, -0.00, -1.00, 467.9, 484.0)"> </text><text xml:space="preserve" font-family="Helvetica-Light" font-size="35.6" fill="#000000" transform="matrix(1.00, 0.00, -0.00, -1.00, 477.8, 484.0)">J</text><text xml:space="preserve" font-family="Helvetica-Light" font-size="35.6" fill="#000000" transform="matrix(1.00, 0.00, -0.00, -1.00, 495.6, 484.0)">A</text><text xml:space="preserve" font-family="Helvetica-Light" font-size="35.6" fill="#000000" transform="matrix(1.00, 0.00, -0.00, -1.00, 519.4, 484.0)">X</text><text xml:space="preserve" font-family="Helvetica-Light" font-size="35.6" fill="#000000" transform="matrix(1.00, 0.00, -0.00, -1.00, 541.2, 484.0)">B</text><text xml:space="preserve" font-family="Helvetica-Light" font-size="35.6" fill="#000000" transform="matrix(1.00, 0.00, -0.00, -1.00, 565.0, 484.0)">,</text><text xml:space="preserve" font-family="Helvetica-Light" font-size="35.6" fill="#000000" transform="matrix(1.00, 0.00, -0.00, -1.00, 574.9, 484.0)"> </text><text xml:space="preserve" font-family="Helvetica-Light" font-size="35.6" fill="#000000" transform="matrix(1.00, 0.00, -0.00, -1.00, 584.8, 484.0)">m</text><text xml:space="preserve" font-family="Helvetica-Light" font-size="35.6" fill="#000000" transform="matrix(1.00, 0.00, -0.00, -1.00, 614.5, 484.0)">a</text><text xml:space="preserve" font-family="Helvetica-Light" font-size="35.6" fill="#000000" transform="matrix(1.00, 0.00, -0.00, -1.00, 634.3, 484.0)">k</text><text xml:space="preserve" font-family="Helvetica-Light" font-size="35.6" fill="#000000" transform="matrix(1.00, 0.00, -0.00, -1.00, 652.1, 484.0)">e</text><text xml:space="preserve" font-family="Helvetica-Light" font-size="35.6" fill="#000000" transform="matrix(1.00, 0.00, -0.00, -1.00, 671.9, 484.0)"> </text><text xml:space="preserve" font-family="Helvetica-Light" font-size="35.6" fill="#000000" transform="matrix(1.00, 0.00, -0.00, -1.00, 681.8, 484.0)">t</text><text xml:space="preserve" font-family="Helvetica-Light" font-size="35.6" fill="#000000" transform="matrix(1.00, 0.00, -0.00, -1.00, 691.7, 484.0)">h</text><text xml:space="preserve" font-family="Helvetica-Light" font-size="35.6" fill="#000000" transform="matrix(1.00, 0.00, -0.00, -1.00, 711.5, 484.0)">e</text><text xml:space="preserve" font-family="Helvetica-Light" font-size="35.6" fill="#000000" transform="matrix(1.00, 0.00, -0.00, -1.00, 731.4, 484.0)"> </text><text xml:space="preserve" font-family="Helvetica-Light" font-size="35.6" fill="#000000" transform="matrix(1.00, 0.00, -0.00, -1.00, 741.3, 484.0)">j</text><text xml:space="preserve" font-family="Helvetica-Light" font-size="35.6" fill="#000000" transform="matrix(1.00, 0.00, -0.00, -1.00, 749.2, 484.0)">o</text><text xml:space="preserve" font-family="Helvetica-Light" font-size="35.6" fill="#000000" transform="matrix(1.00, 0.00, -0.00, -1.00, 769.0, 484.0)">b</text><text xml:space="preserve" font-family="Helvetica-Light" font-size="35.6" fill="#000000" transform="matrix(1.00, 0.00, -0.00, -1.00, 790.8, 484.0)"> </text><text xml:space="preserve" font-family="Helvetica-Light" font-size="35.6" fill="#000000" transform="matrix(1.00, 0.00, -0.00, -1.00, 800.7, 484.0)">h</text><text xml:space="preserve" font-family="Helvetica-Light" font-size="35.6" fill="#000000" transform="matrix(1.00, 0.00, -0.00, -1.00, 820.5, 484.0)">a</text><text xml:space="preserve" font-family="Helvetica-Light" font-size="35.6" fill="#000000" transform="matrix(1.00, 0.00, -0.00, -1.00, 840.3, 484.0)">r</text><text xml:space="preserve" font-family="Helvetica-Light" font-size="35.6" fill="#000000" transform="matrix(1.00, 0.00, -0.00, -1.00, 851.5, 484.0)">d</text><text xml:space="preserve" font-family="Helvetica-Light" font-size="35.6" fill="#000000" transform="matrix(1.00, 0.00, -0.00, -1.00, 873.3, 484.0)">e</text><text xml:space="preserve" font-family="Helvetica-Light" font-size="35.6" fill="#000000" transform="matrix(1.00, 0.00, -0.00, -1.00, 893.1, 484.0)">r</text><text xml:space="preserve" font-family="Helvetica-Light" font-size="35.6" fill="#000000" transform="matrix(1.00, 0.00, -0.00, -1.00, 905.0, 484.0)"> </text><text xml:space="preserve" font-family="Helvetica-Light" font-size="26.7" fill="#000000" transform="matrix(1.00, 0.00, -0.00, -1.00, 79.0, 403.6)">•</text><text xml:space="preserve" font-family="Helvetica-Light" font-size="35.6" fill="#000000" transform="matrix(1.00, 0.00, -0.00, -1.00, 114.0, 401.0)">P</text><text xml:space="preserve" font-family="Helvetica-Light" font-size="35.6" fill="#000000" transform="matrix(1.00, 0.00, -0.00, -1.00, 135.8, 401.0)">e</text><text xml:space="preserve" font-family="Helvetica-Light" font-size="35.6" fill="#000000" transform="matrix(1.00, 0.00, -0.00, -1.00, 155.6, 401.0)">r</text><text xml:space="preserve" font-family="Helvetica-Light" font-size="35.6" fill="#000000" transform="matrix(1.00, 0.00, -0.00, -1.00, 166.8, 401.0)">c</text><text xml:space="preserve" font-family="Helvetica-Light" font-size="35.6" fill="#000000" transform="matrix(1.00, 0.00, -0.00, -1.00, 186.6, 401.0)">e</text><text xml:space="preserve" font-family="Helvetica-Light" font-size="35.6" fill="#000000" transform="matrix(1.00, 0.00, -0.00, -1.00, 206.5, 401.0)">i</text><text xml:space="preserve" font-family="Helvetica-Light" font-size="35.6" fill="#000000" transform="matrix(1.00, 0.00, -0.00, -1.00, 214.4, 401.0)">v</text><text xml:space="preserve" font-family="Helvetica-Light" font-size="35.6" fill="#000000" transform="matrix(1.00, 0.00, -0.00, -1.00, 232.2, 401.0)">a</text><text xml:space="preserve" font-family="Helvetica-Light" font-size="35.6" fill="#000000" transform="matrix(1.00, 0.00, -0.00, -1.00, 252.0, 401.0)">b</text><text xml:space="preserve" font-family="Helvetica-Light" font-size="35.6" fill="#000000" transform="matrix(1.00, 0.00, -0.00, -1.00, 273.8, 401.0)">l</text><text xml:space="preserve" font-family="Helvetica-Light" font-size="35.6" fill="#000000" transform="matrix(1.00, 0.00, -0.00, -1.00, 281.7, 401.0)">e</text><text xml:space="preserve" font-family="Helvetica-Light" font-size="35.6" fill="#000000" transform="matrix(1.00, 0.00, -0.00, -1.00, 301.5, 401.0)">:</text><text xml:space="preserve" font-family="Helvetica-Light" font-size="35.6" fill="#000000" transform="matrix(1.00, 0.00, -0.00, -1.00, 311.4, 401.0)"> </text><text xml:space="preserve" font-family="Helvetica-Light" font-size="35.6" fill="#000000" transform="matrix(1.00, 0.00, -0.00, -1.00, 321.3, 401.0)">N</text><text xml:space="preserve" font-family="Helvetica-Light" font-size="35.6" fill="#000000" transform="matrix(1.00, 0.00, -0.00, -1.00, 347.0, 401.0)">o</text><text xml:space="preserve" font-family="Helvetica-Light" font-size="35.6" fill="#000000" transform="matrix(1.00, 0.00, -0.00, -1.00, 366.9, 401.0)">n</text><text xml:space="preserve" font-family="Helvetica-Light" font-size="35.6" fill="#000000" transform="matrix(1.00, 0.00, -0.00, -1.00, 386.7, 401.0)">-</text><text xml:space="preserve" font-family="Helvetica-Light" font-size="35.6" fill="#000000" transform="matrix(1.00, 0.00, -0.00, -1.00, 398.5, 401.0)">i</text><text xml:space="preserve" font-family="Helvetica-Light" font-size="35.6" fill="#000000" transform="matrix(1.00, 0.00, -0.00, -1.00, 406.5, 401.0)">m</text><text xml:space="preserve" font-family="Helvetica-Light" font-size="35.6" fill="#000000" transform="matrix(1.00, 0.00, -0.00, -1.00, 436.1, 401.0)">p</text><text xml:space="preserve" font-family="Helvetica-Light" font-size="35.6" fill="#000000" transform="matrix(1.00, 0.00, -0.00, -1.00, 457.9, 401.0)">l</text><text xml:space="preserve" font-family="Helvetica-Light" font-size="35.6" fill="#000000" transform="matrix(1.00, 0.00, -0.00, -1.00, 465.8, 401.0)">i</text><text xml:space="preserve" font-family="Helvetica-Light" font-size="35.6" fill="#000000" transform="matrix(1.00, 0.00, -0.00, -1.00, 473.8, 401.0)">c</text><text xml:space="preserve" font-family="Helvetica-Light" font-size="35.6" fill="#000000" transform="matrix(1.00, 0.00, -0.00, -1.00, 493.6, 401.0)">i</text><text xml:space="preserve" font-family="Helvetica-Light" font-size="35.6" fill="#000000" transform="matrix(1.00, 0.00, -0.00, -1.00, 501.5, 401.0)">t</text><text xml:space="preserve" font-family="Helvetica-Light" font-size="35.6" fill="#000000" transform="matrix(1.00, 0.00, -0.00, -1.00, 511.4, 401.0)"> </text><text xml:space="preserve" font-family="Helvetica-Light" font-size="35.6" fill="#000000" transform="matrix(1.00, 0.00, -0.00, -1.00, 521.3, 401.0)">m</text><text xml:space="preserve" font-family="Helvetica-Light" font-size="35.6" fill="#000000" transform="matrix(1.00, 0.00, -0.00, -1.00, 551.0, 401.0)">e</text><text xml:space="preserve" font-family="Helvetica-Light" font-size="35.6" fill="#000000" transform="matrix(1.00, 0.00, -0.00, -1.00, 570.8, 401.0)">t</text><text xml:space="preserve" font-family="Helvetica-Light" font-size="35.6" fill="#000000" transform="matrix(1.00, 0.00, -0.00, -1.00, 580.7, 401.0)">h</text><text xml:space="preserve" font-family="Helvetica-Light" font-size="35.6" fill="#000000" transform="matrix(1.00, 0.00, -0.00, -1.00, 600.5, 401.0)">o</text><text xml:space="preserve" font-family="Helvetica-Light" font-size="35.6" fill="#000000" transform="matrix(1.00, 0.00, -0.00, -1.00, 620.3, 401.0)">d</text><text xml:space="preserve" font-family="Helvetica-Light" font-size="35.6" fill="#000000" transform="matrix(1.00, 0.00, -0.00, -1.00, 642.1, 401.0)"> </text><text xml:space="preserve" font-family="Helvetica-Light" font-size="35.6" fill="#000000" transform="matrix(1.00, 0.00, -0.00, -1.00, 652.0, 401.0)">s</text><text xml:space="preserve" font-family="Helvetica-Light" font-size="35.6" fill="#000000" transform="matrix(1.00, 0.00, -0.00, -1.00, 669.8, 401.0)">u</text><text xml:space="preserve" font-family="Helvetica-Light" font-size="35.6" fill="#000000" transform="matrix(1.00, 0.00, -0.00, -1.00, 689.7, 401.0)">p</text><text xml:space="preserve" font-family="Helvetica-Light" font-size="35.6" fill="#000000" transform="matrix(1.00, 0.00, -0.00, -1.00, 711.4, 401.0)">p</text><text xml:space="preserve" font-family="Helvetica-Light" font-size="35.6" fill="#000000" transform="matrix(1.00, 0.00, -0.00, -1.00, 733.2, 401.0)">o</text><text xml:space="preserve" font-family="Helvetica-Light" font-size="35.6" fill="#000000" transform="matrix(1.00, 0.00, -0.00, -1.00, 753.0, 401.0)">r</text><text xml:space="preserve" font-family="Helvetica-Light" font-size="35.6" fill="#000000" transform="matrix(1.00, 0.00, -0.00, -1.00, 765.5, 401.0)">t</text><text xml:space="preserve" font-family="Helvetica-Light" font-size="35.6" fill="#000000" transform="matrix(1.00, 0.00, -0.00, -1.00, 775.4, 401.0)"> </text><text xml:space="preserve" font-family="Helvetica-Light" font-size="35.6" fill="#000000" transform="matrix(1.00, 0.00, -0.00, -1.00, 785.4, 401.0)">i</text><text xml:space="preserve" font-family="Helvetica-Light" font-size="35.6" fill="#000000" transform="matrix(1.00, 0.00, -0.00, -1.00, 793.3, 401.0)">s</text><text xml:space="preserve" font-family="Helvetica-Light" font-size="35.6" fill="#000000" transform="matrix(1.00, 0.00, -0.00, -1.00, 811.1, 401.0)"> </text><text xml:space="preserve" font-family="Helvetica-Light" font-size="35.6" fill="#000000" transform="matrix(1.00, 0.00, -0.00, -1.00, 114.0, 359.0)">r</text><text xml:space="preserve" font-family="Helvetica-Light" font-size="35.6" fill="#000000" transform="matrix(1.00, 0.00, -0.00, -1.00, 125.2, 359.0)">e</text><text xml:space="preserve" font-family="Helvetica-Light" font-size="35.6" fill="#000000" transform="matrix(1.00, 0.00, -0.00, -1.00, 145.0, 359.0)">q</text><text xml:space="preserve" font-family="Helvetica-Light" font-size="35.6" fill="#000000" transform="matrix(1.00, 0.00, -0.00, -1.00, 166.8, 359.0)">u</text><text xml:space="preserve" font-family="Helvetica-Light" font-size="35.6" fill="#000000" transform="matrix(1.00, 0.00, -0.00, -1.00, 186.6, 359.0)">i</text><text xml:space="preserve" font-family="Helvetica-Light" font-size="35.6" fill="#000000" transform="matrix(1.00, 0.00, -0.00, -1.00, 194.5, 359.0)">r</text><text xml:space="preserve" font-family="Helvetica-Light" font-size="35.6" fill="#000000" transform="matrix(1.00, 0.00, -0.00, -1.00, 205.8, 359.0)">e</text><text xml:space="preserve" font-family="Helvetica-Light" font-size="35.6" fill="#000000" transform="matrix(1.00, 0.00, -0.00, -1.00, 225.6, 359.0)">d</text><text xml:space="preserve" font-family="Helvetica-Light" font-size="35.6" fill="#000000" transform="matrix(1.00, 0.00, -0.00, -1.00, 247.4, 359.0)"> </text><text xml:space="preserve" font-family="Helvetica-Light" font-size="26.7" fill="#000000" transform="matrix(1.00, 0.00, -0.00, -1.00, 114.0, 278.0)">•</text><text xml:space="preserve" font-family="Helvetica-Light" font-size="35.6" fill="#000000" transform="matrix(1.00, 0.00, -0.00, -1.00, 149.0, 275.0)">t</text><text xml:space="preserve" font-family="Helvetica-Light" font-size="35.6" fill="#000000" transform="matrix(1.00, 0.00, -0.00, -1.00, 158.9, 275.0)">o</text><text xml:space="preserve" font-family="Helvetica-Light" font-size="35.6" fill="#000000" transform="matrix(1.00, 0.00, -0.00, -1.00, 178.7, 275.0)">S</text><text xml:space="preserve" font-family="Helvetica-Light" font-size="35.6" fill="#000000" transform="matrix(1.00, 0.00, -0.00, -1.00, 200.5, 275.0)">t</text><text xml:space="preserve" font-family="Helvetica-Light" font-size="35.6" fill="#000000" transform="matrix(1.00, 0.00, -0.00, -1.00, 210.4, 275.0)">r</text><text xml:space="preserve" font-family="Helvetica-Light" font-size="35.6" fill="#000000" transform="matrix(1.00, 0.00, -0.00, -1.00, 222.3, 275.0)">i</text><text xml:space="preserve" font-family="Helvetica-Light" font-size="35.6" fill="#000000" transform="matrix(1.00, 0.00, -0.00, -1.00, 230.2, 275.0)">n</text><text xml:space="preserve" font-family="Helvetica-Light" font-size="35.6" fill="#000000" transform="matrix(1.00, 0.00, -0.00, -1.00, 250.0, 275.0)">g</text><text xml:space="preserve" font-family="Helvetica-Light" font-size="35.6" fill="#000000" transform="matrix(1.00, 0.00, -0.00, -1.00, 271.8, 275.0)"> </text><text xml:space="preserve" font-family="Helvetica-Light" font-size="26.7" fill="#000000" transform="matrix(1.00, 0.00, -0.00, -1.00, 114.0, 194.4)">•</text><text xml:space="preserve" font-family="Helvetica-Light" font-size="35.6" fill="#000000" transform="matrix(1.00, 0.00, -0.00, -1.00, 149.0, 191.0)">J</text><text xml:space="preserve" font-family="Helvetica-Light" font-size="35.6" fill="#000000" transform="matrix(1.00, 0.00, -0.00, -1.00, 166.8, 191.0)">A</text><text xml:space="preserve" font-family="Helvetica-Light" font-size="35.6" fill="#000000" transform="matrix(1.00, 0.00, -0.00, -1.00, 190.6, 191.0)">X</text><text xml:space="preserve" font-family="Helvetica-Light" font-size="35.6" fill="#000000" transform="matrix(1.00, 0.00, -0.00, -1.00, 212.4, 191.0)">B</text><text xml:space="preserve" font-family="Helvetica-Light" font-size="35.6" fill="#000000" transform="matrix(1.00, 0.00, -0.00, -1.00, 236.1, 191.0)">,</text><text xml:space="preserve" font-family="Helvetica-Light" font-size="35.6" fill="#000000" transform="matrix(1.00, 0.00, -0.00, -1.00, 246.0, 191.0)"> </text><text xml:space="preserve" font-family="Helvetica-Light" font-size="35.6" fill="#000000" transform="matrix(1.00, 0.00, -0.00, -1.00, 256.0, 191.0)">J</text><text xml:space="preserve" font-family="Helvetica-Light" font-size="35.6" fill="#000000" transform="matrix(1.00, 0.00, -0.00, -1.00, 273.8, 191.0)">a</text><text xml:space="preserve" font-family="Helvetica-Light" font-size="35.6" fill="#000000" transform="matrix(1.00, 0.00, -0.00, -1.00, 293.6, 191.0)">c</text><text xml:space="preserve" font-family="Helvetica-Light" font-size="35.6" fill="#000000" transform="matrix(1.00, 0.00, -0.00, -1.00, 313.4, 191.0)">k</text><text xml:space="preserve" font-family="Helvetica-Light" font-size="35.6" fill="#000000" transform="matrix(1.00, 0.00, -0.00, -1.00, 331.2, 191.0)">s</text><text xml:space="preserve" font-family="Helvetica-Light" font-size="35.6" fill="#000000" transform="matrix(1.00, 0.00, -0.00, -1.00, 349.0, 191.0)">o</text><text xml:space="preserve" font-family="Helvetica-Light" font-size="35.6" fill="#000000" transform="matrix(1.00, 0.00, -0.00, -1.00, 368.9, 191.0)">n</text><text xml:space="preserve" font-family="Helvetica-Light" font-size="35.6" fill="#000000" transform="matrix(1.00, 0.00, -0.00, -1.00, 388.7, 191.0)"> </text><text xml:space="preserve" font-family="Helvetica-Light" font-size="26.7" fill="#000000" transform="matrix(1.00, 0.00, -0.00, -1.00, 79.0, 110.8)">•</text><text xml:space="preserve" font-family="Helvetica-Light" font-size="35.6" fill="#000000" transform="matrix(1.00, 0.00, -0.00, -1.00, 114.0, 108.0)">F</text><text xml:space="preserve" font-family="Helvetica-Light" font-size="35.6" fill="#000000" transform="matrix(1.00, 0.00, -0.00, -1.00, 133.8, 108.0)">u</text><text xml:space="preserve" font-family="Helvetica-Light" font-size="35.6" fill="#000000" transform="matrix(1.00, 0.00, -0.00, -1.00, 153.6, 108.0)">n</text><text xml:space="preserve" font-family="Helvetica-Light" font-size="35.6" fill="#000000" transform="matrix(1.00, 0.00, -0.00, -1.00, 173.4, 108.0)">d</text><text xml:space="preserve" font-family="Helvetica-Light" font-size="35.6" fill="#000000" transform="matrix(1.00, 0.00, -0.00, -1.00, 195.2, 108.0)">a</text><text xml:space="preserve" font-family="Helvetica-Light" font-size="35.6" fill="#000000" transform="matrix(1.00, 0.00, -0.00, -1.00, 215.0, 108.0)">m</text><text xml:space="preserve" font-family="Helvetica-Light" font-size="35.6" fill="#000000" transform="matrix(1.00, 0.00, -0.00, -1.00, 244.7, 108.0)">e</text><text xml:space="preserve" font-family="Helvetica-Light" font-size="35.6" fill="#000000" transform="matrix(1.00, 0.00, -0.00, -1.00, 264.5, 108.0)">n</text><text xml:space="preserve" font-family="Helvetica-Light" font-size="35.6" fill="#000000" transform="matrix(1.00, 0.00, -0.00, -1.00, 284.4, 108.0)">t</text><text xml:space="preserve" font-family="Helvetica-Light" font-size="35.6" fill="#000000" transform="matrix(1.00, 0.00, -0.00, -1.00, 294.3, 108.0)">a</text><text xml:space="preserve" font-family="Helvetica-Light" font-size="35.6" fill="#000000" transform="matrix(1.00, 0.00, -0.00, -1.00, 314.1, 108.0)">l</text><text xml:space="preserve" font-family="Helvetica-Light" font-size="35.6" fill="#000000" transform="matrix(1.00, 0.00, -0.00, -1.00, 322.0, 108.0)">l</text><text xml:space="preserve" font-family="Helvetica-Light" font-size="35.6" fill="#000000" transform="matrix(1.00, 0.00, -0.00, -1.00, 329.9, 108.0)">y</text><text xml:space="preserve" font-family="Helvetica-Light" font-size="35.6" fill="#000000" transform="matrix(1.00, 0.00, -0.00, -1.00, 344.4, 108.0)">,</text><text xml:space="preserve" font-family="Helvetica-Light" font-size="35.6" fill="#000000" transform="matrix(1.00, 0.00, -0.00, -1.00, 354.4, 108.0)"> </text><text xml:space="preserve" font-family="Helvetica-Light" font-size="35.6" fill="#000000" transform="matrix(1.00, 0.00, -0.00, -1.00, 364.3, 108.0)">w</text><text xml:space="preserve" font-family="Helvetica-Light" font-size="35.6" fill="#000000" transform="matrix(1.00, 0.00, -0.00, -1.00, 390.0, 108.0)">e</text><text xml:space="preserve" font-family="Helvetica-Light" font-size="35.6" fill="#000000" transform="matrix(1.00, 0.00, -0.00, -1.00, 409.8, 108.0)"> </text><text xml:space="preserve" font-family="Helvetica-Light" font-size="35.6" fill="#000000" transform="matrix(1.00, 0.00, -0.00, -1.00, 419.7, 108.0)">a</text><text xml:space="preserve" font-family="Helvetica-Light" font-size="35.6" fill="#000000" transform="matrix(1.00, 0.00, -0.00, -1.00, 439.5, 108.0)">r</text><text xml:space="preserve" font-family="Helvetica-Light" font-size="35.6" fill="#000000" transform="matrix(1.00, 0.00, -0.00, -1.00, 450.8, 108.0)">e</text><text xml:space="preserve" font-family="Helvetica-Light" font-size="35.6" fill="#000000" transform="matrix(1.00, 0.00, -0.00, -1.00, 470.6, 108.0)"> </text><text xml:space="preserve" font-family="Helvetica-Light" font-size="35.6" fill="#000000" transform="matrix(1.00, 0.00, -0.00, -1.00, 480.5, 108.0)">a</text><text xml:space="preserve" font-family="Helvetica-Light" font-size="35.6" fill="#000000" transform="matrix(1.00, 0.00, -0.00, -1.00, 500.3, 108.0)">d</text><text xml:space="preserve" font-family="Helvetica-Light" font-size="35.6" fill="#000000" transform="matrix(1.00, 0.00, -0.00, -1.00, 522.1, 108.0)">d</text><text xml:space="preserve" font-family="Helvetica-Light" font-size="35.6" fill="#000000" transform="matrix(1.00, 0.00, -0.00, -1.00, 543.9, 108.0)">i</text><text xml:space="preserve" font-family="Helvetica-Light" font-size="35.6" fill="#000000" transform="matrix(1.00, 0.00, -0.00, -1.00, 551.8, 108.0)">n</text><text xml:space="preserve" font-family="Helvetica-Light" font-size="35.6" fill="#000000" transform="matrix(1.00, 0.00, -0.00, -1.00, 571.6, 108.0)">g</text><text xml:space="preserve" font-family="Helvetica-Light" font-size="35.6" fill="#000000" transform="matrix(1.00, 0.00, -0.00, -1.00, 593.4, 108.0)"> </text><text xml:space="preserve" font-family="Helvetica-Light" font-size="35.6" fill="#000000" transform="matrix(1.00, 0.00, -0.00, -1.00, 603.3, 108.0)">m</text><text xml:space="preserve" font-family="Helvetica-Light" font-size="35.6" fill="#000000" transform="matrix(1.00, 0.00, -0.00, -1.00, 633.0, 108.0)">e</text><text xml:space="preserve" font-family="Helvetica-Light" font-size="35.6" fill="#000000" transform="matrix(1.00, 0.00, -0.00, -1.00, 652.8, 108.0)">t</text><text xml:space="preserve" font-family="Helvetica-Light" font-size="35.6" fill="#000000" transform="matrix(1.00, 0.00, -0.00, -1.00, 662.7, 108.0)">h</text><text xml:space="preserve" font-family="Helvetica-Light" font-size="35.6" fill="#000000" transform="matrix(1.00, 0.00, -0.00, -1.00, 682.5, 108.0)">o</text><text xml:space="preserve" font-family="Helvetica-Light" font-size="35.6" fill="#000000" transform="matrix(1.00, 0.00, -0.00, -1.00, 702.3, 108.0)">d</text><text xml:space="preserve" font-family="Helvetica-Light" font-size="35.6" fill="#000000" transform="matrix(1.00, 0.00, -0.00, -1.00, 724.1, 108.0)">s</text><text xml:space="preserve" font-family="Helvetica-Light" font-size="35.6" fill="#000000" transform="matrix(1.00, 0.00, -0.00, -1.00, 741.9, 108.0)"> </text><text xml:space="preserve" font-family="Helvetica-Light" font-size="35.6" fill="#000000" transform="matrix(1.00, 0.00, -0.00, -1.00, 751.8, 108.0)">t</text><text xml:space="preserve" font-family="Helvetica-Light" font-size="35.6" fill="#000000" transform="matrix(1.00, 0.00, -0.00, -1.00, 761.7, 108.0)">o</text><text xml:space="preserve" font-family="Helvetica-Light" font-size="35.6" fill="#000000" transform="matrix(1.00, 0.00, -0.00, -1.00, 781.5, 108.0)"> </text><text xml:space="preserve" font-family="Helvetica-Light" font-size="35.6" fill="#000000" transform="matrix(1.00, 0.00, -0.00, -1.00, 791.4, 108.0)">c</text><text xml:space="preserve" font-family="Helvetica-Light" font-size="35.6" fill="#000000" transform="matrix(1.00, 0.00, -0.00, -1.00, 811.3, 108.0)">o</text><text xml:space="preserve" font-family="Helvetica-Light" font-size="35.6" fill="#000000" transform="matrix(1.00, 0.00, -0.00, -1.00, 831.1, 108.0)">n</text><text xml:space="preserve" font-family="Helvetica-Light" font-size="35.6" fill="#000000" transform="matrix(1.00, 0.00, -0.00, -1.00, 850.9, 108.0)">v</text><text xml:space="preserve" font-family="Helvetica-Light" font-size="35.6" fill="#000000" transform="matrix(1.00, 0.00, -0.00, -1.00, 868.7, 108.0)">e</text><text xml:space="preserve" font-family="Helvetica-Light" font-size="35.6" fill="#000000" transform="matrix(1.00, 0.00, -0.00, -1.00, 888.5, 108.0)">r</text><text xml:space="preserve" font-family="Helvetica-Light" font-size="35.6" fill="#000000" transform="matrix(1.00, 0.00, -0.00, -1.00, 901.0, 108.0)">t</text><text xml:space="preserve" font-family="Helvetica-Light" font-size="35.6" fill="#000000" transform="matrix(1.00, 0.00, -0.00, -1.00, 910.9, 108.0)"> </text><text xml:space="preserve" font-family="Helvetica-Light" font-size="35.6" fill="#000000" transform="matrix(1.00, 0.00, -0.00, -1.00, 114.0, 66.0)">o</text><text xml:space="preserve" font-family="Helvetica-Light" font-size="35.6" fill="#000000" transform="matrix(1.00, 0.00, -0.00, -1.00, 133.8, 66.0)">u</text><text xml:space="preserve" font-family="Helvetica-Light" font-size="35.6" fill="#000000" transform="matrix(1.00, 0.00, -0.00, -1.00, 153.6, 66.0)">r</text><text xml:space="preserve" font-family="Helvetica-Light" font-size="35.6" fill="#000000" transform="matrix(1.00, 0.00, -0.00, -1.00, 165.5, 66.0)"> </text><text xml:space="preserve" font-family="Helvetica-Light" font-size="35.6" fill="#000000" transform="matrix(1.00, 0.00, -0.00, -1.00, 175.4, 66.0)">v</text><text xml:space="preserve" font-family="Helvetica-Light" font-size="35.6" fill="#000000" transform="matrix(1.00, 0.00, -0.00, -1.00, 193.2, 66.0)">a</text><text xml:space="preserve" font-family="Helvetica-Light" font-size="35.6" fill="#000000" transform="matrix(1.00, 0.00, -0.00, -1.00, 213.0, 66.0)">l</text><text xml:space="preserve" font-family="Helvetica-Light" font-size="35.6" fill="#000000" transform="matrix(1.00, 0.00, -0.00, -1.00, 221.0, 66.0)">u</text><text xml:space="preserve" font-family="Helvetica-Light" font-size="35.6" fill="#000000" transform="matrix(1.00, 0.00, -0.00, -1.00, 240.8, 66.0)">e</text><text xml:space="preserve" font-family="Helvetica-Light" font-size="35.6" fill="#000000" transform="matrix(1.00, 0.00, -0.00, -1.00, 260.6, 66.0)"> </text><text xml:space="preserve" font-family="Helvetica-Light" font-size="35.6" fill="#000000" transform="matrix(1.00, 0.00, -0.00, -1.00, 270.5, 66.0)">c</text><text xml:space="preserve" font-family="Helvetica-Light" font-size="35.6" fill="#000000" transform="matrix(1.00, 0.00, -0.00, -1.00, 290.3, 66.0)">l</text><text xml:space="preserve" font-family="Helvetica-Light" font-size="35.6" fill="#000000" transform="matrix(1.00, 0.00, -0.00, -1.00, 298.2, 66.0)">a</text><text xml:space="preserve" font-family="Helvetica-Light" font-size="35.6" fill="#000000" transform="matrix(1.00, 0.00, -0.00, -1.00, 318.0, 66.0)">s</text><text xml:space="preserve" font-family="Helvetica-Light" font-size="35.6" fill="#000000" transform="matrix(1.00, 0.00, -0.00, -1.00, 335.9, 66.0)">s</text><text xml:space="preserve" font-family="Helvetica-Light" font-size="35.6" fill="#000000" transform="matrix(1.00, 0.00, -0.00, -1.00, 353.7, 66.0)">e</text><text xml:space="preserve" font-family="Helvetica-Light" font-size="35.6" fill="#000000" transform="matrix(1.00, 0.00, -0.00, -1.00, 373.5, 66.0)">s</text><text xml:space="preserve" font-family="Helvetica-Light" font-size="35.6" fill="#000000" transform="matrix(1.00, 0.00, -0.00, -1.00, 391.3, 66.0)"> </text><text xml:space="preserve" font-family="Helvetica-Light" font-size="35.6" fill="#000000" transform="matrix(1.00, 0.00, -0.00, -1.00, 401.2, 66.0)">t</text><text xml:space="preserve" font-family="Helvetica-Light" font-size="35.6" fill="#000000" transform="matrix(1.00, 0.00, -0.00, -1.00, 411.1, 66.0)">o</text><text xml:space="preserve" font-family="Helvetica-Light" font-size="35.6" fill="#000000" transform="matrix(1.00, 0.00, -0.00, -1.00, 430.9, 66.0)"> </text><text xml:space="preserve" font-family="Helvetica-Light" font-size="35.6" fill="#000000" transform="matrix(1.00, 0.00, -0.00, -1.00, 440.9, 66.0)">g</text><text xml:space="preserve" font-family="Helvetica-Light" font-size="35.6" fill="#000000" transform="matrix(1.00, 0.00, -0.00, -1.00, 462.6, 66.0)">e</text><text xml:space="preserve" font-family="Helvetica-Light" font-size="35.6" fill="#000000" transform="matrix(1.00, 0.00, -0.00, -1.00, 482.4, 66.0)">n</text><text xml:space="preserve" font-family="Helvetica-Light" font-size="35.6" fill="#000000" transform="matrix(1.00, 0.00, -0.00, -1.00, 502.3, 66.0)">e</text><text xml:space="preserve" font-family="Helvetica-Light" font-size="35.6" fill="#000000" transform="matrix(1.00, 0.00, -0.00, -1.00, 522.1, 66.0)">r</text><text xml:space="preserve" font-family="Helvetica-Light" font-size="35.6" fill="#000000" transform="matrix(1.00, 0.00, -0.00, -1.00, 533.9, 66.0)">i</text><text xml:space="preserve" font-family="Helvetica-Light" font-size="35.6" fill="#000000" transform="matrix(1.00, 0.00, -0.00, -1.00, 541.9, 66.0)">c</text><text xml:space="preserve" font-family="Helvetica-Light" font-size="35.6" fill="#000000" transform="matrix(1.00, 0.00, -0.00, -1.00, 561.7, 66.0)">/</text><text xml:space="preserve" font-family="Helvetica-Light" font-size="35.6" fill="#000000" transform="matrix(1.00, 0.00, -0.00, -1.00, 571.6, 66.0)">u</text><text xml:space="preserve" font-family="Helvetica-Light" font-size="35.6" fill="#000000" transform="matrix(1.00, 0.00, -0.00, -1.00, 591.4, 66.0)">n</text><text xml:space="preserve" font-family="Helvetica-Light" font-size="35.6" fill="#000000" transform="matrix(1.00, 0.00, -0.00, -1.00, 611.2, 66.0)">i</text><text xml:space="preserve" font-family="Helvetica-Light" font-size="35.6" fill="#000000" transform="matrix(1.00, 0.00, -0.00, -1.00, 619.1, 66.0)">v</text><text xml:space="preserve" font-family="Helvetica-Light" font-size="35.6" fill="#000000" transform="matrix(1.00, 0.00, -0.00, -1.00, 636.9, 66.0)">e</text><text xml:space="preserve" font-family="Helvetica-Light" font-size="35.6" fill="#000000" transform="matrix(1.00, 0.00, -0.00, -1.00, 656.8, 66.0)">r</text><text xml:space="preserve" font-family="Helvetica-Light" font-size="35.6" fill="#000000" transform="matrix(1.00, 0.00, -0.00, -1.00, 668.6, 66.0)">s</text><text xml:space="preserve" font-family="Helvetica-Light" font-size="35.6" fill="#000000" transform="matrix(1.00, 0.00, -0.00, -1.00, 686.4, 66.0)">a</text><text xml:space="preserve" font-family="Helvetica-Light" font-size="35.6" fill="#000000" transform="matrix(1.00, 0.00, -0.00, -1.00, 706.3, 66.0)">l</text><text xml:space="preserve" font-family="Helvetica-Light" font-size="35.6" fill="#000000" transform="matrix(1.00, 0.00, -0.00, -1.00, 714.2, 66.0)"> </text><text xml:space="preserve" font-family="Helvetica-Light" font-size="35.6" fill="#000000" transform="matrix(1.00, 0.00, -0.00, -1.00, 724.1, 66.0)">v</text><text xml:space="preserve" font-family="Helvetica-Light" font-size="35.6" fill="#000000" transform="matrix(1.00, 0.00, -0.00, -1.00, 741.9, 66.0)">a</text><text xml:space="preserve" font-family="Helvetica-Light" font-size="35.6" fill="#000000" transform="matrix(1.00, 0.00, -0.00, -1.00, 761.7, 66.0)">l</text><text xml:space="preserve" font-family="Helvetica-Light" font-size="35.6" fill="#000000" transform="matrix(1.00, 0.00, -0.00, -1.00, 769.6, 66.0)">u</text><text xml:space="preserve" font-family="Helvetica-Light" font-size="35.6" fill="#000000" transform="matrix(1.00, 0.00, -0.00, -1.00, 789.4, 66.0)">e</text><text xml:space="preserve" font-family="Helvetica-Light" font-size="35.6" fill="#000000" transform="matrix(1.00, 0.00, -0.00, -1.00, 809.3, 66.0)">s</text></g></svg>