<?xml version="1.0" encoding="UTF-8" standalone="no"?><svg xmlns="http://www.w3.org/2000/svg" xmlns:xlink="http://www.w3.org/1999/xlink" clip-rule="evenodd" stroke-miterlimit="4.00" viewBox="0 0 1024 768"><desc>SVG generated by Keynote</desc><defs></defs><g transform="matrix(1.00, 0.00, -0.00, -1.00, 0.0, 768.0)"><path d="M 0.0 768.0 L 1024.0 768.0 L 1024.0 0.0 L 0.0 0.0 Z M 0.0 768.0 " fill="#FEFFFF"></path><image xlink:href="9478639B25E7AB6B11DEED602AF14A47.png" width="416.00" height="276.00" transform="matrix(1.00, 0.00, -0.00, -1.00, 573.0, 339.0)"></image><text xml:space="preserve" font-family="Helvetica-Light" font-size="80.0" fill="#000000" transform="matrix(1.00, 0.00, -0.00, -1.00, 142.0, 618.0)">M</text><text xml:space="preserve" font-family="Helvetica-Light" font-size="80.0" fill="#000000" transform="matrix(1.00, 0.00, -0.00, -1.00, 208.6, 618.0)">o</text><text xml:space="preserve" font-family="Helvetica-Light" font-size="80.0" fill="#000000" transform="matrix(1.00, 0.00, -0.00, -1.00, 253.1, 618.0)">r</text><text xml:space="preserve" font-family="Helvetica-Light" font-size="80.0" fill="#000000" transform="matrix(1.00, 0.00, -0.00, -1.00, 278.3, 618.0)">e</text><text xml:space="preserve" font-family="Helvetica-Light" font-size="80.0" fill="#000000" transform="matrix(1.00, 0.00, -0.00, -1.00, 322.8, 618.0)"> </text><text xml:space="preserve" font-family="Helvetica-Light" font-size="80.0" fill="#000000" transform="matrix(1.00, 0.00, -0.00, -1.00, 345.0, 618.0)">D</text><text xml:space="preserve" font-family="Helvetica-Light" font-size="80.0" fill="#000000" transform="matrix(1.00, 0.00, -0.00, -1.00, 402.8, 618.0)">e</text><text xml:space="preserve" font-family="Helvetica-Light" font-size="80.0" fill="#000000" transform="matrix(1.00, 0.00, -0.00, -1.00, 447.3, 618.0)">c</text><text xml:space="preserve" font-family="Helvetica-Light" font-size="80.0" fill="#000000" transform="matrix(1.00, 0.00, -0.00, -1.00, 491.8, 618.0)">o</text><text xml:space="preserve" font-family="Helvetica-Light" font-size="80.0" fill="#000000" transform="matrix(1.00, 0.00, -0.00, -1.00, 536.2, 618.0)">m</text><text xml:space="preserve" font-family="Helvetica-Light" font-size="80.0" fill="#000000" transform="matrix(1.00, 0.00, -0.00, -1.00, 602.9, 618.0)">p</text><text xml:space="preserve" font-family="Helvetica-Light" font-size="80.0" fill="#000000" transform="matrix(1.00, 0.00, -0.00, -1.00, 651.8, 618.0)">o</text><text xml:space="preserve" font-family="Helvetica-Light" font-size="80.0" fill="#000000" transform="matrix(1.00, 0.00, -0.00, -1.00, 696.2, 618.0)">s</text><text xml:space="preserve" font-family="Helvetica-Light" font-size="80.0" fill="#000000" transform="matrix(1.00, 0.00, -0.00, -1.00, 736.2, 618.0)">i</text><text xml:space="preserve" font-family="Helvetica-Light" font-size="80.0" fill="#000000" transform="matrix(1.00, 0.00, -0.00, -1.00, 754.0, 618.0)">t</text><text xml:space="preserve" font-family="Helvetica-Light" font-size="80.0" fill="#000000" transform="matrix(1.00, 0.00, -0.00, -1.00, 776.2, 618.0)">i</text><text xml:space="preserve" font-family="Helvetica-Light" font-size="80.0" fill="#000000" transform="matrix(1.00, 0.00, -0.00, -1.00, 794.0, 618.0)">o</text><text xml:space="preserve" font-family="Helvetica-Light" font-size="80.0" fill="#000000" transform="matrix(1.00, 0.00, -0.00, -1.00, 838.5, 618.0)">n</text><text xml:space="preserve" font-family="Helvetica-Light" font-size="21.9" fill="#000000" transform="matrix(1.00, 0.00, -0.00, -1.00, 42.1, 539.0)">•</text><text xml:space="preserve" font-family="Helvetica-Light" font-size="29.2" fill="#000000" transform="matrix(1.00, 0.00, -0.00, -1.00, 70.0, 536.0)">T</text><text xml:space="preserve" font-family="Helvetica-Light" font-size="29.2" fill="#000000" transform="matrix(1.00, 0.00, -0.00, -1.00, 86.2, 536.0)">h</text><text xml:space="preserve" font-family="Helvetica-Light" font-size="29.2" fill="#000000" transform="matrix(1.00, 0.00, -0.00, -1.00, 102.4, 536.0)">e</text><text xml:space="preserve" font-family="Helvetica-Light" font-size="29.2" fill="#000000" transform="matrix(1.00, 0.00, -0.00, -1.00, 118.6, 536.0)">r</text><text xml:space="preserve" font-family="Helvetica-Light" font-size="29.2" fill="#000000" transform="matrix(1.00, 0.00, -0.00, -1.00, 127.8, 536.0)">e</text><text xml:space="preserve" font-family="Helvetica-Light" font-size="29.2" fill="#000000" transform="matrix(1.00, 0.00, -0.00, -1.00, 144.0, 536.0)"> </text><text xml:space="preserve" font-family="Helvetica-Light" font-size="29.2" fill="#000000" transform="matrix(1.00, 0.00, -0.00, -1.00, 152.1, 536.0)">a</text><text xml:space="preserve" font-family="Helvetica-Light" font-size="29.2" fill="#000000" transform="matrix(1.00, 0.00, -0.00, -1.00, 168.4, 536.0)">r</text><text xml:space="preserve" font-family="Helvetica-Light" font-size="29.2" fill="#000000" transform="matrix(1.00, 0.00, -0.00, -1.00, 177.5, 536.0)">e</text><text xml:space="preserve" font-family="Helvetica-Light" font-size="29.2" fill="#000000" transform="matrix(1.00, 0.00, -0.00, -1.00, 193.8, 536.0)"> </text><text xml:space="preserve" font-family="Helvetica-Light" font-size="29.2" fill="#000000" transform="matrix(1.00, 0.00, -0.00, -1.00, 201.9, 536.0)">c</text><text xml:space="preserve" font-family="Helvetica-Light" font-size="29.2" fill="#000000" transform="matrix(1.00, 0.00, -0.00, -1.00, 218.1, 536.0)">o</text><text xml:space="preserve" font-family="Helvetica-Light" font-size="29.2" fill="#000000" transform="matrix(1.00, 0.00, -0.00, -1.00, 234.3, 536.0)">m</text><text xml:space="preserve" font-family="Helvetica-Light" font-size="29.2" fill="#000000" transform="matrix(1.00, 0.00, -0.00, -1.00, 258.6, 536.0)">m</text><text xml:space="preserve" font-family="Helvetica-Light" font-size="29.2" fill="#000000" transform="matrix(1.00, 0.00, -0.00, -1.00, 282.9, 536.0)">o</text><text xml:space="preserve" font-family="Helvetica-Light" font-size="29.2" fill="#000000" transform="matrix(1.00, 0.00, -0.00, -1.00, 299.1, 536.0)">n</text><text xml:space="preserve" font-family="Helvetica-Light" font-size="29.2" fill="#000000" transform="matrix(1.00, 0.00, -0.00, -1.00, 315.3, 536.0)"> </text><text xml:space="preserve" font-family="Helvetica-Light" font-size="29.2" fill="#000000" transform="matrix(1.00, 0.00, -0.00, -1.00, 323.4, 536.0)">t</text><text xml:space="preserve" font-family="Helvetica-Light" font-size="29.2" fill="#000000" transform="matrix(1.00, 0.00, -0.00, -1.00, 331.5, 536.0)">y</text><text xml:space="preserve" font-family="Helvetica-Light" font-size="29.2" fill="#000000" transform="matrix(1.00, 0.00, -0.00, -1.00, 346.1, 536.0)">p</text><text xml:space="preserve" font-family="Helvetica-Light" font-size="29.2" fill="#000000" transform="matrix(1.00, 0.00, -0.00, -1.00, 363.9, 536.0)">e</text><text xml:space="preserve" font-family="Helvetica-Light" font-size="29.2" fill="#000000" transform="matrix(1.00, 0.00, -0.00, -1.00, 380.1, 536.0)">s</text><text xml:space="preserve" font-family="Helvetica-Light" font-size="29.2" fill="#000000" transform="matrix(1.00, 0.00, -0.00, -1.00, 394.7, 536.0)"> </text><text xml:space="preserve" font-family="Helvetica-Light" font-size="29.2" fill="#000000" transform="matrix(1.00, 0.00, -0.00, -1.00, 402.8, 536.0)">o</text><text xml:space="preserve" font-family="Helvetica-Light" font-size="29.2" fill="#000000" transform="matrix(1.00, 0.00, -0.00, -1.00, 419.0, 536.0)">f</text><text xml:space="preserve" font-family="Helvetica-Light" font-size="29.2" fill="#000000" transform="matrix(1.00, 0.00, -0.00, -1.00, 427.1, 536.0)"> </text><text xml:space="preserve" font-family="Helvetica-Light" font-size="29.2" fill="#000000" transform="matrix(1.00, 0.00, -0.00, -1.00, 435.2, 536.0)">g</text><text xml:space="preserve" font-family="Helvetica-Light" font-size="29.2" fill="#000000" transform="matrix(1.00, 0.00, -0.00, -1.00, 453.0, 536.0)">a</text><text xml:space="preserve" font-family="Helvetica-Light" font-size="29.2" fill="#000000" transform="matrix(1.00, 0.00, -0.00, -1.00, 469.3, 536.0)">m</text><text xml:space="preserve" font-family="Helvetica-Light" font-size="29.2" fill="#000000" transform="matrix(1.00, 0.00, -0.00, -1.00, 493.5, 536.0)">e</text><text xml:space="preserve" font-family="Helvetica-Light" font-size="29.2" fill="#000000" transform="matrix(1.00, 0.00, -0.00, -1.00, 509.8, 536.0)">s</text><text xml:space="preserve" font-family="Helvetica-Light" font-size="29.2" fill="#000000" transform="matrix(1.00, 0.00, -0.00, -1.00, 524.3, 536.0)"> </text><text xml:space="preserve" font-family="Helvetica-Light" font-size="21.9" fill="#000000" transform="matrix(1.00, 0.00, -0.00, -1.00, 77.1, 470.0)">•</text><text xml:space="preserve" font-family="Helvetica-Light" font-size="29.2" fill="#000000" transform="matrix(1.00, 0.00, -0.00, -1.00, 105.0, 467.0)">B</text><text xml:space="preserve" font-family="Helvetica-Light" font-size="29.2" fill="#000000" transform="matrix(1.00, 0.00, -0.00, -1.00, 124.4, 467.0)">o</text><text xml:space="preserve" font-family="Helvetica-Light" font-size="29.2" fill="#000000" transform="matrix(1.00, 0.00, -0.00, -1.00, 140.7, 467.0)">a</text><text xml:space="preserve" font-family="Helvetica-Light" font-size="29.2" fill="#000000" transform="matrix(1.00, 0.00, -0.00, -1.00, 156.9, 467.0)">r</text><text xml:space="preserve" font-family="Helvetica-Light" font-size="29.2" fill="#000000" transform="matrix(1.00, 0.00, -0.00, -1.00, 166.1, 467.0)">d</text><text xml:space="preserve" font-family="Helvetica-Light" font-size="29.2" fill="#000000" transform="matrix(1.00, 0.00, -0.00, -1.00, 183.9, 467.0)"> </text><text xml:space="preserve" font-family="Helvetica-Light" font-size="29.2" fill="#000000" transform="matrix(1.00, 0.00, -0.00, -1.00, 192.0, 467.0)">g</text><text xml:space="preserve" font-family="Helvetica-Light" font-size="29.2" fill="#000000" transform="matrix(1.00, 0.00, -0.00, -1.00, 209.8, 467.0)">a</text><text xml:space="preserve" font-family="Helvetica-Light" font-size="29.2" fill="#000000" transform="matrix(1.00, 0.00, -0.00, -1.00, 226.0, 467.0)">m</text><text xml:space="preserve" font-family="Helvetica-Light" font-size="29.2" fill="#000000" transform="matrix(1.00, 0.00, -0.00, -1.00, 250.3, 467.0)">e</text><text xml:space="preserve" font-family="Helvetica-Light" font-size="29.2" fill="#000000" transform="matrix(1.00, 0.00, -0.00, -1.00, 266.5, 467.0)">s</text><text xml:space="preserve" font-family="Helvetica-Light" font-size="29.2" fill="#000000" transform="matrix(1.00, 0.00, -0.00, -1.00, 281.1, 467.0)"> </text><text xml:space="preserve" font-family="Helvetica-Light" font-size="21.9" fill="#000000" transform="matrix(1.00, 0.00, -0.00, -1.00, 112.1, 401.0)">•</text><text xml:space="preserve" font-family="Helvetica-Light" font-size="29.2" fill="#000000" transform="matrix(1.00, 0.00, -0.00, -1.00, 140.0, 398.0)">G</text><text xml:space="preserve" font-family="Helvetica-Light" font-size="29.2" fill="#000000" transform="matrix(1.00, 0.00, -0.00, -1.00, 162.7, 398.0)">e</text><text xml:space="preserve" font-family="Helvetica-Light" font-size="29.2" fill="#000000" transform="matrix(1.00, 0.00, -0.00, -1.00, 178.9, 398.0)">n</text><text xml:space="preserve" font-family="Helvetica-Light" font-size="29.2" fill="#000000" transform="matrix(1.00, 0.00, -0.00, -1.00, 195.1, 398.0)">e</text><text xml:space="preserve" font-family="Helvetica-Light" font-size="29.2" fill="#000000" transform="matrix(1.00, 0.00, -0.00, -1.00, 211.3, 398.0)">r</text><text xml:space="preserve" font-family="Helvetica-Light" font-size="29.2" fill="#000000" transform="matrix(1.00, 0.00, -0.00, -1.00, 221.0, 398.0)">a</text><text xml:space="preserve" font-family="Helvetica-Light" font-size="29.2" fill="#000000" transform="matrix(1.00, 0.00, -0.00, -1.00, 237.2, 398.0)">l</text><text xml:space="preserve" font-family="Helvetica-Light" font-size="29.2" fill="#000000" transform="matrix(1.00, 0.00, -0.00, -1.00, 243.7, 398.0)">l</text><text xml:space="preserve" font-family="Helvetica-Light" font-size="29.2" fill="#000000" transform="matrix(1.00, 0.00, -0.00, -1.00, 250.2, 398.0)">y</text><text xml:space="preserve" font-family="Helvetica-Light" font-size="29.2" fill="#000000" transform="matrix(1.00, 0.00, -0.00, -1.00, 264.8, 398.0)"> </text><text xml:space="preserve" font-family="Helvetica-Light" font-size="29.2" fill="#000000" transform="matrix(1.00, 0.00, -0.00, -1.00, 272.9, 398.0)">h</text><text xml:space="preserve" font-family="Helvetica-Light" font-size="29.2" fill="#000000" transform="matrix(1.00, 0.00, -0.00, -1.00, 289.1, 398.0)">a</text><text xml:space="preserve" font-family="Helvetica-Light" font-size="29.2" fill="#000000" transform="matrix(1.00, 0.00, -0.00, -1.00, 305.3, 398.0)">v</text><text xml:space="preserve" font-family="Helvetica-Light" font-size="29.2" fill="#000000" transform="matrix(1.00, 0.00, -0.00, -1.00, 319.9, 398.0)">e</text><text xml:space="preserve" font-family="Helvetica-Light" font-size="29.2" fill="#000000" transform="matrix(1.00, 0.00, -0.00, -1.00, 336.1, 398.0)"> </text><text xml:space="preserve" font-family="Helvetica-Light" font-size="29.2" fill="#000000" transform="matrix(1.00, 0.00, -0.00, -1.00, 344.2, 398.0)">t</text><text xml:space="preserve" font-family="Helvetica-Light" font-size="29.2" fill="#000000" transform="matrix(1.00, 0.00, -0.00, -1.00, 352.3, 398.0)">o</text><text xml:space="preserve" font-family="Helvetica-Light" font-size="29.2" fill="#000000" transform="matrix(1.00, 0.00, -0.00, -1.00, 368.5, 398.0)">k</text><text xml:space="preserve" font-family="Helvetica-Light" font-size="29.2" fill="#000000" transform="matrix(1.00, 0.00, -0.00, -1.00, 383.1, 398.0)">e</text><text xml:space="preserve" font-family="Helvetica-Light" font-size="29.2" fill="#000000" transform="matrix(1.00, 0.00, -0.00, -1.00, 399.3, 398.0)">n</text><text xml:space="preserve" font-family="Helvetica-Light" font-size="29.2" fill="#000000" transform="matrix(1.00, 0.00, -0.00, -1.00, 415.5, 398.0)">s</text><text xml:space="preserve" font-family="Helvetica-Light" font-size="29.2" fill="#000000" transform="matrix(1.00, 0.00, -0.00, -1.00, 430.1, 398.0)">/</text><text xml:space="preserve" font-family="Helvetica-Light" font-size="29.2" fill="#000000" transform="matrix(1.00, 0.00, -0.00, -1.00, 438.2, 398.0)">p</text><text xml:space="preserve" font-family="Helvetica-Light" font-size="29.2" fill="#000000" transform="matrix(1.00, 0.00, -0.00, -1.00, 456.0, 398.0)">i</text><text xml:space="preserve" font-family="Helvetica-Light" font-size="29.2" fill="#000000" transform="matrix(1.00, 0.00, -0.00, -1.00, 462.5, 398.0)">e</text><text xml:space="preserve" font-family="Helvetica-Light" font-size="29.2" fill="#000000" transform="matrix(1.00, 0.00, -0.00, -1.00, 478.7, 398.0)">c</text><text xml:space="preserve" font-family="Helvetica-Light" font-size="29.2" fill="#000000" transform="matrix(1.00, 0.00, -0.00, -1.00, 494.9, 398.0)">e</text><text xml:space="preserve" font-family="Helvetica-Light" font-size="29.2" fill="#000000" transform="matrix(1.00, 0.00, -0.00, -1.00, 511.1, 398.0)">s</text><text xml:space="preserve" font-family="Helvetica-Light" font-size="29.2" fill="#000000" transform="matrix(1.00, 0.00, -0.00, -1.00, 525.7, 398.0)"> </text><text xml:space="preserve" font-family="Helvetica-Light" font-size="21.9" fill="#000000" transform="matrix(1.00, 0.00, -0.00, -1.00, 112.1, 331.9)">•</text><text xml:space="preserve" font-family="Helvetica-Light" font-size="29.2" fill="#000000" transform="matrix(1.00, 0.00, -0.00, -1.00, 140.0, 329.0)">O</text><text xml:space="preserve" font-family="Helvetica-Light" font-size="29.2" fill="#000000" transform="matrix(1.00, 0.00, -0.00, -1.00, 162.7, 329.0)">f</text><text xml:space="preserve" font-family="Helvetica-Light" font-size="29.2" fill="#000000" transform="matrix(1.00, 0.00, -0.00, -1.00, 170.8, 329.0)">t</text><text xml:space="preserve" font-family="Helvetica-Light" font-size="29.2" fill="#000000" transform="matrix(1.00, 0.00, -0.00, -1.00, 178.9, 329.0)">e</text><text xml:space="preserve" font-family="Helvetica-Light" font-size="29.2" fill="#000000" transform="matrix(1.00, 0.00, -0.00, -1.00, 195.1, 329.0)">n</text><text xml:space="preserve" font-family="Helvetica-Light" font-size="29.2" fill="#000000" transform="matrix(1.00, 0.00, -0.00, -1.00, 211.3, 329.0)"> </text><text xml:space="preserve" font-family="Helvetica-Light" font-size="29.2" fill="#000000" transform="matrix(1.00, 0.00, -0.00, -1.00, 219.4, 329.0)">h</text><text xml:space="preserve" font-family="Helvetica-Light" font-size="29.2" fill="#000000" transform="matrix(1.00, 0.00, -0.00, -1.00, 235.6, 329.0)">a</text><text xml:space="preserve" font-family="Helvetica-Light" font-size="29.2" fill="#000000" transform="matrix(1.00, 0.00, -0.00, -1.00, 251.9, 329.0)">v</text><text xml:space="preserve" font-family="Helvetica-Light" font-size="29.2" fill="#000000" transform="matrix(1.00, 0.00, -0.00, -1.00, 266.4, 329.0)">e</text><text xml:space="preserve" font-family="Helvetica-Light" font-size="29.2" fill="#000000" transform="matrix(1.00, 0.00, -0.00, -1.00, 282.7, 329.0)"> </text><text xml:space="preserve" font-family="Helvetica-Light" font-size="29.2" fill="#000000" transform="matrix(1.00, 0.00, -0.00, -1.00, 290.8, 329.0)">d</text><text xml:space="preserve" font-family="Helvetica-Light" font-size="29.2" fill="#000000" transform="matrix(1.00, 0.00, -0.00, -1.00, 308.6, 329.0)">i</text><text xml:space="preserve" font-family="Helvetica-Light" font-size="29.2" fill="#000000" transform="matrix(1.00, 0.00, -0.00, -1.00, 315.0, 329.0)">c</text><text xml:space="preserve" font-family="Helvetica-Light" font-size="29.2" fill="#000000" transform="matrix(1.00, 0.00, -0.00, -1.00, 331.3, 329.0)">e</text><text xml:space="preserve" font-family="Helvetica-Light" font-size="29.2" fill="#000000" transform="matrix(1.00, 0.00, -0.00, -1.00, 347.5, 329.0)"> </text><text xml:space="preserve" font-family="Helvetica-Light" font-size="21.9" fill="#000000" transform="matrix(1.00, 0.00, -0.00, -1.00, 77.1, 262.9)">•</text><text xml:space="preserve" font-family="Helvetica-Light" font-size="29.2" fill="#000000" transform="matrix(1.00, 0.00, -0.00, -1.00, 105.0, 260.0)">C</text><text xml:space="preserve" font-family="Helvetica-Light" font-size="29.2" fill="#000000" transform="matrix(1.00, 0.00, -0.00, -1.00, 126.1, 260.0)">a</text><text xml:space="preserve" font-family="Helvetica-Light" font-size="29.2" fill="#000000" transform="matrix(1.00, 0.00, -0.00, -1.00, 142.3, 260.0)">r</text><text xml:space="preserve" font-family="Helvetica-Light" font-size="29.2" fill="#000000" transform="matrix(1.00, 0.00, -0.00, -1.00, 151.5, 260.0)">d</text><text xml:space="preserve" font-family="Helvetica-Light" font-size="29.2" fill="#000000" transform="matrix(1.00, 0.00, -0.00, -1.00, 169.3, 260.0)"> </text><text xml:space="preserve" font-family="Helvetica-Light" font-size="29.2" fill="#000000" transform="matrix(1.00, 0.00, -0.00, -1.00, 177.4, 260.0)">g</text><text xml:space="preserve" font-family="Helvetica-Light" font-size="29.2" fill="#000000" transform="matrix(1.00, 0.00, -0.00, -1.00, 195.2, 260.0)">a</text><text xml:space="preserve" font-family="Helvetica-Light" font-size="29.2" fill="#000000" transform="matrix(1.00, 0.00, -0.00, -1.00, 211.4, 260.0)">m</text><text xml:space="preserve" font-family="Helvetica-Light" font-size="29.2" fill="#000000" transform="matrix(1.00, 0.00, -0.00, -1.00, 235.7, 260.0)">e</text><text xml:space="preserve" font-family="Helvetica-Light" font-size="29.2" fill="#000000" transform="matrix(1.00, 0.00, -0.00, -1.00, 251.9, 260.0)">s</text><text xml:space="preserve" font-family="Helvetica-Light" font-size="29.2" fill="#000000" transform="matrix(1.00, 0.00, -0.00, -1.00, 266.5, 260.0)"> </text><text xml:space="preserve" font-family="Helvetica-Light" font-size="21.9" fill="#000000" transform="matrix(1.00, 0.00, -0.00, -1.00, 112.1, 193.9)">•</text><text xml:space="preserve" font-family="Helvetica-Light" font-size="29.2" fill="#000000" transform="matrix(1.00, 0.00, -0.00, -1.00, 140.0, 191.0)">C</text><text xml:space="preserve" font-family="Helvetica-Light" font-size="29.2" fill="#000000" transform="matrix(1.00, 0.00, -0.00, -1.00, 161.1, 191.0)">a</text><text xml:space="preserve" font-family="Helvetica-Light" font-size="29.2" fill="#000000" transform="matrix(1.00, 0.00, -0.00, -1.00, 177.3, 191.0)">r</text><text xml:space="preserve" font-family="Helvetica-Light" font-size="29.2" fill="#000000" transform="matrix(1.00, 0.00, -0.00, -1.00, 186.5, 191.0)">d</text><text xml:space="preserve" font-family="Helvetica-Light" font-size="29.2" fill="#000000" transform="matrix(1.00, 0.00, -0.00, -1.00, 204.3, 191.0)">s</text><text xml:space="preserve" font-family="Helvetica-Light" font-size="29.2" fill="#000000" transform="matrix(1.00, 0.00, -0.00, -1.00, 218.8, 191.0)"> </text><text xml:space="preserve" font-family="Helvetica-Light" font-size="29.2" fill="#000000" transform="matrix(1.00, 0.00, -0.00, -1.00, 227.0, 191.0)">a</text><text xml:space="preserve" font-family="Helvetica-Light" font-size="29.2" fill="#000000" transform="matrix(1.00, 0.00, -0.00, -1.00, 243.2, 191.0)">r</text><text xml:space="preserve" font-family="Helvetica-Light" font-size="29.2" fill="#000000" transform="matrix(1.00, 0.00, -0.00, -1.00, 252.4, 191.0)">e</text><text xml:space="preserve" font-family="Helvetica-Light" font-size="29.2" fill="#000000" transform="matrix(1.00, 0.00, -0.00, -1.00, 268.6, 191.0)"> </text><text xml:space="preserve" font-family="Helvetica-Light" font-size="29.2" fill="#000000" transform="matrix(1.00, 0.00, -0.00, -1.00, 276.7, 191.0)">g</text><text xml:space="preserve" font-family="Helvetica-Light" font-size="29.2" fill="#000000" transform="matrix(1.00, 0.00, -0.00, -1.00, 294.5, 191.0)">e</text><text xml:space="preserve" font-family="Helvetica-Light" font-size="29.2" fill="#000000" transform="matrix(1.00, 0.00, -0.00, -1.00, 310.7, 191.0)">n</text><text xml:space="preserve" font-family="Helvetica-Light" font-size="29.2" fill="#000000" transform="matrix(1.00, 0.00, -0.00, -1.00, 326.9, 191.0)">e</text><text xml:space="preserve" font-family="Helvetica-Light" font-size="29.2" fill="#000000" transform="matrix(1.00, 0.00, -0.00, -1.00, 343.1, 191.0)">r</text><text xml:space="preserve" font-family="Helvetica-Light" font-size="29.2" fill="#000000" transform="matrix(1.00, 0.00, -0.00, -1.00, 352.8, 191.0)">a</text><text xml:space="preserve" font-family="Helvetica-Light" font-size="29.2" fill="#000000" transform="matrix(1.00, 0.00, -0.00, -1.00, 369.1, 191.0)">l</text><text xml:space="preserve" font-family="Helvetica-Light" font-size="29.2" fill="#000000" transform="matrix(1.00, 0.00, -0.00, -1.00, 375.5, 191.0)">l</text><text xml:space="preserve" font-family="Helvetica-Light" font-size="29.2" fill="#000000" transform="matrix(1.00, 0.00, -0.00, -1.00, 382.0, 191.0)">y</text><text xml:space="preserve" font-family="Helvetica-Light" font-size="29.2" fill="#000000" transform="matrix(1.00, 0.00, -0.00, -1.00, 396.6, 191.0)"> </text><text xml:space="preserve" font-family="Helvetica-Light" font-size="29.2" fill="#000000" transform="matrix(1.00, 0.00, -0.00, -1.00, 404.7, 191.0)">i</text><text xml:space="preserve" font-family="Helvetica-Light" font-size="29.2" fill="#000000" transform="matrix(1.00, 0.00, -0.00, -1.00, 411.2, 191.0)">n</text><text xml:space="preserve" font-family="Helvetica-Light" font-size="29.2" fill="#000000" transform="matrix(1.00, 0.00, -0.00, -1.00, 427.4, 191.0)"> </text><text xml:space="preserve" font-family="Helvetica-Light" font-size="29.2" fill="#000000" transform="matrix(1.00, 0.00, -0.00, -1.00, 435.5, 191.0)">a</text><text xml:space="preserve" font-family="Helvetica-Light" font-size="29.2" fill="#000000" transform="matrix(1.00, 0.00, -0.00, -1.00, 451.7, 191.0)"> </text><text xml:space="preserve" font-family="Helvetica-Light" font-size="29.2" fill="#000000" transform="matrix(1.00, 0.00, -0.00, -1.00, 459.8, 191.0)">d</text><text xml:space="preserve" font-family="Helvetica-Light" font-size="29.2" fill="#000000" transform="matrix(1.00, 0.00, -0.00, -1.00, 477.6, 191.0)">e</text><text xml:space="preserve" font-family="Helvetica-Light" font-size="29.2" fill="#000000" transform="matrix(1.00, 0.00, -0.00, -1.00, 493.8, 191.0)">c</text><text xml:space="preserve" font-family="Helvetica-Light" font-size="29.2" fill="#000000" transform="matrix(1.00, 0.00, -0.00, -1.00, 510.0, 191.0)">k</text><text xml:space="preserve" font-family="Helvetica-Light" font-size="10.0" fill="#000000" transform="matrix(1.00, 0.00, -0.00, -1.00, 716.0, 347.0)">h</text><text xml:space="preserve" font-family="Helvetica-Light" font-size="10.0" fill="#000000" transform="matrix(1.00, 0.00, -0.00, -1.00, 721.6, 347.0)">t</text><text xml:space="preserve" font-family="Helvetica-Light" font-size="10.0" fill="#000000" transform="matrix(1.00, 0.00, -0.00, -1.00, 724.3, 347.0)">t</text><text xml:space="preserve" font-family="Helvetica-Light" font-size="10.0" fill="#000000" transform="matrix(1.00, 0.00, -0.00, -1.00, 727.1, 347.0)">p</text><text xml:space="preserve" font-family="Helvetica-Light" font-size="10.0" fill="#000000" transform="matrix(1.00, 0.00, -0.00, -1.00, 733.2, 347.0)">:</text><text xml:space="preserve" font-family="Helvetica-Light" font-size="10.0" fill="#000000" transform="matrix(1.00, 0.00, -0.00, -1.00, 736.0, 347.0)">/</text><text xml:space="preserve" font-family="Helvetica-Light" font-size="10.0" fill="#000000" transform="matrix(1.00, 0.00, -0.00, -1.00, 738.8, 347.0)">/</text><text xml:space="preserve" font-family="Helvetica-Light" font-size="10.0" fill="#000000" transform="matrix(1.00, 0.00, -0.00, -1.00, 741.6, 347.0)">b</text><text xml:space="preserve" font-family="Helvetica-Light" font-size="10.0" fill="#000000" transform="matrix(1.00, 0.00, -0.00, -1.00, 747.7, 347.0)">o</text><text xml:space="preserve" font-family="Helvetica-Light" font-size="10.0" fill="#000000" transform="matrix(1.00, 0.00, -0.00, -1.00, 753.2, 347.0)">a</text><text xml:space="preserve" font-family="Helvetica-Light" font-size="10.0" fill="#000000" transform="matrix(1.00, 0.00, -0.00, -1.00, 758.8, 347.0)">r</text><text xml:space="preserve" font-family="Helvetica-Light" font-size="10.0" fill="#000000" transform="matrix(1.00, 0.00, -0.00, -1.00, 762.0, 347.0)">d</text><text xml:space="preserve" font-family="Helvetica-Light" font-size="10.0" fill="#000000" transform="matrix(1.00, 0.00, -0.00, -1.00, 768.1, 347.0)">g</text><text xml:space="preserve" font-family="Helvetica-Light" font-size="10.0" fill="#000000" transform="matrix(1.00, 0.00, -0.00, -1.00, 774.2, 347.0)">a</text><text xml:space="preserve" font-family="Helvetica-Light" font-size="10.0" fill="#000000" transform="matrix(1.00, 0.00, -0.00, -1.00, 779.7, 347.0)">m</text><text xml:space="preserve" font-family="Helvetica-Light" font-size="10.0" fill="#000000" transform="matrix(1.00, 0.00, -0.00, -1.00, 788.1, 347.0)">e</text><text xml:space="preserve" font-family="Helvetica-Light" font-size="10.0" fill="#000000" transform="matrix(1.00, 0.00, -0.00, -1.00, 793.6, 347.0)">g</text><text xml:space="preserve" font-family="Helvetica-Light" font-size="10.0" fill="#000000" transform="matrix(1.00, 0.00, -0.00, -1.00, 799.7, 347.0)">e</text><text xml:space="preserve" font-family="Helvetica-Light" font-size="10.0" fill="#000000" transform="matrix(1.00, 0.00, -0.00, -1.00, 805.3, 347.0)">e</text><text xml:space="preserve" font-family="Helvetica-Light" font-size="10.0" fill="#000000" transform="matrix(1.00, 0.00, -0.00, -1.00, 810.9, 347.0)">k</text><text xml:space="preserve" font-family="Helvetica-Light" font-size="10.0" fill="#000000" transform="matrix(1.00, 0.00, -0.00, -1.00, 815.9, 347.0)">.</text><text xml:space="preserve" font-family="Helvetica-Light" font-size="10.0" fill="#000000" transform="matrix(1.00, 0.00, -0.00, -1.00, 818.6, 347.0)">c</text><text xml:space="preserve" font-family="Helvetica-Light" font-size="10.0" fill="#000000" transform="matrix(1.00, 0.00, -0.00, -1.00, 824.2, 347.0)">o</text><text xml:space="preserve" font-family="Helvetica-Light" font-size="10.0" fill="#000000" transform="matrix(1.00, 0.00, -0.00, -1.00, 829.8, 347.0)">m</text><text xml:space="preserve" font-family="Helvetica-Light" font-size="10.0" fill="#000000" transform="matrix(1.00, 0.00, -0.00, -1.00, 838.1, 347.0)">/</text><text xml:space="preserve" font-family="Helvetica-Light" font-size="10.0" fill="#000000" transform="matrix(1.00, 0.00, -0.00, -1.00, 840.9, 347.0)">i</text><text xml:space="preserve" font-family="Helvetica-Light" font-size="10.0" fill="#000000" transform="matrix(1.00, 0.00, -0.00, -1.00, 843.1, 347.0)">m</text><text xml:space="preserve" font-family="Helvetica-Light" font-size="10.0" fill="#000000" transform="matrix(1.00, 0.00, -0.00, -1.00, 851.4, 347.0)">a</text><text xml:space="preserve" font-family="Helvetica-Light" font-size="10.0" fill="#000000" transform="matrix(1.00, 0.00, -0.00, -1.00, 857.0, 347.0)">g</text><text xml:space="preserve" font-family="Helvetica-Light" font-size="10.0" fill="#000000" transform="matrix(1.00, 0.00, -0.00, -1.00, 863.1, 347.0)">e</text><text xml:space="preserve" font-family="Helvetica-Light" font-size="10.0" fill="#000000" transform="matrix(1.00, 0.00, -0.00, -1.00, 868.6, 347.0)">/</text><text xml:space="preserve" font-family="Helvetica-Light" font-size="10.0" fill="#000000" transform="matrix(1.00, 0.00, -0.00, -1.00, 871.4, 347.0)">2</text><text xml:space="preserve" font-family="Helvetica-Light" font-size="10.0" fill="#000000" transform="matrix(1.00, 0.00, -0.00, -1.00, 877.0, 347.0)">5</text><text xml:space="preserve" font-family="Helvetica-Light" font-size="10.0" fill="#000000" transform="matrix(1.00, 0.00, -0.00, -1.00, 882.5, 347.0)">7</text><text xml:space="preserve" font-family="Helvetica-Light" font-size="10.0" fill="#000000" transform="matrix(1.00, 0.00, -0.00, -1.00, 888.1, 347.0)">7</text><text xml:space="preserve" font-family="Helvetica-Light" font-size="10.0" fill="#000000" transform="matrix(1.00, 0.00, -0.00, -1.00, 893.7, 347.0)">8</text><text xml:space="preserve" font-family="Helvetica-Light" font-size="10.0" fill="#000000" transform="matrix(1.00, 0.00, -0.00, -1.00, 899.2, 347.0)">4</text><text xml:space="preserve" font-family="Helvetica-Light" font-size="10.0" fill="#000000" transform="matrix(1.00, 0.00, -0.00, -1.00, 904.8, 347.0)">5</text><text xml:space="preserve" font-family="Helvetica-Light" font-size="10.0" fill="#000000" transform="matrix(1.00, 0.00, -0.00, -1.00, 910.3, 347.0)">/</text><text xml:space="preserve" font-family="Helvetica-Light" font-size="10.0" fill="#000000" transform="matrix(1.00, 0.00, -0.00, -1.00, 913.1, 347.0)">t</text><text xml:space="preserve" font-family="Helvetica-Light" font-size="10.0" fill="#000000" transform="matrix(1.00, 0.00, -0.00, -1.00, 915.9, 347.0)">i</text><text xml:space="preserve" font-family="Helvetica-Light" font-size="10.0" fill="#000000" transform="matrix(1.00, 0.00, -0.00, -1.00, 918.1, 347.0)">g</text><text xml:space="preserve" font-family="Helvetica-Light" font-size="10.0" fill="#000000" transform="matrix(1.00, 0.00, -0.00, -1.00, 924.2, 347.0)">r</text><text xml:space="preserve" font-family="Helvetica-Light" font-size="10.0" fill="#000000" transform="matrix(1.00, 0.00, -0.00, -1.00, 927.6, 347.0)">i</text><text xml:space="preserve" font-family="Helvetica-Light" font-size="10.0" fill="#000000" transform="matrix(1.00, 0.00, -0.00, -1.00, 929.8, 347.0)">s</text><text xml:space="preserve" font-family="Helvetica-Light" font-size="10.0" fill="#000000" transform="matrix(1.00, 0.00, -0.00, -1.00, 934.8, 347.0)">-</text><text xml:space="preserve" font-family="Helvetica-Light" font-size="10.0" fill="#000000" transform="matrix(1.00, 0.00, -0.00, -1.00, 938.1, 347.0)">e</text><text xml:space="preserve" font-family="Helvetica-Light" font-size="10.0" fill="#000000" transform="matrix(1.00, 0.00, -0.00, -1.00, 943.7, 347.0)">u</text><text xml:space="preserve" font-family="Helvetica-Light" font-size="10.0" fill="#000000" transform="matrix(1.00, 0.00, -0.00, -1.00, 949.2, 347.0)">p</text><text xml:space="preserve" font-family="Helvetica-Light" font-size="10.0" fill="#000000" transform="matrix(1.00, 0.00, -0.00, -1.00, 955.3, 347.0)">h</text><text xml:space="preserve" font-family="Helvetica-Light" font-size="10.0" fill="#000000" transform="matrix(1.00, 0.00, -0.00, -1.00, 960.9, 347.0)">r</text><text xml:space="preserve" font-family="Helvetica-Light" font-size="10.0" fill="#000000" transform="matrix(1.00, 0.00, -0.00, -1.00, 964.2, 347.0)">a</text><text xml:space="preserve" font-family="Helvetica-Light" font-size="10.0" fill="#000000" transform="matrix(1.00, 0.00, -0.00, -1.00, 969.8, 347.0)">t</text><text xml:space="preserve" font-family="Helvetica-Light" font-size="10.0" fill="#000000" transform="matrix(1.00, 0.00, -0.00, -1.00, 972.6, 347.0)">e</text><text xml:space="preserve" font-family="Helvetica-Light" font-size="10.0" fill="#000000" transform="matrix(1.00, 0.00, -0.00, -1.00, 978.1, 347.0)">s</text><g><clipPath id="clip-92"><path d="M 715.0 344.6 L 983.1 344.6 L 983.1 347.1 L 715.0 347.1 Z M 715.0 344.6 "></path></clipPath><g clip-path="url(#clip-92)"><path d="M 4.5 14.6 L 271.6 14.6 " fill="none" stroke="#000000" stroke-width="0.50" stroke-miterlimit="0.00" transform="matrix(1.00, 0.00, 0.00, -1.00, 711.5, 360.5)"></path></g></g><text xml:space="preserve" font-family="Helvetica-Light" font-size="10.0" fill="#000000" transform="matrix(1.00, 0.00, -0.00, -1.00, 749.0, 48.0)">h</text><text xml:space="preserve" font-family="Helvetica-Light" font-size="10.0" fill="#000000" transform="matrix(1.00, 0.00, -0.00, -1.00, 754.6, 48.0)">t</text><text xml:space="preserve" font-family="Helvetica-Light" font-size="10.0" fill="#000000" transform="matrix(1.00, 0.00, -0.00, -1.00, 757.3, 48.0)">t</text><text xml:space="preserve" font-family="Helvetica-Light" font-size="10.0" fill="#000000" transform="matrix(1.00, 0.00, -0.00, -1.00, 760.1, 48.0)">p</text><text xml:space="preserve" font-family="Helvetica-Light" font-size="10.0" fill="#000000" transform="matrix(1.00, 0.00, -0.00, -1.00, 766.2, 48.0)">:</text><text xml:space="preserve" font-family="Helvetica-Light" font-size="10.0" fill="#000000" transform="matrix(1.00, 0.00, -0.00, -1.00, 769.0, 48.0)">/</text><text xml:space="preserve" font-family="Helvetica-Light" font-size="10.0" fill="#000000" transform="matrix(1.00, 0.00, -0.00, -1.00, 771.8, 48.0)">/</text><text xml:space="preserve" font-family="Helvetica-Light" font-size="10.0" fill="#000000" transform="matrix(1.00, 0.00, -0.00, -1.00, 774.6, 48.0)">b</text><text xml:space="preserve" font-family="Helvetica-Light" font-size="10.0" fill="#000000" transform="matrix(1.00, 0.00, -0.00, -1.00, 780.7, 48.0)">o</text><text xml:space="preserve" font-family="Helvetica-Light" font-size="10.0" fill="#000000" transform="matrix(1.00, 0.00, -0.00, -1.00, 786.2, 48.0)">a</text><text xml:space="preserve" font-family="Helvetica-Light" font-size="10.0" fill="#000000" transform="matrix(1.00, 0.00, -0.00, -1.00, 791.8, 48.0)">r</text><text xml:space="preserve" font-family="Helvetica-Light" font-size="10.0" fill="#000000" transform="matrix(1.00, 0.00, -0.00, -1.00, 795.0, 48.0)">d</text><text xml:space="preserve" font-family="Helvetica-Light" font-size="10.0" fill="#000000" transform="matrix(1.00, 0.00, -0.00, -1.00, 801.1, 48.0)">g</text><text xml:space="preserve" font-family="Helvetica-Light" font-size="10.0" fill="#000000" transform="matrix(1.00, 0.00, -0.00, -1.00, 807.2, 48.0)">a</text><text xml:space="preserve" font-family="Helvetica-Light" font-size="10.0" fill="#000000" transform="matrix(1.00, 0.00, -0.00, -1.00, 812.7, 48.0)">m</text><text xml:space="preserve" font-family="Helvetica-Light" font-size="10.0" fill="#000000" transform="matrix(1.00, 0.00, -0.00, -1.00, 821.1, 48.0)">e</text><text xml:space="preserve" font-family="Helvetica-Light" font-size="10.0" fill="#000000" transform="matrix(1.00, 0.00, -0.00, -1.00, 826.6, 48.0)">g</text><text xml:space="preserve" font-family="Helvetica-Light" font-size="10.0" fill="#000000" transform="matrix(1.00, 0.00, -0.00, -1.00, 832.7, 48.0)">e</text><text xml:space="preserve" font-family="Helvetica-Light" font-size="10.0" fill="#000000" transform="matrix(1.00, 0.00, -0.00, -1.00, 838.3, 48.0)">e</text><text xml:space="preserve" font-family="Helvetica-Light" font-size="10.0" fill="#000000" transform="matrix(1.00, 0.00, -0.00, -1.00, 843.9, 48.0)">k</text><text xml:space="preserve" font-family="Helvetica-Light" font-size="10.0" fill="#000000" transform="matrix(1.00, 0.00, -0.00, -1.00, 848.9, 48.0)">.</text><text xml:space="preserve" font-family="Helvetica-Light" font-size="10.0" fill="#000000" transform="matrix(1.00, 0.00, -0.00, -1.00, 851.6, 48.0)">c</text><text xml:space="preserve" font-family="Helvetica-Light" font-size="10.0" fill="#000000" transform="matrix(1.00, 0.00, -0.00, -1.00, 857.2, 48.0)">o</text><text xml:space="preserve" font-family="Helvetica-Light" font-size="10.0" fill="#000000" transform="matrix(1.00, 0.00, -0.00, -1.00, 862.8, 48.0)">m</text><text xml:space="preserve" font-family="Helvetica-Light" font-size="10.0" fill="#000000" transform="matrix(1.00, 0.00, -0.00, -1.00, 871.1, 48.0)">/</text><text xml:space="preserve" font-family="Helvetica-Light" font-size="10.0" fill="#000000" transform="matrix(1.00, 0.00, -0.00, -1.00, 873.9, 48.0)">i</text><text xml:space="preserve" font-family="Helvetica-Light" font-size="10.0" fill="#000000" transform="matrix(1.00, 0.00, -0.00, -1.00, 876.1, 48.0)">m</text><text xml:space="preserve" font-family="Helvetica-Light" font-size="10.0" fill="#000000" transform="matrix(1.00, 0.00, -0.00, -1.00, 884.4, 48.0)">a</text><text xml:space="preserve" font-family="Helvetica-Light" font-size="10.0" fill="#000000" transform="matrix(1.00, 0.00, -0.00, -1.00, 890.0, 48.0)">g</text><text xml:space="preserve" font-family="Helvetica-Light" font-size="10.0" fill="#000000" transform="matrix(1.00, 0.00, -0.00, -1.00, 896.1, 48.0)">e</text><text xml:space="preserve" font-family="Helvetica-Light" font-size="10.0" fill="#000000" transform="matrix(1.00, 0.00, -0.00, -1.00, 901.6, 48.0)">/</text><text xml:space="preserve" font-family="Helvetica-Light" font-size="10.0" fill="#000000" transform="matrix(1.00, 0.00, -0.00, -1.00, 904.4, 48.0)">2</text><text xml:space="preserve" font-family="Helvetica-Light" font-size="10.0" fill="#000000" transform="matrix(1.00, 0.00, -0.00, -1.00, 910.0, 48.0)">7</text><text xml:space="preserve" font-family="Helvetica-Light" font-size="10.0" fill="#000000" transform="matrix(1.00, 0.00, -0.00, -1.00, 915.5, 48.0)">8</text><text xml:space="preserve" font-family="Helvetica-Light" font-size="10.0" fill="#000000" transform="matrix(1.00, 0.00, -0.00, -1.00, 921.1, 48.0)">9</text><text xml:space="preserve" font-family="Helvetica-Light" font-size="10.0" fill="#000000" transform="matrix(1.00, 0.00, -0.00, -1.00, 926.7, 48.0)">8</text><text xml:space="preserve" font-family="Helvetica-Light" font-size="10.0" fill="#000000" transform="matrix(1.00, 0.00, -0.00, -1.00, 932.2, 48.0)">4</text><text xml:space="preserve" font-family="Helvetica-Light" font-size="10.0" fill="#000000" transform="matrix(1.00, 0.00, -0.00, -1.00, 937.8, 48.0)">/</text><text xml:space="preserve" font-family="Helvetica-Light" font-size="10.0" fill="#000000" transform="matrix(1.00, 0.00, -0.00, -1.00, 940.6, 48.0)">b</text><text xml:space="preserve" font-family="Helvetica-Light" font-size="10.0" fill="#000000" transform="matrix(1.00, 0.00, -0.00, -1.00, 946.7, 48.0)">o</text><text xml:space="preserve" font-family="Helvetica-Light" font-size="10.0" fill="#000000" transform="matrix(1.00, 0.00, -0.00, -1.00, 952.2, 48.0)">h</text><text xml:space="preserve" font-family="Helvetica-Light" font-size="10.0" fill="#000000" transform="matrix(1.00, 0.00, -0.00, -1.00, 957.8, 48.0)">n</text><text xml:space="preserve" font-family="Helvetica-Light" font-size="10.0" fill="#000000" transform="matrix(1.00, 0.00, -0.00, -1.00, 963.4, 48.0)">a</text><text xml:space="preserve" font-family="Helvetica-Light" font-size="10.0" fill="#000000" transform="matrix(1.00, 0.00, -0.00, -1.00, 968.9, 48.0)">n</text><text xml:space="preserve" font-family="Helvetica-Light" font-size="10.0" fill="#000000" transform="matrix(1.00, 0.00, -0.00, -1.00, 974.5, 48.0)">z</text><text xml:space="preserve" font-family="Helvetica-Light" font-size="10.0" fill="#000000" transform="matrix(1.00, 0.00, -0.00, -1.00, 979.5, 48.0)">a</text><g><clipPath id="clip-93"><path d="M 747.8 45.8 L 984.9 45.8 L 984.9 48.3 L 747.8 48.3 Z M 747.8 45.8 "></path></clipPath><g clip-path="url(#clip-93)"><path d="M 4.5 14.6 L 240.5 14.6 " fill="none" stroke="#000000" stroke-width="0.50" stroke-miterlimit="0.00" transform="matrix(1.00, 0.00, 0.00, -1.00, 744.3, 61.7)"></path></g></g><image xlink:href="1C23CAE17BE8D78EA97A41E84C30FC4D.png" width="417.00" height="201.00" transform="matrix(1.00, 0.00, -0.00, -1.00, 573.0, 563.0)"></image></g></svg>