<?xml version="1.0" encoding="UTF-8" standalone="no"?><svg xmlns="http://www.w3.org/2000/svg" xmlns:xlink="http://www.w3.org/1999/xlink" clip-rule="evenodd" stroke-miterlimit="4.00" viewBox="0 0 840 71"><desc>SVG generated by Keynote</desc><defs></defs><g transform="matrix(1.00, 0.00, -0.00, -1.00, 0.0, 71.0)"><text xml:space="preserve" font-family="Helvetica-Light" font-size="70.4" fill="#000000" transform="matrix(1.00, 0.00, -0.00, -1.00, -2.0, 17.0)">C</text><text xml:space="preserve" font-family="Helvetica-Light" font-size="70.4" fill="#000000" transform="matrix(1.00, 0.00, -0.00, -1.00, 48.8, 17.0)">o</text><text xml:space="preserve" font-family="Helvetica-Light" font-size="70.4" fill="#000000" transform="matrix(1.00, 0.00, -0.00, -1.00, 88.0, 17.0)">o</text><text xml:space="preserve" font-family="Helvetica-Light" font-size="70.4" fill="#000000" transform="matrix(1.00, 0.00, -0.00, -1.00, 127.1, 17.0)">r</text><text xml:space="preserve" font-family="Helvetica-Light" font-size="70.4" fill="#000000" transform="matrix(1.00, 0.00, -0.00, -1.00, 149.3, 17.0)">d</text><text xml:space="preserve" font-family="Helvetica-Light" font-size="70.4" fill="#000000" transform="matrix(1.00, 0.00, -0.00, -1.00, 192.3, 17.0)">i</text><text xml:space="preserve" font-family="Helvetica-Light" font-size="70.4" fill="#000000" transform="matrix(1.00, 0.00, -0.00, -1.00, 207.9, 17.0)">n</text><text xml:space="preserve" font-family="Helvetica-Light" font-size="70.4" fill="#000000" transform="matrix(1.00, 0.00, -0.00, -1.00, 247.1, 17.0)">a</text><text xml:space="preserve" font-family="Helvetica-Light" font-size="70.4" fill="#000000" transform="matrix(1.00, 0.00, -0.00, -1.00, 286.2, 17.0)">t</text><text xml:space="preserve" font-family="Helvetica-Light" font-size="70.4" fill="#000000" transform="matrix(1.00, 0.00, -0.00, -1.00, 305.8, 17.0)">i</text><text xml:space="preserve" font-family="Helvetica-Light" font-size="70.4" fill="#000000" transform="matrix(1.00, 0.00, -0.00, -1.00, 321.4, 17.0)">n</text><text xml:space="preserve" font-family="Helvetica-Light" font-size="70.4" fill="#000000" transform="matrix(1.00, 0.00, -0.00, -1.00, 360.6, 17.0)">g</text><text xml:space="preserve" font-family="Helvetica-Light" font-size="70.4" fill="#000000" transform="matrix(1.00, 0.00, -0.00, -1.00, 403.6, 17.0)"> </text><text xml:space="preserve" font-family="Helvetica-Light" font-size="70.4" fill="#000000" transform="matrix(1.00, 0.00, -0.00, -1.00, 423.1, 17.0)">a</text><text xml:space="preserve" font-family="Helvetica-Light" font-size="70.4" fill="#000000" transform="matrix(1.00, 0.00, -0.00, -1.00, 462.3, 17.0)"> </text><text xml:space="preserve" font-family="Helvetica-Light" font-size="70.4" fill="#000000" transform="matrix(1.00, 0.00, -0.00, -1.00, 481.9, 17.0)">T</text><text xml:space="preserve" font-family="Helvetica-Light" font-size="70.4" fill="#000000" transform="matrix(1.00, 0.00, -0.00, -1.00, 514.5, 17.0)">r</text><text xml:space="preserve" font-family="Helvetica-Light" font-size="70.4" fill="#000000" transform="matrix(1.00, 0.00, -0.00, -1.00, 538.0, 17.0)">a</text><text xml:space="preserve" font-family="Helvetica-Light" font-size="70.4" fill="#000000" transform="matrix(1.00, 0.00, -0.00, -1.00, 577.1, 17.0)">n</text><text xml:space="preserve" font-family="Helvetica-Light" font-size="70.4" fill="#000000" transform="matrix(1.00, 0.00, -0.00, -1.00, 616.3, 17.0)">s</text><text xml:space="preserve" font-family="Helvetica-Light" font-size="70.4" fill="#000000" transform="matrix(1.00, 0.00, -0.00, -1.00, 651.5, 17.0)">a</text><text xml:space="preserve" font-family="Helvetica-Light" font-size="70.4" fill="#000000" transform="matrix(1.00, 0.00, -0.00, -1.00, 690.6, 17.0)">c</text><text xml:space="preserve" font-family="Helvetica-Light" font-size="70.4" fill="#000000" transform="matrix(1.00, 0.00, -0.00, -1.00, 729.7, 17.0)">t</text><text xml:space="preserve" font-family="Helvetica-Light" font-size="70.4" fill="#000000" transform="matrix(1.00, 0.00, -0.00, -1.00, 749.3, 17.0)">i</text><text xml:space="preserve" font-family="Helvetica-Light" font-size="70.4" fill="#000000" transform="matrix(1.00, 0.00, -0.00, -1.00, 764.9, 17.0)">o</text><text xml:space="preserve" font-family="Helvetica-Light" font-size="70.4" fill="#000000" transform="matrix(1.00, 0.00, -0.00, -1.00, 804.1, 17.0)">n</text></g></svg>