<?xml version="1.0" encoding="UTF-8" standalone="no"?><svg xmlns="http://www.w3.org/2000/svg" xmlns:xlink="http://www.w3.org/1999/xlink" clip-rule="evenodd" stroke-miterlimit="4.00" viewBox="0 0 383 76"><desc>SVG generated by Keynote</desc><defs></defs><g transform="matrix(1.00, 0.00, -0.00, -1.00, 0.0, 76.0)"><text xml:space="preserve" font-family="Helvetica-Light" font-size="16.0" fill="#000000" transform="matrix(1.00, 0.00, -0.00, -1.00, 2.0, 62.0)">I</text><text xml:space="preserve" font-family="Helvetica-Light" font-size="16.0" fill="#000000" transform="matrix(1.00, 0.00, -0.00, -1.00, 6.4, 62.0)">m</text><text xml:space="preserve" font-family="Helvetica-Light" font-size="16.0" fill="#000000" transform="matrix(1.00, 0.00, -0.00, -1.00, 19.8, 62.0)">m</text><text xml:space="preserve" font-family="Helvetica-Light" font-size="16.0" fill="#000000" transform="matrix(1.00, 0.00, -0.00, -1.00, 33.1, 62.0)">u</text><text xml:space="preserve" font-family="Helvetica-Light" font-size="16.0" fill="#000000" transform="matrix(1.00, 0.00, -0.00, -1.00, 42.0, 62.0)">t</text><text xml:space="preserve" font-family="Helvetica-Light" font-size="16.0" fill="#000000" transform="matrix(1.00, 0.00, -0.00, -1.00, 46.4, 62.0)">a</text><text xml:space="preserve" font-family="Helvetica-Light" font-size="16.0" fill="#000000" transform="matrix(1.00, 0.00, -0.00, -1.00, 55.3, 62.0)">b</text><text xml:space="preserve" font-family="Helvetica-Light" font-size="16.0" fill="#000000" transform="matrix(1.00, 0.00, -0.00, -1.00, 65.1, 62.0)">l</text><text xml:space="preserve" font-family="Helvetica-Light" font-size="16.0" fill="#000000" transform="matrix(1.00, 0.00, -0.00, -1.00, 68.7, 62.0)">e</text><text xml:space="preserve" font-family="Helvetica-Light" font-size="16.0" fill="#000000" transform="matrix(1.00, 0.00, -0.00, -1.00, 77.6, 62.0)">B</text><text xml:space="preserve" font-family="Helvetica-Light" font-size="16.0" fill="#000000" transform="matrix(1.00, 0.00, -0.00, -1.00, 88.2, 62.0)">a</text><text xml:space="preserve" font-family="Helvetica-Light" font-size="16.0" fill="#000000" transform="matrix(1.00, 0.00, -0.00, -1.00, 97.1, 62.0)">n</text><text xml:space="preserve" font-family="Helvetica-Light" font-size="16.0" fill="#000000" transform="matrix(1.00, 0.00, -0.00, -1.00, 106.0, 62.0)">k</text><text xml:space="preserve" font-family="Helvetica-Light" font-size="16.0" fill="#000000" transform="matrix(1.00, 0.00, -0.00, -1.00, 114.0, 62.0)">A</text><text xml:space="preserve" font-family="Helvetica-Light" font-size="16.0" fill="#000000" transform="matrix(1.00, 0.00, -0.00, -1.00, 124.7, 62.0)">c</text><text xml:space="preserve" font-family="Helvetica-Light" font-size="16.0" fill="#000000" transform="matrix(1.00, 0.00, -0.00, -1.00, 133.6, 62.0)">c</text><text xml:space="preserve" font-family="Helvetica-Light" font-size="16.0" fill="#000000" transform="matrix(1.00, 0.00, -0.00, -1.00, 142.5, 62.0)">o</text><text xml:space="preserve" font-family="Helvetica-Light" font-size="16.0" fill="#000000" transform="matrix(1.00, 0.00, -0.00, -1.00, 151.4, 62.0)">u</text><text xml:space="preserve" font-family="Helvetica-Light" font-size="16.0" fill="#000000" transform="matrix(1.00, 0.00, -0.00, -1.00, 160.3, 62.0)">n</text><text xml:space="preserve" font-family="Helvetica-Light" font-size="16.0" fill="#000000" transform="matrix(1.00, 0.00, -0.00, -1.00, 169.2, 62.0)">t</text><text xml:space="preserve" font-family="Helvetica-Light" font-size="16.0" fill="#000000" transform="matrix(1.00, 0.00, -0.00, -1.00, 173.6, 62.0)">{</text><text xml:space="preserve" font-family="Helvetica-Light" font-size="16.0" fill="#000000" transform="matrix(1.00, 0.00, -0.00, -1.00, 179.0, 62.0)">o</text><text xml:space="preserve" font-family="Helvetica-Light" font-size="16.0" fill="#000000" transform="matrix(1.00, 0.00, -0.00, -1.00, 187.9, 62.0)">w</text><text xml:space="preserve" font-family="Helvetica-Light" font-size="16.0" fill="#000000" transform="matrix(1.00, 0.00, -0.00, -1.00, 199.4, 62.0)">n</text><text xml:space="preserve" font-family="Helvetica-Light" font-size="16.0" fill="#000000" transform="matrix(1.00, 0.00, -0.00, -1.00, 208.3, 62.0)">e</text><text xml:space="preserve" font-family="Helvetica-Light" font-size="16.0" fill="#000000" transform="matrix(1.00, 0.00, -0.00, -1.00, 217.2, 62.0)">r</text><text xml:space="preserve" font-family="Helvetica-Light" font-size="16.0" fill="#000000" transform="matrix(1.00, 0.00, -0.00, -1.00, 222.5, 62.0)">=</text><text xml:space="preserve" font-family="Helvetica-Light" font-size="16.0" fill="#000000" transform="matrix(1.00, 0.00, -0.00, -1.00, 233.1, 62.0)">'</text><text xml:space="preserve" font-family="Helvetica-Light" font-size="16.0" fill="#000000" transform="matrix(1.00, 0.00, -0.00, -1.00, 236.6, 62.0)">B</text><text xml:space="preserve" font-family="Helvetica-Light" font-size="16.0" fill="#000000" transform="matrix(1.00, 0.00, -0.00, -1.00, 247.3, 62.0)">o</text><text xml:space="preserve" font-family="Helvetica-Light" font-size="16.0" fill="#000000" transform="matrix(1.00, 0.00, -0.00, -1.00, 256.2, 62.0)">b</text><text xml:space="preserve" font-family="Helvetica-Light" font-size="16.0" fill="#000000" transform="matrix(1.00, 0.00, -0.00, -1.00, 266.0, 62.0)">'</text><text xml:space="preserve" font-family="Helvetica-Light" font-size="16.0" fill="#000000" transform="matrix(1.00, 0.00, -0.00, -1.00, 269.5, 62.0)">,</text><text xml:space="preserve" font-family="Helvetica-Light" font-size="16.0" fill="#000000" transform="matrix(1.00, 0.00, -0.00, -1.00, 274.0, 62.0)"> </text><text xml:space="preserve" font-family="Helvetica-Light" font-size="16.0" fill="#000000" transform="matrix(1.00, 0.00, -0.00, -1.00, 278.4, 62.0)">b</text><text xml:space="preserve" font-family="Helvetica-Light" font-size="16.0" fill="#000000" transform="matrix(1.00, 0.00, -0.00, -1.00, 288.2, 62.0)">a</text><text xml:space="preserve" font-family="Helvetica-Light" font-size="16.0" fill="#000000" transform="matrix(1.00, 0.00, -0.00, -1.00, 297.1, 62.0)">l</text><text xml:space="preserve" font-family="Helvetica-Light" font-size="16.0" fill="#000000" transform="matrix(1.00, 0.00, -0.00, -1.00, 300.7, 62.0)">a</text><text xml:space="preserve" font-family="Helvetica-Light" font-size="16.0" fill="#000000" transform="matrix(1.00, 0.00, -0.00, -1.00, 309.6, 62.0)">n</text><text xml:space="preserve" font-family="Helvetica-Light" font-size="16.0" fill="#000000" transform="matrix(1.00, 0.00, -0.00, -1.00, 318.4, 62.0)">c</text><text xml:space="preserve" font-family="Helvetica-Light" font-size="16.0" fill="#000000" transform="matrix(1.00, 0.00, -0.00, -1.00, 327.3, 62.0)">e</text><text xml:space="preserve" font-family="Helvetica-Light" font-size="16.0" fill="#000000" transform="matrix(1.00, 0.00, -0.00, -1.00, 336.2, 62.0)">=</text><text xml:space="preserve" font-family="Helvetica-Light" font-size="16.0" fill="#000000" transform="matrix(1.00, 0.00, -0.00, -1.00, 346.8, 62.0)">6</text><text xml:space="preserve" font-family="Helvetica-Light" font-size="16.0" fill="#000000" transform="matrix(1.00, 0.00, -0.00, -1.00, 355.7, 62.0)">0</text><text xml:space="preserve" font-family="Helvetica-Light" font-size="16.0" fill="#000000" transform="matrix(1.00, 0.00, -0.00, -1.00, 364.6, 62.0)">}</text><text xml:space="preserve" font-family="Helvetica-Light" font-size="16.0" fill="#000000" transform="matrix(1.00, 0.00, -0.00, -1.00, 369.9, 62.0)"> </text><text xml:space="preserve" font-family="Helvetica-Light" font-size="16.0" fill="#000000" transform="matrix(1.00, 0.00, -0.00, -1.00, 2.0, 43.0)">I</text><text xml:space="preserve" font-family="Helvetica-Light" font-size="16.0" fill="#000000" transform="matrix(1.00, 0.00, -0.00, -1.00, 6.4, 43.0)">m</text><text xml:space="preserve" font-family="Helvetica-Light" font-size="16.0" fill="#000000" transform="matrix(1.00, 0.00, -0.00, -1.00, 19.8, 43.0)">m</text><text xml:space="preserve" font-family="Helvetica-Light" font-size="16.0" fill="#000000" transform="matrix(1.00, 0.00, -0.00, -1.00, 33.1, 43.0)">u</text><text xml:space="preserve" font-family="Helvetica-Light" font-size="16.0" fill="#000000" transform="matrix(1.00, 0.00, -0.00, -1.00, 42.0, 43.0)">t</text><text xml:space="preserve" font-family="Helvetica-Light" font-size="16.0" fill="#000000" transform="matrix(1.00, 0.00, -0.00, -1.00, 46.4, 43.0)">a</text><text xml:space="preserve" font-family="Helvetica-Light" font-size="16.0" fill="#000000" transform="matrix(1.00, 0.00, -0.00, -1.00, 55.3, 43.0)">b</text><text xml:space="preserve" font-family="Helvetica-Light" font-size="16.0" fill="#000000" transform="matrix(1.00, 0.00, -0.00, -1.00, 65.1, 43.0)">l</text><text xml:space="preserve" font-family="Helvetica-Light" font-size="16.0" fill="#000000" transform="matrix(1.00, 0.00, -0.00, -1.00, 68.7, 43.0)">e</text><text xml:space="preserve" font-family="Helvetica-Light" font-size="16.0" fill="#000000" transform="matrix(1.00, 0.00, -0.00, -1.00, 77.6, 43.0)">B</text><text xml:space="preserve" font-family="Helvetica-Light" font-size="16.0" fill="#000000" transform="matrix(1.00, 0.00, -0.00, -1.00, 88.2, 43.0)">a</text><text xml:space="preserve" font-family="Helvetica-Light" font-size="16.0" fill="#000000" transform="matrix(1.00, 0.00, -0.00, -1.00, 97.1, 43.0)">n</text><text xml:space="preserve" font-family="Helvetica-Light" font-size="16.0" fill="#000000" transform="matrix(1.00, 0.00, -0.00, -1.00, 106.0, 43.0)">k</text><text xml:space="preserve" font-family="Helvetica-Light" font-size="16.0" fill="#000000" transform="matrix(1.00, 0.00, -0.00, -1.00, 114.0, 43.0)">A</text><text xml:space="preserve" font-family="Helvetica-Light" font-size="16.0" fill="#000000" transform="matrix(1.00, 0.00, -0.00, -1.00, 124.7, 43.0)">c</text><text xml:space="preserve" font-family="Helvetica-Light" font-size="16.0" fill="#000000" transform="matrix(1.00, 0.00, -0.00, -1.00, 133.6, 43.0)">c</text><text xml:space="preserve" font-family="Helvetica-Light" font-size="16.0" fill="#000000" transform="matrix(1.00, 0.00, -0.00, -1.00, 142.5, 43.0)">o</text><text xml:space="preserve" font-family="Helvetica-Light" font-size="16.0" fill="#000000" transform="matrix(1.00, 0.00, -0.00, -1.00, 151.4, 43.0)">u</text><text xml:space="preserve" font-family="Helvetica-Light" font-size="16.0" fill="#000000" transform="matrix(1.00, 0.00, -0.00, -1.00, 160.3, 43.0)">n</text><text xml:space="preserve" font-family="Helvetica-Light" font-size="16.0" fill="#000000" transform="matrix(1.00, 0.00, -0.00, -1.00, 169.2, 43.0)">t</text><text xml:space="preserve" font-family="Helvetica-Light" font-size="16.0" fill="#000000" transform="matrix(1.00, 0.00, -0.00, -1.00, 173.6, 43.0)">{</text><text xml:space="preserve" font-family="Helvetica-Light" font-size="16.0" fill="#000000" transform="matrix(1.00, 0.00, -0.00, -1.00, 179.0, 43.0)">o</text><text xml:space="preserve" font-family="Helvetica-Light" font-size="16.0" fill="#000000" transform="matrix(1.00, 0.00, -0.00, -1.00, 187.9, 43.0)">w</text><text xml:space="preserve" font-family="Helvetica-Light" font-size="16.0" fill="#000000" transform="matrix(1.00, 0.00, -0.00, -1.00, 199.4, 43.0)">n</text><text xml:space="preserve" font-family="Helvetica-Light" font-size="16.0" fill="#000000" transform="matrix(1.00, 0.00, -0.00, -1.00, 208.3, 43.0)">e</text><text xml:space="preserve" font-family="Helvetica-Light" font-size="16.0" fill="#000000" transform="matrix(1.00, 0.00, -0.00, -1.00, 217.2, 43.0)">r</text><text xml:space="preserve" font-family="Helvetica-Light" font-size="16.0" fill="#000000" transform="matrix(1.00, 0.00, -0.00, -1.00, 222.5, 43.0)">=</text><text xml:space="preserve" font-family="Helvetica-Light" font-size="16.0" fill="#000000" transform="matrix(1.00, 0.00, -0.00, -1.00, 233.1, 43.0)">'</text><text xml:space="preserve" font-family="Helvetica-Light" font-size="16.0" fill="#000000" transform="matrix(1.00, 0.00, -0.00, -1.00, 236.6, 43.0)">S</text><text xml:space="preserve" font-family="Helvetica-Light" font-size="16.0" fill="#000000" transform="matrix(1.00, 0.00, -0.00, -1.00, 246.4, 43.0)">a</text><text xml:space="preserve" font-family="Helvetica-Light" font-size="16.0" fill="#000000" transform="matrix(1.00, 0.00, -0.00, -1.00, 255.3, 43.0)">m</text><text xml:space="preserve" font-family="Helvetica-Light" font-size="16.0" fill="#000000" transform="matrix(1.00, 0.00, -0.00, -1.00, 268.6, 43.0)">'</text><text xml:space="preserve" font-family="Helvetica-Light" font-size="16.0" fill="#000000" transform="matrix(1.00, 0.00, -0.00, -1.00, 272.2, 43.0)">,</text><text xml:space="preserve" font-family="Helvetica-Light" font-size="16.0" fill="#000000" transform="matrix(1.00, 0.00, -0.00, -1.00, 276.6, 43.0)"> </text><text xml:space="preserve" font-family="Helvetica-Light" font-size="16.0" fill="#000000" transform="matrix(1.00, 0.00, -0.00, -1.00, 281.1, 43.0)">b</text><text xml:space="preserve" font-family="Helvetica-Light" font-size="16.0" fill="#000000" transform="matrix(1.00, 0.00, -0.00, -1.00, 290.9, 43.0)">a</text><text xml:space="preserve" font-family="Helvetica-Light" font-size="16.0" fill="#000000" transform="matrix(1.00, 0.00, -0.00, -1.00, 299.8, 43.0)">l</text><text xml:space="preserve" font-family="Helvetica-Light" font-size="16.0" fill="#000000" transform="matrix(1.00, 0.00, -0.00, -1.00, 303.3, 43.0)">a</text><text xml:space="preserve" font-family="Helvetica-Light" font-size="16.0" fill="#000000" transform="matrix(1.00, 0.00, -0.00, -1.00, 312.2, 43.0)">n</text><text xml:space="preserve" font-family="Helvetica-Light" font-size="16.0" fill="#000000" transform="matrix(1.00, 0.00, -0.00, -1.00, 321.1, 43.0)">c</text><text xml:space="preserve" font-family="Helvetica-Light" font-size="16.0" fill="#000000" transform="matrix(1.00, 0.00, -0.00, -1.00, 330.0, 43.0)">e</text><text xml:space="preserve" font-family="Helvetica-Light" font-size="16.0" fill="#000000" transform="matrix(1.00, 0.00, -0.00, -1.00, 338.9, 43.0)">=</text><text xml:space="preserve" font-family="Helvetica-Light" font-size="16.0" fill="#000000" transform="matrix(1.00, 0.00, -0.00, -1.00, 349.5, 43.0)">1</text><text xml:space="preserve" font-family="Helvetica-Light" font-size="16.0" fill="#000000" transform="matrix(1.00, 0.00, -0.00, -1.00, 358.4, 43.0)">4</text><text xml:space="preserve" font-family="Helvetica-Light" font-size="16.0" fill="#000000" transform="matrix(1.00, 0.00, -0.00, -1.00, 367.2, 43.0)">0</text><text xml:space="preserve" font-family="Helvetica-Light" font-size="16.0" fill="#000000" transform="matrix(1.00, 0.00, -0.00, -1.00, 376.1, 43.0)">}</text><text xml:space="preserve" font-family="Helvetica-Light" font-size="16.0" fill="#000000" transform="matrix(1.00, 0.00, -0.00, -1.00, 381.5, 43.0)"> </text><text xml:space="preserve" font-family="Helvetica-Light" font-size="16.0" fill="#000000" transform="matrix(1.00, 0.00, -0.00, -1.00, 2.0, 24.0)">v</text><text xml:space="preserve" font-family="Helvetica-Light" font-size="16.0" fill="#000000" transform="matrix(1.00, 0.00, -0.00, -1.00, 10.0, 24.0)">a</text><text xml:space="preserve" font-family="Helvetica-Light" font-size="16.0" fill="#000000" transform="matrix(1.00, 0.00, -0.00, -1.00, 18.9, 24.0)">l</text><text xml:space="preserve" font-family="Helvetica-Light" font-size="16.0" fill="#000000" transform="matrix(1.00, 0.00, -0.00, -1.00, 22.4, 24.0)">u</text><text xml:space="preserve" font-family="Helvetica-Light" font-size="16.0" fill="#000000" transform="matrix(1.00, 0.00, -0.00, -1.00, 31.3, 24.0)">e</text><text xml:space="preserve" font-family="Helvetica-Light" font-size="16.0" fill="#000000" transform="matrix(1.00, 0.00, -0.00, -1.00, 40.2, 24.0)">s</text><text xml:space="preserve" font-family="Helvetica-Light" font-size="16.0" fill="#000000" transform="matrix(1.00, 0.00, -0.00, -1.00, 48.2, 24.0)">.</text><text xml:space="preserve" font-family="Helvetica-Light" font-size="16.0" fill="#000000" transform="matrix(1.00, 0.00, -0.00, -1.00, 52.7, 24.0)">e</text><text xml:space="preserve" font-family="Helvetica-Light" font-size="16.0" fill="#000000" transform="matrix(1.00, 0.00, -0.00, -1.00, 61.6, 24.0)">x</text><text xml:space="preserve" font-family="Helvetica-Light" font-size="16.0" fill="#000000" transform="matrix(1.00, 0.00, -0.00, -1.00, 69.6, 24.0)">a</text><text xml:space="preserve" font-family="Helvetica-Light" font-size="16.0" fill="#000000" transform="matrix(1.00, 0.00, -0.00, -1.00, 78.5, 24.0)">m</text><text xml:space="preserve" font-family="Helvetica-Light" font-size="16.0" fill="#000000" transform="matrix(1.00, 0.00, -0.00, -1.00, 91.8, 24.0)">p</text><text xml:space="preserve" font-family="Helvetica-Light" font-size="16.0" fill="#000000" transform="matrix(1.00, 0.00, -0.00, -1.00, 101.6, 24.0)">l</text><text xml:space="preserve" font-family="Helvetica-Light" font-size="16.0" fill="#000000" transform="matrix(1.00, 0.00, -0.00, -1.00, 105.1, 24.0)">e</text><text xml:space="preserve" font-family="Helvetica-Light" font-size="16.0" fill="#000000" transform="matrix(1.00, 0.00, -0.00, -1.00, 114.0, 24.0)">s</text><text xml:space="preserve" font-family="Helvetica-Light" font-size="16.0" fill="#000000" transform="matrix(1.00, 0.00, -0.00, -1.00, 122.0, 24.0)">.</text><text xml:space="preserve" font-family="Helvetica-Light" font-size="16.0" fill="#000000" transform="matrix(1.00, 0.00, -0.00, -1.00, 126.5, 24.0)">M</text><text xml:space="preserve" font-family="Helvetica-Light" font-size="16.0" fill="#000000" transform="matrix(1.00, 0.00, -0.00, -1.00, 139.8, 24.0)">u</text><text xml:space="preserve" font-family="Helvetica-Light" font-size="16.0" fill="#000000" transform="matrix(1.00, 0.00, -0.00, -1.00, 148.7, 24.0)">t</text><text xml:space="preserve" font-family="Helvetica-Light" font-size="16.0" fill="#000000" transform="matrix(1.00, 0.00, -0.00, -1.00, 153.2, 24.0)">a</text><text xml:space="preserve" font-family="Helvetica-Light" font-size="16.0" fill="#000000" transform="matrix(1.00, 0.00, -0.00, -1.00, 162.0, 24.0)">b</text><text xml:space="preserve" font-family="Helvetica-Light" font-size="16.0" fill="#000000" transform="matrix(1.00, 0.00, -0.00, -1.00, 171.8, 24.0)">l</text><text xml:space="preserve" font-family="Helvetica-Light" font-size="16.0" fill="#000000" transform="matrix(1.00, 0.00, -0.00, -1.00, 175.4, 24.0)">e</text><text xml:space="preserve" font-family="Helvetica-Light" font-size="16.0" fill="#000000" transform="matrix(1.00, 0.00, -0.00, -1.00, 184.3, 24.0)">B</text><text xml:space="preserve" font-family="Helvetica-Light" font-size="16.0" fill="#000000" transform="matrix(1.00, 0.00, -0.00, -1.00, 194.9, 24.0)">a</text><text xml:space="preserve" font-family="Helvetica-Light" font-size="16.0" fill="#000000" transform="matrix(1.00, 0.00, -0.00, -1.00, 203.8, 24.0)">n</text><text xml:space="preserve" font-family="Helvetica-Light" font-size="16.0" fill="#000000" transform="matrix(1.00, 0.00, -0.00, -1.00, 212.7, 24.0)">k</text><text xml:space="preserve" font-family="Helvetica-Light" font-size="16.0" fill="#000000" transform="matrix(1.00, 0.00, -0.00, -1.00, 220.7, 24.0)">A</text><text xml:space="preserve" font-family="Helvetica-Light" font-size="16.0" fill="#000000" transform="matrix(1.00, 0.00, -0.00, -1.00, 231.4, 24.0)">c</text><text xml:space="preserve" font-family="Helvetica-Light" font-size="16.0" fill="#000000" transform="matrix(1.00, 0.00, -0.00, -1.00, 240.3, 24.0)">c</text><text xml:space="preserve" font-family="Helvetica-Light" font-size="16.0" fill="#000000" transform="matrix(1.00, 0.00, -0.00, -1.00, 249.2, 24.0)">o</text><text xml:space="preserve" font-family="Helvetica-Light" font-size="16.0" fill="#000000" transform="matrix(1.00, 0.00, -0.00, -1.00, 258.1, 24.0)">u</text><text xml:space="preserve" font-family="Helvetica-Light" font-size="16.0" fill="#000000" transform="matrix(1.00, 0.00, -0.00, -1.00, 267.0, 24.0)">n</text><text xml:space="preserve" font-family="Helvetica-Light" font-size="16.0" fill="#000000" transform="matrix(1.00, 0.00, -0.00, -1.00, 275.9, 24.0)">t</text><text xml:space="preserve" font-family="Helvetica-Light" font-size="16.0" fill="#000000" transform="matrix(1.00, 0.00, -0.00, -1.00, 280.3, 24.0)">@</text><text xml:space="preserve" font-family="Helvetica-Light" font-size="16.0" fill="#000000" transform="matrix(1.00, 0.00, -0.00, -1.00, 293.1, 24.0)">2</text><text xml:space="preserve" font-family="Helvetica-Light" font-size="16.0" fill="#000000" transform="matrix(1.00, 0.00, -0.00, -1.00, 302.0, 24.0)">c</text><text xml:space="preserve" font-family="Helvetica-Light" font-size="16.0" fill="#000000" transform="matrix(1.00, 0.00, -0.00, -1.00, 310.9, 24.0)">7</text><text xml:space="preserve" font-family="Helvetica-Light" font-size="16.0" fill="#000000" transform="matrix(1.00, 0.00, -0.00, -1.00, 319.8, 24.0)">b</text><text xml:space="preserve" font-family="Helvetica-Light" font-size="16.0" fill="#000000" transform="matrix(1.00, 0.00, -0.00, -1.00, 329.6, 24.0)">8</text><text xml:space="preserve" font-family="Helvetica-Light" font-size="16.0" fill="#000000" transform="matrix(1.00, 0.00, -0.00, -1.00, 338.5, 24.0)">4</text><text xml:space="preserve" font-family="Helvetica-Light" font-size="16.0" fill="#000000" transform="matrix(1.00, 0.00, -0.00, -1.00, 347.4, 24.0)">d</text><text xml:space="preserve" font-family="Helvetica-Light" font-size="16.0" fill="#000000" transform="matrix(1.00, 0.00, -0.00, -1.00, 357.2, 24.0)">e</text><text xml:space="preserve" font-family="Helvetica-Light" font-size="16.0" fill="#000000" transform="matrix(1.00, 0.00, -0.00, -1.00, 366.1, 24.0)"> </text><text xml:space="preserve" font-family="Helvetica-Light" font-size="16.0" fill="#000000" transform="matrix(1.00, 0.00, -0.00, -1.00, 2.0, 5.0)">v</text><text xml:space="preserve" font-family="Helvetica-Light" font-size="16.0" fill="#000000" transform="matrix(1.00, 0.00, -0.00, -1.00, 10.0, 5.0)">a</text><text xml:space="preserve" font-family="Helvetica-Light" font-size="16.0" fill="#000000" transform="matrix(1.00, 0.00, -0.00, -1.00, 18.9, 5.0)">l</text><text xml:space="preserve" font-family="Helvetica-Light" font-size="16.0" fill="#000000" transform="matrix(1.00, 0.00, -0.00, -1.00, 22.4, 5.0)">u</text><text xml:space="preserve" font-family="Helvetica-Light" font-size="16.0" fill="#000000" transform="matrix(1.00, 0.00, -0.00, -1.00, 31.3, 5.0)">e</text><text xml:space="preserve" font-family="Helvetica-Light" font-size="16.0" fill="#000000" transform="matrix(1.00, 0.00, -0.00, -1.00, 40.2, 5.0)">s</text><text xml:space="preserve" font-family="Helvetica-Light" font-size="16.0" fill="#000000" transform="matrix(1.00, 0.00, -0.00, -1.00, 48.2, 5.0)">.</text><text xml:space="preserve" font-family="Helvetica-Light" font-size="16.0" fill="#000000" transform="matrix(1.00, 0.00, -0.00, -1.00, 52.7, 5.0)">e</text><text xml:space="preserve" font-family="Helvetica-Light" font-size="16.0" fill="#000000" transform="matrix(1.00, 0.00, -0.00, -1.00, 61.6, 5.0)">x</text><text xml:space="preserve" font-family="Helvetica-Light" font-size="16.0" fill="#000000" transform="matrix(1.00, 0.00, -0.00, -1.00, 69.6, 5.0)">a</text><text xml:space="preserve" font-family="Helvetica-Light" font-size="16.0" fill="#000000" transform="matrix(1.00, 0.00, -0.00, -1.00, 78.5, 5.0)">m</text><text xml:space="preserve" font-family="Helvetica-Light" font-size="16.0" fill="#000000" transform="matrix(1.00, 0.00, -0.00, -1.00, 91.8, 5.0)">p</text><text xml:space="preserve" font-family="Helvetica-Light" font-size="16.0" fill="#000000" transform="matrix(1.00, 0.00, -0.00, -1.00, 101.6, 5.0)">l</text><text xml:space="preserve" font-family="Helvetica-Light" font-size="16.0" fill="#000000" transform="matrix(1.00, 0.00, -0.00, -1.00, 105.1, 5.0)">e</text><text xml:space="preserve" font-family="Helvetica-Light" font-size="16.0" fill="#000000" transform="matrix(1.00, 0.00, -0.00, -1.00, 114.0, 5.0)">s</text><text xml:space="preserve" font-family="Helvetica-Light" font-size="16.0" fill="#000000" transform="matrix(1.00, 0.00, -0.00, -1.00, 122.0, 5.0)">.</text><text xml:space="preserve" font-family="Helvetica-Light" font-size="16.0" fill="#000000" transform="matrix(1.00, 0.00, -0.00, -1.00, 126.5, 5.0)">M</text><text xml:space="preserve" font-family="Helvetica-Light" font-size="16.0" fill="#000000" transform="matrix(1.00, 0.00, -0.00, -1.00, 139.8, 5.0)">u</text><text xml:space="preserve" font-family="Helvetica-Light" font-size="16.0" fill="#000000" transform="matrix(1.00, 0.00, -0.00, -1.00, 148.7, 5.0)">t</text><text xml:space="preserve" font-family="Helvetica-Light" font-size="16.0" fill="#000000" transform="matrix(1.00, 0.00, -0.00, -1.00, 153.2, 5.0)">a</text><text xml:space="preserve" font-family="Helvetica-Light" font-size="16.0" fill="#000000" transform="matrix(1.00, 0.00, -0.00, -1.00, 162.0, 5.0)">b</text><text xml:space="preserve" font-family="Helvetica-Light" font-size="16.0" fill="#000000" transform="matrix(1.00, 0.00, -0.00, -1.00, 171.8, 5.0)">l</text><text xml:space="preserve" font-family="Helvetica-Light" font-size="16.0" fill="#000000" transform="matrix(1.00, 0.00, -0.00, -1.00, 175.4, 5.0)">e</text><text xml:space="preserve" font-family="Helvetica-Light" font-size="16.0" fill="#000000" transform="matrix(1.00, 0.00, -0.00, -1.00, 184.3, 5.0)">B</text><text xml:space="preserve" font-family="Helvetica-Light" font-size="16.0" fill="#000000" transform="matrix(1.00, 0.00, -0.00, -1.00, 194.9, 5.0)">a</text><text xml:space="preserve" font-family="Helvetica-Light" font-size="16.0" fill="#000000" transform="matrix(1.00, 0.00, -0.00, -1.00, 203.8, 5.0)">n</text><text xml:space="preserve" font-family="Helvetica-Light" font-size="16.0" fill="#000000" transform="matrix(1.00, 0.00, -0.00, -1.00, 212.7, 5.0)">k</text><text xml:space="preserve" font-family="Helvetica-Light" font-size="16.0" fill="#000000" transform="matrix(1.00, 0.00, -0.00, -1.00, 220.7, 5.0)">A</text><text xml:space="preserve" font-family="Helvetica-Light" font-size="16.0" fill="#000000" transform="matrix(1.00, 0.00, -0.00, -1.00, 231.4, 5.0)">c</text><text xml:space="preserve" font-family="Helvetica-Light" font-size="16.0" fill="#000000" transform="matrix(1.00, 0.00, -0.00, -1.00, 240.3, 5.0)">c</text><text xml:space="preserve" font-family="Helvetica-Light" font-size="16.0" fill="#000000" transform="matrix(1.00, 0.00, -0.00, -1.00, 249.2, 5.0)">o</text><text xml:space="preserve" font-family="Helvetica-Light" font-size="16.0" fill="#000000" transform="matrix(1.00, 0.00, -0.00, -1.00, 258.1, 5.0)">u</text><text xml:space="preserve" font-family="Helvetica-Light" font-size="16.0" fill="#000000" transform="matrix(1.00, 0.00, -0.00, -1.00, 267.0, 5.0)">n</text><text xml:space="preserve" font-family="Helvetica-Light" font-size="16.0" fill="#000000" transform="matrix(1.00, 0.00, -0.00, -1.00, 275.9, 5.0)">t</text><text xml:space="preserve" font-family="Helvetica-Light" font-size="16.0" fill="#000000" transform="matrix(1.00, 0.00, -0.00, -1.00, 280.3, 5.0)">@</text><text xml:space="preserve" font-family="Helvetica-Light" font-size="16.0" fill="#000000" transform="matrix(1.00, 0.00, -0.00, -1.00, 293.1, 5.0)">3</text><text xml:space="preserve" font-family="Helvetica-Light" font-size="16.0" fill="#000000" transform="matrix(1.00, 0.00, -0.00, -1.00, 302.0, 5.0)">f</text><text xml:space="preserve" font-family="Helvetica-Light" font-size="16.0" fill="#000000" transform="matrix(1.00, 0.00, -0.00, -1.00, 306.5, 5.0)">e</text><text xml:space="preserve" font-family="Helvetica-Light" font-size="16.0" fill="#000000" transform="matrix(1.00, 0.00, -0.00, -1.00, 315.4, 5.0)">e</text><text xml:space="preserve" font-family="Helvetica-Light" font-size="16.0" fill="#000000" transform="matrix(1.00, 0.00, -0.00, -1.00, 324.3, 5.0)">7</text><text xml:space="preserve" font-family="Helvetica-Light" font-size="16.0" fill="#000000" transform="matrix(1.00, 0.00, -0.00, -1.00, 333.2, 5.0)">3</text><text xml:space="preserve" font-family="Helvetica-Light" font-size="16.0" fill="#000000" transform="matrix(1.00, 0.00, -0.00, -1.00, 342.1, 5.0)">3</text><text xml:space="preserve" font-family="Helvetica-Light" font-size="16.0" fill="#000000" transform="matrix(1.00, 0.00, -0.00, -1.00, 351.0, 5.0)">d</text><text xml:space="preserve" font-family="Helvetica-Light" font-size="16.0" fill="#000000" transform="matrix(1.00, 0.00, -0.00, -1.00, 360.7, 5.0)"> </text></g></svg>