<?xml version="1.0" encoding="UTF-8" standalone="no"?><svg xmlns="http://www.w3.org/2000/svg" xmlns:xlink="http://www.w3.org/1999/xlink" clip-rule="evenodd" stroke-miterlimit="4.00" viewBox="0 0 1024 768"><desc>SVG generated by Keynote</desc><defs></defs><g transform="matrix(1.00, 0.00, -0.00, -1.00, 0.0, 768.0)"><path d="M 0.0 768.0 L 1024.0 768.0 L 1024.0 0.0 L 0.0 0.0 Z M 0.0 768.0 " fill="#FEFFFF"></path><text xml:space="preserve" font-family="Helvetica-Light" font-size="80.0" fill="#000000" transform="matrix(1.00, 0.00, -0.00, -1.00, 277.0, 618.0)">W</text><text xml:space="preserve" font-family="Helvetica-Light" font-size="80.0" fill="#000000" transform="matrix(1.00, 0.00, -0.00, -1.00, 348.1, 618.0)">h</text><text xml:space="preserve" font-family="Helvetica-Light" font-size="80.0" fill="#000000" transform="matrix(1.00, 0.00, -0.00, -1.00, 392.6, 618.0)">y</text><text xml:space="preserve" font-family="Helvetica-Light" font-size="80.0" fill="#000000" transform="matrix(1.00, 0.00, -0.00, -1.00, 432.6, 618.0)"> </text><text xml:space="preserve" font-family="Helvetica-Light" font-size="80.0" fill="#000000" transform="matrix(1.00, 0.00, -0.00, -1.00, 454.8, 618.0)">C</text><text xml:space="preserve" font-family="Helvetica-Light" font-size="80.0" fill="#000000" transform="matrix(1.00, 0.00, -0.00, -1.00, 512.6, 618.0)">l</text><text xml:space="preserve" font-family="Helvetica-Light" font-size="80.0" fill="#000000" transform="matrix(1.00, 0.00, -0.00, -1.00, 530.4, 618.0)">o</text><text xml:space="preserve" font-family="Helvetica-Light" font-size="80.0" fill="#000000" transform="matrix(1.00, 0.00, -0.00, -1.00, 574.8, 618.0)">j</text><text xml:space="preserve" font-family="Helvetica-Light" font-size="80.0" fill="#000000" transform="matrix(1.00, 0.00, -0.00, -1.00, 592.6, 618.0)">u</text><text xml:space="preserve" font-family="Helvetica-Light" font-size="80.0" fill="#000000" transform="matrix(1.00, 0.00, -0.00, -1.00, 637.1, 618.0)">r</text><text xml:space="preserve" font-family="Helvetica-Light" font-size="80.0" fill="#000000" transform="matrix(1.00, 0.00, -0.00, -1.00, 662.3, 618.0)">e</text><text xml:space="preserve" font-family="Helvetica-Light" font-size="80.0" fill="#000000" transform="matrix(1.00, 0.00, -0.00, -1.00, 706.8, 618.0)">?</text><text xml:space="preserve" font-family="Helvetica-Light" font-size="23.8" fill="#000000" transform="matrix(1.00, 0.00, -0.00, -1.00, 79.0, 529.0)">•</text><text xml:space="preserve" font-family="Helvetica-Light" font-size="31.7" fill="#000000" transform="matrix(1.00, 0.00, -0.00, -1.00, 110.0, 526.0)">F</text><text xml:space="preserve" font-family="Helvetica-Light" font-size="31.7" fill="#000000" transform="matrix(1.00, 0.00, -0.00, -1.00, 127.6, 526.0)">u</text><text xml:space="preserve" font-family="Helvetica-Light" font-size="31.7" fill="#000000" transform="matrix(1.00, 0.00, -0.00, -1.00, 145.2, 526.0)">n</text><text xml:space="preserve" font-family="Helvetica-Light" font-size="31.7" fill="#000000" transform="matrix(1.00, 0.00, -0.00, -1.00, 162.8, 526.0)">c</text><text xml:space="preserve" font-family="Helvetica-Light" font-size="31.7" fill="#000000" transform="matrix(1.00, 0.00, -0.00, -1.00, 180.5, 526.0)">t</text><text xml:space="preserve" font-family="Helvetica-Light" font-size="31.7" fill="#000000" transform="matrix(1.00, 0.00, -0.00, -1.00, 189.3, 526.0)">i</text><text xml:space="preserve" font-family="Helvetica-Light" font-size="31.7" fill="#000000" transform="matrix(1.00, 0.00, -0.00, -1.00, 196.3, 526.0)">o</text><text xml:space="preserve" font-family="Helvetica-Light" font-size="31.7" fill="#000000" transform="matrix(1.00, 0.00, -0.00, -1.00, 213.9, 526.0)">n</text><text xml:space="preserve" font-family="Helvetica-Light" font-size="31.7" fill="#000000" transform="matrix(1.00, 0.00, -0.00, -1.00, 231.5, 526.0)">a</text><text xml:space="preserve" font-family="Helvetica-Light" font-size="31.7" fill="#000000" transform="matrix(1.00, 0.00, -0.00, -1.00, 249.1, 526.0)">l</text><text xml:space="preserve" font-family="Helvetica-Light" font-size="31.7" fill="#000000" transform="matrix(1.00, 0.00, -0.00, -1.00, 256.2, 526.0)"> </text><text xml:space="preserve" font-family="Helvetica-Light" font-size="31.7" fill="#000000" transform="matrix(1.00, 0.00, -0.00, -1.00, 265.0, 526.0)">(</text><text xml:space="preserve" font-family="Helvetica-Light" font-size="31.7" fill="#000000" transform="matrix(1.00, 0.00, -0.00, -1.00, 275.5, 526.0)">i</text><text xml:space="preserve" font-family="Helvetica-Light" font-size="31.7" fill="#000000" transform="matrix(1.00, 0.00, -0.00, -1.00, 282.6, 526.0)">n</text><text xml:space="preserve" font-family="Helvetica-Light" font-size="31.7" fill="#000000" transform="matrix(1.00, 0.00, -0.00, -1.00, 300.2, 526.0)"> </text><text xml:space="preserve" font-family="Helvetica-Light" font-size="31.7" fill="#000000" transform="matrix(1.00, 0.00, -0.00, -1.00, 309.0, 526.0)">t</text><text xml:space="preserve" font-family="Helvetica-Light" font-size="31.7" fill="#000000" transform="matrix(1.00, 0.00, -0.00, -1.00, 317.8, 526.0)">h</text><text xml:space="preserve" font-family="Helvetica-Light" font-size="31.7" fill="#000000" transform="matrix(1.00, 0.00, -0.00, -1.00, 335.4, 526.0)">e</text><text xml:space="preserve" font-family="Helvetica-Light" font-size="31.7" fill="#000000" transform="matrix(1.00, 0.00, -0.00, -1.00, 353.0, 526.0)"> </text><text xml:space="preserve" font-family="Helvetica-Light" font-size="31.7" fill="#000000" transform="matrix(1.00, 0.00, -0.00, -1.00, 361.8, 526.0)">l</text><text xml:space="preserve" font-family="Helvetica-Light" font-size="31.7" fill="#000000" transform="matrix(1.00, 0.00, -0.00, -1.00, 368.9, 526.0)">a</text><text xml:space="preserve" font-family="Helvetica-Light" font-size="31.7" fill="#000000" transform="matrix(1.00, 0.00, -0.00, -1.00, 386.5, 526.0)">r</text><text xml:space="preserve" font-family="Helvetica-Light" font-size="31.7" fill="#000000" transform="matrix(1.00, 0.00, -0.00, -1.00, 397.0, 526.0)">g</text><text xml:space="preserve" font-family="Helvetica-Light" font-size="31.7" fill="#000000" transform="matrix(1.00, 0.00, -0.00, -1.00, 416.4, 526.0)">e</text><text xml:space="preserve" font-family="Helvetica-Light" font-size="31.7" fill="#000000" transform="matrix(1.00, 0.00, -0.00, -1.00, 434.0, 526.0)">)</text><text xml:space="preserve" font-family="Helvetica-Light" font-size="31.7" fill="#000000" transform="matrix(1.00, 0.00, -0.00, -1.00, 444.5, 526.0)"> </text><text xml:space="preserve" font-family="Helvetica-Light" font-size="23.8" fill="#000000" transform="matrix(1.00, 0.00, -0.00, -1.00, 79.0, 455.0)">•</text><text xml:space="preserve" font-family="Helvetica-Light" font-size="31.7" fill="#000000" transform="matrix(1.00, 0.00, -0.00, -1.00, 110.0, 452.0)">D</text><text xml:space="preserve" font-family="Helvetica-Light" font-size="31.7" fill="#000000" transform="matrix(1.00, 0.00, -0.00, -1.00, 132.9, 452.0)">a</text><text xml:space="preserve" font-family="Helvetica-Light" font-size="31.7" fill="#000000" transform="matrix(1.00, 0.00, -0.00, -1.00, 150.5, 452.0)">t</text><text xml:space="preserve" font-family="Helvetica-Light" font-size="31.7" fill="#000000" transform="matrix(1.00, 0.00, -0.00, -1.00, 159.3, 452.0)">a</text><text xml:space="preserve" font-family="Helvetica-Light" font-size="31.7" fill="#000000" transform="matrix(1.00, 0.00, -0.00, -1.00, 176.9, 452.0)"> </text><text xml:space="preserve" font-family="Helvetica-Light" font-size="31.7" fill="#000000" transform="matrix(1.00, 0.00, -0.00, -1.00, 185.7, 452.0)">v</text><text xml:space="preserve" font-family="Helvetica-Light" font-size="31.7" fill="#000000" transform="matrix(1.00, 0.00, -0.00, -1.00, 201.6, 452.0)">s</text><text xml:space="preserve" font-family="Helvetica-Light" font-size="31.7" fill="#000000" transform="matrix(1.00, 0.00, -0.00, -1.00, 217.4, 452.0)">.</text><text xml:space="preserve" font-family="Helvetica-Light" font-size="31.7" fill="#000000" transform="matrix(1.00, 0.00, -0.00, -1.00, 226.2, 452.0)"> </text><text xml:space="preserve" font-family="Helvetica-Light" font-size="31.7" fill="#000000" transform="matrix(1.00, 0.00, -0.00, -1.00, 235.0, 452.0)">O</text><text xml:space="preserve" font-family="Helvetica-Light" font-size="31.7" fill="#000000" transform="matrix(1.00, 0.00, -0.00, -1.00, 259.7, 452.0)">b</text><text xml:space="preserve" font-family="Helvetica-Light" font-size="31.7" fill="#000000" transform="matrix(1.00, 0.00, -0.00, -1.00, 279.0, 452.0)">j</text><text xml:space="preserve" font-family="Helvetica-Light" font-size="31.7" fill="#000000" transform="matrix(1.00, 0.00, -0.00, -1.00, 286.0, 452.0)">e</text><text xml:space="preserve" font-family="Helvetica-Light" font-size="31.7" fill="#000000" transform="matrix(1.00, 0.00, -0.00, -1.00, 303.7, 452.0)">c</text><text xml:space="preserve" font-family="Helvetica-Light" font-size="31.7" fill="#000000" transform="matrix(1.00, 0.00, -0.00, -1.00, 321.3, 452.0)">t</text><text xml:space="preserve" font-family="Helvetica-Light" font-size="31.7" fill="#000000" transform="matrix(1.00, 0.00, -0.00, -1.00, 330.1, 452.0)">s</text><text xml:space="preserve" font-family="Helvetica-Light" font-size="31.7" fill="#000000" transform="matrix(1.00, 0.00, -0.00, -1.00, 345.9, 452.0)"> </text><text xml:space="preserve" font-family="Helvetica-Light" font-size="23.8" fill="#000000" transform="matrix(1.00, 0.00, -0.00, -1.00, 79.0, 381.0)">•</text><text xml:space="preserve" font-family="Helvetica-Light" font-size="31.7" fill="#000000" transform="matrix(1.00, 0.00, -0.00, -1.00, 110.0, 378.0)">D</text><text xml:space="preserve" font-family="Helvetica-Light" font-size="31.7" fill="#000000" transform="matrix(1.00, 0.00, -0.00, -1.00, 132.9, 378.0)">y</text><text xml:space="preserve" font-family="Helvetica-Light" font-size="31.7" fill="#000000" transform="matrix(1.00, 0.00, -0.00, -1.00, 148.7, 378.0)">n</text><text xml:space="preserve" font-family="Helvetica-Light" font-size="31.7" fill="#000000" transform="matrix(1.00, 0.00, -0.00, -1.00, 166.3, 378.0)">a</text><text xml:space="preserve" font-family="Helvetica-Light" font-size="31.7" fill="#000000" transform="matrix(1.00, 0.00, -0.00, -1.00, 183.9, 378.0)">m</text><text xml:space="preserve" font-family="Helvetica-Light" font-size="31.7" fill="#000000" transform="matrix(1.00, 0.00, -0.00, -1.00, 210.3, 378.0)">i</text><text xml:space="preserve" font-family="Helvetica-Light" font-size="31.7" fill="#000000" transform="matrix(1.00, 0.00, -0.00, -1.00, 217.4, 378.0)">c</text><text xml:space="preserve" font-family="Helvetica-Light" font-size="31.7" fill="#000000" transform="matrix(1.00, 0.00, -0.00, -1.00, 235.0, 378.0)"> </text><text xml:space="preserve" font-family="Helvetica-Light" font-size="23.8" fill="#000000" transform="matrix(1.00, 0.00, -0.00, -1.00, 79.0, 307.1)">•</text><text xml:space="preserve" font-family="Helvetica-Light" font-size="31.7" fill="#000000" transform="matrix(1.00, 0.00, -0.00, -1.00, 110.0, 304.0)">I</text><text xml:space="preserve" font-family="Helvetica-Light" font-size="31.7" fill="#000000" transform="matrix(1.00, 0.00, -0.00, -1.00, 118.8, 304.0)">n</text><text xml:space="preserve" font-family="Helvetica-Light" font-size="31.7" fill="#000000" transform="matrix(1.00, 0.00, -0.00, -1.00, 136.4, 304.0)">t</text><text xml:space="preserve" font-family="Helvetica-Light" font-size="31.7" fill="#000000" transform="matrix(1.00, 0.00, -0.00, -1.00, 145.2, 304.0)">e</text><text xml:space="preserve" font-family="Helvetica-Light" font-size="31.7" fill="#000000" transform="matrix(1.00, 0.00, -0.00, -1.00, 162.8, 304.0)">r</text><text xml:space="preserve" font-family="Helvetica-Light" font-size="31.7" fill="#000000" transform="matrix(1.00, 0.00, -0.00, -1.00, 173.4, 304.0)">a</text><text xml:space="preserve" font-family="Helvetica-Light" font-size="31.7" fill="#000000" transform="matrix(1.00, 0.00, -0.00, -1.00, 191.0, 304.0)">c</text><text xml:space="preserve" font-family="Helvetica-Light" font-size="31.7" fill="#000000" transform="matrix(1.00, 0.00, -0.00, -1.00, 208.6, 304.0)">t</text><text xml:space="preserve" font-family="Helvetica-Light" font-size="31.7" fill="#000000" transform="matrix(1.00, 0.00, -0.00, -1.00, 217.4, 304.0)">i</text><text xml:space="preserve" font-family="Helvetica-Light" font-size="31.7" fill="#000000" transform="matrix(1.00, 0.00, -0.00, -1.00, 224.5, 304.0)">v</text><text xml:space="preserve" font-family="Helvetica-Light" font-size="31.7" fill="#000000" transform="matrix(1.00, 0.00, -0.00, -1.00, 240.3, 304.0)">e</text><text xml:space="preserve" font-family="Helvetica-Light" font-size="31.7" fill="#000000" transform="matrix(1.00, 0.00, -0.00, -1.00, 257.9, 304.0)"> </text><text xml:space="preserve" font-family="Helvetica-Light" font-size="23.8" fill="#000000" transform="matrix(1.00, 0.00, -0.00, -1.00, 79.0, 233.1)">•</text><text xml:space="preserve" font-family="Helvetica-Light" font-size="31.7" fill="#000000" transform="matrix(1.00, 0.00, -0.00, -1.00, 110.0, 230.0)">H</text><text xml:space="preserve" font-family="Helvetica-Light" font-size="31.7" fill="#000000" transform="matrix(1.00, 0.00, -0.00, -1.00, 132.9, 230.0)">o</text><text xml:space="preserve" font-family="Helvetica-Light" font-size="31.7" fill="#000000" transform="matrix(1.00, 0.00, -0.00, -1.00, 150.5, 230.0)">m</text><text xml:space="preserve" font-family="Helvetica-Light" font-size="31.7" fill="#000000" transform="matrix(1.00, 0.00, -0.00, -1.00, 176.9, 230.0)">o</text><text xml:space="preserve" font-family="Helvetica-Light" font-size="31.7" fill="#000000" transform="matrix(1.00, 0.00, -0.00, -1.00, 194.5, 230.0)">i</text><text xml:space="preserve" font-family="Helvetica-Light" font-size="31.7" fill="#000000" transform="matrix(1.00, 0.00, -0.00, -1.00, 201.5, 230.0)">c</text><text xml:space="preserve" font-family="Helvetica-Light" font-size="31.7" fill="#000000" transform="matrix(1.00, 0.00, -0.00, -1.00, 219.1, 230.0)">o</text><text xml:space="preserve" font-family="Helvetica-Light" font-size="31.7" fill="#000000" transform="matrix(1.00, 0.00, -0.00, -1.00, 236.8, 230.0)">n</text><text xml:space="preserve" font-family="Helvetica-Light" font-size="31.7" fill="#000000" transform="matrix(1.00, 0.00, -0.00, -1.00, 254.4, 230.0)">i</text><text xml:space="preserve" font-family="Helvetica-Light" font-size="31.7" fill="#000000" transform="matrix(1.00, 0.00, -0.00, -1.00, 261.4, 230.0)">c</text><text xml:space="preserve" font-family="Helvetica-Light" font-size="31.7" fill="#000000" transform="matrix(1.00, 0.00, -0.00, -1.00, 279.0, 230.0)"> </text><text xml:space="preserve" font-family="Helvetica-Light" font-size="23.8" fill="#000000" transform="matrix(1.00, 0.00, -0.00, -1.00, 79.0, 159.2)">•</text><text xml:space="preserve" font-family="Helvetica-Light" font-size="31.7" fill="#000000" transform="matrix(1.00, 0.00, -0.00, -1.00, 110.0, 156.0)">H</text><text xml:space="preserve" font-family="Helvetica-Light" font-size="31.7" fill="#000000" transform="matrix(1.00, 0.00, -0.00, -1.00, 132.9, 156.0)">o</text><text xml:space="preserve" font-family="Helvetica-Light" font-size="31.7" fill="#000000" transform="matrix(1.00, 0.00, -0.00, -1.00, 150.5, 156.0)">s</text><text xml:space="preserve" font-family="Helvetica-Light" font-size="31.7" fill="#000000" transform="matrix(1.00, 0.00, -0.00, -1.00, 166.3, 156.0)">t</text><text xml:space="preserve" font-family="Helvetica-Light" font-size="31.7" fill="#000000" transform="matrix(1.00, 0.00, -0.00, -1.00, 175.1, 156.0)">e</text><text xml:space="preserve" font-family="Helvetica-Light" font-size="31.7" fill="#000000" transform="matrix(1.00, 0.00, -0.00, -1.00, 192.7, 156.0)">d</text><text xml:space="preserve" font-family="Helvetica-Light" font-size="31.7" fill="#000000" transform="matrix(1.00, 0.00, -0.00, -1.00, 212.1, 156.0)"> </text><text xml:space="preserve" font-family="Helvetica-Light" font-size="31.7" fill="#000000" transform="matrix(1.00, 0.00, -0.00, -1.00, 220.9, 156.0)">(</text><text xml:space="preserve" font-family="Helvetica-Light" font-size="31.7" fill="#000000" transform="matrix(1.00, 0.00, -0.00, -1.00, 231.5, 156.0)">J</text><text xml:space="preserve" font-family="Helvetica-Light" font-size="31.7" fill="#000000" transform="matrix(1.00, 0.00, -0.00, -1.00, 247.3, 156.0)">V</text><text xml:space="preserve" font-family="Helvetica-Light" font-size="31.7" fill="#000000" transform="matrix(1.00, 0.00, -0.00, -1.00, 266.7, 156.0)">M</text><text xml:space="preserve" font-family="Helvetica-Light" font-size="31.7" fill="#000000" transform="matrix(1.00, 0.00, -0.00, -1.00, 293.0, 156.0)">,</text><text xml:space="preserve" font-family="Helvetica-Light" font-size="31.7" fill="#000000" transform="matrix(1.00, 0.00, -0.00, -1.00, 301.9, 156.0)"> </text><text xml:space="preserve" font-family="Helvetica-Light" font-size="31.7" fill="#000000" transform="matrix(1.00, 0.00, -0.00, -1.00, 310.7, 156.0)">J</text><text xml:space="preserve" font-family="Helvetica-Light" font-size="31.7" fill="#000000" transform="matrix(1.00, 0.00, -0.00, -1.00, 326.5, 156.0)">a</text><text xml:space="preserve" font-family="Helvetica-Light" font-size="31.7" fill="#000000" transform="matrix(1.00, 0.00, -0.00, -1.00, 344.1, 156.0)">v</text><text xml:space="preserve" font-family="Helvetica-Light" font-size="31.7" fill="#000000" transform="matrix(1.00, 0.00, -0.00, -1.00, 360.0, 156.0)">a</text><text xml:space="preserve" font-family="Helvetica-Light" font-size="31.7" fill="#000000" transform="matrix(1.00, 0.00, -0.00, -1.00, 377.6, 156.0)">S</text><text xml:space="preserve" font-family="Helvetica-Light" font-size="31.7" fill="#000000" transform="matrix(1.00, 0.00, -0.00, -1.00, 396.9, 156.0)">c</text><text xml:space="preserve" font-family="Helvetica-Light" font-size="31.7" fill="#000000" transform="matrix(1.00, 0.00, -0.00, -1.00, 414.5, 156.0)">r</text><text xml:space="preserve" font-family="Helvetica-Light" font-size="31.7" fill="#000000" transform="matrix(1.00, 0.00, -0.00, -1.00, 425.1, 156.0)">i</text><text xml:space="preserve" font-family="Helvetica-Light" font-size="31.7" fill="#000000" transform="matrix(1.00, 0.00, -0.00, -1.00, 432.1, 156.0)">p</text><text xml:space="preserve" font-family="Helvetica-Light" font-size="31.7" fill="#000000" transform="matrix(1.00, 0.00, -0.00, -1.00, 451.5, 156.0)">t</text><text xml:space="preserve" font-family="Helvetica-Light" font-size="31.7" fill="#000000" transform="matrix(1.00, 0.00, -0.00, -1.00, 460.3, 156.0)">,</text><text xml:space="preserve" font-family="Helvetica-Light" font-size="31.7" fill="#000000" transform="matrix(1.00, 0.00, -0.00, -1.00, 469.1, 156.0)"> </text><text xml:space="preserve" font-family="Helvetica-Light" font-size="31.7" fill="#000000" transform="matrix(1.00, 0.00, -0.00, -1.00, 477.9, 156.0)">C</text><text xml:space="preserve" font-family="Helvetica-Light" font-size="31.7" fill="#000000" transform="matrix(1.00, 0.00, -0.00, -1.00, 500.8, 156.0)">L</text><text xml:space="preserve" font-family="Helvetica-Light" font-size="31.7" fill="#000000" transform="matrix(1.00, 0.00, -0.00, -1.00, 518.4, 156.0)">R</text><text xml:space="preserve" font-family="Helvetica-Light" font-size="31.7" fill="#000000" transform="matrix(1.00, 0.00, -0.00, -1.00, 539.5, 156.0)">)</text><text xml:space="preserve" font-family="Helvetica-Light" font-size="31.7" fill="#000000" transform="matrix(1.00, 0.00, -0.00, -1.00, 550.1, 156.0)"> </text><text xml:space="preserve" font-family="Helvetica-Light" font-size="23.8" fill="#000000" transform="matrix(1.00, 0.00, -0.00, -1.00, 79.0, 85.2)">•</text><text xml:space="preserve" font-family="Helvetica-Light" font-size="31.7" fill="#000000" transform="matrix(1.00, 0.00, -0.00, -1.00, 110.0, 83.0)">C</text><text xml:space="preserve" font-family="Helvetica-Light" font-size="31.7" fill="#000000" transform="matrix(1.00, 0.00, -0.00, -1.00, 132.9, 83.0)">l</text><text xml:space="preserve" font-family="Helvetica-Light" font-size="31.7" fill="#000000" transform="matrix(1.00, 0.00, -0.00, -1.00, 139.9, 83.0)">o</text><text xml:space="preserve" font-family="Helvetica-Light" font-size="31.7" fill="#000000" transform="matrix(1.00, 0.00, -0.00, -1.00, 157.5, 83.0)">j</text><text xml:space="preserve" font-family="Helvetica-Light" font-size="31.7" fill="#000000" transform="matrix(1.00, 0.00, -0.00, -1.00, 164.6, 83.0)">u</text><text xml:space="preserve" font-family="Helvetica-Light" font-size="31.7" fill="#000000" transform="matrix(1.00, 0.00, -0.00, -1.00, 182.2, 83.0)">r</text><text xml:space="preserve" font-family="Helvetica-Light" font-size="31.7" fill="#000000" transform="matrix(1.00, 0.00, -0.00, -1.00, 192.1, 83.0)">e</text><text xml:space="preserve" font-family="Helvetica-Light" font-size="31.7" fill="#000000" transform="matrix(1.00, 0.00, -0.00, -1.00, 209.8, 83.0)"> </text><text xml:space="preserve" font-family="Helvetica-Light" font-size="31.7" fill="#000000" transform="matrix(1.00, 0.00, -0.00, -1.00, 218.6, 83.0)">i</text><text xml:space="preserve" font-family="Helvetica-Light" font-size="31.7" fill="#000000" transform="matrix(1.00, 0.00, -0.00, -1.00, 225.6, 83.0)">s</text><text xml:space="preserve" font-family="Helvetica-Light" font-size="31.7" fill="#000000" transform="matrix(1.00, 0.00, -0.00, -1.00, 241.4, 83.0)"> </text><text xml:space="preserve" font-family="Helvetica-Light" font-size="31.7" fill="#000000" transform="matrix(1.00, 0.00, -0.00, -1.00, 250.2, 83.0)">f</text><text xml:space="preserve" font-family="Helvetica-Light" font-size="31.7" fill="#000000" transform="matrix(1.00, 0.00, -0.00, -1.00, 259.1, 83.0)">u</text><text xml:space="preserve" font-family="Helvetica-Light" font-size="31.7" fill="#000000" transform="matrix(1.00, 0.00, -0.00, -1.00, 276.7, 83.0)">n</text><text xml:space="preserve" font-family="Helvetica-Light" font-size="31.7" fill="#000000" transform="matrix(1.00, 0.00, -0.00, -1.00, 294.3, 83.0)">!</text></g></svg>