<?xml version="1.0" encoding="UTF-8" standalone="no"?><svg xmlns="http://www.w3.org/2000/svg" xmlns:xlink="http://www.w3.org/1999/xlink" clip-rule="evenodd" stroke-miterlimit="4.00" viewBox="0 0 1024 768"><desc>SVG generated by Keynote</desc><defs></defs><g transform="matrix(1.00, 0.00, -0.00, -1.00, 0.0, 768.0)"><path d="M 0.0 768.0 L 1024.0 768.0 L 1024.0 0.0 L 0.0 0.0 Z M 0.0 768.0 " fill="#FEFFFF"></path><text xml:space="preserve" font-family="Helvetica-Light" font-size="62.4" fill="#000000" transform="matrix(1.00, 0.00, -0.00, -1.00, 172.0, 472.0)">H</text><text xml:space="preserve" font-family="Helvetica-Light" font-size="62.4" fill="#000000" transform="matrix(1.00, 0.00, -0.00, -1.00, 217.1, 472.0)">o</text><text xml:space="preserve" font-family="Helvetica-Light" font-size="62.4" fill="#000000" transform="matrix(1.00, 0.00, -0.00, -1.00, 251.7, 472.0)">w</text><text xml:space="preserve" font-family="Helvetica-Light" font-size="62.4" fill="#000000" transform="matrix(1.00, 0.00, -0.00, -1.00, 296.8, 472.0)"> </text><text xml:space="preserve" font-family="Helvetica-Light" font-size="62.4" fill="#000000" transform="matrix(1.00, 0.00, -0.00, -1.00, 314.1, 472.0)">c</text><text xml:space="preserve" font-family="Helvetica-Light" font-size="62.4" fill="#000000" transform="matrix(1.00, 0.00, -0.00, -1.00, 348.8, 472.0)">a</text><text xml:space="preserve" font-family="Helvetica-Light" font-size="62.4" fill="#000000" transform="matrix(1.00, 0.00, -0.00, -1.00, 383.5, 472.0)">n</text><text xml:space="preserve" font-family="Helvetica-Light" font-size="62.4" fill="#000000" transform="matrix(1.00, 0.00, -0.00, -1.00, 418.2, 472.0)"> </text><text xml:space="preserve" font-family="Helvetica-Light" font-size="62.4" fill="#000000" transform="matrix(1.00, 0.00, -0.00, -1.00, 435.6, 472.0)">V</text><text xml:space="preserve" font-family="Helvetica-Light" font-size="62.4" fill="#000000" transform="matrix(1.00, 0.00, -0.00, -1.00, 470.3, 472.0)">a</text><text xml:space="preserve" font-family="Helvetica-Light" font-size="62.4" fill="#000000" transform="matrix(1.00, 0.00, -0.00, -1.00, 505.0, 472.0)">l</text><text xml:space="preserve" font-family="Helvetica-Light" font-size="62.4" fill="#000000" transform="matrix(1.00, 0.00, -0.00, -1.00, 518.8, 472.0)">u</text><text xml:space="preserve" font-family="Helvetica-Light" font-size="62.4" fill="#000000" transform="matrix(1.00, 0.00, -0.00, -1.00, 553.5, 472.0)">e</text><text xml:space="preserve" font-family="Helvetica-Light" font-size="62.4" fill="#000000" transform="matrix(1.00, 0.00, -0.00, -1.00, 588.2, 472.0)">-</text><text xml:space="preserve" font-family="Helvetica-Light" font-size="62.4" fill="#000000" transform="matrix(1.00, 0.00, -0.00, -1.00, 609.0, 472.0)">O</text><text xml:space="preserve" font-family="Helvetica-Light" font-size="62.4" fill="#000000" transform="matrix(1.00, 0.00, -0.00, -1.00, 657.5, 472.0)">r</text><text xml:space="preserve" font-family="Helvetica-Light" font-size="62.4" fill="#000000" transform="matrix(1.00, 0.00, -0.00, -1.00, 678.3, 472.0)">i</text><text xml:space="preserve" font-family="Helvetica-Light" font-size="62.4" fill="#000000" transform="matrix(1.00, 0.00, -0.00, -1.00, 692.2, 472.0)">e</text><text xml:space="preserve" font-family="Helvetica-Light" font-size="62.4" fill="#000000" transform="matrix(1.00, 0.00, -0.00, -1.00, 726.9, 472.0)">n</text><text xml:space="preserve" font-family="Helvetica-Light" font-size="62.4" fill="#000000" transform="matrix(1.00, 0.00, -0.00, -1.00, 761.6, 472.0)">t</text><text xml:space="preserve" font-family="Helvetica-Light" font-size="62.4" fill="#000000" transform="matrix(1.00, 0.00, -0.00, -1.00, 778.9, 472.0)">e</text><text xml:space="preserve" font-family="Helvetica-Light" font-size="62.4" fill="#000000" transform="matrix(1.00, 0.00, -0.00, -1.00, 813.6, 472.0)">d</text><text xml:space="preserve" font-family="Helvetica-Light" font-size="62.4" fill="#000000" transform="matrix(1.00, 0.00, -0.00, -1.00, 851.7, 472.0)"> </text><text xml:space="preserve" font-family="Helvetica-Light" font-size="62.4" fill="#000000" transform="matrix(1.00, 0.00, -0.00, -1.00, 127.0, 398.0)">P</text><text xml:space="preserve" font-family="Helvetica-Light" font-size="62.4" fill="#000000" transform="matrix(1.00, 0.00, -0.00, -1.00, 165.1, 398.0)">r</text><text xml:space="preserve" font-family="Helvetica-Light" font-size="62.4" fill="#000000" transform="matrix(1.00, 0.00, -0.00, -1.00, 184.8, 398.0)">o</text><text xml:space="preserve" font-family="Helvetica-Light" font-size="62.4" fill="#000000" transform="matrix(1.00, 0.00, -0.00, -1.00, 219.5, 398.0)">g</text><text xml:space="preserve" font-family="Helvetica-Light" font-size="62.4" fill="#000000" transform="matrix(1.00, 0.00, -0.00, -1.00, 257.6, 398.0)">r</text><text xml:space="preserve" font-family="Helvetica-Light" font-size="62.4" fill="#000000" transform="matrix(1.00, 0.00, -0.00, -1.00, 278.4, 398.0)">a</text><text xml:space="preserve" font-family="Helvetica-Light" font-size="62.4" fill="#000000" transform="matrix(1.00, 0.00, -0.00, -1.00, 313.1, 398.0)">m</text><text xml:space="preserve" font-family="Helvetica-Light" font-size="62.4" fill="#000000" transform="matrix(1.00, 0.00, -0.00, -1.00, 365.1, 398.0)">m</text><text xml:space="preserve" font-family="Helvetica-Light" font-size="62.4" fill="#000000" transform="matrix(1.00, 0.00, -0.00, -1.00, 417.0, 398.0)">i</text><text xml:space="preserve" font-family="Helvetica-Light" font-size="62.4" fill="#000000" transform="matrix(1.00, 0.00, -0.00, -1.00, 430.9, 398.0)">n</text><text xml:space="preserve" font-family="Helvetica-Light" font-size="62.4" fill="#000000" transform="matrix(1.00, 0.00, -0.00, -1.00, 465.6, 398.0)">g</text><text xml:space="preserve" font-family="Helvetica-Light" font-size="62.4" fill="#000000" transform="matrix(1.00, 0.00, -0.00, -1.00, 503.7, 398.0)"> </text><text xml:space="preserve" font-family="Helvetica-Light" font-size="62.4" fill="#000000" transform="matrix(1.00, 0.00, -0.00, -1.00, 521.1, 398.0)">b</text><text xml:space="preserve" font-family="Helvetica-Light" font-size="62.4" fill="#000000" transform="matrix(1.00, 0.00, -0.00, -1.00, 559.2, 398.0)">e</text><text xml:space="preserve" font-family="Helvetica-Light" font-size="62.4" fill="#000000" transform="matrix(1.00, 0.00, -0.00, -1.00, 593.9, 398.0)"> </text><text xml:space="preserve" font-family="Helvetica-Light" font-size="62.4" fill="#000000" transform="matrix(1.00, 0.00, -0.00, -1.00, 611.2, 398.0)">r</text><text xml:space="preserve" font-family="Helvetica-Light" font-size="62.4" fill="#000000" transform="matrix(1.00, 0.00, -0.00, -1.00, 630.9, 398.0)">e</text><text xml:space="preserve" font-family="Helvetica-Light" font-size="62.4" fill="#000000" transform="matrix(1.00, 0.00, -0.00, -1.00, 665.6, 398.0)">a</text><text xml:space="preserve" font-family="Helvetica-Light" font-size="62.4" fill="#000000" transform="matrix(1.00, 0.00, -0.00, -1.00, 700.3, 398.0)">l</text><text xml:space="preserve" font-family="Helvetica-Light" font-size="62.4" fill="#000000" transform="matrix(1.00, 0.00, -0.00, -1.00, 714.1, 398.0)">i</text><text xml:space="preserve" font-family="Helvetica-Light" font-size="62.4" fill="#000000" transform="matrix(1.00, 0.00, -0.00, -1.00, 728.0, 398.0)">z</text><text xml:space="preserve" font-family="Helvetica-Light" font-size="62.4" fill="#000000" transform="matrix(1.00, 0.00, -0.00, -1.00, 759.2, 398.0)">e</text><text xml:space="preserve" font-family="Helvetica-Light" font-size="62.4" fill="#000000" transform="matrix(1.00, 0.00, -0.00, -1.00, 793.9, 398.0)">d</text><text xml:space="preserve" font-family="Helvetica-Light" font-size="62.4" fill="#000000" transform="matrix(1.00, 0.00, -0.00, -1.00, 832.0, 398.0)"> </text><text xml:space="preserve" font-family="Helvetica-Light" font-size="62.4" fill="#000000" transform="matrix(1.00, 0.00, -0.00, -1.00, 849.3, 398.0)">i</text><text xml:space="preserve" font-family="Helvetica-Light" font-size="62.4" fill="#000000" transform="matrix(1.00, 0.00, -0.00, -1.00, 863.2, 398.0)">n</text><text xml:space="preserve" font-family="Helvetica-Light" font-size="62.4" fill="#000000" transform="matrix(1.00, 0.00, -0.00, -1.00, 897.9, 398.0)"> </text><text xml:space="preserve" font-family="Helvetica-Light" font-size="62.4" fill="#000000" transform="matrix(1.00, 0.00, -0.00, -1.00, 136.0, 324.0)">a</text><text xml:space="preserve" font-family="Helvetica-Light" font-size="62.4" fill="#000000" transform="matrix(1.00, 0.00, -0.00, -1.00, 170.7, 324.0)"> </text><text xml:space="preserve" font-family="Helvetica-Light" font-size="62.4" fill="#000000" transform="matrix(1.00, 0.00, -0.00, -1.00, 188.0, 324.0)">P</text><text xml:space="preserve" font-family="Helvetica-Light" font-size="62.4" fill="#000000" transform="matrix(1.00, 0.00, -0.00, -1.00, 226.2, 324.0)">l</text><text xml:space="preserve" font-family="Helvetica-Light" font-size="62.4" fill="#000000" transform="matrix(1.00, 0.00, -0.00, -1.00, 240.0, 324.0)">a</text><text xml:space="preserve" font-family="Helvetica-Light" font-size="62.4" fill="#000000" transform="matrix(1.00, 0.00, -0.00, -1.00, 274.7, 324.0)">c</text><text xml:space="preserve" font-family="Helvetica-Light" font-size="62.4" fill="#000000" transform="matrix(1.00, 0.00, -0.00, -1.00, 309.4, 324.0)">e</text><text xml:space="preserve" font-family="Helvetica-Light" font-size="62.4" fill="#000000" transform="matrix(1.00, 0.00, -0.00, -1.00, 344.1, 324.0)">-</text><text xml:space="preserve" font-family="Helvetica-Light" font-size="62.4" fill="#000000" transform="matrix(1.00, 0.00, -0.00, -1.00, 364.9, 324.0)">O</text><text xml:space="preserve" font-family="Helvetica-Light" font-size="62.4" fill="#000000" transform="matrix(1.00, 0.00, -0.00, -1.00, 413.4, 324.0)">r</text><text xml:space="preserve" font-family="Helvetica-Light" font-size="62.4" fill="#000000" transform="matrix(1.00, 0.00, -0.00, -1.00, 434.2, 324.0)">i</text><text xml:space="preserve" font-family="Helvetica-Light" font-size="62.4" fill="#000000" transform="matrix(1.00, 0.00, -0.00, -1.00, 448.1, 324.0)">e</text><text xml:space="preserve" font-family="Helvetica-Light" font-size="62.4" fill="#000000" transform="matrix(1.00, 0.00, -0.00, -1.00, 482.8, 324.0)">n</text><text xml:space="preserve" font-family="Helvetica-Light" font-size="62.4" fill="#000000" transform="matrix(1.00, 0.00, -0.00, -1.00, 517.5, 324.0)">t</text><text xml:space="preserve" font-family="Helvetica-Light" font-size="62.4" fill="#000000" transform="matrix(1.00, 0.00, -0.00, -1.00, 534.8, 324.0)">e</text><text xml:space="preserve" font-family="Helvetica-Light" font-size="62.4" fill="#000000" transform="matrix(1.00, 0.00, -0.00, -1.00, 569.5, 324.0)">d</text><text xml:space="preserve" font-family="Helvetica-Light" font-size="62.4" fill="#000000" transform="matrix(1.00, 0.00, -0.00, -1.00, 607.6, 324.0)"> </text><text xml:space="preserve" font-family="Helvetica-Light" font-size="62.4" fill="#000000" transform="matrix(1.00, 0.00, -0.00, -1.00, 625.0, 324.0)">l</text><text xml:space="preserve" font-family="Helvetica-Light" font-size="62.4" fill="#000000" transform="matrix(1.00, 0.00, -0.00, -1.00, 638.8, 324.0)">a</text><text xml:space="preserve" font-family="Helvetica-Light" font-size="62.4" fill="#000000" transform="matrix(1.00, 0.00, -0.00, -1.00, 673.5, 324.0)">n</text><text xml:space="preserve" font-family="Helvetica-Light" font-size="62.4" fill="#000000" transform="matrix(1.00, 0.00, -0.00, -1.00, 708.2, 324.0)">g</text><text xml:space="preserve" font-family="Helvetica-Light" font-size="62.4" fill="#000000" transform="matrix(1.00, 0.00, -0.00, -1.00, 746.3, 324.0)">u</text><text xml:space="preserve" font-family="Helvetica-Light" font-size="62.4" fill="#000000" transform="matrix(1.00, 0.00, -0.00, -1.00, 781.0, 324.0)">a</text><text xml:space="preserve" font-family="Helvetica-Light" font-size="62.4" fill="#000000" transform="matrix(1.00, 0.00, -0.00, -1.00, 815.7, 324.0)">g</text><text xml:space="preserve" font-family="Helvetica-Light" font-size="62.4" fill="#000000" transform="matrix(1.00, 0.00, -0.00, -1.00, 853.8, 324.0)">e</text><text xml:space="preserve" font-family="Helvetica-Light" font-size="62.4" fill="#000000" transform="matrix(1.00, 0.00, -0.00, -1.00, 888.5, 324.0)"> </text><text xml:space="preserve" font-family="Helvetica-Light" font-size="62.4" fill="#000000" transform="matrix(1.00, 0.00, -0.00, -1.00, 347.0, 250.0)">(</text><text xml:space="preserve" font-family="Helvetica-Light" font-size="62.4" fill="#000000" transform="matrix(1.00, 0.00, -0.00, -1.00, 367.8, 250.0)">e</text><text xml:space="preserve" font-family="Helvetica-Light" font-size="62.4" fill="#000000" transform="matrix(1.00, 0.00, -0.00, -1.00, 402.5, 250.0)">.</text><text xml:space="preserve" font-family="Helvetica-Light" font-size="62.4" fill="#000000" transform="matrix(1.00, 0.00, -0.00, -1.00, 419.8, 250.0)">g</text><text xml:space="preserve" font-family="Helvetica-Light" font-size="62.4" fill="#000000" transform="matrix(1.00, 0.00, -0.00, -1.00, 457.9, 250.0)">.</text><text xml:space="preserve" font-family="Helvetica-Light" font-size="62.4" fill="#000000" transform="matrix(1.00, 0.00, -0.00, -1.00, 475.3, 250.0)"> </text><text xml:space="preserve" font-family="Helvetica-Light" font-size="62.4" fill="#000000" transform="matrix(1.00, 0.00, -0.00, -1.00, 492.6, 250.0)">J</text><text xml:space="preserve" font-family="Helvetica-Light" font-size="62.4" fill="#000000" transform="matrix(1.00, 0.00, -0.00, -1.00, 523.8, 250.0)">a</text><text xml:space="preserve" font-family="Helvetica-Light" font-size="62.4" fill="#000000" transform="matrix(1.00, 0.00, -0.00, -1.00, 558.5, 250.0)">v</text><text xml:space="preserve" font-family="Helvetica-Light" font-size="62.4" fill="#000000" transform="matrix(1.00, 0.00, -0.00, -1.00, 589.7, 250.0)">a</text><text xml:space="preserve" font-family="Helvetica-Light" font-size="62.4" fill="#000000" transform="matrix(1.00, 0.00, -0.00, -1.00, 624.4, 250.0)">)</text><text xml:space="preserve" font-family="Helvetica-Light" font-size="62.4" fill="#000000" transform="matrix(1.00, 0.00, -0.00, -1.00, 645.2, 250.0)">?</text></g></svg>