<?xml version="1.0" encoding="UTF-8" standalone="no"?><svg xmlns="http://www.w3.org/2000/svg" xmlns:xlink="http://www.w3.org/1999/xlink" clip-rule="evenodd" stroke-miterlimit="4.00" viewBox="0 0 1024 768"><desc>SVG generated by Keynote</desc><defs></defs><g transform="matrix(1.00, 0.00, -0.00, -1.00, 0.0, 768.0)"><path d="M 0.0 768.0 L 1024.0 768.0 L 1024.0 0.0 L 0.0 0.0 Z M 0.0 768.0 " fill="#FEFFFF"></path><text xml:space="preserve" font-family="Helvetica-Light" font-size="80.0" fill="#000000" transform="matrix(1.00, 0.00, -0.00, -1.00, 274.0, 645.0)">O</text><text xml:space="preserve" font-family="Helvetica-Light" font-size="80.0" fill="#000000" transform="matrix(1.00, 0.00, -0.00, -1.00, 336.2, 645.0)">b</text><text xml:space="preserve" font-family="Helvetica-Light" font-size="80.0" fill="#000000" transform="matrix(1.00, 0.00, -0.00, -1.00, 385.1, 645.0)">s</text><text xml:space="preserve" font-family="Helvetica-Light" font-size="80.0" fill="#000000" transform="matrix(1.00, 0.00, -0.00, -1.00, 425.1, 645.0)">e</text><text xml:space="preserve" font-family="Helvetica-Light" font-size="80.0" fill="#000000" transform="matrix(1.00, 0.00, -0.00, -1.00, 469.6, 645.0)">r</text><text xml:space="preserve" font-family="Helvetica-Light" font-size="80.0" fill="#000000" transform="matrix(1.00, 0.00, -0.00, -1.00, 496.2, 645.0)">v</text><text xml:space="preserve" font-family="Helvetica-Light" font-size="80.0" fill="#000000" transform="matrix(1.00, 0.00, -0.00, -1.00, 536.2, 645.0)">a</text><text xml:space="preserve" font-family="Helvetica-Light" font-size="80.0" fill="#000000" transform="matrix(1.00, 0.00, -0.00, -1.00, 580.7, 645.0)">t</text><text xml:space="preserve" font-family="Helvetica-Light" font-size="80.0" fill="#000000" transform="matrix(1.00, 0.00, -0.00, -1.00, 603.0, 645.0)">i</text><text xml:space="preserve" font-family="Helvetica-Light" font-size="80.0" fill="#000000" transform="matrix(1.00, 0.00, -0.00, -1.00, 620.7, 645.0)">o</text><text xml:space="preserve" font-family="Helvetica-Light" font-size="80.0" fill="#000000" transform="matrix(1.00, 0.00, -0.00, -1.00, 665.2, 645.0)">n</text><text xml:space="preserve" font-family="Helvetica-Light" font-size="80.0" fill="#000000" transform="matrix(1.00, 0.00, -0.00, -1.00, 709.7, 645.0)">s</text><text xml:space="preserve" font-family="Helvetica-Light" font-size="26.5" fill="#000000" transform="matrix(1.00, 0.00, -0.00, -1.00, 79.0, 565.6)">•</text><text xml:space="preserve" font-family="Helvetica-Light" font-size="35.3" fill="#000000" transform="matrix(1.00, 0.00, -0.00, -1.00, 113.0, 562.0)">W</text><text xml:space="preserve" font-family="Helvetica-Light" font-size="35.3" fill="#000000" transform="matrix(1.00, 0.00, -0.00, -1.00, 143.7, 562.0)">e</text><text xml:space="preserve" font-family="Helvetica-Light" font-size="35.3" fill="#000000" transform="matrix(1.00, 0.00, -0.00, -1.00, 163.3, 562.0)">’</text><text xml:space="preserve" font-family="Helvetica-Light" font-size="35.3" fill="#000000" transform="matrix(1.00, 0.00, -0.00, -1.00, 171.2, 562.0)">v</text><text xml:space="preserve" font-family="Helvetica-Light" font-size="35.3" fill="#000000" transform="matrix(1.00, 0.00, -0.00, -1.00, 188.8, 562.0)">e</text><text xml:space="preserve" font-family="Helvetica-Light" font-size="35.3" fill="#000000" transform="matrix(1.00, 0.00, -0.00, -1.00, 208.4, 562.0)"> </text><text xml:space="preserve" font-family="Helvetica-Light" font-size="35.3" fill="#000000" transform="matrix(1.00, 0.00, -0.00, -1.00, 218.2, 562.0)">g</text><text xml:space="preserve" font-family="Helvetica-Light" font-size="35.3" fill="#000000" transform="matrix(1.00, 0.00, -0.00, -1.00, 239.8, 562.0)">o</text><text xml:space="preserve" font-family="Helvetica-Light" font-size="35.3" fill="#000000" transform="matrix(1.00, 0.00, -0.00, -1.00, 259.4, 562.0)">n</text><text xml:space="preserve" font-family="Helvetica-Light" font-size="35.3" fill="#000000" transform="matrix(1.00, 0.00, -0.00, -1.00, 279.0, 562.0)">e</text><text xml:space="preserve" font-family="Helvetica-Light" font-size="35.3" fill="#000000" transform="matrix(1.00, 0.00, -0.00, -1.00, 298.6, 562.0)"> </text><text xml:space="preserve" font-family="Helvetica-Light" font-size="35.3" fill="#000000" transform="matrix(1.00, 0.00, -0.00, -1.00, 308.5, 562.0)">f</text><text xml:space="preserve" font-family="Helvetica-Light" font-size="35.3" fill="#000000" transform="matrix(1.00, 0.00, -0.00, -1.00, 318.3, 562.0)">r</text><text xml:space="preserve" font-family="Helvetica-Light" font-size="35.3" fill="#000000" transform="matrix(1.00, 0.00, -0.00, -1.00, 329.4, 562.0)">o</text><text xml:space="preserve" font-family="Helvetica-Light" font-size="35.3" fill="#000000" transform="matrix(1.00, 0.00, -0.00, -1.00, 349.0, 562.0)">m</text><text xml:space="preserve" font-family="Helvetica-Light" font-size="35.3" fill="#000000" transform="matrix(1.00, 0.00, -0.00, -1.00, 378.4, 562.0)"> </text><text xml:space="preserve" font-family="Helvetica-Light" font-size="35.3" fill="#000000" transform="matrix(1.00, 0.00, -0.00, -1.00, 388.2, 562.0)">a</text><text xml:space="preserve" font-family="Helvetica-Light" font-size="35.3" fill="#000000" transform="matrix(1.00, 0.00, -0.00, -1.00, 407.8, 562.0)"> </text><text xml:space="preserve" font-family="Helvetica-Light" font-size="35.3" fill="#000000" transform="matrix(1.00, 0.00, -0.00, -1.00, 417.6, 562.0)">d</text><text xml:space="preserve" font-family="Helvetica-Light" font-size="35.3" fill="#000000" transform="matrix(1.00, 0.00, -0.00, -1.00, 439.2, 562.0)">a</text><text xml:space="preserve" font-family="Helvetica-Light" font-size="35.3" fill="#000000" transform="matrix(1.00, 0.00, -0.00, -1.00, 458.8, 562.0)">t</text><text xml:space="preserve" font-family="Helvetica-Light" font-size="35.3" fill="#000000" transform="matrix(1.00, 0.00, -0.00, -1.00, 468.6, 562.0)">a</text><text xml:space="preserve" font-family="Helvetica-Light" font-size="35.3" fill="#000000" transform="matrix(1.00, 0.00, -0.00, -1.00, 488.2, 562.0)">-</text><text xml:space="preserve" font-family="Helvetica-Light" font-size="35.3" fill="#000000" transform="matrix(1.00, 0.00, -0.00, -1.00, 500.0, 562.0)">c</text><text xml:space="preserve" font-family="Helvetica-Light" font-size="35.3" fill="#000000" transform="matrix(1.00, 0.00, -0.00, -1.00, 519.6, 562.0)">e</text><text xml:space="preserve" font-family="Helvetica-Light" font-size="35.3" fill="#000000" transform="matrix(1.00, 0.00, -0.00, -1.00, 539.2, 562.0)">n</text><text xml:space="preserve" font-family="Helvetica-Light" font-size="35.3" fill="#000000" transform="matrix(1.00, 0.00, -0.00, -1.00, 558.8, 562.0)">t</text><text xml:space="preserve" font-family="Helvetica-Light" font-size="35.3" fill="#000000" transform="matrix(1.00, 0.00, -0.00, -1.00, 568.6, 562.0)">r</text><text xml:space="preserve" font-family="Helvetica-Light" font-size="35.3" fill="#000000" transform="matrix(1.00, 0.00, -0.00, -1.00, 580.4, 562.0)">i</text><text xml:space="preserve" font-family="Helvetica-Light" font-size="35.3" fill="#000000" transform="matrix(1.00, 0.00, -0.00, -1.00, 588.2, 562.0)">c</text><text xml:space="preserve" font-family="Helvetica-Light" font-size="35.3" fill="#000000" transform="matrix(1.00, 0.00, -0.00, -1.00, 607.8, 562.0)"> </text><text xml:space="preserve" font-family="Helvetica-Light" font-size="35.3" fill="#000000" transform="matrix(1.00, 0.00, -0.00, -1.00, 617.6, 562.0)">d</text><text xml:space="preserve" font-family="Helvetica-Light" font-size="35.3" fill="#000000" transform="matrix(1.00, 0.00, -0.00, -1.00, 639.2, 562.0)">e</text><text xml:space="preserve" font-family="Helvetica-Light" font-size="35.3" fill="#000000" transform="matrix(1.00, 0.00, -0.00, -1.00, 658.8, 562.0)">s</text><text xml:space="preserve" font-family="Helvetica-Light" font-size="35.3" fill="#000000" transform="matrix(1.00, 0.00, -0.00, -1.00, 676.4, 562.0)">i</text><text xml:space="preserve" font-family="Helvetica-Light" font-size="35.3" fill="#000000" transform="matrix(1.00, 0.00, -0.00, -1.00, 684.3, 562.0)">g</text><text xml:space="preserve" font-family="Helvetica-Light" font-size="35.3" fill="#000000" transform="matrix(1.00, 0.00, -0.00, -1.00, 705.8, 562.0)">n</text><text xml:space="preserve" font-family="Helvetica-Light" font-size="35.3" fill="#000000" transform="matrix(1.00, 0.00, -0.00, -1.00, 725.4, 562.0)"> </text><text xml:space="preserve" font-family="Helvetica-Light" font-size="35.3" fill="#000000" transform="matrix(1.00, 0.00, -0.00, -1.00, 735.2, 562.0)">t</text><text xml:space="preserve" font-family="Helvetica-Light" font-size="35.3" fill="#000000" transform="matrix(1.00, 0.00, -0.00, -1.00, 745.0, 562.0)">o</text><text xml:space="preserve" font-family="Helvetica-Light" font-size="35.3" fill="#000000" transform="matrix(1.00, 0.00, -0.00, -1.00, 764.7, 562.0)"> </text><text xml:space="preserve" font-family="Helvetica-Light" font-size="35.3" fill="#000000" transform="matrix(1.00, 0.00, -0.00, -1.00, 774.5, 562.0)">a</text><text xml:space="preserve" font-family="Helvetica-Light" font-size="35.3" fill="#000000" transform="matrix(1.00, 0.00, -0.00, -1.00, 794.1, 562.0)"> </text><text xml:space="preserve" font-family="Helvetica-Light" font-size="35.3" fill="#000000" transform="matrix(1.00, 0.00, -0.00, -1.00, 113.0, 520.0)">f</text><text xml:space="preserve" font-family="Helvetica-Light" font-size="35.3" fill="#000000" transform="matrix(1.00, 0.00, -0.00, -1.00, 122.8, 520.0)">u</text><text xml:space="preserve" font-family="Helvetica-Light" font-size="35.3" fill="#000000" transform="matrix(1.00, 0.00, -0.00, -1.00, 142.4, 520.0)">n</text><text xml:space="preserve" font-family="Helvetica-Light" font-size="35.3" fill="#000000" transform="matrix(1.00, 0.00, -0.00, -1.00, 162.0, 520.0)">c</text><text xml:space="preserve" font-family="Helvetica-Light" font-size="35.3" fill="#000000" transform="matrix(1.00, 0.00, -0.00, -1.00, 181.7, 520.0)">t</text><text xml:space="preserve" font-family="Helvetica-Light" font-size="35.3" fill="#000000" transform="matrix(1.00, 0.00, -0.00, -1.00, 191.5, 520.0)">i</text><text xml:space="preserve" font-family="Helvetica-Light" font-size="35.3" fill="#000000" transform="matrix(1.00, 0.00, -0.00, -1.00, 199.3, 520.0)">o</text><text xml:space="preserve" font-family="Helvetica-Light" font-size="35.3" fill="#000000" transform="matrix(1.00, 0.00, -0.00, -1.00, 218.9, 520.0)">n</text><text xml:space="preserve" font-family="Helvetica-Light" font-size="35.3" fill="#000000" transform="matrix(1.00, 0.00, -0.00, -1.00, 238.5, 520.0)">i</text><text xml:space="preserve" font-family="Helvetica-Light" font-size="35.3" fill="#000000" transform="matrix(1.00, 0.00, -0.00, -1.00, 246.4, 520.0)">n</text><text xml:space="preserve" font-family="Helvetica-Light" font-size="35.3" fill="#000000" transform="matrix(1.00, 0.00, -0.00, -1.00, 266.0, 520.0)">g</text><text xml:space="preserve" font-family="Helvetica-Light" font-size="35.3" fill="#000000" transform="matrix(1.00, 0.00, -0.00, -1.00, 287.5, 520.0)">,</text><text xml:space="preserve" font-family="Helvetica-Light" font-size="35.3" fill="#000000" transform="matrix(1.00, 0.00, -0.00, -1.00, 297.3, 520.0)"> </text><text xml:space="preserve" font-family="Helvetica-Light" font-size="35.3" fill="#000000" transform="matrix(1.00, 0.00, -0.00, -1.00, 307.1, 520.0)">f</text><text xml:space="preserve" font-family="Helvetica-Light" font-size="35.3" fill="#000000" transform="matrix(1.00, 0.00, -0.00, -1.00, 317.0, 520.0)">u</text><text xml:space="preserve" font-family="Helvetica-Light" font-size="35.3" fill="#000000" transform="matrix(1.00, 0.00, -0.00, -1.00, 336.6, 520.0)">n</text><text xml:space="preserve" font-family="Helvetica-Light" font-size="35.3" fill="#000000" transform="matrix(1.00, 0.00, -0.00, -1.00, 356.2, 520.0)">c</text><text xml:space="preserve" font-family="Helvetica-Light" font-size="35.3" fill="#000000" transform="matrix(1.00, 0.00, -0.00, -1.00, 375.8, 520.0)">t</text><text xml:space="preserve" font-family="Helvetica-Light" font-size="35.3" fill="#000000" transform="matrix(1.00, 0.00, -0.00, -1.00, 385.6, 520.0)">i</text><text xml:space="preserve" font-family="Helvetica-Light" font-size="35.3" fill="#000000" transform="matrix(1.00, 0.00, -0.00, -1.00, 393.4, 520.0)">o</text><text xml:space="preserve" font-family="Helvetica-Light" font-size="35.3" fill="#000000" transform="matrix(1.00, 0.00, -0.00, -1.00, 413.1, 520.0)">n</text><text xml:space="preserve" font-family="Helvetica-Light" font-size="35.3" fill="#000000" transform="matrix(1.00, 0.00, -0.00, -1.00, 432.7, 520.0)">a</text><text xml:space="preserve" font-family="Helvetica-Light" font-size="35.3" fill="#000000" transform="matrix(1.00, 0.00, -0.00, -1.00, 452.3, 520.0)">l</text><text xml:space="preserve" font-family="Helvetica-Light" font-size="35.3" fill="#000000" transform="matrix(1.00, 0.00, -0.00, -1.00, 460.1, 520.0)"> </text><text xml:space="preserve" font-family="Helvetica-Light" font-size="35.3" fill="#000000" transform="matrix(1.00, 0.00, -0.00, -1.00, 469.9, 520.0)">A</text><text xml:space="preserve" font-family="Helvetica-Light" font-size="35.3" fill="#000000" transform="matrix(1.00, 0.00, -0.00, -1.00, 493.5, 520.0)">P</text><text xml:space="preserve" font-family="Helvetica-Light" font-size="35.3" fill="#000000" transform="matrix(1.00, 0.00, -0.00, -1.00, 515.0, 520.0)">I</text><text xml:space="preserve" font-family="Helvetica-Light" font-size="35.3" fill="#000000" transform="matrix(1.00, 0.00, -0.00, -1.00, 524.8, 520.0)"> </text><text xml:space="preserve" font-family="Helvetica-Light" font-size="26.5" fill="#000000" transform="matrix(1.00, 0.00, -0.00, -1.00, 79.0, 440.4)">•</text><text xml:space="preserve" font-family="Helvetica-Light" font-size="35.3" fill="#000000" transform="matrix(1.00, 0.00, -0.00, -1.00, 113.0, 437.0)">F</text><text xml:space="preserve" font-family="Helvetica-Light" font-size="35.3" fill="#000000" transform="matrix(1.00, 0.00, -0.00, -1.00, 132.6, 437.0)">u</text><text xml:space="preserve" font-family="Helvetica-Light" font-size="35.3" fill="#000000" transform="matrix(1.00, 0.00, -0.00, -1.00, 152.2, 437.0)">n</text><text xml:space="preserve" font-family="Helvetica-Light" font-size="35.3" fill="#000000" transform="matrix(1.00, 0.00, -0.00, -1.00, 171.8, 437.0)">c</text><text xml:space="preserve" font-family="Helvetica-Light" font-size="35.3" fill="#000000" transform="matrix(1.00, 0.00, -0.00, -1.00, 191.5, 437.0)">t</text><text xml:space="preserve" font-family="Helvetica-Light" font-size="35.3" fill="#000000" transform="matrix(1.00, 0.00, -0.00, -1.00, 201.3, 437.0)">i</text><text xml:space="preserve" font-family="Helvetica-Light" font-size="35.3" fill="#000000" transform="matrix(1.00, 0.00, -0.00, -1.00, 209.1, 437.0)">o</text><text xml:space="preserve" font-family="Helvetica-Light" font-size="35.3" fill="#000000" transform="matrix(1.00, 0.00, -0.00, -1.00, 228.7, 437.0)">n</text><text xml:space="preserve" font-family="Helvetica-Light" font-size="35.3" fill="#000000" transform="matrix(1.00, 0.00, -0.00, -1.00, 248.3, 437.0)">s</text><text xml:space="preserve" font-family="Helvetica-Light" font-size="35.3" fill="#000000" transform="matrix(1.00, 0.00, -0.00, -1.00, 266.0, 437.0)"> </text><text xml:space="preserve" font-family="Helvetica-Light" font-size="35.3" fill="#000000" transform="matrix(1.00, 0.00, -0.00, -1.00, 275.8, 437.0)">c</text><text xml:space="preserve" font-family="Helvetica-Light" font-size="35.3" fill="#000000" transform="matrix(1.00, 0.00, -0.00, -1.00, 295.4, 437.0)">o</text><text xml:space="preserve" font-family="Helvetica-Light" font-size="35.3" fill="#000000" transform="matrix(1.00, 0.00, -0.00, -1.00, 315.0, 437.0)">m</text><text xml:space="preserve" font-family="Helvetica-Light" font-size="35.3" fill="#000000" transform="matrix(1.00, 0.00, -0.00, -1.00, 344.4, 437.0)">p</text><text xml:space="preserve" font-family="Helvetica-Light" font-size="35.3" fill="#000000" transform="matrix(1.00, 0.00, -0.00, -1.00, 366.0, 437.0)">o</text><text xml:space="preserve" font-family="Helvetica-Light" font-size="35.3" fill="#000000" transform="matrix(1.00, 0.00, -0.00, -1.00, 385.6, 437.0)">s</text><text xml:space="preserve" font-family="Helvetica-Light" font-size="35.3" fill="#000000" transform="matrix(1.00, 0.00, -0.00, -1.00, 403.2, 437.0)">e</text><text xml:space="preserve" font-family="Helvetica-Light" font-size="35.3" fill="#000000" transform="matrix(1.00, 0.00, -0.00, -1.00, 422.8, 437.0)"> </text><text xml:space="preserve" font-family="Helvetica-Light" font-size="35.3" fill="#000000" transform="matrix(1.00, 0.00, -0.00, -1.00, 432.6, 437.0)">f</text><text xml:space="preserve" font-family="Helvetica-Light" font-size="35.3" fill="#000000" transform="matrix(1.00, 0.00, -0.00, -1.00, 442.4, 437.0)">o</text><text xml:space="preserve" font-family="Helvetica-Light" font-size="35.3" fill="#000000" transform="matrix(1.00, 0.00, -0.00, -1.00, 462.1, 437.0)">r</text><text xml:space="preserve" font-family="Helvetica-Light" font-size="35.3" fill="#000000" transform="matrix(1.00, 0.00, -0.00, -1.00, 473.8, 437.0)"> </text><text xml:space="preserve" font-family="Helvetica-Light" font-size="35.3" fill="#000000" transform="matrix(1.00, 0.00, -0.00, -1.00, 483.6, 437.0)">r</text><text xml:space="preserve" font-family="Helvetica-Light" font-size="35.3" fill="#000000" transform="matrix(1.00, 0.00, -0.00, -1.00, 494.7, 437.0)">e</text><text xml:space="preserve" font-family="Helvetica-Light" font-size="35.3" fill="#000000" transform="matrix(1.00, 0.00, -0.00, -1.00, 514.3, 437.0)">u</text><text xml:space="preserve" font-family="Helvetica-Light" font-size="35.3" fill="#000000" transform="matrix(1.00, 0.00, -0.00, -1.00, 534.0, 437.0)">s</text><text xml:space="preserve" font-family="Helvetica-Light" font-size="35.3" fill="#000000" transform="matrix(1.00, 0.00, -0.00, -1.00, 551.6, 437.0)">e</text><text xml:space="preserve" font-family="Helvetica-Light" font-size="35.3" fill="#000000" transform="matrix(1.00, 0.00, -0.00, -1.00, 571.2, 437.0)"> </text><text xml:space="preserve" font-family="Helvetica-Light" font-size="35.3" fill="#000000" transform="matrix(1.00, 0.00, -0.00, -1.00, 581.0, 437.0)">m</text><text xml:space="preserve" font-family="Helvetica-Light" font-size="35.3" fill="#000000" transform="matrix(1.00, 0.00, -0.00, -1.00, 610.4, 437.0)">u</text><text xml:space="preserve" font-family="Helvetica-Light" font-size="35.3" fill="#000000" transform="matrix(1.00, 0.00, -0.00, -1.00, 630.0, 437.0)">c</text><text xml:space="preserve" font-family="Helvetica-Light" font-size="35.3" fill="#000000" transform="matrix(1.00, 0.00, -0.00, -1.00, 649.6, 437.0)">h</text><text xml:space="preserve" font-family="Helvetica-Light" font-size="35.3" fill="#000000" transform="matrix(1.00, 0.00, -0.00, -1.00, 669.3, 437.0)"> </text><text xml:space="preserve" font-family="Helvetica-Light" font-size="35.3" fill="#000000" transform="matrix(1.00, 0.00, -0.00, -1.00, 679.1, 437.0)">m</text><text xml:space="preserve" font-family="Helvetica-Light" font-size="35.3" fill="#000000" transform="matrix(1.00, 0.00, -0.00, -1.00, 708.5, 437.0)">o</text><text xml:space="preserve" font-family="Helvetica-Light" font-size="35.3" fill="#000000" transform="matrix(1.00, 0.00, -0.00, -1.00, 728.1, 437.0)">r</text><text xml:space="preserve" font-family="Helvetica-Light" font-size="35.3" fill="#000000" transform="matrix(1.00, 0.00, -0.00, -1.00, 739.2, 437.0)">e</text><text xml:space="preserve" font-family="Helvetica-Light" font-size="35.3" fill="#000000" transform="matrix(1.00, 0.00, -0.00, -1.00, 758.8, 437.0)"> </text><text xml:space="preserve" font-family="Helvetica-Light" font-size="35.3" fill="#000000" transform="matrix(1.00, 0.00, -0.00, -1.00, 768.6, 437.0)">t</text><text xml:space="preserve" font-family="Helvetica-Light" font-size="35.3" fill="#000000" transform="matrix(1.00, 0.00, -0.00, -1.00, 778.4, 437.0)">h</text><text xml:space="preserve" font-family="Helvetica-Light" font-size="35.3" fill="#000000" transform="matrix(1.00, 0.00, -0.00, -1.00, 798.0, 437.0)">a</text><text xml:space="preserve" font-family="Helvetica-Light" font-size="35.3" fill="#000000" transform="matrix(1.00, 0.00, -0.00, -1.00, 817.6, 437.0)">n</text><text xml:space="preserve" font-family="Helvetica-Light" font-size="35.3" fill="#000000" transform="matrix(1.00, 0.00, -0.00, -1.00, 837.3, 437.0)"> </text><text xml:space="preserve" font-family="Helvetica-Light" font-size="35.3" fill="#000000" transform="matrix(1.00, 0.00, -0.00, -1.00, 113.0, 395.0)">o</text><text xml:space="preserve" font-family="Helvetica-Light" font-size="35.3" fill="#000000" transform="matrix(1.00, 0.00, -0.00, -1.00, 132.6, 395.0)">b</text><text xml:space="preserve" font-family="Helvetica-Light" font-size="35.3" fill="#000000" transform="matrix(1.00, 0.00, -0.00, -1.00, 154.2, 395.0)">j</text><text xml:space="preserve" font-family="Helvetica-Light" font-size="35.3" fill="#000000" transform="matrix(1.00, 0.00, -0.00, -1.00, 162.0, 395.0)">e</text><text xml:space="preserve" font-family="Helvetica-Light" font-size="35.3" fill="#000000" transform="matrix(1.00, 0.00, -0.00, -1.00, 181.6, 395.0)">c</text><text xml:space="preserve" font-family="Helvetica-Light" font-size="35.3" fill="#000000" transform="matrix(1.00, 0.00, -0.00, -1.00, 201.2, 395.0)">t</text><text xml:space="preserve" font-family="Helvetica-Light" font-size="35.3" fill="#000000" transform="matrix(1.00, 0.00, -0.00, -1.00, 211.0, 395.0)">s</text><text xml:space="preserve" font-family="Helvetica-Light" font-size="35.3" fill="#000000" transform="matrix(1.00, 0.00, -0.00, -1.00, 228.7, 395.0)"> </text><text xml:space="preserve" font-family="Helvetica-Light" font-size="26.5" fill="#000000" transform="matrix(1.00, 0.00, -0.00, -1.00, 79.0, 315.2)">•</text><text xml:space="preserve" font-family="Helvetica-Light" font-size="35.3" fill="#000000" transform="matrix(1.00, 0.00, -0.00, -1.00, 113.0, 312.0)">W</text><text xml:space="preserve" font-family="Helvetica-Light" font-size="35.3" fill="#000000" transform="matrix(1.00, 0.00, -0.00, -1.00, 143.7, 312.0)">e</text><text xml:space="preserve" font-family="Helvetica-Light" font-size="35.3" fill="#000000" transform="matrix(1.00, 0.00, -0.00, -1.00, 163.3, 312.0)"> </text><text xml:space="preserve" font-family="Helvetica-Light" font-size="35.3" fill="#000000" transform="matrix(1.00, 0.00, -0.00, -1.00, 173.2, 312.0)">h</text><text xml:space="preserve" font-family="Helvetica-Light" font-size="35.3" fill="#000000" transform="matrix(1.00, 0.00, -0.00, -1.00, 192.8, 312.0)">a</text><text xml:space="preserve" font-family="Helvetica-Light" font-size="35.3" fill="#000000" transform="matrix(1.00, 0.00, -0.00, -1.00, 212.4, 312.0)">v</text><text xml:space="preserve" font-family="Helvetica-Light" font-size="35.3" fill="#000000" transform="matrix(1.00, 0.00, -0.00, -1.00, 230.0, 312.0)">e</text><text xml:space="preserve" font-family="Helvetica-Light" font-size="35.3" fill="#000000" transform="matrix(1.00, 0.00, -0.00, -1.00, 249.6, 312.0)"> </text><text xml:space="preserve" font-family="Helvetica-Light" font-size="35.3" fill="#000000" transform="matrix(1.00, 0.00, -0.00, -1.00, 259.4, 312.0)">m</text><text xml:space="preserve" font-family="Helvetica-Light" font-size="35.3" fill="#000000" transform="matrix(1.00, 0.00, -0.00, -1.00, 288.8, 312.0)">a</text><text xml:space="preserve" font-family="Helvetica-Light" font-size="35.3" fill="#000000" transform="matrix(1.00, 0.00, -0.00, -1.00, 308.5, 312.0)">n</text><text xml:space="preserve" font-family="Helvetica-Light" font-size="35.3" fill="#000000" transform="matrix(1.00, 0.00, -0.00, -1.00, 328.1, 312.0)">y</text><text xml:space="preserve" font-family="Helvetica-Light" font-size="35.3" fill="#000000" transform="matrix(1.00, 0.00, -0.00, -1.00, 345.7, 312.0)"> </text><text xml:space="preserve" font-family="Helvetica-Light" font-size="35.3" fill="#000000" transform="matrix(1.00, 0.00, -0.00, -1.00, 355.5, 312.0)">s</text><text xml:space="preserve" font-family="Helvetica-Light" font-size="35.3" fill="#000000" transform="matrix(1.00, 0.00, -0.00, -1.00, 373.2, 312.0)">m</text><text xml:space="preserve" font-family="Helvetica-Light" font-size="35.3" fill="#000000" transform="matrix(1.00, 0.00, -0.00, -1.00, 402.5, 312.0)">a</text><text xml:space="preserve" font-family="Helvetica-Light" font-size="35.3" fill="#000000" transform="matrix(1.00, 0.00, -0.00, -1.00, 422.2, 312.0)">l</text><text xml:space="preserve" font-family="Helvetica-Light" font-size="35.3" fill="#000000" transform="matrix(1.00, 0.00, -0.00, -1.00, 430.0, 312.0)">l</text><text xml:space="preserve" font-family="Helvetica-Light" font-size="35.3" fill="#000000" transform="matrix(1.00, 0.00, -0.00, -1.00, 437.8, 312.0)">,</text><text xml:space="preserve" font-family="Helvetica-Light" font-size="35.3" fill="#000000" transform="matrix(1.00, 0.00, -0.00, -1.00, 447.6, 312.0)"> </text><text xml:space="preserve" font-family="Helvetica-Light" font-size="35.3" fill="#000000" transform="matrix(1.00, 0.00, -0.00, -1.00, 457.4, 312.0)">r</text><text xml:space="preserve" font-family="Helvetica-Light" font-size="35.3" fill="#000000" transform="matrix(1.00, 0.00, -0.00, -1.00, 468.6, 312.0)">e</text><text xml:space="preserve" font-family="Helvetica-Light" font-size="35.3" fill="#000000" transform="matrix(1.00, 0.00, -0.00, -1.00, 488.2, 312.0)">u</text><text xml:space="preserve" font-family="Helvetica-Light" font-size="35.3" fill="#000000" transform="matrix(1.00, 0.00, -0.00, -1.00, 507.8, 312.0)">s</text><text xml:space="preserve" font-family="Helvetica-Light" font-size="35.3" fill="#000000" transform="matrix(1.00, 0.00, -0.00, -1.00, 525.4, 312.0)">a</text><text xml:space="preserve" font-family="Helvetica-Light" font-size="35.3" fill="#000000" transform="matrix(1.00, 0.00, -0.00, -1.00, 545.0, 312.0)">b</text><text xml:space="preserve" font-family="Helvetica-Light" font-size="35.3" fill="#000000" transform="matrix(1.00, 0.00, -0.00, -1.00, 566.6, 312.0)">l</text><text xml:space="preserve" font-family="Helvetica-Light" font-size="35.3" fill="#000000" transform="matrix(1.00, 0.00, -0.00, -1.00, 574.4, 312.0)">e</text><text xml:space="preserve" font-family="Helvetica-Light" font-size="35.3" fill="#000000" transform="matrix(1.00, 0.00, -0.00, -1.00, 594.0, 312.0)"> </text><text xml:space="preserve" font-family="Helvetica-Light" font-size="35.3" fill="#000000" transform="matrix(1.00, 0.00, -0.00, -1.00, 603.9, 312.0)">f</text><text xml:space="preserve" font-family="Helvetica-Light" font-size="35.3" fill="#000000" transform="matrix(1.00, 0.00, -0.00, -1.00, 613.7, 312.0)">u</text><text xml:space="preserve" font-family="Helvetica-Light" font-size="35.3" fill="#000000" transform="matrix(1.00, 0.00, -0.00, -1.00, 633.3, 312.0)">n</text><text xml:space="preserve" font-family="Helvetica-Light" font-size="35.3" fill="#000000" transform="matrix(1.00, 0.00, -0.00, -1.00, 652.9, 312.0)">c</text><text xml:space="preserve" font-family="Helvetica-Light" font-size="35.3" fill="#000000" transform="matrix(1.00, 0.00, -0.00, -1.00, 672.5, 312.0)">t</text><text xml:space="preserve" font-family="Helvetica-Light" font-size="35.3" fill="#000000" transform="matrix(1.00, 0.00, -0.00, -1.00, 682.3, 312.0)">i</text><text xml:space="preserve" font-family="Helvetica-Light" font-size="35.3" fill="#000000" transform="matrix(1.00, 0.00, -0.00, -1.00, 690.1, 312.0)">o</text><text xml:space="preserve" font-family="Helvetica-Light" font-size="35.3" fill="#000000" transform="matrix(1.00, 0.00, -0.00, -1.00, 709.8, 312.0)">n</text><text xml:space="preserve" font-family="Helvetica-Light" font-size="35.3" fill="#000000" transform="matrix(1.00, 0.00, -0.00, -1.00, 729.4, 312.0)">s</text><text xml:space="preserve" font-family="Helvetica-Light" font-size="35.3" fill="#000000" transform="matrix(1.00, 0.00, -0.00, -1.00, 747.0, 312.0)"> </text><text xml:space="preserve" font-family="Helvetica-Light" font-size="26.5" fill="#000000" transform="matrix(1.00, 0.00, -0.00, -1.00, 79.0, 232.1)">•</text><text xml:space="preserve" font-family="Helvetica-Light" font-size="35.3" fill="#000000" transform="matrix(1.00, 0.00, -0.00, -1.00, 113.0, 229.0)">I</text><text xml:space="preserve" font-family="Helvetica-Light" font-size="35.3" fill="#000000" transform="matrix(1.00, 0.00, -0.00, -1.00, 122.8, 229.0)">n</text><text xml:space="preserve" font-family="Helvetica-Light" font-size="35.3" fill="#000000" transform="matrix(1.00, 0.00, -0.00, -1.00, 142.4, 229.0)"> </text><text xml:space="preserve" font-family="Helvetica-Light" font-size="35.3" fill="#000000" transform="matrix(1.00, 0.00, -0.00, -1.00, 152.2, 229.0)">C</text><text xml:space="preserve" font-family="Helvetica-Light" font-size="35.3" fill="#000000" transform="matrix(1.00, 0.00, -0.00, -1.00, 177.7, 229.0)">l</text><text xml:space="preserve" font-family="Helvetica-Light" font-size="35.3" fill="#000000" transform="matrix(1.00, 0.00, -0.00, -1.00, 185.5, 229.0)">o</text><text xml:space="preserve" font-family="Helvetica-Light" font-size="35.3" fill="#000000" transform="matrix(1.00, 0.00, -0.00, -1.00, 205.2, 229.0)">j</text><text xml:space="preserve" font-family="Helvetica-Light" font-size="35.3" fill="#000000" transform="matrix(1.00, 0.00, -0.00, -1.00, 213.0, 229.0)">u</text><text xml:space="preserve" font-family="Helvetica-Light" font-size="35.3" fill="#000000" transform="matrix(1.00, 0.00, -0.00, -1.00, 232.6, 229.0)">r</text><text xml:space="preserve" font-family="Helvetica-Light" font-size="35.3" fill="#000000" transform="matrix(1.00, 0.00, -0.00, -1.00, 243.7, 229.0)">e</text><text xml:space="preserve" font-family="Helvetica-Light" font-size="35.3" fill="#000000" transform="matrix(1.00, 0.00, -0.00, -1.00, 263.3, 229.0)"> </text><text xml:space="preserve" font-family="Helvetica-Light" font-size="35.3" fill="#000000" transform="matrix(1.00, 0.00, -0.00, -1.00, 273.1, 229.0)">w</text><text xml:space="preserve" font-family="Helvetica-Light" font-size="35.3" fill="#000000" transform="matrix(1.00, 0.00, -0.00, -1.00, 298.6, 229.0)">e</text><text xml:space="preserve" font-family="Helvetica-Light" font-size="35.3" fill="#000000" transform="matrix(1.00, 0.00, -0.00, -1.00, 318.2, 229.0)"> </text><text xml:space="preserve" font-family="Helvetica-Light" font-size="35.3" fill="#000000" transform="matrix(1.00, 0.00, -0.00, -1.00, 328.0, 229.0)">u</text><text xml:space="preserve" font-family="Helvetica-Light" font-size="35.3" fill="#000000" transform="matrix(1.00, 0.00, -0.00, -1.00, 347.6, 229.0)">s</text><text xml:space="preserve" font-family="Helvetica-Light" font-size="35.3" fill="#000000" transform="matrix(1.00, 0.00, -0.00, -1.00, 365.3, 229.0)">e</text><text xml:space="preserve" font-family="Helvetica-Light" font-size="35.3" fill="#000000" transform="matrix(1.00, 0.00, -0.00, -1.00, 384.9, 229.0)"> </text><text xml:space="preserve" font-family="Helvetica-Light" font-size="35.3" fill="#000000" transform="matrix(1.00, 0.00, -0.00, -1.00, 394.7, 229.0)">t</text><text xml:space="preserve" font-family="Helvetica-Light" font-size="35.3" fill="#000000" transform="matrix(1.00, 0.00, -0.00, -1.00, 404.5, 229.0)">h</text><text xml:space="preserve" font-family="Helvetica-Light" font-size="35.3" fill="#000000" transform="matrix(1.00, 0.00, -0.00, -1.00, 424.1, 229.0)">e</text><text xml:space="preserve" font-family="Helvetica-Light" font-size="35.3" fill="#000000" transform="matrix(1.00, 0.00, -0.00, -1.00, 443.8, 229.0)"> </text><text xml:space="preserve" font-family="Helvetica-Light" font-size="35.3" fill="#000000" transform="matrix(1.00, 0.00, -0.00, -1.00, 453.6, 229.0)">t</text><text xml:space="preserve" font-family="Helvetica-Light" font-size="35.3" fill="#000000" transform="matrix(1.00, 0.00, -0.00, -1.00, 463.4, 229.0)">e</text><text xml:space="preserve" font-family="Helvetica-Light" font-size="35.3" fill="#000000" transform="matrix(1.00, 0.00, -0.00, -1.00, 483.0, 229.0)">r</text><text xml:space="preserve" font-family="Helvetica-Light" font-size="35.3" fill="#000000" transform="matrix(1.00, 0.00, -0.00, -1.00, 495.4, 229.0)">m</text><text xml:space="preserve" font-family="Helvetica-Light" font-size="35.3" fill="#000000" transform="matrix(1.00, 0.00, -0.00, -1.00, 524.8, 229.0)"> </text><text xml:space="preserve" font-family="Helvetica-Light" font-size="35.3" fill="#000000" transform="matrix(1.00, 0.00, -0.00, -1.00, 534.6, 229.0)">“</text><text xml:space="preserve" font-family="Helvetica-Light" font-size="35.3" fill="#000000" transform="matrix(1.00, 0.00, -0.00, -1.00, 548.3, 229.0)">A</text><text xml:space="preserve" font-family="Helvetica-Light" font-size="35.3" fill="#000000" transform="matrix(1.00, 0.00, -0.00, -1.00, 571.8, 229.0)">P</text><text xml:space="preserve" font-family="Helvetica-Light" font-size="35.3" fill="#000000" transform="matrix(1.00, 0.00, -0.00, -1.00, 593.4, 229.0)">I</text><text xml:space="preserve" font-family="Helvetica-Light" font-size="35.3" fill="#000000" transform="matrix(1.00, 0.00, -0.00, -1.00, 603.2, 229.0)">”</text><text xml:space="preserve" font-family="Helvetica-Light" font-size="35.3" fill="#000000" transform="matrix(1.00, 0.00, -0.00, -1.00, 616.9, 229.0)"> </text><text xml:space="preserve" font-family="Helvetica-Light" font-size="35.3" fill="#000000" transform="matrix(1.00, 0.00, -0.00, -1.00, 626.7, 229.0)">l</text><text xml:space="preserve" font-family="Helvetica-Light" font-size="35.3" fill="#000000" transform="matrix(1.00, 0.00, -0.00, -1.00, 634.5, 229.0)">o</text><text xml:space="preserve" font-family="Helvetica-Light" font-size="35.3" fill="#000000" transform="matrix(1.00, 0.00, -0.00, -1.00, 654.2, 229.0)">o</text><text xml:space="preserve" font-family="Helvetica-Light" font-size="35.3" fill="#000000" transform="matrix(1.00, 0.00, -0.00, -1.00, 673.8, 229.0)">s</text><text xml:space="preserve" font-family="Helvetica-Light" font-size="35.3" fill="#000000" transform="matrix(1.00, 0.00, -0.00, -1.00, 691.4, 229.0)">e</text><text xml:space="preserve" font-family="Helvetica-Light" font-size="35.3" fill="#000000" transform="matrix(1.00, 0.00, -0.00, -1.00, 711.0, 229.0)">l</text><text xml:space="preserve" font-family="Helvetica-Light" font-size="35.3" fill="#000000" transform="matrix(1.00, 0.00, -0.00, -1.00, 718.9, 229.0)">y</text><text xml:space="preserve" font-family="Helvetica-Light" font-size="35.3" fill="#000000" transform="matrix(1.00, 0.00, -0.00, -1.00, 736.5, 229.0)"> </text><text xml:space="preserve" font-family="Helvetica-Light" font-size="26.5" fill="#000000" transform="matrix(1.00, 0.00, -0.00, -1.00, 114.0, 148.9)">•</text><text xml:space="preserve" font-family="Helvetica-Light" font-size="35.3" fill="#000000" transform="matrix(1.00, 0.00, -0.00, -1.00, 148.0, 145.0)">I</text><text xml:space="preserve" font-family="Helvetica-Light" font-size="35.3" fill="#000000" transform="matrix(1.00, 0.00, -0.00, -1.00, 157.8, 145.0)">t</text><text xml:space="preserve" font-family="Helvetica-Light" font-size="35.3" fill="#000000" transform="matrix(1.00, 0.00, -0.00, -1.00, 167.6, 145.0)">’</text><text xml:space="preserve" font-family="Helvetica-Light" font-size="35.3" fill="#000000" transform="matrix(1.00, 0.00, -0.00, -1.00, 172.8, 145.0)">s</text><text xml:space="preserve" font-family="Helvetica-Light" font-size="35.3" fill="#000000" transform="matrix(1.00, 0.00, -0.00, -1.00, 190.5, 145.0)"> </text><text xml:space="preserve" font-family="Helvetica-Light" font-size="35.3" fill="#000000" transform="matrix(1.00, 0.00, -0.00, -1.00, 200.3, 145.0)">r</text><text xml:space="preserve" font-family="Helvetica-Light" font-size="35.3" fill="#000000" transform="matrix(1.00, 0.00, -0.00, -1.00, 211.4, 145.0)">e</text><text xml:space="preserve" font-family="Helvetica-Light" font-size="35.3" fill="#000000" transform="matrix(1.00, 0.00, -0.00, -1.00, 231.0, 145.0)">a</text><text xml:space="preserve" font-family="Helvetica-Light" font-size="35.3" fill="#000000" transform="matrix(1.00, 0.00, -0.00, -1.00, 250.6, 145.0)">l</text><text xml:space="preserve" font-family="Helvetica-Light" font-size="35.3" fill="#000000" transform="matrix(1.00, 0.00, -0.00, -1.00, 258.5, 145.0)">l</text><text xml:space="preserve" font-family="Helvetica-Light" font-size="35.3" fill="#000000" transform="matrix(1.00, 0.00, -0.00, -1.00, 266.3, 145.0)">y</text><text xml:space="preserve" font-family="Helvetica-Light" font-size="35.3" fill="#000000" transform="matrix(1.00, 0.00, -0.00, -1.00, 283.9, 145.0)"> </text><text xml:space="preserve" font-family="Helvetica-Light" font-size="35.3" fill="#000000" transform="matrix(1.00, 0.00, -0.00, -1.00, 293.7, 145.0)">j</text><text xml:space="preserve" font-family="Helvetica-Light" font-size="35.3" fill="#000000" transform="matrix(1.00, 0.00, -0.00, -1.00, 301.6, 145.0)">u</text><text xml:space="preserve" font-family="Helvetica-Light" font-size="35.3" fill="#000000" transform="matrix(1.00, 0.00, -0.00, -1.00, 321.2, 145.0)">s</text><text xml:space="preserve" font-family="Helvetica-Light" font-size="35.3" fill="#000000" transform="matrix(1.00, 0.00, -0.00, -1.00, 338.8, 145.0)">t</text><text xml:space="preserve" font-family="Helvetica-Light" font-size="35.3" fill="#000000" transform="matrix(1.00, 0.00, -0.00, -1.00, 348.6, 145.0)"> </text><text xml:space="preserve" font-family="Helvetica-Light" font-size="35.3" fill="#000000" transform="matrix(1.00, 0.00, -0.00, -1.00, 358.4, 145.0)">a</text><text xml:space="preserve" font-family="Helvetica-Light" font-size="35.3" fill="#000000" transform="matrix(1.00, 0.00, -0.00, -1.00, 378.1, 145.0)"> </text><text xml:space="preserve" font-family="Helvetica-Light" font-size="35.3" fill="#000000" transform="matrix(1.00, 0.00, -0.00, -1.00, 387.9, 145.0)">c</text><text xml:space="preserve" font-family="Helvetica-Light" font-size="35.3" fill="#000000" transform="matrix(1.00, 0.00, -0.00, -1.00, 407.5, 145.0)">o</text><text xml:space="preserve" font-family="Helvetica-Light" font-size="35.3" fill="#000000" transform="matrix(1.00, 0.00, -0.00, -1.00, 427.1, 145.0)">l</text><text xml:space="preserve" font-family="Helvetica-Light" font-size="35.3" fill="#000000" transform="matrix(1.00, 0.00, -0.00, -1.00, 434.9, 145.0)">l</text><text xml:space="preserve" font-family="Helvetica-Light" font-size="35.3" fill="#000000" transform="matrix(1.00, 0.00, -0.00, -1.00, 442.8, 145.0)">e</text><text xml:space="preserve" font-family="Helvetica-Light" font-size="35.3" fill="#000000" transform="matrix(1.00, 0.00, -0.00, -1.00, 462.4, 145.0)">c</text><text xml:space="preserve" font-family="Helvetica-Light" font-size="35.3" fill="#000000" transform="matrix(1.00, 0.00, -0.00, -1.00, 482.0, 145.0)">t</text><text xml:space="preserve" font-family="Helvetica-Light" font-size="35.3" fill="#000000" transform="matrix(1.00, 0.00, -0.00, -1.00, 491.8, 145.0)">i</text><text xml:space="preserve" font-family="Helvetica-Light" font-size="35.3" fill="#000000" transform="matrix(1.00, 0.00, -0.00, -1.00, 499.6, 145.0)">o</text><text xml:space="preserve" font-family="Helvetica-Light" font-size="35.3" fill="#000000" transform="matrix(1.00, 0.00, -0.00, -1.00, 519.3, 145.0)">n</text><text xml:space="preserve" font-family="Helvetica-Light" font-size="35.3" fill="#000000" transform="matrix(1.00, 0.00, -0.00, -1.00, 538.9, 145.0)"> </text><text xml:space="preserve" font-family="Helvetica-Light" font-size="35.3" fill="#000000" transform="matrix(1.00, 0.00, -0.00, -1.00, 548.7, 145.0)">o</text><text xml:space="preserve" font-family="Helvetica-Light" font-size="35.3" fill="#000000" transform="matrix(1.00, 0.00, -0.00, -1.00, 568.3, 145.0)">f</text><text xml:space="preserve" font-family="Helvetica-Light" font-size="35.3" fill="#000000" transform="matrix(1.00, 0.00, -0.00, -1.00, 578.1, 145.0)"> </text><text xml:space="preserve" font-family="Helvetica-Light" font-size="35.3" fill="#000000" transform="matrix(1.00, 0.00, -0.00, -1.00, 587.9, 145.0)">r</text><text xml:space="preserve" font-family="Helvetica-Light" font-size="35.3" fill="#000000" transform="matrix(1.00, 0.00, -0.00, -1.00, 599.0, 145.0)">e</text><text xml:space="preserve" font-family="Helvetica-Light" font-size="35.3" fill="#000000" transform="matrix(1.00, 0.00, -0.00, -1.00, 618.6, 145.0)">l</text><text xml:space="preserve" font-family="Helvetica-Light" font-size="35.3" fill="#000000" transform="matrix(1.00, 0.00, -0.00, -1.00, 626.5, 145.0)">a</text><text xml:space="preserve" font-family="Helvetica-Light" font-size="35.3" fill="#000000" transform="matrix(1.00, 0.00, -0.00, -1.00, 646.1, 145.0)">t</text><text xml:space="preserve" font-family="Helvetica-Light" font-size="35.3" fill="#000000" transform="matrix(1.00, 0.00, -0.00, -1.00, 655.9, 145.0)">e</text><text xml:space="preserve" font-family="Helvetica-Light" font-size="35.3" fill="#000000" transform="matrix(1.00, 0.00, -0.00, -1.00, 675.5, 145.0)">d</text><text xml:space="preserve" font-family="Helvetica-Light" font-size="35.3" fill="#000000" transform="matrix(1.00, 0.00, -0.00, -1.00, 697.1, 145.0)"> </text><text xml:space="preserve" font-family="Helvetica-Light" font-size="35.3" fill="#000000" transform="matrix(1.00, 0.00, -0.00, -1.00, 706.9, 145.0)">f</text><text xml:space="preserve" font-family="Helvetica-Light" font-size="35.3" fill="#000000" transform="matrix(1.00, 0.00, -0.00, -1.00, 716.7, 145.0)">u</text><text xml:space="preserve" font-family="Helvetica-Light" font-size="35.3" fill="#000000" transform="matrix(1.00, 0.00, -0.00, -1.00, 736.3, 145.0)">n</text><text xml:space="preserve" font-family="Helvetica-Light" font-size="35.3" fill="#000000" transform="matrix(1.00, 0.00, -0.00, -1.00, 755.9, 145.0)">c</text><text xml:space="preserve" font-family="Helvetica-Light" font-size="35.3" fill="#000000" transform="matrix(1.00, 0.00, -0.00, -1.00, 775.5, 145.0)">t</text><text xml:space="preserve" font-family="Helvetica-Light" font-size="35.3" fill="#000000" transform="matrix(1.00, 0.00, -0.00, -1.00, 785.3, 145.0)">i</text><text xml:space="preserve" font-family="Helvetica-Light" font-size="35.3" fill="#000000" transform="matrix(1.00, 0.00, -0.00, -1.00, 793.2, 145.0)">o</text><text xml:space="preserve" font-family="Helvetica-Light" font-size="35.3" fill="#000000" transform="matrix(1.00, 0.00, -0.00, -1.00, 812.8, 145.0)">n</text><text xml:space="preserve" font-family="Helvetica-Light" font-size="35.3" fill="#000000" transform="matrix(1.00, 0.00, -0.00, -1.00, 832.4, 145.0)">s</text><text xml:space="preserve" font-family="Helvetica-Light" font-size="35.3" fill="#000000" transform="matrix(1.00, 0.00, -0.00, -1.00, 850.0, 145.0)"> </text><text xml:space="preserve" font-family="Helvetica-Light" font-size="26.5" fill="#000000" transform="matrix(1.00, 0.00, -0.00, -1.00, 79.0, 65.8)">•</text><text xml:space="preserve" font-family="Helvetica-Light" font-size="35.3" fill="#000000" transform="matrix(1.00, 0.00, -0.00, -1.00, 113.0, 62.0)">4</text><text xml:space="preserve" font-family="Helvetica-Light" font-size="35.3" fill="#000000" transform="matrix(1.00, 0.00, -0.00, -1.00, 132.6, 62.0)">0</text><text xml:space="preserve" font-family="Helvetica-Light" font-size="35.3" fill="#000000" transform="matrix(1.00, 0.00, -0.00, -1.00, 152.2, 62.0)"> </text><text xml:space="preserve" font-family="Helvetica-Light" font-size="35.3" fill="#000000" transform="matrix(1.00, 0.00, -0.00, -1.00, 162.0, 62.0)">l</text><text xml:space="preserve" font-family="Helvetica-Light" font-size="35.3" fill="#000000" transform="matrix(1.00, 0.00, -0.00, -1.00, 169.9, 62.0)">i</text><text xml:space="preserve" font-family="Helvetica-Light" font-size="35.3" fill="#000000" transform="matrix(1.00, 0.00, -0.00, -1.00, 177.7, 62.0)">n</text><text xml:space="preserve" font-family="Helvetica-Light" font-size="35.3" fill="#000000" transform="matrix(1.00, 0.00, -0.00, -1.00, 197.3, 62.0)">e</text><text xml:space="preserve" font-family="Helvetica-Light" font-size="35.3" fill="#000000" transform="matrix(1.00, 0.00, -0.00, -1.00, 216.9, 62.0)">s</text><text xml:space="preserve" font-family="Helvetica-Light" font-size="35.3" fill="#000000" transform="matrix(1.00, 0.00, -0.00, -1.00, 234.6, 62.0)">!</text></g></svg>