<?xml version="1.0" encoding="UTF-8" standalone="no"?><svg xmlns="http://www.w3.org/2000/svg" xmlns:xlink="http://www.w3.org/1999/xlink" clip-rule="evenodd" stroke-miterlimit="4.00" viewBox="0 0 1024 768"><desc>SVG generated by Keynote</desc><defs></defs><g transform="matrix(1.00, 0.00, -0.00, -1.00, 0.0, 768.0)"><path d="M 0.0 768.0 L 1024.0 768.0 L 1024.0 0.0 L 0.0 0.0 Z M 0.0 768.0 " fill="#FEFFFF"></path><text xml:space="preserve" font-family="Helvetica-Light" font-size="80.0" fill="#000000" transform="matrix(1.00, 0.00, -0.00, -1.00, 393.0, 618.0)">F</text><text xml:space="preserve" font-family="Helvetica-Light" font-size="80.0" fill="#000000" transform="matrix(1.00, 0.00, -0.00, -1.00, 437.5, 618.0)">a</text><text xml:space="preserve" font-family="Helvetica-Light" font-size="80.0" fill="#000000" transform="matrix(1.00, 0.00, -0.00, -1.00, 482.0, 618.0)">i</text><text xml:space="preserve" font-family="Helvetica-Light" font-size="80.0" fill="#000000" transform="matrix(1.00, 0.00, -0.00, -1.00, 499.7, 618.0)">l</text><text xml:space="preserve" font-family="Helvetica-Light" font-size="80.0" fill="#000000" transform="matrix(1.00, 0.00, -0.00, -1.00, 517.5, 618.0)">u</text><text xml:space="preserve" font-family="Helvetica-Light" font-size="80.0" fill="#000000" transform="matrix(1.00, 0.00, -0.00, -1.00, 562.0, 618.0)">r</text><text xml:space="preserve" font-family="Helvetica-Light" font-size="80.0" fill="#000000" transform="matrix(1.00, 0.00, -0.00, -1.00, 587.2, 618.0)">e</text><text xml:space="preserve" font-family="CourierNewPSMT" font-size="24.0" fill="#999999" transform="matrix(1.00, 0.00, -0.00, -1.00, 108.0, 490.0)"> </text><text xml:space="preserve" font-family="CourierNewPSMT" font-size="24.0" fill="#999999" transform="matrix(1.00, 0.00, -0.00, -1.00, 122.4, 490.0)"> </text><text xml:space="preserve" font-family="CourierNewPSMT" font-size="24.0" fill="#999999" transform="matrix(1.00, 0.00, -0.00, -1.00, 136.8, 490.0)"> </text><text xml:space="preserve" font-family="CourierNewPSMT" font-size="24.0" fill="#999999" transform="matrix(1.00, 0.00, -0.00, -1.00, 151.2, 490.0)"> </text><text xml:space="preserve" font-family="CourierNewPSMT" font-size="24.0" fill="#999999" transform="matrix(1.00, 0.00, -0.00, -1.00, 165.6, 490.0)">1</text><text xml:space="preserve" font-family="CourierNewPSMT" font-size="24.0" fill="#999999" transform="matrix(1.00, 0.00, -0.00, -1.00, 180.0, 490.0)"> </text><text xml:space="preserve" font-family="CourierNewPSMT" font-size="24.0" fill="#000000" transform="matrix(1.00, 0.00, -0.00, -1.00, 194.4, 490.0)">(</text><text xml:space="preserve" font-family="CourierNewPSMT" font-size="24.0" fill="#000000" transform="matrix(1.00, 0.00, -0.00, -1.00, 208.8, 490.0)">g</text><text xml:space="preserve" font-family="CourierNewPSMT" font-size="24.0" fill="#000000" transform="matrix(1.00, 0.00, -0.00, -1.00, 223.2, 490.0)">e</text><text xml:space="preserve" font-family="CourierNewPSMT" font-size="24.0" fill="#000000" transform="matrix(1.00, 0.00, -0.00, -1.00, 237.6, 490.0)">t</text><text xml:space="preserve" font-family="CourierNewPSMT" font-size="24.0" fill="#000000" transform="matrix(1.00, 0.00, -0.00, -1.00, 252.0, 490.0)"> </text><text xml:space="preserve" font-family="CourierNewPSMT" font-size="24.0" fill="#000000" transform="matrix(1.00, 0.00, -0.00, -1.00, 266.4, 490.0)">[</text><text xml:space="preserve" font-family="CourierNewPSMT" font-size="24.0" fill="#FF2C78" transform="matrix(1.00, 0.00, -0.00, -1.00, 280.8, 490.0)">1</text><text xml:space="preserve" font-family="CourierNewPSMT" font-size="24.0" fill="#FF2C78" transform="matrix(1.00, 0.00, -0.00, -1.00, 295.2, 490.0)"> </text><text xml:space="preserve" font-family="CourierNewPSMT" font-size="24.0" fill="#FF2C78" transform="matrix(1.00, 0.00, -0.00, -1.00, 309.6, 490.0)">2</text><text xml:space="preserve" font-family="CourierNewPSMT" font-size="24.0" fill="#FF2C78" transform="matrix(1.00, 0.00, -0.00, -1.00, 324.0, 490.0)"> </text><text xml:space="preserve" font-family="CourierNewPSMT" font-size="24.0" fill="#FF2C78" transform="matrix(1.00, 0.00, -0.00, -1.00, 338.4, 490.0)">3</text><text xml:space="preserve" font-family="CourierNewPSMT" font-size="24.0" fill="#FF2C78" transform="matrix(1.00, 0.00, -0.00, -1.00, 352.9, 490.0)"> </text><text xml:space="preserve" font-family="CourierNewPSMT" font-size="24.0" fill="#FF2C78" transform="matrix(1.00, 0.00, -0.00, -1.00, 367.3, 490.0)">4</text><text xml:space="preserve" font-family="CourierNewPSMT" font-size="24.0" fill="#000000" transform="matrix(1.00, 0.00, -0.00, -1.00, 381.6, 490.0)">]</text><text xml:space="preserve" font-family="CourierNewPSMT" font-size="24.0" fill="#000000" transform="matrix(1.00, 0.00, -0.00, -1.00, 396.0, 490.0)"> </text><text xml:space="preserve" font-family="CourierNewPSMT" font-size="24.0" fill="#FF2C78" transform="matrix(1.00, 0.00, -0.00, -1.00, 410.4, 490.0)">5</text><text xml:space="preserve" font-family="CourierNewPSMT" font-size="24.0" fill="#000000" transform="matrix(1.00, 0.00, -0.00, -1.00, 424.9, 490.0)">)</text><text xml:space="preserve" font-family="CourierNewPSMT" font-size="24.0" fill="#000000" transform="matrix(1.00, 0.00, -0.00, -1.00, 439.3, 490.0)"> </text><text xml:space="preserve" font-family="CourierNewPSMT" font-size="24.0" fill="#999999" transform="matrix(1.00, 0.00, -0.00, -1.00, 108.0, 463.0)"> </text><text xml:space="preserve" font-family="CourierNewPSMT" font-size="24.0" fill="#999999" transform="matrix(1.00, 0.00, -0.00, -1.00, 122.4, 463.0)"> </text><text xml:space="preserve" font-family="CourierNewPSMT" font-size="24.0" fill="#999999" transform="matrix(1.00, 0.00, -0.00, -1.00, 136.8, 463.0)"> </text><text xml:space="preserve" font-family="CourierNewPSMT" font-size="24.0" fill="#999999" transform="matrix(1.00, 0.00, -0.00, -1.00, 151.2, 463.0)"> </text><text xml:space="preserve" font-family="CourierNewPSMT" font-size="24.0" fill="#999999" transform="matrix(1.00, 0.00, -0.00, -1.00, 165.6, 463.0)">2</text><text xml:space="preserve" font-family="CourierNewPSMT" font-size="24.0" fill="#999999" transform="matrix(1.00, 0.00, -0.00, -1.00, 180.0, 463.0)"> </text><text xml:space="preserve" font-family="CourierNewPSMT" font-size="24.0" fill="#000000" transform="matrix(1.00, 0.00, -0.00, -1.00, 194.4, 463.0)">=</text><text xml:space="preserve" font-family="CourierNewPSMT" font-size="24.0" fill="#000000" transform="matrix(1.00, 0.00, -0.00, -1.00, 208.8, 463.0)">&gt;</text><text xml:space="preserve" font-family="CourierNewPSMT" font-size="24.0" fill="#000000" transform="matrix(1.00, 0.00, -0.00, -1.00, 223.2, 463.0)"> </text><text xml:space="preserve" font-family="CourierNewPSMT" font-size="24.0" fill="#000000" transform="matrix(1.00, 0.00, -0.00, -1.00, 237.6, 463.0)">n</text><text xml:space="preserve" font-family="CourierNewPSMT" font-size="24.0" fill="#000000" transform="matrix(1.00, 0.00, -0.00, -1.00, 252.0, 463.0)">i</text><text xml:space="preserve" font-family="CourierNewPSMT" font-size="24.0" fill="#000000" transform="matrix(1.00, 0.00, -0.00, -1.00, 266.4, 463.0)">l</text><text xml:space="preserve" font-family="CourierNewPSMT" font-size="24.0" fill="#000000" transform="matrix(1.00, 0.00, -0.00, -1.00, 280.8, 463.0)"> </text><text xml:space="preserve" font-family="CourierNewPSMT" font-size="24.0" fill="#999999" transform="matrix(1.00, 0.00, -0.00, -1.00, 108.0, 436.0)"> </text><text xml:space="preserve" font-family="CourierNewPSMT" font-size="24.0" fill="#999999" transform="matrix(1.00, 0.00, -0.00, -1.00, 122.4, 436.0)"> </text><text xml:space="preserve" font-family="CourierNewPSMT" font-size="24.0" fill="#999999" transform="matrix(1.00, 0.00, -0.00, -1.00, 136.8, 436.0)"> </text><text xml:space="preserve" font-family="CourierNewPSMT" font-size="24.0" fill="#999999" transform="matrix(1.00, 0.00, -0.00, -1.00, 151.2, 436.0)"> </text><text xml:space="preserve" font-family="CourierNewPSMT" font-size="24.0" fill="#999999" transform="matrix(1.00, 0.00, -0.00, -1.00, 165.6, 436.0)">3</text><text xml:space="preserve" font-family="CourierNewPSMT" font-size="24.0" fill="#999999" transform="matrix(1.00, 0.00, -0.00, -1.00, 180.0, 436.0)"> </text><text xml:space="preserve" font-family="CourierNewPSMT" font-size="24.0" fill="#000000" transform="matrix(1.00, 0.00, -0.00, -1.00, 194.4, 436.0)"> </text><text xml:space="preserve" font-family="CourierNewPSMT" font-size="24.0" fill="#999999" transform="matrix(1.00, 0.00, -0.00, -1.00, 108.0, 409.0)"> </text><text xml:space="preserve" font-family="CourierNewPSMT" font-size="24.0" fill="#999999" transform="matrix(1.00, 0.00, -0.00, -1.00, 122.4, 409.0)"> </text><text xml:space="preserve" font-family="CourierNewPSMT" font-size="24.0" fill="#999999" transform="matrix(1.00, 0.00, -0.00, -1.00, 136.8, 409.0)"> </text><text xml:space="preserve" font-family="CourierNewPSMT" font-size="24.0" fill="#999999" transform="matrix(1.00, 0.00, -0.00, -1.00, 151.2, 409.0)"> </text><text xml:space="preserve" font-family="CourierNewPSMT" font-size="24.0" fill="#999999" transform="matrix(1.00, 0.00, -0.00, -1.00, 165.6, 409.0)">4</text><text xml:space="preserve" font-family="CourierNewPSMT" font-size="24.0" fill="#999999" transform="matrix(1.00, 0.00, -0.00, -1.00, 180.0, 409.0)"> </text><text xml:space="preserve" font-family="CourierNewPSMT" font-size="24.0" fill="#000000" transform="matrix(1.00, 0.00, -0.00, -1.00, 194.4, 409.0)">(</text><text xml:space="preserve" font-family="CourierNewPSMT" font-size="24.0" fill="#000000" transform="matrix(1.00, 0.00, -0.00, -1.00, 208.8, 409.0)">g</text><text xml:space="preserve" font-family="CourierNewPSMT" font-size="24.0" fill="#000000" transform="matrix(1.00, 0.00, -0.00, -1.00, 223.2, 409.0)">e</text><text xml:space="preserve" font-family="CourierNewPSMT" font-size="24.0" fill="#000000" transform="matrix(1.00, 0.00, -0.00, -1.00, 237.6, 409.0)">t</text><text xml:space="preserve" font-family="CourierNewPSMT" font-size="24.0" fill="#000000" transform="matrix(1.00, 0.00, -0.00, -1.00, 252.0, 409.0)"> </text><text xml:space="preserve" font-family="CourierNewPSMT" font-size="24.0" fill="#000000" transform="matrix(1.00, 0.00, -0.00, -1.00, 266.4, 409.0)">#</text><text xml:space="preserve" font-family="CourierNewPSMT" font-size="24.0" fill="#000000" transform="matrix(1.00, 0.00, -0.00, -1.00, 280.8, 409.0)">{</text><text xml:space="preserve" font-family="CourierNewPSMT" font-size="24.0" fill="#FF2C78" transform="matrix(1.00, 0.00, -0.00, -1.00, 295.2, 409.0)">1</text><text xml:space="preserve" font-family="CourierNewPSMT" font-size="24.0" fill="#FF2C78" transform="matrix(1.00, 0.00, -0.00, -1.00, 309.6, 409.0)"> </text><text xml:space="preserve" font-family="CourierNewPSMT" font-size="24.0" fill="#FF2C78" transform="matrix(1.00, 0.00, -0.00, -1.00, 324.0, 409.0)">2</text><text xml:space="preserve" font-family="CourierNewPSMT" font-size="24.0" fill="#FF2C78" transform="matrix(1.00, 0.00, -0.00, -1.00, 338.4, 409.0)"> </text><text xml:space="preserve" font-family="CourierNewPSMT" font-size="24.0" fill="#FF2C78" transform="matrix(1.00, 0.00, -0.00, -1.00, 352.8, 409.0)">3</text><text xml:space="preserve" font-family="CourierNewPSMT" font-size="24.0" fill="#FF2C78" transform="matrix(1.00, 0.00, -0.00, -1.00, 367.3, 409.0)"> </text><text xml:space="preserve" font-family="CourierNewPSMT" font-size="24.0" fill="#FF2C78" transform="matrix(1.00, 0.00, -0.00, -1.00, 381.7, 409.0)">4</text><text xml:space="preserve" font-family="CourierNewPSMT" font-size="24.0" fill="#000000" transform="matrix(1.00, 0.00, -0.00, -1.00, 396.0, 409.0)">}</text><text xml:space="preserve" font-family="CourierNewPSMT" font-size="24.0" fill="#000000" transform="matrix(1.00, 0.00, -0.00, -1.00, 410.5, 409.0)"> </text><text xml:space="preserve" font-family="CourierNewPSMT" font-size="24.0" fill="#FF2C78" transform="matrix(1.00, 0.00, -0.00, -1.00, 424.9, 409.0)">5</text><text xml:space="preserve" font-family="CourierNewPSMT" font-size="24.0" fill="#000000" transform="matrix(1.00, 0.00, -0.00, -1.00, 439.3, 409.0)">)</text><text xml:space="preserve" font-family="CourierNewPSMT" font-size="24.0" fill="#000000" transform="matrix(1.00, 0.00, -0.00, -1.00, 453.7, 409.0)"> </text><text xml:space="preserve" font-family="CourierNewPSMT" font-size="24.0" fill="#999999" transform="matrix(1.00, 0.00, -0.00, -1.00, 108.0, 382.0)"> </text><text xml:space="preserve" font-family="CourierNewPSMT" font-size="24.0" fill="#999999" transform="matrix(1.00, 0.00, -0.00, -1.00, 122.4, 382.0)"> </text><text xml:space="preserve" font-family="CourierNewPSMT" font-size="24.0" fill="#999999" transform="matrix(1.00, 0.00, -0.00, -1.00, 136.8, 382.0)"> </text><text xml:space="preserve" font-family="CourierNewPSMT" font-size="24.0" fill="#999999" transform="matrix(1.00, 0.00, -0.00, -1.00, 151.2, 382.0)"> </text><text xml:space="preserve" font-family="CourierNewPSMT" font-size="24.0" fill="#999999" transform="matrix(1.00, 0.00, -0.00, -1.00, 165.6, 382.0)">5</text><text xml:space="preserve" font-family="CourierNewPSMT" font-size="24.0" fill="#999999" transform="matrix(1.00, 0.00, -0.00, -1.00, 180.0, 382.0)"> </text><text xml:space="preserve" font-family="CourierNewPSMT" font-size="24.0" fill="#000000" transform="matrix(1.00, 0.00, -0.00, -1.00, 194.4, 382.0)">=</text><text xml:space="preserve" font-family="CourierNewPSMT" font-size="24.0" fill="#000000" transform="matrix(1.00, 0.00, -0.00, -1.00, 208.8, 382.0)">&gt;</text><text xml:space="preserve" font-family="CourierNewPSMT" font-size="24.0" fill="#000000" transform="matrix(1.00, 0.00, -0.00, -1.00, 223.2, 382.0)"> </text><text xml:space="preserve" font-family="CourierNewPSMT" font-size="24.0" fill="#000000" transform="matrix(1.00, 0.00, -0.00, -1.00, 237.6, 382.0)">n</text><text xml:space="preserve" font-family="CourierNewPSMT" font-size="24.0" fill="#000000" transform="matrix(1.00, 0.00, -0.00, -1.00, 252.0, 382.0)">i</text><text xml:space="preserve" font-family="CourierNewPSMT" font-size="24.0" fill="#000000" transform="matrix(1.00, 0.00, -0.00, -1.00, 266.4, 382.0)">l</text><text xml:space="preserve" font-family="CourierNewPSMT" font-size="24.0" fill="#000000" transform="matrix(1.00, 0.00, -0.00, -1.00, 280.8, 382.0)"> </text><text xml:space="preserve" font-family="CourierNewPSMT" font-size="24.0" fill="#999999" transform="matrix(1.00, 0.00, -0.00, -1.00, 108.0, 355.0)"> </text><text xml:space="preserve" font-family="CourierNewPSMT" font-size="24.0" fill="#999999" transform="matrix(1.00, 0.00, -0.00, -1.00, 122.4, 355.0)"> </text><text xml:space="preserve" font-family="CourierNewPSMT" font-size="24.0" fill="#999999" transform="matrix(1.00, 0.00, -0.00, -1.00, 136.8, 355.0)"> </text><text xml:space="preserve" font-family="CourierNewPSMT" font-size="24.0" fill="#999999" transform="matrix(1.00, 0.00, -0.00, -1.00, 151.2, 355.0)"> </text><text xml:space="preserve" font-family="CourierNewPSMT" font-size="24.0" fill="#999999" transform="matrix(1.00, 0.00, -0.00, -1.00, 165.6, 355.0)">6</text><text xml:space="preserve" font-family="CourierNewPSMT" font-size="24.0" fill="#999999" transform="matrix(1.00, 0.00, -0.00, -1.00, 180.0, 355.0)"> </text><text xml:space="preserve" font-family="CourierNewPSMT" font-size="24.0" fill="#000000" transform="matrix(1.00, 0.00, -0.00, -1.00, 194.4, 355.0)"> </text><text xml:space="preserve" font-family="CourierNewPSMT" font-size="24.0" fill="#999999" transform="matrix(1.00, 0.00, -0.00, -1.00, 108.0, 328.0)"> </text><text xml:space="preserve" font-family="CourierNewPSMT" font-size="24.0" fill="#999999" transform="matrix(1.00, 0.00, -0.00, -1.00, 122.4, 328.0)"> </text><text xml:space="preserve" font-family="CourierNewPSMT" font-size="24.0" fill="#999999" transform="matrix(1.00, 0.00, -0.00, -1.00, 136.8, 328.0)"> </text><text xml:space="preserve" font-family="CourierNewPSMT" font-size="24.0" fill="#999999" transform="matrix(1.00, 0.00, -0.00, -1.00, 151.2, 328.0)"> </text><text xml:space="preserve" font-family="CourierNewPSMT" font-size="24.0" fill="#999999" transform="matrix(1.00, 0.00, -0.00, -1.00, 165.6, 328.0)">7</text><text xml:space="preserve" font-family="CourierNewPSMT" font-size="24.0" fill="#999999" transform="matrix(1.00, 0.00, -0.00, -1.00, 180.0, 328.0)"> </text><text xml:space="preserve" font-family="CourierNewPSMT" font-size="24.0" fill="#000000" transform="matrix(1.00, 0.00, -0.00, -1.00, 194.4, 328.0)">(</text><text xml:space="preserve" font-family="CourierNewPSMT" font-size="24.0" fill="#000000" transform="matrix(1.00, 0.00, -0.00, -1.00, 208.8, 328.0)">g</text><text xml:space="preserve" font-family="CourierNewPSMT" font-size="24.0" fill="#000000" transform="matrix(1.00, 0.00, -0.00, -1.00, 223.2, 328.0)">e</text><text xml:space="preserve" font-family="CourierNewPSMT" font-size="24.0" fill="#000000" transform="matrix(1.00, 0.00, -0.00, -1.00, 237.6, 328.0)">t</text><text xml:space="preserve" font-family="CourierNewPSMT" font-size="24.0" fill="#000000" transform="matrix(1.00, 0.00, -0.00, -1.00, 252.0, 328.0)"> </text><text xml:space="preserve" font-family="CourierNewPSMT" font-size="24.0" fill="#000000" transform="matrix(1.00, 0.00, -0.00, -1.00, 266.4, 328.0)">{</text><text xml:space="preserve" font-family="CourierNewPSMT" font-size="24.0" fill="#FF40FF" transform="matrix(1.00, 0.00, -0.00, -1.00, 280.8, 328.0)">"</text><text xml:space="preserve" font-family="CourierNewPSMT" font-size="24.0" fill="#FF40FF" transform="matrix(1.00, 0.00, -0.00, -1.00, 295.2, 328.0)">O</text><text xml:space="preserve" font-family="CourierNewPSMT" font-size="24.0" fill="#FF40FF" transform="matrix(1.00, 0.00, -0.00, -1.00, 309.6, 328.0)">N</text><text xml:space="preserve" font-family="CourierNewPSMT" font-size="24.0" fill="#FF40FF" transform="matrix(1.00, 0.00, -0.00, -1.00, 324.0, 328.0)">E</text><text xml:space="preserve" font-family="CourierNewPSMT" font-size="24.0" fill="#FF40FF" transform="matrix(1.00, 0.00, -0.00, -1.00, 338.4, 328.0)">"</text><text xml:space="preserve" font-family="CourierNewPSMT" font-size="24.0" fill="#000000" transform="matrix(1.00, 0.00, -0.00, -1.00, 352.8, 328.0)"> </text><text xml:space="preserve" font-family="CourierNewPSMT" font-size="24.0" fill="#FF2C78" transform="matrix(1.00, 0.00, -0.00, -1.00, 367.2, 328.0)">1</text><text xml:space="preserve" font-family="CourierNewPSMT" font-size="24.0" fill="#000000" transform="matrix(1.00, 0.00, -0.00, -1.00, 381.6, 328.0)"> </text><text xml:space="preserve" font-family="CourierNewPSMT" font-size="24.0" fill="#FF40FF" transform="matrix(1.00, 0.00, -0.00, -1.00, 396.0, 328.0)">"</text><text xml:space="preserve" font-family="CourierNewPSMT" font-size="24.0" fill="#FF40FF" transform="matrix(1.00, 0.00, -0.00, -1.00, 410.5, 328.0)">T</text><text xml:space="preserve" font-family="CourierNewPSMT" font-size="24.0" fill="#FF40FF" transform="matrix(1.00, 0.00, -0.00, -1.00, 424.9, 328.0)">W</text><text xml:space="preserve" font-family="CourierNewPSMT" font-size="24.0" fill="#FF40FF" transform="matrix(1.00, 0.00, -0.00, -1.00, 439.3, 328.0)">O</text><text xml:space="preserve" font-family="CourierNewPSMT" font-size="24.0" fill="#FF40FF" transform="matrix(1.00, 0.00, -0.00, -1.00, 453.7, 328.0)">"</text><text xml:space="preserve" font-family="CourierNewPSMT" font-size="24.0" fill="#000000" transform="matrix(1.00, 0.00, -0.00, -1.00, 468.1, 328.0)"> </text><text xml:space="preserve" font-family="CourierNewPSMT" font-size="24.0" fill="#FF2C78" transform="matrix(1.00, 0.00, -0.00, -1.00, 482.5, 328.0)">2</text><text xml:space="preserve" font-family="CourierNewPSMT" font-size="24.0" fill="#000000" transform="matrix(1.00, 0.00, -0.00, -1.00, 496.9, 328.0)"> </text><text xml:space="preserve" font-family="CourierNewPSMT" font-size="24.0" fill="#FF40FF" transform="matrix(1.00, 0.00, -0.00, -1.00, 511.3, 328.0)">"</text><text xml:space="preserve" font-family="CourierNewPSMT" font-size="24.0" fill="#FF40FF" transform="matrix(1.00, 0.00, -0.00, -1.00, 525.7, 328.0)">T</text><text xml:space="preserve" font-family="CourierNewPSMT" font-size="24.0" fill="#FF40FF" transform="matrix(1.00, 0.00, -0.00, -1.00, 540.1, 328.0)">H</text><text xml:space="preserve" font-family="CourierNewPSMT" font-size="24.0" fill="#FF40FF" transform="matrix(1.00, 0.00, -0.00, -1.00, 554.5, 328.0)">R</text><text xml:space="preserve" font-family="CourierNewPSMT" font-size="24.0" fill="#FF40FF" transform="matrix(1.00, 0.00, -0.00, -1.00, 568.9, 328.0)">E</text><text xml:space="preserve" font-family="CourierNewPSMT" font-size="24.0" fill="#FF40FF" transform="matrix(1.00, 0.00, -0.00, -1.00, 583.3, 328.0)">E</text><text xml:space="preserve" font-family="CourierNewPSMT" font-size="24.0" fill="#FF40FF" transform="matrix(1.00, 0.00, -0.00, -1.00, 597.7, 328.0)">"</text><text xml:space="preserve" font-family="CourierNewPSMT" font-size="24.0" fill="#000000" transform="matrix(1.00, 0.00, -0.00, -1.00, 612.1, 328.0)"> </text><text xml:space="preserve" font-family="CourierNewPSMT" font-size="24.0" fill="#FF2C78" transform="matrix(1.00, 0.00, -0.00, -1.00, 626.5, 328.0)">3</text><text xml:space="preserve" font-family="CourierNewPSMT" font-size="24.0" fill="#000000" transform="matrix(1.00, 0.00, -0.00, -1.00, 640.9, 328.0)"> </text><text xml:space="preserve" font-family="CourierNewPSMT" font-size="24.0" fill="#FF40FF" transform="matrix(1.00, 0.00, -0.00, -1.00, 655.3, 328.0)">"</text><text xml:space="preserve" font-family="CourierNewPSMT" font-size="24.0" fill="#FF40FF" transform="matrix(1.00, 0.00, -0.00, -1.00, 669.7, 328.0)">F</text><text xml:space="preserve" font-family="CourierNewPSMT" font-size="24.0" fill="#FF40FF" transform="matrix(1.00, 0.00, -0.00, -1.00, 684.1, 328.0)">O</text><text xml:space="preserve" font-family="CourierNewPSMT" font-size="24.0" fill="#FF40FF" transform="matrix(1.00, 0.00, -0.00, -1.00, 698.5, 328.0)">U</text><text xml:space="preserve" font-family="CourierNewPSMT" font-size="24.0" fill="#FF40FF" transform="matrix(1.00, 0.00, -0.00, -1.00, 712.9, 328.0)">R</text><text xml:space="preserve" font-family="CourierNewPSMT" font-size="24.0" fill="#FF40FF" transform="matrix(1.00, 0.00, -0.00, -1.00, 727.3, 328.0)">"</text><text xml:space="preserve" font-family="CourierNewPSMT" font-size="24.0" fill="#000000" transform="matrix(1.00, 0.00, -0.00, -1.00, 741.7, 328.0)"> </text><text xml:space="preserve" font-family="CourierNewPSMT" font-size="24.0" fill="#FF2C78" transform="matrix(1.00, 0.00, -0.00, -1.00, 756.1, 328.0)">4</text><text xml:space="preserve" font-family="CourierNewPSMT" font-size="24.0" fill="#000000" transform="matrix(1.00, 0.00, -0.00, -1.00, 770.5, 328.0)">}</text><text xml:space="preserve" font-family="CourierNewPSMT" font-size="24.0" fill="#000000" transform="matrix(1.00, 0.00, -0.00, -1.00, 784.9, 328.0)"> </text><text xml:space="preserve" font-family="CourierNewPSMT" font-size="24.0" fill="#FF40FF" transform="matrix(1.00, 0.00, -0.00, -1.00, 799.3, 328.0)">"</text><text xml:space="preserve" font-family="CourierNewPSMT" font-size="24.0" fill="#FF40FF" transform="matrix(1.00, 0.00, -0.00, -1.00, 813.7, 328.0)">F</text><text xml:space="preserve" font-family="CourierNewPSMT" font-size="24.0" fill="#FF40FF" transform="matrix(1.00, 0.00, -0.00, -1.00, 828.1, 328.0)">I</text><text xml:space="preserve" font-family="CourierNewPSMT" font-size="24.0" fill="#FF40FF" transform="matrix(1.00, 0.00, -0.00, -1.00, 842.5, 328.0)">V</text><text xml:space="preserve" font-family="CourierNewPSMT" font-size="24.0" fill="#FF40FF" transform="matrix(1.00, 0.00, -0.00, -1.00, 856.9, 328.0)">E</text><text xml:space="preserve" font-family="CourierNewPSMT" font-size="24.0" fill="#FF40FF" transform="matrix(1.00, 0.00, -0.00, -1.00, 871.3, 328.0)">"</text><text xml:space="preserve" font-family="CourierNewPSMT" font-size="24.0" fill="#000000" transform="matrix(1.00, 0.00, -0.00, -1.00, 885.7, 328.0)">)</text><text xml:space="preserve" font-family="CourierNewPSMT" font-size="24.0" fill="#000000" transform="matrix(1.00, 0.00, -0.00, -1.00, 900.1, 328.0)"> </text><text xml:space="preserve" font-family="CourierNewPSMT" font-size="24.0" fill="#999999" transform="matrix(1.00, 0.00, -0.00, -1.00, 108.0, 301.0)"> </text><text xml:space="preserve" font-family="CourierNewPSMT" font-size="24.0" fill="#999999" transform="matrix(1.00, 0.00, -0.00, -1.00, 122.4, 301.0)"> </text><text xml:space="preserve" font-family="CourierNewPSMT" font-size="24.0" fill="#999999" transform="matrix(1.00, 0.00, -0.00, -1.00, 136.8, 301.0)"> </text><text xml:space="preserve" font-family="CourierNewPSMT" font-size="24.0" fill="#999999" transform="matrix(1.00, 0.00, -0.00, -1.00, 151.2, 301.0)"> </text><text xml:space="preserve" font-family="CourierNewPSMT" font-size="24.0" fill="#999999" transform="matrix(1.00, 0.00, -0.00, -1.00, 165.6, 301.0)">8</text><text xml:space="preserve" font-family="CourierNewPSMT" font-size="24.0" fill="#999999" transform="matrix(1.00, 0.00, -0.00, -1.00, 180.0, 301.0)"> </text><text xml:space="preserve" font-family="CourierNewPSMT" font-size="24.0" fill="#000000" transform="matrix(1.00, 0.00, -0.00, -1.00, 194.4, 301.0)">=</text><text xml:space="preserve" font-family="CourierNewPSMT" font-size="24.0" fill="#000000" transform="matrix(1.00, 0.00, -0.00, -1.00, 208.8, 301.0)">&gt;</text><text xml:space="preserve" font-family="CourierNewPSMT" font-size="24.0" fill="#000000" transform="matrix(1.00, 0.00, -0.00, -1.00, 223.2, 301.0)"> </text><text xml:space="preserve" font-family="CourierNewPSMT" font-size="24.0" fill="#000000" transform="matrix(1.00, 0.00, -0.00, -1.00, 237.6, 301.0)">n</text><text xml:space="preserve" font-family="CourierNewPSMT" font-size="24.0" fill="#000000" transform="matrix(1.00, 0.00, -0.00, -1.00, 252.0, 301.0)">i</text><text xml:space="preserve" font-family="CourierNewPSMT" font-size="24.0" fill="#000000" transform="matrix(1.00, 0.00, -0.00, -1.00, 266.4, 301.0)">l</text><text xml:space="preserve" font-family="CourierNewPSMT" font-size="24.0" fill="#000000" transform="matrix(1.00, 0.00, -0.00, -1.00, 280.8, 301.0)"> </text><text xml:space="preserve" font-family="Helvetica-Light" font-size="36.0" fill="#000000" transform="matrix(1.00, 0.00, -0.00, -1.00, 161.0, 175.0)">R</text><text xml:space="preserve" font-family="Helvetica-Light" font-size="36.0" fill="#000000" transform="matrix(1.00, 0.00, -0.00, -1.00, 185.0, 175.0)">e</text><text xml:space="preserve" font-family="Helvetica-Light" font-size="36.0" fill="#000000" transform="matrix(1.00, 0.00, -0.00, -1.00, 205.0, 175.0)">t</text><text xml:space="preserve" font-family="Helvetica-Light" font-size="36.0" fill="#000000" transform="matrix(1.00, 0.00, -0.00, -1.00, 215.0, 175.0)">u</text><text xml:space="preserve" font-family="Helvetica-Light" font-size="36.0" fill="#000000" transform="matrix(1.00, 0.00, -0.00, -1.00, 235.1, 175.0)">r</text><text xml:space="preserve" font-family="Helvetica-Light" font-size="36.0" fill="#000000" transform="matrix(1.00, 0.00, -0.00, -1.00, 247.7, 175.0)">n</text><text xml:space="preserve" font-family="Helvetica-Light" font-size="36.0" fill="#000000" transform="matrix(1.00, 0.00, -0.00, -1.00, 267.7, 175.0)"> </text><text xml:space="preserve" font-family="Helvetica-Light" font-size="36.0" fill="#000000" transform="matrix(1.00, 0.00, -0.00, -1.00, 277.7, 175.0)">n</text><text xml:space="preserve" font-family="Helvetica-Light" font-size="36.0" fill="#000000" transform="matrix(1.00, 0.00, -0.00, -1.00, 297.7, 175.0)">i</text><text xml:space="preserve" font-family="Helvetica-Light" font-size="36.0" fill="#000000" transform="matrix(1.00, 0.00, -0.00, -1.00, 305.7, 175.0)">l</text><text xml:space="preserve" font-family="Helvetica-Light" font-size="36.0" fill="#000000" transform="matrix(1.00, 0.00, -0.00, -1.00, 313.7, 175.0)"> </text><text xml:space="preserve" font-family="Helvetica-Light" font-size="36.0" fill="#000000" transform="matrix(1.00, 0.00, -0.00, -1.00, 323.7, 175.0)">r</text><text xml:space="preserve" font-family="Helvetica-Light" font-size="36.0" fill="#000000" transform="matrix(1.00, 0.00, -0.00, -1.00, 335.7, 175.0)">a</text><text xml:space="preserve" font-family="Helvetica-Light" font-size="36.0" fill="#000000" transform="matrix(1.00, 0.00, -0.00, -1.00, 355.7, 175.0)">t</text><text xml:space="preserve" font-family="Helvetica-Light" font-size="36.0" fill="#000000" transform="matrix(1.00, 0.00, -0.00, -1.00, 365.7, 175.0)">h</text><text xml:space="preserve" font-family="Helvetica-Light" font-size="36.0" fill="#000000" transform="matrix(1.00, 0.00, -0.00, -1.00, 385.7, 175.0)">e</text><text xml:space="preserve" font-family="Helvetica-Light" font-size="36.0" fill="#000000" transform="matrix(1.00, 0.00, -0.00, -1.00, 405.8, 175.0)">r</text><text xml:space="preserve" font-family="Helvetica-Light" font-size="36.0" fill="#000000" transform="matrix(1.00, 0.00, -0.00, -1.00, 417.8, 175.0)"> </text><text xml:space="preserve" font-family="Helvetica-Light" font-size="36.0" fill="#000000" transform="matrix(1.00, 0.00, -0.00, -1.00, 427.8, 175.0)">t</text><text xml:space="preserve" font-family="Helvetica-Light" font-size="36.0" fill="#000000" transform="matrix(1.00, 0.00, -0.00, -1.00, 437.8, 175.0)">h</text><text xml:space="preserve" font-family="Helvetica-Light" font-size="36.0" fill="#000000" transform="matrix(1.00, 0.00, -0.00, -1.00, 457.8, 175.0)">a</text><text xml:space="preserve" font-family="Helvetica-Light" font-size="36.0" fill="#000000" transform="matrix(1.00, 0.00, -0.00, -1.00, 477.8, 175.0)">n</text><text xml:space="preserve" font-family="Helvetica-Light" font-size="36.0" fill="#000000" transform="matrix(1.00, 0.00, -0.00, -1.00, 497.8, 175.0)"> </text><text xml:space="preserve" font-family="Helvetica-Light" font-size="36.0" fill="#000000" transform="matrix(1.00, 0.00, -0.00, -1.00, 507.8, 175.0)">t</text><text xml:space="preserve" font-family="Helvetica-Light" font-size="36.0" fill="#000000" transform="matrix(1.00, 0.00, -0.00, -1.00, 517.8, 175.0)">h</text><text xml:space="preserve" font-family="Helvetica-Light" font-size="36.0" fill="#000000" transform="matrix(1.00, 0.00, -0.00, -1.00, 537.8, 175.0)">r</text><text xml:space="preserve" font-family="Helvetica-Light" font-size="36.0" fill="#000000" transform="matrix(1.00, 0.00, -0.00, -1.00, 549.2, 175.0)">o</text><text xml:space="preserve" font-family="Helvetica-Light" font-size="36.0" fill="#000000" transform="matrix(1.00, 0.00, -0.00, -1.00, 569.2, 175.0)">w</text><text xml:space="preserve" font-family="Helvetica-Light" font-size="36.0" fill="#000000" transform="matrix(1.00, 0.00, -0.00, -1.00, 595.2, 175.0)">i</text><text xml:space="preserve" font-family="Helvetica-Light" font-size="36.0" fill="#000000" transform="matrix(1.00, 0.00, -0.00, -1.00, 603.2, 175.0)">n</text><text xml:space="preserve" font-family="Helvetica-Light" font-size="36.0" fill="#000000" transform="matrix(1.00, 0.00, -0.00, -1.00, 623.2, 175.0)">g</text><text xml:space="preserve" font-family="Helvetica-Light" font-size="36.0" fill="#000000" transform="matrix(1.00, 0.00, -0.00, -1.00, 645.2, 175.0)"> </text><text xml:space="preserve" font-family="Helvetica-Light" font-size="36.0" fill="#000000" transform="matrix(1.00, 0.00, -0.00, -1.00, 655.2, 175.0)">a</text><text xml:space="preserve" font-family="Helvetica-Light" font-size="36.0" fill="#000000" transform="matrix(1.00, 0.00, -0.00, -1.00, 675.2, 175.0)">n</text><text xml:space="preserve" font-family="Helvetica-Light" font-size="36.0" fill="#000000" transform="matrix(1.00, 0.00, -0.00, -1.00, 695.2, 175.0)"> </text><text xml:space="preserve" font-family="Helvetica-Light" font-size="36.0" fill="#000000" transform="matrix(1.00, 0.00, -0.00, -1.00, 705.2, 175.0)">e</text><text xml:space="preserve" font-family="Helvetica-Light" font-size="36.0" fill="#000000" transform="matrix(1.00, 0.00, -0.00, -1.00, 725.3, 175.0)">x</text><text xml:space="preserve" font-family="Helvetica-Light" font-size="36.0" fill="#000000" transform="matrix(1.00, 0.00, -0.00, -1.00, 743.3, 175.0)">c</text><text xml:space="preserve" font-family="Helvetica-Light" font-size="36.0" fill="#000000" transform="matrix(1.00, 0.00, -0.00, -1.00, 763.3, 175.0)">e</text><text xml:space="preserve" font-family="Helvetica-Light" font-size="36.0" fill="#000000" transform="matrix(1.00, 0.00, -0.00, -1.00, 783.3, 175.0)">p</text><text xml:space="preserve" font-family="Helvetica-Light" font-size="36.0" fill="#000000" transform="matrix(1.00, 0.00, -0.00, -1.00, 805.3, 175.0)">t</text><text xml:space="preserve" font-family="Helvetica-Light" font-size="36.0" fill="#000000" transform="matrix(1.00, 0.00, -0.00, -1.00, 815.3, 175.0)">i</text><text xml:space="preserve" font-family="Helvetica-Light" font-size="36.0" fill="#000000" transform="matrix(1.00, 0.00, -0.00, -1.00, 823.3, 175.0)">o</text><text xml:space="preserve" font-family="Helvetica-Light" font-size="36.0" fill="#000000" transform="matrix(1.00, 0.00, -0.00, -1.00, 843.3, 175.0)">n</text></g></svg>