<?xml version="1.0" encoding="UTF-8" standalone="no"?><svg xmlns="http://www.w3.org/2000/svg" xmlns:xlink="http://www.w3.org/1999/xlink" clip-rule="evenodd" stroke-miterlimit="4.00" viewBox="0 0 1024 768"><desc>SVG generated by Keynote</desc><defs></defs><g transform="matrix(1.00, 0.00, -0.00, -1.00, 0.0, 768.0)"><path d="M 0.0 768.0 L 1024.0 768.0 L 1024.0 0.0 L 0.0 0.0 Z M 0.0 768.0 " fill="#FEFFFF"></path><text xml:space="preserve" font-family="Helvetica-Light" font-size="52.0" fill="#000000" transform="matrix(1.00, 0.00, -0.00, -1.00, 142.0, 547.0)">B</text><text xml:space="preserve" font-family="Helvetica-Light" font-size="52.0" fill="#000000" transform="matrix(1.00, 0.00, -0.00, -1.00, 176.7, 547.0)">o</text><text xml:space="preserve" font-family="Helvetica-Light" font-size="52.0" fill="#000000" transform="matrix(1.00, 0.00, -0.00, -1.00, 205.6, 547.0)">t</text><text xml:space="preserve" font-family="Helvetica-Light" font-size="52.0" fill="#000000" transform="matrix(1.00, 0.00, -0.00, -1.00, 220.1, 547.0)">t</text><text xml:space="preserve" font-family="Helvetica-Light" font-size="52.0" fill="#000000" transform="matrix(1.00, 0.00, -0.00, -1.00, 234.5, 547.0)">o</text><text xml:space="preserve" font-family="Helvetica-Light" font-size="52.0" fill="#000000" transform="matrix(1.00, 0.00, -0.00, -1.00, 263.4, 547.0)">m</text><text xml:space="preserve" font-family="Helvetica-Light" font-size="52.0" fill="#000000" transform="matrix(1.00, 0.00, -0.00, -1.00, 306.7, 547.0)"> </text><text xml:space="preserve" font-family="Helvetica-Light" font-size="52.0" fill="#000000" transform="matrix(1.00, 0.00, -0.00, -1.00, 321.2, 547.0)">U</text><text xml:space="preserve" font-family="Helvetica-Light" font-size="52.0" fill="#000000" transform="matrix(1.00, 0.00, -0.00, -1.00, 358.7, 547.0)">p</text><text xml:space="preserve" font-family="Helvetica-Light" font-size="52.0" fill="#000000" transform="matrix(1.00, 0.00, -0.00, -1.00, 390.5, 547.0)"> </text><text xml:space="preserve" font-family="Helvetica-Light" font-size="52.0" fill="#000000" transform="matrix(1.00, 0.00, -0.00, -1.00, 405.0, 547.0)">v</text><text xml:space="preserve" font-family="Helvetica-Light" font-size="52.0" fill="#000000" transform="matrix(1.00, 0.00, -0.00, -1.00, 431.0, 547.0)">s</text><text xml:space="preserve" font-family="Helvetica-Light" font-size="52.0" fill="#000000" transform="matrix(1.00, 0.00, -0.00, -1.00, 457.0, 547.0)">.</text><text xml:space="preserve" font-family="Helvetica-Light" font-size="52.0" fill="#000000" transform="matrix(1.00, 0.00, -0.00, -1.00, 471.4, 547.0)">T</text><text xml:space="preserve" font-family="Helvetica-Light" font-size="52.0" fill="#000000" transform="matrix(1.00, 0.00, -0.00, -1.00, 494.6, 547.0)">o</text><text xml:space="preserve" font-family="Helvetica-Light" font-size="52.0" fill="#000000" transform="matrix(1.00, 0.00, -0.00, -1.00, 523.5, 547.0)">p</text><text xml:space="preserve" font-family="Helvetica-Light" font-size="52.0" fill="#000000" transform="matrix(1.00, 0.00, -0.00, -1.00, 555.2, 547.0)"> </text><text xml:space="preserve" font-family="Helvetica-Light" font-size="52.0" fill="#000000" transform="matrix(1.00, 0.00, -0.00, -1.00, 569.7, 547.0)">D</text><text xml:space="preserve" font-family="Helvetica-Light" font-size="52.0" fill="#000000" transform="matrix(1.00, 0.00, -0.00, -1.00, 607.2, 547.0)">o</text><text xml:space="preserve" font-family="Helvetica-Light" font-size="52.0" fill="#000000" transform="matrix(1.00, 0.00, -0.00, -1.00, 636.2, 547.0)">w</text><text xml:space="preserve" font-family="Helvetica-Light" font-size="52.0" fill="#000000" transform="matrix(1.00, 0.00, -0.00, -1.00, 673.7, 547.0)">n</text><text xml:space="preserve" font-family="Helvetica-Light" font-size="52.0" fill="#000000" transform="matrix(1.00, 0.00, -0.00, -1.00, 702.6, 547.0)"> </text><text xml:space="preserve" font-family="Helvetica-Light" font-size="52.0" fill="#000000" transform="matrix(1.00, 0.00, -0.00, -1.00, 717.1, 547.0)">D</text><text xml:space="preserve" font-family="Helvetica-Light" font-size="52.0" fill="#000000" transform="matrix(1.00, 0.00, -0.00, -1.00, 754.6, 547.0)">e</text><text xml:space="preserve" font-family="Helvetica-Light" font-size="52.0" fill="#000000" transform="matrix(1.00, 0.00, -0.00, -1.00, 783.5, 547.0)">s</text><text xml:space="preserve" font-family="Helvetica-Light" font-size="52.0" fill="#000000" transform="matrix(1.00, 0.00, -0.00, -1.00, 809.5, 547.0)">i</text><text xml:space="preserve" font-family="Helvetica-Light" font-size="52.0" fill="#000000" transform="matrix(1.00, 0.00, -0.00, -1.00, 821.1, 547.0)">g</text><text xml:space="preserve" font-family="Helvetica-Light" font-size="52.0" fill="#000000" transform="matrix(1.00, 0.00, -0.00, -1.00, 852.8, 547.0)">n</text><text xml:space="preserve" font-family="Helvetica-Light" font-size="52.0" fill="#000000" transform="matrix(1.00, 0.00, -0.00, -1.00, 881.8, 547.0)"> </text><text xml:space="preserve" font-family="Helvetica-Light" font-size="52.0" fill="#000000" transform="matrix(1.00, 0.00, -0.00, -1.00, 489.0, 485.0)">o</text><text xml:space="preserve" font-family="Helvetica-Light" font-size="52.0" fill="#000000" transform="matrix(1.00, 0.00, -0.00, -1.00, 517.9, 485.0)">r</text><text xml:space="preserve" font-family="Helvetica-Light" font-size="52.0" fill="#000000" transform="matrix(1.00, 0.00, -0.00, -1.00, 535.2, 485.0)"> </text><text xml:space="preserve" font-family="Helvetica-Light" font-size="52.0" fill="#000000" transform="matrix(1.00, 0.00, -0.00, -1.00, 167.0, 423.0)">A</text><text xml:space="preserve" font-family="Helvetica-Light" font-size="52.0" fill="#000000" transform="matrix(1.00, 0.00, -0.00, -1.00, 201.7, 423.0)">P</text><text xml:space="preserve" font-family="Helvetica-Light" font-size="52.0" fill="#000000" transform="matrix(1.00, 0.00, -0.00, -1.00, 233.5, 423.0)">I</text><text xml:space="preserve" font-family="Helvetica-Light" font-size="52.0" fill="#000000" transform="matrix(1.00, 0.00, -0.00, -1.00, 247.9, 423.0)"> </text><text xml:space="preserve" font-family="Helvetica-Light" font-size="52.0" fill="#000000" transform="matrix(1.00, 0.00, -0.00, -1.00, 262.4, 423.0)">F</text><text xml:space="preserve" font-family="Helvetica-Light" font-size="52.0" fill="#000000" transform="matrix(1.00, 0.00, -0.00, -1.00, 291.3, 423.0)">i</text><text xml:space="preserve" font-family="Helvetica-Light" font-size="52.0" fill="#000000" transform="matrix(1.00, 0.00, -0.00, -1.00, 302.8, 423.0)">r</text><text xml:space="preserve" font-family="Helvetica-Light" font-size="52.0" fill="#000000" transform="matrix(1.00, 0.00, -0.00, -1.00, 320.1, 423.0)">s</text><text xml:space="preserve" font-family="Helvetica-Light" font-size="52.0" fill="#000000" transform="matrix(1.00, 0.00, -0.00, -1.00, 346.1, 423.0)">t</text><text xml:space="preserve" font-family="Helvetica-Light" font-size="52.0" fill="#000000" transform="matrix(1.00, 0.00, -0.00, -1.00, 360.6, 423.0)"> </text><text xml:space="preserve" font-family="Helvetica-Light" font-size="52.0" fill="#000000" transform="matrix(1.00, 0.00, -0.00, -1.00, 375.1, 423.0)">v</text><text xml:space="preserve" font-family="Helvetica-Light" font-size="52.0" fill="#000000" transform="matrix(1.00, 0.00, -0.00, -1.00, 401.1, 423.0)">s</text><text xml:space="preserve" font-family="Helvetica-Light" font-size="52.0" fill="#000000" transform="matrix(1.00, 0.00, -0.00, -1.00, 427.1, 423.0)">.</text><text xml:space="preserve" font-family="Helvetica-Light" font-size="52.0" fill="#000000" transform="matrix(1.00, 0.00, -0.00, -1.00, 441.5, 423.0)"> </text><text xml:space="preserve" font-family="Helvetica-Light" font-size="52.0" fill="#000000" transform="matrix(1.00, 0.00, -0.00, -1.00, 456.0, 423.0)">D</text><text xml:space="preserve" font-family="Helvetica-Light" font-size="52.0" fill="#000000" transform="matrix(1.00, 0.00, -0.00, -1.00, 493.5, 423.0)">a</text><text xml:space="preserve" font-family="Helvetica-Light" font-size="52.0" fill="#000000" transform="matrix(1.00, 0.00, -0.00, -1.00, 522.4, 423.0)">t</text><text xml:space="preserve" font-family="Helvetica-Light" font-size="52.0" fill="#000000" transform="matrix(1.00, 0.00, -0.00, -1.00, 536.9, 423.0)">a</text><text xml:space="preserve" font-family="Helvetica-Light" font-size="52.0" fill="#000000" transform="matrix(1.00, 0.00, -0.00, -1.00, 565.8, 423.0)"> </text><text xml:space="preserve" font-family="Helvetica-Light" font-size="52.0" fill="#000000" transform="matrix(1.00, 0.00, -0.00, -1.00, 580.2, 423.0)">F</text><text xml:space="preserve" font-family="Helvetica-Light" font-size="52.0" fill="#000000" transform="matrix(1.00, 0.00, -0.00, -1.00, 609.2, 423.0)">i</text><text xml:space="preserve" font-family="Helvetica-Light" font-size="52.0" fill="#000000" transform="matrix(1.00, 0.00, -0.00, -1.00, 620.7, 423.0)">r</text><text xml:space="preserve" font-family="Helvetica-Light" font-size="52.0" fill="#000000" transform="matrix(1.00, 0.00, -0.00, -1.00, 638.0, 423.0)">s</text><text xml:space="preserve" font-family="Helvetica-Light" font-size="52.0" fill="#000000" transform="matrix(1.00, 0.00, -0.00, -1.00, 664.0, 423.0)">t</text><text xml:space="preserve" font-family="Helvetica-Light" font-size="52.0" fill="#000000" transform="matrix(1.00, 0.00, -0.00, -1.00, 678.5, 423.0)"> </text><text xml:space="preserve" font-family="Helvetica-Light" font-size="52.0" fill="#000000" transform="matrix(1.00, 0.00, -0.00, -1.00, 692.9, 423.0)">D</text><text xml:space="preserve" font-family="Helvetica-Light" font-size="52.0" fill="#000000" transform="matrix(1.00, 0.00, -0.00, -1.00, 730.5, 423.0)">e</text><text xml:space="preserve" font-family="Helvetica-Light" font-size="52.0" fill="#000000" transform="matrix(1.00, 0.00, -0.00, -1.00, 759.4, 423.0)">s</text><text xml:space="preserve" font-family="Helvetica-Light" font-size="52.0" fill="#000000" transform="matrix(1.00, 0.00, -0.00, -1.00, 785.4, 423.0)">i</text><text xml:space="preserve" font-family="Helvetica-Light" font-size="52.0" fill="#000000" transform="matrix(1.00, 0.00, -0.00, -1.00, 796.9, 423.0)">g</text><text xml:space="preserve" font-family="Helvetica-Light" font-size="52.0" fill="#000000" transform="matrix(1.00, 0.00, -0.00, -1.00, 828.7, 423.0)">n</text><text xml:space="preserve" font-family="Helvetica-Light" font-size="52.0" fill="#000000" transform="matrix(1.00, 0.00, -0.00, -1.00, 857.6, 423.0)"> </text><text xml:space="preserve" font-family="Helvetica-Light" font-size="52.0" fill="#000000" transform="matrix(1.00, 0.00, -0.00, -1.00, 403.0, 361.0)">i</text><text xml:space="preserve" font-family="Helvetica-Light" font-size="52.0" fill="#000000" transform="matrix(1.00, 0.00, -0.00, -1.00, 414.5, 361.0)">n</text><text xml:space="preserve" font-family="Helvetica-Light" font-size="52.0" fill="#000000" transform="matrix(1.00, 0.00, -0.00, -1.00, 443.5, 361.0)"> </text><text xml:space="preserve" font-family="Helvetica-Light" font-size="52.0" fill="#000000" transform="matrix(1.00, 0.00, -0.00, -1.00, 457.9, 361.0)">C</text><text xml:space="preserve" font-family="Helvetica-Light" font-size="52.0" fill="#000000" transform="matrix(1.00, 0.00, -0.00, -1.00, 495.5, 361.0)">l</text><text xml:space="preserve" font-family="Helvetica-Light" font-size="52.0" fill="#000000" transform="matrix(1.00, 0.00, -0.00, -1.00, 507.0, 361.0)">o</text><text xml:space="preserve" font-family="Helvetica-Light" font-size="52.0" fill="#000000" transform="matrix(1.00, 0.00, -0.00, -1.00, 535.9, 361.0)">j</text><text xml:space="preserve" font-family="Helvetica-Light" font-size="52.0" fill="#000000" transform="matrix(1.00, 0.00, -0.00, -1.00, 547.5, 361.0)">u</text><text xml:space="preserve" font-family="Helvetica-Light" font-size="52.0" fill="#000000" transform="matrix(1.00, 0.00, -0.00, -1.00, 576.4, 361.0)">r</text><text xml:space="preserve" font-family="Helvetica-Light" font-size="52.0" fill="#000000" transform="matrix(1.00, 0.00, -0.00, -1.00, 592.7, 361.0)">e</text><text xml:space="preserve" font-family="Helvetica-Light" font-size="27.8" fill="#000000" transform="matrix(1.00, 0.00, -0.00, -1.00, 431.0, 260.0)">M</text><text xml:space="preserve" font-family="Helvetica-Light" font-size="27.8" fill="#000000" transform="matrix(1.00, 0.00, -0.00, -1.00, 454.2, 260.0)">a</text><text xml:space="preserve" font-family="Helvetica-Light" font-size="27.8" fill="#000000" transform="matrix(1.00, 0.00, -0.00, -1.00, 469.7, 260.0)">r</text><text xml:space="preserve" font-family="Helvetica-Light" font-size="27.8" fill="#000000" transform="matrix(1.00, 0.00, -0.00, -1.00, 478.9, 260.0)">k</text><text xml:space="preserve" font-family="Helvetica-Light" font-size="27.8" fill="#000000" transform="matrix(1.00, 0.00, -0.00, -1.00, 492.9, 260.0)"> </text><text xml:space="preserve" font-family="Helvetica-Light" font-size="27.8" fill="#000000" transform="matrix(1.00, 0.00, -0.00, -1.00, 500.6, 260.0)">B</text><text xml:space="preserve" font-family="Helvetica-Light" font-size="27.8" fill="#000000" transform="matrix(1.00, 0.00, -0.00, -1.00, 519.2, 260.0)">a</text><text xml:space="preserve" font-family="Helvetica-Light" font-size="27.8" fill="#000000" transform="matrix(1.00, 0.00, -0.00, -1.00, 534.6, 260.0)">s</text><text xml:space="preserve" font-family="Helvetica-Light" font-size="27.8" fill="#000000" transform="matrix(1.00, 0.00, -0.00, -1.00, 548.6, 260.0)">t</text><text xml:space="preserve" font-family="Helvetica-Light" font-size="27.8" fill="#000000" transform="matrix(1.00, 0.00, -0.00, -1.00, 556.3, 260.0)">i</text><text xml:space="preserve" font-family="Helvetica-Light" font-size="27.8" fill="#000000" transform="matrix(1.00, 0.00, -0.00, -1.00, 562.5, 260.0)">a</text><text xml:space="preserve" font-family="Helvetica-Light" font-size="27.8" fill="#000000" transform="matrix(1.00, 0.00, -0.00, -1.00, 578.0, 260.0)">n</text><text xml:space="preserve" font-family="Helvetica-Light" font-size="27.8" fill="#000000" transform="matrix(1.00, 0.00, -0.00, -1.00, 593.4, 260.0)"> </text><text xml:space="preserve" font-family="Helvetica-Light" font-size="27.8" fill="#000000" transform="matrix(1.00, 0.00, -0.00, -1.00, 417.0, 228.0)">@</text><text xml:space="preserve" font-family="Helvetica-Light" font-size="27.8" fill="#000000" transform="matrix(1.00, 0.00, -0.00, -1.00, 439.3, 228.0)">m</text><text xml:space="preserve" font-family="Helvetica-Light" font-size="27.8" fill="#000000" transform="matrix(1.00, 0.00, -0.00, -1.00, 462.5, 228.0)">a</text><text xml:space="preserve" font-family="Helvetica-Light" font-size="27.8" fill="#000000" transform="matrix(1.00, 0.00, -0.00, -1.00, 477.9, 228.0)">r</text><text xml:space="preserve" font-family="Helvetica-Light" font-size="27.8" fill="#000000" transform="matrix(1.00, 0.00, -0.00, -1.00, 487.2, 228.0)">k</text><text xml:space="preserve" font-family="Helvetica-Light" font-size="27.8" fill="#000000" transform="matrix(1.00, 0.00, -0.00, -1.00, 501.1, 228.0)">_</text><text xml:space="preserve" font-family="Helvetica-Light" font-size="27.8" fill="#000000" transform="matrix(1.00, 0.00, -0.00, -1.00, 515.1, 228.0)">b</text><text xml:space="preserve" font-family="Helvetica-Light" font-size="27.8" fill="#000000" transform="matrix(1.00, 0.00, -0.00, -1.00, 532.1, 228.0)">a</text><text xml:space="preserve" font-family="Helvetica-Light" font-size="27.8" fill="#000000" transform="matrix(1.00, 0.00, -0.00, -1.00, 547.5, 228.0)">s</text><text xml:space="preserve" font-family="Helvetica-Light" font-size="27.8" fill="#000000" transform="matrix(1.00, 0.00, -0.00, -1.00, 561.5, 228.0)">t</text><text xml:space="preserve" font-family="Helvetica-Light" font-size="27.8" fill="#000000" transform="matrix(1.00, 0.00, -0.00, -1.00, 569.2, 228.0)">i</text><text xml:space="preserve" font-family="Helvetica-Light" font-size="27.8" fill="#000000" transform="matrix(1.00, 0.00, -0.00, -1.00, 575.4, 228.0)">a</text><text xml:space="preserve" font-family="Helvetica-Light" font-size="27.8" fill="#000000" transform="matrix(1.00, 0.00, -0.00, -1.00, 590.9, 228.0)">n</text><text xml:space="preserve" font-family="Helvetica-Light" font-size="27.8" fill="#000000" transform="matrix(1.00, 0.00, -0.00, -1.00, 606.3, 228.0)"> </text><text xml:space="preserve" font-family="Helvetica-Light" font-size="27.8" fill="#000000" transform="matrix(1.00, 0.00, -0.00, -1.00, 339.0, 196.0)">h</text><text xml:space="preserve" font-family="Helvetica-Light" font-size="27.8" fill="#000000" transform="matrix(1.00, 0.00, -0.00, -1.00, 354.5, 196.0)">t</text><text xml:space="preserve" font-family="Helvetica-Light" font-size="27.8" fill="#000000" transform="matrix(1.00, 0.00, -0.00, -1.00, 362.2, 196.0)">t</text><text xml:space="preserve" font-family="Helvetica-Light" font-size="27.8" fill="#000000" transform="matrix(1.00, 0.00, -0.00, -1.00, 370.0, 196.0)">p</text><text xml:space="preserve" font-family="Helvetica-Light" font-size="27.8" fill="#000000" transform="matrix(1.00, 0.00, -0.00, -1.00, 387.0, 196.0)">:</text><text xml:space="preserve" font-family="Helvetica-Light" font-size="27.8" fill="#000000" transform="matrix(1.00, 0.00, -0.00, -1.00, 394.7, 196.0)">/</text><text xml:space="preserve" font-family="Helvetica-Light" font-size="27.8" fill="#000000" transform="matrix(1.00, 0.00, -0.00, -1.00, 402.4, 196.0)">/</text><text xml:space="preserve" font-family="Helvetica-Light" font-size="27.8" fill="#000000" transform="matrix(1.00, 0.00, -0.00, -1.00, 410.2, 196.0)">f</text><text xml:space="preserve" font-family="Helvetica-Light" font-size="27.8" fill="#000000" transform="matrix(1.00, 0.00, -0.00, -1.00, 417.9, 196.0)">n</text><text xml:space="preserve" font-family="Helvetica-Light" font-size="27.8" fill="#000000" transform="matrix(1.00, 0.00, -0.00, -1.00, 433.4, 196.0)">-</text><text xml:space="preserve" font-family="Helvetica-Light" font-size="27.8" fill="#000000" transform="matrix(1.00, 0.00, -0.00, -1.00, 442.7, 196.0)">c</text><text xml:space="preserve" font-family="Helvetica-Light" font-size="27.8" fill="#000000" transform="matrix(1.00, 0.00, -0.00, -1.00, 458.2, 196.0)">o</text><text xml:space="preserve" font-family="Helvetica-Light" font-size="27.8" fill="#000000" transform="matrix(1.00, 0.00, -0.00, -1.00, 473.6, 196.0)">d</text><text xml:space="preserve" font-family="Helvetica-Light" font-size="27.8" fill="#000000" transform="matrix(1.00, 0.00, -0.00, -1.00, 490.6, 196.0)">e</text><text xml:space="preserve" font-family="Helvetica-Light" font-size="27.8" fill="#000000" transform="matrix(1.00, 0.00, -0.00, -1.00, 506.1, 196.0)">.</text><text xml:space="preserve" font-family="Helvetica-Light" font-size="27.8" fill="#000000" transform="matrix(1.00, 0.00, -0.00, -1.00, 513.9, 196.0)">b</text><text xml:space="preserve" font-family="Helvetica-Light" font-size="27.8" fill="#000000" transform="matrix(1.00, 0.00, -0.00, -1.00, 530.9, 196.0)">l</text><text xml:space="preserve" font-family="Helvetica-Light" font-size="27.8" fill="#000000" transform="matrix(1.00, 0.00, -0.00, -1.00, 537.1, 196.0)">o</text><text xml:space="preserve" font-family="Helvetica-Light" font-size="27.8" fill="#000000" transform="matrix(1.00, 0.00, -0.00, -1.00, 552.5, 196.0)">g</text><text xml:space="preserve" font-family="Helvetica-Light" font-size="27.8" fill="#000000" transform="matrix(1.00, 0.00, -0.00, -1.00, 569.5, 196.0)">s</text><text xml:space="preserve" font-family="Helvetica-Light" font-size="27.8" fill="#000000" transform="matrix(1.00, 0.00, -0.00, -1.00, 583.5, 196.0)">p</text><text xml:space="preserve" font-family="Helvetica-Light" font-size="27.8" fill="#000000" transform="matrix(1.00, 0.00, -0.00, -1.00, 600.5, 196.0)">o</text><text xml:space="preserve" font-family="Helvetica-Light" font-size="27.8" fill="#000000" transform="matrix(1.00, 0.00, -0.00, -1.00, 616.0, 196.0)">t</text><text xml:space="preserve" font-family="Helvetica-Light" font-size="27.8" fill="#000000" transform="matrix(1.00, 0.00, -0.00, -1.00, 623.7, 196.0)">.</text><text xml:space="preserve" font-family="Helvetica-Light" font-size="27.8" fill="#000000" transform="matrix(1.00, 0.00, -0.00, -1.00, 631.4, 196.0)">c</text><text xml:space="preserve" font-family="Helvetica-Light" font-size="27.8" fill="#000000" transform="matrix(1.00, 0.00, -0.00, -1.00, 646.9, 196.0)">o</text><text xml:space="preserve" font-family="Helvetica-Light" font-size="27.8" fill="#000000" transform="matrix(1.00, 0.00, -0.00, -1.00, 662.4, 196.0)">m</text><text xml:space="preserve" font-family="Helvetica-Light" font-size="27.8" fill="#000000" transform="matrix(1.00, 0.00, -0.00, -1.00, 685.6, 196.0)"> </text><g><clipPath id="clip-140"><path d="M 337.7 192.6 L 685.3 192.6 L 685.3 196.0 L 337.7 196.0 Z M 337.7 192.6 "></path></clipPath><g clip-path="url(#clip-140)"><path d="M 238.7 95.7 L 585.3 95.7 " fill="none" stroke="#000000" stroke-width="1.39" stroke-miterlimit="0.00" transform="matrix(1.00, 0.00, 0.00, -1.00, 100.0, 290.0)"></path></g></g><text xml:space="preserve" font-family="Helvetica-Light" font-size="27.8" fill="#000000" transform="matrix(1.00, 0.00, -0.00, -1.00, 343.0, 132.0)">B</text><text xml:space="preserve" font-family="Helvetica-Light" font-size="27.8" fill="#000000" transform="matrix(1.00, 0.00, -0.00, -1.00, 361.6, 132.0)">S</text><text xml:space="preserve" font-family="Helvetica-Light" font-size="27.8" fill="#000000" transform="matrix(1.00, 0.00, -0.00, -1.00, 378.6, 132.0)">U</text><text xml:space="preserve" font-family="Helvetica-Light" font-size="27.8" fill="#000000" transform="matrix(1.00, 0.00, -0.00, -1.00, 398.7, 132.0)"> </text><text xml:space="preserve" font-family="Helvetica-Light" font-size="27.8" fill="#000000" transform="matrix(1.00, 0.00, -0.00, -1.00, 406.4, 132.0)">S</text><text xml:space="preserve" font-family="Helvetica-Light" font-size="27.8" fill="#000000" transform="matrix(1.00, 0.00, -0.00, -1.00, 423.4, 132.0)">e</text><text xml:space="preserve" font-family="Helvetica-Light" font-size="27.8" fill="#000000" transform="matrix(1.00, 0.00, -0.00, -1.00, 438.9, 132.0)">n</text><text xml:space="preserve" font-family="Helvetica-Light" font-size="27.8" fill="#000000" transform="matrix(1.00, 0.00, -0.00, -1.00, 454.4, 132.0)">i</text><text xml:space="preserve" font-family="Helvetica-Light" font-size="27.8" fill="#000000" transform="matrix(1.00, 0.00, -0.00, -1.00, 460.6, 132.0)">o</text><text xml:space="preserve" font-family="Helvetica-Light" font-size="27.8" fill="#000000" transform="matrix(1.00, 0.00, -0.00, -1.00, 476.0, 132.0)">r</text><text xml:space="preserve" font-family="Helvetica-Light" font-size="27.8" fill="#000000" transform="matrix(1.00, 0.00, -0.00, -1.00, 485.3, 132.0)"> </text><text xml:space="preserve" font-family="Helvetica-Light" font-size="27.8" fill="#000000" transform="matrix(1.00, 0.00, -0.00, -1.00, 493.1, 132.0)">S</text><text xml:space="preserve" font-family="Helvetica-Light" font-size="27.8" fill="#000000" transform="matrix(1.00, 0.00, -0.00, -1.00, 510.1, 132.0)">e</text><text xml:space="preserve" font-family="Helvetica-Light" font-size="27.8" fill="#000000" transform="matrix(1.00, 0.00, -0.00, -1.00, 525.5, 132.0)">m</text><text xml:space="preserve" font-family="Helvetica-Light" font-size="27.8" fill="#000000" transform="matrix(1.00, 0.00, -0.00, -1.00, 548.7, 132.0)">i</text><text xml:space="preserve" font-family="Helvetica-Light" font-size="27.8" fill="#000000" transform="matrix(1.00, 0.00, -0.00, -1.00, 554.9, 132.0)">n</text><text xml:space="preserve" font-family="Helvetica-Light" font-size="27.8" fill="#000000" transform="matrix(1.00, 0.00, -0.00, -1.00, 570.4, 132.0)">a</text><text xml:space="preserve" font-family="Helvetica-Light" font-size="27.8" fill="#000000" transform="matrix(1.00, 0.00, -0.00, -1.00, 585.9, 132.0)">r</text><text xml:space="preserve" font-family="Helvetica-Light" font-size="27.8" fill="#000000" transform="matrix(1.00, 0.00, -0.00, -1.00, 595.1, 132.0)"> </text><text xml:space="preserve" font-family="Helvetica-Light" font-size="27.8" fill="#000000" transform="matrix(1.00, 0.00, -0.00, -1.00, 602.9, 132.0)">S</text><text xml:space="preserve" font-family="Helvetica-Light" font-size="27.8" fill="#000000" transform="matrix(1.00, 0.00, -0.00, -1.00, 619.9, 132.0)">e</text><text xml:space="preserve" font-family="Helvetica-Light" font-size="27.8" fill="#000000" transform="matrix(1.00, 0.00, -0.00, -1.00, 635.4, 132.0)">r</text><text xml:space="preserve" font-family="Helvetica-Light" font-size="27.8" fill="#000000" transform="matrix(1.00, 0.00, -0.00, -1.00, 644.6, 132.0)">i</text><text xml:space="preserve" font-family="Helvetica-Light" font-size="27.8" fill="#000000" transform="matrix(1.00, 0.00, -0.00, -1.00, 650.8, 132.0)">e</text><text xml:space="preserve" font-family="Helvetica-Light" font-size="27.8" fill="#000000" transform="matrix(1.00, 0.00, -0.00, -1.00, 666.3, 132.0)">s</text><text xml:space="preserve" font-family="Helvetica-Light" font-size="27.8" fill="#000000" transform="matrix(1.00, 0.00, -0.00, -1.00, 680.2, 132.0)"> </text><text xml:space="preserve" font-family="Helvetica-Light" font-size="27.8" fill="#000000" transform="matrix(1.00, 0.00, -0.00, -1.00, 450.0, 100.0)">1</text><text xml:space="preserve" font-family="Helvetica-Light" font-size="27.8" fill="#000000" transform="matrix(1.00, 0.00, -0.00, -1.00, 465.5, 100.0)">/</text><text xml:space="preserve" font-family="Helvetica-Light" font-size="27.8" fill="#000000" transform="matrix(1.00, 0.00, -0.00, -1.00, 473.2, 100.0)">2</text><text xml:space="preserve" font-family="Helvetica-Light" font-size="27.8" fill="#000000" transform="matrix(1.00, 0.00, -0.00, -1.00, 488.7, 100.0)">9</text><text xml:space="preserve" font-family="Helvetica-Light" font-size="27.8" fill="#000000" transform="matrix(1.00, 0.00, -0.00, -1.00, 504.2, 100.0)">/</text><text xml:space="preserve" font-family="Helvetica-Light" font-size="27.8" fill="#000000" transform="matrix(1.00, 0.00, -0.00, -1.00, 511.9, 100.0)">2</text><text xml:space="preserve" font-family="Helvetica-Light" font-size="27.8" fill="#000000" transform="matrix(1.00, 0.00, -0.00, -1.00, 527.4, 100.0)">0</text><text xml:space="preserve" font-family="Helvetica-Light" font-size="27.8" fill="#000000" transform="matrix(1.00, 0.00, -0.00, -1.00, 542.9, 100.0)">1</text><text xml:space="preserve" font-family="Helvetica-Light" font-size="27.8" fill="#000000" transform="matrix(1.00, 0.00, -0.00, -1.00, 558.4, 100.0)">6</text></g></svg>