<?xml version="1.0" encoding="UTF-8" standalone="no"?><svg xmlns="http://www.w3.org/2000/svg" xmlns:xlink="http://www.w3.org/1999/xlink" clip-rule="evenodd" stroke-miterlimit="4.00" viewBox="0 0 600 71"><desc>SVG generated by Keynote</desc><defs></defs><g transform="matrix(1.00, 0.00, -0.00, -1.00, 0.0, 71.0)"><text xml:space="preserve" font-family="Helvetica-Light" font-size="71.2" fill="#000000" transform="matrix(1.00, 0.00, -0.00, -1.00, -2.0, 17.0)">C</text><text xml:space="preserve" font-family="Helvetica-Light" font-size="71.2" fill="#000000" transform="matrix(1.00, 0.00, -0.00, -1.00, 49.4, 17.0)">a</text><text xml:space="preserve" font-family="Helvetica-Light" font-size="71.2" fill="#000000" transform="matrix(1.00, 0.00, -0.00, -1.00, 89.0, 17.0)">r</text><text xml:space="preserve" font-family="Helvetica-Light" font-size="71.2" fill="#000000" transform="matrix(1.00, 0.00, -0.00, -1.00, 114.0, 17.0)">t</text><text xml:space="preserve" font-family="Helvetica-Light" font-size="71.2" fill="#000000" transform="matrix(1.00, 0.00, -0.00, -1.00, 133.8, 17.0)">a</text><text xml:space="preserve" font-family="Helvetica-Light" font-size="71.2" fill="#000000" transform="matrix(1.00, 0.00, -0.00, -1.00, 173.4, 17.0)">g</text><text xml:space="preserve" font-family="Helvetica-Light" font-size="71.2" fill="#000000" transform="matrix(1.00, 0.00, -0.00, -1.00, 216.9, 17.0)">e</text><text xml:space="preserve" font-family="Helvetica-Light" font-size="71.2" fill="#000000" transform="matrix(1.00, 0.00, -0.00, -1.00, 256.5, 17.0)">n</text><text xml:space="preserve" font-family="Helvetica-Light" font-size="71.2" fill="#000000" transform="matrix(1.00, 0.00, -0.00, -1.00, 296.0, 17.0)">a</text><text xml:space="preserve" font-family="Helvetica-Light" font-size="71.2" fill="#000000" transform="matrix(1.00, 0.00, -0.00, -1.00, 335.6, 17.0)"> </text><text xml:space="preserve" font-family="Helvetica-Light" font-size="71.2" fill="#000000" transform="matrix(1.00, 0.00, -0.00, -1.00, 355.4, 17.0)">a</text><text xml:space="preserve" font-family="Helvetica-Light" font-size="71.2" fill="#000000" transform="matrix(1.00, 0.00, -0.00, -1.00, 395.0, 17.0)">s</text><text xml:space="preserve" font-family="Helvetica-Light" font-size="71.2" fill="#000000" transform="matrix(1.00, 0.00, -0.00, -1.00, 430.6, 17.0)"> </text><text xml:space="preserve" font-family="Helvetica-Light" font-size="71.2" fill="#000000" transform="matrix(1.00, 0.00, -0.00, -1.00, 450.4, 17.0)">D</text><text xml:space="preserve" font-family="Helvetica-Light" font-size="71.2" fill="#000000" transform="matrix(1.00, 0.00, -0.00, -1.00, 501.8, 17.0)">a</text><text xml:space="preserve" font-family="Helvetica-Light" font-size="71.2" fill="#000000" transform="matrix(1.00, 0.00, -0.00, -1.00, 541.4, 17.0)">t</text><text xml:space="preserve" font-family="Helvetica-Light" font-size="71.2" fill="#000000" transform="matrix(1.00, 0.00, -0.00, -1.00, 561.2, 17.0)">a</text></g></svg>