<?xml version="1.0" encoding="UTF-8" standalone="no"?><svg xmlns="http://www.w3.org/2000/svg" xmlns:xlink="http://www.w3.org/1999/xlink" clip-rule="evenodd" stroke-miterlimit="4.00" viewBox="0 0 968 272"><desc>SVG generated by Keynote</desc><defs></defs><g transform="matrix(1.00, 0.00, -0.00, -1.00, 0.0, 272.0)"><path d="M 2.8 269.9 L 965.2 269.9 L 965.2 2.9 L 2.8 2.9 Z M 2.8 269.9 " fill="#00F900" fill-opacity="0.09"></path><path d="M 0.0 0.0 L 962.3 0.0 L 962.3 267.0 L 0.0 267.0 Z M 0.0 0.0 " fill="none" stroke="#85878C" stroke-width="2.00" transform="matrix(1.00, 0.00, 0.00, -1.00, 2.8, 269.9)"></path><g><clipPath id="clip-526"><path d="M 1.8 3.9 L 966.2 3.9 L 966.2 270.9 L 1.8 270.9 Z M 1.8 3.9 "></path></clipPath><g clip-path="url(#clip-526)"><text xml:space="preserve" font-family="Helvetica-Light" font-size="24.0" fill="#000000" transform="matrix(1.00, 0.00, -0.00, -1.00, 707.2, 241.5)">B</text><text xml:space="preserve" font-family="Helvetica-Light" font-size="24.0" fill="#000000" transform="matrix(1.00, 0.00, -0.00, -1.00, 723.2, 241.5)">o</text><text xml:space="preserve" font-family="Helvetica-Light" font-size="24.0" fill="#000000" transform="matrix(1.00, 0.00, -0.00, -1.00, 736.6, 241.5)">a</text><text xml:space="preserve" font-family="Helvetica-Light" font-size="24.0" fill="#000000" transform="matrix(1.00, 0.00, -0.00, -1.00, 749.9, 241.5)">r</text><text xml:space="preserve" font-family="Helvetica-Light" font-size="24.0" fill="#000000" transform="matrix(1.00, 0.00, -0.00, -1.00, 757.5, 241.5)">d</text><text xml:space="preserve" font-family="Helvetica-Light" font-size="24.0" fill="#000000" transform="matrix(1.00, 0.00, -0.00, -1.00, 772.1, 241.5)"> </text><text xml:space="preserve" font-family="Helvetica-Light" font-size="24.0" fill="#000000" transform="matrix(1.00, 0.00, -0.00, -1.00, 778.8, 241.5)">(</text><text xml:space="preserve" font-family="Helvetica-Light" font-size="24.0" fill="#000000" transform="matrix(1.00, 0.00, -0.00, -1.00, 786.8, 241.5)">P</text><text xml:space="preserve" font-family="Helvetica-Light" font-size="24.0" fill="#000000" transform="matrix(1.00, 0.00, -0.00, -1.00, 801.5, 241.5)">i</text><text xml:space="preserve" font-family="Helvetica-Light" font-size="24.0" fill="#000000" transform="matrix(1.00, 0.00, -0.00, -1.00, 806.8, 241.5)">e</text><text xml:space="preserve" font-family="Helvetica-Light" font-size="24.0" fill="#000000" transform="matrix(1.00, 0.00, -0.00, -1.00, 820.1, 241.5)">c</text><text xml:space="preserve" font-family="Helvetica-Light" font-size="24.0" fill="#000000" transform="matrix(1.00, 0.00, -0.00, -1.00, 833.5, 241.5)">e</text><text xml:space="preserve" font-family="Helvetica-Light" font-size="24.0" fill="#000000" transform="matrix(1.00, 0.00, -0.00, -1.00, 846.8, 241.5)">s</text><text xml:space="preserve" font-family="Helvetica-Light" font-size="24.0" fill="#000000" transform="matrix(1.00, 0.00, -0.00, -1.00, 858.8, 241.5)">,</text><text xml:space="preserve" font-family="Helvetica-Light" font-size="24.0" fill="#000000" transform="matrix(1.00, 0.00, -0.00, -1.00, 865.5, 241.5)"> </text><text xml:space="preserve" font-family="Helvetica-Light" font-size="24.0" fill="#000000" transform="matrix(1.00, 0.00, -0.00, -1.00, 872.2, 241.5)">S</text><text xml:space="preserve" font-family="Helvetica-Light" font-size="24.0" fill="#000000" transform="matrix(1.00, 0.00, -0.00, -1.00, 886.8, 241.5)">y</text><text xml:space="preserve" font-family="Helvetica-Light" font-size="24.0" fill="#000000" transform="matrix(1.00, 0.00, -0.00, -1.00, 898.8, 241.5)">m</text><text xml:space="preserve" font-family="Helvetica-Light" font-size="24.0" fill="#000000" transform="matrix(1.00, 0.00, -0.00, -1.00, 918.8, 241.5)">b</text><text xml:space="preserve" font-family="Helvetica-Light" font-size="24.0" fill="#000000" transform="matrix(1.00, 0.00, -0.00, -1.00, 933.5, 241.5)">o</text><text xml:space="preserve" font-family="Helvetica-Light" font-size="24.0" fill="#000000" transform="matrix(1.00, 0.00, -0.00, -1.00, 946.8, 241.5)">l</text><text xml:space="preserve" font-family="Helvetica-Light" font-size="24.0" fill="#000000" transform="matrix(1.00, 0.00, -0.00, -1.00, 952.2, 241.5)">)</text></g></g></g></svg>