<?xml version="1.0" encoding="UTF-8" standalone="no"?><svg xmlns="http://www.w3.org/2000/svg" xmlns:xlink="http://www.w3.org/1999/xlink" clip-rule="evenodd" stroke-miterlimit="4.00" viewBox="0 0 1024 768"><desc>SVG generated by Keynote</desc><defs></defs><g transform="matrix(1.00, 0.00, -0.00, -1.00, 0.0, 768.0)"><path d="M 0.0 768.0 L 1024.0 768.0 L 1024.0 0.0 L 0.0 0.0 Z M 0.0 768.0 " fill="#FEFFFF"></path><image xlink:href="B709AEE25975880DB16B9345C49B5F68.png" width="1000.00" height="518.00" transform="matrix(1.00, 0.00, -0.00, -1.00, 12.0, 643.0)"></image><image xlink:href="CE7AC27BF7B57FDCD3199001699DD84D.png" width="4167.00" height="505.00" transform="matrix(0.24, 0.00, -0.00, -0.24, 12.0, 124.6)"></image><text xml:space="preserve" font-family="Helvetica-Light" font-size="66.4" fill="#000000" transform="matrix(1.00, 0.00, -0.00, -1.00, 189.0, 669.0)">G</text><text xml:space="preserve" font-family="Helvetica-Light" font-size="66.4" fill="#000000" transform="matrix(1.00, 0.00, -0.00, -1.00, 240.7, 669.0)">a</text><text xml:space="preserve" font-family="Helvetica-Light" font-size="66.4" fill="#000000" transform="matrix(1.00, 0.00, -0.00, -1.00, 277.6, 669.0)">m</text><text xml:space="preserve" font-family="Helvetica-Light" font-size="66.4" fill="#000000" transform="matrix(1.00, 0.00, -0.00, -1.00, 332.9, 669.0)">e</text><text xml:space="preserve" font-family="Helvetica-Light" font-size="66.4" fill="#000000" transform="matrix(1.00, 0.00, -0.00, -1.00, 369.8, 669.0)">s</text><text xml:space="preserve" font-family="Helvetica-Light" font-size="66.4" fill="#000000" transform="matrix(1.00, 0.00, -0.00, -1.00, 403.0, 669.0)"> </text><text xml:space="preserve" font-family="Helvetica-Light" font-size="66.4" fill="#000000" transform="matrix(1.00, 0.00, -0.00, -1.00, 421.5, 669.0)">A</text><text xml:space="preserve" font-family="Helvetica-Light" font-size="66.4" fill="#000000" transform="matrix(1.00, 0.00, -0.00, -1.00, 465.8, 669.0)">P</text><text xml:space="preserve" font-family="Helvetica-Light" font-size="66.4" fill="#000000" transform="matrix(1.00, 0.00, -0.00, -1.00, 506.3, 669.0)">I</text><text xml:space="preserve" font-family="Helvetica-Light" font-size="66.4" fill="#000000" transform="matrix(1.00, 0.00, -0.00, -1.00, 524.8, 669.0)">:</text><text xml:space="preserve" font-family="Helvetica-Light" font-size="66.4" fill="#000000" transform="matrix(1.00, 0.00, -0.00, -1.00, 543.2, 669.0)"> </text><text xml:space="preserve" font-family="Helvetica-Light" font-size="66.4" fill="#000000" transform="matrix(1.00, 0.00, -0.00, -1.00, 561.7, 669.0)">V</text><text xml:space="preserve" font-family="Helvetica-Light" font-size="66.4" fill="#000000" transform="matrix(1.00, 0.00, -0.00, -1.00, 598.6, 669.0)">e</text><text xml:space="preserve" font-family="Helvetica-Light" font-size="66.4" fill="#000000" transform="matrix(1.00, 0.00, -0.00, -1.00, 635.5, 669.0)">r</text><text xml:space="preserve" font-family="Helvetica-Light" font-size="66.4" fill="#000000" transform="matrix(1.00, 0.00, -0.00, -1.00, 657.7, 669.0)">s</text><text xml:space="preserve" font-family="Helvetica-Light" font-size="66.4" fill="#000000" transform="matrix(1.00, 0.00, -0.00, -1.00, 690.9, 669.0)">i</text><text xml:space="preserve" font-family="Helvetica-Light" font-size="66.4" fill="#000000" transform="matrix(1.00, 0.00, -0.00, -1.00, 705.6, 669.0)">o</text><text xml:space="preserve" font-family="Helvetica-Light" font-size="66.4" fill="#000000" transform="matrix(1.00, 0.00, -0.00, -1.00, 742.5, 669.0)">n</text><text xml:space="preserve" font-family="Helvetica-Light" font-size="66.4" fill="#000000" transform="matrix(1.00, 0.00, -0.00, -1.00, 779.4, 669.0)"> </text><text xml:space="preserve" font-family="Helvetica-Light" font-size="66.4" fill="#000000" transform="matrix(1.00, 0.00, -0.00, -1.00, 797.9, 669.0)">2</text><text xml:space="preserve" font-family="Helvetica-Light" font-size="36.0" fill="#000000" transform="matrix(1.00, 0.00, -0.00, -1.00, 264.0, 56.0)">T</text><text xml:space="preserve" font-family="Helvetica-Light" font-size="36.0" fill="#000000" transform="matrix(1.00, 0.00, -0.00, -1.00, 284.0, 56.0)">h</text><text xml:space="preserve" font-family="Helvetica-Light" font-size="36.0" fill="#000000" transform="matrix(1.00, 0.00, -0.00, -1.00, 304.0, 56.0)">i</text><text xml:space="preserve" font-family="Helvetica-Light" font-size="36.0" fill="#000000" transform="matrix(1.00, 0.00, -0.00, -1.00, 312.0, 56.0)">s</text><text xml:space="preserve" font-family="Helvetica-Light" font-size="36.0" fill="#000000" transform="matrix(1.00, 0.00, -0.00, -1.00, 330.0, 56.0)"> </text><text xml:space="preserve" font-family="Helvetica-Light" font-size="36.0" fill="#000000" transform="matrix(1.00, 0.00, -0.00, -1.00, 340.0, 56.0)">s</text><text xml:space="preserve" font-family="Helvetica-Light" font-size="36.0" fill="#000000" transform="matrix(1.00, 0.00, -0.00, -1.00, 358.0, 56.0)">t</text><text xml:space="preserve" font-family="Helvetica-Light" font-size="36.0" fill="#000000" transform="matrix(1.00, 0.00, -0.00, -1.00, 368.0, 56.0)">i</text><text xml:space="preserve" font-family="Helvetica-Light" font-size="36.0" fill="#000000" transform="matrix(1.00, 0.00, -0.00, -1.00, 376.0, 56.0)">l</text><text xml:space="preserve" font-family="Helvetica-Light" font-size="36.0" fill="#000000" transform="matrix(1.00, 0.00, -0.00, -1.00, 384.0, 56.0)">l</text><text xml:space="preserve" font-family="Helvetica-Light" font-size="36.0" fill="#000000" transform="matrix(1.00, 0.00, -0.00, -1.00, 392.0, 56.0)"> </text><text xml:space="preserve" font-family="Helvetica-Light" font-size="36.0" fill="#000000" transform="matrix(1.00, 0.00, -0.00, -1.00, 402.0, 56.0)">i</text><text xml:space="preserve" font-family="Helvetica-Light" font-size="36.0" fill="#000000" transform="matrix(1.00, 0.00, -0.00, -1.00, 410.0, 56.0)">s</text><text xml:space="preserve" font-family="Helvetica-Light" font-size="36.0" fill="#000000" transform="matrix(1.00, 0.00, -0.00, -1.00, 428.0, 56.0)">n</text><text xml:space="preserve" font-family="Helvetica-Light" font-size="36.0" fill="#000000" transform="matrix(1.00, 0.00, -0.00, -1.00, 448.0, 56.0)">’</text><text xml:space="preserve" font-family="Helvetica-Light" font-size="36.0" fill="#000000" transform="matrix(1.00, 0.00, -0.00, -1.00, 455.4, 56.0)">t</text><text xml:space="preserve" font-family="Helvetica-Light" font-size="36.0" fill="#000000" transform="matrix(1.00, 0.00, -0.00, -1.00, 465.4, 56.0)"> </text><text xml:space="preserve" font-family="Helvetica-Light" font-size="36.0" fill="#000000" transform="matrix(1.00, 0.00, -0.00, -1.00, 475.4, 56.0)">p</text><text xml:space="preserve" font-family="Helvetica-Light" font-size="36.0" fill="#000000" transform="matrix(1.00, 0.00, -0.00, -1.00, 497.4, 56.0)">a</text><text xml:space="preserve" font-family="Helvetica-Light" font-size="36.0" fill="#000000" transform="matrix(1.00, 0.00, -0.00, -1.00, 517.4, 56.0)">r</text><text xml:space="preserve" font-family="Helvetica-Light" font-size="36.0" fill="#000000" transform="matrix(1.00, 0.00, -0.00, -1.00, 530.0, 56.0)">t</text><text xml:space="preserve" font-family="Helvetica-Light" font-size="36.0" fill="#000000" transform="matrix(1.00, 0.00, -0.00, -1.00, 540.0, 56.0)">i</text><text xml:space="preserve" font-family="Helvetica-Light" font-size="36.0" fill="#000000" transform="matrix(1.00, 0.00, -0.00, -1.00, 548.0, 56.0)">c</text><text xml:space="preserve" font-family="Helvetica-Light" font-size="36.0" fill="#000000" transform="matrix(1.00, 0.00, -0.00, -1.00, 568.1, 56.0)">u</text><text xml:space="preserve" font-family="Helvetica-Light" font-size="36.0" fill="#000000" transform="matrix(1.00, 0.00, -0.00, -1.00, 588.1, 56.0)">l</text><text xml:space="preserve" font-family="Helvetica-Light" font-size="36.0" fill="#000000" transform="matrix(1.00, 0.00, -0.00, -1.00, 596.1, 56.0)">a</text><text xml:space="preserve" font-family="Helvetica-Light" font-size="36.0" fill="#000000" transform="matrix(1.00, 0.00, -0.00, -1.00, 616.1, 56.0)">r</text><text xml:space="preserve" font-family="Helvetica-Light" font-size="36.0" fill="#000000" transform="matrix(1.00, 0.00, -0.00, -1.00, 628.1, 56.0)">l</text><text xml:space="preserve" font-family="Helvetica-Light" font-size="36.0" fill="#000000" transform="matrix(1.00, 0.00, -0.00, -1.00, 636.1, 56.0)">y</text><text xml:space="preserve" font-family="Helvetica-Light" font-size="36.0" fill="#000000" transform="matrix(1.00, 0.00, -0.00, -1.00, 654.1, 56.0)"> </text><text xml:space="preserve" font-family="Helvetica-Light" font-size="36.0" fill="#000000" transform="matrix(1.00, 0.00, -0.00, -1.00, 664.1, 56.0)">u</text><text xml:space="preserve" font-family="Helvetica-Light" font-size="36.0" fill="#000000" transform="matrix(1.00, 0.00, -0.00, -1.00, 684.1, 56.0)">s</text><text xml:space="preserve" font-family="Helvetica-Light" font-size="36.0" fill="#000000" transform="matrix(1.00, 0.00, -0.00, -1.00, 702.1, 56.0)">e</text><text xml:space="preserve" font-family="Helvetica-Light" font-size="36.0" fill="#000000" transform="matrix(1.00, 0.00, -0.00, -1.00, 722.1, 56.0)">f</text><text xml:space="preserve" font-family="Helvetica-Light" font-size="36.0" fill="#000000" transform="matrix(1.00, 0.00, -0.00, -1.00, 732.1, 56.0)">u</text><text xml:space="preserve" font-family="Helvetica-Light" font-size="36.0" fill="#000000" transform="matrix(1.00, 0.00, -0.00, -1.00, 752.1, 56.0)">l</text></g></svg>