<?xml version="1.0" encoding="UTF-8" standalone="no"?><svg xmlns="http://www.w3.org/2000/svg" xmlns:xlink="http://www.w3.org/1999/xlink" clip-rule="evenodd" stroke-miterlimit="4.00" viewBox="0 0 1024 768"><desc>SVG generated by Keynote</desc><defs></defs><g transform="matrix(1.00, 0.00, -0.00, -1.00, 0.0, 768.0)"><path d="M 0.0 768.0 L 1024.0 768.0 L 1024.0 0.0 L 0.0 0.0 Z M 0.0 768.0 " fill="#FEFFFF"></path><text xml:space="preserve" font-family="Helvetica-Light" font-size="48.0" fill="#000000" transform="matrix(1.00, 0.00, -0.00, -1.00, 143.0, 682.0)">N</text><text xml:space="preserve" font-family="Helvetica-Light" font-size="48.0" fill="#000000" transform="matrix(1.00, 0.00, -0.00, -1.00, 177.7, 682.0)">e</text><text xml:space="preserve" font-family="Helvetica-Light" font-size="48.0" fill="#000000" transform="matrix(1.00, 0.00, -0.00, -1.00, 204.3, 682.0)">s</text><text xml:space="preserve" font-family="Helvetica-Light" font-size="48.0" fill="#000000" transform="matrix(1.00, 0.00, -0.00, -1.00, 228.3, 682.0)">t</text><text xml:space="preserve" font-family="Helvetica-Light" font-size="48.0" fill="#000000" transform="matrix(1.00, 0.00, -0.00, -1.00, 241.7, 682.0)">e</text><text xml:space="preserve" font-family="Helvetica-Light" font-size="48.0" fill="#000000" transform="matrix(1.00, 0.00, -0.00, -1.00, 268.4, 682.0)">d</text><text xml:space="preserve" font-family="Helvetica-Light" font-size="48.0" fill="#000000" transform="matrix(1.00, 0.00, -0.00, -1.00, 297.7, 682.0)"> </text><text xml:space="preserve" font-family="Helvetica-Light" font-size="48.0" fill="#000000" transform="matrix(1.00, 0.00, -0.00, -1.00, 311.0, 682.0)">H</text><text xml:space="preserve" font-family="Helvetica-Light" font-size="48.0" fill="#000000" transform="matrix(1.00, 0.00, -0.00, -1.00, 345.7, 682.0)">e</text><text xml:space="preserve" font-family="Helvetica-Light" font-size="48.0" fill="#000000" transform="matrix(1.00, 0.00, -0.00, -1.00, 372.4, 682.0)">t</text><text xml:space="preserve" font-family="Helvetica-Light" font-size="48.0" fill="#000000" transform="matrix(1.00, 0.00, -0.00, -1.00, 385.7, 682.0)">e</text><text xml:space="preserve" font-family="Helvetica-Light" font-size="48.0" fill="#000000" transform="matrix(1.00, 0.00, -0.00, -1.00, 412.4, 682.0)">r</text><text xml:space="preserve" font-family="Helvetica-Light" font-size="48.0" fill="#000000" transform="matrix(1.00, 0.00, -0.00, -1.00, 427.5, 682.0)">o</text><text xml:space="preserve" font-family="Helvetica-Light" font-size="48.0" fill="#000000" transform="matrix(1.00, 0.00, -0.00, -1.00, 454.2, 682.0)">g</text><text xml:space="preserve" font-family="Helvetica-Light" font-size="48.0" fill="#000000" transform="matrix(1.00, 0.00, -0.00, -1.00, 483.6, 682.0)">e</text><text xml:space="preserve" font-family="Helvetica-Light" font-size="48.0" fill="#000000" transform="matrix(1.00, 0.00, -0.00, -1.00, 510.2, 682.0)">n</text><text xml:space="preserve" font-family="Helvetica-Light" font-size="48.0" fill="#000000" transform="matrix(1.00, 0.00, -0.00, -1.00, 536.9, 682.0)">e</text><text xml:space="preserve" font-family="Helvetica-Light" font-size="48.0" fill="#000000" transform="matrix(1.00, 0.00, -0.00, -1.00, 563.6, 682.0)">o</text><text xml:space="preserve" font-family="Helvetica-Light" font-size="48.0" fill="#000000" transform="matrix(1.00, 0.00, -0.00, -1.00, 590.3, 682.0)">u</text><text xml:space="preserve" font-family="Helvetica-Light" font-size="48.0" fill="#000000" transform="matrix(1.00, 0.00, -0.00, -1.00, 617.0, 682.0)">s</text><text xml:space="preserve" font-family="Helvetica-Light" font-size="48.0" fill="#000000" transform="matrix(1.00, 0.00, -0.00, -1.00, 641.0, 682.0)"> </text><text xml:space="preserve" font-family="Helvetica-Light" font-size="48.0" fill="#000000" transform="matrix(1.00, 0.00, -0.00, -1.00, 654.3, 682.0)">I</text><text xml:space="preserve" font-family="Helvetica-Light" font-size="48.0" fill="#000000" transform="matrix(1.00, 0.00, -0.00, -1.00, 667.7, 682.0)">m</text><text xml:space="preserve" font-family="Helvetica-Light" font-size="48.0" fill="#000000" transform="matrix(1.00, 0.00, -0.00, -1.00, 707.7, 682.0)">m</text><text xml:space="preserve" font-family="Helvetica-Light" font-size="48.0" fill="#000000" transform="matrix(1.00, 0.00, -0.00, -1.00, 747.7, 682.0)">u</text><text xml:space="preserve" font-family="Helvetica-Light" font-size="48.0" fill="#000000" transform="matrix(1.00, 0.00, -0.00, -1.00, 774.3, 682.0)">t</text><text xml:space="preserve" font-family="Helvetica-Light" font-size="48.0" fill="#000000" transform="matrix(1.00, 0.00, -0.00, -1.00, 787.7, 682.0)">a</text><text xml:space="preserve" font-family="Helvetica-Light" font-size="48.0" fill="#000000" transform="matrix(1.00, 0.00, -0.00, -1.00, 814.4, 682.0)">b</text><text xml:space="preserve" font-family="Helvetica-Light" font-size="48.0" fill="#000000" transform="matrix(1.00, 0.00, -0.00, -1.00, 843.7, 682.0)">l</text><text xml:space="preserve" font-family="Helvetica-Light" font-size="48.0" fill="#000000" transform="matrix(1.00, 0.00, -0.00, -1.00, 854.4, 682.0)">e</text><text xml:space="preserve" font-family="Helvetica-Light" font-size="48.0" fill="#000000" transform="matrix(1.00, 0.00, -0.00, -1.00, 881.0, 682.0)"> </text><text xml:space="preserve" font-family="Helvetica-Light" font-size="48.0" fill="#000000" transform="matrix(1.00, 0.00, -0.00, -1.00, 393.0, 624.0)">C</text><text xml:space="preserve" font-family="Helvetica-Light" font-size="48.0" fill="#000000" transform="matrix(1.00, 0.00, -0.00, -1.00, 427.7, 624.0)">o</text><text xml:space="preserve" font-family="Helvetica-Light" font-size="48.0" fill="#000000" transform="matrix(1.00, 0.00, -0.00, -1.00, 454.3, 624.0)">l</text><text xml:space="preserve" font-family="Helvetica-Light" font-size="48.0" fill="#000000" transform="matrix(1.00, 0.00, -0.00, -1.00, 465.0, 624.0)">l</text><text xml:space="preserve" font-family="Helvetica-Light" font-size="48.0" fill="#000000" transform="matrix(1.00, 0.00, -0.00, -1.00, 475.7, 624.0)">e</text><text xml:space="preserve" font-family="Helvetica-Light" font-size="48.0" fill="#000000" transform="matrix(1.00, 0.00, -0.00, -1.00, 502.3, 624.0)">c</text><text xml:space="preserve" font-family="Helvetica-Light" font-size="48.0" fill="#000000" transform="matrix(1.00, 0.00, -0.00, -1.00, 529.0, 624.0)">t</text><text xml:space="preserve" font-family="Helvetica-Light" font-size="48.0" fill="#000000" transform="matrix(1.00, 0.00, -0.00, -1.00, 542.4, 624.0)">i</text><text xml:space="preserve" font-family="Helvetica-Light" font-size="48.0" fill="#000000" transform="matrix(1.00, 0.00, -0.00, -1.00, 553.0, 624.0)">o</text><text xml:space="preserve" font-family="Helvetica-Light" font-size="48.0" fill="#000000" transform="matrix(1.00, 0.00, -0.00, -1.00, 579.7, 624.0)">n</text><text xml:space="preserve" font-family="Helvetica-Light" font-size="48.0" fill="#000000" transform="matrix(1.00, 0.00, -0.00, -1.00, 606.4, 624.0)">s</text><g><clipPath id="clip-1054"><path d="M 58.0 609.0 L 966.0 609.0 L 966.0 66.4 L 58.0 66.4 Z M 58.0 609.0 "></path></clipPath><g clip-path="url(#clip-1054)"><path d="M 58.0 609.0 L 239.6 609.0 L 239.6 518.6 L 58.0 518.6 Z M 58.0 609.0 " fill="#0264C0"></path><path d="M 239.6 609.0 L 421.2 609.0 L 421.2 518.6 L 239.6 518.6 Z M 239.6 609.0 " fill="#0264C0"></path><path d="M 421.2 609.0 L 602.8 609.0 L 602.8 518.6 L 421.2 518.6 Z M 421.2 609.0 " fill="#0264C0"></path><path d="M 602.8 609.0 L 784.4 609.0 L 784.4 518.6 L 602.8 518.6 Z M 602.8 609.0 " fill="#0264C0"></path><path d="M 784.4 609.0 L 966.0 609.0 L 966.0 518.6 L 784.4 518.6 Z M 784.4 609.0 " fill="#0264C0"></path><path d="M 58.0 518.6 L 239.6 518.6 L 239.6 428.1 L 58.0 428.1 Z M 58.0 518.6 " fill="#388CCE"></path><path d="M 239.6 518.6 L 421.2 518.6 L 421.2 428.1 L 239.6 428.1 Z M 239.6 518.6 " fill="#FEFFFF"></path><path d="M 421.2 518.6 L 602.8 518.6 L 602.8 428.1 L 421.2 428.1 Z M 421.2 518.6 " fill="#FEFFFF"></path><path d="M 602.8 518.6 L 784.4 518.6 L 784.4 428.1 L 602.8 428.1 Z M 602.8 518.6 " fill="#FEFFFF"></path><path d="M 784.4 518.6 L 966.0 518.6 L 966.0 428.1 L 784.4 428.1 Z M 784.4 518.6 " fill="#FEFFFF"></path><path d="M 58.0 428.1 L 239.6 428.1 L 239.6 337.7 L 58.0 337.7 Z M 58.0 428.1 " fill="#388CCE"></path><path d="M 239.6 428.1 L 421.2 428.1 L 421.2 337.7 L 239.6 337.7 Z M 239.6 428.1 " fill="#E2E5E8"></path><path d="M 421.2 428.1 L 602.8 428.1 L 602.8 337.7 L 421.2 337.7 Z M 421.2 428.1 " fill="#E2E5E8"></path><path d="M 602.8 428.1 L 784.4 428.1 L 784.4 337.7 L 602.8 337.7 Z M 602.8 428.1 " fill="#E2E5E8"></path><path d="M 784.4 428.1 L 966.0 428.1 L 966.0 337.7 L 784.4 337.7 Z M 784.4 428.1 " fill="#E2E5E8"></path><path d="M 58.0 337.7 L 239.6 337.7 L 239.6 247.3 L 58.0 247.3 Z M 58.0 337.7 " fill="#388CCE"></path><path d="M 239.6 337.7 L 421.2 337.7 L 421.2 247.3 L 239.6 247.3 Z M 239.6 337.7 " fill="#FEFFFF"></path><path d="M 421.2 337.7 L 602.8 337.7 L 602.8 247.3 L 421.2 247.3 Z M 421.2 337.7 " fill="#FEFFFF"></path><path d="M 602.8 337.7 L 784.4 337.7 L 784.4 247.3 L 602.8 247.3 Z M 602.8 337.7 " fill="#FEFFFF"></path><path d="M 784.4 337.7 L 966.0 337.7 L 966.0 247.3 L 784.4 247.3 Z M 784.4 337.7 " fill="#FEFFFF"></path><path d="M 58.0 247.3 L 239.6 247.3 L 239.6 156.8 L 58.0 156.8 Z M 58.0 247.3 " fill="#388CCE"></path><path d="M 239.6 247.3 L 421.2 247.3 L 421.2 156.8 L 239.6 156.8 Z M 239.6 247.3 " fill="#E2E5E8"></path><path d="M 421.2 247.3 L 602.8 247.3 L 602.8 156.8 L 421.2 156.8 Z M 421.2 247.3 " fill="#E2E5E8"></path><path d="M 602.8 247.3 L 784.4 247.3 L 784.4 156.8 L 602.8 156.8 Z M 602.8 247.3 " fill="#E2E5E8"></path><path d="M 784.4 247.3 L 966.0 247.3 L 966.0 156.8 L 784.4 156.8 Z M 784.4 247.3 " fill="#E2E5E8"></path><path d="M 58.0 156.8 L 239.6 156.8 L 239.6 66.4 L 58.0 66.4 Z M 58.0 156.8 " fill="#388CCE"></path><path d="M 239.6 156.8 L 421.2 156.8 L 421.2 66.4 L 239.6 66.4 Z M 239.6 156.8 " fill="#FEFFFF"></path><path d="M 421.2 156.8 L 602.8 156.8 L 602.8 66.4 L 421.2 66.4 Z M 421.2 156.8 " fill="#FEFFFF"></path><path d="M 602.8 156.8 L 784.4 156.8 L 784.4 66.4 L 602.8 66.4 Z M 602.8 156.8 " fill="#FEFFFF"></path><path d="M 784.4 156.8 L 966.0 156.8 L 966.0 66.4 L 784.4 66.4 Z M 784.4 156.8 " fill="#FEFFFF"></path></g></g><g><clipPath id="clip-1055"><path d="M 58.0 609.0 L 966.0 609.0 L 966.0 66.4 L 58.0 66.4 Z M 58.0 609.0 "></path></clipPath><g clip-path="url(#clip-1055)"><g><clipPath id="clip-1056"><path d="M 239.6 519.1 L 421.2 519.1 L 421.2 609.0 L 239.6 609.0 Z M 239.6 519.1 "></path></clipPath><g clip-path="url(#clip-1056)"><text xml:space="preserve" font-family="Helvetica-Bold" font-weight="bold" font-size="19.0" fill="#FEFFFE" transform="matrix(1.00, 0.00, -0.00, -1.00, 303.0, 556.0)">J</text><text xml:space="preserve" font-family="Helvetica-Bold" font-weight="bold" font-size="19.0" fill="#FEFFFE" transform="matrix(1.00, 0.00, -0.00, -1.00, 313.6, 556.0)">.</text><text xml:space="preserve" font-family="Helvetica-Bold" font-weight="bold" font-size="19.0" fill="#FEFFFE" transform="matrix(1.00, 0.00, -0.00, -1.00, 318.9, 556.0)">U</text><text xml:space="preserve" font-family="Helvetica-Bold" font-weight="bold" font-size="19.0" fill="#FEFFFE" transform="matrix(1.00, 0.00, -0.00, -1.00, 332.6, 556.0)">.</text><text xml:space="preserve" font-family="Helvetica-Bold" font-weight="bold" font-size="19.0" fill="#FEFFFE" transform="matrix(1.00, 0.00, -0.00, -1.00, 337.9, 556.0)">C</text><text xml:space="preserve" font-family="Helvetica-Bold" font-weight="bold" font-size="19.0" fill="#FEFFFE" transform="matrix(1.00, 0.00, -0.00, -1.00, 351.6, 556.0)">.</text></g></g></g></g><g><clipPath id="clip-1057"><path d="M 58.0 609.0 L 966.0 609.0 L 966.0 66.4 L 58.0 66.4 Z M 58.0 609.0 "></path></clipPath><g clip-path="url(#clip-1057)"><g><clipPath id="clip-1058"><path d="M 421.2 519.1 L 602.8 519.1 L 602.8 609.0 L 421.2 609.0 Z M 421.2 519.1 "></path></clipPath><g clip-path="url(#clip-1058)"><text xml:space="preserve" font-family="Helvetica-Bold" font-weight="bold" font-size="19.0" fill="#FEFFFE" transform="matrix(1.00, 0.00, -0.00, -1.00, 483.0, 556.0)">G</text><text xml:space="preserve" font-family="Helvetica-Bold" font-weight="bold" font-size="19.0" fill="#FEFFFE" transform="matrix(1.00, 0.00, -0.00, -1.00, 497.8, 556.0)">u</text><text xml:space="preserve" font-family="Helvetica-Bold" font-weight="bold" font-size="19.0" fill="#FEFFFE" transform="matrix(1.00, 0.00, -0.00, -1.00, 509.4, 556.0)">a</text><text xml:space="preserve" font-family="Helvetica-Bold" font-weight="bold" font-size="19.0" fill="#FEFFFE" transform="matrix(1.00, 0.00, -0.00, -1.00, 519.9, 556.0)">v</text><text xml:space="preserve" font-family="Helvetica-Bold" font-weight="bold" font-size="19.0" fill="#FEFFFE" transform="matrix(1.00, 0.00, -0.00, -1.00, 530.5, 556.0)">a</text></g></g></g></g><g><clipPath id="clip-1059"><path d="M 58.0 609.0 L 966.0 609.0 L 966.0 66.4 L 58.0 66.4 Z M 58.0 609.0 "></path></clipPath><g clip-path="url(#clip-1059)"><g><clipPath id="clip-1060"><path d="M 602.8 519.1 L 784.4 519.1 L 784.4 609.0 L 602.8 609.0 Z M 602.8 519.1 "></path></clipPath><g clip-path="url(#clip-1060)"><text xml:space="preserve" font-family="Helvetica-Bold" font-weight="bold" font-size="19.0" fill="#FEFFFE" transform="matrix(1.00, 0.00, -0.00, -1.00, 669.0, 556.0)">S</text><text xml:space="preserve" font-family="Helvetica-Bold" font-weight="bold" font-size="19.0" fill="#FEFFFE" transform="matrix(1.00, 0.00, -0.00, -1.00, 681.7, 556.0)">c</text><text xml:space="preserve" font-family="Helvetica-Bold" font-weight="bold" font-size="19.0" fill="#FEFFFE" transform="matrix(1.00, 0.00, -0.00, -1.00, 692.2, 556.0)">a</text><text xml:space="preserve" font-family="Helvetica-Bold" font-weight="bold" font-size="19.0" fill="#FEFFFE" transform="matrix(1.00, 0.00, -0.00, -1.00, 702.8, 556.0)">l</text><text xml:space="preserve" font-family="Helvetica-Bold" font-weight="bold" font-size="19.0" fill="#FEFFFE" transform="matrix(1.00, 0.00, -0.00, -1.00, 708.1, 556.0)">a</text></g></g></g></g><g><clipPath id="clip-1061"><path d="M 58.0 609.0 L 966.0 609.0 L 966.0 66.4 L 58.0 66.4 Z M 58.0 609.0 "></path></clipPath><g clip-path="url(#clip-1061)"><g><clipPath id="clip-1062"><path d="M 784.4 519.1 L 966.0 519.1 L 966.0 609.0 L 784.4 609.0 Z M 784.4 519.1 "></path></clipPath><g clip-path="url(#clip-1062)"><text xml:space="preserve" font-family="Helvetica-Bold" font-weight="bold" font-size="19.0" fill="#FEFFFE" transform="matrix(1.00, 0.00, -0.00, -1.00, 842.0, 556.0)">C</text><text xml:space="preserve" font-family="Helvetica-Bold" font-weight="bold" font-size="19.0" fill="#FEFFFE" transform="matrix(1.00, 0.00, -0.00, -1.00, 855.7, 556.0)">l</text><text xml:space="preserve" font-family="Helvetica-Bold" font-weight="bold" font-size="19.0" fill="#FEFFFE" transform="matrix(1.00, 0.00, -0.00, -1.00, 861.0, 556.0)">o</text><text xml:space="preserve" font-family="Helvetica-Bold" font-weight="bold" font-size="19.0" fill="#FEFFFE" transform="matrix(1.00, 0.00, -0.00, -1.00, 872.6, 556.0)">j</text><text xml:space="preserve" font-family="Helvetica-Bold" font-weight="bold" font-size="19.0" fill="#FEFFFE" transform="matrix(1.00, 0.00, -0.00, -1.00, 877.9, 556.0)">u</text><text xml:space="preserve" font-family="Helvetica-Bold" font-weight="bold" font-size="19.0" fill="#FEFFFE" transform="matrix(1.00, 0.00, -0.00, -1.00, 889.5, 556.0)">r</text><text xml:space="preserve" font-family="Helvetica-Bold" font-weight="bold" font-size="19.0" fill="#FEFFFE" transform="matrix(1.00, 0.00, -0.00, -1.00, 896.9, 556.0)">e</text></g></g></g></g><g><clipPath id="clip-1063"><path d="M 58.0 609.0 L 966.0 609.0 L 966.0 66.4 L 58.0 66.4 Z M 58.0 609.0 "></path></clipPath><g clip-path="url(#clip-1063)"><g><clipPath id="clip-1064"><path d="M 58.0 428.1 L 239.1 428.1 L 239.1 518.1 L 58.0 518.1 Z M 58.0 428.1 "></path></clipPath><g clip-path="url(#clip-1064)"><text xml:space="preserve" font-family="Helvetica-Bold" font-weight="bold" font-size="18.0" fill="#FEFFFE" transform="matrix(1.00, 0.00, -0.00, -1.00, 104.0, 466.0)">I</text><text xml:space="preserve" font-family="Helvetica-Bold" font-weight="bold" font-size="18.0" fill="#FEFFFE" transform="matrix(1.00, 0.00, -0.00, -1.00, 109.0, 466.0)">m</text><text xml:space="preserve" font-family="Helvetica-Bold" font-weight="bold" font-size="18.0" fill="#FEFFFE" transform="matrix(1.00, 0.00, -0.00, -1.00, 125.0, 466.0)">m</text><text xml:space="preserve" font-family="Helvetica-Bold" font-weight="bold" font-size="18.0" fill="#FEFFFE" transform="matrix(1.00, 0.00, -0.00, -1.00, 141.0, 466.0)">u</text><text xml:space="preserve" font-family="Helvetica-Bold" font-weight="bold" font-size="18.0" fill="#FEFFFE" transform="matrix(1.00, 0.00, -0.00, -1.00, 152.0, 466.0)">t</text><text xml:space="preserve" font-family="Helvetica-Bold" font-weight="bold" font-size="18.0" fill="#FEFFFE" transform="matrix(1.00, 0.00, -0.00, -1.00, 158.0, 466.0)">a</text><text xml:space="preserve" font-family="Helvetica-Bold" font-weight="bold" font-size="18.0" fill="#FEFFFE" transform="matrix(1.00, 0.00, -0.00, -1.00, 168.0, 466.0)">b</text><text xml:space="preserve" font-family="Helvetica-Bold" font-weight="bold" font-size="18.0" fill="#FEFFFE" transform="matrix(1.00, 0.00, -0.00, -1.00, 179.0, 466.0)">l</text><text xml:space="preserve" font-family="Helvetica-Bold" font-weight="bold" font-size="18.0" fill="#FEFFFE" transform="matrix(1.00, 0.00, -0.00, -1.00, 184.0, 466.0)">e</text></g></g></g></g><g><clipPath id="clip-1065"><path d="M 58.0 609.0 L 966.0 609.0 L 966.0 66.4 L 58.0 66.4 Z M 58.0 609.0 "></path></clipPath><g clip-path="url(#clip-1065)"><g><clipPath id="clip-1066"><path d="M 240.1 428.1 L 421.2 428.1 L 421.2 518.1 L 240.1 518.1 Z M 240.1 428.1 "></path></clipPath><g clip-path="url(#clip-1066)"><text xml:space="preserve" font-family="Helvetica-Light" font-size="26.0" fill="#000000" transform="matrix(1.00, 0.00, -0.00, -1.00, 321.0, 463.0)">N</text></g></g></g></g><g><clipPath id="clip-1067"><path d="M 58.0 609.0 L 966.0 609.0 L 966.0 66.4 L 58.0 66.4 Z M 58.0 609.0 "></path></clipPath><g clip-path="url(#clip-1067)"><g><clipPath id="clip-1068"><path d="M 421.2 428.1 L 602.8 428.1 L 602.8 518.1 L 421.2 518.1 Z M 421.2 428.1 "></path></clipPath><g clip-path="url(#clip-1068)"><text xml:space="preserve" font-family="Helvetica-Light" font-size="26.0" fill="#000000" transform="matrix(1.00, 0.00, -0.00, -1.00, 504.0, 463.0)">Y</text></g></g></g></g><g><clipPath id="clip-1069"><path d="M 58.0 609.0 L 966.0 609.0 L 966.0 66.4 L 58.0 66.4 Z M 58.0 609.0 "></path></clipPath><g clip-path="url(#clip-1069)"><g><clipPath id="clip-1070"><path d="M 602.8 428.1 L 784.4 428.1 L 784.4 518.1 L 602.8 518.1 Z M 602.8 428.1 "></path></clipPath><g clip-path="url(#clip-1070)"><text xml:space="preserve" font-family="Helvetica-Light" font-size="26.0" fill="#000000" transform="matrix(1.00, 0.00, -0.00, -1.00, 686.0, 463.0)">Y</text></g></g></g></g><g><clipPath id="clip-1071"><path d="M 58.0 609.0 L 966.0 609.0 L 966.0 66.4 L 58.0 66.4 Z M 58.0 609.0 "></path></clipPath><g clip-path="url(#clip-1071)"><g><clipPath id="clip-1072"><path d="M 784.4 428.1 L 966.0 428.1 L 966.0 518.1 L 784.4 518.1 Z M 784.4 428.1 "></path></clipPath><g clip-path="url(#clip-1072)"><text xml:space="preserve" font-family="Helvetica-Light" font-size="26.0" fill="#000000" transform="matrix(1.00, 0.00, -0.00, -1.00, 867.0, 463.0)">Y</text></g></g></g></g><g><clipPath id="clip-1073"><path d="M 58.0 609.0 L 966.0 609.0 L 966.0 66.4 L 58.0 66.4 Z M 58.0 609.0 "></path></clipPath><g clip-path="url(#clip-1073)"><g><clipPath id="clip-1074"><path d="M 58.0 337.7 L 239.1 337.7 L 239.1 428.1 L 58.0 428.1 Z M 58.0 337.7 "></path></clipPath><g clip-path="url(#clip-1074)"><text xml:space="preserve" font-family="Helvetica-Bold" font-weight="bold" font-size="18.0" fill="#FEFFFE" transform="matrix(1.00, 0.00, -0.00, -1.00, 83.0, 376.0)">H</text><text xml:space="preserve" font-family="Helvetica-Bold" font-weight="bold" font-size="18.0" fill="#FEFFFE" transform="matrix(1.00, 0.00, -0.00, -1.00, 96.0, 376.0)">e</text><text xml:space="preserve" font-family="Helvetica-Bold" font-weight="bold" font-size="18.0" fill="#FEFFFE" transform="matrix(1.00, 0.00, -0.00, -1.00, 106.0, 376.0)">t</text><text xml:space="preserve" font-family="Helvetica-Bold" font-weight="bold" font-size="18.0" fill="#FEFFFE" transform="matrix(1.00, 0.00, -0.00, -1.00, 112.0, 376.0)">e</text><text xml:space="preserve" font-family="Helvetica-Bold" font-weight="bold" font-size="18.0" fill="#FEFFFE" transform="matrix(1.00, 0.00, -0.00, -1.00, 122.0, 376.0)">r</text><text xml:space="preserve" font-family="Helvetica-Bold" font-weight="bold" font-size="18.0" fill="#FEFFFE" transform="matrix(1.00, 0.00, -0.00, -1.00, 129.0, 376.0)">o</text><text xml:space="preserve" font-family="Helvetica-Bold" font-weight="bold" font-size="18.0" fill="#FEFFFE" transform="matrix(1.00, 0.00, -0.00, -1.00, 140.0, 376.0)">g</text><text xml:space="preserve" font-family="Helvetica-Bold" font-weight="bold" font-size="18.0" fill="#FEFFFE" transform="matrix(1.00, 0.00, -0.00, -1.00, 151.0, 376.0)">e</text><text xml:space="preserve" font-family="Helvetica-Bold" font-weight="bold" font-size="18.0" fill="#FEFFFE" transform="matrix(1.00, 0.00, -0.00, -1.00, 161.0, 376.0)">n</text><text xml:space="preserve" font-family="Helvetica-Bold" font-weight="bold" font-size="18.0" fill="#FEFFFE" transform="matrix(1.00, 0.00, -0.00, -1.00, 172.0, 376.0)">e</text><text xml:space="preserve" font-family="Helvetica-Bold" font-weight="bold" font-size="18.0" fill="#FEFFFE" transform="matrix(1.00, 0.00, -0.00, -1.00, 182.0, 376.0)">o</text><text xml:space="preserve" font-family="Helvetica-Bold" font-weight="bold" font-size="18.0" fill="#FEFFFE" transform="matrix(1.00, 0.00, -0.00, -1.00, 193.0, 376.0)">u</text><text xml:space="preserve" font-family="Helvetica-Bold" font-weight="bold" font-size="18.0" fill="#FEFFFE" transform="matrix(1.00, 0.00, -0.00, -1.00, 204.0, 376.0)">s</text></g></g></g></g><g><clipPath id="clip-1075"><path d="M 58.0 609.0 L 966.0 609.0 L 966.0 66.4 L 58.0 66.4 Z M 58.0 609.0 "></path></clipPath><g clip-path="url(#clip-1075)"><g><clipPath id="clip-1076"><path d="M 240.1 337.7 L 421.2 337.7 L 421.2 428.1 L 240.1 428.1 Z M 240.1 337.7 "></path></clipPath><g clip-path="url(#clip-1076)"><text xml:space="preserve" font-family="Helvetica-Light" font-size="26.0" fill="#000000" transform="matrix(1.00, 0.00, -0.00, -1.00, 321.0, 373.0)">N</text></g></g></g></g><g><clipPath id="clip-1077"><path d="M 58.0 609.0 L 966.0 609.0 L 966.0 66.4 L 58.0 66.4 Z M 58.0 609.0 "></path></clipPath><g clip-path="url(#clip-1077)"><g><clipPath id="clip-1078"><path d="M 421.2 337.7 L 602.8 337.7 L 602.8 428.1 L 421.2 428.1 Z M 421.2 337.7 "></path></clipPath><g clip-path="url(#clip-1078)"><text xml:space="preserve" font-family="Helvetica-Light" font-size="26.0" fill="#000000" transform="matrix(1.00, 0.00, -0.00, -1.00, 503.0, 373.0)">N</text></g></g></g></g><g><clipPath id="clip-1079"><path d="M 58.0 609.0 L 966.0 609.0 L 966.0 66.4 L 58.0 66.4 Z M 58.0 609.0 "></path></clipPath><g clip-path="url(#clip-1079)"><g><clipPath id="clip-1080"><path d="M 602.8 337.7 L 784.4 337.7 L 784.4 428.1 L 602.8 428.1 Z M 602.8 337.7 "></path></clipPath><g clip-path="url(#clip-1080)"><text xml:space="preserve" font-family="Helvetica-Light" font-size="26.0" fill="#000000" transform="matrix(1.00, 0.00, -0.00, -1.00, 684.0, 373.0)">N</text></g></g></g></g><g><clipPath id="clip-1081"><path d="M 58.0 609.0 L 966.0 609.0 L 966.0 66.4 L 58.0 66.4 Z M 58.0 609.0 "></path></clipPath><g clip-path="url(#clip-1081)"><g><clipPath id="clip-1082"><path d="M 784.4 337.7 L 966.0 337.7 L 966.0 428.1 L 784.4 428.1 Z M 784.4 337.7 "></path></clipPath><g clip-path="url(#clip-1082)"><text xml:space="preserve" font-family="Helvetica-Light" font-size="26.0" fill="#000000" transform="matrix(1.00, 0.00, -0.00, -1.00, 867.0, 373.0)">Y</text></g></g></g></g><g><clipPath id="clip-1083"><path d="M 58.0 609.0 L 966.0 609.0 L 966.0 66.4 L 58.0 66.4 Z M 58.0 609.0 "></path></clipPath><g clip-path="url(#clip-1083)"><g><clipPath id="clip-1084"><path d="M 58.0 247.3 L 239.1 247.3 L 239.1 337.7 L 58.0 337.7 Z M 58.0 247.3 "></path></clipPath><g clip-path="url(#clip-1084)"><text xml:space="preserve" font-family="Helvetica-Bold" font-weight="bold" font-size="18.0" fill="#FEFFFE" transform="matrix(1.00, 0.00, -0.00, -1.00, 90.0, 286.0)">L</text><text xml:space="preserve" font-family="Helvetica-Bold" font-weight="bold" font-size="18.0" fill="#FEFFFE" transform="matrix(1.00, 0.00, -0.00, -1.00, 101.0, 286.0)">i</text><text xml:space="preserve" font-family="Helvetica-Bold" font-weight="bold" font-size="18.0" fill="#FEFFFE" transform="matrix(1.00, 0.00, -0.00, -1.00, 106.0, 286.0)">t</text><text xml:space="preserve" font-family="Helvetica-Bold" font-weight="bold" font-size="18.0" fill="#FEFFFE" transform="matrix(1.00, 0.00, -0.00, -1.00, 112.0, 286.0)">e</text><text xml:space="preserve" font-family="Helvetica-Bold" font-weight="bold" font-size="18.0" fill="#FEFFFE" transform="matrix(1.00, 0.00, -0.00, -1.00, 122.0, 286.0)">r</text><text xml:space="preserve" font-family="Helvetica-Bold" font-weight="bold" font-size="18.0" fill="#FEFFFE" transform="matrix(1.00, 0.00, -0.00, -1.00, 129.0, 286.0)">a</text><text xml:space="preserve" font-family="Helvetica-Bold" font-weight="bold" font-size="18.0" fill="#FEFFFE" transform="matrix(1.00, 0.00, -0.00, -1.00, 139.0, 286.0)">l</text><text xml:space="preserve" font-family="Helvetica-Bold" font-weight="bold" font-size="18.0" fill="#FEFFFE" transform="matrix(1.00, 0.00, -0.00, -1.00, 144.0, 286.0)"> </text><text xml:space="preserve" font-family="Helvetica-Bold" font-weight="bold" font-size="18.0" fill="#FEFFFE" transform="matrix(1.00, 0.00, -0.00, -1.00, 149.0, 286.0)">S</text><text xml:space="preserve" font-family="Helvetica-Bold" font-weight="bold" font-size="18.0" fill="#FEFFFE" transform="matrix(1.00, 0.00, -0.00, -1.00, 161.0, 286.0)">y</text><text xml:space="preserve" font-family="Helvetica-Bold" font-weight="bold" font-size="18.0" fill="#FEFFFE" transform="matrix(1.00, 0.00, -0.00, -1.00, 171.0, 286.0)">n</text><text xml:space="preserve" font-family="Helvetica-Bold" font-weight="bold" font-size="18.0" fill="#FEFFFE" transform="matrix(1.00, 0.00, -0.00, -1.00, 182.0, 286.0)">t</text><text xml:space="preserve" font-family="Helvetica-Bold" font-weight="bold" font-size="18.0" fill="#FEFFFE" transform="matrix(1.00, 0.00, -0.00, -1.00, 188.0, 286.0)">a</text><text xml:space="preserve" font-family="Helvetica-Bold" font-weight="bold" font-size="18.0" fill="#FEFFFE" transform="matrix(1.00, 0.00, -0.00, -1.00, 198.0, 286.0)">x</text></g></g></g></g><g><clipPath id="clip-1085"><path d="M 58.0 609.0 L 966.0 609.0 L 966.0 66.4 L 58.0 66.4 Z M 58.0 609.0 "></path></clipPath><g clip-path="url(#clip-1085)"><g><clipPath id="clip-1086"><path d="M 240.1 247.3 L 421.2 247.3 L 421.2 337.7 L 240.1 337.7 Z M 240.1 247.3 "></path></clipPath><g clip-path="url(#clip-1086)"><text xml:space="preserve" font-family="Helvetica-Light" font-size="26.0" fill="#000000" transform="matrix(1.00, 0.00, -0.00, -1.00, 321.0, 283.0)">N</text></g></g></g></g><g><clipPath id="clip-1087"><path d="M 58.0 609.0 L 966.0 609.0 L 966.0 66.4 L 58.0 66.4 Z M 58.0 609.0 "></path></clipPath><g clip-path="url(#clip-1087)"><g><clipPath id="clip-1088"><path d="M 421.2 247.3 L 602.8 247.3 L 602.8 337.7 L 421.2 337.7 Z M 421.2 247.3 "></path></clipPath><g clip-path="url(#clip-1088)"><text xml:space="preserve" font-family="Helvetica-Light" font-size="26.0" fill="#000000" transform="matrix(1.00, 0.00, -0.00, -1.00, 503.0, 283.0)">N</text></g></g></g></g><g><clipPath id="clip-1089"><path d="M 58.0 609.0 L 966.0 609.0 L 966.0 66.4 L 58.0 66.4 Z M 58.0 609.0 "></path></clipPath><g clip-path="url(#clip-1089)"><g><clipPath id="clip-1090"><path d="M 602.8 247.3 L 784.4 247.3 L 784.4 337.7 L 602.8 337.7 Z M 602.8 247.3 "></path></clipPath><g clip-path="url(#clip-1090)"><text xml:space="preserve" font-family="Helvetica-Light" font-size="26.0" fill="#000000" transform="matrix(1.00, 0.00, -0.00, -1.00, 684.0, 283.0)">N</text></g></g></g></g><g><clipPath id="clip-1091"><path d="M 58.0 609.0 L 966.0 609.0 L 966.0 66.4 L 58.0 66.4 Z M 58.0 609.0 "></path></clipPath><g clip-path="url(#clip-1091)"><g><clipPath id="clip-1092"><path d="M 784.4 247.3 L 966.0 247.3 L 966.0 337.7 L 784.4 337.7 Z M 784.4 247.3 "></path></clipPath><g clip-path="url(#clip-1092)"><text xml:space="preserve" font-family="Helvetica-Light" font-size="26.0" fill="#000000" transform="matrix(1.00, 0.00, -0.00, -1.00, 862.0, 283.0)">Y</text><text xml:space="preserve" font-family="Helvetica-Light" font-size="26.0" fill="#000000" transform="matrix(1.00, 0.00, -0.00, -1.00, 877.9, 283.0)">*</text></g></g></g></g><g><clipPath id="clip-1093"><path d="M 58.0 609.0 L 966.0 609.0 L 966.0 66.4 L 58.0 66.4 Z M 58.0 609.0 "></path></clipPath><g clip-path="url(#clip-1093)"><g><clipPath id="clip-1094"><path d="M 58.0 156.8 L 239.1 156.8 L 239.1 247.3 L 58.0 247.3 Z M 58.0 156.8 "></path></clipPath><g clip-path="url(#clip-1094)"><text xml:space="preserve" font-family="Helvetica-Bold" font-weight="bold" font-size="18.0" fill="#FEFFFE" transform="matrix(1.00, 0.00, -0.00, -1.00, 95.0, 206.0)">E</text><text xml:space="preserve" font-family="Helvetica-Bold" font-weight="bold" font-size="18.0" fill="#FEFFFE" transform="matrix(1.00, 0.00, -0.00, -1.00, 107.0, 206.0)">a</text><text xml:space="preserve" font-family="Helvetica-Bold" font-weight="bold" font-size="18.0" fill="#FEFFFE" transform="matrix(1.00, 0.00, -0.00, -1.00, 117.0, 206.0)">s</text><text xml:space="preserve" font-family="Helvetica-Bold" font-weight="bold" font-size="18.0" fill="#FEFFFE" transform="matrix(1.00, 0.00, -0.00, -1.00, 127.0, 206.0)">y</text><text xml:space="preserve" font-family="Helvetica-Bold" font-weight="bold" font-size="18.0" fill="#FEFFFE" transform="matrix(1.00, 0.00, -0.00, -1.00, 137.0, 206.0)"> </text><text xml:space="preserve" font-family="Helvetica-Bold" font-weight="bold" font-size="18.0" fill="#FEFFFE" transform="matrix(1.00, 0.00, -0.00, -1.00, 142.0, 206.0)">N</text><text xml:space="preserve" font-family="Helvetica-Bold" font-weight="bold" font-size="18.0" fill="#FEFFFE" transform="matrix(1.00, 0.00, -0.00, -1.00, 155.0, 206.0)">e</text><text xml:space="preserve" font-family="Helvetica-Bold" font-weight="bold" font-size="18.0" fill="#FEFFFE" transform="matrix(1.00, 0.00, -0.00, -1.00, 165.1, 206.0)">s</text><text xml:space="preserve" font-family="Helvetica-Bold" font-weight="bold" font-size="18.0" fill="#FEFFFE" transform="matrix(1.00, 0.00, -0.00, -1.00, 175.1, 206.0)">t</text><text xml:space="preserve" font-family="Helvetica-Bold" font-weight="bold" font-size="18.0" fill="#FEFFFE" transform="matrix(1.00, 0.00, -0.00, -1.00, 181.1, 206.0)">e</text><text xml:space="preserve" font-family="Helvetica-Bold" font-weight="bold" font-size="18.0" fill="#FEFFFE" transform="matrix(1.00, 0.00, -0.00, -1.00, 191.1, 206.0)">d</text><text xml:space="preserve" font-family="Helvetica-Bold" font-weight="bold" font-size="18.0" fill="#FEFFFE" transform="matrix(1.00, 0.00, -0.00, -1.00, 202.1, 206.0)"> </text><text xml:space="preserve" font-family="Helvetica-Bold" font-weight="bold" font-size="18.0" fill="#FEFFFE" transform="matrix(1.00, 0.00, -0.00, -1.00, 117.0, 184.0)">A</text><text xml:space="preserve" font-family="Helvetica-Bold" font-weight="bold" font-size="18.0" fill="#FEFFFE" transform="matrix(1.00, 0.00, -0.00, -1.00, 130.0, 184.0)">c</text><text xml:space="preserve" font-family="Helvetica-Bold" font-weight="bold" font-size="18.0" fill="#FEFFFE" transform="matrix(1.00, 0.00, -0.00, -1.00, 140.0, 184.0)">c</text><text xml:space="preserve" font-family="Helvetica-Bold" font-weight="bold" font-size="18.0" fill="#FEFFFE" transform="matrix(1.00, 0.00, -0.00, -1.00, 150.0, 184.0)">e</text><text xml:space="preserve" font-family="Helvetica-Bold" font-weight="bold" font-size="18.0" fill="#FEFFFE" transform="matrix(1.00, 0.00, -0.00, -1.00, 160.0, 184.0)">s</text><text xml:space="preserve" font-family="Helvetica-Bold" font-weight="bold" font-size="18.0" fill="#FEFFFE" transform="matrix(1.00, 0.00, -0.00, -1.00, 170.1, 184.0)">s</text></g></g></g></g><g><clipPath id="clip-1095"><path d="M 58.0 609.0 L 966.0 609.0 L 966.0 66.4 L 58.0 66.4 Z M 58.0 609.0 "></path></clipPath><g clip-path="url(#clip-1095)"><g><clipPath id="clip-1096"><path d="M 240.1 156.8 L 421.2 156.8 L 421.2 247.3 L 240.1 247.3 Z M 240.1 156.8 "></path></clipPath><g clip-path="url(#clip-1096)"><text xml:space="preserve" font-family="Helvetica-Light" font-size="26.0" fill="#000000" transform="matrix(1.00, 0.00, -0.00, -1.00, 321.0, 192.0)">N</text></g></g></g></g><g><clipPath id="clip-1097"><path d="M 58.0 609.0 L 966.0 609.0 L 966.0 66.4 L 58.0 66.4 Z M 58.0 609.0 "></path></clipPath><g clip-path="url(#clip-1097)"><g><clipPath id="clip-1098"><path d="M 421.2 156.8 L 602.8 156.8 L 602.8 247.3 L 421.2 247.3 Z M 421.2 156.8 "></path></clipPath><g clip-path="url(#clip-1098)"><text xml:space="preserve" font-family="Helvetica-Light" font-size="26.0" fill="#000000" transform="matrix(1.00, 0.00, -0.00, -1.00, 503.0, 192.0)">N</text></g></g></g></g><g><clipPath id="clip-1099"><path d="M 58.0 609.0 L 966.0 609.0 L 966.0 66.4 L 58.0 66.4 Z M 58.0 609.0 "></path></clipPath><g clip-path="url(#clip-1099)"><g><clipPath id="clip-1100"><path d="M 602.8 156.8 L 784.4 156.8 L 784.4 247.3 L 602.8 247.3 Z M 602.8 156.8 "></path></clipPath><g clip-path="url(#clip-1100)"><text xml:space="preserve" font-family="Helvetica-Light" font-size="26.0" fill="#000000" transform="matrix(1.00, 0.00, -0.00, -1.00, 684.0, 192.0)">N</text></g></g></g></g><g><clipPath id="clip-1101"><path d="M 58.0 609.0 L 966.0 609.0 L 966.0 66.4 L 58.0 66.4 Z M 58.0 609.0 "></path></clipPath><g clip-path="url(#clip-1101)"><g><clipPath id="clip-1102"><path d="M 784.4 156.8 L 966.0 156.8 L 966.0 247.3 L 784.4 247.3 Z M 784.4 156.8 "></path></clipPath><g clip-path="url(#clip-1102)"><text xml:space="preserve" font-family="Helvetica-Light" font-size="26.0" fill="#000000" transform="matrix(1.00, 0.00, -0.00, -1.00, 867.0, 192.0)">Y</text></g></g></g></g><g><clipPath id="clip-1103"><path d="M 58.0 609.0 L 966.0 609.0 L 966.0 66.4 L 58.0 66.4 Z M 58.0 609.0 "></path></clipPath><g clip-path="url(#clip-1103)"><g><clipPath id="clip-1104"><path d="M 58.0 66.4 L 239.1 66.4 L 239.1 156.8 L 58.0 156.8 Z M 58.0 66.4 "></path></clipPath><g clip-path="url(#clip-1104)"><text xml:space="preserve" font-family="Helvetica-Bold" font-weight="bold" font-size="18.0" fill="#FEFFFE" transform="matrix(1.00, 0.00, -0.00, -1.00, 95.0, 116.0)">E</text><text xml:space="preserve" font-family="Helvetica-Bold" font-weight="bold" font-size="18.0" fill="#FEFFFE" transform="matrix(1.00, 0.00, -0.00, -1.00, 107.0, 116.0)">a</text><text xml:space="preserve" font-family="Helvetica-Bold" font-weight="bold" font-size="18.0" fill="#FEFFFE" transform="matrix(1.00, 0.00, -0.00, -1.00, 117.0, 116.0)">s</text><text xml:space="preserve" font-family="Helvetica-Bold" font-weight="bold" font-size="18.0" fill="#FEFFFE" transform="matrix(1.00, 0.00, -0.00, -1.00, 127.0, 116.0)">y</text><text xml:space="preserve" font-family="Helvetica-Bold" font-weight="bold" font-size="18.0" fill="#FEFFFE" transform="matrix(1.00, 0.00, -0.00, -1.00, 137.0, 116.0)"> </text><text xml:space="preserve" font-family="Helvetica-Bold" font-weight="bold" font-size="18.0" fill="#FEFFFE" transform="matrix(1.00, 0.00, -0.00, -1.00, 142.0, 116.0)">N</text><text xml:space="preserve" font-family="Helvetica-Bold" font-weight="bold" font-size="18.0" fill="#FEFFFE" transform="matrix(1.00, 0.00, -0.00, -1.00, 155.0, 116.0)">e</text><text xml:space="preserve" font-family="Helvetica-Bold" font-weight="bold" font-size="18.0" fill="#FEFFFE" transform="matrix(1.00, 0.00, -0.00, -1.00, 165.1, 116.0)">s</text><text xml:space="preserve" font-family="Helvetica-Bold" font-weight="bold" font-size="18.0" fill="#FEFFFE" transform="matrix(1.00, 0.00, -0.00, -1.00, 175.1, 116.0)">t</text><text xml:space="preserve" font-family="Helvetica-Bold" font-weight="bold" font-size="18.0" fill="#FEFFFE" transform="matrix(1.00, 0.00, -0.00, -1.00, 181.1, 116.0)">e</text><text xml:space="preserve" font-family="Helvetica-Bold" font-weight="bold" font-size="18.0" fill="#FEFFFE" transform="matrix(1.00, 0.00, -0.00, -1.00, 191.1, 116.0)">d</text><text xml:space="preserve" font-family="Helvetica-Bold" font-weight="bold" font-size="18.0" fill="#FEFFFE" transform="matrix(1.00, 0.00, -0.00, -1.00, 202.1, 116.0)"> </text><text xml:space="preserve" font-family="Helvetica-Bold" font-weight="bold" font-size="18.0" fill="#FEFFFE" transform="matrix(1.00, 0.00, -0.00, -1.00, 96.0, 94.0)">M</text><text xml:space="preserve" font-family="Helvetica-Bold" font-weight="bold" font-size="18.0" fill="#FEFFFE" transform="matrix(1.00, 0.00, -0.00, -1.00, 111.0, 94.0)">o</text><text xml:space="preserve" font-family="Helvetica-Bold" font-weight="bold" font-size="18.0" fill="#FEFFFE" transform="matrix(1.00, 0.00, -0.00, -1.00, 122.0, 94.0)">d</text><text xml:space="preserve" font-family="Helvetica-Bold" font-weight="bold" font-size="18.0" fill="#FEFFFE" transform="matrix(1.00, 0.00, -0.00, -1.00, 133.0, 94.0)">i</text><text xml:space="preserve" font-family="Helvetica-Bold" font-weight="bold" font-size="18.0" fill="#FEFFFE" transform="matrix(1.00, 0.00, -0.00, -1.00, 138.0, 94.0)">ï¬</text><text xml:space="preserve" font-family="Helvetica-Bold" font-weight="bold" font-size="18.0" fill="#FEFFFE" transform="matrix(1.00, 0.00, -0.00, -1.00, 149.0, 94.0)">c</text><text xml:space="preserve" font-family="Helvetica-Bold" font-weight="bold" font-size="18.0" fill="#FEFFFE" transform="matrix(1.00, 0.00, -0.00, -1.00, 159.0, 94.0)">a</text><text xml:space="preserve" font-family="Helvetica-Bold" font-weight="bold" font-size="18.0" fill="#FEFFFE" transform="matrix(1.00, 0.00, -0.00, -1.00, 169.0, 94.0)">t</text><text xml:space="preserve" font-family="Helvetica-Bold" font-weight="bold" font-size="18.0" fill="#FEFFFE" transform="matrix(1.00, 0.00, -0.00, -1.00, 175.0, 94.0)">i</text><text xml:space="preserve" font-family="Helvetica-Bold" font-weight="bold" font-size="18.0" fill="#FEFFFE" transform="matrix(1.00, 0.00, -0.00, -1.00, 180.0, 94.0)">o</text><text xml:space="preserve" font-family="Helvetica-Bold" font-weight="bold" font-size="18.0" fill="#FEFFFE" transform="matrix(1.00, 0.00, -0.00, -1.00, 191.0, 94.0)">n</text></g></g></g></g><g><clipPath id="clip-1105"><path d="M 58.0 609.0 L 966.0 609.0 L 966.0 66.4 L 58.0 66.4 Z M 58.0 609.0 "></path></clipPath><g clip-path="url(#clip-1105)"><g><clipPath id="clip-1106"><path d="M 240.1 66.4 L 421.2 66.4 L 421.2 156.8 L 240.1 156.8 Z M 240.1 66.4 "></path></clipPath><g clip-path="url(#clip-1106)"><text xml:space="preserve" font-family="Helvetica-Light" font-size="26.0" fill="#000000" transform="matrix(1.00, 0.00, -0.00, -1.00, 321.0, 102.0)">N</text></g></g></g></g><g><clipPath id="clip-1107"><path d="M 58.0 609.0 L 966.0 609.0 L 966.0 66.4 L 58.0 66.4 Z M 58.0 609.0 "></path></clipPath><g clip-path="url(#clip-1107)"><g><clipPath id="clip-1108"><path d="M 421.2 66.4 L 602.8 66.4 L 602.8 156.8 L 421.2 156.8 Z M 421.2 66.4 "></path></clipPath><g clip-path="url(#clip-1108)"><text xml:space="preserve" font-family="Helvetica-Light" font-size="26.0" fill="#000000" transform="matrix(1.00, 0.00, -0.00, -1.00, 503.0, 102.0)">N</text></g></g></g></g><g><clipPath id="clip-1109"><path d="M 58.0 609.0 L 966.0 609.0 L 966.0 66.4 L 58.0 66.4 Z M 58.0 609.0 "></path></clipPath><g clip-path="url(#clip-1109)"><g><clipPath id="clip-1110"><path d="M 602.8 66.4 L 784.4 66.4 L 784.4 156.8 L 602.8 156.8 Z M 602.8 66.4 "></path></clipPath><g clip-path="url(#clip-1110)"><text xml:space="preserve" font-family="Helvetica-Light" font-size="26.0" fill="#000000" transform="matrix(1.00, 0.00, -0.00, -1.00, 684.0, 102.0)">N</text></g></g></g></g><g><clipPath id="clip-1111"><path d="M 58.0 609.0 L 966.0 609.0 L 966.0 66.4 L 58.0 66.4 Z M 58.0 609.0 "></path></clipPath><g clip-path="url(#clip-1111)"><g><clipPath id="clip-1112"><path d="M 784.4 66.4 L 966.0 66.4 L 966.0 156.8 L 784.4 156.8 Z M 784.4 66.4 "></path></clipPath><g clip-path="url(#clip-1112)"><text xml:space="preserve" font-family="Helvetica-Light" font-size="26.0" fill="#000000" transform="matrix(1.00, 0.00, -0.00, -1.00, 867.0, 102.0)">Y</text></g></g></g></g></g></svg>